<?xml version="1.0" encoding="us-ascii" standalone="no"?><svg xmlns="http://www.w3.org/2000/svg" xmlns:xlink="http://www.w3.org/1999/xlink" contentStyleType="text/css" height="117px" preserveAspectRatio="none" style="width:228px;height:117px;background:#FFFFFF;" version="1.1" viewBox="0 0 228 117" width="228px" zoomAndPan="magnify"><defs/><g><!--class CatalogTypeDto--><g id="elem_CatalogTypeDto"><rect codeLine="1" fill="#F1F1F1" height="96.8906" id="CatalogTypeDto" rx="2.5" ry="2.5" style="stroke:#181818;stroke-width:0.5;" width="207" x="7" y="7"/><ellipse cx="50.8" cy="23" fill="#ADD1B2" rx="11" ry="11" style="stroke:#181818;stroke-width:1.0;"/><path d="M53.7688,28.6406 Q53.1906,28.9375 52.55,29.0781 Q51.9094,29.2344 51.2063,29.2344 Q48.7063,29.2344 47.3781,27.5938 Q46.0656,25.9375 46.0656,22.8125 Q46.0656,19.6875 47.3781,18.0313 Q48.7063,16.375 51.2063,16.375 Q51.9094,16.375 52.55,16.5313 Q53.2063,16.6875 53.7688,16.9844 L53.7688,19.7031 Q53.1438,19.125 52.55,18.8594 Q51.9563,18.5781 51.3313,18.5781 Q49.9875,18.5781 49.3,19.6563 Q48.6125,20.7188 48.6125,22.8125 Q48.6125,24.9063 49.3,25.9844 Q49.9875,27.0469 51.3313,27.0469 Q51.9563,27.0469 52.55,26.7813 Q53.1438,26.5 53.7688,25.9219 L53.7688,28.6406 Z " fill="#000000"/><text fill="#000000" font-family="sans-serif" font-size="14" lengthAdjust="spacing" textLength="111" x="71.2" y="27.8467">CatalogTypeDto</text><line style="stroke:#181818;stroke-width:0.5;" x1="8" x2="213" y1="39" y2="39"/><ellipse cx="18" cy="52.6484" fill="none" rx="3" ry="3" style="stroke:#038048;stroke-width:1.0;"/><text fill="#000000" font-family="sans-serif" font-size="14" lengthAdjust="spacing" textLength="131" x="27" y="55.9951">Id : int &#171;get&#187; &#171;set&#187;</text><ellipse cx="18" cy="68.9453" fill="none" rx="3" ry="3" style="stroke:#038048;stroke-width:1.0;"/><text fill="#000000" font-family="sans-serif" font-size="14" lengthAdjust="spacing" textLength="181" x="27" y="72.292">Name : string &#171;get&#187; &#171;set&#187;</text><line style="stroke:#181818;stroke-width:0.5;" x1="8" x2="213" y1="79.5938" y2="79.5938"/><ellipse cx="18" cy="93.2422" fill="#84BE84" rx="3" ry="3" style="stroke:#038048;stroke-width:1.0;"/><text fill="#000000" font-family="sans-serif" font-size="14" lengthAdjust="spacing" textLength="121" x="27" y="96.5889">CatalogTypeDto()</text></g><!--SRC=[Iyv9B2vMS4uiISp9Jm-fB4XrASbNKAZcKW02RGNF50KhXSoy4WKRc_JK4Zix85qCeg7IVecvgK05nIL5cNdfEDIW6gsXoLKB0000]--></g></svg>