<?xml version="1.0" encoding="us-ascii" standalone="no"?><svg xmlns="http://www.w3.org/2000/svg" xmlns:xlink="http://www.w3.org/1999/xlink" contentStyleType="text/css" height="448px" preserveAspectRatio="none" style="width:488px;height:448px;background:#FFFFFF;" version="1.1" viewBox="0 0 488 448" width="488px" zoomAndPan="magnify"><defs/><g><!--class CatalogItem--><g id="elem_CatalogItem"><rect codeLine="1" fill="#F1F1F1" height="276.1563" id="CatalogItem" rx="2.5" ry="2.5" style="stroke:#181818;stroke-width:0.5;" width="474" x="7" y="165"/><ellipse cx="198.75" cy="181" fill="#ADD1B2" rx="11" ry="11" style="stroke:#181818;stroke-width:1.0;"/><path d="M201.7188,186.6406 Q201.1406,186.9375 200.5,187.0781 Q199.8594,187.2344 199.1563,187.2344 Q196.6563,187.2344 195.3281,185.5938 Q194.0156,183.9375 194.0156,180.8125 Q194.0156,177.6875 195.3281,176.0313 Q196.6563,174.375 199.1563,174.375 Q199.8594,174.375 200.5,174.5313 Q201.1563,174.6875 201.7188,174.9844 L201.7188,177.7031 Q201.0938,177.125 200.5,176.8594 Q199.9063,176.5781 199.2813,176.5781 Q197.9375,176.5781 197.25,177.6563 Q196.5625,178.7188 196.5625,180.8125 Q196.5625,182.9063 197.25,183.9844 Q197.9375,185.0469 199.2813,185.0469 Q199.9063,185.0469 200.5,184.7813 Q201.0938,184.5 201.7188,183.9219 L201.7188,186.6406 Z " fill="#000000"/><text fill="#000000" font-family="sans-serif" font-size="14" lengthAdjust="spacing" textLength="82" x="219.25" y="185.8467">CatalogItem</text><line style="stroke:#181818;stroke-width:0.5;" x1="8" x2="480" y1="197" y2="197"/><ellipse cx="18" cy="210.6484" fill="none" rx="3" ry="3" style="stroke:#038048;stroke-width:1.0;"/><text fill="#000000" font-family="sans-serif" font-size="14" lengthAdjust="spacing" textLength="131" x="27" y="213.9951">Id : int &#171;get&#187; &#171;set&#187;</text><ellipse cx="18" cy="226.9453" fill="none" rx="3" ry="3" style="stroke:#038048;stroke-width:1.0;"/><text fill="#000000" font-family="sans-serif" font-size="14" lengthAdjust="spacing" textLength="217" x="27" y="230.292">CatalogTypeId : int &#171;get&#187; &#171;set&#187;</text><ellipse cx="18" cy="243.2422" fill="none" rx="3" ry="3" style="stroke:#038048;stroke-width:1.0;"/><text fill="#000000" font-family="sans-serif" font-size="14" lengthAdjust="spacing" textLength="227" x="27" y="246.5889">CatalogType : string &#171;get&#187; &#171;set&#187;</text><ellipse cx="18" cy="259.5391" fill="none" rx="3" ry="3" style="stroke:#038048;stroke-width:1.0;"/><text fill="#000000" font-family="sans-serif" font-size="14" lengthAdjust="spacing" textLength="224" x="27" y="262.8857">CatalogBrandId : int &#171;get&#187; &#171;set&#187;</text><ellipse cx="18" cy="275.8359" fill="none" rx="3" ry="3" style="stroke:#038048;stroke-width:1.0;"/><text fill="#000000" font-family="sans-serif" font-size="14" lengthAdjust="spacing" textLength="234" x="27" y="279.1826">CatalogBrand : string &#171;get&#187; &#171;set&#187;</text><ellipse cx="18" cy="292.1328" fill="none" rx="3" ry="3" style="stroke:#038048;stroke-width:1.0;"/><text fill="#000000" font-family="sans-serif" font-size="14" lengthAdjust="spacing" textLength="181" x="27" y="295.4795">Name : string &#171;get&#187; &#171;set&#187;</text><ellipse cx="18" cy="308.4297" fill="none" rx="3" ry="3" style="stroke:#038048;stroke-width:1.0;"/><text fill="#000000" font-family="sans-serif" font-size="14" lengthAdjust="spacing" textLength="220" x="27" y="311.7764">Description : string &#171;get&#187; &#171;set&#187;</text><ellipse cx="18" cy="324.7266" fill="none" rx="3" ry="3" style="stroke:#038048;stroke-width:1.0;"/><text fill="#000000" font-family="sans-serif" font-size="14" lengthAdjust="spacing" textLength="189" x="27" y="328.0732">Price : decimal &#171;get&#187; &#171;set&#187;</text><ellipse cx="18" cy="341.0234" fill="none" rx="3" ry="3" style="stroke:#038048;stroke-width:1.0;"/><text fill="#000000" font-family="sans-serif" font-size="14" lengthAdjust="spacing" textLength="207" x="27" y="344.3701">PictureUri : string &#171;get&#187; &#171;set&#187;</text><ellipse cx="18" cy="357.3203" fill="none" rx="3" ry="3" style="stroke:#038048;stroke-width:1.0;"/><text fill="#000000" font-family="sans-serif" font-size="14" lengthAdjust="spacing" textLength="242" x="27" y="360.667">PictureBase64 : string &#171;get&#187; &#171;set&#187;</text><ellipse cx="18" cy="373.6172" fill="none" rx="3" ry="3" style="stroke:#038048;stroke-width:1.0;"/><text fill="#000000" font-family="sans-serif" font-size="14" lengthAdjust="spacing" textLength="229" x="27" y="376.9639">PictureName : string &#171;get&#187; &#171;set&#187;</text><line style="stroke:#181818;stroke-width:0.5;" x1="8" x2="480" y1="384.2656" y2="384.2656"/><ellipse cx="18" cy="397.9141" fill="#84BE84" rx="3" ry="3" style="stroke:#038048;stroke-width:1.0;"/><text fill="#000000" font-family="sans-serif" font-size="14" lengthAdjust="spacing" text-decoration="underline" textLength="448" x="27" y="401.2607">IsValidImage(pictureName : string, pictureBase64 : string) : string</text><ellipse cx="18" cy="414.2109" fill="#84BE84" rx="3" ry="3" style="stroke:#038048;stroke-width:1.0;"/><text fill="#000000" font-family="sans-serif" font-size="14" lengthAdjust="spacing" text-decoration="underline" textLength="430" x="27" y="417.5576">&#171;async&#187; DataToBase64(fileItem : IFileListEntry) : Task&lt;string&gt;</text><ellipse cx="18" cy="430.5078" fill="#84BE84" rx="3" ry="3" style="stroke:#038048;stroke-width:1.0;"/><text fill="#000000" font-family="sans-serif" font-size="14" lengthAdjust="spacing" textLength="92" x="27" y="433.8545">CatalogItem()</text></g><!--class CreateCatalogItemResponse--><g id="elem_CreateCatalogItemResponse"><rect codeLine="17" fill="#F1F1F1" height="80.5938" id="CreateCatalogItemResponse" rx="2.5" ry="2.5" style="stroke:#181818;stroke-width:0.5;" width="292" x="98" y="7"/><ellipse cx="140.45" cy="23" fill="#ADD1B2" rx="11" ry="11" style="stroke:#181818;stroke-width:1.0;"/><path d="M143.4188,28.6406 Q142.8406,28.9375 142.2,29.0781 Q141.5594,29.2344 140.8563,29.2344 Q138.3563,29.2344 137.0281,27.5938 Q135.7156,25.9375 135.7156,22.8125 Q135.7156,19.6875 137.0281,18.0313 Q138.3563,16.375 140.8563,16.375 Q141.5594,16.375 142.2,16.5313 Q142.8563,16.6875 143.4188,16.9844 L143.4188,19.7031 Q142.7938,19.125 142.2,18.8594 Q141.6063,18.5781 140.9813,18.5781 Q139.6375,18.5781 138.95,19.6563 Q138.2625,20.7188 138.2625,22.8125 Q138.2625,24.9063 138.95,25.9844 Q139.6375,27.0469 140.9813,27.0469 Q141.6063,27.0469 142.2,26.7813 Q142.7938,26.5 143.4188,25.9219 L143.4188,28.6406 Z " fill="#000000"/><text fill="#000000" font-family="sans-serif" font-size="14" lengthAdjust="spacing" textLength="199" x="160.55" y="27.8467">CreateCatalogItemResponse</text><line style="stroke:#181818;stroke-width:0.5;" x1="99" x2="389" y1="39" y2="39"/><ellipse cx="109" cy="52.6484" fill="none" rx="3" ry="3" style="stroke:#038048;stroke-width:1.0;"/><text fill="#000000" font-family="sans-serif" font-size="14" lengthAdjust="spacing" textLength="266" x="118" y="55.9951">CatalogItem : CatalogItem &#171;get&#187; &#171;set&#187;</text><line style="stroke:#181818;stroke-width:0.5;" x1="99" x2="389" y1="63.2969" y2="63.2969"/><ellipse cx="109" cy="76.9453" fill="#84BE84" rx="3" ry="3" style="stroke:#038048;stroke-width:1.0;"/><text fill="#000000" font-family="sans-serif" font-size="14" lengthAdjust="spacing" textLength="209" x="118" y="80.292">CreateCatalogItemResponse()</text></g><!--reverse link CreateCatalogItemResponse to CatalogItem--><g id="link_CreateCatalogItemResponse_CatalogItem"><path codeLine="21" d="M244,102.21 C244,120.74 244,142.44 244,164.57 " fill="none" id="CreateCatalogItemResponse-backto-CatalogItem" style="stroke:#181818;stroke-width:1.0;"/><polygon fill="#181818" points="244,89.39,240,95.39,244,101.39,248,95.39,244,89.39" style="stroke:#181818;stroke-width:1.0;"/><text fill="#000000" font-family="sans-serif" font-size="13" lengthAdjust="spacing" textLength="78" x="245" y="131.0669">CatalogItem</text></g><!--SRC=[ZP91IyGm48Nl_HLpxAfx4mybx65TXOA8IFK-f6CPRDEG6GzbsVzksYwwBblRN38XRxwNCC_MA0Btg5YtLQxK0EmJYEiQyX8oOATWJ4MwsSHT-lruVUmfEa_BbL4d6jXL_qkt0LsvZ3f8vx3FsCnQxqXiOA_SkZdfIs3Ryqgot60zfMAhNu7U0i_oHkKMXUvk5ugNV6alYihs0BcyOyrbtc15gRy0k05_yGshd-eSQGnAvspqtCL15EtOc7vmJKECCiWVO_t4eWzEGzUJ2fHFC-BEfjYtfAlaaDWnZu5GwUJkbSItJkWtdQUHpVwS9k8oXHnifmslrkjfhsy0]--></g></svg>