<?xml version="1.0" encoding="us-ascii" standalone="no"?><svg xmlns="http://www.w3.org/2000/svg" xmlns:xlink="http://www.w3.org/1999/xlink" contentStyleType="text/css" height="117px" preserveAspectRatio="none" style="width:561px;height:117px;background:#FFFFFF;" version="1.1" viewBox="0 0 561 117" width="561px" zoomAndPan="magnify"><defs/><g><!--class IBasketViewModelService--><g id="elem_IBasketViewModelService"><rect codeLine="1" fill="#F1F1F1" height="96.8906" id="IBasketViewModelService" rx="2.5" ry="2.5" style="stroke:#181818;stroke-width:0.5;" width="540" x="7" y="7"/><ellipse cx="185.25" cy="23" fill="#B4A7E5" rx="11" ry="11" style="stroke:#181818;stroke-width:1.0;"/><path d="M181.1719,18.7656 L181.1719,16.6094 L188.5625,16.6094 L188.5625,18.7656 L186.0938,18.7656 L186.0938,26.8438 L188.5625,26.8438 L188.5625,29 L181.1719,29 L181.1719,26.8438 L183.6406,26.8438 L183.6406,18.7656 L181.1719,18.7656 Z " fill="#000000"/><text fill="#000000" font-family="sans-serif" font-size="14" font-style="italic" lengthAdjust="spacing" textLength="175" x="205.75" y="27.8467">IBasketViewModelService</text><line style="stroke:#181818;stroke-width:0.5;" x1="8" x2="546" y1="39" y2="39"/><line style="stroke:#181818;stroke-width:0.5;" x1="8" x2="546" y1="47" y2="47"/><ellipse cx="18" cy="60.6484" fill="#84BE84" rx="3" ry="3" style="stroke:#038048;stroke-width:1.0;"/><text fill="#000000" font-family="sans-serif" font-size="14" lengthAdjust="spacing" textLength="514" x="27" y="63.9951">GetOrCreateBasketForUser(userName : string) : Task&lt;BasketViewModel&gt;</text><ellipse cx="18" cy="76.9453" fill="#84BE84" rx="3" ry="3" style="stroke:#038048;stroke-width:1.0;"/><text fill="#000000" font-family="sans-serif" font-size="14" lengthAdjust="spacing" textLength="381" x="27" y="80.292">CountTotalBasketItems(username : string) : Task&lt;int&gt;</text><ellipse cx="18" cy="93.2422" fill="#84BE84" rx="3" ry="3" style="stroke:#038048;stroke-width:1.0;"/><text fill="#000000" font-family="sans-serif" font-size="14" lengthAdjust="spacing" textLength="339" x="27" y="96.5889">Map(basket : Basket) : Task&lt;BasketViewModel&gt;</text></g><!--SRC=[oymhIIrAIqnELV1qIYpEJYq9oqmjzyrFISq9JYqgomIAArHpAG21je9xQeb_aNDHQc99AaIfMtvHQ75gaKOfaF1Bp4rLi58eBYdAp4lN1B92W4fiq8oqWvhad5-QLnAINvAO0r7WMPAQMmms9W-hCPbv9J2jlea56abWJK19Y6xSjjK20000]--></g></svg>