<?xml version="1.0" encoding="us-ascii" standalone="no"?><svg xmlns="http://www.w3.org/2000/svg" xmlns:xlink="http://www.w3.org/1999/xlink" contentStyleType="text/css" height="750px" preserveAspectRatio="none" style="width:1569px;height:750px;background:#FFFFFF;" version="1.1" viewBox="0 0 1569 750" width="1569px" zoomAndPan="magnify"><defs/><g><!--class IndexViewModel--><g id="elem_IndexViewModel"><rect codeLine="1" fill="#F1F1F1" height="145.7813" id="IndexViewModel" rx="2.5" ry="2.5" style="stroke:#181818;stroke-width:0.5;" width="281" x="7" y="598"/><ellipse cx="87.75" cy="614" fill="#ADD1B2" rx="11" ry="11" style="stroke:#181818;stroke-width:1.0;"/><path d="M90.7188,619.6406 Q90.1406,619.9375 89.5,620.0781 Q88.8594,620.2344 88.1563,620.2344 Q85.6563,620.2344 84.3281,618.5938 Q83.0156,616.9375 83.0156,613.8125 Q83.0156,610.6875 84.3281,609.0313 Q85.6563,607.375 88.1563,607.375 Q88.8594,607.375 89.5,607.5313 Q90.1563,607.6875 90.7188,607.9844 L90.7188,610.7031 Q90.0938,610.125 89.5,609.8594 Q88.9063,609.5781 88.2813,609.5781 Q86.9375,609.5781 86.25,610.6563 Q85.5625,611.7188 85.5625,613.8125 Q85.5625,615.9063 86.25,616.9844 Q86.9375,618.0469 88.2813,618.0469 Q88.9063,618.0469 89.5,617.7813 Q90.0938,617.5 90.7188,616.9219 L90.7188,619.6406 Z " fill="#000000"/><text fill="#000000" font-family="sans-serif" font-size="14" lengthAdjust="spacing" textLength="111" x="108.25" y="618.8467">IndexViewModel</text><line style="stroke:#181818;stroke-width:0.5;" x1="8" x2="287" y1="630" y2="630"/><ellipse cx="18" cy="643.6484" fill="none" rx="3" ry="3" style="stroke:#038048;stroke-width:1.0;"/><text fill="#000000" font-family="sans-serif" font-size="14" lengthAdjust="spacing" textLength="219" x="27" y="646.9951">Username : string? &#171;get&#187; &#171;set&#187;</text><ellipse cx="18" cy="659.9453" fill="none" rx="3" ry="3" style="stroke:#038048;stroke-width:1.0;"/><text fill="#000000" font-family="sans-serif" font-size="14" lengthAdjust="spacing" textLength="250" x="27" y="663.292">IsEmailConfirmed : bool &#171;get&#187; &#171;set&#187;</text><ellipse cx="18" cy="676.2422" fill="none" rx="3" ry="3" style="stroke:#038048;stroke-width:1.0;"/><text fill="#000000" font-family="sans-serif" font-size="14" lengthAdjust="spacing" textLength="184" x="27" y="679.5889">Email : string? &#171;get&#187; &#171;set&#187;</text><ellipse cx="18" cy="692.5391" fill="none" rx="3" ry="3" style="stroke:#038048;stroke-width:1.0;"/><text fill="#000000" font-family="sans-serif" font-size="14" lengthAdjust="spacing" textLength="248" x="27" y="695.8857">PhoneNumber : string? &#171;get&#187; &#171;set&#187;</text><ellipse cx="18" cy="708.8359" fill="none" rx="3" ry="3" style="stroke:#038048;stroke-width:1.0;"/><text fill="#000000" font-family="sans-serif" font-size="14" lengthAdjust="spacing" textLength="255" x="27" y="712.1826">StatusMessage : string? &#171;get&#187; &#171;set&#187;</text><line style="stroke:#181818;stroke-width:0.5;" x1="8" x2="287" y1="719.4844" y2="719.4844"/><ellipse cx="18" cy="733.1328" fill="#84BE84" rx="3" ry="3" style="stroke:#038048;stroke-width:1.0;"/><text fill="#000000" font-family="sans-serif" font-size="14" lengthAdjust="spacing" textLength="121" x="27" y="736.4795">IndexViewModel()</text></g><!--class ChangePasswordViewModel--><g id="elem_ChangePasswordViewModel"><rect codeLine="9" fill="#F1F1F1" height="129.4844" id="ChangePasswordViewModel" rx="2.5" ry="2.5" style="stroke:#181818;stroke-width:0.5;" width="294" x="323.5" y="606.5"/><ellipse cx="368.75" cy="622.5" fill="#ADD1B2" rx="11" ry="11" style="stroke:#181818;stroke-width:1.0;"/><path d="M371.7188,628.1406 Q371.1406,628.4375 370.5,628.5781 Q369.8594,628.7344 369.1563,628.7344 Q366.6563,628.7344 365.3281,627.0938 Q364.0156,625.4375 364.0156,622.3125 Q364.0156,619.1875 365.3281,617.5313 Q366.6563,615.875 369.1563,615.875 Q369.8594,615.875 370.5,616.0313 Q371.1563,616.1875 371.7188,616.4844 L371.7188,619.2031 Q371.0938,618.625 370.5,618.3594 Q369.9063,618.0781 369.2813,618.0781 Q367.9375,618.0781 367.25,619.1563 Q366.5625,620.2188 366.5625,622.3125 Q366.5625,624.4063 367.25,625.4844 Q367.9375,626.5469 369.2813,626.5469 Q369.9063,626.5469 370.5,626.2813 Q371.0938,626 371.7188,625.4219 L371.7188,628.1406 Z " fill="#000000"/><text fill="#000000" font-family="sans-serif" font-size="14" lengthAdjust="spacing" textLength="195" x="389.25" y="627.3467">ChangePasswordViewModel</text><line style="stroke:#181818;stroke-width:0.5;" x1="324.5" x2="616.5" y1="638.5" y2="638.5"/><ellipse cx="334.5" cy="652.1484" fill="none" rx="3" ry="3" style="stroke:#038048;stroke-width:1.0;"/><text fill="#000000" font-family="sans-serif" font-size="14" lengthAdjust="spacing" textLength="238" x="343.5" y="655.4951">OldPassword : string? &#171;get&#187; &#171;set&#187;</text><ellipse cx="334.5" cy="668.4453" fill="none" rx="3" ry="3" style="stroke:#038048;stroke-width:1.0;"/><text fill="#000000" font-family="sans-serif" font-size="14" lengthAdjust="spacing" textLength="245" x="343.5" y="671.792">NewPassword : string? &#171;get&#187; &#171;set&#187;</text><ellipse cx="334.5" cy="684.7422" fill="none" rx="3" ry="3" style="stroke:#038048;stroke-width:1.0;"/><text fill="#000000" font-family="sans-serif" font-size="14" lengthAdjust="spacing" textLength="268" x="343.5" y="688.0889">ConfirmPassword : string? &#171;get&#187; &#171;set&#187;</text><ellipse cx="334.5" cy="701.0391" fill="none" rx="3" ry="3" style="stroke:#038048;stroke-width:1.0;"/><text fill="#000000" font-family="sans-serif" font-size="14" lengthAdjust="spacing" textLength="255" x="343.5" y="704.3857">StatusMessage : string? &#171;get&#187; &#171;set&#187;</text><line style="stroke:#181818;stroke-width:0.5;" x1="324.5" x2="616.5" y1="711.6875" y2="711.6875"/><ellipse cx="334.5" cy="725.3359" fill="#84BE84" rx="3" ry="3" style="stroke:#038048;stroke-width:1.0;"/><text fill="#000000" font-family="sans-serif" font-size="14" lengthAdjust="spacing" textLength="205" x="343.5" y="728.6826">ChangePasswordViewModel()</text></g><!--class SetPasswordViewModel--><g id="elem_SetPasswordViewModel"><rect codeLine="16" fill="#F1F1F1" height="113.1875" id="SetPasswordViewModel" rx="2.5" ry="2.5" style="stroke:#181818;stroke-width:0.5;" width="294" x="652.5" y="614.5"/><ellipse cx="713.25" cy="630.5" fill="#ADD1B2" rx="11" ry="11" style="stroke:#181818;stroke-width:1.0;"/><path d="M716.2188,636.1406 Q715.6406,636.4375 715,636.5781 Q714.3594,636.7344 713.6563,636.7344 Q711.1563,636.7344 709.8281,635.0938 Q708.5156,633.4375 708.5156,630.3125 Q708.5156,627.1875 709.8281,625.5313 Q711.1563,623.875 713.6563,623.875 Q714.3594,623.875 715,624.0313 Q715.6563,624.1875 716.2188,624.4844 L716.2188,627.2031 Q715.5938,626.625 715,626.3594 Q714.4063,626.0781 713.7813,626.0781 Q712.4375,626.0781 711.75,627.1563 Q711.0625,628.2188 711.0625,630.3125 Q711.0625,632.4063 711.75,633.4844 Q712.4375,634.5469 713.7813,634.5469 Q714.4063,634.5469 715,634.2813 Q715.5938,634 716.2188,633.4219 L716.2188,636.1406 Z " fill="#000000"/><text fill="#000000" font-family="sans-serif" font-size="14" lengthAdjust="spacing" textLength="164" x="733.75" y="635.3467">SetPasswordViewModel</text><line style="stroke:#181818;stroke-width:0.5;" x1="653.5" x2="945.5" y1="646.5" y2="646.5"/><ellipse cx="663.5" cy="660.1484" fill="none" rx="3" ry="3" style="stroke:#038048;stroke-width:1.0;"/><text fill="#000000" font-family="sans-serif" font-size="14" lengthAdjust="spacing" textLength="245" x="672.5" y="663.4951">NewPassword : string? &#171;get&#187; &#171;set&#187;</text><ellipse cx="663.5" cy="676.4453" fill="none" rx="3" ry="3" style="stroke:#038048;stroke-width:1.0;"/><text fill="#000000" font-family="sans-serif" font-size="14" lengthAdjust="spacing" textLength="268" x="672.5" y="679.792">ConfirmPassword : string? &#171;get&#187; &#171;set&#187;</text><ellipse cx="663.5" cy="692.7422" fill="none" rx="3" ry="3" style="stroke:#038048;stroke-width:1.0;"/><text fill="#000000" font-family="sans-serif" font-size="14" lengthAdjust="spacing" textLength="255" x="672.5" y="696.0889">StatusMessage : string? &#171;get&#187; &#171;set&#187;</text><line style="stroke:#181818;stroke-width:0.5;" x1="653.5" x2="945.5" y1="703.3906" y2="703.3906"/><ellipse cx="663.5" cy="717.0391" fill="#84BE84" rx="3" ry="3" style="stroke:#038048;stroke-width:1.0;"/><text fill="#000000" font-family="sans-serif" font-size="14" lengthAdjust="spacing" textLength="174" x="672.5" y="720.3857">SetPasswordViewModel()</text></g><!--class RemoveLoginViewModel--><g id="elem_RemoveLoginViewModel"><rect codeLine="22" fill="#F1F1F1" height="96.8906" id="RemoveLoginViewModel" rx="2.5" ry="2.5" style="stroke:#181818;stroke-width:0.5;" width="260" x="981.5" y="622.5"/><ellipse cx="1023.5" cy="638.5" fill="#ADD1B2" rx="11" ry="11" style="stroke:#181818;stroke-width:1.0;"/><path d="M1026.4688,644.1406 Q1025.8906,644.4375 1025.25,644.5781 Q1024.6094,644.7344 1023.9063,644.7344 Q1021.4063,644.7344 1020.0781,643.0938 Q1018.7656,641.4375 1018.7656,638.3125 Q1018.7656,635.1875 1020.0781,633.5313 Q1021.4063,631.875 1023.9063,631.875 Q1024.6094,631.875 1025.25,632.0313 Q1025.9063,632.1875 1026.4688,632.4844 L1026.4688,635.2031 Q1025.8438,634.625 1025.25,634.3594 Q1024.6563,634.0781 1024.0313,634.0781 Q1022.6875,634.0781 1022,635.1563 Q1021.3125,636.2188 1021.3125,638.3125 Q1021.3125,640.4063 1022,641.4844 Q1022.6875,642.5469 1024.0313,642.5469 Q1024.6563,642.5469 1025.25,642.2813 Q1025.8438,642 1026.4688,641.4219 L1026.4688,644.1406 Z " fill="#000000"/><text fill="#000000" font-family="sans-serif" font-size="14" lengthAdjust="spacing" textLength="168" x="1043.5" y="643.3467">RemoveLoginViewModel</text><line style="stroke:#181818;stroke-width:0.5;" x1="982.5" x2="1240.5" y1="654.5" y2="654.5"/><ellipse cx="992.5" cy="668.1484" fill="none" rx="3" ry="3" style="stroke:#038048;stroke-width:1.0;"/><text fill="#000000" font-family="sans-serif" font-size="14" lengthAdjust="spacing" textLength="234" x="1001.5" y="671.4951">LoginProvider : string &#171;get&#187; &#171;set&#187;</text><ellipse cx="992.5" cy="684.4453" fill="none" rx="3" ry="3" style="stroke:#038048;stroke-width:1.0;"/><text fill="#000000" font-family="sans-serif" font-size="14" lengthAdjust="spacing" textLength="222" x="1001.5" y="687.792">ProviderKey : string &#171;get&#187; &#171;set&#187;</text><line style="stroke:#181818;stroke-width:0.5;" x1="982.5" x2="1240.5" y1="695.0938" y2="695.0938"/><ellipse cx="992.5" cy="708.7422" fill="#84BE84" rx="3" ry="3" style="stroke:#038048;stroke-width:1.0;"/><text fill="#000000" font-family="sans-serif" font-size="14" lengthAdjust="spacing" textLength="178" x="1001.5" y="712.0889">RemoveLoginViewModel()</text></g><!--class EnableAuthenticatorViewModel--><g id="elem_EnableAuthenticatorViewModel"><rect codeLine="27" fill="#F1F1F1" height="113.1875" id="EnableAuthenticatorViewModel" rx="2.5" ry="2.5" style="stroke:#181818;stroke-width:0.5;" width="285" x="1277" y="614.5"/><ellipse cx="1309.55" cy="630.5" fill="#ADD1B2" rx="11" ry="11" style="stroke:#181818;stroke-width:1.0;"/><path d="M1312.5188,636.1406 Q1311.9406,636.4375 1311.3,636.5781 Q1310.6594,636.7344 1309.9563,636.7344 Q1307.4563,636.7344 1306.1281,635.0938 Q1304.8156,633.4375 1304.8156,630.3125 Q1304.8156,627.1875 1306.1281,625.5313 Q1307.4563,623.875 1309.9563,623.875 Q1310.6594,623.875 1311.3,624.0313 Q1311.9563,624.1875 1312.5188,624.4844 L1312.5188,627.2031 Q1311.8938,626.625 1311.3,626.3594 Q1310.7063,626.0781 1310.0813,626.0781 Q1308.7375,626.0781 1308.05,627.1563 Q1307.3625,628.2188 1307.3625,630.3125 Q1307.3625,632.4063 1308.05,633.4844 Q1308.7375,634.5469 1310.0813,634.5469 Q1310.7063,634.5469 1311.3,634.2813 Q1311.8938,634 1312.5188,633.4219 L1312.5188,636.1406 Z " fill="#000000"/><text fill="#000000" font-family="sans-serif" font-size="14" lengthAdjust="spacing" textLength="214" x="1327.45" y="635.3467">EnableAuthenticatorViewModel</text><line style="stroke:#181818;stroke-width:0.5;" x1="1278" x2="1561" y1="646.5" y2="646.5"/><ellipse cx="1288" cy="660.1484" fill="none" rx="3" ry="3" style="stroke:#038048;stroke-width:1.0;"/><text fill="#000000" font-family="sans-serif" font-size="14" lengthAdjust="spacing" textLength="185" x="1297" y="663.4951">Code : string? &#171;get&#187; &#171;set&#187;</text><ellipse cx="1288" cy="676.4453" fill="none" rx="3" ry="3" style="stroke:#038048;stroke-width:1.0;"/><text fill="#000000" font-family="sans-serif" font-size="14" lengthAdjust="spacing" textLength="222" x="1297" y="679.792">SharedKey : string? &#171;get&#187; &#171;set&#187;</text><ellipse cx="1288" cy="692.7422" fill="none" rx="3" ry="3" style="stroke:#038048;stroke-width:1.0;"/><text fill="#000000" font-family="sans-serif" font-size="14" lengthAdjust="spacing" textLength="259" x="1297" y="696.0889">AuthenticatorUri : string? &#171;get&#187; &#171;set&#187;</text><line style="stroke:#181818;stroke-width:0.5;" x1="1278" x2="1561" y1="703.3906" y2="703.3906"/><ellipse cx="1288" cy="717.0391" fill="#84BE84" rx="3" ry="3" style="stroke:#038048;stroke-width:1.0;"/><text fill="#000000" font-family="sans-serif" font-size="14" lengthAdjust="spacing" textLength="224" x="1297" y="720.3857">EnableAuthenticatorViewModel()</text></g><!--class ManageController--><g id="elem_ManageController"><rect codeLine="33" fill="#F1F1F1" height="422.8281" id="ManageController" rx="2.5" ry="2.5" style="stroke:#181818;stroke-width:0.5;" width="1497" x="51" y="115"/><ellipse cx="734.25" cy="131" fill="#ADD1B2" rx="11" ry="11" style="stroke:#181818;stroke-width:1.0;"/><path d="M737.2188,136.6406 Q736.6406,136.9375 736,137.0781 Q735.3594,137.2344 734.6563,137.2344 Q732.1563,137.2344 730.8281,135.5938 Q729.5156,133.9375 729.5156,130.8125 Q729.5156,127.6875 730.8281,126.0313 Q732.1563,124.375 734.6563,124.375 Q735.3594,124.375 736,124.5313 Q736.6563,124.6875 737.2188,124.9844 L737.2188,127.7031 Q736.5938,127.125 736,126.8594 Q735.4063,126.5781 734.7813,126.5781 Q733.4375,126.5781 732.75,127.6563 Q732.0625,128.7188 732.0625,130.8125 Q732.0625,132.9063 732.75,133.9844 Q733.4375,135.0469 734.7813,135.0469 Q735.4063,135.0469 736,134.7813 Q736.5938,134.5 737.2188,133.9219 L737.2188,136.6406 Z " fill="#000000"/><text fill="#000000" font-family="sans-serif" font-size="14" lengthAdjust="spacing" textLength="122" x="754.75" y="135.8467">ManageController</text><line style="stroke:#181818;stroke-width:0.5;" x1="52" x2="1547" y1="147" y2="147"/><ellipse cx="62" cy="160.6484" fill="none" rx="3" ry="3" style="stroke:#038048;stroke-width:1.0;"/><text fill="#000000" font-family="sans-serif" font-size="14" lengthAdjust="spacing" textLength="255" x="71" y="163.9951">StatusMessage : string? &#171;get&#187; &#171;set&#187;</text><line style="stroke:#181818;stroke-width:0.5;" x1="52" x2="1547" y1="171.2969" y2="171.2969"/><ellipse cx="62" cy="184.9453" fill="#84BE84" rx="3" ry="3" style="stroke:#038048;stroke-width:1.0;"/><text fill="#000000" font-family="sans-serif" font-size="14" lengthAdjust="spacing" textLength="1471" x="71" y="188.292">ManageController(userManager : UserManager&lt;ApplicationUser&gt;, signInManager : SignInManager&lt;ApplicationUser&gt;, emailSender : IEmailSender, logger : IAppLogger&lt;ManageController&gt;, urlEncoder : UrlEncoder)</text><ellipse cx="62" cy="201.2422" fill="#84BE84" rx="3" ry="3" style="stroke:#038048;stroke-width:1.0;"/><text fill="#000000" font-family="sans-serif" font-size="14" lengthAdjust="spacing" textLength="308" x="71" y="204.5889">&#171;async&#187; MyAccount() : Task&lt;IActionResult&gt;</text><ellipse cx="62" cy="217.5391" fill="#84BE84" rx="3" ry="3" style="stroke:#038048;stroke-width:1.0;"/><text fill="#000000" font-family="sans-serif" font-size="14" lengthAdjust="spacing" textLength="475" x="71" y="220.8857">&#171;async&#187; MyAccount(model : IndexViewModel) : Task&lt;IActionResult&gt;</text><ellipse cx="62" cy="233.8359" fill="#84BE84" rx="3" ry="3" style="stroke:#038048;stroke-width:1.0;"/><text fill="#000000" font-family="sans-serif" font-size="14" lengthAdjust="spacing" textLength="546" x="71" y="237.1826">&#171;async&#187; SendVerificationEmail(model : IndexViewModel) : Task&lt;IActionResult&gt;</text><ellipse cx="62" cy="250.1328" fill="#84BE84" rx="3" ry="3" style="stroke:#038048;stroke-width:1.0;"/><text fill="#000000" font-family="sans-serif" font-size="14" lengthAdjust="spacing" textLength="353" x="71" y="253.4795">&#171;async&#187; ChangePassword() : Task&lt;IActionResult&gt;</text><ellipse cx="62" cy="266.4297" fill="#84BE84" rx="3" ry="3" style="stroke:#038048;stroke-width:1.0;"/><text fill="#000000" font-family="sans-serif" font-size="14" lengthAdjust="spacing" textLength="604" x="71" y="269.7764">&#171;async&#187; ChangePassword(model : ChangePasswordViewModel) : Task&lt;IActionResult&gt;</text><ellipse cx="62" cy="282.7266" fill="#84BE84" rx="3" ry="3" style="stroke:#038048;stroke-width:1.0;"/><text fill="#000000" font-family="sans-serif" font-size="14" lengthAdjust="spacing" textLength="322" x="71" y="286.0732">&#171;async&#187; SetPassword() : Task&lt;IActionResult&gt;</text><ellipse cx="62" cy="299.0234" fill="#84BE84" rx="3" ry="3" style="stroke:#038048;stroke-width:1.0;"/><text fill="#000000" font-family="sans-serif" font-size="14" lengthAdjust="spacing" textLength="542" x="71" y="302.3701">&#171;async&#187; SetPassword(model : SetPasswordViewModel) : Task&lt;IActionResult&gt;</text><ellipse cx="62" cy="315.3203" fill="#84BE84" rx="3" ry="3" style="stroke:#038048;stroke-width:1.0;"/><text fill="#000000" font-family="sans-serif" font-size="14" lengthAdjust="spacing" textLength="332" x="71" y="318.667">&#171;async&#187; ExternalLogins() : Task&lt;IActionResult&gt;</text><ellipse cx="62" cy="331.6172" fill="#84BE84" rx="3" ry="3" style="stroke:#038048;stroke-width:1.0;"/><text fill="#000000" font-family="sans-serif" font-size="14" lengthAdjust="spacing" textLength="404" x="71" y="334.9639">&#171;async&#187; LinkLogin(provider : string) : Task&lt;IActionResult&gt;</text><ellipse cx="62" cy="347.9141" fill="#84BE84" rx="3" ry="3" style="stroke:#038048;stroke-width:1.0;"/><text fill="#000000" font-family="sans-serif" font-size="14" lengthAdjust="spacing" textLength="353" x="71" y="351.2607">&#171;async&#187; LinkLoginCallback() : Task&lt;IActionResult&gt;</text><ellipse cx="62" cy="364.2109" fill="#84BE84" rx="3" ry="3" style="stroke:#038048;stroke-width:1.0;"/><text fill="#000000" font-family="sans-serif" font-size="14" lengthAdjust="spacing" textLength="550" x="71" y="367.5576">&#171;async&#187; RemoveLogin(model : RemoveLoginViewModel) : Task&lt;IActionResult&gt;</text><ellipse cx="62" cy="380.5078" fill="#84BE84" rx="3" ry="3" style="stroke:#038048;stroke-width:1.0;"/><text fill="#000000" font-family="sans-serif" font-size="14" lengthAdjust="spacing" textLength="404" x="71" y="383.8545">&#171;async&#187; TwoFactorAuthentication() : Task&lt;IActionResult&gt;</text><ellipse cx="62" cy="396.8047" fill="#84BE84" rx="3" ry="3" style="stroke:#038048;stroke-width:1.0;"/><text fill="#000000" font-family="sans-serif" font-size="14" lengthAdjust="spacing" textLength="360" x="71" y="400.1514">&#171;async&#187; Disable2faWarning() : Task&lt;IActionResult&gt;</text><ellipse cx="62" cy="413.1016" fill="#84BE84" rx="3" ry="3" style="stroke:#038048;stroke-width:1.0;"/><text fill="#000000" font-family="sans-serif" font-size="14" lengthAdjust="spacing" textLength="304" x="71" y="416.4482">&#171;async&#187; Disable2fa() : Task&lt;IActionResult&gt;</text><ellipse cx="62" cy="429.3984" fill="#84BE84" rx="3" ry="3" style="stroke:#038048;stroke-width:1.0;"/><text fill="#000000" font-family="sans-serif" font-size="14" lengthAdjust="spacing" textLength="372" x="71" y="432.7451">&#171;async&#187; EnableAuthenticator() : Task&lt;IActionResult&gt;</text><ellipse cx="62" cy="445.6953" fill="#84BE84" rx="3" ry="3" style="stroke:#038048;stroke-width:1.0;"/><text fill="#000000" font-family="sans-serif" font-size="14" lengthAdjust="spacing" textLength="260" x="71" y="449.042">ShowRecoveryCodes() : IActionResult</text><ellipse cx="62" cy="461.9922" fill="#84BE84" rx="3" ry="3" style="stroke:#038048;stroke-width:1.0;"/><text fill="#000000" font-family="sans-serif" font-size="14" lengthAdjust="spacing" textLength="642" x="71" y="465.3389">&#171;async&#187; EnableAuthenticator(model : EnableAuthenticatorViewModel) : Task&lt;IActionResult&gt;</text><ellipse cx="62" cy="478.2891" fill="#84BE84" rx="3" ry="3" style="stroke:#038048;stroke-width:1.0;"/><text fill="#000000" font-family="sans-serif" font-size="14" lengthAdjust="spacing" textLength="303" x="71" y="481.6357">ResetAuthenticatorWarning() : IActionResult</text><ellipse cx="62" cy="494.5859" fill="#84BE84" rx="3" ry="3" style="stroke:#038048;stroke-width:1.0;"/><text fill="#000000" font-family="sans-serif" font-size="14" lengthAdjust="spacing" textLength="366" x="71" y="497.9326">&#171;async&#187; ResetAuthenticator() : Task&lt;IActionResult&gt;</text><ellipse cx="62" cy="510.8828" fill="#84BE84" rx="3" ry="3" style="stroke:#038048;stroke-width:1.0;"/><text fill="#000000" font-family="sans-serif" font-size="14" lengthAdjust="spacing" textLength="406" x="71" y="514.2295">&#171;async&#187; GenerateRecoveryCodes() : Task&lt;IActionResult&gt;</text><ellipse cx="62" cy="527.1797" fill="#84BE84" rx="3" ry="3" style="stroke:#038048;stroke-width:1.0;"/><text fill="#000000" font-family="sans-serif" font-size="14" lengthAdjust="spacing" textLength="462" x="71" y="530.5264">&#171;async&#187; GenerateRecoveryCodesWarning() : Task&lt;IActionResult&gt;</text></g><!--class Controller--><g id="elem_Controller"><rect fill="#F1F1F1" height="48" id="Controller" rx="2.5" ry="2.5" style="stroke:#181818;stroke-width:0.5;" width="99" x="750" y="7"/><ellipse cx="765" cy="23" fill="#ADD1B2" rx="11" ry="11" style="stroke:#181818;stroke-width:1.0;"/><path d="M767.9688,28.6406 Q767.3906,28.9375 766.75,29.0781 Q766.1094,29.2344 765.4063,29.2344 Q762.9063,29.2344 761.5781,27.5938 Q760.2656,25.9375 760.2656,22.8125 Q760.2656,19.6875 761.5781,18.0313 Q762.9063,16.375 765.4063,16.375 Q766.1094,16.375 766.75,16.5313 Q767.4063,16.6875 767.9688,16.9844 L767.9688,19.7031 Q767.3438,19.125 766.75,18.8594 Q766.1563,18.5781 765.5313,18.5781 Q764.1875,18.5781 763.5,19.6563 Q762.8125,20.7188 762.8125,22.8125 Q762.8125,24.9063 763.5,25.9844 Q764.1875,27.0469 765.5313,27.0469 Q766.1563,27.0469 766.75,26.7813 Q767.3438,26.5 767.9688,25.9219 L767.9688,28.6406 Z " fill="#000000"/><text fill="#000000" font-family="sans-serif" font-size="14" lengthAdjust="spacing" textLength="67" x="779" y="27.8467">Controller</text><line style="stroke:#181818;stroke-width:0.5;" x1="751" x2="848" y1="39" y2="39"/><line style="stroke:#181818;stroke-width:0.5;" x1="751" x2="848" y1="47" y2="47"/></g><!--reverse link Controller to ManageController--><g id="link_Controller_ManageController"><path codeLine="58" d="M799.5,75.94 C799.5,87.39 799.5,100.51 799.5,114.61 " fill="none" id="Controller-backto-ManageController" style="stroke:#181818;stroke-width:1.0;"/><polygon fill="none" points="792.5,76.03,799.5,56.03,806.5,76.03,792.5,76.03" style="stroke:#181818;stroke-width:1.0;"/></g><!--link ManageController to IndexViewModel--><g id="link_ManageController_IndexViewModel"><path codeLine="59" d="M398.18,538.32 C360.07,558.34 323.41,577.6 290.44,594.91 " fill="none" id="ManageController-to-IndexViewModel" style="stroke:#181818;stroke-width:1.0;stroke-dasharray:7.0,7.0;"/><polygon fill="#181818" points="286.18,597.68,296.0075,597.0319,290.6055,595.353,292.2844,589.951,286.18,597.68" style="stroke:#181818;stroke-width:1.0;"/></g><!--link ManageController to ChangePasswordViewModel--><g id="link_ManageController_ChangePasswordViewModel"><path codeLine="60" d="M597.23,538.07 C575.28,560.92 554.28,582.78 535.91,601.9 " fill="none" id="ManageController-to-ChangePasswordViewModel" style="stroke:#181818;stroke-width:1.0;stroke-dasharray:7.0,7.0;"/><polygon fill="#181818" points="532.79,605.19,541.9016,601.4511,536.2461,601.5768,536.1204,595.9213,532.79,605.19" style="stroke:#181818;stroke-width:1.0;"/></g><!--link ManageController to SetPasswordViewModel--><g id="link_ManageController_SetPasswordViewModel"><path codeLine="61" d="M799.5,538.07 C799.5,563.45 799.5,587.62 799.5,608.17 " fill="none" id="ManageController-to-SetPasswordViewModel" style="stroke:#181818;stroke-width:1.0;stroke-dasharray:7.0,7.0;"/><polygon fill="#181818" points="799.5,613.14,803.5257,604.1515,799.5143,608.14,795.5257,604.1286,799.5,613.14" style="stroke:#181818;stroke-width:1.0;"/></g><!--link ManageController to RemoveLoginViewModel--><g id="link_ManageController_RemoveLoginViewModel"><path codeLine="62" d="M991.32,538.07 C1018.08,567.45 1043.36,595.2 1063.77,617.6 " fill="none" id="ManageController-to-RemoveLoginViewModel" style="stroke:#181818;stroke-width:1.0;stroke-dasharray:7.0,7.0;"/><polygon fill="#181818" points="1066.78,621.01,1063.6749,611.6634,1063.4124,617.3142,1057.7616,617.0516,1066.78,621.01" style="stroke:#181818;stroke-width:1.0;"/></g><!--link ManageController to EnableAuthenticatorViewModel--><g id="link_ManageController_EnableAuthenticatorViewModel"><path codeLine="63" d="M1181.12,538.32 C1229.25,564.9 1274.94,590.14 1313.2,611.28 " fill="none" id="ManageController-to-EnableAuthenticatorViewModel" style="stroke:#181818;stroke-width:1.0;stroke-dasharray:7.0,7.0;"/><polygon fill="#181818" points="1317.31,614.1,1311.3852,606.2326,1312.9392,611.6718,1307.5,613.2258,1317.31,614.1" style="stroke:#181818;stroke-width:1.0;"/></g><!--SRC=[pLLDSzem5BpxL_XefaaEEMOyT1XACvv2ok2GdeNyC1faYP7a4ARDVwziyo6CR0jwAHSZUVTftqfUOOgaz2EMmCSRWUs49q1z_xVdwzyNVov1C9I1_-HB9GXBl_fXc8Bgz_LJ5iyzC9AZ314wv6n9H0Q99Ymufmte4jjPSxhY35xoR06Y4nihf78v0IbHwg3shDsWvtrwkFHXk48iXQd-k-KYiHZoaoQ7jvshlC3M6RitpXb_NRyDRHcDnw1Qklv_Eh7fDDgOGSRVOSnJmYnjbFDJmTz9OXoffjEtn_s0NHVKjgeXQiJGWi8WLojWYc2akB286-fXT_ih920n9JKXpvQR2z99Q5DfD3D1JE-JtcGbEANQncC3zJT1hiEZcYpCdfz6uM2peSKIXBDYkd_dIvAoY9tGiJcsuA58a1XOjP7Hw3IyyobFgoAHvetBGLWNfqlaWeuOvbM5-N7Gk-bSXY6IEuRr_6Gtm9ZdJ0KzpNf5SXr60rn8du7CgMfZPEMHUAhbaskTelyt46IvjweqvHzhdYT7S2FjeA4XXzmRL5ShCJa76ROGSQqt-b35bKZBhrqwonWJjYufmQQUFrUN629A5mYldHStykdeWIspNEkzRlbtX7L066cXuSvwlX5PPCtZ4lr2WcaBRc0wKoovri6DLtmx0wpj4RiYbQjTFeCwhNAmkYrPsvNe4QWpecbOkw9BhhDbpy1080MN9jpCxjheJy-uKi8_z_SNrubtSVCyFFHhgMR7DAIE7MpB1ZlIzWNPaMq7u2y0]--></g></svg>