<?xml version="1.0" encoding="us-ascii" standalone="no"?><svg xmlns="http://www.w3.org/2000/svg" xmlns:xlink="http://www.w3.org/1999/xlink" contentStyleType="text/css" height="522px" preserveAspectRatio="none" style="width:1066px;height:522px;background:#FFFFFF;" version="1.1" viewBox="0 0 1066 522" width="1066px" zoomAndPan="magnify"><defs/><g><!--class BaseMessage--><g id="elem_BaseMessage"><rect codeLine="1" fill="#F1F1F1" height="96.8906" id="BaseMessage" rx="2.5" ry="2.5" style="stroke:#181818;stroke-width:0.5;" width="168" x="9" y="7"/><ellipse cx="41.1" cy="23" fill="#A9DCDF" rx="11" ry="11" style="stroke:#181818;stroke-width:1.0;"/><path d="M41.2094,18.3438 L40.0531,23.4219 L42.3813,23.4219 L41.2094,18.3438 Z M39.725,16.1094 L42.7094,16.1094 L46.0688,28.5 L43.6156,28.5 L42.85,25.4375 L39.5688,25.4375 L38.8188,28.5 L36.3813,28.5 L39.725,16.1094 Z " fill="#000000"/><text fill="#000000" font-family="sans-serif" font-size="14" font-style="italic" lengthAdjust="spacing" textLength="98" x="58.9" y="27.8467">BaseMessage</text><line style="stroke:#181818;stroke-width:0.5;" x1="10" x2="176" y1="39" y2="39"/><polygon fill="none" points="20,47.6484,24,51.6484,20,55.6484,16,51.6484" style="stroke:#B38D22;stroke-width:1.0;"/><text fill="#000000" font-family="sans-serif" font-size="14" lengthAdjust="spacing" textLength="137" x="29" y="55.9951">_correlationId : Guid</text><line style="stroke:#181818;stroke-width:0.5;" x1="10" x2="176" y1="63.2969" y2="63.2969"/><ellipse cx="20" cy="76.9453" fill="#84BE84" rx="3" ry="3" style="stroke:#038048;stroke-width:1.0;"/><text fill="#000000" font-family="sans-serif" font-size="14" lengthAdjust="spacing" textLength="142" x="29" y="80.292">CorrelationId() : Guid</text><polygon fill="#FFFF44" points="20,88.2422,24,92.2422,20,96.2422,16,92.2422" style="stroke:#B38D22;stroke-width:1.0;"/><text fill="#000000" font-family="sans-serif" font-size="14" lengthAdjust="spacing" textLength="108" x="29" y="96.5889">BaseMessage()</text></g><!--class BaseRequest--><g id="elem_BaseRequest"><rect codeLine="6" fill="#F1F1F1" height="64.2969" id="BaseRequest" rx="2.5" ry="2.5" style="stroke:#181818;stroke-width:0.5;" width="130" x="28" y="180.5"/><ellipse cx="44.8" cy="196.5" fill="#A9DCDF" rx="11" ry="11" style="stroke:#181818;stroke-width:1.0;"/><path d="M44.9094,191.8438 L43.7531,196.9219 L46.0813,196.9219 L44.9094,191.8438 Z M43.425,189.6094 L46.4094,189.6094 L49.7688,202 L47.3156,202 L46.55,198.9375 L43.2688,198.9375 L42.5188,202 L40.0813,202 L43.425,189.6094 Z " fill="#000000"/><text fill="#000000" font-family="sans-serif" font-size="14" font-style="italic" lengthAdjust="spacing" textLength="94" x="59.2" y="201.3467">BaseRequest</text><line style="stroke:#181818;stroke-width:0.5;" x1="29" x2="157" y1="212.5" y2="212.5"/><line style="stroke:#181818;stroke-width:0.5;" x1="29" x2="157" y1="220.5" y2="220.5"/><polygon fill="#FFFF44" points="39,229.1484,43,233.1484,39,237.1484,35,233.1484" style="stroke:#B38D22;stroke-width:1.0;"/><text fill="#000000" font-family="sans-serif" font-size="14" lengthAdjust="spacing" textLength="104" x="48" y="237.4951">BaseRequest()</text></g><!--class CreateCatalogItemRequest--><g id="elem_CreateCatalogItemRequest"><rect codeLine="10" fill="#F1F1F1" height="194.6719" id="CreateCatalogItemRequest" rx="2.5" ry="2.5" style="stroke:#181818;stroke-width:0.5;" width="268" x="225" y="321"/><ellipse cx="262.05" cy="337" fill="#ADD1B2" rx="11" ry="11" style="stroke:#181818;stroke-width:1.0;"/><path d="M265.0188,342.6406 Q264.4406,342.9375 263.8,343.0781 Q263.1594,343.2344 262.4563,343.2344 Q259.9563,343.2344 258.6281,341.5938 Q257.3156,339.9375 257.3156,336.8125 Q257.3156,333.6875 258.6281,332.0313 Q259.9563,330.375 262.4563,330.375 Q263.1594,330.375 263.8,330.5313 Q264.4563,330.6875 265.0188,330.9844 L265.0188,333.7031 Q264.3938,333.125 263.8,332.8594 Q263.2063,332.5781 262.5813,332.5781 Q261.2375,332.5781 260.55,333.6563 Q259.8625,334.7188 259.8625,336.8125 Q259.8625,338.9063 260.55,339.9844 Q261.2375,341.0469 262.5813,341.0469 Q263.2063,341.0469 263.8,340.7813 Q264.3938,340.5 265.0188,339.9219 L265.0188,342.6406 Z " fill="#000000"/><text fill="#000000" font-family="sans-serif" font-size="14" lengthAdjust="spacing" textLength="187" x="280.95" y="341.8467">CreateCatalogItemRequest</text><line style="stroke:#181818;stroke-width:0.5;" x1="226" x2="492" y1="353" y2="353"/><ellipse cx="236" cy="366.6484" fill="none" rx="3" ry="3" style="stroke:#038048;stroke-width:1.0;"/><text fill="#000000" font-family="sans-serif" font-size="14" lengthAdjust="spacing" textLength="224" x="245" y="369.9951">CatalogBrandId : int &#171;get&#187; &#171;set&#187;</text><ellipse cx="236" cy="382.9453" fill="none" rx="3" ry="3" style="stroke:#038048;stroke-width:1.0;"/><text fill="#000000" font-family="sans-serif" font-size="14" lengthAdjust="spacing" textLength="217" x="245" y="386.292">CatalogTypeId : int &#171;get&#187; &#171;set&#187;</text><ellipse cx="236" cy="399.2422" fill="none" rx="3" ry="3" style="stroke:#038048;stroke-width:1.0;"/><text fill="#000000" font-family="sans-serif" font-size="14" lengthAdjust="spacing" textLength="220" x="245" y="402.5889">Description : string &#171;get&#187; &#171;set&#187;</text><ellipse cx="236" cy="415.5391" fill="none" rx="3" ry="3" style="stroke:#038048;stroke-width:1.0;"/><text fill="#000000" font-family="sans-serif" font-size="14" lengthAdjust="spacing" textLength="181" x="245" y="418.8857">Name : string &#171;get&#187; &#171;set&#187;</text><ellipse cx="236" cy="431.8359" fill="none" rx="3" ry="3" style="stroke:#038048;stroke-width:1.0;"/><text fill="#000000" font-family="sans-serif" font-size="14" lengthAdjust="spacing" textLength="207" x="245" y="435.1826">PictureUri : string &#171;get&#187; &#171;set&#187;</text><ellipse cx="236" cy="448.1328" fill="none" rx="3" ry="3" style="stroke:#038048;stroke-width:1.0;"/><text fill="#000000" font-family="sans-serif" font-size="14" lengthAdjust="spacing" textLength="242" x="245" y="451.4795">PictureBase64 : string &#171;get&#187; &#171;set&#187;</text><ellipse cx="236" cy="464.4297" fill="none" rx="3" ry="3" style="stroke:#038048;stroke-width:1.0;"/><text fill="#000000" font-family="sans-serif" font-size="14" lengthAdjust="spacing" textLength="229" x="245" y="467.7764">PictureName : string &#171;get&#187; &#171;set&#187;</text><ellipse cx="236" cy="480.7266" fill="none" rx="3" ry="3" style="stroke:#038048;stroke-width:1.0;"/><text fill="#000000" font-family="sans-serif" font-size="14" lengthAdjust="spacing" textLength="189" x="245" y="484.0732">Price : decimal &#171;get&#187; &#171;set&#187;</text><line style="stroke:#181818;stroke-width:0.5;" x1="226" x2="492" y1="491.375" y2="491.375"/><ellipse cx="236" cy="505.0234" fill="#84BE84" rx="3" ry="3" style="stroke:#038048;stroke-width:1.0;"/><text fill="#000000" font-family="sans-serif" font-size="14" lengthAdjust="spacing" textLength="197" x="245" y="508.3701">CreateCatalogItemRequest()</text></g><!--class CreateCatalogItemEndpoint--><g id="elem_CreateCatalogItemEndpoint"><rect codeLine="22" fill="#F1F1F1" height="96.8906" id="CreateCatalogItemEndpoint" rx="2.5" ry="2.5" style="stroke:#181818;stroke-width:0.5;" width="866" x="193" y="164"/><ellipse cx="526.75" cy="180" fill="#ADD1B2" rx="11" ry="11" style="stroke:#181818;stroke-width:1.0;"/><path d="M529.7188,185.6406 Q529.1406,185.9375 528.5,186.0781 Q527.8594,186.2344 527.1563,186.2344 Q524.6563,186.2344 523.3281,184.5938 Q522.0156,182.9375 522.0156,179.8125 Q522.0156,176.6875 523.3281,175.0313 Q524.6563,173.375 527.1563,173.375 Q527.8594,173.375 528.5,173.5313 Q529.1563,173.6875 529.7188,173.9844 L529.7188,176.7031 Q529.0938,176.125 528.5,175.8594 Q527.9063,175.5781 527.2813,175.5781 Q525.9375,175.5781 525.25,176.6563 Q524.5625,177.7188 524.5625,179.8125 Q524.5625,181.9063 525.25,182.9844 Q525.9375,184.0469 527.2813,184.0469 Q527.9063,184.0469 528.5,183.7813 Q529.0938,183.5 529.7188,182.9219 L529.7188,185.6406 Z " fill="#000000"/><text fill="#000000" font-family="sans-serif" font-size="14" lengthAdjust="spacing" textLength="190" x="547.25" y="184.8467">CreateCatalogItemEndpoint</text><line style="stroke:#181818;stroke-width:0.5;" x1="194" x2="1058" y1="196" y2="196"/><line style="stroke:#181818;stroke-width:0.5;" x1="194" x2="1058" y1="204" y2="204"/><ellipse cx="204" cy="217.6484" fill="#84BE84" rx="3" ry="3" style="stroke:#038048;stroke-width:1.0;"/><text fill="#000000" font-family="sans-serif" font-size="14" lengthAdjust="spacing" textLength="395" x="213" y="220.9951">CreateCatalogItemEndpoint(uriComposer : IUriComposer)</text><ellipse cx="204" cy="233.9453" fill="#84BE84" rx="3" ry="3" style="stroke:#038048;stroke-width:1.0;"/><text fill="#000000" font-family="sans-serif" font-size="14" lengthAdjust="spacing" textLength="314" x="213" y="237.292">AddRoute(app : IEndpointRouteBuilder) : void</text><ellipse cx="204" cy="250.2422" fill="#84BE84" rx="3" ry="3" style="stroke:#038048;stroke-width:1.0;"/><text fill="#000000" font-family="sans-serif" font-size="14" lengthAdjust="spacing" textLength="840" x="213" y="253.5889">&#171;async&#187; HandleAsync(request : CreateCatalogItemRequest, itemRepository : IRepository&lt;CatalogItem&gt;) : Task&lt;IResult&gt;</text></g><!--class IEndpoint`3--><g id="elem_IEndpoint`3"><rect fill="#F1F1F1" height="48" id="IEndpoint`3" rx="2.5" ry="2.5" style="stroke:#181818;stroke-width:0.5;" width="113" x="569.5" y="31.5"/><ellipse cx="584.5" cy="47.5" fill="#ADD1B2" rx="11" ry="11" style="stroke:#181818;stroke-width:1.0;"/><path d="M587.4688,53.1406 Q586.8906,53.4375 586.25,53.5781 Q585.6094,53.7344 584.9063,53.7344 Q582.4063,53.7344 581.0781,52.0938 Q579.7656,50.4375 579.7656,47.3125 Q579.7656,44.1875 581.0781,42.5313 Q582.4063,40.875 584.9063,40.875 Q585.6094,40.875 586.25,41.0313 Q586.9063,41.1875 587.4688,41.4844 L587.4688,44.2031 Q586.8438,43.625 586.25,43.3594 Q585.6563,43.0781 585.0313,43.0781 Q583.6875,43.0781 583,44.1563 Q582.3125,45.2188 582.3125,47.3125 Q582.3125,49.4063 583,50.4844 Q583.6875,51.5469 585.0313,51.5469 Q585.6563,51.5469 586.25,51.2813 Q586.8438,51 587.4688,50.4219 L587.4688,53.1406 Z " fill="#000000"/><text fill="#000000" font-family="sans-serif" font-size="14" lengthAdjust="spacing" textLength="81" x="598.5" y="52.3467">IEndpoint`3</text><line style="stroke:#181818;stroke-width:0.5;" x1="570.5" x2="681.5" y1="63.5" y2="63.5"/><line style="stroke:#181818;stroke-width:0.5;" x1="570.5" x2="681.5" y1="71.5" y2="71.5"/></g><!--reverse link BaseMessage to BaseRequest--><g id="link_BaseMessage_BaseRequest"><path codeLine="9" d="M93,125.06 C93,144.33 93,164.36 93,180.27 " fill="none" id="BaseMessage-backto-BaseRequest" style="stroke:#181818;stroke-width:1.0;"/><polygon fill="none" points="86,125.27,93,105.27,100,125.27,86,125.27" style="stroke:#181818;stroke-width:1.0;"/></g><!--reverse link BaseRequest to CreateCatalogItemRequest--><g id="link_BaseRequest_CreateCatalogItemRequest"><path codeLine="21" d="M150.64,257.7 C174.82,276.25 203.97,298.61 232.71,320.64 " fill="none" id="BaseRequest-backto-CreateCatalogItemRequest" style="stroke:#181818;stroke-width:1.0;"/><polygon fill="none" points="146.59,262.65,134.98,244.93,155.11,251.54,146.59,262.65" style="stroke:#181818;stroke-width:1.0;"/></g><!--reverse link IEndpoint`3 to CreateCatalogItemEndpoint--><g id="link_IEndpoint`3_CreateCatalogItemEndpoint"><path codeLine="27" d="M626,100.47 C626,120.22 626,143.57 626,163.75 " fill="none" id="IEndpoint`3-backto-CreateCatalogItemEndpoint" style="stroke:#181818;stroke-width:1.0;stroke-dasharray:7.0,7.0;"/><polygon fill="none" points="619,100.71,626,80.71,633,100.71,619,100.71" style="stroke:#181818;stroke-width:1.0;"/><text fill="#000000" font-family="sans-serif" font-size="13" lengthAdjust="spacing" textLength="323" x="263.6344" y="99.5224">&lt;IResult, CreateCatalogItemRequest, IRepository&gt;</text></g><!--link CreateCatalogItemEndpoint to CreateCatalogItemRequest--><g id="link_CreateCatalogItemEndpoint_CreateCatalogItemRequest"><path codeLine="28" d="M563.4,261.33 C541.49,278.07 515.99,297.55 490.58,316.97 " fill="none" id="CreateCatalogItemEndpoint-to-CreateCatalogItemRequest" style="stroke:#181818;stroke-width:1.0;stroke-dasharray:7.0,7.0;"/><polygon fill="#181818" points="486.84,320.59,496.4169,318.2914,490.809,317.549,491.5513,311.9411,486.84,320.59" style="stroke:#181818;stroke-width:1.0;"/></g><!--SRC=[ZPB9JiCm48RlUGehlQIYpGN4eR8YjG513o1KbJCCzYYoIEBW1Qa2tXqxNM90flN56iytsp-65sqKC4DO3LgJ1MYyGwsXGa8-4kBEY3mngHJMO8HibvpCo8qLlFUTaJ9qPUFGEGgpPUFaAu6_nLRuPb6ReLZmsCU47T7FwJG4acsUKY4OBC50BQkbmUPNKjVbrhTGqF9-0j4QGcc5fYZShVtz4rrlEZn2Ng5cIdH-TCUvoKHRHT1xQF0Oyo2OiGeVbJYHz49SNfm8dzI14in379bee8u9557xiAsz-lssOdHiTTSjxwJNVDXT3Cci4gLiEgbHkQwNZuCvtiNEELz9Qp23hlF8FhH_N5XHSySwnxiyV6XAGMzQviQ-TP-bnhctChMRQHOTQ494RxZwmaYryUK6YmO1XQ-u1lrA7Q1jRGedN7hexVay9UdUDVcdNf2-I9tQUHxNAeaBdUT5jCWt]--></g></svg>