<?xml version="1.0" encoding="us-ascii" standalone="no"?><svg xmlns="http://www.w3.org/2000/svg" xmlns:xlink="http://www.w3.org/1999/xlink" contentStyleType="text/css" height="218px" preserveAspectRatio="none" style="width:254px;height:218px;background:#FFFFFF;" version="1.1" viewBox="0 0 254 218" width="254px" zoomAndPan="magnify"><defs/><g><!--class BlazorLayoutComponent--><g id="elem_BlazorLayoutComponent"><rect codeLine="1" fill="#F1F1F1" height="96.8906" id="BlazorLayoutComponent" rx="2.5" ry="2.5" style="stroke:#181818;stroke-width:0.5;" width="238" x="9" y="115"/><ellipse cx="40.2" cy="131" fill="#ADD1B2" rx="11" ry="11" style="stroke:#181818;stroke-width:1.0;"/><path d="M43.1688,136.6406 Q42.5906,136.9375 41.95,137.0781 Q41.3094,137.2344 40.6063,137.2344 Q38.1063,137.2344 36.7781,135.5938 Q35.4656,133.9375 35.4656,130.8125 Q35.4656,127.6875 36.7781,126.0313 Q38.1063,124.375 40.6063,124.375 Q41.3094,124.375 41.95,124.5313 Q42.6063,124.6875 43.1688,124.9844 L43.1688,127.7031 Q42.5438,127.125 41.95,126.8594 Q41.3563,126.5781 40.7313,126.5781 Q39.3875,126.5781 38.7,127.6563 Q38.0125,128.7188 38.0125,130.8125 Q38.0125,132.9063 38.7,133.9844 Q39.3875,135.0469 40.7313,135.0469 Q41.3563,135.0469 41.95,134.7813 Q42.5438,134.5 43.1688,133.9219 L43.1688,136.6406 Z " fill="#000000"/><text fill="#000000" font-family="sans-serif" font-size="14" lengthAdjust="spacing" textLength="170" x="57.8" y="135.8467">BlazorLayoutComponent</text><line style="stroke:#181818;stroke-width:0.5;" x1="10" x2="246" y1="147" y2="147"/><line style="stroke:#181818;stroke-width:0.5;" x1="10" x2="246" y1="155" y2="155"/><polygon fill="#FFFF44" points="20,163.6484,24,167.6484,20,171.6484,16,167.6484" style="stroke:#B38D22;stroke-width:1.0;"/><text fill="#000000" font-family="sans-serif" font-size="14" lengthAdjust="spacing" textLength="212" x="29" y="171.9951">&#171;override&#187; OnInitialized() : void</text><ellipse cx="20" cy="184.9453" fill="#84BE84" rx="3" ry="3" style="stroke:#038048;stroke-width:1.0;"/><text fill="#000000" font-family="sans-serif" font-size="14" lengthAdjust="spacing" textLength="188" x="29" y="188.292">CallRequestRefresh() : void</text><ellipse cx="20" cy="201.2422" fill="#84BE84" rx="3" ry="3" style="stroke:#038048;stroke-width:1.0;"/><text fill="#000000" font-family="sans-serif" font-size="14" lengthAdjust="spacing" textLength="180" x="29" y="204.5889">BlazorLayoutComponent()</text></g><!--class LayoutComponentBase--><g id="elem_LayoutComponentBase"><rect fill="#F1F1F1" height="48" id="LayoutComponentBase" rx="2.5" ry="2.5" style="stroke:#181818;stroke-width:0.5;" width="194" x="31" y="7"/><ellipse cx="46" cy="23" fill="#ADD1B2" rx="11" ry="11" style="stroke:#181818;stroke-width:1.0;"/><path d="M48.9688,28.6406 Q48.3906,28.9375 47.75,29.0781 Q47.1094,29.2344 46.4063,29.2344 Q43.9063,29.2344 42.5781,27.5938 Q41.2656,25.9375 41.2656,22.8125 Q41.2656,19.6875 42.5781,18.0313 Q43.9063,16.375 46.4063,16.375 Q47.1094,16.375 47.75,16.5313 Q48.4063,16.6875 48.9688,16.9844 L48.9688,19.7031 Q48.3438,19.125 47.75,18.8594 Q47.1563,18.5781 46.5313,18.5781 Q45.1875,18.5781 44.5,19.6563 Q43.8125,20.7188 43.8125,22.8125 Q43.8125,24.9063 44.5,25.9844 Q45.1875,27.0469 46.5313,27.0469 Q47.1563,27.0469 47.75,26.7813 Q48.3438,26.5 48.9688,25.9219 L48.9688,28.6406 Z " fill="#000000"/><text fill="#000000" font-family="sans-serif" font-size="14" lengthAdjust="spacing" textLength="162" x="60" y="27.8467">LayoutComponentBase</text><line style="stroke:#181818;stroke-width:0.5;" x1="32" x2="224" y1="39" y2="39"/><line style="stroke:#181818;stroke-width:0.5;" x1="32" x2="224" y1="47" y2="47"/></g><!--reverse link LayoutComponentBase to BlazorLayoutComponent--><g id="link_LayoutComponentBase_BlazorLayoutComponent"><path codeLine="6" d="M128,75.95 C128,88.34 128,101.89 128,114.51 " fill="none" id="LayoutComponentBase-backto-BlazorLayoutComponent" style="stroke:#181818;stroke-width:1.0;"/><polygon fill="none" points="121,76.33,128,56.33,135,76.33,121,76.33" style="stroke:#181818;stroke-width:1.0;"/></g><!--SRC=[Iyv9B2vMSCf9hCelyacip2yjSSxFBSZFIyqhKL2evb800cK56vlyijIYeioKL3ix1VyypxpCaip4dCogr1GDJGKhXRByp1ImIcq5vyISdA3KmjBKufAWrBIYrE8CT1LOhTBGvAhbGXDpIYnELR2fqTN5hWK0]--></g></svg>