<?xml version="1.0" encoding="us-ascii" standalone="no"?><svg xmlns="http://www.w3.org/2000/svg" xmlns:xlink="http://www.w3.org/1999/xlink" contentStyleType="text/css" height="362px" preserveAspectRatio="none" style="width:2044px;height:362px;background:#FFFFFF;" version="1.1" viewBox="0 0 2044 362" width="2044px" zoomAndPan="magnify"><defs/><g><!--class ICatalogLookupDataService`1--><g id="elem_ICatalogLookupDataService`1"><rect codeLine="1" fill="#F1F1F1" height="64.2969" id="ICatalogLookupDataService`1" rx="2.5" ry="2.5" style="stroke:#181818;stroke-width:0.5;" width="322" x="486.5" y="10"/><ellipse cx="501.5" cy="26" fill="#B4A7E5" rx="11" ry="11" style="stroke:#181818;stroke-width:1.0;"/><path d="M497.4219,21.7656 L497.4219,19.6094 L504.8125,19.6094 L504.8125,21.7656 L502.3438,21.7656 L502.3438,29.8438 L504.8125,29.8438 L504.8125,32 L497.4219,32 L497.4219,29.8438 L499.8906,29.8438 L499.8906,21.7656 L497.4219,21.7656 Z " fill="#000000"/><text fill="#000000" font-family="sans-serif" font-size="14" font-style="italic" lengthAdjust="spacing" textLength="204" x="515.5" y="30.8467">ICatalogLookupDataService`1</text><rect fill="#FFFFFF" height="15.9688" style="stroke:#181818;stroke-width:1.0;stroke-dasharray:2.0,2.0;" width="84" x="727.5" y="7"/><text fill="#000000" font-family="sans-serif" font-size="12" font-style="italic" lengthAdjust="spacing" textLength="82" x="728.5" y="19.1387">TLookupData</text><line style="stroke:#181818;stroke-width:0.5;" x1="487.5" x2="807.5" y1="42" y2="42"/><line style="stroke:#181818;stroke-width:0.5;" x1="487.5" x2="807.5" y1="50" y2="50"/><ellipse cx="497.5" cy="63.6484" fill="#84BE84" rx="3" ry="3" style="stroke:#038048;stroke-width:1.0;"/><text fill="#000000" font-family="sans-serif" font-size="14" lengthAdjust="spacing" textLength="242" x="506.5" y="66.9951">List() : Task&lt;List&lt;TLookupData&gt;&gt;</text></g><!--class CatalogLookupDataService`2--><g id="elem_CatalogLookupDataService`2"><rect codeLine="5" fill="#F1F1F1" height="80.5938" id="CatalogLookupDataService`2" rx="2.5" ry="2.5" style="stroke:#181818;stroke-width:0.5;" width="1281" x="7" y="275"/><ellipse cx="464.75" cy="291" fill="#ADD1B2" rx="11" ry="11" style="stroke:#181818;stroke-width:1.0;"/><path d="M467.7188,296.6406 Q467.1406,296.9375 466.5,297.0781 Q465.8594,297.2344 465.1563,297.2344 Q462.6563,297.2344 461.3281,295.5938 Q460.0156,293.9375 460.0156,290.8125 Q460.0156,287.6875 461.3281,286.0313 Q462.6563,284.375 465.1563,284.375 Q465.8594,284.375 466.5,284.5313 Q467.1563,284.6875 467.7188,284.9844 L467.7188,287.7031 Q467.0938,287.125 466.5,286.8594 Q465.9063,286.5781 465.2813,286.5781 Q463.9375,286.5781 463.25,287.6563 Q462.5625,288.7188 462.5625,290.8125 Q462.5625,292.9063 463.25,293.9844 Q463.9375,295.0469 465.2813,295.0469 Q465.9063,295.0469 466.5,294.7813 Q467.0938,294.5 467.7188,293.9219 L467.7188,296.6406 Z " fill="#000000"/><text fill="#000000" font-family="sans-serif" font-size="14" lengthAdjust="spacing" textLength="201" x="485.25" y="295.8467">CatalogLookupDataService`2</text><rect fill="#FFFFFF" height="15.9688" style="stroke:#181818;stroke-width:1.0;stroke-dasharray:2.0,2.0;" width="154" x="1137" y="272"/><text fill="#000000" font-family="sans-serif" font-size="12" font-style="italic" lengthAdjust="spacing" textLength="152" x="1138" y="284.1387">TLookupData, TReponse</text><line style="stroke:#181818;stroke-width:0.5;" x1="8" x2="1287" y1="307" y2="307"/><line style="stroke:#181818;stroke-width:0.5;" x1="8" x2="1287" y1="315" y2="315"/><ellipse cx="18" cy="328.6484" fill="#84BE84" rx="3" ry="3" style="stroke:#038048;stroke-width:1.0;"/><text fill="#000000" font-family="sans-serif" font-size="14" lengthAdjust="spacing" textLength="1255" x="27" y="331.9951">CatalogLookupDataService(httpClient : HttpClient, baseUrlConfiguration : IOptions&lt;BaseUrlConfiguration&gt;, logger : ILogger&lt;CatalogLookupDataService&lt;TLookupData, TReponse&gt;&gt;)</text><ellipse cx="18" cy="344.9453" fill="#84BE84" rx="3" ry="3" style="stroke:#038048;stroke-width:1.0;"/><text fill="#000000" font-family="sans-serif" font-size="14" lengthAdjust="spacing" textLength="304" x="27" y="348.292">&#171;async&#187; List() : Task&lt;List&lt;TLookupData&gt;&gt;</text></g><!--class CachedCatalogLookupDataServiceDecorator`2--><g id="elem_CachedCatalogLookupDataServiceDecorator`2"><rect codeLine="10" fill="#F1F1F1" height="80.5938" id="CachedCatalogLookupDataServiceDecorator`2" rx="2.5" ry="2.5" style="stroke:#181818;stroke-width:0.5;" width="1812" x="221.5" y="134"/><ellipse cx="883.75" cy="150" fill="#ADD1B2" rx="11" ry="11" style="stroke:#181818;stroke-width:1.0;"/><path d="M886.7188,155.6406 Q886.1406,155.9375 885.5,156.0781 Q884.8594,156.2344 884.1563,156.2344 Q881.6563,156.2344 880.3281,154.5938 Q879.0156,152.9375 879.0156,149.8125 Q879.0156,146.6875 880.3281,145.0313 Q881.6563,143.375 884.1563,143.375 Q884.8594,143.375 885.5,143.5313 Q886.1563,143.6875 886.7188,143.9844 L886.7188,146.7031 Q886.0938,146.125 885.5,145.8594 Q884.9063,145.5781 884.2813,145.5781 Q882.9375,145.5781 882.25,146.6563 Q881.5625,147.7188 881.5625,149.8125 Q881.5625,151.9063 882.25,152.9844 Q882.9375,154.0469 884.2813,154.0469 Q884.9063,154.0469 885.5,153.7813 Q886.0938,153.5 886.7188,152.9219 L886.7188,155.6406 Z " fill="#000000"/><text fill="#000000" font-family="sans-serif" font-size="14" lengthAdjust="spacing" textLength="323" x="904.25" y="154.8467">CachedCatalogLookupDataServiceDecorator`2</text><rect fill="#FFFFFF" height="15.9688" style="stroke:#181818;stroke-width:1.0;stroke-dasharray:2.0,2.0;" width="154" x="1882.5" y="131"/><text fill="#000000" font-family="sans-serif" font-size="12" font-style="italic" lengthAdjust="spacing" textLength="152" x="1883.5" y="143.1387">TLookupData, TReponse</text><line style="stroke:#181818;stroke-width:0.5;" x1="222.5" x2="2032.5" y1="166" y2="166"/><line style="stroke:#181818;stroke-width:0.5;" x1="222.5" x2="2032.5" y1="174" y2="174"/><ellipse cx="232.5" cy="187.6484" fill="#84BE84" rx="3" ry="3" style="stroke:#038048;stroke-width:1.0;"/><text fill="#000000" font-family="sans-serif" font-size="14" lengthAdjust="spacing" textLength="1786" x="241.5" y="190.9951">CachedCatalogLookupDataServiceDecorator(localStorageService : ILocalStorageService, catalogTypeService : CatalogLookupDataService&lt;TLookupData, TReponse&gt;, logger : ILogger&lt;CachedCatalogLookupDataServiceDecorator&lt;TLookupData, TReponse&gt;&gt;)</text><ellipse cx="232.5" cy="203.9453" fill="#84BE84" rx="3" ry="3" style="stroke:#038048;stroke-width:1.0;"/><text fill="#000000" font-family="sans-serif" font-size="14" lengthAdjust="spacing" textLength="304" x="241.5" y="207.292">&#171;async&#187; List() : Task&lt;List&lt;TLookupData&gt;&gt;</text></g><!--reverse link ICatalogLookupDataService`1 to CatalogLookupDataService`2--><g id="link_ICatalogLookupDataService`1_CatalogLookupDataService`2"><path codeLine="9" d="M465.46,57.27 C358.16,69.89 237,92.94 203.5,134 C145.64,204.92 219.48,248.22 322.52,274.54 " fill="none" id="ICatalogLookupDataService`1-backto-CatalogLookupDataService`2" style="stroke:#181818;stroke-width:1.0;stroke-dasharray:7.0,7.0;"/><polygon fill="none" points="464.35,50.24,485.01,54.96,465.92,64.16,464.35,50.24" style="stroke:#181818;stroke-width:1.0;"/></g><!--reverse link ICatalogLookupDataService`1 to CachedCatalogLookupDataServiceDecorator`2--><g id="link_ICatalogLookupDataService`1_CachedCatalogLookupDataServiceDecorator`2"><path codeLine="14" d="M783.08,79.86 C844.69,96.61 917.7,116.46 980.61,133.56 " fill="none" id="ICatalogLookupDataService`1-backto-CachedCatalogLookupDataServiceDecorator`2" style="stroke:#181818;stroke-width:1.0;stroke-dasharray:7.0,7.0;"/><polygon fill="none" points="781.55,86.43,764.08,74.42,785.22,72.92,781.55,86.43" style="stroke:#181818;stroke-width:1.0;"/></g><!--link CachedCatalogLookupDataServiceDecorator`2 to CatalogLookupDataService`2--><g id="link_CachedCatalogLookupDataServiceDecorator`2_CatalogLookupDataService`2"><path codeLine="15" d="M989.63,215.42 C927.38,233.45 853.87,254.74 790.97,272.95 " fill="none" id="CachedCatalogLookupDataServiceDecorator`2-to-CatalogLookupDataService`2" style="stroke:#181818;stroke-width:1.0;stroke-dasharray:7.0,7.0;"/><polygon fill="#181818" points="786.31,274.59,796.07,275.91,791.11,273.19,793.83,268.23,786.31,274.59" style="stroke:#181818;stroke-width:1.0;"/></g><!--SRC=[nL9DImCn4BtdLmmvRN5PqAE47DmUB2m8ThqRutGR6fAGf49H_xjPM-gAJKbFvZGVRsRUl8ao4VrAI8H5AwBGTkYitMpTF3bBz6zAulCrwt-27E2TG7fNqAaGgndSGY_2XetUBo0dduH8BKA0REkRQKKD_ICwQm9EXkHAgtMChjKAJKmCxezE3IyYu9FNhJKhDMozYCgQ15aykD4AxEv4djUGXWpeHs3tRR7Sv0nbFZimPao4dP6SbmX4pyXEWNqq3T2yUlIehrpZQmutHsdJcjONoLtKgT9M2hrCbXZmaDnBzoTSWzntwtTk0hrGtPFtAQBw3-SgF0Ob5s2XQVZPh_05]--></g></svg>