<?xml version="1.0" encoding="us-ascii" standalone="no"?><svg xmlns="http://www.w3.org/2000/svg" xmlns:xlink="http://www.w3.org/1999/xlink" contentStyleType="text/css" height="202px" preserveAspectRatio="none" style="width:548px;height:202px;background:#FFFFFF;" version="1.1" viewBox="0 0 548 202" width="548px" zoomAndPan="magnify"><defs/><g><!--class ConfirmEmailModel--><g id="elem_ConfirmEmailModel"><rect codeLine="1" fill="#F1F1F1" height="80.5938" id="ConfirmEmailModel" rx="2.5" ry="2.5" style="stroke:#181818;stroke-width:0.5;" width="534" x="7" y="115"/><ellipse cx="204.25" cy="131" fill="#ADD1B2" rx="11" ry="11" style="stroke:#181818;stroke-width:1.0;"/><path d="M207.2188,136.6406 Q206.6406,136.9375 206,137.0781 Q205.3594,137.2344 204.6563,137.2344 Q202.1563,137.2344 200.8281,135.5938 Q199.5156,133.9375 199.5156,130.8125 Q199.5156,127.6875 200.8281,126.0313 Q202.1563,124.375 204.6563,124.375 Q205.3594,124.375 206,124.5313 Q206.6563,124.6875 207.2188,124.9844 L207.2188,127.7031 Q206.5938,127.125 206,126.8594 Q205.4063,126.5781 204.7813,126.5781 Q203.4375,126.5781 202.75,127.6563 Q202.0625,128.7188 202.0625,130.8125 Q202.0625,132.9063 202.75,133.9844 Q203.4375,135.0469 204.7813,135.0469 Q205.4063,135.0469 206,134.7813 Q206.5938,134.5 207.2188,133.9219 L207.2188,136.6406 Z " fill="#000000"/><text fill="#000000" font-family="sans-serif" font-size="14" lengthAdjust="spacing" textLength="131" x="224.75" y="135.8467">ConfirmEmailModel</text><line style="stroke:#181818;stroke-width:0.5;" x1="8" x2="540" y1="147" y2="147"/><line style="stroke:#181818;stroke-width:0.5;" x1="8" x2="540" y1="155" y2="155"/><ellipse cx="18" cy="168.6484" fill="#84BE84" rx="3" ry="3" style="stroke:#038048;stroke-width:1.0;"/><text fill="#000000" font-family="sans-serif" font-size="14" lengthAdjust="spacing" textLength="468" x="27" y="171.9951">ConfirmEmailModel(userManager : UserManager&lt;ApplicationUser&gt;)</text><ellipse cx="18" cy="184.9453" fill="#84BE84" rx="3" ry="3" style="stroke:#038048;stroke-width:1.0;"/><text fill="#000000" font-family="sans-serif" font-size="14" lengthAdjust="spacing" textLength="508" x="27" y="188.292">&#171;async&#187; OnGetAsync(userId : string, code : string) : Task&lt;IActionResult&gt;</text></g><!--class PageModel--><g id="elem_PageModel"><rect fill="#F1F1F1" height="48" id="PageModel" rx="2.5" ry="2.5" style="stroke:#181818;stroke-width:0.5;" width="109" x="219.5" y="7"/><ellipse cx="234.5" cy="23" fill="#ADD1B2" rx="11" ry="11" style="stroke:#181818;stroke-width:1.0;"/><path d="M237.4688,28.6406 Q236.8906,28.9375 236.25,29.0781 Q235.6094,29.2344 234.9063,29.2344 Q232.4063,29.2344 231.0781,27.5938 Q229.7656,25.9375 229.7656,22.8125 Q229.7656,19.6875 231.0781,18.0313 Q232.4063,16.375 234.9063,16.375 Q235.6094,16.375 236.25,16.5313 Q236.9063,16.6875 237.4688,16.9844 L237.4688,19.7031 Q236.8438,19.125 236.25,18.8594 Q235.6563,18.5781 235.0313,18.5781 Q233.6875,18.5781 233,19.6563 Q232.3125,20.7188 232.3125,22.8125 Q232.3125,24.9063 233,25.9844 Q233.6875,27.0469 235.0313,27.0469 Q235.6563,27.0469 236.25,26.7813 Q236.8438,26.5 237.4688,25.9219 L237.4688,28.6406 Z " fill="#000000"/><text fill="#000000" font-family="sans-serif" font-size="14" lengthAdjust="spacing" textLength="77" x="248.5" y="27.8467">PageModel</text><line style="stroke:#181818;stroke-width:0.5;" x1="220.5" x2="327.5" y1="39" y2="39"/><line style="stroke:#181818;stroke-width:0.5;" x1="220.5" x2="327.5" y1="47" y2="47"/></g><!--reverse link PageModel to ConfirmEmailModel--><g id="link_PageModel_ConfirmEmailModel"><path codeLine="5" d="M274,75.89 C274,88.61 274,102.42 274,114.87 " fill="none" id="PageModel-backto-ConfirmEmailModel" style="stroke:#181818;stroke-width:1.0;"/><polygon fill="none" points="267,76.33,274,56.33,281,76.33,267,76.33" style="stroke:#181818;stroke-width:1.0;"/></g><!--SRC=[Iyv9B2vMSCxFIyiiodNDJSpCySrFISrHKAZcKW02RKmfZTBYr2BVnBp4zDGY1Ik5K0JFnh6W82SpER4aCpyF96od2JN3nYQnk38lsSvEmJ_FFRN44SG16-EP0ZIXkAGeCozTHo4PQ3gSgmbaXIGMPzjuEYQ3p0jABIxDAR7ZgkKA05e5SQDDZQukfli0]--></g></svg>