<?xml version="1.0" encoding="us-ascii" standalone="no"?><svg xmlns="http://www.w3.org/2000/svg" xmlns:xlink="http://www.w3.org/1999/xlink" contentStyleType="text/css" height="343px" preserveAspectRatio="none" style="width:1035px;height:343px;background:#FFFFFF;" version="1.1" viewBox="0 0 1035 343" width="1035px" zoomAndPan="magnify"><defs/><g><!--class GetMyOrders--><g id="elem_GetMyOrders"><rect codeLine="1" fill="#F1F1F1" height="80.5938" id="GetMyOrders" rx="2.5" ry="2.5" style="stroke:#181818;stroke-width:0.5;" width="250" x="204.6284" y="256"/><ellipse cx="279.8784" cy="272" fill="#ADD1B2" rx="11" ry="11" style="stroke:#181818;stroke-width:1.0;"/><path d="M282.8471,277.6406 Q282.269,277.9375 281.6284,278.0781 Q280.9878,278.2344 280.2846,278.2344 Q277.7846,278.2344 276.4565,276.5938 Q275.144,274.9375 275.144,271.8125 Q275.144,268.6875 276.4565,267.0313 Q277.7846,265.375 280.2846,265.375 Q280.9878,265.375 281.6284,265.5313 Q282.2846,265.6875 282.8471,265.9844 L282.8471,268.7031 Q282.2221,268.125 281.6284,267.8594 Q281.0346,267.5781 280.4096,267.5781 Q279.0659,267.5781 278.3784,268.6563 Q277.6909,269.7188 277.6909,271.8125 Q277.6909,273.9063 278.3784,274.9844 Q279.0659,276.0469 280.4096,276.0469 Q281.0346,276.0469 281.6284,275.7813 Q282.2221,275.5 282.8471,274.9219 L282.8471,277.6406 Z " fill="#000000"/><text fill="#000000" font-family="sans-serif" font-size="14" lengthAdjust="spacing" textLength="91" x="300.3784" y="276.8467">GetMyOrders</text><line style="stroke:#181818;stroke-width:0.5;" x1="205.6284" x2="453.6284" y1="288" y2="288"/><ellipse cx="215.6284" cy="301.6484" fill="none" rx="3" ry="3" style="stroke:#038048;stroke-width:1.0;"/><text fill="#000000" font-family="sans-serif" font-size="14" lengthAdjust="spacing" textLength="213" x="224.6284" y="304.9951">UserName : string &#171;get&#187; &#171;set&#187;</text><line style="stroke:#181818;stroke-width:0.5;" x1="205.6284" x2="453.6284" y1="312.2969" y2="312.2969"/><ellipse cx="215.6284" cy="325.9453" fill="#84BE84" rx="3" ry="3" style="stroke:#038048;stroke-width:1.0;"/><text fill="#000000" font-family="sans-serif" font-size="14" lengthAdjust="spacing" textLength="224" x="224.6284" y="329.292">GetMyOrders(userName : string)</text></g><!--class IRequest`1--><g id="elem_IRequest`1"><rect fill="#F1F1F1" height="48" id="IRequest`1" rx="2.5" ry="2.5" style="stroke:#181818;stroke-width:0.5;" width="110" x="11.6284" y="131.5"/><ellipse cx="26.6284" cy="147.5" fill="#ADD1B2" rx="11" ry="11" style="stroke:#181818;stroke-width:1.0;"/><path d="M29.5971,153.1406 Q29.019,153.4375 28.3784,153.5781 Q27.7378,153.7344 27.0346,153.7344 Q24.5346,153.7344 23.2065,152.0938 Q21.894,150.4375 21.894,147.3125 Q21.894,144.1875 23.2065,142.5313 Q24.5346,140.875 27.0346,140.875 Q27.7378,140.875 28.3784,141.0313 Q29.0346,141.1875 29.5971,141.4844 L29.5971,144.2031 Q28.9721,143.625 28.3784,143.3594 Q27.7846,143.0781 27.1596,143.0781 Q25.8159,143.0781 25.1284,144.1563 Q24.4409,145.2188 24.4409,147.3125 Q24.4409,149.4063 25.1284,150.4844 Q25.8159,151.5469 27.1596,151.5469 Q27.7846,151.5469 28.3784,151.2813 Q28.9721,151 29.5971,150.4219 L29.5971,153.1406 Z " fill="#000000"/><text fill="#000000" font-family="sans-serif" font-size="14" lengthAdjust="spacing" textLength="78" x="40.6284" y="152.3467">IRequest`1</text><line style="stroke:#181818;stroke-width:0.5;" x1="12.6284" x2="120.6284" y1="163.5" y2="163.5"/><line style="stroke:#181818;stroke-width:0.5;" x1="12.6284" x2="120.6284" y1="171.5" y2="171.5"/></g><!--class GetMyOrdersHandler--><g id="elem_GetMyOrdersHandler"><rect codeLine="6" fill="#F1F1F1" height="80.5938" id="GetMyOrdersHandler" rx="2.5" ry="2.5" style="stroke:#181818;stroke-width:0.5;" width="872" x="156.6284" y="115"/><ellipse cx="516.3784" cy="131" fill="#ADD1B2" rx="11" ry="11" style="stroke:#181818;stroke-width:1.0;"/><path d="M519.3471,136.6406 Q518.769,136.9375 518.1284,137.0781 Q517.4878,137.2344 516.7846,137.2344 Q514.2846,137.2344 512.9565,135.5938 Q511.644,133.9375 511.644,130.8125 Q511.644,127.6875 512.9565,126.0313 Q514.2846,124.375 516.7846,124.375 Q517.4878,124.375 518.1284,124.5313 Q518.7846,124.6875 519.3471,124.9844 L519.3471,127.7031 Q518.7221,127.125 518.1284,126.8594 Q517.5346,126.5781 516.9096,126.5781 Q515.5659,126.5781 514.8784,127.6563 Q514.1909,128.7188 514.1909,130.8125 Q514.1909,132.9063 514.8784,133.9844 Q515.5659,135.0469 516.9096,135.0469 Q517.5346,135.0469 518.1284,134.7813 Q518.7221,134.5 519.3471,133.9219 L519.3471,136.6406 Z " fill="#000000"/><text fill="#000000" font-family="sans-serif" font-size="14" lengthAdjust="spacing" textLength="144" x="536.8784" y="135.8467">GetMyOrdersHandler</text><line style="stroke:#181818;stroke-width:0.5;" x1="157.6284" x2="1027.6284" y1="147" y2="147"/><line style="stroke:#181818;stroke-width:0.5;" x1="157.6284" x2="1027.6284" y1="155" y2="155"/><ellipse cx="167.6284" cy="168.6484" fill="#84BE84" rx="3" ry="3" style="stroke:#038048;stroke-width:1.0;"/><text fill="#000000" font-family="sans-serif" font-size="14" lengthAdjust="spacing" textLength="454" x="176.6284" y="171.9951">GetMyOrdersHandler(orderRepository : IReadRepository&lt;Order&gt;)</text><ellipse cx="167.6284" cy="184.9453" fill="#84BE84" rx="3" ry="3" style="stroke:#038048;stroke-width:1.0;"/><text fill="#000000" font-family="sans-serif" font-size="14" lengthAdjust="spacing" textLength="846" x="176.6284" y="188.292">&#171;async&#187; Handle(request : GetMyOrders, cancellationToken : CancellationToken) : Task&lt;IEnumerable&lt;OrderViewModel&gt;&gt;</text></g><!--class IRequestHandler`2--><g id="elem_IRequestHandler`2"><rect fill="#F1F1F1" height="48" id="IRequestHandler`2" rx="2.5" ry="2.5" style="stroke:#181818;stroke-width:0.5;" width="163" x="511.1284" y="7"/><ellipse cx="526.1284" cy="23" fill="#ADD1B2" rx="11" ry="11" style="stroke:#181818;stroke-width:1.0;"/><path d="M529.0971,28.6406 Q528.519,28.9375 527.8784,29.0781 Q527.2378,29.2344 526.5346,29.2344 Q524.0346,29.2344 522.7065,27.5938 Q521.394,25.9375 521.394,22.8125 Q521.394,19.6875 522.7065,18.0313 Q524.0346,16.375 526.5346,16.375 Q527.2378,16.375 527.8784,16.5313 Q528.5346,16.6875 529.0971,16.9844 L529.0971,19.7031 Q528.4721,19.125 527.8784,18.8594 Q527.2846,18.5781 526.6596,18.5781 Q525.3159,18.5781 524.6284,19.6563 Q523.9409,20.7188 523.9409,22.8125 Q523.9409,24.9063 524.6284,25.9844 Q525.3159,27.0469 526.6596,27.0469 Q527.2846,27.0469 527.8784,26.7813 Q528.4721,26.5 529.0971,25.9219 L529.0971,28.6406 Z " fill="#000000"/><text fill="#000000" font-family="sans-serif" font-size="14" lengthAdjust="spacing" textLength="131" x="540.1284" y="27.8467">IRequestHandler`2</text><line style="stroke:#181818;stroke-width:0.5;" x1="512.1284" x2="673.1284" y1="39" y2="39"/><line style="stroke:#181818;stroke-width:0.5;" x1="512.1284" x2="673.1284" y1="47" y2="47"/></g><!--reverse link IRequest`1 to GetMyOrders--><g id="link_IRequest`1_GetMyOrders"><path codeLine="5" d="M128.0584,189.82 C131.9684,191.91 135.8484,193.99 139.6284,196 C176.7684,215.77 218.1384,237.48 252.7684,255.55 " fill="none" id="IRequest`1-backto-GetMyOrders" style="stroke:#181818;stroke-width:1.0;stroke-dasharray:7.0,7.0;"/><polygon fill="none" points="125.0984,195.64,110.8084,179.99,131.7384,183.31,125.0984,195.64" style="stroke:#181818;stroke-width:1.0;"/><text fill="#000000" font-family="sans-serif" font-size="13" lengthAdjust="spacing" textLength="102" x="6" y="199.4699">&lt;IEnumerable&gt;</text></g><!--reverse link IRequestHandler`2 to GetMyOrdersHandler--><g id="link_IRequestHandler`2_GetMyOrdersHandler"><path codeLine="10" d="M592.6284,75.89 C592.6284,88.61 592.6284,102.42 592.6284,114.87 " fill="none" id="IRequestHandler`2-backto-GetMyOrdersHandler" style="stroke:#181818;stroke-width:1.0;stroke-dasharray:7.0,7.0;"/><polygon fill="none" points="585.6284,76.33,592.6284,56.33,599.6284,76.33,585.6284,76.33" style="stroke:#181818;stroke-width:1.0;"/><text fill="#000000" font-family="sans-serif" font-size="13" lengthAdjust="spacing" textLength="194" x="374.9846" y="75.1716">&lt;GetMyOrders, IEnumerable&gt;</text></g><!--link GetMyOrdersHandler to GetMyOrders--><g id="link_GetMyOrdersHandler_GetMyOrders"><path codeLine="11" d="M517.2584,196.33 C483.6984,214.07 444.1284,234.99 409.9984,253.02 " fill="none" id="GetMyOrdersHandler-to-GetMyOrders" style="stroke:#181818;stroke-width:1.0;stroke-dasharray:7.0,7.0;"/><polygon fill="#181818" points="406.0084,255.66,415.835,254.9988,410.4308,253.3271,412.1024,247.9229,406.0084,255.66" style="stroke:#181818;stroke-width:1.0;"/></g><!--SRC=[VL1DImCn4BtdLmnxsaLPq6C9kOXe3rKerNF7x52MfebcifIbzRyxwouqhc8k8PFtDSywP8O7Igl-EJOK6U2aGCuLl3359pmGB81JRFqEjDvHCaPk7ku9bv7BRiwfrASgbclww8ZJzgQ0GY_lVNUWY6-EJ07wNDUvXBBpH8_e6qVn4kptNnc6rvhU0xSfn5xinHERoqH_uqqrIMYDt7ihkumAPHmJ2Z5JlmQBtf9pcDhWDs5FNW1tyrabmmtoFjziz7jjwRWA3JafA-jXIhsz7UhuuVT_DnDF_L5ENPiS-GK0]--></g></svg>