<?xml version="1.0" encoding="us-ascii" standalone="no"?><svg xmlns="http://www.w3.org/2000/svg" xmlns:xlink="http://www.w3.org/1999/xlink" contentStyleType="text/css" height="150px" preserveAspectRatio="none" style="width:315px;height:150px;background:#FFFFFF;" version="1.1" viewBox="0 0 315 150" width="315px" zoomAndPan="magnify"><defs/><g><!--class ResetPasswordViewModel--><g id="elem_ResetPasswordViewModel"><rect codeLine="1" fill="#F1F1F1" height="129.4844" id="ResetPasswordViewModel" rx="2.5" ry="2.5" style="stroke:#181818;stroke-width:0.5;" width="294" x="7" y="7"/><ellipse cx="58.75" cy="23" fill="#ADD1B2" rx="11" ry="11" style="stroke:#181818;stroke-width:1.0;"/><path d="M61.7188,28.6406 Q61.1406,28.9375 60.5,29.0781 Q59.8594,29.2344 59.1563,29.2344 Q56.6563,29.2344 55.3281,27.5938 Q54.0156,25.9375 54.0156,22.8125 Q54.0156,19.6875 55.3281,18.0313 Q56.6563,16.375 59.1563,16.375 Q59.8594,16.375 60.5,16.5313 Q61.1563,16.6875 61.7188,16.9844 L61.7188,19.7031 Q61.0938,19.125 60.5,18.8594 Q59.9063,18.5781 59.2813,18.5781 Q57.9375,18.5781 57.25,19.6563 Q56.5625,20.7188 56.5625,22.8125 Q56.5625,24.9063 57.25,25.9844 Q57.9375,27.0469 59.2813,27.0469 Q59.9063,27.0469 60.5,26.7813 Q61.0938,26.5 61.7188,25.9219 L61.7188,28.6406 Z " fill="#000000"/><text fill="#000000" font-family="sans-serif" font-size="14" lengthAdjust="spacing" textLength="182" x="79.25" y="27.8467">ResetPasswordViewModel</text><line style="stroke:#181818;stroke-width:0.5;" x1="8" x2="300" y1="39" y2="39"/><ellipse cx="18" cy="52.6484" fill="none" rx="3" ry="3" style="stroke:#038048;stroke-width:1.0;"/><text fill="#000000" font-family="sans-serif" font-size="14" lengthAdjust="spacing" textLength="184" x="27" y="55.9951">Email : string? &#171;get&#187; &#171;set&#187;</text><ellipse cx="18" cy="68.9453" fill="none" rx="3" ry="3" style="stroke:#038048;stroke-width:1.0;"/><text fill="#000000" font-family="sans-serif" font-size="14" lengthAdjust="spacing" textLength="215" x="27" y="72.292">Password : string? &#171;get&#187; &#171;set&#187;</text><ellipse cx="18" cy="85.2422" fill="none" rx="3" ry="3" style="stroke:#038048;stroke-width:1.0;"/><text fill="#000000" font-family="sans-serif" font-size="14" lengthAdjust="spacing" textLength="268" x="27" y="88.5889">ConfirmPassword : string? &#171;get&#187; &#171;set&#187;</text><ellipse cx="18" cy="101.5391" fill="none" rx="3" ry="3" style="stroke:#038048;stroke-width:1.0;"/><text fill="#000000" font-family="sans-serif" font-size="14" lengthAdjust="spacing" textLength="185" x="27" y="104.8857">Code : string? &#171;get&#187; &#171;set&#187;</text><line style="stroke:#181818;stroke-width:0.5;" x1="8" x2="300" y1="112.1875" y2="112.1875"/><ellipse cx="18" cy="125.8359" fill="#84BE84" rx="3" ry="3" style="stroke:#038048;stroke-width:1.0;"/><text fill="#000000" font-family="sans-serif" font-size="14" lengthAdjust="spacing" textLength="192" x="27" y="129.1826">ResetPasswordViewModel()</text></g><!--SRC=[Iyv9B2vM24ejJYq90BBAyujImZ9JottpKr9p51IgkHI0G5l1DJSnCqV1Ig6uf2WpBzrUmSOcFRN4pWv85uDeg2gO0GGLEkVdfMKMvPAWFYMLe2BiVj3GvAe50000]--></g></svg>