<?xml version="1.0" encoding="us-ascii" standalone="no"?><svg xmlns="http://www.w3.org/2000/svg" xmlns:xlink="http://www.w3.org/1999/xlink" contentStyleType="text/css" height="202px" preserveAspectRatio="none" style="width:221px;height:202px;background:#FFFFFF;" version="1.1" viewBox="0 0 221 202" width="221px" zoomAndPan="magnify"><defs/><g><!--class EndpointAttribute--><g id="elem_EndpointAttribute"><rect codeLine="1" fill="#F1F1F1" height="80.5938" id="EndpointAttribute" rx="2.5" ry="2.5" style="stroke:#181818;stroke-width:0.5;" width="207" x="7" y="115"/><ellipse cx="46.3" cy="131" fill="#ADD1B2" rx="11" ry="11" style="stroke:#181818;stroke-width:1.0;"/><path d="M49.2688,136.6406 Q48.6906,136.9375 48.05,137.0781 Q47.4094,137.2344 46.7063,137.2344 Q44.2063,137.2344 42.8781,135.5938 Q41.5656,133.9375 41.5656,130.8125 Q41.5656,127.6875 42.8781,126.0313 Q44.2063,124.375 46.7063,124.375 Q47.4094,124.375 48.05,124.5313 Q48.7063,124.6875 49.2688,124.9844 L49.2688,127.7031 Q48.6438,127.125 48.05,126.8594 Q47.4563,126.5781 46.8313,126.5781 Q45.4875,126.5781 44.8,127.6563 Q44.1125,128.7188 44.1125,130.8125 Q44.1125,132.9063 44.8,133.9844 Q45.4875,135.0469 46.8313,135.0469 Q47.4563,135.0469 48.05,134.7813 Q48.6438,134.5 49.2688,133.9219 L49.2688,136.6406 Z " fill="#000000"/><text fill="#000000" font-family="sans-serif" font-size="14" lengthAdjust="spacing" textLength="121" x="65.7" y="135.8467">EndpointAttribute</text><line style="stroke:#181818;stroke-width:0.5;" x1="8" x2="213" y1="147" y2="147"/><ellipse cx="18" cy="160.6484" fill="none" rx="3" ry="3" style="stroke:#038048;stroke-width:1.0;"/><text fill="#000000" font-family="sans-serif" font-size="14" lengthAdjust="spacing" textLength="181" x="27" y="163.9951">Name : string &#171;get&#187; &#171;set&#187;</text><line style="stroke:#181818;stroke-width:0.5;" x1="8" x2="213" y1="171.2969" y2="171.2969"/><ellipse cx="18" cy="184.9453" fill="#84BE84" rx="3" ry="3" style="stroke:#038048;stroke-width:1.0;"/><text fill="#000000" font-family="sans-serif" font-size="14" lengthAdjust="spacing" textLength="131" x="27" y="188.292">EndpointAttribute()</text></g><!--class Attribute--><g id="elem_Attribute"><rect fill="#F1F1F1" height="48" id="Attribute" rx="2.5" ry="2.5" style="stroke:#181818;stroke-width:0.5;" width="91" x="65" y="7"/><ellipse cx="80" cy="23" fill="#ADD1B2" rx="11" ry="11" style="stroke:#181818;stroke-width:1.0;"/><path d="M82.9688,28.6406 Q82.3906,28.9375 81.75,29.0781 Q81.1094,29.2344 80.4063,29.2344 Q77.9063,29.2344 76.5781,27.5938 Q75.2656,25.9375 75.2656,22.8125 Q75.2656,19.6875 76.5781,18.0313 Q77.9063,16.375 80.4063,16.375 Q81.1094,16.375 81.75,16.5313 Q82.4063,16.6875 82.9688,16.9844 L82.9688,19.7031 Q82.3438,19.125 81.75,18.8594 Q81.1563,18.5781 80.5313,18.5781 Q79.1875,18.5781 78.5,19.6563 Q77.8125,20.7188 77.8125,22.8125 Q77.8125,24.9063 78.5,25.9844 Q79.1875,27.0469 80.5313,27.0469 Q81.1563,27.0469 81.75,26.7813 Q82.3438,26.5 82.9688,25.9219 L82.9688,28.6406 Z " fill="#000000"/><text fill="#000000" font-family="sans-serif" font-size="14" lengthAdjust="spacing" textLength="59" x="94" y="27.8467">Attribute</text><line style="stroke:#181818;stroke-width:0.5;" x1="66" x2="155" y1="39" y2="39"/><line style="stroke:#181818;stroke-width:0.5;" x1="66" x2="155" y1="47" y2="47"/></g><!--reverse link Attribute to EndpointAttribute--><g id="link_Attribute_EndpointAttribute"><path codeLine="5" d="M110.5,75.89 C110.5,88.61 110.5,102.42 110.5,114.87 " fill="none" id="Attribute-backto-EndpointAttribute" style="stroke:#181818;stroke-width:1.0;"/><polygon fill="none" points="103.5,76.33,110.5,56.33,117.5,76.33,103.5,76.33" style="stroke:#181818;stroke-width:1.0;"/></g><!--SRC=[Iyv9B2vMSCrBASZFp2jnB2afoamgBKbLKAZcKW02RGM_nDnK1Ik5Og14Nhg2ZKrwQecT7P0k1j5GDHZQDJIvQhaGXjdKwEfYAW80]--></g></svg>