<?xml version="1.0" encoding="us-ascii" standalone="no"?><svg xmlns="http://www.w3.org/2000/svg" xmlns:xlink="http://www.w3.org/1999/xlink" contentStyleType="text/css" height="541px" preserveAspectRatio="none" style="width:409px;height:541px;background:#FFFFFF;" version="1.1" viewBox="0 0 409 541" width="409px" zoomAndPan="magnify"><defs/><g><!--class OrderViewModel--><g id="elem_OrderViewModel"><rect codeLine="1" fill="#F1F1F1" height="145.7813" id="OrderViewModel" rx="2.5" ry="2.5" style="stroke:#181818;stroke-width:0.5;" width="309" x="50" y="7"/><ellipse cx="143.75" cy="23" fill="#ADD1B2" rx="11" ry="11" style="stroke:#181818;stroke-width:1.0;"/><path d="M146.7188,28.6406 Q146.1406,28.9375 145.5,29.0781 Q144.8594,29.2344 144.1563,29.2344 Q141.6563,29.2344 140.3281,27.5938 Q139.0156,25.9375 139.0156,22.8125 Q139.0156,19.6875 140.3281,18.0313 Q141.6563,16.375 144.1563,16.375 Q144.8594,16.375 145.5,16.5313 Q146.1563,16.6875 146.7188,16.9844 L146.7188,19.7031 Q146.0938,19.125 145.5,18.8594 Q144.9063,18.5781 144.2813,18.5781 Q142.9375,18.5781 142.25,19.6563 Q141.5625,20.7188 141.5625,22.8125 Q141.5625,24.9063 142.25,25.9844 Q142.9375,27.0469 144.2813,27.0469 Q144.9063,27.0469 145.5,26.7813 Q146.0938,26.5 146.7188,25.9219 L146.7188,28.6406 Z " fill="#000000"/><text fill="#000000" font-family="sans-serif" font-size="14" lengthAdjust="spacing" textLength="113" x="164.25" y="27.8467">OrderViewModel</text><line style="stroke:#181818;stroke-width:0.5;" x1="51" x2="358" y1="39" y2="39"/><ellipse cx="61" cy="52.6484" fill="none" rx="3" ry="3" style="stroke:#038048;stroke-width:1.0;"/><text fill="#000000" font-family="sans-serif" font-size="14" lengthAdjust="spacing" textLength="213" x="70" y="55.9951">OrderNumber : int &#171;get&#187; &#171;set&#187;</text><ellipse cx="61" cy="68.9453" fill="none" rx="3" ry="3" style="stroke:#038048;stroke-width:1.0;"/><text fill="#000000" font-family="sans-serif" font-size="14" lengthAdjust="spacing" textLength="282" x="70" y="72.292">OrderDate : DateTimeOffset &#171;get&#187; &#171;set&#187;</text><ellipse cx="61" cy="85.2422" fill="none" rx="3" ry="3" style="stroke:#038048;stroke-width:1.0;"/><text fill="#000000" font-family="sans-serif" font-size="14" lengthAdjust="spacing" textLength="189" x="70" y="88.5889">Total : decimal &#171;get&#187; &#171;set&#187;</text><ellipse cx="61" cy="101.5391" fill="none" rx="3" ry="3" style="stroke:#038048;stroke-width:1.0;"/><text fill="#000000" font-family="sans-serif" font-size="14" lengthAdjust="spacing" textLength="222" x="70" y="104.8857">&#171;readonly&#187; Status : string &#171;get&#187;</text><ellipse cx="61" cy="117.8359" fill="none" rx="3" ry="3" style="stroke:#038048;stroke-width:1.0;"/><text fill="#000000" font-family="sans-serif" font-size="14" lengthAdjust="spacing" textLength="283" x="70" y="121.1826">ShippingAddress : Address? &#171;get&#187; &#171;set&#187;</text><line style="stroke:#181818;stroke-width:0.5;" x1="51" x2="358" y1="128.4844" y2="128.4844"/><ellipse cx="61" cy="142.1328" fill="#84BE84" rx="3" ry="3" style="stroke:#038048;stroke-width:1.0;"/><text fill="#000000" font-family="sans-serif" font-size="14" lengthAdjust="spacing" textLength="123" x="70" y="145.4795">OrderViewModel()</text></g><!--class OrderItemViewModel--><g id="elem_OrderItemViewModel"><rect codeLine="9" fill="#F1F1F1" height="162.0781" id="OrderItemViewModel" rx="2.5" ry="2.5" style="stroke:#181818;stroke-width:0.5;" width="280" x="64.5" y="372"/><ellipse cx="128.75" cy="388" fill="#ADD1B2" rx="11" ry="11" style="stroke:#181818;stroke-width:1.0;"/><path d="M131.7188,393.6406 Q131.1406,393.9375 130.5,394.0781 Q129.8594,394.2344 129.1563,394.2344 Q126.6563,394.2344 125.3281,392.5938 Q124.0156,390.9375 124.0156,387.8125 Q124.0156,384.6875 125.3281,383.0313 Q126.6563,381.375 129.1563,381.375 Q129.8594,381.375 130.5,381.5313 Q131.1563,381.6875 131.7188,381.9844 L131.7188,384.7031 Q131.0938,384.125 130.5,383.8594 Q129.9063,383.5781 129.2813,383.5781 Q127.9375,383.5781 127.25,384.6563 Q126.5625,385.7188 126.5625,387.8125 Q126.5625,389.9063 127.25,390.9844 Q127.9375,392.0469 129.2813,392.0469 Q129.9063,392.0469 130.5,391.7813 Q131.0938,391.5 131.7188,390.9219 L131.7188,393.6406 Z " fill="#000000"/><text fill="#000000" font-family="sans-serif" font-size="14" lengthAdjust="spacing" textLength="143" x="149.25" y="392.8467">OrderItemViewModel</text><line style="stroke:#181818;stroke-width:0.5;" x1="65.5" x2="343.5" y1="404" y2="404"/><ellipse cx="75.5" cy="417.6484" fill="none" rx="3" ry="3" style="stroke:#038048;stroke-width:1.0;"/><text fill="#000000" font-family="sans-serif" font-size="14" lengthAdjust="spacing" textLength="185" x="84.5" y="420.9951">ProductId : int &#171;get&#187; &#171;set&#187;</text><ellipse cx="75.5" cy="433.9453" fill="none" rx="3" ry="3" style="stroke:#038048;stroke-width:1.0;"/><text fill="#000000" font-family="sans-serif" font-size="14" lengthAdjust="spacing" textLength="242" x="84.5" y="437.292">ProductName : string? &#171;get&#187; &#171;set&#187;</text><ellipse cx="75.5" cy="450.2422" fill="none" rx="3" ry="3" style="stroke:#038048;stroke-width:1.0;"/><text fill="#000000" font-family="sans-serif" font-size="14" lengthAdjust="spacing" textLength="216" x="84.5" y="453.5889">UnitPrice : decimal &#171;get&#187; &#171;set&#187;</text><ellipse cx="75.5" cy="466.5391" fill="none" rx="3" ry="3" style="stroke:#038048;stroke-width:1.0;"/><text fill="#000000" font-family="sans-serif" font-size="14" lengthAdjust="spacing" textLength="254" x="84.5" y="469.8857">&#171;readonly&#187; Discount : decimal &#171;get&#187;</text><ellipse cx="75.5" cy="482.8359" fill="none" rx="3" ry="3" style="stroke:#038048;stroke-width:1.0;"/><text fill="#000000" font-family="sans-serif" font-size="14" lengthAdjust="spacing" textLength="154" x="84.5" y="486.1826">Units : int &#171;get&#187; &#171;set&#187;</text><ellipse cx="75.5" cy="499.1328" fill="none" rx="3" ry="3" style="stroke:#038048;stroke-width:1.0;"/><text fill="#000000" font-family="sans-serif" font-size="14" lengthAdjust="spacing" textLength="214" x="84.5" y="502.4795">PictureUrl : string? &#171;get&#187; &#171;set&#187;</text><line style="stroke:#181818;stroke-width:0.5;" x1="65.5" x2="343.5" y1="509.7813" y2="509.7813"/><ellipse cx="75.5" cy="523.4297" fill="#84BE84" rx="3" ry="3" style="stroke:#038048;stroke-width:1.0;"/><text fill="#000000" font-family="sans-serif" font-size="14" lengthAdjust="spacing" textLength="153" x="84.5" y="526.7764">OrderItemViewModel()</text></g><!--class OrderDetailViewModel--><g id="elem_OrderDetailViewModel"><rect codeLine="18" fill="#F1F1F1" height="80.5938" id="OrderDetailViewModel" rx="2.5" ry="2.5" style="stroke:#181818;stroke-width:0.5;" width="395" x="7" y="214"/><ellipse cx="124.25" cy="230" fill="#ADD1B2" rx="11" ry="11" style="stroke:#181818;stroke-width:1.0;"/><path d="M127.2188,235.6406 Q126.6406,235.9375 126,236.0781 Q125.3594,236.2344 124.6563,236.2344 Q122.1563,236.2344 120.8281,234.5938 Q119.5156,232.9375 119.5156,229.8125 Q119.5156,226.6875 120.8281,225.0313 Q122.1563,223.375 124.6563,223.375 Q125.3594,223.375 126,223.5313 Q126.6563,223.6875 127.2188,223.9844 L127.2188,226.7031 Q126.5938,226.125 126,225.8594 Q125.4063,225.5781 124.7813,225.5781 Q123.4375,225.5781 122.75,226.6563 Q122.0625,227.7188 122.0625,229.8125 Q122.0625,231.9063 122.75,232.9844 Q123.4375,234.0469 124.7813,234.0469 Q125.4063,234.0469 126,233.7813 Q126.5938,233.5 127.2188,232.9219 L127.2188,235.6406 Z " fill="#000000"/><text fill="#000000" font-family="sans-serif" font-size="14" lengthAdjust="spacing" textLength="152" x="144.75" y="234.8467">OrderDetailViewModel</text><line style="stroke:#181818;stroke-width:0.5;" x1="8" x2="401" y1="246" y2="246"/><ellipse cx="18" cy="259.6484" fill="none" rx="3" ry="3" style="stroke:#038048;stroke-width:1.0;"/><text fill="#000000" font-family="sans-serif" font-size="14" lengthAdjust="spacing" textLength="369" x="27" y="262.9951">OrderItems : List&lt;OrderItemViewModel&gt; &#171;get&#187; &#171;set&#187;</text><line style="stroke:#181818;stroke-width:0.5;" x1="8" x2="401" y1="270.2969" y2="270.2969"/><ellipse cx="18" cy="283.9453" fill="#84BE84" rx="3" ry="3" style="stroke:#038048;stroke-width:1.0;"/><text fill="#000000" font-family="sans-serif" font-size="14" lengthAdjust="spacing" textLength="162" x="27" y="287.292">OrderDetailViewModel()</text></g><!--reverse link OrderViewModel to OrderDetailViewModel--><g id="link_OrderViewModel_OrderDetailViewModel"><path codeLine="22" d="M204.5,173.7 C204.5,187.73 204.5,201.53 204.5,213.6 " fill="none" id="OrderViewModel-backto-OrderDetailViewModel" style="stroke:#181818;stroke-width:1.0;"/><polygon fill="none" points="197.5,174.16,204.5,154.16,211.5,174.16,197.5,174.16" style="stroke:#181818;stroke-width:1.0;"/></g><!--reverse link OrderDetailViewModel to OrderItemViewModel--><g id="link_OrderDetailViewModel_OrderItemViewModel"><path codeLine="23" d="M204.5,309.07 C204.5,328.38 204.5,350.61 204.5,371.7 " fill="none" id="OrderDetailViewModel-backto-OrderItemViewModel" style="stroke:#181818;stroke-width:1.0;"/><polygon fill="#181818" points="204.5,296.26,200.5,302.26,204.5,308.26,208.5,302.26,204.5,296.26" style="stroke:#181818;stroke-width:1.0;"/><text fill="#000000" font-family="sans-serif" font-size="13" lengthAdjust="spacing" textLength="72" x="205.5" y="338.0669">OrderItems</text><text fill="#000000" font-family="sans-serif" font-size="13" lengthAdjust="spacing" textLength="7" x="197.1883" y="360.8606">*</text></g><!--SRC=[bP91JiCm44NtEONL5HJr0fKLX9HD9MWhjMLlx6axaXDNzbW80NTd3A64nWaYcx7izyVVFwEj2a6il07_YF3yu0nO8LuBmT_Dr_uora_WnLnWGqBA0r1PSWsfThbA4J2LoXPhMEttZ0m8jewKPTY0nffNUKfA3ygunhxmqOOKnS2QG1wRmxUaHJT7F9ru-yuO3o5XxUfspFBvoLVNnNkXVx9O4DIPFDRUcQXfOKRJQAcbgk5iTyZ6ha5QUzJmlp0g3Df5Tj1JTVg6SPUeANhOUVkdoNuabtbLG0hjq0GbQJ9pZu5alravEbM_EtzUV36kycqsoy95rjkKwSbqallHyuxV3m00]--></g></svg>