<?xml version="1.0" encoding="us-ascii" standalone="no"?><svg xmlns="http://www.w3.org/2000/svg" xmlns:xlink="http://www.w3.org/1999/xlink" contentStyleType="text/css" height="202px" preserveAspectRatio="none" style="width:151px;height:202px;background:#FFFFFF;" version="1.1" viewBox="0 0 151 202" width="151px" zoomAndPan="magnify"><defs/><g><!--class SuccessModel--><g id="elem_SuccessModel"><rect codeLine="1" fill="#F1F1F1" height="80.5938" id="SuccessModel" rx="2.5" ry="2.5" style="stroke:#181818;stroke-width:0.5;" width="137" x="7" y="115"/><ellipse cx="23.8" cy="131" fill="#ADD1B2" rx="11" ry="11" style="stroke:#181818;stroke-width:1.0;"/><path d="M26.7688,136.6406 Q26.1906,136.9375 25.55,137.0781 Q24.9094,137.2344 24.2063,137.2344 Q21.7063,137.2344 20.3781,135.5938 Q19.0656,133.9375 19.0656,130.8125 Q19.0656,127.6875 20.3781,126.0313 Q21.7063,124.375 24.2063,124.375 Q24.9094,124.375 25.55,124.5313 Q26.2063,124.6875 26.7688,124.9844 L26.7688,127.7031 Q26.1438,127.125 25.55,126.8594 Q24.9563,126.5781 24.3313,126.5781 Q22.9875,126.5781 22.3,127.6563 Q21.6125,128.7188 21.6125,130.8125 Q21.6125,132.9063 22.3,133.9844 Q22.9875,135.0469 24.3313,135.0469 Q24.9563,135.0469 25.55,134.7813 Q26.1438,134.5 26.7688,133.9219 L26.7688,136.6406 Z " fill="#000000"/><text fill="#000000" font-family="sans-serif" font-size="14" lengthAdjust="spacing" textLength="101" x="38.2" y="135.8467">SuccessModel</text><line style="stroke:#181818;stroke-width:0.5;" x1="8" x2="143" y1="147" y2="147"/><line style="stroke:#181818;stroke-width:0.5;" x1="8" x2="143" y1="155" y2="155"/><ellipse cx="18" cy="168.6484" fill="#84BE84" rx="3" ry="3" style="stroke:#038048;stroke-width:1.0;"/><text fill="#000000" font-family="sans-serif" font-size="14" lengthAdjust="spacing" textLength="96" x="27" y="171.9951">OnGet() : void</text><ellipse cx="18" cy="184.9453" fill="#84BE84" rx="3" ry="3" style="stroke:#038048;stroke-width:1.0;"/><text fill="#000000" font-family="sans-serif" font-size="14" lengthAdjust="spacing" textLength="111" x="27" y="188.292">SuccessModel()</text></g><!--class PageModel--><g id="elem_PageModel"><rect fill="#F1F1F1" height="48" id="PageModel" rx="2.5" ry="2.5" style="stroke:#181818;stroke-width:0.5;" width="109" x="21" y="7"/><ellipse cx="36" cy="23" fill="#ADD1B2" rx="11" ry="11" style="stroke:#181818;stroke-width:1.0;"/><path d="M38.9688,28.6406 Q38.3906,28.9375 37.75,29.0781 Q37.1094,29.2344 36.4063,29.2344 Q33.9063,29.2344 32.5781,27.5938 Q31.2656,25.9375 31.2656,22.8125 Q31.2656,19.6875 32.5781,18.0313 Q33.9063,16.375 36.4063,16.375 Q37.1094,16.375 37.75,16.5313 Q38.4063,16.6875 38.9688,16.9844 L38.9688,19.7031 Q38.3438,19.125 37.75,18.8594 Q37.1563,18.5781 36.5313,18.5781 Q35.1875,18.5781 34.5,19.6563 Q33.8125,20.7188 33.8125,22.8125 Q33.8125,24.9063 34.5,25.9844 Q35.1875,27.0469 36.5313,27.0469 Q37.1563,27.0469 37.75,26.7813 Q38.3438,26.5 38.9688,25.9219 L38.9688,28.6406 Z " fill="#000000"/><text fill="#000000" font-family="sans-serif" font-size="14" lengthAdjust="spacing" textLength="77" x="50" y="27.8467">PageModel</text><line style="stroke:#181818;stroke-width:0.5;" x1="22" x2="129" y1="39" y2="39"/><line style="stroke:#181818;stroke-width:0.5;" x1="22" x2="129" y1="47" y2="47"/></g><!--reverse link PageModel to SuccessModel--><g id="link_PageModel_SuccessModel"><path codeLine="5" d="M75.5,75.89 C75.5,88.61 75.5,102.42 75.5,114.87 " fill="none" id="PageModel-backto-SuccessModel" style="stroke:#181818;stroke-width:1.0;"/><polygon fill="none" points="68.5,76.33,75.5,56.33,82.5,76.33,68.5,76.33" style="stroke:#181818;stroke-width:1.0;"/></g><!--SRC=[Iyv9B2vM22vDJaujBlRDJqdDKL2evb800cq5_pptr18DJGKhXRByp1Ie8B9I3KskMgw0nFHKY4QR6brT57a0]--></g></svg>