<?xml version="1.0" encoding="us-ascii" standalone="no"?><svg xmlns="http://www.w3.org/2000/svg" xmlns:xlink="http://www.w3.org/1999/xlink" contentStyleType="text/css" height="475px" preserveAspectRatio="none" style="width:914px;height:475px;background:#FFFFFF;" version="1.1" viewBox="0 0 914 475" width="914px" zoomAndPan="magnify"><defs/><g><!--class LoginModel::InputModel--><g id="elem_LoginModel::InputModel"><rect codeLine="1" fill="#F1F1F1" height="113.1875" id="LoginModel::InputModel" rx="2.5" ry="2.5" style="stroke:#181818;stroke-width:0.5;" width="256" x="329" y="355"/><ellipse cx="370.1" cy="371" fill="#ADD1B2" rx="11" ry="11" style="stroke:#181818;stroke-width:1.0;"/><path d="M373.0688,376.6406 Q372.4906,376.9375 371.85,377.0781 Q371.2094,377.2344 370.5063,377.2344 Q368.0063,377.2344 366.6781,375.5938 Q365.3656,373.9375 365.3656,370.8125 Q365.3656,367.6875 366.6781,366.0313 Q368.0063,364.375 370.5063,364.375 Q371.2094,364.375 371.85,364.5313 Q372.5063,364.6875 373.0688,364.9844 L373.0688,367.7031 Q372.4438,367.125 371.85,366.8594 Q371.2563,366.5781 370.6313,366.5781 Q369.2875,366.5781 368.6,367.6563 Q367.9125,368.7188 367.9125,370.8125 Q367.9125,372.9063 368.6,373.9844 Q369.2875,375.0469 370.6313,375.0469 Q371.2563,375.0469 371.85,374.7813 Q372.4438,374.5 373.0688,373.9219 L373.0688,376.6406 Z " fill="#000000"/><text fill="#000000" font-family="sans-serif" font-size="14" lengthAdjust="spacing" textLength="166" x="389.9" y="375.8467">LoginModel::InputModel</text><line style="stroke:#181818;stroke-width:0.5;" x1="330" x2="584" y1="387" y2="387"/><ellipse cx="340" cy="400.6484" fill="none" rx="3" ry="3" style="stroke:#038048;stroke-width:1.0;"/><text fill="#000000" font-family="sans-serif" font-size="14" lengthAdjust="spacing" textLength="184" x="349" y="403.9951">Email : string? &#171;get&#187; &#171;set&#187;</text><ellipse cx="340" cy="416.9453" fill="none" rx="3" ry="3" style="stroke:#038048;stroke-width:1.0;"/><text fill="#000000" font-family="sans-serif" font-size="14" lengthAdjust="spacing" textLength="215" x="349" y="420.292">Password : string? &#171;get&#187; &#171;set&#187;</text><ellipse cx="340" cy="433.2422" fill="none" rx="3" ry="3" style="stroke:#038048;stroke-width:1.0;"/><text fill="#000000" font-family="sans-serif" font-size="14" lengthAdjust="spacing" textLength="230" x="349" y="436.5889">RememberMe : bool &#171;get&#187; &#171;set&#187;</text><line style="stroke:#181818;stroke-width:0.5;" x1="330" x2="584" y1="443.8906" y2="443.8906"/><ellipse cx="340" cy="457.5391" fill="#84BE84" rx="3" ry="3" style="stroke:#038048;stroke-width:1.0;"/><text fill="#000000" font-family="sans-serif" font-size="14" lengthAdjust="spacing" textLength="87" x="349" y="460.8857">InputModel()</text></g><!--class LoginModel--><g id="elem_LoginModel"><rect codeLine="7" fill="#F1F1F1" height="162.0781" id="LoginModel" rx="2.5" ry="2.5" style="stroke:#181818;stroke-width:0.5;" width="900" x="7" y="116"/><ellipse cx="413.25" cy="132" fill="#ADD1B2" rx="11" ry="11" style="stroke:#181818;stroke-width:1.0;"/><path d="M416.2188,137.6406 Q415.6406,137.9375 415,138.0781 Q414.3594,138.2344 413.6563,138.2344 Q411.1563,138.2344 409.8281,136.5938 Q408.5156,134.9375 408.5156,131.8125 Q408.5156,128.6875 409.8281,127.0313 Q411.1563,125.375 413.6563,125.375 Q414.3594,125.375 415,125.5313 Q415.6563,125.6875 416.2188,125.9844 L416.2188,128.7031 Q415.5938,128.125 415,127.8594 Q414.4063,127.5781 413.7813,127.5781 Q412.4375,127.5781 411.75,128.6563 Q411.0625,129.7188 411.0625,131.8125 Q411.0625,133.9063 411.75,134.9844 Q412.4375,136.0469 413.7813,136.0469 Q414.4063,136.0469 415,135.7813 Q415.5938,135.5 416.2188,134.9219 L416.2188,137.6406 Z " fill="#000000"/><text fill="#000000" font-family="sans-serif" font-size="14" lengthAdjust="spacing" textLength="79" x="433.75" y="136.8467">LoginModel</text><line style="stroke:#181818;stroke-width:0.5;" x1="8" x2="906" y1="148" y2="148"/><ellipse cx="18" cy="161.6484" fill="none" rx="3" ry="3" style="stroke:#038048;stroke-width:1.0;"/><text fill="#000000" font-family="sans-serif" font-size="14" lengthAdjust="spacing" textLength="294" x="27" y="164.9951">&#171;required&#187; Input : InputModel &#171;get&#187; &#171;set&#187;</text><ellipse cx="18" cy="177.9453" fill="none" rx="3" ry="3" style="stroke:#038048;stroke-width:1.0;"/><text fill="#000000" font-family="sans-serif" font-size="14" lengthAdjust="spacing" textLength="416" x="27" y="181.292">ExternalLogins : IList&lt;AuthenticationScheme&gt;? &#171;get&#187; &#171;set&#187;</text><ellipse cx="18" cy="194.2422" fill="none" rx="3" ry="3" style="stroke:#038048;stroke-width:1.0;"/><text fill="#000000" font-family="sans-serif" font-size="14" lengthAdjust="spacing" textLength="213" x="27" y="197.5889">ReturnUrl : string? &#171;get&#187; &#171;set&#187;</text><ellipse cx="18" cy="210.5391" fill="none" rx="3" ry="3" style="stroke:#038048;stroke-width:1.0;"/><text fill="#000000" font-family="sans-serif" font-size="14" lengthAdjust="spacing" textLength="244" x="27" y="213.8857">ErrorMessage : string? &#171;get&#187; &#171;set&#187;</text><line style="stroke:#181818;stroke-width:0.5;" x1="8" x2="906" y1="221.1875" y2="221.1875"/><ellipse cx="18" cy="234.8359" fill="#84BE84" rx="3" ry="3" style="stroke:#038048;stroke-width:1.0;"/><text fill="#000000" font-family="sans-serif" font-size="14" lengthAdjust="spacing" textLength="874" x="27" y="238.1826">LoginModel(signInManager : SignInManager&lt;ApplicationUser&gt;, logger : ILogger&lt;LoginModel&gt;, basketService : IBasketService)</text><ellipse cx="18" cy="251.1328" fill="#84BE84" rx="3" ry="3" style="stroke:#038048;stroke-width:1.0;"/><text fill="#000000" font-family="sans-serif" font-size="14" lengthAdjust="spacing" textLength="323" x="27" y="254.4795">&#171;async&#187; OnGetAsync(returnUrl : string?) : Task</text><ellipse cx="18" cy="267.4297" fill="#84BE84" rx="3" ry="3" style="stroke:#038048;stroke-width:1.0;"/><text fill="#000000" font-family="sans-serif" font-size="14" lengthAdjust="spacing" textLength="443" x="27" y="270.7764">&#171;async&#187; OnPostAsync(returnUrl : string?) : Task&lt;IActionResult&gt;</text></g><!--class PageModel--><g id="elem_PageModel"><rect fill="#F1F1F1" height="48" id="PageModel" rx="2.5" ry="2.5" style="stroke:#181818;stroke-width:0.5;" width="109" x="402.5" y="7"/><ellipse cx="417.5" cy="23" fill="#ADD1B2" rx="11" ry="11" style="stroke:#181818;stroke-width:1.0;"/><path d="M420.4688,28.6406 Q419.8906,28.9375 419.25,29.0781 Q418.6094,29.2344 417.9063,29.2344 Q415.4063,29.2344 414.0781,27.5938 Q412.7656,25.9375 412.7656,22.8125 Q412.7656,19.6875 414.0781,18.0313 Q415.4063,16.375 417.9063,16.375 Q418.6094,16.375 419.25,16.5313 Q419.9063,16.6875 420.4688,16.9844 L420.4688,19.7031 Q419.8438,19.125 419.25,18.8594 Q418.6563,18.5781 418.0313,18.5781 Q416.6875,18.5781 416,19.6563 Q415.3125,20.7188 415.3125,22.8125 Q415.3125,24.9063 416,25.9844 Q416.6875,27.0469 418.0313,27.0469 Q418.6563,27.0469 419.25,26.7813 Q419.8438,26.5 420.4688,25.9219 L420.4688,28.6406 Z " fill="#000000"/><text fill="#000000" font-family="sans-serif" font-size="14" lengthAdjust="spacing" textLength="77" x="431.5" y="27.8467">PageModel</text><line style="stroke:#181818;stroke-width:0.5;" x1="403.5" x2="510.5" y1="39" y2="39"/><line style="stroke:#181818;stroke-width:0.5;" x1="403.5" x2="510.5" y1="47" y2="47"/></g><!--reverse link PageModel to LoginModel--><g id="link_PageModel_LoginModel"><path codeLine="16" d="M457,76.29 C457,88.54 457,102.23 457,115.86 " fill="none" id="PageModel-backto-LoginModel" style="stroke:#181818;stroke-width:1.0;"/><polygon fill="none" points="450,76.5,457,56.5,464,76.5,450,76.5" style="stroke:#181818;stroke-width:1.0;"/></g><!--reverse link LoginModel to LoginModel::InputModel--><g id="link_LoginModel_LoginModel::InputModel"><path codeLine="17" d="M425.15,291.79 C424.03,302.94 424.1,314.19 426,325 C427.72,334.8 430.47,344.95 433.64,354.69 " fill="none" id="LoginModel-backto-LoginModel::InputModel" style="stroke:#181818;stroke-width:1.0;"/><polygon fill="none" points="427.08,279.29,422.27,284.6625,425.3793,291.1689,430.1892,285.7963,427.08,279.29" style="stroke:#181818;stroke-width:1.0;"/><text fill="#000000" font-family="sans-serif" font-size="13" lengthAdjust="spacing" textLength="32" x="427" y="321.0669">Input</text></g><!--reverse link LoginModel to LoginModel::InputModel--><g id="link_LoginModel_LoginModel::InputModel"><path codeLine="18" d="M464.25,294.04 C464.45,304.48 464.41,314.96 464,325 C463.6,334.67 462.96,344.95 462.22,354.89 " fill="none" id="LoginModel-backto-LoginModel::InputModel-1" style="stroke:#181818;stroke-width:1.0;stroke-dasharray:7.0,7.0;"/><ellipse cx="464.0115" cy="287.256" fill="#FFFFFF" rx="8" ry="8" style="stroke:#181818;stroke-width:1.0;"/><line style="stroke:#181818;stroke-width:1.0;" x1="464.2631" x2="463.76" y1="295.2521" y2="279.26"/><line style="stroke:#181818;stroke-width:1.0;" x1="456.0155" x2="472.0076" y1="287.5076" y2="287.0045"/></g><!--SRC=[XLBRRi8m37tlL-IHYi47eAXJ9o5K2JG4umD2QeLe8M5skeks_VlShbBBHjMysB5FxEFZQAU8n3eOwpUX1BTO5FvInSONuZCHVAPYULRMYOMWYDQRUo6bWPXbRAcsBMhBfTu2bgF07PpXV0JS04EF8RW1N4TbaYRVYVx3jUFNnIPaZI_yHdbb0Bdyld-N-UNYh5RH1dyWmEnEk61-WSMwyMHNYxD7HSyGzu2lLjTaYuT-86tRIudmKbc4aaTeIDVGJiVRqotV8w1Nhcb83GDBKUPLF86FBSkzFh5OsR2IiK9_mF7bB1432qx4Eeo2fLJquJN77_qAObvV9lY_Lyhk4ojouzasqFWxMUIwdd87LBcOyOwtJAyLxMiswoqswUqzN6MklcohUnyzdSy7q3y0]--></g></svg>