<?xml version="1.0" encoding="us-ascii" standalone="no"?><svg xmlns="http://www.w3.org/2000/svg" xmlns:xlink="http://www.w3.org/1999/xlink" contentStyleType="text/css" height="126px" preserveAspectRatio="none" style="width:369px;height:126px;background:#FFFFFF;" version="1.1" viewBox="0 0 369 126" width="369px" zoomAndPan="magnify"><defs/><g><!--class RefreshBroadcast--><g id="elem_RefreshBroadcast"><rect codeLine="1" fill="#F1F1F1" height="105.1563" id="RefreshBroadcast" rx="2.5" ry="2.5" style="stroke:#181818;stroke-width:0.5;" width="348" x="7" y="7"/><ellipse cx="114.75" cy="27.1328" fill="#ADD1B2" rx="11" ry="11" style="stroke:#181818;stroke-width:1.0;"/><path d="M117.7188,32.7734 Q117.1406,33.0703 116.5,33.2109 Q115.8594,33.3672 115.1563,33.3672 Q112.6563,33.3672 111.3281,31.7266 Q110.0156,30.0703 110.0156,26.9453 Q110.0156,23.8203 111.3281,22.1641 Q112.6563,20.5078 115.1563,20.5078 Q115.8594,20.5078 116.5,20.6641 Q117.1563,20.8203 117.7188,21.1172 L117.7188,23.8359 Q117.0938,23.2578 116.5,22.9922 Q115.9063,22.7109 115.2813,22.7109 Q113.9375,22.7109 113.25,23.7891 Q112.5625,24.8516 112.5625,26.9453 Q112.5625,29.0391 113.25,30.1172 Q113.9375,31.1797 115.2813,31.1797 Q115.9063,31.1797 116.5,30.9141 Q117.0938,30.6328 117.7188,30.0547 L117.7188,32.7734 Z " fill="#000000"/><text fill="#000000" font-family="sans-serif" font-size="12" font-style="italic" lengthAdjust="spacing" textLength="56" x="169.25" y="23.1387">&#171;sealed&#187;</text><text fill="#000000" font-family="sans-serif" font-size="14" lengthAdjust="spacing" textLength="124" x="135.25" y="38.9639">RefreshBroadcast</text><line style="stroke:#181818;stroke-width:0.5;" x1="8" x2="354" y1="47.2656" y2="47.2656"/><ellipse cx="18" cy="60.9141" fill="none" rx="3" ry="3" style="stroke:#038048;stroke-width:1.0;"/><text fill="#000000" font-family="sans-serif" font-size="14" lengthAdjust="spacing" text-decoration="underline" textLength="322" x="27" y="64.2607">&#171;readonly&#187; Instance : RefreshBroadcast &#171;get&#187;</text><ellipse cx="18" cy="77.2109" fill="none" rx="3" ry="3" style="stroke:#038048;stroke-width:1.0;"/><text fill="#000000" font-family="sans-serif" font-size="14" lengthAdjust="spacing" textLength="248" x="27" y="80.5576">&#171;event&#187; RefreshRequested : Action</text><line style="stroke:#181818;stroke-width:0.5;" x1="8" x2="354" y1="87.8594" y2="87.8594"/><ellipse cx="18" cy="101.5078" fill="#84BE84" rx="3" ry="3" style="stroke:#038048;stroke-width:1.0;"/><text fill="#000000" font-family="sans-serif" font-size="14" lengthAdjust="spacing" textLength="188" x="27" y="104.8545">CallRequestRefresh() : void</text></g><!--SRC=[ROn12W8n34NtSuei5MyWfQ2ktCuDGlFLGccnYGCopDqdYxhpxvBt_a-5LMd6eqDVrzvO4gjH20eka1Y9reay9rhLs7BQ77Qmj5g-Zk_LtpM1plzMdh0OHpy4BAX-_yGPxm_K8Dwz9Ckj3lF6fGmurCFHdQLbcROT]--></g></svg>