<?xml version="1.0" encoding="us-ascii" standalone="no"?><svg xmlns="http://www.w3.org/2000/svg" xmlns:xlink="http://www.w3.org/1999/xlink" contentStyleType="text/css" height="235px" preserveAspectRatio="none" style="width:1368px;height:235px;background:#FFFFFF;" version="1.1" viewBox="0 0 1368 235" width="1368px" zoomAndPan="magnify"><defs/><g><!--class AppIdentityDbContext--><g id="elem_AppIdentityDbContext"><rect codeLine="1" fill="#F1F1F1" height="80.5938" id="AppIdentityDbContext" rx="2.5" ry="2.5" style="stroke:#181818;stroke-width:0.5;" width="555" x="162.5" y="148"/><ellipse cx="360.25" cy="164" fill="#ADD1B2" rx="11" ry="11" style="stroke:#181818;stroke-width:1.0;"/><path d="M363.2188,169.6406 Q362.6406,169.9375 362,170.0781 Q361.3594,170.2344 360.6563,170.2344 Q358.1563,170.2344 356.8281,168.5938 Q355.5156,166.9375 355.5156,163.8125 Q355.5156,160.6875 356.8281,159.0313 Q358.1563,157.375 360.6563,157.375 Q361.3594,157.375 362,157.5313 Q362.6563,157.6875 363.2188,157.9844 L363.2188,160.7031 Q362.5938,160.125 362,159.8594 Q361.4063,159.5781 360.7813,159.5781 Q359.4375,159.5781 358.75,160.6563 Q358.0625,161.7188 358.0625,163.8125 Q358.0625,165.9063 358.75,166.9844 Q359.4375,168.0469 360.7813,168.0469 Q361.4063,168.0469 362,167.7813 Q362.5938,167.5 363.2188,166.9219 L363.2188,169.6406 Z " fill="#000000"/><text fill="#000000" font-family="sans-serif" font-size="14" lengthAdjust="spacing" textLength="151" x="380.75" y="168.8467">AppIdentityDbContext</text><line style="stroke:#181818;stroke-width:0.5;" x1="163.5" x2="716.5" y1="180" y2="180"/><line style="stroke:#181818;stroke-width:0.5;" x1="163.5" x2="716.5" y1="188" y2="188"/><ellipse cx="173.5" cy="201.6484" fill="#84BE84" rx="3" ry="3" style="stroke:#038048;stroke-width:1.0;"/><text fill="#000000" font-family="sans-serif" font-size="14" lengthAdjust="spacing" textLength="529" x="182.5" y="204.9951">AppIdentityDbContext(options : DbContextOptions&lt;AppIdentityDbContext&gt;)</text><polygon fill="#FFFF44" points="173.5,212.9453,177.5,216.9453,173.5,220.9453,169.5,216.9453" style="stroke:#B38D22;stroke-width:1.0;"/><text fill="#000000" font-family="sans-serif" font-size="14" lengthAdjust="spacing" textLength="399" x="182.5" y="221.292">&#171;override&#187; OnModelCreating(builder : ModelBuilder) : void</text></g><!--class IdentityDbContext`1--><g id="elem_IdentityDbContext`1"><rect fill="#F1F1F1" height="48" id="IdentityDbContext`1" rx="2.5" ry="2.5" style="stroke:#181818;stroke-width:0.5;" width="172" x="7" y="23.5"/><ellipse cx="22" cy="39.5" fill="#ADD1B2" rx="11" ry="11" style="stroke:#181818;stroke-width:1.0;"/><path d="M24.9688,45.1406 Q24.3906,45.4375 23.75,45.5781 Q23.1094,45.7344 22.4063,45.7344 Q19.9063,45.7344 18.5781,44.0938 Q17.2656,42.4375 17.2656,39.3125 Q17.2656,36.1875 18.5781,34.5313 Q19.9063,32.875 22.4063,32.875 Q23.1094,32.875 23.75,33.0313 Q24.4063,33.1875 24.9688,33.4844 L24.9688,36.2031 Q24.3438,35.625 23.75,35.3594 Q23.1563,35.0781 22.5313,35.0781 Q21.1875,35.0781 20.5,36.1563 Q19.8125,37.2188 19.8125,39.3125 Q19.8125,41.4063 20.5,42.4844 Q21.1875,43.5469 22.5313,43.5469 Q23.1563,43.5469 23.75,43.2813 Q24.3438,43 24.9688,42.4219 L24.9688,45.1406 Z " fill="#000000"/><text fill="#000000" font-family="sans-serif" font-size="14" lengthAdjust="spacing" textLength="140" x="36" y="44.3467">IdentityDbContext`1</text><line style="stroke:#181818;stroke-width:0.5;" x1="8" x2="178" y1="55.5" y2="55.5"/><line style="stroke:#181818;stroke-width:0.5;" x1="8" x2="178" y1="63.5" y2="63.5"/></g><!--class AppIdentityDbContextSeed--><g id="elem_AppIdentityDbContextSeed"><rect codeLine="6" fill="#F1F1F1" height="80.5938" id="AppIdentityDbContextSeed" rx="2.5" ry="2.5" style="stroke:#181818;stroke-width:0.5;" width="1147" x="214.5" y="7"/><ellipse cx="690.25" cy="23" fill="#ADD1B2" rx="11" ry="11" style="stroke:#181818;stroke-width:1.0;"/><path d="M693.2188,28.6406 Q692.6406,28.9375 692,29.0781 Q691.3594,29.2344 690.6563,29.2344 Q688.1563,29.2344 686.8281,27.5938 Q685.5156,25.9375 685.5156,22.8125 Q685.5156,19.6875 686.8281,18.0313 Q688.1563,16.375 690.6563,16.375 Q691.3594,16.375 692,16.5313 Q692.6563,16.6875 693.2188,16.9844 L693.2188,19.7031 Q692.5938,19.125 692,18.8594 Q691.4063,18.5781 690.7813,18.5781 Q689.4375,18.5781 688.75,19.6563 Q688.0625,20.7188 688.0625,22.8125 Q688.0625,24.9063 688.75,25.9844 Q689.4375,27.0469 690.7813,27.0469 Q691.4063,27.0469 692,26.7813 Q692.5938,26.5 693.2188,25.9219 L693.2188,28.6406 Z " fill="#000000"/><text fill="#000000" font-family="sans-serif" font-size="14" lengthAdjust="spacing" textLength="187" x="710.75" y="27.8467">AppIdentityDbContextSeed</text><line style="stroke:#181818;stroke-width:0.5;" x1="215.5" x2="1360.5" y1="39" y2="39"/><line style="stroke:#181818;stroke-width:0.5;" x1="215.5" x2="1360.5" y1="47" y2="47"/><ellipse cx="225.5" cy="60.6484" fill="#84BE84" rx="3" ry="3" style="stroke:#038048;stroke-width:1.0;"/><text fill="#000000" font-family="sans-serif" font-size="14" lengthAdjust="spacing" text-decoration="underline" textLength="1121" x="234.5" y="63.9951">&#171;async&#187; SeedAsync(identityDbContext : AppIdentityDbContext, userManager : UserManager&lt;ApplicationUser&gt;, roleManager : RoleManager&lt;IdentityRole&gt;) : Task</text><ellipse cx="225.5" cy="76.9453" fill="#84BE84" rx="3" ry="3" style="stroke:#038048;stroke-width:1.0;"/><text fill="#000000" font-family="sans-serif" font-size="14" lengthAdjust="spacing" textLength="197" x="234.5" y="80.292">AppIdentityDbContextSeed()</text></g><!--reverse link IdentityDbContext`1 to AppIdentityDbContext--><g id="link_IdentityDbContext`1_AppIdentityDbContext"><path codeLine="5" d="M170.89,79.7 C221,99.77 286.58,126.04 340.45,147.62 " fill="none" id="IdentityDbContext`1-backto-AppIdentityDbContext" style="stroke:#181818;stroke-width:1.0;"/><polygon fill="none" points="168.43,85.86,152.47,71.92,173.64,72.86,168.43,85.86" style="stroke:#181818;stroke-width:1.0;"/><text fill="#000000" font-family="sans-serif" font-size="13" lengthAdjust="spacing" textLength="122" x="28.8849" y="91.3838">&lt;ApplicationUser&gt;</text></g><!--link AppIdentityDbContextSeed to AppIdentityDbContext--><g id="link_AppIdentityDbContextSeed_AppIdentityDbContext"><path codeLine="10" d="M688.28,88.33 C643.6,106.18 590.87,127.24 545.53,145.35 " fill="none" id="AppIdentityDbContextSeed-to-AppIdentityDbContext" style="stroke:#181818;stroke-width:1.0;stroke-dasharray:7.0,7.0;"/><polygon fill="#181818" points="541.04,147.54,550.8819,147.9114,545.6824,145.683,547.9107,140.4836,541.04,147.54" style="stroke:#181818;stroke-width:1.0;"/></g><!--SRC=[VL7B2i8m4BptAvPwQV41NYK4V5myYE3ZRaoM4Wn9IQ8ewh-RLBI7HdFAp6vcPpPSCUTWMjTBWTfBVriSvqPxl7g0UmRXz9FLmjHU6krW0bzk_QP8gf-MZLWF234Nj5OAf1JMUcK4ghb5vgMkYkDPAe4sY3Ryx0tBW2z6YkoPvHtXmpY7F8vKahCuV-_GqXp8OpXCEi_upyXRHD76lZiV1FapM6Rkfddm6nkcyLx8phecISa1d8EV5TEiQdBjMzGnFG1h5BQzcnQHZt3aQ5p8ZhdJd_-9JeioREndpj689b- -0000]--></g></svg>