<?xml version="1.0" encoding="us-ascii" standalone="no"?><svg xmlns="http://www.w3.org/2000/svg" xmlns:xlink="http://www.w3.org/1999/xlink" contentStyleType="text/css" height="202px" preserveAspectRatio="none" style="width:527px;height:202px;background:#FFFFFF;" version="1.1" viewBox="0 0 527 202" width="527px" zoomAndPan="magnify"><defs/><g><!--class CustomSchemaFilters--><g id="elem_CustomSchemaFilters"><rect codeLine="1" fill="#F1F1F1" height="80.5938" id="CustomSchemaFilters" rx="2.5" ry="2.5" style="stroke:#181818;stroke-width:0.5;" width="513" x="7" y="115"/><ellipse cx="183.75" cy="131" fill="#ADD1B2" rx="11" ry="11" style="stroke:#181818;stroke-width:1.0;"/><path d="M186.7188,136.6406 Q186.1406,136.9375 185.5,137.0781 Q184.8594,137.2344 184.1563,137.2344 Q181.6563,137.2344 180.3281,135.5938 Q179.0156,133.9375 179.0156,130.8125 Q179.0156,127.6875 180.3281,126.0313 Q181.6563,124.375 184.1563,124.375 Q184.8594,124.375 185.5,124.5313 Q186.1563,124.6875 186.7188,124.9844 L186.7188,127.7031 Q186.0938,127.125 185.5,126.8594 Q184.9063,126.5781 184.2813,126.5781 Q182.9375,126.5781 182.25,127.6563 Q181.5625,128.7188 181.5625,130.8125 Q181.5625,132.9063 182.25,133.9844 Q182.9375,135.0469 184.2813,135.0469 Q184.9063,135.0469 185.5,134.7813 Q186.0938,134.5 186.7188,133.9219 L186.7188,136.6406 Z " fill="#000000"/><text fill="#000000" font-family="sans-serif" font-size="14" lengthAdjust="spacing" textLength="151" x="204.25" y="135.8467">CustomSchemaFilters</text><line style="stroke:#181818;stroke-width:0.5;" x1="8" x2="519" y1="147" y2="147"/><line style="stroke:#181818;stroke-width:0.5;" x1="8" x2="519" y1="155" y2="155"/><ellipse cx="18" cy="168.6484" fill="#84BE84" rx="3" ry="3" style="stroke:#038048;stroke-width:1.0;"/><text fill="#000000" font-family="sans-serif" font-size="14" lengthAdjust="spacing" textLength="487" x="27" y="171.9951">Apply(schema : OpenApiSchema, context : SchemaFilterContext) : void</text><ellipse cx="18" cy="184.9453" fill="#84BE84" rx="3" ry="3" style="stroke:#038048;stroke-width:1.0;"/><text fill="#000000" font-family="sans-serif" font-size="14" lengthAdjust="spacing" textLength="161" x="27" y="188.292">CustomSchemaFilters()</text></g><!--class ISchemaFilter--><g id="elem_ISchemaFilter"><rect fill="#F1F1F1" height="48" id="ISchemaFilter" rx="2.5" ry="2.5" style="stroke:#181818;stroke-width:0.5;" width="124" x="201.5" y="7"/><ellipse cx="216.5" cy="23" fill="#ADD1B2" rx="11" ry="11" style="stroke:#181818;stroke-width:1.0;"/><path d="M219.4688,28.6406 Q218.8906,28.9375 218.25,29.0781 Q217.6094,29.2344 216.9063,29.2344 Q214.4063,29.2344 213.0781,27.5938 Q211.7656,25.9375 211.7656,22.8125 Q211.7656,19.6875 213.0781,18.0313 Q214.4063,16.375 216.9063,16.375 Q217.6094,16.375 218.25,16.5313 Q218.9063,16.6875 219.4688,16.9844 L219.4688,19.7031 Q218.8438,19.125 218.25,18.8594 Q217.6563,18.5781 217.0313,18.5781 Q215.6875,18.5781 215,19.6563 Q214.3125,20.7188 214.3125,22.8125 Q214.3125,24.9063 215,25.9844 Q215.6875,27.0469 217.0313,27.0469 Q217.6563,27.0469 218.25,26.7813 Q218.8438,26.5 219.4688,25.9219 L219.4688,28.6406 Z " fill="#000000"/><text fill="#000000" font-family="sans-serif" font-size="14" lengthAdjust="spacing" textLength="92" x="230.5" y="27.8467">ISchemaFilter</text><line style="stroke:#181818;stroke-width:0.5;" x1="202.5" x2="324.5" y1="39" y2="39"/><line style="stroke:#181818;stroke-width:0.5;" x1="202.5" x2="324.5" y1="47" y2="47"/></g><!--reverse link ISchemaFilter to CustomSchemaFilters--><g id="link_ISchemaFilter_CustomSchemaFilters"><path codeLine="5" d="M263.5,75.89 C263.5,88.61 263.5,102.42 263.5,114.87 " fill="none" id="ISchemaFilter-backto-CustomSchemaFilters" style="stroke:#181818;stroke-width:1.0;stroke-dasharray:7.0,7.0;"/><polygon fill="none" points="256.5,76.33,263.5,56.33,270.5,76.33,256.5,76.33" style="stroke:#181818;stroke-width:1.0;"/></g><!--SRC=[Iyv9B2vMS2ujBidF3KxEICrDTClCAKajAbPGgEPI009j1SU2WfnAZMAmf8ALWdz1QfvZGIP4iOv2SdvUIMf52L02MRipH5GJA5oMdva2DGcBDHgQNBLSdiX22ZOrUdhOb080]--></g></svg>