<?xml version="1.0" encoding="us-ascii" standalone="no"?><svg xmlns="http://www.w3.org/2000/svg" xmlns:xlink="http://www.w3.org/1999/xlink" contentStyleType="text/css" height="202px" preserveAspectRatio="none" style="width:571px;height:202px;background:#FFFFFF;" version="1.1" viewBox="0 0 571 202" width="571px" zoomAndPan="magnify"><defs/><g><!--class AppIdentityDbContext--><g id="elem_AppIdentityDbContext"><rect codeLine="1" fill="#F1F1F1" height="80.5938" id="AppIdentityDbContext" rx="2.5" ry="2.5" style="stroke:#181818;stroke-width:0.5;" width="555" x="9" y="115"/><ellipse cx="206.75" cy="131" fill="#ADD1B2" rx="11" ry="11" style="stroke:#181818;stroke-width:1.0;"/><path d="M209.7188,136.6406 Q209.1406,136.9375 208.5,137.0781 Q207.8594,137.2344 207.1563,137.2344 Q204.6563,137.2344 203.3281,135.5938 Q202.0156,133.9375 202.0156,130.8125 Q202.0156,127.6875 203.3281,126.0313 Q204.6563,124.375 207.1563,124.375 Q207.8594,124.375 208.5,124.5313 Q209.1563,124.6875 209.7188,124.9844 L209.7188,127.7031 Q209.0938,127.125 208.5,126.8594 Q207.9063,126.5781 207.2813,126.5781 Q205.9375,126.5781 205.25,127.6563 Q204.5625,128.7188 204.5625,130.8125 Q204.5625,132.9063 205.25,133.9844 Q205.9375,135.0469 207.2813,135.0469 Q207.9063,135.0469 208.5,134.7813 Q209.0938,134.5 209.7188,133.9219 L209.7188,136.6406 Z " fill="#000000"/><text fill="#000000" font-family="sans-serif" font-size="14" lengthAdjust="spacing" textLength="151" x="227.25" y="135.8467">AppIdentityDbContext</text><line style="stroke:#181818;stroke-width:0.5;" x1="10" x2="563" y1="147" y2="147"/><line style="stroke:#181818;stroke-width:0.5;" x1="10" x2="563" y1="155" y2="155"/><ellipse cx="20" cy="168.6484" fill="#84BE84" rx="3" ry="3" style="stroke:#038048;stroke-width:1.0;"/><text fill="#000000" font-family="sans-serif" font-size="14" lengthAdjust="spacing" textLength="529" x="29" y="171.9951">AppIdentityDbContext(options : DbContextOptions&lt;AppIdentityDbContext&gt;)</text><polygon fill="#FFFF44" points="20,179.9453,24,183.9453,20,187.9453,16,183.9453" style="stroke:#B38D22;stroke-width:1.0;"/><text fill="#000000" font-family="sans-serif" font-size="14" lengthAdjust="spacing" textLength="399" x="29" y="188.292">&#171;override&#187; OnModelCreating(builder : ModelBuilder) : void</text></g><!--class IdentityDbContext`1--><g id="elem_IdentityDbContext`1"><rect fill="#F1F1F1" height="48" id="IdentityDbContext`1" rx="2.5" ry="2.5" style="stroke:#181818;stroke-width:0.5;" width="172" x="200.5" y="7"/><ellipse cx="215.5" cy="23" fill="#ADD1B2" rx="11" ry="11" style="stroke:#181818;stroke-width:1.0;"/><path d="M218.4688,28.6406 Q217.8906,28.9375 217.25,29.0781 Q216.6094,29.2344 215.9063,29.2344 Q213.4063,29.2344 212.0781,27.5938 Q210.7656,25.9375 210.7656,22.8125 Q210.7656,19.6875 212.0781,18.0313 Q213.4063,16.375 215.9063,16.375 Q216.6094,16.375 217.25,16.5313 Q217.9063,16.6875 218.4688,16.9844 L218.4688,19.7031 Q217.8438,19.125 217.25,18.8594 Q216.6563,18.5781 216.0313,18.5781 Q214.6875,18.5781 214,19.6563 Q213.3125,20.7188 213.3125,22.8125 Q213.3125,24.9063 214,25.9844 Q214.6875,27.0469 216.0313,27.0469 Q216.6563,27.0469 217.25,26.7813 Q217.8438,26.5 218.4688,25.9219 L218.4688,28.6406 Z " fill="#000000"/><text fill="#000000" font-family="sans-serif" font-size="14" lengthAdjust="spacing" textLength="140" x="229.5" y="27.8467">IdentityDbContext`1</text><line style="stroke:#181818;stroke-width:0.5;" x1="201.5" x2="371.5" y1="39" y2="39"/><line style="stroke:#181818;stroke-width:0.5;" x1="201.5" x2="371.5" y1="47" y2="47"/></g><!--reverse link IdentityDbContext`1 to AppIdentityDbContext--><g id="link_IdentityDbContext`1_AppIdentityDbContext"><path codeLine="5" d="M286.5,75.89 C286.5,88.61 286.5,102.42 286.5,114.87 " fill="none" id="IdentityDbContext`1-backto-AppIdentityDbContext" style="stroke:#181818;stroke-width:1.0;"/><polygon fill="none" points="279.5,76.33,286.5,56.33,293.5,76.33,279.5,76.33" style="stroke:#181818;stroke-width:1.0;"/><text fill="#000000" font-family="sans-serif" font-size="13" lengthAdjust="spacing" textLength="122" x="149.6313" y="75.1716">&lt;ApplicationUser&gt;</text></g><!--SRC=[ROwn2i8m48RtFCKHbnRfu2eXeEtY89tSJPj33a8IabWKzTrDMt0nj_tV7Tz_er4nmi7xaqQRA3sxeNKsuIC1l1ZasHQtbVE9d8smXn_hLoHAzx9UP1iGmaqO0ccK4dfxTXfD6r0bihTgk9FH6B9quSSrrZbFZZJxCFudlkuuyBdIqAZc_al483c8TzCKF_y2]--></g></svg>