<?xml version="1.0" encoding="us-ascii" standalone="no"?><svg xmlns="http://www.w3.org/2000/svg" xmlns:xlink="http://www.w3.org/1999/xlink" contentStyleType="text/css" height="202px" preserveAspectRatio="none" style="width:444px;height:202px;background:#FFFFFF;" version="1.1" viewBox="0 0 444 202" width="444px" zoomAndPan="magnify"><defs/><g><!--class CatalogItemConfiguration--><g id="elem_CatalogItemConfiguration"><rect codeLine="1" fill="#F1F1F1" height="80.5938" id="CatalogItemConfiguration" rx="2.5" ry="2.5" style="stroke:#181818;stroke-width:0.5;" width="430" x="7" y="115"/><ellipse cx="130.75" cy="131" fill="#ADD1B2" rx="11" ry="11" style="stroke:#181818;stroke-width:1.0;"/><path d="M133.7188,136.6406 Q133.1406,136.9375 132.5,137.0781 Q131.8594,137.2344 131.1563,137.2344 Q128.6563,137.2344 127.3281,135.5938 Q126.0156,133.9375 126.0156,130.8125 Q126.0156,127.6875 127.3281,126.0313 Q128.6563,124.375 131.1563,124.375 Q131.8594,124.375 132.5,124.5313 Q133.1563,124.6875 133.7188,124.9844 L133.7188,127.7031 Q133.0938,127.125 132.5,126.8594 Q131.9063,126.5781 131.2813,126.5781 Q129.9375,126.5781 129.25,127.6563 Q128.5625,128.7188 128.5625,130.8125 Q128.5625,132.9063 129.25,133.9844 Q129.9375,135.0469 131.2813,135.0469 Q131.9063,135.0469 132.5,134.7813 Q133.0938,134.5 133.7188,133.9219 L133.7188,136.6406 Z " fill="#000000"/><text fill="#000000" font-family="sans-serif" font-size="14" lengthAdjust="spacing" textLength="174" x="151.25" y="135.8467">CatalogItemConfiguration</text><line style="stroke:#181818;stroke-width:0.5;" x1="8" x2="436" y1="147" y2="147"/><line style="stroke:#181818;stroke-width:0.5;" x1="8" x2="436" y1="155" y2="155"/><ellipse cx="18" cy="168.6484" fill="#84BE84" rx="3" ry="3" style="stroke:#038048;stroke-width:1.0;"/><text fill="#000000" font-family="sans-serif" font-size="14" lengthAdjust="spacing" textLength="404" x="27" y="171.9951">Configure(builder : EntityTypeBuilder&lt;CatalogItem&gt;) : void</text><ellipse cx="18" cy="184.9453" fill="#84BE84" rx="3" ry="3" style="stroke:#038048;stroke-width:1.0;"/><text fill="#000000" font-family="sans-serif" font-size="14" lengthAdjust="spacing" textLength="184" x="27" y="188.292">CatalogItemConfiguration()</text></g><!--class IEntityTypeConfiguration`1--><g id="elem_IEntityTypeConfiguration`1"><rect fill="#F1F1F1" height="48" id="IEntityTypeConfiguration`1" rx="2.5" ry="2.5" style="stroke:#181818;stroke-width:0.5;" width="215" x="114.5" y="7"/><ellipse cx="129.5" cy="23" fill="#ADD1B2" rx="11" ry="11" style="stroke:#181818;stroke-width:1.0;"/><path d="M132.4688,28.6406 Q131.8906,28.9375 131.25,29.0781 Q130.6094,29.2344 129.9063,29.2344 Q127.4063,29.2344 126.0781,27.5938 Q124.7656,25.9375 124.7656,22.8125 Q124.7656,19.6875 126.0781,18.0313 Q127.4063,16.375 129.9063,16.375 Q130.6094,16.375 131.25,16.5313 Q131.9063,16.6875 132.4688,16.9844 L132.4688,19.7031 Q131.8438,19.125 131.25,18.8594 Q130.6563,18.5781 130.0313,18.5781 Q128.6875,18.5781 128,19.6563 Q127.3125,20.7188 127.3125,22.8125 Q127.3125,24.9063 128,25.9844 Q128.6875,27.0469 130.0313,27.0469 Q130.6563,27.0469 131.25,26.7813 Q131.8438,26.5 132.4688,25.9219 L132.4688,28.6406 Z " fill="#000000"/><text fill="#000000" font-family="sans-serif" font-size="14" lengthAdjust="spacing" textLength="183" x="143.5" y="27.8467">IEntityTypeConfiguration`1</text><line style="stroke:#181818;stroke-width:0.5;" x1="115.5" x2="328.5" y1="39" y2="39"/><line style="stroke:#181818;stroke-width:0.5;" x1="115.5" x2="328.5" y1="47" y2="47"/></g><!--reverse link IEntityTypeConfiguration`1 to CatalogItemConfiguration--><g id="link_IEntityTypeConfiguration`1_CatalogItemConfiguration"><path codeLine="5" d="M222,75.89 C222,88.61 222,102.42 222,114.87 " fill="none" id="IEntityTypeConfiguration`1-backto-CatalogItemConfiguration" style="stroke:#181818;stroke-width:1.0;stroke-dasharray:7.0,7.0;"/><polygon fill="none" points="215,76.33,222,56.33,229,76.33,215,76.33" style="stroke:#181818;stroke-width:1.0;"/><text fill="#000000" font-family="sans-serif" font-size="13" lengthAdjust="spacing" textLength="100" x="109.8125" y="75.1716">&lt;CatalogItem&gt;</text></g><!--SRC=[Iyv9B2vMS4uiISp9J_SiISrrpizBoqmlBKeioSpFKr2evb800cq5c72gHb9fPavAQf62bO9hNabcIML8PK6g4qJC1iaSEqsWYhByp1IO0JYiqD3agkLIyaIOXIAROAYae8HYh9A2JOsU7axZ0000]--></g></svg>