<?xml version="1.0" encoding="us-ascii" standalone="no"?><svg xmlns="http://www.w3.org/2000/svg" xmlns:xlink="http://www.w3.org/1999/xlink" contentStyleType="text/css" height="202px" preserveAspectRatio="none" style="width:440px;height:202px;background:#FFFFFF;" version="1.1" viewBox="0 0 440 202" width="440px" zoomAndPan="magnify"><defs/><g><!--class BasketItemConfiguration--><g id="elem_BasketItemConfiguration"><rect codeLine="1" fill="#F1F1F1" height="80.5938" id="BasketItemConfiguration" rx="2.5" ry="2.5" style="stroke:#181818;stroke-width:0.5;" width="426" x="7" y="115"/><ellipse cx="130.75" cy="131" fill="#ADD1B2" rx="11" ry="11" style="stroke:#181818;stroke-width:1.0;"/><path d="M133.7188,136.6406 Q133.1406,136.9375 132.5,137.0781 Q131.8594,137.2344 131.1563,137.2344 Q128.6563,137.2344 127.3281,135.5938 Q126.0156,133.9375 126.0156,130.8125 Q126.0156,127.6875 127.3281,126.0313 Q128.6563,124.375 131.1563,124.375 Q131.8594,124.375 132.5,124.5313 Q133.1563,124.6875 133.7188,124.9844 L133.7188,127.7031 Q133.0938,127.125 132.5,126.8594 Q131.9063,126.5781 131.2813,126.5781 Q129.9375,126.5781 129.25,127.6563 Q128.5625,128.7188 128.5625,130.8125 Q128.5625,132.9063 129.25,133.9844 Q129.9375,135.0469 131.2813,135.0469 Q131.9063,135.0469 132.5,134.7813 Q133.0938,134.5 133.7188,133.9219 L133.7188,136.6406 Z " fill="#000000"/><text fill="#000000" font-family="sans-serif" font-size="14" lengthAdjust="spacing" textLength="170" x="151.25" y="135.8467">BasketItemConfiguration</text><line style="stroke:#181818;stroke-width:0.5;" x1="8" x2="432" y1="147" y2="147"/><line style="stroke:#181818;stroke-width:0.5;" x1="8" x2="432" y1="155" y2="155"/><ellipse cx="18" cy="168.6484" fill="#84BE84" rx="3" ry="3" style="stroke:#038048;stroke-width:1.0;"/><text fill="#000000" font-family="sans-serif" font-size="14" lengthAdjust="spacing" textLength="400" x="27" y="171.9951">Configure(builder : EntityTypeBuilder&lt;BasketItem&gt;) : void</text><ellipse cx="18" cy="184.9453" fill="#84BE84" rx="3" ry="3" style="stroke:#038048;stroke-width:1.0;"/><text fill="#000000" font-family="sans-serif" font-size="14" lengthAdjust="spacing" textLength="180" x="27" y="188.292">BasketItemConfiguration()</text></g><!--class IEntityTypeConfiguration`1--><g id="elem_IEntityTypeConfiguration`1"><rect fill="#F1F1F1" height="48" id="IEntityTypeConfiguration`1" rx="2.5" ry="2.5" style="stroke:#181818;stroke-width:0.5;" width="215" x="112.5" y="7"/><ellipse cx="127.5" cy="23" fill="#ADD1B2" rx="11" ry="11" style="stroke:#181818;stroke-width:1.0;"/><path d="M130.4688,28.6406 Q129.8906,28.9375 129.25,29.0781 Q128.6094,29.2344 127.9063,29.2344 Q125.4063,29.2344 124.0781,27.5938 Q122.7656,25.9375 122.7656,22.8125 Q122.7656,19.6875 124.0781,18.0313 Q125.4063,16.375 127.9063,16.375 Q128.6094,16.375 129.25,16.5313 Q129.9063,16.6875 130.4688,16.9844 L130.4688,19.7031 Q129.8438,19.125 129.25,18.8594 Q128.6563,18.5781 128.0313,18.5781 Q126.6875,18.5781 126,19.6563 Q125.3125,20.7188 125.3125,22.8125 Q125.3125,24.9063 126,25.9844 Q126.6875,27.0469 128.0313,27.0469 Q128.6563,27.0469 129.25,26.7813 Q129.8438,26.5 130.4688,25.9219 L130.4688,28.6406 Z " fill="#000000"/><text fill="#000000" font-family="sans-serif" font-size="14" lengthAdjust="spacing" textLength="183" x="141.5" y="27.8467">IEntityTypeConfiguration`1</text><line style="stroke:#181818;stroke-width:0.5;" x1="113.5" x2="326.5" y1="39" y2="39"/><line style="stroke:#181818;stroke-width:0.5;" x1="113.5" x2="326.5" y1="47" y2="47"/></g><!--reverse link IEntityTypeConfiguration`1 to BasketItemConfiguration--><g id="link_IEntityTypeConfiguration`1_BasketItemConfiguration"><path codeLine="5" d="M220,75.89 C220,88.61 220,102.42 220,114.87 " fill="none" id="IEntityTypeConfiguration`1-backto-BasketItemConfiguration" style="stroke:#181818;stroke-width:1.0;stroke-dasharray:7.0,7.0;"/><polygon fill="none" points="213,76.33,220,56.33,227,76.33,213,76.33" style="stroke:#181818;stroke-width:1.0;"/><text fill="#000000" font-family="sans-serif" font-size="13" lengthAdjust="spacing" textLength="95" x="113.4219" y="75.1716">&lt;BasketItem&gt;</text></g><!--SRC=[Iyv9B2vMS4eipaujyIn9pNNEpqlBJ2yjIYp9pCzJKAZcKW02RGMOSAf6KcbcJafgaOALWcjUIMP9PKXbGQeJHCm6OOoT9b11MNvc2bG_3WiqDBbgkPGy4IQXo2OOAYae8Hkgf61JewU7op00]--></g></svg>