<?xml version="1.0" encoding="us-ascii" standalone="no"?><svg xmlns="http://www.w3.org/2000/svg" xmlns:xlink="http://www.w3.org/1999/xlink" contentStyleType="text/css" height="398px" preserveAspectRatio="none" style="width:379px;height:398px;background:#FFFFFF;" version="1.1" viewBox="0 0 379 398" width="379px" zoomAndPan="magnify"><defs/><g><!--class BasketItemViewModel--><g id="elem_BasketItemViewModel"><rect codeLine="1" fill="#F1F1F1" height="178.375" id="BasketItemViewModel" rx="2.5" ry="2.5" style="stroke:#181818;stroke-width:0.5;" width="268" x="55.5" y="213"/><ellipse cx="109.25" cy="229" fill="#ADD1B2" rx="11" ry="11" style="stroke:#181818;stroke-width:1.0;"/><path d="M112.2188,234.6406 Q111.6406,234.9375 111,235.0781 Q110.3594,235.2344 109.6563,235.2344 Q107.1563,235.2344 105.8281,233.5938 Q104.5156,231.9375 104.5156,228.8125 Q104.5156,225.6875 105.8281,224.0313 Q107.1563,222.375 109.6563,222.375 Q110.3594,222.375 111,222.5313 Q111.6563,222.6875 112.2188,222.9844 L112.2188,225.7031 Q111.5938,225.125 111,224.8594 Q110.4063,224.5781 109.7813,224.5781 Q108.4375,224.5781 107.75,225.6563 Q107.0625,226.7188 107.0625,228.8125 Q107.0625,230.9063 107.75,231.9844 Q108.4375,233.0469 109.7813,233.0469 Q110.4063,233.0469 111,232.7813 Q111.5938,232.5 112.2188,231.9219 L112.2188,234.6406 Z " fill="#000000"/><text fill="#000000" font-family="sans-serif" font-size="14" lengthAdjust="spacing" textLength="152" x="129.75" y="233.8467">BasketItemViewModel</text><line style="stroke:#181818;stroke-width:0.5;" x1="56.5" x2="322.5" y1="245" y2="245"/><ellipse cx="66.5" cy="258.6484" fill="none" rx="3" ry="3" style="stroke:#038048;stroke-width:1.0;"/><text fill="#000000" font-family="sans-serif" font-size="14" lengthAdjust="spacing" textLength="131" x="75.5" y="261.9951">Id : int &#171;get&#187; &#171;set&#187;</text><ellipse cx="66.5" cy="274.9453" fill="none" rx="3" ry="3" style="stroke:#038048;stroke-width:1.0;"/><text fill="#000000" font-family="sans-serif" font-size="14" lengthAdjust="spacing" textLength="213" x="75.5" y="278.292">CatalogItemId : int &#171;get&#187; &#171;set&#187;</text><ellipse cx="66.5" cy="291.2422" fill="none" rx="3" ry="3" style="stroke:#038048;stroke-width:1.0;"/><text fill="#000000" font-family="sans-serif" font-size="14" lengthAdjust="spacing" textLength="242" x="75.5" y="294.5889">ProductName : string? &#171;get&#187; &#171;set&#187;</text><ellipse cx="66.5" cy="307.5391" fill="none" rx="3" ry="3" style="stroke:#038048;stroke-width:1.0;"/><text fill="#000000" font-family="sans-serif" font-size="14" lengthAdjust="spacing" textLength="216" x="75.5" y="310.8857">UnitPrice : decimal &#171;get&#187; &#171;set&#187;</text><ellipse cx="66.5" cy="323.8359" fill="none" rx="3" ry="3" style="stroke:#038048;stroke-width:1.0;"/><text fill="#000000" font-family="sans-serif" font-size="14" lengthAdjust="spacing" textLength="239" x="75.5" y="327.1826">OldUnitPrice : decimal &#171;get&#187; &#171;set&#187;</text><ellipse cx="66.5" cy="340.1328" fill="none" rx="3" ry="3" style="stroke:#038048;stroke-width:1.0;"/><text fill="#000000" font-family="sans-serif" font-size="14" lengthAdjust="spacing" textLength="176" x="75.5" y="343.4795">Quantity : int &#171;get&#187; &#171;set&#187;</text><ellipse cx="66.5" cy="356.4297" fill="none" rx="3" ry="3" style="stroke:#038048;stroke-width:1.0;"/><text fill="#000000" font-family="sans-serif" font-size="14" lengthAdjust="spacing" textLength="214" x="75.5" y="359.7764">PictureUrl : string? &#171;get&#187; &#171;set&#187;</text><line style="stroke:#181818;stroke-width:0.5;" x1="56.5" x2="322.5" y1="367.0781" y2="367.0781"/><ellipse cx="66.5" cy="380.7266" fill="#84BE84" rx="3" ry="3" style="stroke:#038048;stroke-width:1.0;"/><text fill="#000000" font-family="sans-serif" font-size="14" lengthAdjust="spacing" textLength="162" x="75.5" y="384.0732">BasketItemViewModel()</text></g><!--class BasketViewModel--><g id="elem_BasketViewModel"><rect codeLine="11" fill="#F1F1F1" height="129.4844" id="BasketViewModel" rx="2.5" ry="2.5" style="stroke:#181818;stroke-width:0.5;" width="365" x="7" y="7"/><ellipse cx="124.25" cy="23" fill="#ADD1B2" rx="11" ry="11" style="stroke:#181818;stroke-width:1.0;"/><path d="M127.2188,28.6406 Q126.6406,28.9375 126,29.0781 Q125.3594,29.2344 124.6563,29.2344 Q122.1563,29.2344 120.8281,27.5938 Q119.5156,25.9375 119.5156,22.8125 Q119.5156,19.6875 120.8281,18.0313 Q122.1563,16.375 124.6563,16.375 Q125.3594,16.375 126,16.5313 Q126.6563,16.6875 127.2188,16.9844 L127.2188,19.7031 Q126.5938,19.125 126,18.8594 Q125.4063,18.5781 124.7813,18.5781 Q123.4375,18.5781 122.75,19.6563 Q122.0625,20.7188 122.0625,22.8125 Q122.0625,24.9063 122.75,25.9844 Q123.4375,27.0469 124.7813,27.0469 Q125.4063,27.0469 126,26.7813 Q126.5938,26.5 127.2188,25.9219 L127.2188,28.6406 Z " fill="#000000"/><text fill="#000000" font-family="sans-serif" font-size="14" lengthAdjust="spacing" textLength="122" x="144.75" y="27.8467">BasketViewModel</text><line style="stroke:#181818;stroke-width:0.5;" x1="8" x2="371" y1="39" y2="39"/><ellipse cx="18" cy="52.6484" fill="none" rx="3" ry="3" style="stroke:#038048;stroke-width:1.0;"/><text fill="#000000" font-family="sans-serif" font-size="14" lengthAdjust="spacing" textLength="131" x="27" y="55.9951">Id : int &#171;get&#187; &#171;set&#187;</text><ellipse cx="18" cy="68.9453" fill="none" rx="3" ry="3" style="stroke:#038048;stroke-width:1.0;"/><text fill="#000000" font-family="sans-serif" font-size="14" lengthAdjust="spacing" textLength="339" x="27" y="72.292">Items : List&lt;BasketItemViewModel&gt; &#171;get&#187; &#171;set&#187;</text><ellipse cx="18" cy="85.2422" fill="none" rx="3" ry="3" style="stroke:#038048;stroke-width:1.0;"/><text fill="#000000" font-family="sans-serif" font-size="14" lengthAdjust="spacing" textLength="200" x="27" y="88.5889">BuyerId : string? &#171;get&#187; &#171;set&#187;</text><line style="stroke:#181818;stroke-width:0.5;" x1="8" x2="371" y1="95.8906" y2="95.8906"/><ellipse cx="18" cy="109.5391" fill="#84BE84" rx="3" ry="3" style="stroke:#038048;stroke-width:1.0;"/><text fill="#000000" font-family="sans-serif" font-size="14" lengthAdjust="spacing" textLength="110" x="27" y="112.8857">Total() : decimal</text><ellipse cx="18" cy="125.8359" fill="#84BE84" rx="3" ry="3" style="stroke:#038048;stroke-width:1.0;"/><text fill="#000000" font-family="sans-serif" font-size="14" lengthAdjust="spacing" textLength="132" x="27" y="129.1826">BasketViewModel()</text></g><!--reverse link BasketViewModel to BasketItemViewModel--><g id="link_BasketViewModel_BasketItemViewModel"><path codeLine="18" d="M189.5,150.38 C189.5,170.44 189.5,192.17 189.5,212.72 " fill="none" id="BasketViewModel-backto-BasketItemViewModel" style="stroke:#181818;stroke-width:1.0;"/><polygon fill="#181818" points="189.5,137.45,185.5,143.45,189.5,149.45,193.5,143.45,189.5,137.45" style="stroke:#181818;stroke-width:1.0;"/><text fill="#000000" font-family="sans-serif" font-size="13" lengthAdjust="spacing" textLength="36" x="190.5" y="179.0669">Items</text><text fill="#000000" font-family="sans-serif" font-size="13" lengthAdjust="spacing" textLength="7" x="182.2211" y="202.0651">*</text></g><!--SRC=[bPBB2i8m44Nt_OgXAwtq1wHKq5N19wZxa0nbC4qXcI8Y_hk92bffVMGpYvpCt7ipKWldO2hS0RbWhFQ4nqMjK0ES8_1d18M2CP1XoB8IESzzTQ4-hcU2XQxByFWBkRQrQYGlHOMUSsp9b9CUTcU8rvPa81LAgeJk8LTQ_Gvl6c6O-FHP9qbkBEwi_Ygp8xZ1CBf4yYNM_oCD_PmdvkGuwnYHzwbfJcXllJ-htjR-omR3PrejDsqdxnwID8KuYJjNPdnNVWK0]--></g></svg>