<?xml version="1.0" encoding="us-ascii" standalone="no"?><svg xmlns="http://www.w3.org/2000/svg" xmlns:xlink="http://www.w3.org/1999/xlink" contentStyleType="text/css" height="186px" preserveAspectRatio="none" style="width:157px;height:186px;background:#FFFFFF;" version="1.1" viewBox="0 0 157 186" width="157px" zoomAndPan="magnify"><defs/><g><!--class ApplicationUser--><g id="elem_ApplicationUser"><rect codeLine="1" fill="#F1F1F1" height="64.2969" id="ApplicationUser" rx="2.5" ry="2.5" style="stroke:#181818;stroke-width:0.5;" width="143" x="7" y="115"/><ellipse cx="23.8" cy="131" fill="#ADD1B2" rx="11" ry="11" style="stroke:#181818;stroke-width:1.0;"/><path d="M26.7688,136.6406 Q26.1906,136.9375 25.55,137.0781 Q24.9094,137.2344 24.2063,137.2344 Q21.7063,137.2344 20.3781,135.5938 Q19.0656,133.9375 19.0656,130.8125 Q19.0656,127.6875 20.3781,126.0313 Q21.7063,124.375 24.2063,124.375 Q24.9094,124.375 25.55,124.5313 Q26.2063,124.6875 26.7688,124.9844 L26.7688,127.7031 Q26.1438,127.125 25.55,126.8594 Q24.9563,126.5781 24.3313,126.5781 Q22.9875,126.5781 22.3,127.6563 Q21.6125,128.7188 21.6125,130.8125 Q21.6125,132.9063 22.3,133.9844 Q22.9875,135.0469 24.3313,135.0469 Q24.9563,135.0469 25.55,134.7813 Q26.1438,134.5 26.7688,133.9219 L26.7688,136.6406 Z " fill="#000000"/><text fill="#000000" font-family="sans-serif" font-size="14" lengthAdjust="spacing" textLength="107" x="38.2" y="135.8467">ApplicationUser</text><line style="stroke:#181818;stroke-width:0.5;" x1="8" x2="149" y1="147" y2="147"/><line style="stroke:#181818;stroke-width:0.5;" x1="8" x2="149" y1="155" y2="155"/><ellipse cx="18" cy="168.6484" fill="#84BE84" rx="3" ry="3" style="stroke:#038048;stroke-width:1.0;"/><text fill="#000000" font-family="sans-serif" font-size="14" lengthAdjust="spacing" textLength="117" x="27" y="171.9951">ApplicationUser()</text></g><!--class IdentityUser--><g id="elem_IdentityUser"><rect fill="#F1F1F1" height="48" id="IdentityUser" rx="2.5" ry="2.5" style="stroke:#181818;stroke-width:0.5;" width="114" x="21.5" y="7"/><ellipse cx="36.5" cy="23" fill="#ADD1B2" rx="11" ry="11" style="stroke:#181818;stroke-width:1.0;"/><path d="M39.4688,28.6406 Q38.8906,28.9375 38.25,29.0781 Q37.6094,29.2344 36.9063,29.2344 Q34.4063,29.2344 33.0781,27.5938 Q31.7656,25.9375 31.7656,22.8125 Q31.7656,19.6875 33.0781,18.0313 Q34.4063,16.375 36.9063,16.375 Q37.6094,16.375 38.25,16.5313 Q38.9063,16.6875 39.4688,16.9844 L39.4688,19.7031 Q38.8438,19.125 38.25,18.8594 Q37.6563,18.5781 37.0313,18.5781 Q35.6875,18.5781 35,19.6563 Q34.3125,20.7188 34.3125,22.8125 Q34.3125,24.9063 35,25.9844 Q35.6875,27.0469 37.0313,27.0469 Q37.6563,27.0469 38.25,26.7813 Q38.8438,26.5 39.4688,25.9219 L39.4688,28.6406 Z " fill="#000000"/><text fill="#000000" font-family="sans-serif" font-size="14" lengthAdjust="spacing" textLength="82" x="50.5" y="27.8467">IdentityUser</text><line style="stroke:#181818;stroke-width:0.5;" x1="22.5" x2="134.5" y1="39" y2="39"/><line style="stroke:#181818;stroke-width:0.5;" x1="22.5" x2="134.5" y1="47" y2="47"/></g><!--reverse link IdentityUser to ApplicationUser--><g id="link_IdentityUser_ApplicationUser"><path codeLine="4" d="M78.5,76.31 C78.5,89.2 78.5,103.01 78.5,114.9 " fill="none" id="IdentityUser-backto-ApplicationUser" style="stroke:#181818;stroke-width:1.0;"/><polygon fill="none" points="71.5,76.34,78.5,56.34,85.5,76.34,71.5,76.34" style="stroke:#181818;stroke-width:1.0;"/></g><!--SRC=[Iyv9B2vMS2meoCbCJYp9pCyBBKujKb2evb800crq2GrDhbekpvJKl9BCaagmIfiQNLrqLG00]--></g></svg>