<?xml version="1.0" encoding="us-ascii" standalone="no"?><svg xmlns="http://www.w3.org/2000/svg" xmlns:xlink="http://www.w3.org/1999/xlink" contentStyleType="text/css" height="349px" preserveAspectRatio="none" style="width:784px;height:349px;background:#FFFFFF;" version="1.1" viewBox="0 0 784 349" width="784px" zoomAndPan="magnify"><defs/><g><!--class CatalogContext--><g id="elem_CatalogContext"><rect codeLine="1" fill="#F1F1F1" height="194.6719" id="CatalogContext" rx="2.5" ry="2.5" style="stroke:#181818;stroke-width:0.5;" width="465" x="28.5" y="148"/><ellipse cx="203.75" cy="164" fill="#ADD1B2" rx="11" ry="11" style="stroke:#181818;stroke-width:1.0;"/><path d="M206.7188,169.6406 Q206.1406,169.9375 205.5,170.0781 Q204.8594,170.2344 204.1563,170.2344 Q201.6563,170.2344 200.3281,168.5938 Q199.0156,166.9375 199.0156,163.8125 Q199.0156,160.6875 200.3281,159.0313 Q201.6563,157.375 204.1563,157.375 Q204.8594,157.375 205.5,157.5313 Q206.1563,157.6875 206.7188,157.9844 L206.7188,160.7031 Q206.0938,160.125 205.5,159.8594 Q204.9063,159.5781 204.2813,159.5781 Q202.9375,159.5781 202.25,160.6563 Q201.5625,161.7188 201.5625,163.8125 Q201.5625,165.9063 202.25,166.9844 Q202.9375,168.0469 204.2813,168.0469 Q204.9063,168.0469 205.5,167.7813 Q206.0938,167.5 206.7188,166.9219 L206.7188,169.6406 Z " fill="#000000"/><text fill="#000000" font-family="sans-serif" font-size="14" lengthAdjust="spacing" textLength="106" x="224.25" y="168.8467">CatalogContext</text><line style="stroke:#181818;stroke-width:0.5;" x1="29.5" x2="492.5" y1="180" y2="180"/><ellipse cx="39.5" cy="193.6484" fill="none" rx="3" ry="3" style="stroke:#038048;stroke-width:1.0;"/><text fill="#000000" font-family="sans-serif" font-size="14" lengthAdjust="spacing" textLength="273" x="48.5" y="196.9951">Baskets : DbSet&lt;Basket&gt; &#171;get&#187; &#171;set&#187;</text><ellipse cx="39.5" cy="209.9453" fill="none" rx="3" ry="3" style="stroke:#038048;stroke-width:1.0;"/><text fill="#000000" font-family="sans-serif" font-size="14" lengthAdjust="spacing" textLength="341" x="48.5" y="213.292">CatalogItems : DbSet&lt;CatalogItem&gt; &#171;get&#187; &#171;set&#187;</text><ellipse cx="39.5" cy="226.2422" fill="none" rx="3" ry="3" style="stroke:#038048;stroke-width:1.0;"/><text fill="#000000" font-family="sans-serif" font-size="14" lengthAdjust="spacing" textLength="363" x="48.5" y="229.5889">CatalogBrands : DbSet&lt;CatalogBrand&gt; &#171;get&#187; &#171;set&#187;</text><ellipse cx="39.5" cy="242.5391" fill="none" rx="3" ry="3" style="stroke:#038048;stroke-width:1.0;"/><text fill="#000000" font-family="sans-serif" font-size="14" lengthAdjust="spacing" textLength="349" x="48.5" y="245.8857">CatalogTypes : DbSet&lt;CatalogType&gt; &#171;get&#187; &#171;set&#187;</text><ellipse cx="39.5" cy="258.8359" fill="none" rx="3" ry="3" style="stroke:#038048;stroke-width:1.0;"/><text fill="#000000" font-family="sans-serif" font-size="14" lengthAdjust="spacing" textLength="255" x="48.5" y="262.1826">Orders : DbSet&lt;Order&gt; &#171;get&#187; &#171;set&#187;</text><ellipse cx="39.5" cy="275.1328" fill="none" rx="3" ry="3" style="stroke:#038048;stroke-width:1.0;"/><text fill="#000000" font-family="sans-serif" font-size="14" lengthAdjust="spacing" textLength="315" x="48.5" y="278.4795">OrderItems : DbSet&lt;OrderItem&gt; &#171;get&#187; &#171;set&#187;</text><ellipse cx="39.5" cy="291.4297" fill="none" rx="3" ry="3" style="stroke:#038048;stroke-width:1.0;"/><text fill="#000000" font-family="sans-serif" font-size="14" lengthAdjust="spacing" textLength="333" x="48.5" y="294.7764">BasketItems : DbSet&lt;BasketItem&gt; &#171;get&#187; &#171;set&#187;</text><line style="stroke:#181818;stroke-width:0.5;" x1="29.5" x2="492.5" y1="302.0781" y2="302.0781"/><ellipse cx="39.5" cy="315.7266" fill="#84BE84" rx="3" ry="3" style="stroke:#038048;stroke-width:1.0;"/><text fill="#000000" font-family="sans-serif" font-size="14" lengthAdjust="spacing" textLength="439" x="48.5" y="319.0732">CatalogContext(options : DbContextOptions&lt;CatalogContext&gt;)</text><polygon fill="#FFFF44" points="39.5,327.0234,43.5,331.0234,39.5,335.0234,35.5,331.0234" style="stroke:#B38D22;stroke-width:1.0;"/><text fill="#000000" font-family="sans-serif" font-size="14" lengthAdjust="spacing" textLength="399" x="48.5" y="335.3701">&#171;override&#187; OnModelCreating(builder : ModelBuilder) : void</text></g><!--class DbContext--><g id="elem_DbContext"><rect fill="#F1F1F1" height="48" id="DbContext" rx="2.5" ry="2.5" style="stroke:#181818;stroke-width:0.5;" width="106" x="7" y="23.5"/><ellipse cx="22" cy="39.5" fill="#ADD1B2" rx="11" ry="11" style="stroke:#181818;stroke-width:1.0;"/><path d="M24.9688,45.1406 Q24.3906,45.4375 23.75,45.5781 Q23.1094,45.7344 22.4063,45.7344 Q19.9063,45.7344 18.5781,44.0938 Q17.2656,42.4375 17.2656,39.3125 Q17.2656,36.1875 18.5781,34.5313 Q19.9063,32.875 22.4063,32.875 Q23.1094,32.875 23.75,33.0313 Q24.4063,33.1875 24.9688,33.4844 L24.9688,36.2031 Q24.3438,35.625 23.75,35.3594 Q23.1563,35.0781 22.5313,35.0781 Q21.1875,35.0781 20.5,36.1563 Q19.8125,37.2188 19.8125,39.3125 Q19.8125,41.4063 20.5,42.4844 Q21.1875,43.5469 22.5313,43.5469 Q23.1563,43.5469 23.75,43.2813 Q24.3438,43 24.9688,42.4219 L24.9688,45.1406 Z " fill="#000000"/><text fill="#000000" font-family="sans-serif" font-size="14" lengthAdjust="spacing" textLength="74" x="36" y="44.3467">DbContext</text><line style="stroke:#181818;stroke-width:0.5;" x1="8" x2="112" y1="55.5" y2="55.5"/><line style="stroke:#181818;stroke-width:0.5;" x1="8" x2="112" y1="63.5" y2="63.5"/></g><!--class CatalogContextSeed--><g id="elem_CatalogContextSeed"><rect codeLine="13" fill="#F1F1F1" height="80.5938" id="CatalogContextSeed" rx="2.5" ry="2.5" style="stroke:#181818;stroke-width:0.5;" width="629" x="148.5" y="7"/><ellipse cx="387.75" cy="23" fill="#ADD1B2" rx="11" ry="11" style="stroke:#181818;stroke-width:1.0;"/><path d="M390.7188,28.6406 Q390.1406,28.9375 389.5,29.0781 Q388.8594,29.2344 388.1563,29.2344 Q385.6563,29.2344 384.3281,27.5938 Q383.0156,25.9375 383.0156,22.8125 Q383.0156,19.6875 384.3281,18.0313 Q385.6563,16.375 388.1563,16.375 Q388.8594,16.375 389.5,16.5313 Q390.1563,16.6875 390.7188,16.9844 L390.7188,19.7031 Q390.0938,19.125 389.5,18.8594 Q388.9063,18.5781 388.2813,18.5781 Q386.9375,18.5781 386.25,19.6563 Q385.5625,20.7188 385.5625,22.8125 Q385.5625,24.9063 386.25,25.9844 Q386.9375,27.0469 388.2813,27.0469 Q388.9063,27.0469 389.5,26.7813 Q390.0938,26.5 390.7188,25.9219 L390.7188,28.6406 Z " fill="#000000"/><text fill="#000000" font-family="sans-serif" font-size="14" lengthAdjust="spacing" textLength="142" x="408.25" y="27.8467">CatalogContextSeed</text><line style="stroke:#181818;stroke-width:0.5;" x1="149.5" x2="776.5" y1="39" y2="39"/><line style="stroke:#181818;stroke-width:0.5;" x1="149.5" x2="776.5" y1="47" y2="47"/><ellipse cx="159.5" cy="60.6484" fill="#84BE84" rx="3" ry="3" style="stroke:#038048;stroke-width:1.0;"/><text fill="#000000" font-family="sans-serif" font-size="14" lengthAdjust="spacing" text-decoration="underline" textLength="603" x="168.5" y="63.9951">&#171;async&#187; SeedAsync(catalogContext : CatalogContext, logger : ILogger, retry : int) : Task</text><ellipse cx="159.5" cy="76.9453" fill="#84BE84" rx="3" ry="3" style="stroke:#038048;stroke-width:1.0;"/><text fill="#000000" font-family="sans-serif" font-size="14" lengthAdjust="spacing" textLength="152" x="168.5" y="80.292">CatalogContextSeed()</text></g><!--reverse link DbContext to CatalogContext--><g id="link_DbContext_CatalogContext"><path codeLine="12" d="M98.85,86.38 C116.99,104.07 139.5,126.02 161.91,147.87 " fill="none" id="DbContext-backto-CatalogContext" style="stroke:#181818;stroke-width:1.0;"/><polygon fill="none" points="94.28,91.73,84.85,72.75,104.05,81.7,94.28,91.73" style="stroke:#181818;stroke-width:1.0;"/></g><!--link CatalogContextSeed to CatalogContext--><g id="link_CatalogContextSeed_CatalogContext"><path codeLine="17" d="M422.12,88.16 C405.37,104.42 385.15,124.04 364.78,143.81 " fill="none" id="CatalogContextSeed-to-CatalogContext" style="stroke:#181818;stroke-width:1.0;stroke-dasharray:7.0,7.0;"/><polygon fill="#181818" points="361.7,146.76,370.9415,143.3548,365.2852,143.2748,365.3652,137.6185,361.7,146.76" style="stroke:#181818;stroke-width:1.0;"/></g><!--SRC=[XPBDRi8m3CVlVOf8kxGQy00eghHs5wHDFS0BXCIgedK9IZoqYl7kSn94rr96Bux_zSyVYMKdl6UrGD7PjhO6uHiPEsMClkU9dji3QciyMxFN_KLhaiJ7aMLnIL09_m6OY2qWJtx9E6_91Ek37PVR87mEo1_n0LSvOTGD6DK7vAu_m0qOn7jSunIuWOZklx7ZcQxIFIRTqnWQj7dgYJnx1EUq0lhLc7UheAiT2DIcpVTVkgEgb2xgLN8ByezMg-oSNT-KyP_bSlBscPnPb2s06fRbv94goJEr8Nnl9FKG0bx2EPVZ3LjFCYqOdTlOtUOjdXRC0RgU16qmTBcZyMVNCXJ92nfWfhdLgfn4_m80]--></g></svg>