<?xml version="1.0" encoding="us-ascii" standalone="no"?><svg xmlns="http://www.w3.org/2000/svg" xmlns:xlink="http://www.w3.org/1999/xlink" contentStyleType="text/css" height="202px" preserveAspectRatio="none" style="width:441px;height:202px;background:#FFFFFF;" version="1.1" viewBox="0 0 441 202" width="441px" zoomAndPan="magnify"><defs/><g><!--class AppIdentityDbContextModelSnapshot--><g id="elem_AppIdentityDbContextModelSnapshot"><rect codeLine="1" fill="#F1F1F1" height="80.5938" id="AppIdentityDbContextModelSnapshot" rx="2.5" ry="2.5" style="stroke:#181818;stroke-width:0.5;" width="425" x="9" y="115"/><ellipse cx="87.75" cy="131" fill="#ADD1B2" rx="11" ry="11" style="stroke:#181818;stroke-width:1.0;"/><path d="M90.7188,136.6406 Q90.1406,136.9375 89.5,137.0781 Q88.8594,137.2344 88.1563,137.2344 Q85.6563,137.2344 84.3281,135.5938 Q83.0156,133.9375 83.0156,130.8125 Q83.0156,127.6875 84.3281,126.0313 Q85.6563,124.375 88.1563,124.375 Q88.8594,124.375 89.5,124.5313 Q90.1563,124.6875 90.7188,124.9844 L90.7188,127.7031 Q90.0938,127.125 89.5,126.8594 Q88.9063,126.5781 88.2813,126.5781 Q86.9375,126.5781 86.25,127.6563 Q85.5625,128.7188 85.5625,130.8125 Q85.5625,132.9063 86.25,133.9844 Q86.9375,135.0469 88.2813,135.0469 Q88.9063,135.0469 89.5,134.7813 Q90.0938,134.5 90.7188,133.9219 L90.7188,136.6406 Z " fill="#000000"/><text fill="#000000" font-family="sans-serif" font-size="14" lengthAdjust="spacing" textLength="259" x="108.25" y="135.8467">AppIdentityDbContextModelSnapshot</text><line style="stroke:#181818;stroke-width:0.5;" x1="10" x2="433" y1="147" y2="147"/><line style="stroke:#181818;stroke-width:0.5;" x1="10" x2="433" y1="155" y2="155"/><polygon fill="#FFFF44" points="20,163.6484,24,167.6484,20,171.6484,16,167.6484" style="stroke:#B38D22;stroke-width:1.0;"/><text fill="#000000" font-family="sans-serif" font-size="14" lengthAdjust="spacing" textLength="399" x="29" y="171.9951">&#171;override&#187; BuildModel(modelBuilder : ModelBuilder) : void</text><ellipse cx="20" cy="184.9453" fill="#84BE84" rx="3" ry="3" style="stroke:#038048;stroke-width:1.0;"/><text fill="#000000" font-family="sans-serif" font-size="14" lengthAdjust="spacing" textLength="269" x="29" y="188.292">AppIdentityDbContextModelSnapshot()</text></g><!--class ModelSnapshot--><g id="elem_ModelSnapshot"><rect fill="#F1F1F1" height="48" id="ModelSnapshot" rx="2.5" ry="2.5" style="stroke:#181818;stroke-width:0.5;" width="140" x="151.5" y="7"/><ellipse cx="166.5" cy="23" fill="#ADD1B2" rx="11" ry="11" style="stroke:#181818;stroke-width:1.0;"/><path d="M169.4688,28.6406 Q168.8906,28.9375 168.25,29.0781 Q167.6094,29.2344 166.9063,29.2344 Q164.4063,29.2344 163.0781,27.5938 Q161.7656,25.9375 161.7656,22.8125 Q161.7656,19.6875 163.0781,18.0313 Q164.4063,16.375 166.9063,16.375 Q167.6094,16.375 168.25,16.5313 Q168.9063,16.6875 169.4688,16.9844 L169.4688,19.7031 Q168.8438,19.125 168.25,18.8594 Q167.6563,18.5781 167.0313,18.5781 Q165.6875,18.5781 165,19.6563 Q164.3125,20.7188 164.3125,22.8125 Q164.3125,24.9063 165,25.9844 Q165.6875,27.0469 167.0313,27.0469 Q167.6563,27.0469 168.25,26.7813 Q168.8438,26.5 169.4688,25.9219 L169.4688,28.6406 Z " fill="#000000"/><text fill="#000000" font-family="sans-serif" font-size="14" lengthAdjust="spacing" textLength="108" x="180.5" y="27.8467">ModelSnapshot</text><line style="stroke:#181818;stroke-width:0.5;" x1="152.5" x2="290.5" y1="39" y2="39"/><line style="stroke:#181818;stroke-width:0.5;" x1="152.5" x2="290.5" y1="47" y2="47"/></g><!--reverse link ModelSnapshot to AppIdentityDbContextModelSnapshot--><g id="link_ModelSnapshot_AppIdentityDbContextModelSnapshot"><path codeLine="5" d="M221.5,75.89 C221.5,88.61 221.5,102.42 221.5,114.87 " fill="none" id="ModelSnapshot-backto-AppIdentityDbContextModelSnapshot" style="stroke:#181818;stroke-width:1.0;"/><polygon fill="none" points="214.5,76.33,221.5,56.33,228.5,76.33,214.5,76.33" style="stroke:#181818;stroke-width:1.0;"/></g><!--SRC=[Iyv9B2vMS2mey4n9pIl9BAbqINBEpoj9hIZnpKz9pGdEIomepiWlKL2evb800cK56vlyijIYeioKL3ix1QVIp9mKi4ADN109vgSMALWf-29nDO7yilpC5B09seGjqz3agkL2jTwcHbUNi4O0]--></g></svg>