<?xml version="1.0" encoding="us-ascii" standalone="no"?><svg xmlns="http://www.w3.org/2000/svg" xmlns:xlink="http://www.w3.org/1999/xlink" contentStyleType="text/css" height="93px" preserveAspectRatio="none" style="width:223px;height:93px;background:#FFFFFF;" version="1.1" viewBox="0 0 223 93" width="223px" zoomAndPan="magnify"><defs/><g><!--class Constants::Roles--><g id="elem_Constants::Roles"><rect codeLine="1" fill="#F1F1F1" height="72.5625" id="Constants::Roles" rx="2.5" ry="2.5" style="stroke:#181818;stroke-width:0.5;" width="202" x="7" y="7"/><ellipse cx="44.5" cy="27.1328" fill="#ADD1B2" rx="11" ry="11" style="stroke:#181818;stroke-width:1.0;"/><path d="M47.4688,32.7734 Q46.8906,33.0703 46.25,33.2109 Q45.6094,33.3672 44.9063,33.3672 Q42.4063,33.3672 41.0781,31.7266 Q39.7656,30.0703 39.7656,26.9453 Q39.7656,23.8203 41.0781,22.1641 Q42.4063,20.5078 44.9063,20.5078 Q45.6094,20.5078 46.25,20.6641 Q46.9063,20.8203 47.4688,21.1172 L47.4688,23.8359 Q46.8438,23.2578 46.25,22.9922 Q45.6563,22.7109 45.0313,22.7109 Q43.6875,22.7109 43,23.7891 Q42.3125,24.8516 42.3125,26.9453 Q42.3125,29.0391 43,30.1172 Q43.6875,31.1797 45.0313,31.1797 Q45.6563,31.1797 46.25,30.9141 Q46.8438,30.6328 47.4688,30.0547 L47.4688,32.7734 Z " fill="#000000"/><text fill="#000000" font-family="sans-serif" font-size="12" font-style="italic" lengthAdjust="spacing" textLength="49" x="99" y="23.1387">&#171;static&#187;</text><text fill="#000000" font-family="sans-serif" font-size="14" lengthAdjust="spacing" textLength="120" x="63.5" y="38.9639">Constants::Roles</text><line style="stroke:#181818;stroke-width:0.5;" x1="8" x2="208" y1="47.2656" y2="47.2656"/><ellipse cx="18" cy="60.9141" fill="none" rx="3" ry="3" style="stroke:#038048;stroke-width:1.0;"/><text fill="#000000" font-family="sans-serif" font-size="14" lengthAdjust="spacing" text-decoration="underline" textLength="176" x="27" y="64.2607">ADMINISTRATORS : string</text><line style="stroke:#181818;stroke-width:0.5;" x1="8" x2="208" y1="71.5625" y2="71.5625"/></g><!--SRC=[Iyv9B2vMSCxFAov9p2ifjh8Aoiz9BLQmiG7oIpAJxUmK5Agv5810Mw4Q8bIhuEZYw-dd6HmIv1ZY7nIiOALGN5AKcPVELGi0]--></g></svg>