<?xml version="1.0" encoding="us-ascii" standalone="no"?><svg xmlns="http://www.w3.org/2000/svg" xmlns:xlink="http://www.w3.org/1999/xlink" contentStyleType="text/css" height="117px" preserveAspectRatio="none" style="width:228px;height:117px;background:#FFFFFF;" version="1.1" viewBox="0 0 228 117" width="228px" zoomAndPan="magnify"><defs/><g><!--class LookupData--><g id="elem_LookupData"><rect codeLine="1" fill="#F1F1F1" height="96.8906" id="LookupData" rx="2.5" ry="2.5" style="stroke:#181818;stroke-width:0.5;" width="207" x="7" y="7"/><ellipse cx="64.75" cy="23" fill="#A9DCDF" rx="11" ry="11" style="stroke:#181818;stroke-width:1.0;"/><path d="M64.8594,18.3438 L63.7031,23.4219 L66.0313,23.4219 L64.8594,18.3438 Z M63.375,16.1094 L66.3594,16.1094 L69.7188,28.5 L67.2656,28.5 L66.5,25.4375 L63.2188,25.4375 L62.4688,28.5 L60.0313,28.5 L63.375,16.1094 Z " fill="#000000"/><text fill="#000000" font-family="sans-serif" font-size="14" font-style="italic" lengthAdjust="spacing" textLength="83" x="85.25" y="27.8467">LookupData</text><line style="stroke:#181818;stroke-width:0.5;" x1="8" x2="213" y1="39" y2="39"/><ellipse cx="18" cy="52.6484" fill="none" rx="3" ry="3" style="stroke:#038048;stroke-width:1.0;"/><text fill="#000000" font-family="sans-serif" font-size="14" lengthAdjust="spacing" textLength="131" x="27" y="55.9951">Id : int &#171;get&#187; &#171;set&#187;</text><ellipse cx="18" cy="68.9453" fill="none" rx="3" ry="3" style="stroke:#038048;stroke-width:1.0;"/><text fill="#000000" font-family="sans-serif" font-size="14" lengthAdjust="spacing" textLength="181" x="27" y="72.292">Name : string &#171;get&#187; &#171;set&#187;</text><line style="stroke:#181818;stroke-width:0.5;" x1="8" x2="213" y1="79.5938" y2="79.5938"/><polygon fill="#FFFF44" points="18,88.2422,22,92.2422,18,96.2422,14,92.2422" style="stroke:#B38D22;stroke-width:1.0;"/><text fill="#000000" font-family="sans-serif" font-size="14" lengthAdjust="spacing" textLength="93" x="27" y="96.5889">LookupData()</text></g><!--SRC=[IqmgBYbAJ2vHICv9B2vMyCdFpoujS4aiILHGgEPI009j1SyK1Ik5pBmI1HkRzDGIEpiWNGoYeT9-YRcfG0L0OpBpqh6gKKOoLaEJgnO0]--></g></svg>