<?xml version="1.0" encoding="us-ascii" standalone="no"?><svg xmlns="http://www.w3.org/2000/svg" xmlns:xlink="http://www.w3.org/1999/xlink" contentStyleType="text/css" height="199px" preserveAspectRatio="none" style="width:271px;height:199px;background:#FFFFFF;" version="1.1" viewBox="0 0 271 199" width="271px" zoomAndPan="magnify"><defs/><g><!--class CatalogItemDto--><g id="elem_CatalogItemDto"><rect codeLine="1" fill="#F1F1F1" height="178.375" id="CatalogItemDto" rx="2.5" ry="2.5" style="stroke:#181818;stroke-width:0.5;" width="250" x="7" y="7"/><ellipse cx="74.25" cy="23" fill="#ADD1B2" rx="11" ry="11" style="stroke:#181818;stroke-width:1.0;"/><path d="M77.2188,28.6406 Q76.6406,28.9375 76,29.0781 Q75.3594,29.2344 74.6563,29.2344 Q72.1563,29.2344 70.8281,27.5938 Q69.5156,25.9375 69.5156,22.8125 Q69.5156,19.6875 70.8281,18.0313 Q72.1563,16.375 74.6563,16.375 Q75.3594,16.375 76,16.5313 Q76.6563,16.6875 77.2188,16.9844 L77.2188,19.7031 Q76.5938,19.125 76,18.8594 Q75.4063,18.5781 74.7813,18.5781 Q73.4375,18.5781 72.75,19.6563 Q72.0625,20.7188 72.0625,22.8125 Q72.0625,24.9063 72.75,25.9844 Q73.4375,27.0469 74.7813,27.0469 Q75.4063,27.0469 76,26.7813 Q76.5938,26.5 77.2188,25.9219 L77.2188,28.6406 Z " fill="#000000"/><text fill="#000000" font-family="sans-serif" font-size="14" lengthAdjust="spacing" textLength="107" x="94.75" y="27.8467">CatalogItemDto</text><line style="stroke:#181818;stroke-width:0.5;" x1="8" x2="256" y1="39" y2="39"/><ellipse cx="18" cy="52.6484" fill="none" rx="3" ry="3" style="stroke:#038048;stroke-width:1.0;"/><text fill="#000000" font-family="sans-serif" font-size="14" lengthAdjust="spacing" textLength="131" x="27" y="55.9951">Id : int &#171;get&#187; &#171;set&#187;</text><ellipse cx="18" cy="68.9453" fill="none" rx="3" ry="3" style="stroke:#038048;stroke-width:1.0;"/><text fill="#000000" font-family="sans-serif" font-size="14" lengthAdjust="spacing" textLength="181" x="27" y="72.292">Name : string &#171;get&#187; &#171;set&#187;</text><ellipse cx="18" cy="85.2422" fill="none" rx="3" ry="3" style="stroke:#038048;stroke-width:1.0;"/><text fill="#000000" font-family="sans-serif" font-size="14" lengthAdjust="spacing" textLength="220" x="27" y="88.5889">Description : string &#171;get&#187; &#171;set&#187;</text><ellipse cx="18" cy="101.5391" fill="none" rx="3" ry="3" style="stroke:#038048;stroke-width:1.0;"/><text fill="#000000" font-family="sans-serif" font-size="14" lengthAdjust="spacing" textLength="189" x="27" y="104.8857">Price : decimal &#171;get&#187; &#171;set&#187;</text><ellipse cx="18" cy="117.8359" fill="none" rx="3" ry="3" style="stroke:#038048;stroke-width:1.0;"/><text fill="#000000" font-family="sans-serif" font-size="14" lengthAdjust="spacing" textLength="207" x="27" y="121.1826">PictureUri : string &#171;get&#187; &#171;set&#187;</text><ellipse cx="18" cy="134.1328" fill="none" rx="3" ry="3" style="stroke:#038048;stroke-width:1.0;"/><text fill="#000000" font-family="sans-serif" font-size="14" lengthAdjust="spacing" textLength="217" x="27" y="137.4795">CatalogTypeId : int &#171;get&#187; &#171;set&#187;</text><ellipse cx="18" cy="150.4297" fill="none" rx="3" ry="3" style="stroke:#038048;stroke-width:1.0;"/><text fill="#000000" font-family="sans-serif" font-size="14" lengthAdjust="spacing" textLength="224" x="27" y="153.7764">CatalogBrandId : int &#171;get&#187; &#171;set&#187;</text><line style="stroke:#181818;stroke-width:0.5;" x1="8" x2="256" y1="161.0781" y2="161.0781"/><ellipse cx="18" cy="174.7266" fill="#84BE84" rx="3" ry="3" style="stroke:#038048;stroke-width:1.0;"/><text fill="#000000" font-family="sans-serif" font-size="14" lengthAdjust="spacing" textLength="117" x="27" y="178.0732">CatalogItemDto()</text></g><!--SRC=[ZT0z2W9130NWVa-HKl46icoXssmZ5dg0a0b3O7wMJ2n4lBkpCEqofdb5FXua5B0KkA9Xo7unZhDbWCy0TKwmE3Y398Dnz6pJLBDisTOtZ5n1CPNaTypCXLHMavnwzAv2MvzZaeXXJmdPI_cfqkjhLptUAtSEQVAYcDn_jBtgS1o-Fm00]--></g></svg>