<?xml version="1.0" encoding="us-ascii" standalone="no"?><svg xmlns="http://www.w3.org/2000/svg" xmlns:xlink="http://www.w3.org/1999/xlink" contentStyleType="text/css" height="142px" preserveAspectRatio="none" style="width:254px;height:142px;background:#FFFFFF;" version="1.1" viewBox="0 0 254 142" width="254px" zoomAndPan="magnify"><defs/><g><!--class Constants--><g id="elem_Constants"><rect codeLine="1" fill="#F1F1F1" height="121.4531" id="Constants" rx="2.5" ry="2.5" style="stroke:#181818;stroke-width:0.5;" width="233" x="7" y="7"/><ellipse cx="83.75" cy="27.1328" fill="#ADD1B2" rx="11" ry="11" style="stroke:#181818;stroke-width:1.0;"/><path d="M86.7188,32.7734 Q86.1406,33.0703 85.5,33.2109 Q84.8594,33.3672 84.1563,33.3672 Q81.6563,33.3672 80.3281,31.7266 Q79.0156,30.0703 79.0156,26.9453 Q79.0156,23.8203 80.3281,22.1641 Q81.6563,20.5078 84.1563,20.5078 Q84.8594,20.5078 85.5,20.6641 Q86.1563,20.8203 86.7188,21.1172 L86.7188,23.8359 Q86.0938,23.2578 85.5,22.9922 Q84.9063,22.7109 84.2813,22.7109 Q82.9375,22.7109 82.25,23.7891 Q81.5625,24.8516 81.5625,26.9453 Q81.5625,29.0391 82.25,30.1172 Q82.9375,31.1797 84.2813,31.1797 Q84.9063,31.1797 85.5,30.9141 Q86.0938,30.6328 86.7188,30.0547 L86.7188,32.7734 Z " fill="#000000"/><text fill="#000000" font-family="sans-serif" font-size="12" font-style="italic" lengthAdjust="spacing" textLength="49" x="115.25" y="23.1387">&#171;static&#187;</text><text fill="#000000" font-family="sans-serif" font-size="14" lengthAdjust="spacing" textLength="71" x="104.25" y="38.9639">Constants</text><line style="stroke:#181818;stroke-width:0.5;" x1="8" x2="239" y1="47.2656" y2="47.2656"/><ellipse cx="18" cy="60.9141" fill="none" rx="3" ry="3" style="stroke:#038048;stroke-width:1.0;"/><text fill="#000000" font-family="sans-serif" font-size="14" lengthAdjust="spacing" text-decoration="underline" textLength="207" x="27" y="64.2607">BASKET_COOKIENAME : string</text><ellipse cx="18" cy="77.2109" fill="none" rx="3" ry="3" style="stroke:#038048;stroke-width:1.0;"/><text fill="#000000" font-family="sans-serif" font-size="14" lengthAdjust="spacing" text-decoration="underline" textLength="152" x="27" y="80.5576">ITEMS_PER_PAGE : int</text><ellipse cx="18" cy="93.5078" fill="none" rx="3" ry="3" style="stroke:#038048;stroke-width:1.0;"/><text fill="#000000" font-family="sans-serif" font-size="14" lengthAdjust="spacing" text-decoration="underline" textLength="200" x="27" y="96.8545">DEFAULT_USERNAME : string</text><ellipse cx="18" cy="109.8047" fill="none" rx="3" ry="3" style="stroke:#038048;stroke-width:1.0;"/><text fill="#000000" font-family="sans-serif" font-size="14" lengthAdjust="spacing" text-decoration="underline" textLength="128" x="27" y="113.1514">BASKET_ID : string</text><line style="stroke:#181818;stroke-width:0.5;" x1="8" x2="239" y1="120.4531" y2="120.4531"/></g><!--SRC=[Iyv9B2vMSCxFAov9p2ifLh2n0J9ACfFjx1GKghaKW41ReHeYLAlWv1ZixHeIx-plx-tfwkVewwfWfL1SKfIPbuwkqZF4rJSuFi0rA3x0qHsaB3El15sDYwkROwXFI7nei6iGNiEWrdgw85JK0W00]--></g></svg>