<?xml version="1.0" encoding="us-ascii" standalone="no"?><svg xmlns="http://www.w3.org/2000/svg" xmlns:xlink="http://www.w3.org/1999/xlink" contentStyleType="text/css" height="391px" preserveAspectRatio="none" style="width:252px;height:391px;background:#FFFFFF;" version="1.1" viewBox="0 0 252 391" width="252px" zoomAndPan="magnify"><defs/><g><!--class BaseMessage--><g id="elem_BaseMessage"><rect codeLine="1" fill="#F1F1F1" height="96.8906" id="BaseMessage" rx="2.5" ry="2.5" style="stroke:#181818;stroke-width:0.5;" width="168" x="42" y="7"/><ellipse cx="74.1" cy="23" fill="#A9DCDF" rx="11" ry="11" style="stroke:#181818;stroke-width:1.0;"/><path d="M74.2094,18.3438 L73.0531,23.4219 L75.3813,23.4219 L74.2094,18.3438 Z M72.725,16.1094 L75.7094,16.1094 L79.0688,28.5 L76.6156,28.5 L75.85,25.4375 L72.5688,25.4375 L71.8188,28.5 L69.3813,28.5 L72.725,16.1094 Z " fill="#000000"/><text fill="#000000" font-family="sans-serif" font-size="14" font-style="italic" lengthAdjust="spacing" textLength="98" x="91.9" y="27.8467">BaseMessage</text><line style="stroke:#181818;stroke-width:0.5;" x1="43" x2="209" y1="39" y2="39"/><polygon fill="none" points="53,47.6484,57,51.6484,53,55.6484,49,51.6484" style="stroke:#B38D22;stroke-width:1.0;"/><text fill="#000000" font-family="sans-serif" font-size="14" lengthAdjust="spacing" textLength="137" x="62" y="55.9951">_correlationId : Guid</text><line style="stroke:#181818;stroke-width:0.5;" x1="43" x2="209" y1="63.2969" y2="63.2969"/><ellipse cx="53" cy="76.9453" fill="#84BE84" rx="3" ry="3" style="stroke:#038048;stroke-width:1.0;"/><text fill="#000000" font-family="sans-serif" font-size="14" lengthAdjust="spacing" textLength="142" x="62" y="80.292">CorrelationId() : Guid</text><polygon fill="#FFFF44" points="53,88.2422,57,92.2422,53,96.2422,49,92.2422" style="stroke:#B38D22;stroke-width:1.0;"/><text fill="#000000" font-family="sans-serif" font-size="14" lengthAdjust="spacing" textLength="108" x="62" y="96.5889">BaseMessage()</text></g><!--class BaseRequest--><g id="elem_BaseRequest"><rect codeLine="6" fill="#F1F1F1" height="64.2969" id="BaseRequest" rx="2.5" ry="2.5" style="stroke:#181818;stroke-width:0.5;" width="130" x="61" y="164"/><ellipse cx="77.8" cy="180" fill="#A9DCDF" rx="11" ry="11" style="stroke:#181818;stroke-width:1.0;"/><path d="M77.9094,175.3438 L76.7531,180.4219 L79.0813,180.4219 L77.9094,175.3438 Z M76.425,173.1094 L79.4094,173.1094 L82.7688,185.5 L80.3156,185.5 L79.55,182.4375 L76.2688,182.4375 L75.5188,185.5 L73.0813,185.5 L76.425,173.1094 Z " fill="#000000"/><text fill="#000000" font-family="sans-serif" font-size="14" font-style="italic" lengthAdjust="spacing" textLength="94" x="92.2" y="184.8467">BaseRequest</text><line style="stroke:#181818;stroke-width:0.5;" x1="62" x2="190" y1="196" y2="196"/><line style="stroke:#181818;stroke-width:0.5;" x1="62" x2="190" y1="204" y2="204"/><polygon fill="#FFFF44" points="72,212.6484,76,216.6484,72,220.6484,68,216.6484" style="stroke:#B38D22;stroke-width:1.0;"/><text fill="#000000" font-family="sans-serif" font-size="14" lengthAdjust="spacing" textLength="104" x="81" y="220.9951">BaseRequest()</text></g><!--class AuthenticateRequest--><g id="elem_AuthenticateRequest"><rect codeLine="10" fill="#F1F1F1" height="96.8906" id="AuthenticateRequest" rx="2.5" ry="2.5" style="stroke:#181818;stroke-width:0.5;" width="238" x="7" y="288"/><ellipse cx="48.55" cy="304" fill="#ADD1B2" rx="11" ry="11" style="stroke:#181818;stroke-width:1.0;"/><path d="M51.5188,309.6406 Q50.9406,309.9375 50.3,310.0781 Q49.6594,310.2344 48.9563,310.2344 Q46.4563,310.2344 45.1281,308.5938 Q43.8156,306.9375 43.8156,303.8125 Q43.8156,300.6875 45.1281,299.0313 Q46.4563,297.375 48.9563,297.375 Q49.6594,297.375 50.3,297.5313 Q50.9563,297.6875 51.5188,297.9844 L51.5188,300.7031 Q50.8938,300.125 50.3,299.8594 Q49.7063,299.5781 49.0813,299.5781 Q47.7375,299.5781 47.05,300.6563 Q46.3625,301.7188 46.3625,303.8125 Q46.3625,305.9063 47.05,306.9844 Q47.7375,308.0469 49.0813,308.0469 Q49.7063,308.0469 50.3,307.7813 Q50.8938,307.5 51.5188,306.9219 L51.5188,309.6406 Z " fill="#000000"/><text fill="#000000" font-family="sans-serif" font-size="14" lengthAdjust="spacing" textLength="147" x="68.45" y="308.8467">AuthenticateRequest</text><line style="stroke:#181818;stroke-width:0.5;" x1="8" x2="244" y1="320" y2="320"/><ellipse cx="18" cy="333.6484" fill="none" rx="3" ry="3" style="stroke:#038048;stroke-width:1.0;"/><text fill="#000000" font-family="sans-serif" font-size="14" lengthAdjust="spacing" textLength="212" x="27" y="336.9951">Username : string &#171;get&#187; &#171;set&#187;</text><ellipse cx="18" cy="349.9453" fill="none" rx="3" ry="3" style="stroke:#038048;stroke-width:1.0;"/><text fill="#000000" font-family="sans-serif" font-size="14" lengthAdjust="spacing" textLength="208" x="27" y="353.292">Password : string &#171;get&#187; &#171;set&#187;</text><line style="stroke:#181818;stroke-width:0.5;" x1="8" x2="244" y1="360.5938" y2="360.5938"/><ellipse cx="18" cy="374.2422" fill="#84BE84" rx="3" ry="3" style="stroke:#038048;stroke-width:1.0;"/><text fill="#000000" font-family="sans-serif" font-size="14" lengthAdjust="spacing" textLength="157" x="27" y="377.5889">AuthenticateRequest()</text></g><!--reverse link BaseMessage to BaseRequest--><g id="link_BaseMessage_BaseRequest"><path codeLine="9" d="M126,125.12 C126,138.66 126,152.24 126,163.77 " fill="none" id="BaseMessage-backto-BaseRequest" style="stroke:#181818;stroke-width:1.0;"/><polygon fill="none" points="119,125.16,126,105.16,133,125.16,119,125.16" style="stroke:#181818;stroke-width:1.0;"/></g><!--reverse link BaseRequest to AuthenticateRequest--><g id="link_BaseRequest_AuthenticateRequest"><path codeLine="15" d="M126,249.2 C126,261.81 126,275.21 126,287.61 " fill="none" id="BaseRequest-backto-AuthenticateRequest" style="stroke:#181818;stroke-width:1.0;"/><polygon fill="none" points="119,249.43,126,229.43,133,249.43,119,249.43" style="stroke:#181818;stroke-width:1.0;"/></g><!--SRC=[XOxD2i9038Jl-nI1NbfANq1AGJs81q44pnAteIxKNRf9yQ2-kslzMxHWBe7CPBx1FOj7BQ1RP8OPCgs86Hi2E2i8ay1EE- -fHJ7EBckOmA8tzQ3bC8-bD8l594vBCtLL-0lRKDSJomSM7OUVk55vAOhOe1uvqruEPCLebE-y7BPCtkAHGhC0DxQ1icn8gYfilk-dRnsIJixN_tmZi7VF5tpeEMAy0G00]--></g></svg>