<?xml version="1.0" encoding="us-ascii" standalone="no"?><svg xmlns="http://www.w3.org/2000/svg" xmlns:xlink="http://www.w3.org/1999/xlink" contentStyleType="text/css" height="158px" preserveAspectRatio="none" style="width:131px;height:158px;background:#FFFFFF;" version="1.1" viewBox="0 0 131 158" width="131px" zoomAndPan="magnify"><defs/><g><!--class ToastLevel--><g id="elem_ToastLevel"><rect codeLine="1" fill="#F1F1F1" height="137.75" id="ToastLevel" rx="2.5" ry="2.5" style="stroke:#181818;stroke-width:0.5;" width="110" x="7" y="7"/><ellipse cx="23.8" cy="27.1328" fill="#EB937F" rx="11" ry="11" style="stroke:#181818;stroke-width:1.0;"/><path d="M27.9094,33.1328 L20.1906,33.1328 L20.1906,20.7422 L27.9094,20.7422 L27.9094,22.8984 L22.6438,22.8984 L22.6438,25.5703 L27.4094,25.5703 L27.4094,27.7266 L22.6438,27.7266 L22.6438,30.9766 L27.9094,30.9766 L27.9094,33.1328 Z " fill="#000000"/><text fill="#000000" font-family="sans-serif" font-size="12" font-style="italic" lengthAdjust="spacing" textLength="56" x="47.2" y="23.1387">&#171;sealed&#187;</text><text fill="#000000" font-family="sans-serif" font-size="14" lengthAdjust="spacing" textLength="74" x="38.2" y="38.9639">ToastLevel</text><line style="stroke:#181818;stroke-width:0.5;" x1="8" x2="116" y1="47.2656" y2="47.2656"/><text fill="#000000" font-family="sans-serif" font-size="14" lengthAdjust="spacing" textLength="54" x="13" y="64.2607">Info = 0</text><text fill="#000000" font-family="sans-serif" font-size="14" lengthAdjust="spacing" textLength="88" x="13" y="80.5576">Success = 1</text><text fill="#000000" font-family="sans-serif" font-size="14" lengthAdjust="spacing" textLength="85" x="13" y="96.8545">Warning = 2</text><text fill="#000000" font-family="sans-serif" font-size="14" lengthAdjust="spacing" textLength="62" x="13" y="113.1514">Error = 3</text><line style="stroke:#181818;stroke-width:0.5;" x1="8" x2="116" y1="120.4531" y2="120.4531"/><ellipse cx="18" cy="134.1016" fill="#84BE84" rx="3" ry="3" style="stroke:#038048;stroke-width:1.0;"/><text fill="#000000" font-family="sans-serif" font-size="14" lengthAdjust="spacing" textLength="84" x="27" y="137.4482">ToastLevel()</text></g><!--SRC=[IyqhpLK8oKyiBl59BKlDKR2nAKvDp4bDiRDJKAZcKW02pxoqV0LR1GCm9xWqEJcrk1Z8DmJpmnEByZBpqe5y8p3VjQWelmZ8CmRpj95Crj3agWK0]--></g></svg>