<?xml version="1.0" encoding="us-ascii" standalone="no"?><svg xmlns="http://www.w3.org/2000/svg" xmlns:xlink="http://www.w3.org/1999/xlink" contentStyleType="text/css" height="1104px" preserveAspectRatio="none" style="width:2229px;height:1104px;background:#FFFFFF;" version="1.1" viewBox="0 0 2229 1104" width="2229px" zoomAndPan="magnify"><defs/><g><!--class CreateCatalogItemRequest--><g id="elem_CreateCatalogItemRequest"><rect codeLine="1" fill="#F1F1F1" height="194.6719" id="CreateCatalogItemRequest" rx="2.5" ry="2.5" style="stroke:#181818;stroke-width:0.5;" width="268" x="57" y="475.5"/><ellipse cx="94.05" cy="491.5" fill="#ADD1B2" rx="11" ry="11" style="stroke:#181818;stroke-width:1.0;"/><path d="M97.0188,497.1406 Q96.4406,497.4375 95.8,497.5781 Q95.1594,497.7344 94.4563,497.7344 Q91.9563,497.7344 90.6281,496.0938 Q89.3156,494.4375 89.3156,491.3125 Q89.3156,488.1875 90.6281,486.5313 Q91.9563,484.875 94.4563,484.875 Q95.1594,484.875 95.8,485.0313 Q96.4563,485.1875 97.0188,485.4844 L97.0188,488.2031 Q96.3938,487.625 95.8,487.3594 Q95.2063,487.0781 94.5813,487.0781 Q93.2375,487.0781 92.55,488.1563 Q91.8625,489.2188 91.8625,491.3125 Q91.8625,493.4063 92.55,494.4844 Q93.2375,495.5469 94.5813,495.5469 Q95.2063,495.5469 95.8,495.2813 Q96.3938,495 97.0188,494.4219 L97.0188,497.1406 Z " fill="#000000"/><text fill="#000000" font-family="sans-serif" font-size="14" lengthAdjust="spacing" textLength="187" x="112.95" y="496.3467">CreateCatalogItemRequest</text><line style="stroke:#181818;stroke-width:0.5;" x1="58" x2="324" y1="507.5" y2="507.5"/><ellipse cx="68" cy="521.1484" fill="none" rx="3" ry="3" style="stroke:#038048;stroke-width:1.0;"/><text fill="#000000" font-family="sans-serif" font-size="14" lengthAdjust="spacing" textLength="217" x="77" y="524.4951">CatalogTypeId : int &#171;get&#187; &#171;set&#187;</text><ellipse cx="68" cy="537.4453" fill="none" rx="3" ry="3" style="stroke:#038048;stroke-width:1.0;"/><text fill="#000000" font-family="sans-serif" font-size="14" lengthAdjust="spacing" textLength="224" x="77" y="540.792">CatalogBrandId : int &#171;get&#187; &#171;set&#187;</text><ellipse cx="68" cy="553.7422" fill="none" rx="3" ry="3" style="stroke:#038048;stroke-width:1.0;"/><text fill="#000000" font-family="sans-serif" font-size="14" lengthAdjust="spacing" textLength="181" x="77" y="557.0889">Name : string &#171;get&#187; &#171;set&#187;</text><ellipse cx="68" cy="570.0391" fill="none" rx="3" ry="3" style="stroke:#038048;stroke-width:1.0;"/><text fill="#000000" font-family="sans-serif" font-size="14" lengthAdjust="spacing" textLength="220" x="77" y="573.3857">Description : string &#171;get&#187; &#171;set&#187;</text><ellipse cx="68" cy="586.3359" fill="none" rx="3" ry="3" style="stroke:#038048;stroke-width:1.0;"/><text fill="#000000" font-family="sans-serif" font-size="14" lengthAdjust="spacing" textLength="189" x="77" y="589.6826">Price : decimal &#171;get&#187; &#171;set&#187;</text><ellipse cx="68" cy="602.6328" fill="none" rx="3" ry="3" style="stroke:#038048;stroke-width:1.0;"/><text fill="#000000" font-family="sans-serif" font-size="14" lengthAdjust="spacing" textLength="207" x="77" y="605.9795">PictureUri : string &#171;get&#187; &#171;set&#187;</text><ellipse cx="68" cy="618.9297" fill="none" rx="3" ry="3" style="stroke:#038048;stroke-width:1.0;"/><text fill="#000000" font-family="sans-serif" font-size="14" lengthAdjust="spacing" textLength="242" x="77" y="622.2764">PictureBase64 : string &#171;get&#187; &#171;set&#187;</text><ellipse cx="68" cy="635.2266" fill="none" rx="3" ry="3" style="stroke:#038048;stroke-width:1.0;"/><text fill="#000000" font-family="sans-serif" font-size="14" lengthAdjust="spacing" textLength="229" x="77" y="638.5732">PictureName : string &#171;get&#187; &#171;set&#187;</text><line style="stroke:#181818;stroke-width:0.5;" x1="58" x2="324" y1="645.875" y2="645.875"/><ellipse cx="68" cy="659.5234" fill="#84BE84" rx="3" ry="3" style="stroke:#038048;stroke-width:1.0;"/><text fill="#000000" font-family="sans-serif" font-size="14" lengthAdjust="spacing" textLength="197" x="77" y="662.8701">CreateCatalogItemRequest()</text></g><!--class CatalogItem--><g id="elem_CatalogItem"><rect codeLine="12" fill="#F1F1F1" height="276.1563" id="CatalogItem" rx="2.5" ry="2.5" style="stroke:#181818;stroke-width:0.5;" width="474" x="360" y="435"/><ellipse cx="551.75" cy="451" fill="#ADD1B2" rx="11" ry="11" style="stroke:#181818;stroke-width:1.0;"/><path d="M554.7188,456.6406 Q554.1406,456.9375 553.5,457.0781 Q552.8594,457.2344 552.1563,457.2344 Q549.6563,457.2344 548.3281,455.5938 Q547.0156,453.9375 547.0156,450.8125 Q547.0156,447.6875 548.3281,446.0313 Q549.6563,444.375 552.1563,444.375 Q552.8594,444.375 553.5,444.5313 Q554.1563,444.6875 554.7188,444.9844 L554.7188,447.7031 Q554.0938,447.125 553.5,446.8594 Q552.9063,446.5781 552.2813,446.5781 Q550.9375,446.5781 550.25,447.6563 Q549.5625,448.7188 549.5625,450.8125 Q549.5625,452.9063 550.25,453.9844 Q550.9375,455.0469 552.2813,455.0469 Q552.9063,455.0469 553.5,454.7813 Q554.0938,454.5 554.7188,453.9219 L554.7188,456.6406 Z " fill="#000000"/><text fill="#000000" font-family="sans-serif" font-size="14" lengthAdjust="spacing" textLength="82" x="572.25" y="455.8467">CatalogItem</text><line style="stroke:#181818;stroke-width:0.5;" x1="361" x2="833" y1="467" y2="467"/><ellipse cx="371" cy="480.6484" fill="none" rx="3" ry="3" style="stroke:#038048;stroke-width:1.0;"/><text fill="#000000" font-family="sans-serif" font-size="14" lengthAdjust="spacing" textLength="131" x="380" y="483.9951">Id : int &#171;get&#187; &#171;set&#187;</text><ellipse cx="371" cy="496.9453" fill="none" rx="3" ry="3" style="stroke:#038048;stroke-width:1.0;"/><text fill="#000000" font-family="sans-serif" font-size="14" lengthAdjust="spacing" textLength="217" x="380" y="500.292">CatalogTypeId : int &#171;get&#187; &#171;set&#187;</text><ellipse cx="371" cy="513.2422" fill="none" rx="3" ry="3" style="stroke:#038048;stroke-width:1.0;"/><text fill="#000000" font-family="sans-serif" font-size="14" lengthAdjust="spacing" textLength="227" x="380" y="516.5889">CatalogType : string &#171;get&#187; &#171;set&#187;</text><ellipse cx="371" cy="529.5391" fill="none" rx="3" ry="3" style="stroke:#038048;stroke-width:1.0;"/><text fill="#000000" font-family="sans-serif" font-size="14" lengthAdjust="spacing" textLength="224" x="380" y="532.8857">CatalogBrandId : int &#171;get&#187; &#171;set&#187;</text><ellipse cx="371" cy="545.8359" fill="none" rx="3" ry="3" style="stroke:#038048;stroke-width:1.0;"/><text fill="#000000" font-family="sans-serif" font-size="14" lengthAdjust="spacing" textLength="234" x="380" y="549.1826">CatalogBrand : string &#171;get&#187; &#171;set&#187;</text><ellipse cx="371" cy="562.1328" fill="none" rx="3" ry="3" style="stroke:#038048;stroke-width:1.0;"/><text fill="#000000" font-family="sans-serif" font-size="14" lengthAdjust="spacing" textLength="181" x="380" y="565.4795">Name : string &#171;get&#187; &#171;set&#187;</text><ellipse cx="371" cy="578.4297" fill="none" rx="3" ry="3" style="stroke:#038048;stroke-width:1.0;"/><text fill="#000000" font-family="sans-serif" font-size="14" lengthAdjust="spacing" textLength="220" x="380" y="581.7764">Description : string &#171;get&#187; &#171;set&#187;</text><ellipse cx="371" cy="594.7266" fill="none" rx="3" ry="3" style="stroke:#038048;stroke-width:1.0;"/><text fill="#000000" font-family="sans-serif" font-size="14" lengthAdjust="spacing" textLength="189" x="380" y="598.0732">Price : decimal &#171;get&#187; &#171;set&#187;</text><ellipse cx="371" cy="611.0234" fill="none" rx="3" ry="3" style="stroke:#038048;stroke-width:1.0;"/><text fill="#000000" font-family="sans-serif" font-size="14" lengthAdjust="spacing" textLength="207" x="380" y="614.3701">PictureUri : string &#171;get&#187; &#171;set&#187;</text><ellipse cx="371" cy="627.3203" fill="none" rx="3" ry="3" style="stroke:#038048;stroke-width:1.0;"/><text fill="#000000" font-family="sans-serif" font-size="14" lengthAdjust="spacing" textLength="242" x="380" y="630.667">PictureBase64 : string &#171;get&#187; &#171;set&#187;</text><ellipse cx="371" cy="643.6172" fill="none" rx="3" ry="3" style="stroke:#038048;stroke-width:1.0;"/><text fill="#000000" font-family="sans-serif" font-size="14" lengthAdjust="spacing" textLength="229" x="380" y="646.9639">PictureName : string &#171;get&#187; &#171;set&#187;</text><line style="stroke:#181818;stroke-width:0.5;" x1="361" x2="833" y1="654.2656" y2="654.2656"/><ellipse cx="371" cy="667.9141" fill="#84BE84" rx="3" ry="3" style="stroke:#038048;stroke-width:1.0;"/><text fill="#000000" font-family="sans-serif" font-size="14" lengthAdjust="spacing" text-decoration="underline" textLength="448" x="380" y="671.2607">IsValidImage(pictureName : string, pictureBase64 : string) : string</text><ellipse cx="371" cy="684.2109" fill="#84BE84" rx="3" ry="3" style="stroke:#038048;stroke-width:1.0;"/><text fill="#000000" font-family="sans-serif" font-size="14" lengthAdjust="spacing" text-decoration="underline" textLength="430" x="380" y="687.5576">&#171;async&#187; DataToBase64(fileItem : IFileListEntry) : Task&lt;string&gt;</text><ellipse cx="371" cy="700.5078" fill="#84BE84" rx="3" ry="3" style="stroke:#038048;stroke-width:1.0;"/><text fill="#000000" font-family="sans-serif" font-size="14" lengthAdjust="spacing" textLength="92" x="380" y="703.8545">CatalogItem()</text></g><!--class ICatalogItemService--><g id="elem_ICatalogItemService"><rect codeLine="28" fill="#F1F1F1" height="145.7813" id="ICatalogItemService" rx="2.5" ry="2.5" style="stroke:#181818;stroke-width:0.5;" width="514" x="7" y="7"/><ellipse cx="192.25" cy="23" fill="#B4A7E5" rx="11" ry="11" style="stroke:#181818;stroke-width:1.0;"/><path d="M188.1719,18.7656 L188.1719,16.6094 L195.5625,16.6094 L195.5625,18.7656 L193.0938,18.7656 L193.0938,26.8438 L195.5625,26.8438 L195.5625,29 L188.1719,29 L188.1719,26.8438 L190.6406,26.8438 L190.6406,18.7656 L188.1719,18.7656 Z " fill="#000000"/><text fill="#000000" font-family="sans-serif" font-size="14" font-style="italic" lengthAdjust="spacing" textLength="135" x="212.75" y="27.8467">ICatalogItemService</text><line style="stroke:#181818;stroke-width:0.5;" x1="8" x2="520" y1="39" y2="39"/><line style="stroke:#181818;stroke-width:0.5;" x1="8" x2="520" y1="47" y2="47"/><ellipse cx="18" cy="60.6484" fill="#84BE84" rx="3" ry="3" style="stroke:#038048;stroke-width:1.0;"/><text fill="#000000" font-family="sans-serif" font-size="14" lengthAdjust="spacing" textLength="488" x="27" y="63.9951">Create(catalogItem : CreateCatalogItemRequest) : Task&lt;CatalogItem&gt;</text><ellipse cx="18" cy="76.9453" fill="#84BE84" rx="3" ry="3" style="stroke:#038048;stroke-width:1.0;"/><text fill="#000000" font-family="sans-serif" font-size="14" lengthAdjust="spacing" textLength="363" x="27" y="80.292">Edit(catalogItem : CatalogItem) : Task&lt;CatalogItem&gt;</text><ellipse cx="18" cy="93.2422" fill="#84BE84" rx="3" ry="3" style="stroke:#038048;stroke-width:1.0;"/><text fill="#000000" font-family="sans-serif" font-size="14" lengthAdjust="spacing" textLength="207" x="27" y="96.5889">Delete(id : int) : Task&lt;string&gt;</text><ellipse cx="18" cy="109.5391" fill="#84BE84" rx="3" ry="3" style="stroke:#038048;stroke-width:1.0;"/><text fill="#000000" font-family="sans-serif" font-size="14" lengthAdjust="spacing" textLength="258" x="27" y="112.8857">GetById(id : int) : Task&lt;CatalogItem&gt;</text><ellipse cx="18" cy="125.8359" fill="#84BE84" rx="3" ry="3" style="stroke:#038048;stroke-width:1.0;"/><text fill="#000000" font-family="sans-serif" font-size="14" lengthAdjust="spacing" textLength="370" x="27" y="129.1826">ListPaged(pageSize : int) : Task&lt;List&lt;CatalogItem&gt;&gt;</text><ellipse cx="18" cy="142.1328" fill="#84BE84" rx="3" ry="3" style="stroke:#038048;stroke-width:1.0;"/><text fill="#000000" font-family="sans-serif" font-size="14" lengthAdjust="spacing" textLength="232" x="27" y="145.4795">List() : Task&lt;List&lt;CatalogItem&gt;&gt;</text></g><!--class ICatalogLookupDataService`1--><g id="elem_ICatalogLookupDataService`1"><rect codeLine="38" fill="#F1F1F1" height="64.2969" id="ICatalogLookupDataService`1" rx="2.5" ry="2.5" style="stroke:#181818;stroke-width:0.5;" width="322" x="869" y="541"/><ellipse cx="884" cy="557" fill="#B4A7E5" rx="11" ry="11" style="stroke:#181818;stroke-width:1.0;"/><path d="M879.9219,552.7656 L879.9219,550.6094 L887.3125,550.6094 L887.3125,552.7656 L884.8438,552.7656 L884.8438,560.8438 L887.3125,560.8438 L887.3125,563 L879.9219,563 L879.9219,560.8438 L882.3906,560.8438 L882.3906,552.7656 L879.9219,552.7656 Z " fill="#000000"/><text fill="#000000" font-family="sans-serif" font-size="14" font-style="italic" lengthAdjust="spacing" textLength="204" x="898" y="561.8467">ICatalogLookupDataService`1</text><rect fill="#FFFFFF" height="15.9688" style="stroke:#181818;stroke-width:1.0;stroke-dasharray:2.0,2.0;" width="84" x="1110" y="538"/><text fill="#000000" font-family="sans-serif" font-size="12" font-style="italic" lengthAdjust="spacing" textLength="82" x="1111" y="550.1387">TLookupData</text><line style="stroke:#181818;stroke-width:0.5;" x1="870" x2="1190" y1="573" y2="573"/><line style="stroke:#181818;stroke-width:0.5;" x1="870" x2="1190" y1="581" y2="581"/><ellipse cx="880" cy="594.6484" fill="#84BE84" rx="3" ry="3" style="stroke:#038048;stroke-width:1.0;"/><text fill="#000000" font-family="sans-serif" font-size="14" lengthAdjust="spacing" textLength="242" x="889" y="597.9951">List() : Task&lt;List&lt;TLookupData&gt;&gt;</text></g><!--class ToastLevel--><g id="elem_ToastLevel"><rect codeLine="41" fill="#F1F1F1" height="137.75" id="ToastLevel" rx="2.5" ry="2.5" style="stroke:#181818;stroke-width:0.5;" width="110" x="1485" y="960"/><ellipse cx="1501.8" cy="980.1328" fill="#EB937F" rx="11" ry="11" style="stroke:#181818;stroke-width:1.0;"/><path d="M1505.9094,986.1328 L1498.1906,986.1328 L1498.1906,973.7422 L1505.9094,973.7422 L1505.9094,975.8984 L1500.6438,975.8984 L1500.6438,978.5703 L1505.4094,978.5703 L1505.4094,980.7266 L1500.6438,980.7266 L1500.6438,983.9766 L1505.9094,983.9766 L1505.9094,986.1328 Z " fill="#000000"/><text fill="#000000" font-family="sans-serif" font-size="12" font-style="italic" lengthAdjust="spacing" textLength="56" x="1525.2" y="976.1387">&#171;sealed&#187;</text><text fill="#000000" font-family="sans-serif" font-size="14" lengthAdjust="spacing" textLength="74" x="1516.2" y="991.9639">ToastLevel</text><line style="stroke:#181818;stroke-width:0.5;" x1="1486" x2="1594" y1="1000.2656" y2="1000.2656"/><text fill="#000000" font-family="sans-serif" font-size="14" lengthAdjust="spacing" textLength="54" x="1491" y="1017.2607">Info = 0</text><text fill="#000000" font-family="sans-serif" font-size="14" lengthAdjust="spacing" textLength="88" x="1491" y="1033.5576">Success = 1</text><text fill="#000000" font-family="sans-serif" font-size="14" lengthAdjust="spacing" textLength="85" x="1491" y="1049.8545">Warning = 2</text><text fill="#000000" font-family="sans-serif" font-size="14" lengthAdjust="spacing" textLength="62" x="1491" y="1066.1514">Error = 3</text><line style="stroke:#181818;stroke-width:0.5;" x1="1486" x2="1594" y1="1073.4531" y2="1073.4531"/><ellipse cx="1496" cy="1087.1016" fill="#84BE84" rx="3" ry="3" style="stroke:#038048;stroke-width:1.0;"/><text fill="#000000" font-family="sans-serif" font-size="14" lengthAdjust="spacing" textLength="84" x="1505" y="1090.4482">ToastLevel()</text></g><!--class ToastService--><g id="elem_ToastService"><rect codeLine="48" fill="#F1F1F1" height="129.4844" id="ToastService" rx="2.5" ry="2.5" style="stroke:#181818;stroke-width:0.5;" width="396" x="1342" y="771"/><ellipse cx="1491.25" cy="787" fill="#ADD1B2" rx="11" ry="11" style="stroke:#181818;stroke-width:1.0;"/><path d="M1494.2188,792.6406 Q1493.6406,792.9375 1493,793.0781 Q1492.3594,793.2344 1491.6563,793.2344 Q1489.1563,793.2344 1487.8281,791.5938 Q1486.5156,789.9375 1486.5156,786.8125 Q1486.5156,783.6875 1487.8281,782.0313 Q1489.1563,780.375 1491.6563,780.375 Q1492.3594,780.375 1493,780.5313 Q1493.6563,780.6875 1494.2188,780.9844 L1494.2188,783.7031 Q1493.5938,783.125 1493,782.8594 Q1492.4063,782.5781 1491.7813,782.5781 Q1490.4375,782.5781 1489.75,783.6563 Q1489.0625,784.7188 1489.0625,786.8125 Q1489.0625,788.9063 1489.75,789.9844 Q1490.4375,791.0469 1491.7813,791.0469 Q1492.4063,791.0469 1493,790.7813 Q1493.5938,790.5 1494.2188,789.9219 L1494.2188,792.6406 Z " fill="#000000"/><text fill="#000000" font-family="sans-serif" font-size="14" lengthAdjust="spacing" textLength="89" x="1511.75" y="791.8467">ToastService</text><line style="stroke:#181818;stroke-width:0.5;" x1="1343" x2="1737" y1="803" y2="803"/><ellipse cx="1353" cy="816.6484" fill="none" rx="3" ry="3" style="stroke:#038048;stroke-width:1.0;"/><text fill="#000000" font-family="sans-serif" font-size="14" lengthAdjust="spacing" textLength="320" x="1362" y="819.9951">&#171;event&#187; OnShow : Action&lt;string, ToastLevel&gt;</text><ellipse cx="1353" cy="832.9453" fill="none" rx="3" ry="3" style="stroke:#038048;stroke-width:1.0;"/><text fill="#000000" font-family="sans-serif" font-size="14" lengthAdjust="spacing" textLength="168" x="1362" y="836.292">&#171;event&#187; OnHide : Action</text><line style="stroke:#181818;stroke-width:0.5;" x1="1343" x2="1737" y1="843.5938" y2="843.5938"/><ellipse cx="1353" cy="857.2422" fill="#84BE84" rx="3" ry="3" style="stroke:#038048;stroke-width:1.0;"/><text fill="#000000" font-family="sans-serif" font-size="14" lengthAdjust="spacing" textLength="370" x="1362" y="860.5889">ShowToast(message : string, level : ToastLevel) : void</text><ellipse cx="1353" cy="873.5391" fill="#84BE84" rx="3" ry="3" style="stroke:#038048;stroke-width:1.0;"/><text fill="#000000" font-family="sans-serif" font-size="14" lengthAdjust="spacing" textLength="108" x="1362" y="876.8857">Dispose() : void</text><ellipse cx="1353" cy="889.8359" fill="#84BE84" rx="3" ry="3" style="stroke:#038048;stroke-width:1.0;"/><text fill="#000000" font-family="sans-serif" font-size="14" lengthAdjust="spacing" textLength="99" x="1362" y="893.1826">ToastService()</text></g><!--class IDisposable--><g id="elem_IDisposable"><rect fill="#F1F1F1" height="48" id="IDisposable" rx="2.5" ry="2.5" style="stroke:#181818;stroke-width:0.5;" width="112" x="1226" y="549"/><ellipse cx="1241" cy="565" fill="#ADD1B2" rx="11" ry="11" style="stroke:#181818;stroke-width:1.0;"/><path d="M1243.9688,570.6406 Q1243.3906,570.9375 1242.75,571.0781 Q1242.1094,571.2344 1241.4063,571.2344 Q1238.9063,571.2344 1237.5781,569.5938 Q1236.2656,567.9375 1236.2656,564.8125 Q1236.2656,561.6875 1237.5781,560.0313 Q1238.9063,558.375 1241.4063,558.375 Q1242.1094,558.375 1242.75,558.5313 Q1243.4063,558.6875 1243.9688,558.9844 L1243.9688,561.7031 Q1243.3438,561.125 1242.75,560.8594 Q1242.1563,560.5781 1241.5313,560.5781 Q1240.1875,560.5781 1239.5,561.6563 Q1238.8125,562.7188 1238.8125,564.8125 Q1238.8125,566.9063 1239.5,567.9844 Q1240.1875,569.0469 1241.5313,569.0469 Q1242.1563,569.0469 1242.75,568.7813 Q1243.3438,568.5 1243.9688,567.9219 L1243.9688,570.6406 Z " fill="#000000"/><text fill="#000000" font-family="sans-serif" font-size="14" lengthAdjust="spacing" textLength="80" x="1255" y="569.8467">IDisposable</text><line style="stroke:#181818;stroke-width:0.5;" x1="1227" x2="1337" y1="581" y2="581"/><line style="stroke:#181818;stroke-width:0.5;" x1="1227" x2="1337" y1="589" y2="589"/></g><!--class HttpService--><g id="elem_HttpService"><rect codeLine="57" fill="#F1F1F1" height="129.4844" id="HttpService" rx="2.5" ry="2.5" style="stroke:#181818;stroke-width:0.5;" width="849" x="1373.5" y="508.5"/><ellipse cx="1754.25" cy="524.5" fill="#ADD1B2" rx="11" ry="11" style="stroke:#181818;stroke-width:1.0;"/><path d="M1757.2188,530.1406 Q1756.6406,530.4375 1756,530.5781 Q1755.3594,530.7344 1754.6563,530.7344 Q1752.1563,530.7344 1750.8281,529.0938 Q1749.5156,527.4375 1749.5156,524.3125 Q1749.5156,521.1875 1750.8281,519.5313 Q1752.1563,517.875 1754.6563,517.875 Q1755.3594,517.875 1756,518.0313 Q1756.6563,518.1875 1757.2188,518.4844 L1757.2188,521.2031 Q1756.5938,520.625 1756,520.3594 Q1755.4063,520.0781 1754.7813,520.0781 Q1753.4375,520.0781 1752.75,521.1563 Q1752.0625,522.2188 1752.0625,524.3125 Q1752.0625,526.4063 1752.75,527.4844 Q1753.4375,528.5469 1754.7813,528.5469 Q1755.4063,528.5469 1756,528.2813 Q1756.5938,528 1757.2188,527.4219 L1757.2188,530.1406 Z " fill="#000000"/><text fill="#000000" font-family="sans-serif" font-size="14" lengthAdjust="spacing" textLength="79" x="1774.75" y="529.3467">HttpService</text><line style="stroke:#181818;stroke-width:0.5;" x1="1374.5" x2="2221.5" y1="540.5" y2="540.5"/><line style="stroke:#181818;stroke-width:0.5;" x1="1374.5" x2="2221.5" y1="548.5" y2="548.5"/><ellipse cx="1384.5" cy="562.1484" fill="#84BE84" rx="3" ry="3" style="stroke:#038048;stroke-width:1.0;"/><text fill="#000000" font-family="sans-serif" font-size="14" lengthAdjust="spacing" textLength="823" x="1393.5" y="565.4951">HttpService(httpClient : HttpClient, baseUrlConfiguration : IOptions&lt;BaseUrlConfiguration&gt;, toastService : ToastService)</text><ellipse cx="1384.5" cy="578.4453" fill="#84BE84" rx="3" ry="3" style="stroke:#038048;stroke-width:1.0;"/><text fill="#000000" font-family="sans-serif" font-size="14" lengthAdjust="spacing" textLength="307" x="1393.5" y="581.792">&#171;async&#187; HttpGet&lt;T&gt;(uri : string) : Task&lt;T&gt;</text><ellipse cx="1384.5" cy="594.7422" fill="#84BE84" rx="3" ry="3" style="stroke:#038048;stroke-width:1.0;"/><text fill="#000000" font-family="sans-serif" font-size="14" lengthAdjust="spacing" textLength="378" x="1393.5" y="598.0889">&#171;async&#187; HttpDelete&lt;T&gt;(uri : string, id : int) : Task&lt;T&gt;</text><ellipse cx="1384.5" cy="611.0391" fill="#84BE84" rx="3" ry="3" style="stroke:#038048;stroke-width:1.0;"/><text fill="#000000" font-family="sans-serif" font-size="14" lengthAdjust="spacing" textLength="461" x="1393.5" y="614.3857">&#171;async&#187; HttpPost&lt;T&gt;(uri : string, dataToSend : object) : Task&lt;T&gt;</text><ellipse cx="1384.5" cy="627.3359" fill="#84BE84" rx="3" ry="3" style="stroke:#038048;stroke-width:1.0;"/><text fill="#000000" font-family="sans-serif" font-size="14" lengthAdjust="spacing" textLength="453" x="1393.5" y="630.6826">&#171;async&#187; HttpPut&lt;T&gt;(uri : string, dataToSend : object) : Task&lt;T&gt;</text></g><!--class CatalogItemService--><g id="elem_CatalogItemService"><rect codeLine="67" fill="#F1F1F1" height="162.0781" id="CatalogItemService" rx="2.5" ry="2.5" style="stroke:#181818;stroke-width:0.5;" width="1425" x="317.5" y="213"/><ellipse cx="959.75" cy="229" fill="#ADD1B2" rx="11" ry="11" style="stroke:#181818;stroke-width:1.0;"/><path d="M962.7188,234.6406 Q962.1406,234.9375 961.5,235.0781 Q960.8594,235.2344 960.1563,235.2344 Q957.6563,235.2344 956.3281,233.5938 Q955.0156,231.9375 955.0156,228.8125 Q955.0156,225.6875 956.3281,224.0313 Q957.6563,222.375 960.1563,222.375 Q960.8594,222.375 961.5,222.5313 Q962.1563,222.6875 962.7188,222.9844 L962.7188,225.7031 Q962.0938,225.125 961.5,224.8594 Q960.9063,224.5781 960.2813,224.5781 Q958.9375,224.5781 958.25,225.6563 Q957.5625,226.7188 957.5625,228.8125 Q957.5625,230.9063 958.25,231.9844 Q958.9375,233.0469 960.2813,233.0469 Q960.9063,233.0469 961.5,232.7813 Q962.0938,232.5 962.7188,231.9219 L962.7188,234.6406 Z " fill="#000000"/><text fill="#000000" font-family="sans-serif" font-size="14" lengthAdjust="spacing" textLength="132" x="980.25" y="233.8467">CatalogItemService</text><line style="stroke:#181818;stroke-width:0.5;" x1="318.5" x2="1741.5" y1="245" y2="245"/><line style="stroke:#181818;stroke-width:0.5;" x1="318.5" x2="1741.5" y1="253" y2="253"/><ellipse cx="328.5" cy="266.6484" fill="#84BE84" rx="3" ry="3" style="stroke:#038048;stroke-width:1.0;"/><text fill="#000000" font-family="sans-serif" font-size="14" lengthAdjust="spacing" textLength="1399" x="337.5" y="269.9951">CatalogItemService(brandService : ICatalogLookupDataService&lt;CatalogBrand&gt;, typeService : ICatalogLookupDataService&lt;CatalogType&gt;, httpService : HttpService, logger : ILogger&lt;CatalogItemService&gt;)</text><ellipse cx="328.5" cy="282.9453" fill="#84BE84" rx="3" ry="3" style="stroke:#038048;stroke-width:1.0;"/><text fill="#000000" font-family="sans-serif" font-size="14" lengthAdjust="spacing" textLength="550" x="337.5" y="286.292">&#171;async&#187; Create(catalogItem : CreateCatalogItemRequest) : Task&lt;CatalogItem&gt;</text><ellipse cx="328.5" cy="299.2422" fill="#84BE84" rx="3" ry="3" style="stroke:#038048;stroke-width:1.0;"/><text fill="#000000" font-family="sans-serif" font-size="14" lengthAdjust="spacing" textLength="425" x="337.5" y="302.5889">&#171;async&#187; Edit(catalogItem : CatalogItem) : Task&lt;CatalogItem&gt;</text><ellipse cx="328.5" cy="315.5391" fill="#84BE84" rx="3" ry="3" style="stroke:#038048;stroke-width:1.0;"/><text fill="#000000" font-family="sans-serif" font-size="14" lengthAdjust="spacing" textLength="349" x="337.5" y="318.8857">&#171;async&#187; Delete(catalogItemId : int) : Task&lt;string&gt;</text><ellipse cx="328.5" cy="331.8359" fill="#84BE84" rx="3" ry="3" style="stroke:#038048;stroke-width:1.0;"/><text fill="#000000" font-family="sans-serif" font-size="14" lengthAdjust="spacing" textLength="320" x="337.5" y="335.1826">&#171;async&#187; GetById(id : int) : Task&lt;CatalogItem&gt;</text><ellipse cx="328.5" cy="348.1328" fill="#84BE84" rx="3" ry="3" style="stroke:#038048;stroke-width:1.0;"/><text fill="#000000" font-family="sans-serif" font-size="14" lengthAdjust="spacing" textLength="432" x="337.5" y="351.4795">&#171;async&#187; ListPaged(pageSize : int) : Task&lt;List&lt;CatalogItem&gt;&gt;</text><ellipse cx="328.5" cy="364.4297" fill="#84BE84" rx="3" ry="3" style="stroke:#038048;stroke-width:1.0;"/><text fill="#000000" font-family="sans-serif" font-size="14" lengthAdjust="spacing" textLength="294" x="337.5" y="367.7764">&#171;async&#187; List() : Task&lt;List&lt;CatalogItem&gt;&gt;</text></g><!--link ICatalogItemService to CreateCatalogItemRequest--><g id="link_ICatalogItemService_CreateCatalogItemRequest"><path codeLine="36" d="M248.86,153.47 C245.06,172.77 241.17,193.64 238,213 C223.87,299.3 211.21,397.83 202.61,469.81 " fill="none" id="ICatalogItemService-to-CreateCatalogItemRequest" style="stroke:#181818;stroke-width:1.0;stroke-dasharray:7.0,7.0;"/><polygon fill="#181818" points="201.94,474.38,206.9684,465.9115,202.5267,469.4145,199.0237,464.9728,201.94,474.38" style="stroke:#181818;stroke-width:1.0;"/></g><!--link ICatalogItemService to CatalogItem--><g id="link_ICatalogItemService_CatalogItem"><path codeLine="37" d="M256.7,153.29 C253.88,216.43 258.71,308.18 300,375 C314.94,399.18 334.08,421.03 355.44,440.6 " fill="none" id="ICatalogItemService-to-CatalogItem" style="stroke:#181818;stroke-width:1.0;stroke-dasharray:7.0,7.0;"/><polygon fill="#181818" points="358.74,443.48,354.7453,434.4776,355.0306,440.1273,349.381,440.4126,358.74,443.48" style="stroke:#181818;stroke-width:1.0;"/></g><!--reverse link IDisposable to ToastService--><g id="link_IDisposable_ToastService"><path codeLine="55" d="M1298.57,616.63 C1311.26,645.51 1330.84,683.31 1356,711 C1376.18,733.21 1401.14,753.35 1426.1,770.62 " fill="none" id="IDisposable-backto-ToastService" style="stroke:#181818;stroke-width:1.0;stroke-dasharray:7.0,7.0;"/><polygon fill="none" points="1291.81,619.61,1290.58,598.45,1304.73,614.22,1291.81,619.61" style="stroke:#181818;stroke-width:1.0;"/></g><!--link ToastService to ToastLevel--><g id="link_ToastService_ToastLevel"><path codeLine="56" d="M1540,900.27 C1540,917.37 1540,936.02 1540,953.65 " fill="none" id="ToastService-to-ToastLevel" style="stroke:#181818;stroke-width:1.0;stroke-dasharray:7.0,7.0;"/><polygon fill="#181818" points="1540,958.58,1544,949.58,1540,953.58,1536,949.58,1540,958.58" style="stroke:#181818;stroke-width:1.0;"/></g><!--link HttpService to ToastService--><g id="link_HttpService_ToastService"><path codeLine="64" d="M1734.89,637.73 C1696.16,676.83 1646.59,726.87 1607.14,766.71 " fill="none" id="HttpService-to-ToastService" style="stroke:#181818;stroke-width:1.0;stroke-dasharray:7.0,7.0;"/><polygon fill="#181818" points="1604.36,769.53,1613.5308,765.9388,1607.874,765.9731,1607.8398,760.3164,1604.36,769.53" style="stroke:#181818;stroke-width:1.0;"/></g><!--reverse link ICatalogItemService to CatalogItemService--><g id="link_ICatalogItemService_CatalogItemService"><path codeLine="76" d="M541.3,157.75 C605.68,175.57 674.39,194.58 739.34,212.56 " fill="none" id="ICatalogItemService-backto-CatalogItemService" style="stroke:#181818;stroke-width:1.0;stroke-dasharray:7.0,7.0;"/><polygon fill="none" points="539.87,164.34,522.46,152.26,543.61,150.84,539.87,164.34" style="stroke:#181818;stroke-width:1.0;"/></g><!--link CatalogItemService to ICatalogLookupDataService`1--><g id="link_CatalogItemService_ICatalogLookupDataService`1"><path codeLine="77" d="M1018.3,375.49 C1016.28,428.02 1017.17,494.13 1020.96,534.71 " fill="none" id="CatalogItemService-to-ICatalogLookupDataService`1" style="stroke:#181818;stroke-width:1.0;stroke-dasharray:7.0,7.0;"/><polygon fill="#181818" points="1021.54,539.51,1024.6193,530.1549,1021.0397,534.5351,1016.6594,530.9555,1021.54,539.51" style="stroke:#181818;stroke-width:1.0;"/><text fill="#000000" font-family="sans-serif" font-size="13" lengthAdjust="spacing" textLength="109" x="900.5383" y="529.9382">&lt;CatalogBrand&gt;</text></g><!--link CatalogItemService to ICatalogLookupDataService`1--><g id="link_CatalogItemService_ICatalogLookupDataService`1"><path codeLine="78" d="M1042.39,375.49 C1044.52,428.02 1043.58,494.13 1039.57,534.71 " fill="none" id="CatalogItemService-to-ICatalogLookupDataService`1-1" style="stroke:#181818;stroke-width:1.0;stroke-dasharray:7.0,7.0;"/><polygon fill="#181818" points="1038.96,539.51,1043.8891,530.9833,1039.4886,534.538,1035.934,530.1375,1038.96,539.51" style="stroke:#181818;stroke-width:1.0;"/><text fill="#000000" font-family="sans-serif" font-size="13" lengthAdjust="spacing" textLength="101" x="1050.2946" y="529.9382">&lt;CatalogType&gt;</text></g><!--link CatalogItemService to HttpService--><g id="link_CatalogItemService_HttpService"><path codeLine="79" d="M1253.17,375.49 C1368.15,416.96 1506.61,466.9 1615.17,506.06 " fill="none" id="CatalogItemService-to-HttpService" style="stroke:#181818;stroke-width:1.0;stroke-dasharray:7.0,7.0;"/><polygon fill="#181818" points="1619.64,508.03,1612.5372,501.2073,1614.9381,506.3293,1609.8161,508.7303,1619.64,508.03" style="stroke:#181818;stroke-width:1.0;"/></g><!--link CatalogItemService to CreateCatalogItemRequest--><g id="link_CatalogItemService_CreateCatalogItemRequest"><path codeLine="80" d="M490.37,375.44 C438.93,391.76 388.62,411.39 342,435 C322.79,444.73 304.18,457.57 286.97,471.5 " fill="none" id="CatalogItemService-to-CreateCatalogItemRequest" style="stroke:#181818;stroke-width:1.0;stroke-dasharray:7.0,7.0;"/><polygon fill="#181818" points="283.62,475.07,293.117,472.461,287.4879,471.9015,288.0474,466.2724,283.62,475.07" style="stroke:#181818;stroke-width:1.0;"/></g><!--link CatalogItemService to CatalogItem--><g id="link_CatalogItemService_CatalogItem"><path codeLine="81" d="M904.18,375.49 C876.56,393.16 846.55,412.36 816.46,431.61 " fill="none" id="CatalogItemService-to-CatalogItem" style="stroke:#181818;stroke-width:1.0;stroke-dasharray:7.0,7.0;"/><polygon fill="#181818" points="812.63,434.7,822.3695,433.2364,816.8465,432.0128,818.0701,426.4899,812.63,434.7" style="stroke:#181818;stroke-width:1.0;"/></g><!--SRC=[vLRVRzem47xFNs7nb6e8hTkq1-H66hHR8w6r6kdsEfCSr6k8Czlfn3h-zzbEI1oI441x6m_W7z_t-NntlYECYH1eoe58c199OhRo9Qo_mCyCX4JenK7gymeLUy4c1Jz2OqGJYJ1UWVGyzIlqRnqvuII9Ug2VoHeKG4XEarK7vXf4o6agAKlweFUSXbelWf2kITo5eg7CE3nmsgkN8oT4mFjtHuAFkLANjzqBP-k4UK2gpIe6npd- -11fPA-jnqVJXlR9_gUHVn6II1fkaI- -afX6_fgim4rR18OeRRNXeXpjIs9Cn2O9rPdNAX01oudkaiPWqcYC_8zgFAD2tYIIRxHIGCGJpkNsegWf9XzLl84lYNAlRstDWJzhbrVrmUIq6rfvE-vCzF9eQsjt_ar4vRvCDJl4l8OOb0cqoDAE-tq2ETduKHFMegXzTQyY5Bcf-fxJtx37qO0QqMQwXs1RfysTev7NwRHkGhNS4gqPOqzPgbEYu7o_n46rw5KXRB7P1cgR8SdMA614o1ayGsoocyGGUQMCdomPkaAlpMIUXI6eQdQ5Bity6-69VXnNw8sPtt3Ek9gzBIoebArIQ1OR-OQnWYNwXTqbyqVsIvdz8TIb0k_UJoNcjN1kQGGbfzZNEeRbhfNLAkBMQupDVSUMglRKCwFHBlkeI9a0Ts_PjjvSoi-1P143mdz6enh2gLrM1xSwht37hPHfmnlMelkenjEOgeigIsxBoH0jL45uuF6K9KkwoZWf2gj_Pqgim9EMVM-8f6tIk6RkHUdONUdHvwaNXWFFpQmoMsPLuBLIygUxpngYnYFjuDyp8PlioDJ1EPXsn1O_8EmNoaxNsJfsJCgWxKBgD5jwiteszjo5RgELspkVCxRRhWwNQkedqFH_0CLwj6umjjD9PJvRhO1hhPaPuQQnNZCH_ba_g2JFxmnMQynxXANY7suN5VMKnb6npcyXTOqpcecfBirrfwED3EgPD4230oraqAjY4kjC4Il_d5ExP7-J_0i0]--></g></svg>