<?xml version="1.0" encoding="us-ascii" standalone="no"?><svg xmlns="http://www.w3.org/2000/svg" xmlns:xlink="http://www.w3.org/1999/xlink" contentStyleType="text/css" height="202px" preserveAspectRatio="none" style="width:264px;height:202px;background:#FFFFFF;" version="1.1" viewBox="0 0 264 202" width="264px" zoomAndPan="magnify"><defs/><g><!--class GetMyOrders--><g id="elem_GetMyOrders"><rect codeLine="1" fill="#F1F1F1" height="80.5938" id="GetMyOrders" rx="2.5" ry="2.5" style="stroke:#181818;stroke-width:0.5;" width="250" x="7" y="115"/><ellipse cx="82.25" cy="131" fill="#ADD1B2" rx="11" ry="11" style="stroke:#181818;stroke-width:1.0;"/><path d="M85.2188,136.6406 Q84.6406,136.9375 84,137.0781 Q83.3594,137.2344 82.6563,137.2344 Q80.1563,137.2344 78.8281,135.5938 Q77.5156,133.9375 77.5156,130.8125 Q77.5156,127.6875 78.8281,126.0313 Q80.1563,124.375 82.6563,124.375 Q83.3594,124.375 84,124.5313 Q84.6563,124.6875 85.2188,124.9844 L85.2188,127.7031 Q84.5938,127.125 84,126.8594 Q83.4063,126.5781 82.7813,126.5781 Q81.4375,126.5781 80.75,127.6563 Q80.0625,128.7188 80.0625,130.8125 Q80.0625,132.9063 80.75,133.9844 Q81.4375,135.0469 82.7813,135.0469 Q83.4063,135.0469 84,134.7813 Q84.5938,134.5 85.2188,133.9219 L85.2188,136.6406 Z " fill="#000000"/><text fill="#000000" font-family="sans-serif" font-size="14" lengthAdjust="spacing" textLength="91" x="102.75" y="135.8467">GetMyOrders</text><line style="stroke:#181818;stroke-width:0.5;" x1="8" x2="256" y1="147" y2="147"/><ellipse cx="18" cy="160.6484" fill="none" rx="3" ry="3" style="stroke:#038048;stroke-width:1.0;"/><text fill="#000000" font-family="sans-serif" font-size="14" lengthAdjust="spacing" textLength="213" x="27" y="163.9951">UserName : string &#171;get&#187; &#171;set&#187;</text><line style="stroke:#181818;stroke-width:0.5;" x1="8" x2="256" y1="171.2969" y2="171.2969"/><ellipse cx="18" cy="184.9453" fill="#84BE84" rx="3" ry="3" style="stroke:#038048;stroke-width:1.0;"/><text fill="#000000" font-family="sans-serif" font-size="14" lengthAdjust="spacing" textLength="224" x="27" y="188.292">GetMyOrders(userName : string)</text></g><!--class IRequest`1--><g id="elem_IRequest`1"><rect fill="#F1F1F1" height="48" id="IRequest`1" rx="2.5" ry="2.5" style="stroke:#181818;stroke-width:0.5;" width="110" x="77" y="7"/><ellipse cx="92" cy="23" fill="#ADD1B2" rx="11" ry="11" style="stroke:#181818;stroke-width:1.0;"/><path d="M94.9688,28.6406 Q94.3906,28.9375 93.75,29.0781 Q93.1094,29.2344 92.4063,29.2344 Q89.9063,29.2344 88.5781,27.5938 Q87.2656,25.9375 87.2656,22.8125 Q87.2656,19.6875 88.5781,18.0313 Q89.9063,16.375 92.4063,16.375 Q93.1094,16.375 93.75,16.5313 Q94.4063,16.6875 94.9688,16.9844 L94.9688,19.7031 Q94.3438,19.125 93.75,18.8594 Q93.1563,18.5781 92.5313,18.5781 Q91.1875,18.5781 90.5,19.6563 Q89.8125,20.7188 89.8125,22.8125 Q89.8125,24.9063 90.5,25.9844 Q91.1875,27.0469 92.5313,27.0469 Q93.1563,27.0469 93.75,26.7813 Q94.3438,26.5 94.9688,25.9219 L94.9688,28.6406 Z " fill="#000000"/><text fill="#000000" font-family="sans-serif" font-size="14" lengthAdjust="spacing" textLength="78" x="106" y="27.8467">IRequest`1</text><line style="stroke:#181818;stroke-width:0.5;" x1="78" x2="186" y1="39" y2="39"/><line style="stroke:#181818;stroke-width:0.5;" x1="78" x2="186" y1="47" y2="47"/></g><!--reverse link IRequest`1 to GetMyOrders--><g id="link_IRequest`1_GetMyOrders"><path codeLine="5" d="M132,75.89 C132,88.61 132,102.42 132,114.87 " fill="none" id="IRequest`1-backto-GetMyOrders" style="stroke:#181818;stroke-width:1.0;stroke-dasharray:7.0,7.0;"/><polygon fill="none" points="125,76.33,132,56.33,139,76.33,125,76.33" style="stroke:#181818;stroke-width:1.0;"/><text fill="#000000" font-family="sans-serif" font-size="13" lengthAdjust="spacing" textLength="102" x="17.5688" y="75.1716">&lt;IEnumerable&gt;</text></g><!--SRC=[Iyv9B2vMS4yjyQtqBqf9BIfMKAZcKW02RONGujGYlyJSL0KhXUAIeioyT0KRc_JK4Zix85qCeg7ga3HhbABhqUIgvLBo34ejB4qjBaamL59Gil5qpIlDJIrAJCf9jLDIiAdHqqCs0W00]--></g></svg>