<?xml version="1.0" encoding="us-ascii" standalone="no"?><svg xmlns="http://www.w3.org/2000/svg" xmlns:xlink="http://www.w3.org/1999/xlink" contentStyleType="text/css" height="970px" preserveAspectRatio="none" style="width:969px;height:970px;background:#FFFFFF;" version="1.1" viewBox="0 0 969 970" width="969px" zoomAndPan="magnify"><defs/><g><!--class BlazorComponent--><g id="elem_BlazorComponent"><rect codeLine="1" fill="#F1F1F1" height="96.8906" id="BlazorComponent" rx="2.5" ry="2.5" style="stroke:#181818;stroke-width:0.5;" width="238" x="502" y="116"/><ellipse cx="554.25" cy="132" fill="#ADD1B2" rx="11" ry="11" style="stroke:#181818;stroke-width:1.0;"/><path d="M557.2188,137.6406 Q556.6406,137.9375 556,138.0781 Q555.3594,138.2344 554.6563,138.2344 Q552.1563,138.2344 550.8281,136.5938 Q549.5156,134.9375 549.5156,131.8125 Q549.5156,128.6875 550.8281,127.0313 Q552.1563,125.375 554.6563,125.375 Q555.3594,125.375 556,125.5313 Q556.6563,125.6875 557.2188,125.9844 L557.2188,128.7031 Q556.5938,128.125 556,127.8594 Q555.4063,127.5781 554.7813,127.5781 Q553.4375,127.5781 552.75,128.6563 Q552.0625,129.7188 552.0625,131.8125 Q552.0625,133.9063 552.75,134.9844 Q553.4375,136.0469 554.7813,136.0469 Q555.4063,136.0469 556,135.7813 Q556.5938,135.5 557.2188,134.9219 L557.2188,137.6406 Z " fill="#000000"/><text fill="#000000" font-family="sans-serif" font-size="14" lengthAdjust="spacing" textLength="125" x="574.75" y="136.8467">BlazorComponent</text><line style="stroke:#181818;stroke-width:0.5;" x1="503" x2="739" y1="148" y2="148"/><line style="stroke:#181818;stroke-width:0.5;" x1="503" x2="739" y1="156" y2="156"/><polygon fill="#FFFF44" points="513,164.6484,517,168.6484,513,172.6484,509,168.6484" style="stroke:#B38D22;stroke-width:1.0;"/><text fill="#000000" font-family="sans-serif" font-size="14" lengthAdjust="spacing" textLength="212" x="522" y="172.9951">&#171;override&#187; OnInitialized() : void</text><ellipse cx="513" cy="185.9453" fill="#84BE84" rx="3" ry="3" style="stroke:#038048;stroke-width:1.0;"/><text fill="#000000" font-family="sans-serif" font-size="14" lengthAdjust="spacing" textLength="188" x="522" y="189.292">CallRequestRefresh() : void</text><ellipse cx="513" cy="202.2422" fill="#84BE84" rx="3" ry="3" style="stroke:#038048;stroke-width:1.0;"/><text fill="#000000" font-family="sans-serif" font-size="14" lengthAdjust="spacing" textLength="135" x="522" y="205.5889">BlazorComponent()</text></g><!--class ComponentBase--><g id="elem_ComponentBase"><rect fill="#F1F1F1" height="48" id="ComponentBase" rx="2.5" ry="2.5" style="stroke:#181818;stroke-width:0.5;" width="149" x="546.5" y="7"/><ellipse cx="561.5" cy="23" fill="#ADD1B2" rx="11" ry="11" style="stroke:#181818;stroke-width:1.0;"/><path d="M564.4688,28.6406 Q563.8906,28.9375 563.25,29.0781 Q562.6094,29.2344 561.9063,29.2344 Q559.4063,29.2344 558.0781,27.5938 Q556.7656,25.9375 556.7656,22.8125 Q556.7656,19.6875 558.0781,18.0313 Q559.4063,16.375 561.9063,16.375 Q562.6094,16.375 563.25,16.5313 Q563.9063,16.6875 564.4688,16.9844 L564.4688,19.7031 Q563.8438,19.125 563.25,18.8594 Q562.6563,18.5781 562.0313,18.5781 Q560.6875,18.5781 560,19.6563 Q559.3125,20.7188 559.3125,22.8125 Q559.3125,24.9063 560,25.9844 Q560.6875,27.0469 562.0313,27.0469 Q562.6563,27.0469 563.25,26.7813 Q563.8438,26.5 564.4688,25.9219 L564.4688,28.6406 Z " fill="#000000"/><text fill="#000000" font-family="sans-serif" font-size="14" lengthAdjust="spacing" textLength="117" x="575.5" y="27.8467">ComponentBase</text><line style="stroke:#181818;stroke-width:0.5;" x1="547.5" x2="694.5" y1="39" y2="39"/><line style="stroke:#181818;stroke-width:0.5;" x1="547.5" x2="694.5" y1="47" y2="47"/></g><!--class CreateCatalogItemRequest--><g id="elem_CreateCatalogItemRequest"><rect codeLine="7" fill="#F1F1F1" height="194.6719" id="CreateCatalogItemRequest" rx="2.5" ry="2.5" style="stroke:#181818;stroke-width:0.5;" width="268" x="7" y="727.5"/><ellipse cx="44.05" cy="743.5" fill="#ADD1B2" rx="11" ry="11" style="stroke:#181818;stroke-width:1.0;"/><path d="M47.0188,749.1406 Q46.4406,749.4375 45.8,749.5781 Q45.1594,749.7344 44.4563,749.7344 Q41.9563,749.7344 40.6281,748.0938 Q39.3156,746.4375 39.3156,743.3125 Q39.3156,740.1875 40.6281,738.5313 Q41.9563,736.875 44.4563,736.875 Q45.1594,736.875 45.8,737.0313 Q46.4563,737.1875 47.0188,737.4844 L47.0188,740.2031 Q46.3938,739.625 45.8,739.3594 Q45.2063,739.0781 44.5813,739.0781 Q43.2375,739.0781 42.55,740.1563 Q41.8625,741.2188 41.8625,743.3125 Q41.8625,745.4063 42.55,746.4844 Q43.2375,747.5469 44.5813,747.5469 Q45.2063,747.5469 45.8,747.2813 Q46.3938,747 47.0188,746.4219 L47.0188,749.1406 Z " fill="#000000"/><text fill="#000000" font-family="sans-serif" font-size="14" lengthAdjust="spacing" textLength="187" x="62.95" y="748.3467">CreateCatalogItemRequest</text><line style="stroke:#181818;stroke-width:0.5;" x1="8" x2="274" y1="759.5" y2="759.5"/><ellipse cx="18" cy="773.1484" fill="none" rx="3" ry="3" style="stroke:#038048;stroke-width:1.0;"/><text fill="#000000" font-family="sans-serif" font-size="14" lengthAdjust="spacing" textLength="217" x="27" y="776.4951">CatalogTypeId : int &#171;get&#187; &#171;set&#187;</text><ellipse cx="18" cy="789.4453" fill="none" rx="3" ry="3" style="stroke:#038048;stroke-width:1.0;"/><text fill="#000000" font-family="sans-serif" font-size="14" lengthAdjust="spacing" textLength="224" x="27" y="792.792">CatalogBrandId : int &#171;get&#187; &#171;set&#187;</text><ellipse cx="18" cy="805.7422" fill="none" rx="3" ry="3" style="stroke:#038048;stroke-width:1.0;"/><text fill="#000000" font-family="sans-serif" font-size="14" lengthAdjust="spacing" textLength="181" x="27" y="809.0889">Name : string &#171;get&#187; &#171;set&#187;</text><ellipse cx="18" cy="822.0391" fill="none" rx="3" ry="3" style="stroke:#038048;stroke-width:1.0;"/><text fill="#000000" font-family="sans-serif" font-size="14" lengthAdjust="spacing" textLength="220" x="27" y="825.3857">Description : string &#171;get&#187; &#171;set&#187;</text><ellipse cx="18" cy="838.3359" fill="none" rx="3" ry="3" style="stroke:#038048;stroke-width:1.0;"/><text fill="#000000" font-family="sans-serif" font-size="14" lengthAdjust="spacing" textLength="189" x="27" y="841.6826">Price : decimal &#171;get&#187; &#171;set&#187;</text><ellipse cx="18" cy="854.6328" fill="none" rx="3" ry="3" style="stroke:#038048;stroke-width:1.0;"/><text fill="#000000" font-family="sans-serif" font-size="14" lengthAdjust="spacing" textLength="207" x="27" y="857.9795">PictureUri : string &#171;get&#187; &#171;set&#187;</text><ellipse cx="18" cy="870.9297" fill="none" rx="3" ry="3" style="stroke:#038048;stroke-width:1.0;"/><text fill="#000000" font-family="sans-serif" font-size="14" lengthAdjust="spacing" textLength="242" x="27" y="874.2764">PictureBase64 : string &#171;get&#187; &#171;set&#187;</text><ellipse cx="18" cy="887.2266" fill="none" rx="3" ry="3" style="stroke:#038048;stroke-width:1.0;"/><text fill="#000000" font-family="sans-serif" font-size="14" lengthAdjust="spacing" textLength="229" x="27" y="890.5732">PictureName : string &#171;get&#187; &#171;set&#187;</text><line style="stroke:#181818;stroke-width:0.5;" x1="8" x2="274" y1="897.875" y2="897.875"/><ellipse cx="18" cy="911.5234" fill="#84BE84" rx="3" ry="3" style="stroke:#038048;stroke-width:1.0;"/><text fill="#000000" font-family="sans-serif" font-size="14" lengthAdjust="spacing" textLength="197" x="27" y="914.8701">CreateCatalogItemRequest()</text></g><!--class CatalogItem--><g id="elem_CatalogItem"><rect codeLine="18" fill="#F1F1F1" height="276.1563" id="CatalogItem" rx="2.5" ry="2.5" style="stroke:#181818;stroke-width:0.5;" width="474" x="310" y="687"/><ellipse cx="501.75" cy="703" fill="#ADD1B2" rx="11" ry="11" style="stroke:#181818;stroke-width:1.0;"/><path d="M504.7188,708.6406 Q504.1406,708.9375 503.5,709.0781 Q502.8594,709.2344 502.1563,709.2344 Q499.6563,709.2344 498.3281,707.5938 Q497.0156,705.9375 497.0156,702.8125 Q497.0156,699.6875 498.3281,698.0313 Q499.6563,696.375 502.1563,696.375 Q502.8594,696.375 503.5,696.5313 Q504.1563,696.6875 504.7188,696.9844 L504.7188,699.7031 Q504.0938,699.125 503.5,698.8594 Q502.9063,698.5781 502.2813,698.5781 Q500.9375,698.5781 500.25,699.6563 Q499.5625,700.7188 499.5625,702.8125 Q499.5625,704.9063 500.25,705.9844 Q500.9375,707.0469 502.2813,707.0469 Q502.9063,707.0469 503.5,706.7813 Q504.0938,706.5 504.7188,705.9219 L504.7188,708.6406 Z " fill="#000000"/><text fill="#000000" font-family="sans-serif" font-size="14" lengthAdjust="spacing" textLength="82" x="522.25" y="707.8467">CatalogItem</text><line style="stroke:#181818;stroke-width:0.5;" x1="311" x2="783" y1="719" y2="719"/><ellipse cx="321" cy="732.6484" fill="none" rx="3" ry="3" style="stroke:#038048;stroke-width:1.0;"/><text fill="#000000" font-family="sans-serif" font-size="14" lengthAdjust="spacing" textLength="131" x="330" y="735.9951">Id : int &#171;get&#187; &#171;set&#187;</text><ellipse cx="321" cy="748.9453" fill="none" rx="3" ry="3" style="stroke:#038048;stroke-width:1.0;"/><text fill="#000000" font-family="sans-serif" font-size="14" lengthAdjust="spacing" textLength="217" x="330" y="752.292">CatalogTypeId : int &#171;get&#187; &#171;set&#187;</text><ellipse cx="321" cy="765.2422" fill="none" rx="3" ry="3" style="stroke:#038048;stroke-width:1.0;"/><text fill="#000000" font-family="sans-serif" font-size="14" lengthAdjust="spacing" textLength="227" x="330" y="768.5889">CatalogType : string &#171;get&#187; &#171;set&#187;</text><ellipse cx="321" cy="781.5391" fill="none" rx="3" ry="3" style="stroke:#038048;stroke-width:1.0;"/><text fill="#000000" font-family="sans-serif" font-size="14" lengthAdjust="spacing" textLength="224" x="330" y="784.8857">CatalogBrandId : int &#171;get&#187; &#171;set&#187;</text><ellipse cx="321" cy="797.8359" fill="none" rx="3" ry="3" style="stroke:#038048;stroke-width:1.0;"/><text fill="#000000" font-family="sans-serif" font-size="14" lengthAdjust="spacing" textLength="234" x="330" y="801.1826">CatalogBrand : string &#171;get&#187; &#171;set&#187;</text><ellipse cx="321" cy="814.1328" fill="none" rx="3" ry="3" style="stroke:#038048;stroke-width:1.0;"/><text fill="#000000" font-family="sans-serif" font-size="14" lengthAdjust="spacing" textLength="181" x="330" y="817.4795">Name : string &#171;get&#187; &#171;set&#187;</text><ellipse cx="321" cy="830.4297" fill="none" rx="3" ry="3" style="stroke:#038048;stroke-width:1.0;"/><text fill="#000000" font-family="sans-serif" font-size="14" lengthAdjust="spacing" textLength="220" x="330" y="833.7764">Description : string &#171;get&#187; &#171;set&#187;</text><ellipse cx="321" cy="846.7266" fill="none" rx="3" ry="3" style="stroke:#038048;stroke-width:1.0;"/><text fill="#000000" font-family="sans-serif" font-size="14" lengthAdjust="spacing" textLength="189" x="330" y="850.0732">Price : decimal &#171;get&#187; &#171;set&#187;</text><ellipse cx="321" cy="863.0234" fill="none" rx="3" ry="3" style="stroke:#038048;stroke-width:1.0;"/><text fill="#000000" font-family="sans-serif" font-size="14" lengthAdjust="spacing" textLength="207" x="330" y="866.3701">PictureUri : string &#171;get&#187; &#171;set&#187;</text><ellipse cx="321" cy="879.3203" fill="none" rx="3" ry="3" style="stroke:#038048;stroke-width:1.0;"/><text fill="#000000" font-family="sans-serif" font-size="14" lengthAdjust="spacing" textLength="242" x="330" y="882.667">PictureBase64 : string &#171;get&#187; &#171;set&#187;</text><ellipse cx="321" cy="895.6172" fill="none" rx="3" ry="3" style="stroke:#038048;stroke-width:1.0;"/><text fill="#000000" font-family="sans-serif" font-size="14" lengthAdjust="spacing" textLength="229" x="330" y="898.9639">PictureName : string &#171;get&#187; &#171;set&#187;</text><line style="stroke:#181818;stroke-width:0.5;" x1="311" x2="783" y1="906.2656" y2="906.2656"/><ellipse cx="321" cy="919.9141" fill="#84BE84" rx="3" ry="3" style="stroke:#038048;stroke-width:1.0;"/><text fill="#000000" font-family="sans-serif" font-size="14" lengthAdjust="spacing" text-decoration="underline" textLength="448" x="330" y="923.2607">IsValidImage(pictureName : string, pictureBase64 : string) : string</text><ellipse cx="321" cy="936.2109" fill="#84BE84" rx="3" ry="3" style="stroke:#038048;stroke-width:1.0;"/><text fill="#000000" font-family="sans-serif" font-size="14" lengthAdjust="spacing" text-decoration="underline" textLength="430" x="330" y="939.5576">&#171;async&#187; DataToBase64(fileItem : IFileListEntry) : Task&lt;string&gt;</text><ellipse cx="321" cy="952.5078" fill="#84BE84" rx="3" ry="3" style="stroke:#038048;stroke-width:1.0;"/><text fill="#000000" font-family="sans-serif" font-size="14" lengthAdjust="spacing" textLength="92" x="330" y="955.8545">CatalogItem()</text></g><!--class ICatalogItemService--><g id="elem_ICatalogItemService"><rect codeLine="34" fill="#F1F1F1" height="145.7813" id="ICatalogItemService" rx="2.5" ry="2.5" style="stroke:#181818;stroke-width:0.5;" width="514" x="87" y="480"/><ellipse cx="272.25" cy="496" fill="#B4A7E5" rx="11" ry="11" style="stroke:#181818;stroke-width:1.0;"/><path d="M268.1719,491.7656 L268.1719,489.6094 L275.5625,489.6094 L275.5625,491.7656 L273.0938,491.7656 L273.0938,499.8438 L275.5625,499.8438 L275.5625,502 L268.1719,502 L268.1719,499.8438 L270.6406,499.8438 L270.6406,491.7656 L268.1719,491.7656 Z " fill="#000000"/><text fill="#000000" font-family="sans-serif" font-size="14" font-style="italic" lengthAdjust="spacing" textLength="135" x="292.75" y="500.8467">ICatalogItemService</text><line style="stroke:#181818;stroke-width:0.5;" x1="88" x2="600" y1="512" y2="512"/><line style="stroke:#181818;stroke-width:0.5;" x1="88" x2="600" y1="520" y2="520"/><ellipse cx="98" cy="533.6484" fill="#84BE84" rx="3" ry="3" style="stroke:#038048;stroke-width:1.0;"/><text fill="#000000" font-family="sans-serif" font-size="14" lengthAdjust="spacing" textLength="488" x="107" y="536.9951">Create(catalogItem : CreateCatalogItemRequest) : Task&lt;CatalogItem&gt;</text><ellipse cx="98" cy="549.9453" fill="#84BE84" rx="3" ry="3" style="stroke:#038048;stroke-width:1.0;"/><text fill="#000000" font-family="sans-serif" font-size="14" lengthAdjust="spacing" textLength="363" x="107" y="553.292">Edit(catalogItem : CatalogItem) : Task&lt;CatalogItem&gt;</text><ellipse cx="98" cy="566.2422" fill="#84BE84" rx="3" ry="3" style="stroke:#038048;stroke-width:1.0;"/><text fill="#000000" font-family="sans-serif" font-size="14" lengthAdjust="spacing" textLength="207" x="107" y="569.5889">Delete(id : int) : Task&lt;string&gt;</text><ellipse cx="98" cy="582.5391" fill="#84BE84" rx="3" ry="3" style="stroke:#038048;stroke-width:1.0;"/><text fill="#000000" font-family="sans-serif" font-size="14" lengthAdjust="spacing" textLength="258" x="107" y="585.8857">GetById(id : int) : Task&lt;CatalogItem&gt;</text><ellipse cx="98" cy="598.8359" fill="#84BE84" rx="3" ry="3" style="stroke:#038048;stroke-width:1.0;"/><text fill="#000000" font-family="sans-serif" font-size="14" lengthAdjust="spacing" textLength="370" x="107" y="602.1826">ListPaged(pageSize : int) : Task&lt;List&lt;CatalogItem&gt;&gt;</text><ellipse cx="98" cy="615.1328" fill="#84BE84" rx="3" ry="3" style="stroke:#038048;stroke-width:1.0;"/><text fill="#000000" font-family="sans-serif" font-size="14" lengthAdjust="spacing" textLength="232" x="107" y="618.4795">List() : Task&lt;List&lt;CatalogItem&gt;&gt;</text></g><!--class ICatalogLookupDataService`1--><g id="elem_ICatalogLookupDataService`1"><rect codeLine="44" fill="#F1F1F1" height="64.2969" id="ICatalogLookupDataService`1" rx="2.5" ry="2.5" style="stroke:#181818;stroke-width:0.5;" width="322" x="636" y="521"/><ellipse cx="651" cy="537" fill="#B4A7E5" rx="11" ry="11" style="stroke:#181818;stroke-width:1.0;"/><path d="M646.9219,532.7656 L646.9219,530.6094 L654.3125,530.6094 L654.3125,532.7656 L651.8438,532.7656 L651.8438,540.8438 L654.3125,540.8438 L654.3125,543 L646.9219,543 L646.9219,540.8438 L649.3906,540.8438 L649.3906,532.7656 L646.9219,532.7656 Z " fill="#000000"/><text fill="#000000" font-family="sans-serif" font-size="14" font-style="italic" lengthAdjust="spacing" textLength="204" x="665" y="541.8467">ICatalogLookupDataService`1</text><rect fill="#FFFFFF" height="15.9688" style="stroke:#181818;stroke-width:1.0;stroke-dasharray:2.0,2.0;" width="84" x="877" y="518"/><text fill="#000000" font-family="sans-serif" font-size="12" font-style="italic" lengthAdjust="spacing" textLength="82" x="878" y="530.1387">TLookupData</text><line style="stroke:#181818;stroke-width:0.5;" x1="637" x2="957" y1="553" y2="553"/><line style="stroke:#181818;stroke-width:0.5;" x1="637" x2="957" y1="561" y2="561"/><ellipse cx="647" cy="574.6484" fill="#84BE84" rx="3" ry="3" style="stroke:#038048;stroke-width:1.0;"/><text fill="#000000" font-family="sans-serif" font-size="14" lengthAdjust="spacing" textLength="242" x="656" y="577.9951">List() : Task&lt;List&lt;TLookupData&gt;&gt;</text></g><!--class List--><g id="elem_List"><rect codeLine="47" fill="#F1F1F1" height="129.4844" id="List" rx="2.5" ry="2.5" style="stroke:#181818;stroke-width:0.5;" width="576" x="333" y="274"/><ellipse cx="605.25" cy="290" fill="#ADD1B2" rx="11" ry="11" style="stroke:#181818;stroke-width:1.0;"/><path d="M608.2188,295.6406 Q607.6406,295.9375 607,296.0781 Q606.3594,296.2344 605.6563,296.2344 Q603.1563,296.2344 601.8281,294.5938 Q600.5156,292.9375 600.5156,289.8125 Q600.5156,286.6875 601.8281,285.0313 Q603.1563,283.375 605.6563,283.375 Q606.3594,283.375 607,283.5313 Q607.6563,283.6875 608.2188,283.9844 L608.2188,286.7031 Q607.5938,286.125 607,285.8594 Q606.4063,285.5781 605.7813,285.5781 Q604.4375,285.5781 603.75,286.6563 Q603.0625,287.7188 603.0625,289.8125 Q603.0625,291.9063 603.75,292.9844 Q604.4375,294.0469 605.7813,294.0469 Q606.4063,294.0469 607,293.7813 Q607.5938,293.5 608.2188,292.9219 L608.2188,295.6406 Z " fill="#000000"/><text fill="#000000" font-family="sans-serif" font-size="14" lengthAdjust="spacing" textLength="23" x="625.75" y="294.8467">List</text><line style="stroke:#181818;stroke-width:0.5;" x1="334" x2="908" y1="306" y2="306"/><ellipse cx="344" cy="319.6484" fill="none" rx="3" ry="3" style="stroke:#038048;stroke-width:1.0;"/><text fill="#000000" font-family="sans-serif" font-size="14" lengthAdjust="spacing" textLength="369" x="353" y="322.9951">CatalogItemService : ICatalogItemService &#171;get&#187; &#171;set&#187;</text><ellipse cx="344" cy="335.9453" fill="none" rx="3" ry="3" style="stroke:#038048;stroke-width:1.0;"/><text fill="#000000" font-family="sans-serif" font-size="14" lengthAdjust="spacing" textLength="550" x="353" y="339.292">CatalogBrandService : ICatalogLookupDataService&lt;CatalogBrand&gt; &#171;get&#187; &#171;set&#187;</text><ellipse cx="344" cy="352.2422" fill="none" rx="3" ry="3" style="stroke:#038048;stroke-width:1.0;"/><text fill="#000000" font-family="sans-serif" font-size="14" lengthAdjust="spacing" textLength="536" x="353" y="355.5889">CatalogTypeService : ICatalogLookupDataService&lt;CatalogType&gt; &#171;get&#187; &#171;set&#187;</text><line style="stroke:#181818;stroke-width:0.5;" x1="334" x2="908" y1="362.8906" y2="362.8906"/><polygon fill="#FFFF44" points="344,371.5391,348,375.5391,344,379.5391,340,375.5391" style="stroke:#B38D22;stroke-width:1.0;"/><text fill="#000000" font-family="sans-serif" font-size="14" lengthAdjust="spacing" textLength="459" x="353" y="379.8857">&#171;override&#187; &#171;async&#187; OnAfterRenderAsync(firstRender : bool) : Task</text><ellipse cx="344" cy="392.8359" fill="#84BE84" rx="3" ry="3" style="stroke:#038048;stroke-width:1.0;"/><text fill="#000000" font-family="sans-serif" font-size="14" lengthAdjust="spacing" textLength="33" x="353" y="396.1826">List()</text></g><!--reverse link ComponentBase to BlazorComponent--><g id="link_ComponentBase_BlazorComponent"><path codeLine="6" d="M621,75.81 C621,88.62 621,102.7 621,115.75 " fill="none" id="ComponentBase-backto-BlazorComponent" style="stroke:#181818;stroke-width:1.0;"/><polygon fill="none" points="614,76.21,621,56.21,628,76.21,614,76.21" style="stroke:#181818;stroke-width:1.0;"/></g><!--link ICatalogItemService to CreateCatalogItemRequest--><g id="link_ICatalogItemService_CreateCatalogItemRequest"><path codeLine="42" d="M289.6,626.36 C267.44,655.83 241.42,690.43 217.41,722.37 " fill="none" id="ICatalogItemService-to-CreateCatalogItemRequest" style="stroke:#181818;stroke-width:1.0;stroke-dasharray:7.0,7.0;"/><polygon fill="#181818" points="213.88,726.07,222.4882,721.2848,216.8869,722.0752,216.0965,716.4738,213.88,726.07" style="stroke:#181818;stroke-width:1.0;"/></g><!--link ICatalogItemService to CatalogItem--><g id="link_ICatalogItemService_CatalogItem"><path codeLine="43" d="M398.4,626.36 C411.45,643.71 425.83,662.84 440.35,682.15 " fill="none" id="ICatalogItemService-to-CatalogItem" style="stroke:#181818;stroke-width:1.0;stroke-dasharray:7.0,7.0;"/><polygon fill="#181818" points="443.65,685.54,441.4335,675.9438,440.6431,681.5452,435.0418,680.7548,443.65,685.54" style="stroke:#181818;stroke-width:1.0;"/></g><!--reverse link BlazorComponent to List--><g id="link_BlazorComponent_List"><path codeLine="54" d="M621,234.03 C621,247.14 621,260.82 621,273.77 " fill="none" id="BlazorComponent-backto-List" style="stroke:#181818;stroke-width:1.0;"/><polygon fill="none" points="614,234.41,621,214.41,628,234.41,614,234.41" style="stroke:#181818;stroke-width:1.0;"/></g><!--reverse link List to ICatalogItemService--><g id="link_List_ICatalogItemService"><path codeLine="55" d="M506.65,411.42 C496.48,418.51 486.46,425.76 477,433 C458.17,447.4 438.72,463.82 420.7,479.77 " fill="none" id="List-backto-ICatalogItemService" style="stroke:#181818;stroke-width:1.0;"/><polygon fill="none" points="517.17,403.49,509.9597,403.5955,507.2838,410.2917,514.4941,410.1862,517.17,403.49" style="stroke:#181818;stroke-width:1.0;"/><text fill="#000000" font-family="sans-serif" font-size="13" lengthAdjust="spacing" textLength="125" x="478" y="446.0669">CatalogItemService</text></g><!--reverse link List to ICatalogLookupDataService`1--><g id="link_List_ICatalogLookupDataService`1"><path codeLine="56" d="M608.22,416.91 C609.27,428.54 612.18,439.98 618,450 C636.6,482.01 669.42,504.81 701.92,520.61 " fill="none" id="List-backto-ICatalogLookupDataService`1" style="stroke:#181818;stroke-width:1.0;"/><polygon fill="none" points="607.79,404.24,603.9831,410.3644,608.1722,416.2339,611.9791,410.1095,607.79,404.24" style="stroke:#181818;stroke-width:1.0;"/><text fill="#000000" font-family="sans-serif" font-size="13" lengthAdjust="spacing" textLength="134" x="619" y="446.0669">CatalogBrandService</text><text fill="#000000" font-family="sans-serif" font-size="13" lengthAdjust="spacing" textLength="109" x="694.1844" y="510.0572">&lt;CatalogBrand&gt;</text></g><!--reverse link List to ICatalogLookupDataService`1--><g id="link_List_ICatalogLookupDataService`1"><path codeLine="57" d="M739.88,412.53 C746.47,418.98 752.6,425.81 758,433 C777.46,458.9 787.48,494.96 792.45,520.58 " fill="none" id="List-backto-ICatalogLookupDataService`1-1" style="stroke:#181818;stroke-width:1.0;"/><polygon fill="none" points="730.92,404.36,732.6187,411.3682,739.7412,412.4955,738.0424,405.4874,730.92,404.36" style="stroke:#181818;stroke-width:1.0;"/><text fill="#000000" font-family="sans-serif" font-size="13" lengthAdjust="spacing" textLength="126" x="768" y="446.0669">CatalogTypeService</text><text fill="#000000" font-family="sans-serif" font-size="13" lengthAdjust="spacing" textLength="101" x="801.2092" y="510.0215">&lt;CatalogType&gt;</text></g><!--SRC=[vLPTRziW57tthq3fYwEjbIPDUuYGfIRf9alLMgNfdiVCJORgW0SaKjhblm_81yJ6iVkyF2G6pZtt-fmBf2Y9KcXSabSX9s9L2GvS8_IM8FEvGXYB3KZ9A6GPUk0vPvgHahq2JOTeX3Q2KOVyW2QaB6VmPmrAps0XGVsk8sf9qc6oIqwZCL60yD_hwpeiALo54mb4muHeKefbhc5ro7KirHRWrkRR2d9gCZFp7XWlGPlACLRsznmvbeJJ3kXtiW83K5eolcp1J44LabMQ2Tu5VPIii7mK2hOYPHkA5NejuLcoJhuzqehtvNDFS9zNQbFRUNOmn2zw3_e9tzyYY-oijR-R8RIBzZzr_arfebcnGxdwOJOwpLTa2MaL8VY8gcWDmzDJdH9ZehQyC3cdneYvs0Uc2rQ2QwCHoh-Qvtkcz1tNSckPvaIzu3rTpKKRulhH-0roGOoyUR3q179Z9VVdW-lfj0ZwTjJQwAVKmT8n_nrbkaxZHvSYfr22AO4TkhJb_Rw17czpseH56ArMZyOXcbRc-yaSpBKO2pWB32FJIx1T4fFpvYPh5Qqzm4z7tBeNucLTsPOunFpyXET-ClCMHceEWTdfSB9BZPiXh6eKxPNkKwCPtwWUX_Yi-tnx1wM5nnbhDxNVQG_yTc44dm6d86_jfDblqjxHTi8a_IL4UPJqJ6OZPlrlWRkVxMhY11Pcb4V5RKxwYC6vG0CqkD080qyMwXzXSzhq9Wk4_mS0]--></g></svg>