<?xml version="1.0" encoding="us-ascii" standalone="no"?><svg xmlns="http://www.w3.org/2000/svg" xmlns:xlink="http://www.w3.org/1999/xlink" contentStyleType="text/css" height="218px" preserveAspectRatio="none" style="width:390px;height:218px;background:#FFFFFF;" version="1.1" viewBox="0 0 390 218" width="390px" zoomAndPan="magnify"><defs/><g><!--class OrderController--><g id="elem_OrderController"><rect codeLine="1" fill="#F1F1F1" height="96.8906" id="OrderController" rx="2.5" ry="2.5" style="stroke:#181818;stroke-width:0.5;" width="376" x="7" y="115"/><ellipse cx="137.75" cy="131" fill="#ADD1B2" rx="11" ry="11" style="stroke:#181818;stroke-width:1.0;"/><path d="M140.7188,136.6406 Q140.1406,136.9375 139.5,137.0781 Q138.8594,137.2344 138.1563,137.2344 Q135.6563,137.2344 134.3281,135.5938 Q133.0156,133.9375 133.0156,130.8125 Q133.0156,127.6875 134.3281,126.0313 Q135.6563,124.375 138.1563,124.375 Q138.8594,124.375 139.5,124.5313 Q140.1563,124.6875 140.7188,124.9844 L140.7188,127.7031 Q140.0938,127.125 139.5,126.8594 Q138.9063,126.5781 138.2813,126.5781 Q136.9375,126.5781 136.25,127.6563 Q135.5625,128.7188 135.5625,130.8125 Q135.5625,132.9063 136.25,133.9844 Q136.9375,135.0469 138.2813,135.0469 Q138.9063,135.0469 139.5,134.7813 Q140.0938,134.5 140.7188,133.9219 L140.7188,136.6406 Z " fill="#000000"/><text fill="#000000" font-family="sans-serif" font-size="14" lengthAdjust="spacing" textLength="106" x="158.25" y="135.8467">OrderController</text><line style="stroke:#181818;stroke-width:0.5;" x1="8" x2="382" y1="147" y2="147"/><line style="stroke:#181818;stroke-width:0.5;" x1="8" x2="382" y1="155" y2="155"/><ellipse cx="18" cy="168.6484" fill="#84BE84" rx="3" ry="3" style="stroke:#038048;stroke-width:1.0;"/><text fill="#000000" font-family="sans-serif" font-size="14" lengthAdjust="spacing" textLength="253" x="27" y="171.9951">OrderController(mediator : IMediator)</text><ellipse cx="18" cy="184.9453" fill="#84BE84" rx="3" ry="3" style="stroke:#038048;stroke-width:1.0;"/><text fill="#000000" font-family="sans-serif" font-size="14" lengthAdjust="spacing" textLength="298" x="27" y="188.292">&#171;async&#187; MyOrders() : Task&lt;IActionResult&gt;</text><ellipse cx="18" cy="201.2422" fill="#84BE84" rx="3" ry="3" style="stroke:#038048;stroke-width:1.0;"/><text fill="#000000" font-family="sans-serif" font-size="14" lengthAdjust="spacing" textLength="350" x="27" y="204.5889">&#171;async&#187; Detail(orderId : int) : Task&lt;IActionResult&gt;</text></g><!--class Controller--><g id="elem_Controller"><rect fill="#F1F1F1" height="48" id="Controller" rx="2.5" ry="2.5" style="stroke:#181818;stroke-width:0.5;" width="99" x="145.5" y="7"/><ellipse cx="160.5" cy="23" fill="#ADD1B2" rx="11" ry="11" style="stroke:#181818;stroke-width:1.0;"/><path d="M163.4688,28.6406 Q162.8906,28.9375 162.25,29.0781 Q161.6094,29.2344 160.9063,29.2344 Q158.4063,29.2344 157.0781,27.5938 Q155.7656,25.9375 155.7656,22.8125 Q155.7656,19.6875 157.0781,18.0313 Q158.4063,16.375 160.9063,16.375 Q161.6094,16.375 162.25,16.5313 Q162.9063,16.6875 163.4688,16.9844 L163.4688,19.7031 Q162.8438,19.125 162.25,18.8594 Q161.6563,18.5781 161.0313,18.5781 Q159.6875,18.5781 159,19.6563 Q158.3125,20.7188 158.3125,22.8125 Q158.3125,24.9063 159,25.9844 Q159.6875,27.0469 161.0313,27.0469 Q161.6563,27.0469 162.25,26.7813 Q162.8438,26.5 163.4688,25.9219 L163.4688,28.6406 Z " fill="#000000"/><text fill="#000000" font-family="sans-serif" font-size="14" lengthAdjust="spacing" textLength="67" x="174.5" y="27.8467">Controller</text><line style="stroke:#181818;stroke-width:0.5;" x1="146.5" x2="243.5" y1="39" y2="39"/><line style="stroke:#181818;stroke-width:0.5;" x1="146.5" x2="243.5" y1="47" y2="47"/></g><!--reverse link Controller to OrderController--><g id="link_Controller_OrderController"><path codeLine="6" d="M195,75.95 C195,88.34 195,101.89 195,114.51 " fill="none" id="Controller-backto-OrderController" style="stroke:#181818;stroke-width:1.0;"/><polygon fill="none" points="188,76.33,195,56.33,202,76.33,188,76.33" style="stroke:#181818;stroke-width:1.0;"/></g><!--SRC=[Iyv9B2vMy2zAIIropiyhAShFoKajKb2evb800crq2OtSr9JCn9By8WKh1KzVA5iJgjR69h6uCY_Ppax1jnAihrX34wWk9B4usyRJCRaaCpylABMuDAV43aE3Isf9OcQEHZv8bsSAK5DcNWaklRLSI0wrgT7LHNSa0000]--></g></svg>