<?xml version="1.0" encoding="us-ascii" standalone="no"?><svg xmlns="http://www.w3.org/2000/svg" xmlns:xlink="http://www.w3.org/1999/xlink" contentStyleType="text/css" height="457px" preserveAspectRatio="none" style="width:645px;height:457px;background:#FFFFFF;" version="1.1" viewBox="0 0 645 457" width="645px" zoomAndPan="magnify"><defs/><g><!--class CatalogContext--><g id="elem_CatalogContext"><rect codeLine="1" fill="#F1F1F1" height="194.6719" id="CatalogContext" rx="2.5" ry="2.5" style="stroke:#181818;stroke-width:0.5;" width="465" x="9" y="256"/><ellipse cx="184.25" cy="272" fill="#ADD1B2" rx="11" ry="11" style="stroke:#181818;stroke-width:1.0;"/><path d="M187.2188,277.6406 Q186.6406,277.9375 186,278.0781 Q185.3594,278.2344 184.6563,278.2344 Q182.1563,278.2344 180.8281,276.5938 Q179.5156,274.9375 179.5156,271.8125 Q179.5156,268.6875 180.8281,267.0313 Q182.1563,265.375 184.6563,265.375 Q185.3594,265.375 186,265.5313 Q186.6563,265.6875 187.2188,265.9844 L187.2188,268.7031 Q186.5938,268.125 186,267.8594 Q185.4063,267.5781 184.7813,267.5781 Q183.4375,267.5781 182.75,268.6563 Q182.0625,269.7188 182.0625,271.8125 Q182.0625,273.9063 182.75,274.9844 Q183.4375,276.0469 184.7813,276.0469 Q185.4063,276.0469 186,275.7813 Q186.5938,275.5 187.2188,274.9219 L187.2188,277.6406 Z " fill="#000000"/><text fill="#000000" font-family="sans-serif" font-size="14" lengthAdjust="spacing" textLength="106" x="204.75" y="276.8467">CatalogContext</text><line style="stroke:#181818;stroke-width:0.5;" x1="10" x2="473" y1="288" y2="288"/><ellipse cx="20" cy="301.6484" fill="none" rx="3" ry="3" style="stroke:#038048;stroke-width:1.0;"/><text fill="#000000" font-family="sans-serif" font-size="14" lengthAdjust="spacing" textLength="273" x="29" y="304.9951">Baskets : DbSet&lt;Basket&gt; &#171;get&#187; &#171;set&#187;</text><ellipse cx="20" cy="317.9453" fill="none" rx="3" ry="3" style="stroke:#038048;stroke-width:1.0;"/><text fill="#000000" font-family="sans-serif" font-size="14" lengthAdjust="spacing" textLength="341" x="29" y="321.292">CatalogItems : DbSet&lt;CatalogItem&gt; &#171;get&#187; &#171;set&#187;</text><ellipse cx="20" cy="334.2422" fill="none" rx="3" ry="3" style="stroke:#038048;stroke-width:1.0;"/><text fill="#000000" font-family="sans-serif" font-size="14" lengthAdjust="spacing" textLength="363" x="29" y="337.5889">CatalogBrands : DbSet&lt;CatalogBrand&gt; &#171;get&#187; &#171;set&#187;</text><ellipse cx="20" cy="350.5391" fill="none" rx="3" ry="3" style="stroke:#038048;stroke-width:1.0;"/><text fill="#000000" font-family="sans-serif" font-size="14" lengthAdjust="spacing" textLength="349" x="29" y="353.8857">CatalogTypes : DbSet&lt;CatalogType&gt; &#171;get&#187; &#171;set&#187;</text><ellipse cx="20" cy="366.8359" fill="none" rx="3" ry="3" style="stroke:#038048;stroke-width:1.0;"/><text fill="#000000" font-family="sans-serif" font-size="14" lengthAdjust="spacing" textLength="255" x="29" y="370.1826">Orders : DbSet&lt;Order&gt; &#171;get&#187; &#171;set&#187;</text><ellipse cx="20" cy="383.1328" fill="none" rx="3" ry="3" style="stroke:#038048;stroke-width:1.0;"/><text fill="#000000" font-family="sans-serif" font-size="14" lengthAdjust="spacing" textLength="315" x="29" y="386.4795">OrderItems : DbSet&lt;OrderItem&gt; &#171;get&#187; &#171;set&#187;</text><ellipse cx="20" cy="399.4297" fill="none" rx="3" ry="3" style="stroke:#038048;stroke-width:1.0;"/><text fill="#000000" font-family="sans-serif" font-size="14" lengthAdjust="spacing" textLength="333" x="29" y="402.7764">BasketItems : DbSet&lt;BasketItem&gt; &#171;get&#187; &#171;set&#187;</text><line style="stroke:#181818;stroke-width:0.5;" x1="10" x2="473" y1="410.0781" y2="410.0781"/><ellipse cx="20" cy="423.7266" fill="#84BE84" rx="3" ry="3" style="stroke:#038048;stroke-width:1.0;"/><text fill="#000000" font-family="sans-serif" font-size="14" lengthAdjust="spacing" textLength="439" x="29" y="427.0732">CatalogContext(options : DbContextOptions&lt;CatalogContext&gt;)</text><polygon fill="#FFFF44" points="20,435.0234,24,439.0234,20,443.0234,16,439.0234" style="stroke:#B38D22;stroke-width:1.0;"/><text fill="#000000" font-family="sans-serif" font-size="14" lengthAdjust="spacing" textLength="399" x="29" y="443.3701">&#171;override&#187; OnModelCreating(builder : ModelBuilder) : void</text></g><!--class DbContext--><g id="elem_DbContext"><rect fill="#F1F1F1" height="48" id="DbContext" rx="2.5" ry="2.5" style="stroke:#181818;stroke-width:0.5;" width="106" x="27.5" y="131.5"/><ellipse cx="42.5" cy="147.5" fill="#ADD1B2" rx="11" ry="11" style="stroke:#181818;stroke-width:1.0;"/><path d="M45.4688,153.1406 Q44.8906,153.4375 44.25,153.5781 Q43.6094,153.7344 42.9063,153.7344 Q40.4063,153.7344 39.0781,152.0938 Q37.7656,150.4375 37.7656,147.3125 Q37.7656,144.1875 39.0781,142.5313 Q40.4063,140.875 42.9063,140.875 Q43.6094,140.875 44.25,141.0313 Q44.9063,141.1875 45.4688,141.4844 L45.4688,144.2031 Q44.8438,143.625 44.25,143.3594 Q43.6563,143.0781 43.0313,143.0781 Q41.6875,143.0781 41,144.1563 Q40.3125,145.2188 40.3125,147.3125 Q40.3125,149.4063 41,150.4844 Q41.6875,151.5469 43.0313,151.5469 Q43.6563,151.5469 44.25,151.2813 Q44.8438,151 45.4688,150.4219 L45.4688,153.1406 Z " fill="#000000"/><text fill="#000000" font-family="sans-serif" font-size="14" lengthAdjust="spacing" textLength="74" x="56.5" y="152.3467">DbContext</text><line style="stroke:#181818;stroke-width:0.5;" x1="28.5" x2="132.5" y1="163.5" y2="163.5"/><line style="stroke:#181818;stroke-width:0.5;" x1="28.5" x2="132.5" y1="171.5" y2="171.5"/></g><!--class BasketQueryService--><g id="elem_BasketQueryService"><rect codeLine="13" fill="#F1F1F1" height="80.5938" id="BasketQueryService" rx="2.5" ry="2.5" style="stroke:#181818;stroke-width:0.5;" width="469" x="169" y="115"/><ellipse cx="329.75" cy="131" fill="#ADD1B2" rx="11" ry="11" style="stroke:#181818;stroke-width:1.0;"/><path d="M332.7188,136.6406 Q332.1406,136.9375 331.5,137.0781 Q330.8594,137.2344 330.1563,137.2344 Q327.6563,137.2344 326.3281,135.5938 Q325.0156,133.9375 325.0156,130.8125 Q325.0156,127.6875 326.3281,126.0313 Q327.6563,124.375 330.1563,124.375 Q330.8594,124.375 331.5,124.5313 Q332.1563,124.6875 332.7188,124.9844 L332.7188,127.7031 Q332.0938,127.125 331.5,126.8594 Q330.9063,126.5781 330.2813,126.5781 Q328.9375,126.5781 328.25,127.6563 Q327.5625,128.7188 327.5625,130.8125 Q327.5625,132.9063 328.25,133.9844 Q328.9375,135.0469 330.2813,135.0469 Q330.9063,135.0469 331.5,134.7813 Q332.0938,134.5 332.7188,133.9219 L332.7188,136.6406 Z " fill="#000000"/><text fill="#000000" font-family="sans-serif" font-size="14" lengthAdjust="spacing" textLength="139" x="350.25" y="135.8467">BasketQueryService</text><line style="stroke:#181818;stroke-width:0.5;" x1="170" x2="637" y1="147" y2="147"/><line style="stroke:#181818;stroke-width:0.5;" x1="170" x2="637" y1="155" y2="155"/><ellipse cx="180" cy="168.6484" fill="#84BE84" rx="3" ry="3" style="stroke:#038048;stroke-width:1.0;"/><text fill="#000000" font-family="sans-serif" font-size="14" lengthAdjust="spacing" textLength="340" x="189" y="171.9951">BasketQueryService(dbContext : CatalogContext)</text><ellipse cx="180" cy="184.9453" fill="#84BE84" rx="3" ry="3" style="stroke:#038048;stroke-width:1.0;"/><text fill="#000000" font-family="sans-serif" font-size="14" lengthAdjust="spacing" textLength="443" x="189" y="188.292">&#171;async&#187; CountTotalBasketItems(username : string) : Task&lt;int&gt;</text></g><!--class IBasketQueryService--><g id="elem_IBasketQueryService"><rect fill="#F1F1F1" height="48" id="IBasketQueryService" rx="2.5" ry="2.5" style="stroke:#181818;stroke-width:0.5;" width="174" x="316.5" y="7"/><ellipse cx="331.5" cy="23" fill="#ADD1B2" rx="11" ry="11" style="stroke:#181818;stroke-width:1.0;"/><path d="M334.4688,28.6406 Q333.8906,28.9375 333.25,29.0781 Q332.6094,29.2344 331.9063,29.2344 Q329.4063,29.2344 328.0781,27.5938 Q326.7656,25.9375 326.7656,22.8125 Q326.7656,19.6875 328.0781,18.0313 Q329.4063,16.375 331.9063,16.375 Q332.6094,16.375 333.25,16.5313 Q333.9063,16.6875 334.4688,16.9844 L334.4688,19.7031 Q333.8438,19.125 333.25,18.8594 Q332.6563,18.5781 332.0313,18.5781 Q330.6875,18.5781 330,19.6563 Q329.3125,20.7188 329.3125,22.8125 Q329.3125,24.9063 330,25.9844 Q330.6875,27.0469 332.0313,27.0469 Q332.6563,27.0469 333.25,26.7813 Q333.8438,26.5 334.4688,25.9219 L334.4688,28.6406 Z " fill="#000000"/><text fill="#000000" font-family="sans-serif" font-size="14" lengthAdjust="spacing" textLength="142" x="345.5" y="27.8467">IBasketQueryService</text><line style="stroke:#181818;stroke-width:0.5;" x1="317.5" x2="489.5" y1="39" y2="39"/><line style="stroke:#181818;stroke-width:0.5;" x1="317.5" x2="489.5" y1="47" y2="47"/></g><!--reverse link DbContext to CatalogContext--><g id="link_DbContext_CatalogContext"><path codeLine="12" d="M112.73,195.74 C127.06,213.19 144.63,234.57 162.13,255.87 " fill="none" id="DbContext-backto-CatalogContext" style="stroke:#181818;stroke-width:1.0;"/><polygon fill="none" points="106.89,200.65,99.6,180.75,117.7,191.76,106.89,200.65" style="stroke:#181818;stroke-width:1.0;"/></g><!--reverse link IBasketQueryService to BasketQueryService--><g id="link_IBasketQueryService_BasketQueryService"><path codeLine="17" d="M403.5,75.89 C403.5,88.61 403.5,102.42 403.5,114.87 " fill="none" id="IBasketQueryService-backto-BasketQueryService" style="stroke:#181818;stroke-width:1.0;stroke-dasharray:7.0,7.0;"/><polygon fill="none" points="396.5,76.33,403.5,56.33,410.5,76.33,396.5,76.33" style="stroke:#181818;stroke-width:1.0;"/></g><!--link BasketQueryService to CatalogContext--><g id="link_BasketQueryService_CatalogContext"><path codeLine="18" d="M370.72,196.16 C357.39,212.28 341.33,231.71 325.13,251.31 " fill="none" id="BasketQueryService-to-CatalogContext" style="stroke:#181818;stroke-width:1.0;stroke-dasharray:7.0,7.0;"/><polygon fill="#181818" points="321.46,254.76,330.2754,250.368,324.644,250.9049,324.1072,245.2736,321.46,254.76" style="stroke:#181818;stroke-width:1.0;"/></g><!--SRC=[XPBFReCm3CRlF4MaNQYcyW1Ln05swM52Ktc1b5We6asgnA2XjUzUGpeeVxfoiVp5F-SpSL49vrWgK5IcJ8r6-476VWD6t_jC3yqPbT6ExTZ7yQvbNkBJodXpRv08zmteYGCWztdCE2yfTD5rSNhT7k4q8W_Y2ownGii5sAiloBmzmmBin6TSPYNOaUZJVskdCmtICyR_foaqQklK6sMc0MkL13hAzAUHKAKM12fTXiTQLNGhjUlrnASRoXkZP70DXZTb_BBTpju-AFf5yHw-Qh3j0MoZ2XYNPNaMog7bRjRlRq4u5wxL1VbDJQqnDrJqC7nOEx1Qd80QEBGqHsSufmAkDCRaUhzYYL-YQCLEi58QHV7CsGq0]--></g></svg>