<?xml version="1.0" encoding="us-ascii" standalone="no"?><svg xmlns="http://www.w3.org/2000/svg" xmlns:xlink="http://www.w3.org/1999/xlink" contentStyleType="text/css" height="202px" preserveAspectRatio="none" style="width:401px;height:202px;background:#FFFFFF;" version="1.1" viewBox="0 0 401 202" width="401px" zoomAndPan="magnify"><defs/><g><!--class OrderConfiguration--><g id="elem_OrderConfiguration"><rect codeLine="1" fill="#F1F1F1" height="80.5938" id="OrderConfiguration" rx="2.5" ry="2.5" style="stroke:#181818;stroke-width:0.5;" width="387" x="7" y="115"/><ellipse cx="130.75" cy="131" fill="#ADD1B2" rx="11" ry="11" style="stroke:#181818;stroke-width:1.0;"/><path d="M133.7188,136.6406 Q133.1406,136.9375 132.5,137.0781 Q131.8594,137.2344 131.1563,137.2344 Q128.6563,137.2344 127.3281,135.5938 Q126.0156,133.9375 126.0156,130.8125 Q126.0156,127.6875 127.3281,126.0313 Q128.6563,124.375 131.1563,124.375 Q131.8594,124.375 132.5,124.5313 Q133.1563,124.6875 133.7188,124.9844 L133.7188,127.7031 Q133.0938,127.125 132.5,126.8594 Q131.9063,126.5781 131.2813,126.5781 Q129.9375,126.5781 129.25,127.6563 Q128.5625,128.7188 128.5625,130.8125 Q128.5625,132.9063 129.25,133.9844 Q129.9375,135.0469 131.2813,135.0469 Q131.9063,135.0469 132.5,134.7813 Q133.0938,134.5 133.7188,133.9219 L133.7188,136.6406 Z " fill="#000000"/><text fill="#000000" font-family="sans-serif" font-size="14" lengthAdjust="spacing" textLength="131" x="151.25" y="135.8467">OrderConfiguration</text><line style="stroke:#181818;stroke-width:0.5;" x1="8" x2="393" y1="147" y2="147"/><line style="stroke:#181818;stroke-width:0.5;" x1="8" x2="393" y1="155" y2="155"/><ellipse cx="18" cy="168.6484" fill="#84BE84" rx="3" ry="3" style="stroke:#038048;stroke-width:1.0;"/><text fill="#000000" font-family="sans-serif" font-size="14" lengthAdjust="spacing" textLength="361" x="27" y="171.9951">Configure(builder : EntityTypeBuilder&lt;Order&gt;) : void</text><ellipse cx="18" cy="184.9453" fill="#84BE84" rx="3" ry="3" style="stroke:#038048;stroke-width:1.0;"/><text fill="#000000" font-family="sans-serif" font-size="14" lengthAdjust="spacing" textLength="141" x="27" y="188.292">OrderConfiguration()</text></g><!--class IEntityTypeConfiguration`1--><g id="elem_IEntityTypeConfiguration`1"><rect fill="#F1F1F1" height="48" id="IEntityTypeConfiguration`1" rx="2.5" ry="2.5" style="stroke:#181818;stroke-width:0.5;" width="215" x="93" y="7"/><ellipse cx="108" cy="23" fill="#ADD1B2" rx="11" ry="11" style="stroke:#181818;stroke-width:1.0;"/><path d="M110.9688,28.6406 Q110.3906,28.9375 109.75,29.0781 Q109.1094,29.2344 108.4063,29.2344 Q105.9063,29.2344 104.5781,27.5938 Q103.2656,25.9375 103.2656,22.8125 Q103.2656,19.6875 104.5781,18.0313 Q105.9063,16.375 108.4063,16.375 Q109.1094,16.375 109.75,16.5313 Q110.4063,16.6875 110.9688,16.9844 L110.9688,19.7031 Q110.3438,19.125 109.75,18.8594 Q109.1563,18.5781 108.5313,18.5781 Q107.1875,18.5781 106.5,19.6563 Q105.8125,20.7188 105.8125,22.8125 Q105.8125,24.9063 106.5,25.9844 Q107.1875,27.0469 108.5313,27.0469 Q109.1563,27.0469 109.75,26.7813 Q110.3438,26.5 110.9688,25.9219 L110.9688,28.6406 Z " fill="#000000"/><text fill="#000000" font-family="sans-serif" font-size="14" lengthAdjust="spacing" textLength="183" x="122" y="27.8467">IEntityTypeConfiguration`1</text><line style="stroke:#181818;stroke-width:0.5;" x1="94" x2="307" y1="39" y2="39"/><line style="stroke:#181818;stroke-width:0.5;" x1="94" x2="307" y1="47" y2="47"/></g><!--reverse link IEntityTypeConfiguration`1 to OrderConfiguration--><g id="link_IEntityTypeConfiguration`1_OrderConfiguration"><path codeLine="5" d="M200.5,75.89 C200.5,88.61 200.5,102.42 200.5,114.87 " fill="none" id="IEntityTypeConfiguration`1-backto-OrderConfiguration" style="stroke:#181818;stroke-width:1.0;stroke-dasharray:7.0,7.0;"/><polygon fill="none" points="193.5,76.33,200.5,56.33,207.5,76.33,193.5,76.33" style="stroke:#181818;stroke-width:1.0;"/><text fill="#000000" font-family="sans-serif" font-size="13" lengthAdjust="spacing" textLength="58" x="135.4313" y="75.1716">&lt;Order&gt;</text></g><!--SRC=[Iyv9B2vMy2zAIIropizBoqmlBKeioSpFKr2evb800cq5c72gHb9fPWvGdOALWcjUIMP9PKXbGQeJHCm6R8AT9b2kB3yp1QeLqrWDJQvQBYLFX7uKsGH39GKbg55A2ZOrUdfOZ000]--></g></svg>