<?xml version="1.0" encoding="us-ascii" standalone="no"?><svg xmlns="http://www.w3.org/2000/svg" xmlns:xlink="http://www.w3.org/1999/xlink" contentStyleType="text/css" height="93px" preserveAspectRatio="none" style="width:721px;height:93px;background:#FFFFFF;" version="1.1" viewBox="0 0 721 93" width="721px" zoomAndPan="magnify"><defs/><g><!--class UrlHelperExtensions--><g id="elem_UrlHelperExtensions"><rect codeLine="1" fill="#F1F1F1" height="72.5625" id="UrlHelperExtensions" rx="2.5" ry="2.5" style="stroke:#181818;stroke-width:0.5;" width="700" x="7" y="7"/><ellipse cx="283.25" cy="27.1328" fill="#ADD1B2" rx="11" ry="11" style="stroke:#181818;stroke-width:1.0;"/><path d="M286.2188,32.7734 Q285.6406,33.0703 285,33.2109 Q284.3594,33.3672 283.6563,33.3672 Q281.1563,33.3672 279.8281,31.7266 Q278.5156,30.0703 278.5156,26.9453 Q278.5156,23.8203 279.8281,22.1641 Q281.1563,20.5078 283.6563,20.5078 Q284.3594,20.5078 285,20.6641 Q285.6563,20.8203 286.2188,21.1172 L286.2188,23.8359 Q285.5938,23.2578 285,22.9922 Q284.4063,22.7109 283.7813,22.7109 Q282.4375,22.7109 281.75,23.7891 Q281.0625,24.8516 281.0625,26.9453 Q281.0625,29.0391 281.75,30.1172 Q282.4375,31.1797 283.7813,31.1797 Q284.4063,31.1797 285,30.9141 Q285.5938,30.6328 286.2188,30.0547 L286.2188,32.7734 Z " fill="#000000"/><text fill="#000000" font-family="sans-serif" font-size="12" font-style="italic" lengthAdjust="spacing" textLength="49" x="348.75" y="23.1387">&#171;static&#187;</text><text fill="#000000" font-family="sans-serif" font-size="14" lengthAdjust="spacing" textLength="139" x="303.75" y="38.9639">UrlHelperExtensions</text><line style="stroke:#181818;stroke-width:0.5;" x1="8" x2="706" y1="47.2656" y2="47.2656"/><line style="stroke:#181818;stroke-width:0.5;" x1="8" x2="706" y1="55.2656" y2="55.2656"/><ellipse cx="18" cy="68.9141" fill="#84BE84" rx="3" ry="3" style="stroke:#038048;stroke-width:1.0;"/><text fill="#000000" font-family="sans-serif" font-size="14" lengthAdjust="spacing" text-decoration="underline" textLength="674" x="27" y="72.2607">EmailConfirmationLink(urlHelper : IUrlHelper, userId : string, code : string, scheme : string) : string?</text></g><!--SRC=[Iyv9B2vM22tAyKZDAKWjSgqeISqhpipFArQmiIakIIp9JBQpKr2evb800cs5QeXGhO9hRc9cZdD-NbfcKIvG93_F9pClMwCKPeo2bO8dt4mTXTBYr2BF5A1WSKbHPbwwZa9oVaeg4hSuEICr5o6W2MVPSzK20000]--></g></svg>