<?xml version="1.0" encoding="us-ascii" standalone="no"?><svg xmlns="http://www.w3.org/2000/svg" xmlns:xlink="http://www.w3.org/1999/xlink" contentStyleType="text/css" height="408px" preserveAspectRatio="none" style="width:1066px;height:408px;background:#FFFFFF;" version="1.1" viewBox="0 0 1066 408" width="1066px" zoomAndPan="magnify"><defs/><g><!--class BaseMessage--><g id="elem_BaseMessage"><rect codeLine="1" fill="#F1F1F1" height="96.8906" id="BaseMessage" rx="2.5" ry="2.5" style="stroke:#181818;stroke-width:0.5;" width="168" x="9" y="7"/><ellipse cx="41.1" cy="23" fill="#A9DCDF" rx="11" ry="11" style="stroke:#181818;stroke-width:1.0;"/><path d="M41.2094,18.3438 L40.0531,23.4219 L42.3813,23.4219 L41.2094,18.3438 Z M39.725,16.1094 L42.7094,16.1094 L46.0688,28.5 L43.6156,28.5 L42.85,25.4375 L39.5688,25.4375 L38.8188,28.5 L36.3813,28.5 L39.725,16.1094 Z " fill="#000000"/><text fill="#000000" font-family="sans-serif" font-size="14" font-style="italic" lengthAdjust="spacing" textLength="98" x="58.9" y="27.8467">BaseMessage</text><line style="stroke:#181818;stroke-width:0.5;" x1="10" x2="176" y1="39" y2="39"/><polygon fill="none" points="20,47.6484,24,51.6484,20,55.6484,16,51.6484" style="stroke:#B38D22;stroke-width:1.0;"/><text fill="#000000" font-family="sans-serif" font-size="14" lengthAdjust="spacing" textLength="137" x="29" y="55.9951">_correlationId : Guid</text><line style="stroke:#181818;stroke-width:0.5;" x1="10" x2="176" y1="63.2969" y2="63.2969"/><ellipse cx="20" cy="76.9453" fill="#84BE84" rx="3" ry="3" style="stroke:#038048;stroke-width:1.0;"/><text fill="#000000" font-family="sans-serif" font-size="14" lengthAdjust="spacing" textLength="142" x="29" y="80.292">CorrelationId() : Guid</text><polygon fill="#FFFF44" points="20,88.2422,24,92.2422,20,96.2422,16,92.2422" style="stroke:#B38D22;stroke-width:1.0;"/><text fill="#000000" font-family="sans-serif" font-size="14" lengthAdjust="spacing" textLength="108" x="29" y="96.5889">BaseMessage()</text></g><!--class BaseRequest--><g id="elem_BaseRequest"><rect codeLine="6" fill="#F1F1F1" height="64.2969" id="BaseRequest" rx="2.5" ry="2.5" style="stroke:#181818;stroke-width:0.5;" width="130" x="28" y="180.5"/><ellipse cx="44.8" cy="196.5" fill="#A9DCDF" rx="11" ry="11" style="stroke:#181818;stroke-width:1.0;"/><path d="M44.9094,191.8438 L43.7531,196.9219 L46.0813,196.9219 L44.9094,191.8438 Z M43.425,189.6094 L46.4094,189.6094 L49.7688,202 L47.3156,202 L46.55,198.9375 L43.2688,198.9375 L42.5188,202 L40.0813,202 L43.425,189.6094 Z " fill="#000000"/><text fill="#000000" font-family="sans-serif" font-size="14" font-style="italic" lengthAdjust="spacing" textLength="94" x="59.2" y="201.3467">BaseRequest</text><line style="stroke:#181818;stroke-width:0.5;" x1="29" x2="157" y1="212.5" y2="212.5"/><line style="stroke:#181818;stroke-width:0.5;" x1="29" x2="157" y1="220.5" y2="220.5"/><polygon fill="#FFFF44" points="39,229.1484,43,233.1484,39,237.1484,35,233.1484" style="stroke:#B38D22;stroke-width:1.0;"/><text fill="#000000" font-family="sans-serif" font-size="14" lengthAdjust="spacing" textLength="104" x="48" y="237.4951">BaseRequest()</text></g><!--class DeleteCatalogItemRequest--><g id="elem_DeleteCatalogItemRequest"><rect codeLine="10" fill="#F1F1F1" height="80.5938" id="DeleteCatalogItemRequest" rx="2.5" ry="2.5" style="stroke:#181818;stroke-width:0.5;" width="345" x="186.5" y="321"/><ellipse cx="261.25" cy="337" fill="#ADD1B2" rx="11" ry="11" style="stroke:#181818;stroke-width:1.0;"/><path d="M264.2188,342.6406 Q263.6406,342.9375 263,343.0781 Q262.3594,343.2344 261.6563,343.2344 Q259.1563,343.2344 257.8281,341.5938 Q256.5156,339.9375 256.5156,336.8125 Q256.5156,333.6875 257.8281,332.0313 Q259.1563,330.375 261.6563,330.375 Q262.3594,330.375 263,330.5313 Q263.6563,330.6875 264.2188,330.9844 L264.2188,333.7031 Q263.5938,333.125 263,332.8594 Q262.4063,332.5781 261.7813,332.5781 Q260.4375,332.5781 259.75,333.6563 Q259.0625,334.7188 259.0625,336.8125 Q259.0625,338.9063 259.75,339.9844 Q260.4375,341.0469 261.7813,341.0469 Q262.4063,341.0469 263,340.7813 Q263.5938,340.5 264.2188,339.9219 L264.2188,342.6406 Z " fill="#000000"/><text fill="#000000" font-family="sans-serif" font-size="14" lengthAdjust="spacing" textLength="187" x="281.75" y="341.8467">DeleteCatalogItemRequest</text><line style="stroke:#181818;stroke-width:0.5;" x1="187.5" x2="530.5" y1="353" y2="353"/><ellipse cx="197.5" cy="366.6484" fill="none" rx="3" ry="3" style="stroke:#038048;stroke-width:1.0;"/><text fill="#000000" font-family="sans-serif" font-size="14" lengthAdjust="spacing" textLength="213" x="206.5" y="369.9951">CatalogItemId : int &#171;get&#187; &#171;set&#187;</text><line style="stroke:#181818;stroke-width:0.5;" x1="187.5" x2="530.5" y1="377.2969" y2="377.2969"/><ellipse cx="197.5" cy="390.9453" fill="#84BE84" rx="3" ry="3" style="stroke:#038048;stroke-width:1.0;"/><text fill="#000000" font-family="sans-serif" font-size="14" lengthAdjust="spacing" textLength="319" x="206.5" y="394.292">DeleteCatalogItemRequest(catalogItemId : int)</text></g><!--class DeleteCatalogItemEndpoint--><g id="elem_DeleteCatalogItemEndpoint"><rect codeLine="15" fill="#F1F1F1" height="96.8906" id="DeleteCatalogItemEndpoint" rx="2.5" ry="2.5" style="stroke:#181818;stroke-width:0.5;" width="866" x="193" y="164"/><ellipse cx="526.75" cy="180" fill="#ADD1B2" rx="11" ry="11" style="stroke:#181818;stroke-width:1.0;"/><path d="M529.7188,185.6406 Q529.1406,185.9375 528.5,186.0781 Q527.8594,186.2344 527.1563,186.2344 Q524.6563,186.2344 523.3281,184.5938 Q522.0156,182.9375 522.0156,179.8125 Q522.0156,176.6875 523.3281,175.0313 Q524.6563,173.375 527.1563,173.375 Q527.8594,173.375 528.5,173.5313 Q529.1563,173.6875 529.7188,173.9844 L529.7188,176.7031 Q529.0938,176.125 528.5,175.8594 Q527.9063,175.5781 527.2813,175.5781 Q525.9375,175.5781 525.25,176.6563 Q524.5625,177.7188 524.5625,179.8125 Q524.5625,181.9063 525.25,182.9844 Q525.9375,184.0469 527.2813,184.0469 Q527.9063,184.0469 528.5,183.7813 Q529.0938,183.5 529.7188,182.9219 L529.7188,185.6406 Z " fill="#000000"/><text fill="#000000" font-family="sans-serif" font-size="14" lengthAdjust="spacing" textLength="190" x="547.25" y="184.8467">DeleteCatalogItemEndpoint</text><line style="stroke:#181818;stroke-width:0.5;" x1="194" x2="1058" y1="196" y2="196"/><line style="stroke:#181818;stroke-width:0.5;" x1="194" x2="1058" y1="204" y2="204"/><ellipse cx="204" cy="217.6484" fill="#84BE84" rx="3" ry="3" style="stroke:#038048;stroke-width:1.0;"/><text fill="#000000" font-family="sans-serif" font-size="14" lengthAdjust="spacing" textLength="314" x="213" y="220.9951">AddRoute(app : IEndpointRouteBuilder) : void</text><ellipse cx="204" cy="233.9453" fill="#84BE84" rx="3" ry="3" style="stroke:#038048;stroke-width:1.0;"/><text fill="#000000" font-family="sans-serif" font-size="14" lengthAdjust="spacing" textLength="840" x="213" y="237.292">&#171;async&#187; HandleAsync(request : DeleteCatalogItemRequest, itemRepository : IRepository&lt;CatalogItem&gt;) : Task&lt;IResult&gt;</text><ellipse cx="204" cy="250.2422" fill="#84BE84" rx="3" ry="3" style="stroke:#038048;stroke-width:1.0;"/><text fill="#000000" font-family="sans-serif" font-size="14" lengthAdjust="spacing" textLength="200" x="213" y="253.5889">DeleteCatalogItemEndpoint()</text></g><!--class IEndpoint`3--><g id="elem_IEndpoint`3"><rect fill="#F1F1F1" height="48" id="IEndpoint`3" rx="2.5" ry="2.5" style="stroke:#181818;stroke-width:0.5;" width="113" x="569.5" y="31.5"/><ellipse cx="584.5" cy="47.5" fill="#ADD1B2" rx="11" ry="11" style="stroke:#181818;stroke-width:1.0;"/><path d="M587.4688,53.1406 Q586.8906,53.4375 586.25,53.5781 Q585.6094,53.7344 584.9063,53.7344 Q582.4063,53.7344 581.0781,52.0938 Q579.7656,50.4375 579.7656,47.3125 Q579.7656,44.1875 581.0781,42.5313 Q582.4063,40.875 584.9063,40.875 Q585.6094,40.875 586.25,41.0313 Q586.9063,41.1875 587.4688,41.4844 L587.4688,44.2031 Q586.8438,43.625 586.25,43.3594 Q585.6563,43.0781 585.0313,43.0781 Q583.6875,43.0781 583,44.1563 Q582.3125,45.2188 582.3125,47.3125 Q582.3125,49.4063 583,50.4844 Q583.6875,51.5469 585.0313,51.5469 Q585.6563,51.5469 586.25,51.2813 Q586.8438,51 587.4688,50.4219 L587.4688,53.1406 Z " fill="#000000"/><text fill="#000000" font-family="sans-serif" font-size="14" lengthAdjust="spacing" textLength="81" x="598.5" y="52.3467">IEndpoint`3</text><line style="stroke:#181818;stroke-width:0.5;" x1="570.5" x2="681.5" y1="63.5" y2="63.5"/><line style="stroke:#181818;stroke-width:0.5;" x1="570.5" x2="681.5" y1="71.5" y2="71.5"/></g><!--reverse link BaseMessage to BaseRequest--><g id="link_BaseMessage_BaseRequest"><path codeLine="9" d="M93,125.06 C93,144.33 93,164.36 93,180.27 " fill="none" id="BaseMessage-backto-BaseRequest" style="stroke:#181818;stroke-width:1.0;"/><polygon fill="none" points="86,125.27,93,105.27,100,125.27,86,125.27" style="stroke:#181818;stroke-width:1.0;"/></g><!--reverse link BaseRequest to DeleteCatalogItemRequest--><g id="link_BaseRequest_DeleteCatalogItemRequest"><path codeLine="14" d="M164.48,255.07 C168.03,257.09 171.55,259.07 175,261 C210.65,280.96 250.5,302.59 283.97,320.57 " fill="none" id="BaseRequest-backto-DeleteCatalogItemRequest" style="stroke:#181818;stroke-width:1.0;"/><polygon fill="none" points="161.57,260.9,147.68,244.9,168.52,248.75,161.57,260.9" style="stroke:#181818;stroke-width:1.0;"/></g><!--reverse link IEndpoint`3 to DeleteCatalogItemEndpoint--><g id="link_IEndpoint`3_DeleteCatalogItemEndpoint"><path codeLine="20" d="M626,100.47 C626,120.22 626,143.57 626,163.75 " fill="none" id="IEndpoint`3-backto-DeleteCatalogItemEndpoint" style="stroke:#181818;stroke-width:1.0;stroke-dasharray:7.0,7.0;"/><polygon fill="none" points="619,100.71,626,80.71,633,100.71,619,100.71" style="stroke:#181818;stroke-width:1.0;"/><text fill="#000000" font-family="sans-serif" font-size="13" lengthAdjust="spacing" textLength="322" x="264.7563" y="99.5224">&lt;IResult, DeleteCatalogItemRequest, IRepository&gt;</text></g><!--link DeleteCatalogItemEndpoint to DeleteCatalogItemRequest--><g id="link_DeleteCatalogItemEndpoint_DeleteCatalogItemRequest"><path codeLine="21" d="M538.94,261.43 C506.01,279.56 468.77,300.07 436.74,317.7 " fill="none" id="DeleteCatalogItemEndpoint-to-DeleteCatalogItemRequest" style="stroke:#181818;stroke-width:1.0;stroke-dasharray:7.0,7.0;"/><polygon fill="#181818" points="432.65,320.5,442.4621,319.6504,437.0268,318.0827,438.5945,312.6474,432.65,320.5" style="stroke:#181818;stroke-width:1.0;"/></g><!--SRC=[VP4zJyCm48Rt_0ehNLBHPc6hh4XjGP21fMA78pv55YOEkGjI1VntRDEa5fNnOjtN-pu-mmln00sBnW2Hs07X0n91Yq9yPiATXNXgx32W0TQsgvNOYBjHgr2x4lkuL2pZuY9MAvRPTmQNPWTy7v7uR1ObmqnC9B_MwxWX-zMvGOECUs0mjgqPt_w8EifpBJn0TooaR96hojtaxrDdIgjeBYKclCakuAK4KgotdUgjvvbXjqeTxCXOGDyxethg2CdTg8t2mI_wmyw_82NGiMlSQ-wXKmQtFYg64zSc2RKIEWIz9SrsE7gxSoIZWSexFWAzIjT0e-7amYRSy7lvJFzydOjy6bxzGnG1LBdRQLccFRBqEikoIfhy0000]--></g></svg>