<?xml version="1.0" encoding="us-ascii" standalone="no"?><svg xmlns="http://www.w3.org/2000/svg" xmlns:xlink="http://www.w3.org/1999/xlink" contentStyleType="text/css" height="101px" preserveAspectRatio="none" style="width:256px;height:101px;background:#FFFFFF;" version="1.1" viewBox="0 0 256 101" width="256px" zoomAndPan="magnify"><defs/><g><!--class DeleteCatalogItemResponse--><g id="elem_DeleteCatalogItemResponse"><rect codeLine="1" fill="#F1F1F1" height="80.5938" id="DeleteCatalogItemResponse" rx="2.5" ry="2.5" style="stroke:#181818;stroke-width:0.5;" width="235" x="7" y="7"/><ellipse cx="23.8" cy="23" fill="#ADD1B2" rx="11" ry="11" style="stroke:#181818;stroke-width:1.0;"/><path d="M26.7688,28.6406 Q26.1906,28.9375 25.55,29.0781 Q24.9094,29.2344 24.2063,29.2344 Q21.7063,29.2344 20.3781,27.5938 Q19.0656,25.9375 19.0656,22.8125 Q19.0656,19.6875 20.3781,18.0313 Q21.7063,16.375 24.2063,16.375 Q24.9094,16.375 25.55,16.5313 Q26.2063,16.6875 26.7688,16.9844 L26.7688,19.7031 Q26.1438,19.125 25.55,18.8594 Q24.9563,18.5781 24.3313,18.5781 Q22.9875,18.5781 22.3,19.6563 Q21.6125,20.7188 21.6125,22.8125 Q21.6125,24.9063 22.3,25.9844 Q22.9875,27.0469 24.3313,27.0469 Q24.9563,27.0469 25.55,26.7813 Q26.1438,26.5 26.7688,25.9219 L26.7688,28.6406 Z " fill="#000000"/><text fill="#000000" font-family="sans-serif" font-size="14" lengthAdjust="spacing" textLength="199" x="38.2" y="27.8467">DeleteCatalogItemResponse</text><line style="stroke:#181818;stroke-width:0.5;" x1="8" x2="241" y1="39" y2="39"/><ellipse cx="18" cy="52.6484" fill="none" rx="3" ry="3" style="stroke:#038048;stroke-width:1.0;"/><text fill="#000000" font-family="sans-serif" font-size="14" lengthAdjust="spacing" textLength="185" x="27" y="55.9951">Status : string &#171;get&#187; &#171;set&#187;</text><line style="stroke:#181818;stroke-width:0.5;" x1="8" x2="241" y1="63.2969" y2="63.2969"/><ellipse cx="18" cy="76.9453" fill="#84BE84" rx="3" ry="3" style="stroke:#038048;stroke-width:1.0;"/><text fill="#000000" font-family="sans-serif" font-size="14" lengthAdjust="spacing" textLength="209" x="27" y="80.292">DeleteCatalogItemResponse()</text></g><!--SRC=[Iyv9B2vMS4dDIIr9TKuiISp9J_SiISqDIYqkoCyhJbLGgEPI009jXU2In9BIOWKhXUAIeioyT0KRc_JK4Zix85qCeg6gS1gaeSbL2m00]--></g></svg>