<?xml version="1.0" encoding="us-ascii" standalone="no"?><svg xmlns="http://www.w3.org/2000/svg" xmlns:xlink="http://www.w3.org/1999/xlink" contentStyleType="text/css" height="448px" preserveAspectRatio="none" style="width:410px;height:448px;background:#FFFFFF;" version="1.1" viewBox="0 0 410 448" width="410px" zoomAndPan="magnify"><defs/><g><!--class ToastLevel--><g id="elem_ToastLevel"><rect codeLine="1" fill="#F1F1F1" height="137.75" id="ToastLevel" rx="2.5" ry="2.5" style="stroke:#181818;stroke-width:0.5;" width="110" x="150" y="304"/><ellipse cx="166.8" cy="324.1328" fill="#EB937F" rx="11" ry="11" style="stroke:#181818;stroke-width:1.0;"/><path d="M170.9094,330.1328 L163.1906,330.1328 L163.1906,317.7422 L170.9094,317.7422 L170.9094,319.8984 L165.6438,319.8984 L165.6438,322.5703 L170.4094,322.5703 L170.4094,324.7266 L165.6438,324.7266 L165.6438,327.9766 L170.9094,327.9766 L170.9094,330.1328 Z " fill="#000000"/><text fill="#000000" font-family="sans-serif" font-size="12" font-style="italic" lengthAdjust="spacing" textLength="56" x="190.2" y="320.1387">&#171;sealed&#187;</text><text fill="#000000" font-family="sans-serif" font-size="14" lengthAdjust="spacing" textLength="74" x="181.2" y="335.9639">ToastLevel</text><line style="stroke:#181818;stroke-width:0.5;" x1="151" x2="259" y1="344.2656" y2="344.2656"/><text fill="#000000" font-family="sans-serif" font-size="14" lengthAdjust="spacing" textLength="54" x="156" y="361.2607">Info = 0</text><text fill="#000000" font-family="sans-serif" font-size="14" lengthAdjust="spacing" textLength="88" x="156" y="377.5576">Success = 1</text><text fill="#000000" font-family="sans-serif" font-size="14" lengthAdjust="spacing" textLength="85" x="156" y="393.8545">Warning = 2</text><text fill="#000000" font-family="sans-serif" font-size="14" lengthAdjust="spacing" textLength="62" x="156" y="410.1514">Error = 3</text><line style="stroke:#181818;stroke-width:0.5;" x1="151" x2="259" y1="417.4531" y2="417.4531"/><ellipse cx="161" cy="431.1016" fill="#84BE84" rx="3" ry="3" style="stroke:#038048;stroke-width:1.0;"/><text fill="#000000" font-family="sans-serif" font-size="14" lengthAdjust="spacing" textLength="84" x="170" y="434.4482">ToastLevel()</text></g><!--class ToastService--><g id="elem_ToastService"><rect codeLine="8" fill="#F1F1F1" height="129.4844" id="ToastService" rx="2.5" ry="2.5" style="stroke:#181818;stroke-width:0.5;" width="396" x="7" y="115"/><ellipse cx="156.25" cy="131" fill="#ADD1B2" rx="11" ry="11" style="stroke:#181818;stroke-width:1.0;"/><path d="M159.2188,136.6406 Q158.6406,136.9375 158,137.0781 Q157.3594,137.2344 156.6563,137.2344 Q154.1563,137.2344 152.8281,135.5938 Q151.5156,133.9375 151.5156,130.8125 Q151.5156,127.6875 152.8281,126.0313 Q154.1563,124.375 156.6563,124.375 Q157.3594,124.375 158,124.5313 Q158.6563,124.6875 159.2188,124.9844 L159.2188,127.7031 Q158.5938,127.125 158,126.8594 Q157.4063,126.5781 156.7813,126.5781 Q155.4375,126.5781 154.75,127.6563 Q154.0625,128.7188 154.0625,130.8125 Q154.0625,132.9063 154.75,133.9844 Q155.4375,135.0469 156.7813,135.0469 Q157.4063,135.0469 158,134.7813 Q158.5938,134.5 159.2188,133.9219 L159.2188,136.6406 Z " fill="#000000"/><text fill="#000000" font-family="sans-serif" font-size="14" lengthAdjust="spacing" textLength="89" x="176.75" y="135.8467">ToastService</text><line style="stroke:#181818;stroke-width:0.5;" x1="8" x2="402" y1="147" y2="147"/><ellipse cx="18" cy="160.6484" fill="none" rx="3" ry="3" style="stroke:#038048;stroke-width:1.0;"/><text fill="#000000" font-family="sans-serif" font-size="14" lengthAdjust="spacing" textLength="320" x="27" y="163.9951">&#171;event&#187; OnShow : Action&lt;string, ToastLevel&gt;</text><ellipse cx="18" cy="176.9453" fill="none" rx="3" ry="3" style="stroke:#038048;stroke-width:1.0;"/><text fill="#000000" font-family="sans-serif" font-size="14" lengthAdjust="spacing" textLength="168" x="27" y="180.292">&#171;event&#187; OnHide : Action</text><line style="stroke:#181818;stroke-width:0.5;" x1="8" x2="402" y1="187.5938" y2="187.5938"/><ellipse cx="18" cy="201.2422" fill="#84BE84" rx="3" ry="3" style="stroke:#038048;stroke-width:1.0;"/><text fill="#000000" font-family="sans-serif" font-size="14" lengthAdjust="spacing" textLength="370" x="27" y="204.5889">ShowToast(message : string, level : ToastLevel) : void</text><ellipse cx="18" cy="217.5391" fill="#84BE84" rx="3" ry="3" style="stroke:#038048;stroke-width:1.0;"/><text fill="#000000" font-family="sans-serif" font-size="14" lengthAdjust="spacing" textLength="108" x="27" y="220.8857">Dispose() : void</text><ellipse cx="18" cy="233.8359" fill="#84BE84" rx="3" ry="3" style="stroke:#038048;stroke-width:1.0;"/><text fill="#000000" font-family="sans-serif" font-size="14" lengthAdjust="spacing" textLength="99" x="27" y="237.1826">ToastService()</text></g><!--class IDisposable--><g id="elem_IDisposable"><rect fill="#F1F1F1" height="48" id="IDisposable" rx="2.5" ry="2.5" style="stroke:#181818;stroke-width:0.5;" width="112" x="149" y="7"/><ellipse cx="164" cy="23" fill="#ADD1B2" rx="11" ry="11" style="stroke:#181818;stroke-width:1.0;"/><path d="M166.9688,28.6406 Q166.3906,28.9375 165.75,29.0781 Q165.1094,29.2344 164.4063,29.2344 Q161.9063,29.2344 160.5781,27.5938 Q159.2656,25.9375 159.2656,22.8125 Q159.2656,19.6875 160.5781,18.0313 Q161.9063,16.375 164.4063,16.375 Q165.1094,16.375 165.75,16.5313 Q166.4063,16.6875 166.9688,16.9844 L166.9688,19.7031 Q166.3438,19.125 165.75,18.8594 Q165.1563,18.5781 164.5313,18.5781 Q163.1875,18.5781 162.5,19.6563 Q161.8125,20.7188 161.8125,22.8125 Q161.8125,24.9063 162.5,25.9844 Q163.1875,27.0469 164.5313,27.0469 Q165.1563,27.0469 165.75,26.7813 Q166.3438,26.5 166.9688,25.9219 L166.9688,28.6406 Z " fill="#000000"/><text fill="#000000" font-family="sans-serif" font-size="14" lengthAdjust="spacing" textLength="80" x="178" y="27.8467">IDisposable</text><line style="stroke:#181818;stroke-width:0.5;" x1="150" x2="260" y1="39" y2="39"/><line style="stroke:#181818;stroke-width:0.5;" x1="150" x2="260" y1="47" y2="47"/></g><!--reverse link IDisposable to ToastService--><g id="link_IDisposable_ToastService"><path codeLine="15" d="M205,75.95 C205,88.11 205,101.56 205,114.61 " fill="none" id="IDisposable-backto-ToastService" style="stroke:#181818;stroke-width:1.0;stroke-dasharray:7.0,7.0;"/><polygon fill="none" points="198,76.21,205,56.21,212,76.21,198,76.21" style="stroke:#181818;stroke-width:1.0;"/></g><!--link ToastService to ToastLevel--><g id="link_ToastService_ToastLevel"><path codeLine="16" d="M205,244.27 C205,261.37 205,280.02 205,297.65 " fill="none" id="ToastService-to-ToastLevel" style="stroke:#181818;stroke-width:1.0;stroke-dasharray:7.0,7.0;"/><polygon fill="#181818" points="205,302.58,209,293.58,205,297.58,201,293.58,205,302.58" style="stroke:#181818;stroke-width:1.0;"/></g><!--SRC=[ROyz2y8m48Rt_eeRAqhnOokr82We20uLd6Dwra2QI1BheFvthx6LA6PxBk_77Qfh3NlDhDjYWnAop2AJMEOvm3q2UXjrqZ27iOVYoZbQIppnV6162LKHJpslZD66QEPf62J7W-WPSSd8x8S5caPmx5k6r4movQXufugpla4A2-w4LfbrXZf6GLZ-nxCM9NuytN-RurrnJLkpgXNqQTBVcmQf0w96Yx8pBuMzQ8lnppZStX-rUGlPKI9aZoJvKaHVnoP97lIz0000]--></g></svg>