<?xml version="1.0" encoding="us-ascii" standalone="no"?><svg xmlns="http://www.w3.org/2000/svg" xmlns:xlink="http://www.w3.org/1999/xlink" contentStyleType="text/css" height="150px" preserveAspectRatio="none" style="width:261px;height:150px;background:#FFFFFF;" version="1.1" viewBox="0 0 261 150" width="261px" zoomAndPan="magnify"><defs/><g><!--class CatalogItemViewModel--><g id="elem_CatalogItemViewModel"><rect codeLine="1" fill="#F1F1F1" height="129.4844" id="CatalogItemViewModel" rx="2.5" ry="2.5" style="stroke:#181818;stroke-width:0.5;" width="240" x="7" y="7"/><ellipse cx="45.4" cy="23" fill="#ADD1B2" rx="11" ry="11" style="stroke:#181818;stroke-width:1.0;"/><path d="M48.3688,28.6406 Q47.7906,28.9375 47.15,29.0781 Q46.5094,29.2344 45.8063,29.2344 Q43.3063,29.2344 41.9781,27.5938 Q40.6656,25.9375 40.6656,22.8125 Q40.6656,19.6875 41.9781,18.0313 Q43.3063,16.375 45.8063,16.375 Q46.5094,16.375 47.15,16.5313 Q47.8063,16.6875 48.3688,16.9844 L48.3688,19.7031 Q47.7438,19.125 47.15,18.8594 Q46.5563,18.5781 45.9313,18.5781 Q44.5875,18.5781 43.9,19.6563 Q43.2125,20.7188 43.2125,22.8125 Q43.2125,24.9063 43.9,25.9844 Q44.5875,27.0469 45.9313,27.0469 Q46.5563,27.0469 47.15,26.7813 Q47.7438,26.5 48.3688,25.9219 L48.3688,28.6406 Z " fill="#000000"/><text fill="#000000" font-family="sans-serif" font-size="14" lengthAdjust="spacing" textLength="156" x="64.6" y="27.8467">CatalogItemViewModel</text><line style="stroke:#181818;stroke-width:0.5;" x1="8" x2="246" y1="39" y2="39"/><ellipse cx="18" cy="52.6484" fill="none" rx="3" ry="3" style="stroke:#038048;stroke-width:1.0;"/><text fill="#000000" font-family="sans-serif" font-size="14" lengthAdjust="spacing" textLength="131" x="27" y="55.9951">Id : int &#171;get&#187; &#171;set&#187;</text><ellipse cx="18" cy="68.9453" fill="none" rx="3" ry="3" style="stroke:#038048;stroke-width:1.0;"/><text fill="#000000" font-family="sans-serif" font-size="14" lengthAdjust="spacing" textLength="188" x="27" y="72.292">Name : string? &#171;get&#187; &#171;set&#187;</text><ellipse cx="18" cy="85.2422" fill="none" rx="3" ry="3" style="stroke:#038048;stroke-width:1.0;"/><text fill="#000000" font-family="sans-serif" font-size="14" lengthAdjust="spacing" textLength="214" x="27" y="88.5889">PictureUri : string? &#171;get&#187; &#171;set&#187;</text><ellipse cx="18" cy="101.5391" fill="none" rx="3" ry="3" style="stroke:#038048;stroke-width:1.0;"/><text fill="#000000" font-family="sans-serif" font-size="14" lengthAdjust="spacing" textLength="189" x="27" y="104.8857">Price : decimal &#171;get&#187; &#171;set&#187;</text><line style="stroke:#181818;stroke-width:0.5;" x1="8" x2="246" y1="112.1875" y2="112.1875"/><ellipse cx="18" cy="125.8359" fill="#84BE84" rx="3" ry="3" style="stroke:#038048;stroke-width:1.0;"/><text fill="#000000" font-family="sans-serif" font-size="14" lengthAdjust="spacing" textLength="166" x="27" y="129.1826">CatalogItemViewModel()</text></g><!--SRC=[Iyv9B2vMS4uiISp9J_SiISqDoqmjzyrFISrHKAZcKW02RGNF50KhXSoy4WKRc_JK4Zix85qCeg7IVecvgK05nIL5cNdfzZWK1MGcbvGMfOOMPH9MMfIP338m9JKvCpSn1uSgR4xMqEIg1G00]--></g></svg>