<?xml version="1.0" encoding="us-ascii" standalone="no"?><svg xmlns="http://www.w3.org/2000/svg" xmlns:xlink="http://www.w3.org/1999/xlink" contentStyleType="text/css" height="457px" preserveAspectRatio="none" style="width:1105px;height:457px;background:#FFFFFF;" version="1.1" viewBox="0 0 1105 457" width="1105px" zoomAndPan="magnify"><defs/><g><!--class BaseMessage--><g id="elem_BaseMessage"><rect codeLine="1" fill="#F1F1F1" height="96.8906" id="BaseMessage" rx="2.5" ry="2.5" style="stroke:#181818;stroke-width:0.5;" width="168" x="26.5" y="7"/><ellipse cx="58.6" cy="23" fill="#A9DCDF" rx="11" ry="11" style="stroke:#181818;stroke-width:1.0;"/><path d="M58.7094,18.3438 L57.5531,23.4219 L59.8813,23.4219 L58.7094,18.3438 Z M57.225,16.1094 L60.2094,16.1094 L63.5688,28.5 L61.1156,28.5 L60.35,25.4375 L57.0688,25.4375 L56.3188,28.5 L53.8813,28.5 L57.225,16.1094 Z " fill="#000000"/><text fill="#000000" font-family="sans-serif" font-size="14" font-style="italic" lengthAdjust="spacing" textLength="98" x="76.4" y="27.8467">BaseMessage</text><line style="stroke:#181818;stroke-width:0.5;" x1="27.5" x2="193.5" y1="39" y2="39"/><polygon fill="none" points="37.5,47.6484,41.5,51.6484,37.5,55.6484,33.5,51.6484" style="stroke:#B38D22;stroke-width:1.0;"/><text fill="#000000" font-family="sans-serif" font-size="14" lengthAdjust="spacing" textLength="137" x="46.5" y="55.9951">_correlationId : Guid</text><line style="stroke:#181818;stroke-width:0.5;" x1="27.5" x2="193.5" y1="63.2969" y2="63.2969"/><ellipse cx="37.5" cy="76.9453" fill="#84BE84" rx="3" ry="3" style="stroke:#038048;stroke-width:1.0;"/><text fill="#000000" font-family="sans-serif" font-size="14" lengthAdjust="spacing" textLength="142" x="46.5" y="80.292">CorrelationId() : Guid</text><polygon fill="#FFFF44" points="37.5,88.2422,41.5,92.2422,37.5,96.2422,33.5,92.2422" style="stroke:#B38D22;stroke-width:1.0;"/><text fill="#000000" font-family="sans-serif" font-size="14" lengthAdjust="spacing" textLength="108" x="46.5" y="96.5889">BaseMessage()</text></g><!--class BaseRequest--><g id="elem_BaseRequest"><rect codeLine="6" fill="#F1F1F1" height="64.2969" id="BaseRequest" rx="2.5" ry="2.5" style="stroke:#181818;stroke-width:0.5;" width="130" x="45.5" y="180.5"/><ellipse cx="62.3" cy="196.5" fill="#A9DCDF" rx="11" ry="11" style="stroke:#181818;stroke-width:1.0;"/><path d="M62.4094,191.8438 L61.2531,196.9219 L63.5813,196.9219 L62.4094,191.8438 Z M60.925,189.6094 L63.9094,189.6094 L67.2688,202 L64.8156,202 L64.05,198.9375 L60.7688,198.9375 L60.0188,202 L57.5813,202 L60.925,189.6094 Z " fill="#000000"/><text fill="#000000" font-family="sans-serif" font-size="14" font-style="italic" lengthAdjust="spacing" textLength="94" x="76.7" y="201.3467">BaseRequest</text><line style="stroke:#181818;stroke-width:0.5;" x1="46.5" x2="174.5" y1="212.5" y2="212.5"/><line style="stroke:#181818;stroke-width:0.5;" x1="46.5" x2="174.5" y1="220.5" y2="220.5"/><polygon fill="#FFFF44" points="56.5,229.1484,60.5,233.1484,56.5,237.1484,52.5,233.1484" style="stroke:#B38D22;stroke-width:1.0;"/><text fill="#000000" font-family="sans-serif" font-size="14" lengthAdjust="spacing" textLength="104" x="65.5" y="237.4951">BaseRequest()</text></g><!--class ListPagedCatalogItemRequest--><g id="elem_ListPagedCatalogItemRequest"><rect codeLine="10" fill="#F1F1F1" height="129.4844" id="ListPagedCatalogItemRequest" rx="2.5" ry="2.5" style="stroke:#181818;stroke-width:0.5;" width="751" x="7" y="321"/><ellipse cx="274.25" cy="337" fill="#ADD1B2" rx="11" ry="11" style="stroke:#181818;stroke-width:1.0;"/><path d="M277.2188,342.6406 Q276.6406,342.9375 276,343.0781 Q275.3594,343.2344 274.6563,343.2344 Q272.1563,343.2344 270.8281,341.5938 Q269.5156,339.9375 269.5156,336.8125 Q269.5156,333.6875 270.8281,332.0313 Q272.1563,330.375 274.6563,330.375 Q275.3594,330.375 276,330.5313 Q276.6563,330.6875 277.2188,330.9844 L277.2188,333.7031 Q276.5938,333.125 276,332.8594 Q275.4063,332.5781 274.7813,332.5781 Q273.4375,332.5781 272.75,333.6563 Q272.0625,334.7188 272.0625,336.8125 Q272.0625,338.9063 272.75,339.9844 Q273.4375,341.0469 274.7813,341.0469 Q275.4063,341.0469 276,340.7813 Q276.5938,340.5 277.2188,339.9219 L277.2188,342.6406 Z " fill="#000000"/><text fill="#000000" font-family="sans-serif" font-size="14" lengthAdjust="spacing" textLength="208" x="294.75" y="341.8467">ListPagedCatalogItemRequest</text><line style="stroke:#181818;stroke-width:0.5;" x1="8" x2="757" y1="353" y2="353"/><ellipse cx="18" cy="366.6484" fill="none" rx="3" ry="3" style="stroke:#038048;stroke-width:1.0;"/><text fill="#000000" font-family="sans-serif" font-size="14" lengthAdjust="spacing" textLength="183" x="27" y="369.9951">PageSize : int &#171;get&#187; &#171;set&#187;</text><ellipse cx="18" cy="382.9453" fill="none" rx="3" ry="3" style="stroke:#038048;stroke-width:1.0;"/><text fill="#000000" font-family="sans-serif" font-size="14" lengthAdjust="spacing" textLength="191" x="27" y="386.292">PageIndex : int &#171;get&#187; &#171;set&#187;</text><ellipse cx="18" cy="399.2422" fill="none" rx="3" ry="3" style="stroke:#038048;stroke-width:1.0;"/><text fill="#000000" font-family="sans-serif" font-size="14" lengthAdjust="spacing" textLength="231" x="27" y="402.5889">CatalogBrandId : int? &#171;get&#187; &#171;set&#187;</text><ellipse cx="18" cy="415.5391" fill="none" rx="3" ry="3" style="stroke:#038048;stroke-width:1.0;"/><text fill="#000000" font-family="sans-serif" font-size="14" lengthAdjust="spacing" textLength="224" x="27" y="418.8857">CatalogTypeId : int? &#171;get&#187; &#171;set&#187;</text><line style="stroke:#181818;stroke-width:0.5;" x1="8" x2="757" y1="426.1875" y2="426.1875"/><ellipse cx="18" cy="439.8359" fill="#84BE84" rx="3" ry="3" style="stroke:#038048;stroke-width:1.0;"/><text fill="#000000" font-family="sans-serif" font-size="14" lengthAdjust="spacing" textLength="725" x="27" y="443.1826">ListPagedCatalogItemRequest(pageSize : int?, pageIndex : int?, catalogBrandId : int?, catalogTypeId : int?)</text></g><!--class CatalogItemListPagedEndpoint--><g id="elem_CatalogItemListPagedEndpoint"><rect codeLine="18" fill="#F1F1F1" height="96.8906" id="CatalogItemListPagedEndpoint" rx="2.5" ry="2.5" style="stroke:#181818;stroke-width:0.5;" width="887" x="211" y="164"/><ellipse cx="544.75" cy="180" fill="#ADD1B2" rx="11" ry="11" style="stroke:#181818;stroke-width:1.0;"/><path d="M547.7188,185.6406 Q547.1406,185.9375 546.5,186.0781 Q545.8594,186.2344 545.1563,186.2344 Q542.6563,186.2344 541.3281,184.5938 Q540.0156,182.9375 540.0156,179.8125 Q540.0156,176.6875 541.3281,175.0313 Q542.6563,173.375 545.1563,173.375 Q545.8594,173.375 546.5,173.5313 Q547.1563,173.6875 547.7188,173.9844 L547.7188,176.7031 Q547.0938,176.125 546.5,175.8594 Q545.9063,175.5781 545.2813,175.5781 Q543.9375,175.5781 543.25,176.6563 Q542.5625,177.7188 542.5625,179.8125 Q542.5625,181.9063 543.25,182.9844 Q543.9375,184.0469 545.2813,184.0469 Q545.9063,184.0469 546.5,183.7813 Q547.0938,183.5 547.7188,182.9219 L547.7188,185.6406 Z " fill="#000000"/><text fill="#000000" font-family="sans-serif" font-size="14" lengthAdjust="spacing" textLength="211" x="565.25" y="184.8467">CatalogItemListPagedEndpoint</text><line style="stroke:#181818;stroke-width:0.5;" x1="212" x2="1097" y1="196" y2="196"/><line style="stroke:#181818;stroke-width:0.5;" x1="212" x2="1097" y1="204" y2="204"/><ellipse cx="222" cy="217.6484" fill="#84BE84" rx="3" ry="3" style="stroke:#038048;stroke-width:1.0;"/><text fill="#000000" font-family="sans-serif" font-size="14" lengthAdjust="spacing" textLength="545" x="231" y="220.9951">CatalogItemListPagedEndpoint(uriComposer : IUriComposer, mapper : IMapper)</text><ellipse cx="222" cy="233.9453" fill="#84BE84" rx="3" ry="3" style="stroke:#038048;stroke-width:1.0;"/><text fill="#000000" font-family="sans-serif" font-size="14" lengthAdjust="spacing" textLength="314" x="231" y="237.292">AddRoute(app : IEndpointRouteBuilder) : void</text><ellipse cx="222" cy="250.2422" fill="#84BE84" rx="3" ry="3" style="stroke:#038048;stroke-width:1.0;"/><text fill="#000000" font-family="sans-serif" font-size="14" lengthAdjust="spacing" textLength="861" x="231" y="253.5889">&#171;async&#187; HandleAsync(request : ListPagedCatalogItemRequest, itemRepository : IRepository&lt;CatalogItem&gt;) : Task&lt;IResult&gt;</text></g><!--class IEndpoint`3--><g id="elem_IEndpoint`3"><rect fill="#F1F1F1" height="48" id="IEndpoint`3" rx="2.5" ry="2.5" style="stroke:#181818;stroke-width:0.5;" width="113" x="598" y="31.5"/><ellipse cx="613" cy="47.5" fill="#ADD1B2" rx="11" ry="11" style="stroke:#181818;stroke-width:1.0;"/><path d="M615.9688,53.1406 Q615.3906,53.4375 614.75,53.5781 Q614.1094,53.7344 613.4063,53.7344 Q610.9063,53.7344 609.5781,52.0938 Q608.2656,50.4375 608.2656,47.3125 Q608.2656,44.1875 609.5781,42.5313 Q610.9063,40.875 613.4063,40.875 Q614.1094,40.875 614.75,41.0313 Q615.4063,41.1875 615.9688,41.4844 L615.9688,44.2031 Q615.3438,43.625 614.75,43.3594 Q614.1563,43.0781 613.5313,43.0781 Q612.1875,43.0781 611.5,44.1563 Q610.8125,45.2188 610.8125,47.3125 Q610.8125,49.4063 611.5,50.4844 Q612.1875,51.5469 613.5313,51.5469 Q614.1563,51.5469 614.75,51.2813 Q615.3438,51 615.9688,50.4219 L615.9688,53.1406 Z " fill="#000000"/><text fill="#000000" font-family="sans-serif" font-size="14" lengthAdjust="spacing" textLength="81" x="627" y="52.3467">IEndpoint`3</text><line style="stroke:#181818;stroke-width:0.5;" x1="599" x2="710" y1="63.5" y2="63.5"/><line style="stroke:#181818;stroke-width:0.5;" x1="599" x2="710" y1="71.5" y2="71.5"/></g><!--reverse link BaseMessage to BaseRequest--><g id="link_BaseMessage_BaseRequest"><path codeLine="9" d="M110.5,125.06 C110.5,144.33 110.5,164.36 110.5,180.27 " fill="none" id="BaseMessage-backto-BaseRequest" style="stroke:#181818;stroke-width:1.0;"/><polygon fill="none" points="103.5,125.27,110.5,105.27,117.5,125.27,103.5,125.27" style="stroke:#181818;stroke-width:1.0;"/></g><!--reverse link BaseRequest to ListPagedCatalogItemRequest--><g id="link_BaseRequest_ListPagedCatalogItemRequest"><path codeLine="17" d="M177.85,255.84 C208.9,275.36 246.42,298.95 280.82,320.57 " fill="none" id="BaseRequest-backto-ListPagedCatalogItemRequest" style="stroke:#181818;stroke-width:1.0;"/><polygon fill="none" points="174.6,261.43,161.39,244.86,182.05,249.58,174.6,261.43" style="stroke:#181818;stroke-width:1.0;"/></g><!--reverse link IEndpoint`3 to CatalogItemListPagedEndpoint--><g id="link_IEndpoint`3_CatalogItemListPagedEndpoint"><path codeLine="23" d="M654.5,100.47 C654.5,120.22 654.5,143.57 654.5,163.75 " fill="none" id="IEndpoint`3-backto-CatalogItemListPagedEndpoint" style="stroke:#181818;stroke-width:1.0;stroke-dasharray:7.0,7.0;"/><polygon fill="none" points="647.5,100.71,654.5,80.71,661.5,100.71,647.5,100.71" style="stroke:#181818;stroke-width:1.0;"/><text fill="#000000" font-family="sans-serif" font-size="13" lengthAdjust="spacing" textLength="342" x="270.8188" y="99.5224">&lt;IResult, ListPagedCatalogItemRequest, IRepository&gt;</text></g><!--link CatalogItemListPagedEndpoint to ListPagedCatalogItemRequest--><g id="link_CatalogItemListPagedEndpoint_ListPagedCatalogItemRequest"><path codeLine="24" d="M578.37,261.36 C550.62,278.8 518.72,298.86 488.83,317.65 " fill="none" id="CatalogItemListPagedEndpoint-to-ListPagedCatalogItemRequest" style="stroke:#181818;stroke-width:1.0;stroke-dasharray:7.0,7.0;"/><polygon fill="#181818" points="485.05,320.66,494.7986,319.2584,489.2836,317.9997,490.5422,312.4847,485.05,320.66" style="stroke:#181818;stroke-width:1.0;"/></g><!--SRC=[XLBBJiCm4BpdArRf9LNJNBXLLggsGX29IgYKCvZOgYpIsDWEeZp-dNMQf2uWaukpE-ETyTZqoLXDImjbHOs19JLypOsXEmxm4G5-8tWefTQyebR8kc0mWwj6i1QRmCg7ah4FZlnfoJZwYkXliGr_QRYn9p6lsUxn7P7FwTGdHCSvDyBOMyJPYbfQoLrX-Vx7t0aumfruv-XGr1O8sN6RvxWQjtgaecRyBSZgP9QQrgpD0wdpC7TxKFm_Qk0OYJfpFqz1dJl5JlcNgw5zPg3FjG-fpJKWt-Ni0GFvicPAkgY6e4EifD5Y9VTA6gxHIt5_AbFOKwMExNNxD-u6BXZRoCRo1BiExOUrpMKZAePS15xby2e9eUPGbnZnDQPHyOMh4jqTTnOwQmgYBT2Ki58VdEAf8jw6t8bkgNacI31DPNECDHxiFLx44FTG6fRq5F8OhoFBWZ56mPl8iZoazWq0]--></g></svg>