<?xml version="1.0" encoding="us-ascii" standalone="no"?><svg xmlns="http://www.w3.org/2000/svg" xmlns:xlink="http://www.w3.org/1999/xlink" contentStyleType="text/css" height="300px" preserveAspectRatio="none" style="width:330px;height:300px;background:#FFFFFF;" version="1.1" viewBox="0 0 330 300" width="330px" zoomAndPan="magnify"><defs/><g><!--class ToastComponent--><g id="elem_ToastComponent"><rect codeLine="1" fill="#F1F1F1" height="178.375" id="ToastComponent" rx="2.5" ry="2.5" style="stroke:#181818;stroke-width:0.5;" width="314" x="9" y="115"/><ellipse cx="101.25" cy="131" fill="#ADD1B2" rx="11" ry="11" style="stroke:#181818;stroke-width:1.0;"/><path d="M104.2188,136.6406 Q103.6406,136.9375 103,137.0781 Q102.3594,137.2344 101.6563,137.2344 Q99.1563,137.2344 97.8281,135.5938 Q96.5156,133.9375 96.5156,130.8125 Q96.5156,127.6875 97.8281,126.0313 Q99.1563,124.375 101.6563,124.375 Q102.3594,124.375 103,124.5313 Q103.6563,124.6875 104.2188,124.9844 L104.2188,127.7031 Q103.5938,127.125 103,126.8594 Q102.4063,126.5781 101.7813,126.5781 Q100.4375,126.5781 99.75,127.6563 Q99.0625,128.7188 99.0625,130.8125 Q99.0625,132.9063 99.75,133.9844 Q100.4375,135.0469 101.7813,135.0469 Q102.4063,135.0469 103,134.7813 Q103.5938,134.5 104.2188,133.9219 L104.2188,136.6406 Z " fill="#000000"/><text fill="#000000" font-family="sans-serif" font-size="14" lengthAdjust="spacing" textLength="121" x="121.75" y="135.8467">ToastComponent</text><line style="stroke:#181818;stroke-width:0.5;" x1="10" x2="322" y1="147" y2="147"/><polygon fill="none" points="20,155.6484,24,159.6484,20,163.6484,16,159.6484" style="stroke:#B38D22;stroke-width:1.0;"/><text fill="#000000" font-family="sans-serif" font-size="14" lengthAdjust="spacing" textLength="198" x="29" y="163.9951">Heading : string &#171;get&#187; &#171;set&#187;</text><polygon fill="none" points="20,171.9453,24,175.9453,20,179.9453,16,175.9453" style="stroke:#B38D22;stroke-width:1.0;"/><text fill="#000000" font-family="sans-serif" font-size="14" lengthAdjust="spacing" textLength="204" x="29" y="180.292">Message : string &#171;get&#187; &#171;set&#187;</text><polygon fill="none" points="20,188.2422,24,192.2422,20,196.2422,16,192.2422" style="stroke:#B38D22;stroke-width:1.0;"/><text fill="#000000" font-family="sans-serif" font-size="14" lengthAdjust="spacing" textLength="187" x="29" y="196.5889">IsVisible : bool &#171;get&#187; &#171;set&#187;</text><polygon fill="none" points="20,204.5391,24,208.5391,20,212.5391,16,208.5391" style="stroke:#B38D22;stroke-width:1.0;"/><text fill="#000000" font-family="sans-serif" font-size="14" lengthAdjust="spacing" textLength="288" x="29" y="212.8857">BackgroundCssClass : string &#171;get&#187; &#171;set&#187;</text><polygon fill="none" points="20,220.8359,24,224.8359,20,228.8359,16,224.8359" style="stroke:#B38D22;stroke-width:1.0;"/><text fill="#000000" font-family="sans-serif" font-size="14" lengthAdjust="spacing" textLength="233" x="29" y="229.1826">IconCssClass : string &#171;get&#187; &#171;set&#187;</text><line style="stroke:#181818;stroke-width:0.5;" x1="10" x2="322" y1="236.4844" y2="236.4844"/><polygon fill="#FFFF44" points="20,245.1328,24,249.1328,20,253.1328,16,249.1328" style="stroke:#B38D22;stroke-width:1.0;"/><text fill="#000000" font-family="sans-serif" font-size="14" lengthAdjust="spacing" textLength="212" x="29" y="253.4795">&#171;override&#187; OnInitialized() : void</text><ellipse cx="20" cy="266.4297" fill="#84BE84" rx="3" ry="3" style="stroke:#038048;stroke-width:1.0;"/><text fill="#000000" font-family="sans-serif" font-size="14" lengthAdjust="spacing" textLength="108" x="29" y="269.7764">Dispose() : void</text><ellipse cx="20" cy="282.7266" fill="#84BE84" rx="3" ry="3" style="stroke:#038048;stroke-width:1.0;"/><text fill="#000000" font-family="sans-serif" font-size="14" lengthAdjust="spacing" textLength="131" x="29" y="286.0732">ToastComponent()</text></g><!--class ComponentBase--><g id="elem_ComponentBase"><rect fill="#F1F1F1" height="48" id="ComponentBase" rx="2.5" ry="2.5" style="stroke:#181818;stroke-width:0.5;" width="149" x="8.5" y="7"/><ellipse cx="23.5" cy="23" fill="#ADD1B2" rx="11" ry="11" style="stroke:#181818;stroke-width:1.0;"/><path d="M26.4688,28.6406 Q25.8906,28.9375 25.25,29.0781 Q24.6094,29.2344 23.9063,29.2344 Q21.4063,29.2344 20.0781,27.5938 Q18.7656,25.9375 18.7656,22.8125 Q18.7656,19.6875 20.0781,18.0313 Q21.4063,16.375 23.9063,16.375 Q24.6094,16.375 25.25,16.5313 Q25.9063,16.6875 26.4688,16.9844 L26.4688,19.7031 Q25.8438,19.125 25.25,18.8594 Q24.6563,18.5781 24.0313,18.5781 Q22.6875,18.5781 22,19.6563 Q21.3125,20.7188 21.3125,22.8125 Q21.3125,24.9063 22,25.9844 Q22.6875,27.0469 24.0313,27.0469 Q24.6563,27.0469 25.25,26.7813 Q25.8438,26.5 26.4688,25.9219 L26.4688,28.6406 Z " fill="#000000"/><text fill="#000000" font-family="sans-serif" font-size="14" lengthAdjust="spacing" textLength="117" x="37.5" y="27.8467">ComponentBase</text><line style="stroke:#181818;stroke-width:0.5;" x1="9.5" x2="156.5" y1="39" y2="39"/><line style="stroke:#181818;stroke-width:0.5;" x1="9.5" x2="156.5" y1="47" y2="47"/></g><!--class IDisposable--><g id="elem_IDisposable"><rect fill="#F1F1F1" height="48" id="IDisposable" rx="2.5" ry="2.5" style="stroke:#181818;stroke-width:0.5;" width="112" x="193" y="7"/><ellipse cx="208" cy="23" fill="#ADD1B2" rx="11" ry="11" style="stroke:#181818;stroke-width:1.0;"/><path d="M210.9688,28.6406 Q210.3906,28.9375 209.75,29.0781 Q209.1094,29.2344 208.4063,29.2344 Q205.9063,29.2344 204.5781,27.5938 Q203.2656,25.9375 203.2656,22.8125 Q203.2656,19.6875 204.5781,18.0313 Q205.9063,16.375 208.4063,16.375 Q209.1094,16.375 209.75,16.5313 Q210.4063,16.6875 210.9688,16.9844 L210.9688,19.7031 Q210.3438,19.125 209.75,18.8594 Q209.1563,18.5781 208.5313,18.5781 Q207.1875,18.5781 206.5,19.6563 Q205.8125,20.7188 205.8125,22.8125 Q205.8125,24.9063 206.5,25.9844 Q207.1875,27.0469 208.5313,27.0469 Q209.1563,27.0469 209.75,26.7813 Q210.3438,26.5 210.9688,25.9219 L210.9688,28.6406 Z " fill="#000000"/><text fill="#000000" font-family="sans-serif" font-size="14" lengthAdjust="spacing" textLength="80" x="222" y="27.8467">IDisposable</text><line style="stroke:#181818;stroke-width:0.5;" x1="194" x2="304" y1="39" y2="39"/><line style="stroke:#181818;stroke-width:0.5;" x1="194" x2="304" y1="47" y2="47"/></g><!--reverse link ComponentBase to ToastComponent--><g id="link_ComponentBase_ToastComponent"><path codeLine="11" d="M103.33,73.89 C109.36,86.32 116.21,100.42 123.1,114.62 " fill="none" id="ComponentBase-backto-ToastComponent" style="stroke:#181818;stroke-width:1.0;"/><polygon fill="none" points="96.8,77.47,94.37,56.42,109.4,71.35,96.8,77.47" style="stroke:#181818;stroke-width:1.0;"/></g><!--reverse link IDisposable to ToastComponent--><g id="link_IDisposable_ToastComponent"><path codeLine="12" d="M228.67,73.89 C222.64,86.32 215.79,100.42 208.9,114.62 " fill="none" id="IDisposable-backto-ToastComponent" style="stroke:#181818;stroke-width:1.0;stroke-dasharray:7.0,7.0;"/><polygon fill="none" points="222.6,71.35,237.63,56.42,235.2,77.47,222.6,71.35" style="stroke:#181818;stroke-width:1.0;"/></g><!--SRC=[ZP2z3e903CTtdgA92yJ00vWB0pZ8O5oC-y4rf16lX9uCYkykXyP44eDT-lNhFsshHel0aRMud2yjMxGEu1x0Q2lOeJPaQzY0kCu7IjNeqdJqulqRswE8hd49A-H4GcNZmPAv-O5bkZhN7L-joKNoQRybuOhjlwnIt6FNaS6nTR259KUweHkQC1fdUoOpaMlOahGiE2z__ogCWaVmoJ8j26g8unaL52ynxOzNGvBC-ay0]--></g></svg>