<?xml version="1.0" encoding="us-ascii" standalone="no"?><svg xmlns="http://www.w3.org/2000/svg" xmlns:xlink="http://www.w3.org/1999/xlink" contentStyleType="text/css" height="183px" preserveAspectRatio="none" style="width:280px;height:183px;background:#FFFFFF;" version="1.1" viewBox="0 0 280 183" width="280px" zoomAndPan="magnify"><defs/><g><!--class FileItem--><g id="elem_FileItem"><rect codeLine="1" fill="#F1F1F1" height="162.0781" id="FileItem" rx="2.5" ry="2.5" style="stroke:#181818;stroke-width:0.5;" width="259" x="7" y="7"/><ellipse cx="105.75" cy="23" fill="#ADD1B2" rx="11" ry="11" style="stroke:#181818;stroke-width:1.0;"/><path d="M108.7188,28.6406 Q108.1406,28.9375 107.5,29.0781 Q106.8594,29.2344 106.1563,29.2344 Q103.6563,29.2344 102.3281,27.5938 Q101.0156,25.9375 101.0156,22.8125 Q101.0156,19.6875 102.3281,18.0313 Q103.6563,16.375 106.1563,16.375 Q106.8594,16.375 107.5,16.5313 Q108.1563,16.6875 108.7188,16.9844 L108.7188,19.7031 Q108.0938,19.125 107.5,18.8594 Q106.9063,18.5781 106.2813,18.5781 Q104.9375,18.5781 104.25,19.6563 Q103.5625,20.7188 103.5625,22.8125 Q103.5625,24.9063 104.25,25.9844 Q104.9375,27.0469 106.2813,27.0469 Q106.9063,27.0469 107.5,26.7813 Q108.0938,26.5 108.7188,25.9219 L108.7188,28.6406 Z " fill="#000000"/><text fill="#000000" font-family="sans-serif" font-size="14" lengthAdjust="spacing" textLength="53" x="126.25" y="27.8467">FileItem</text><line style="stroke:#181818;stroke-width:0.5;" x1="8" x2="265" y1="39" y2="39"/><ellipse cx="18" cy="52.6484" fill="none" rx="3" ry="3" style="stroke:#038048;stroke-width:1.0;"/><text fill="#000000" font-family="sans-serif" font-size="14" lengthAdjust="spacing" textLength="211" x="27" y="55.9951">FileName : string? &#171;get&#187; &#171;set&#187;</text><ellipse cx="18" cy="68.9453" fill="none" rx="3" ry="3" style="stroke:#038048;stroke-width:1.0;"/><text fill="#000000" font-family="sans-serif" font-size="14" lengthAdjust="spacing" textLength="166" x="27" y="72.292">Url : string? &#171;get&#187; &#171;set&#187;</text><ellipse cx="18" cy="85.2422" fill="none" rx="3" ry="3" style="stroke:#038048;stroke-width:1.0;"/><text fill="#000000" font-family="sans-serif" font-size="14" lengthAdjust="spacing" textLength="161" x="27" y="88.5889">Size : long &#171;get&#187; &#171;set&#187;</text><ellipse cx="18" cy="101.5391" fill="none" rx="3" ry="3" style="stroke:#038048;stroke-width:1.0;"/><text fill="#000000" font-family="sans-serif" font-size="14" lengthAdjust="spacing" textLength="169" x="27" y="104.8857">Ext : string? &#171;get&#187; &#171;set&#187;</text><ellipse cx="18" cy="117.8359" fill="none" rx="3" ry="3" style="stroke:#038048;stroke-width:1.0;"/><text fill="#000000" font-family="sans-serif" font-size="14" lengthAdjust="spacing" textLength="182" x="27" y="121.1826">Type : string? &#171;get&#187; &#171;set&#187;</text><ellipse cx="18" cy="134.1328" fill="none" rx="3" ry="3" style="stroke:#038048;stroke-width:1.0;"/><text fill="#000000" font-family="sans-serif" font-size="14" lengthAdjust="spacing" textLength="233" x="27" y="137.4795">DataBase64 : string? &#171;get&#187; &#171;set&#187;</text><line style="stroke:#181818;stroke-width:0.5;" x1="8" x2="265" y1="144.7813" y2="144.7813"/><ellipse cx="18" cy="158.4297" fill="#84BE84" rx="3" ry="3" style="stroke:#038048;stroke-width:1.0;"/><text fill="#000000" font-family="sans-serif" font-size="14" lengthAdjust="spacing" textLength="63" x="27" y="161.7764">FileItem()</text></g><!--SRC=[Iyv9B2vMSClCIVKiISrLKAZcKW02RR28Ns9kgeALGd59KMPUkhs2ZKrwQecT7P0k1j5GXQ55EGJL16TMWGpAoSzBnw72jQA4e2aXbGM4dUEIM9Beb5YSQcP2K2dCqngQNBK0]--></g></svg>