<?xml version="1.0" encoding="us-ascii" standalone="no"?><svg xmlns="http://www.w3.org/2000/svg" xmlns:xlink="http://www.w3.org/1999/xlink" contentStyleType="text/css" height="375px" preserveAspectRatio="none" style="width:367px;height:375px;background:#FFFFFF;" version="1.1" viewBox="0 0 367 375" width="367px" zoomAndPan="magnify"><defs/><g><!--class BaseMessage--><g id="elem_BaseMessage"><rect codeLine="1" fill="#F1F1F1" height="96.8906" id="BaseMessage" rx="2.5" ry="2.5" style="stroke:#181818;stroke-width:0.5;" width="168" x="99.5" y="7"/><ellipse cx="131.6" cy="23" fill="#A9DCDF" rx="11" ry="11" style="stroke:#181818;stroke-width:1.0;"/><path d="M131.7094,18.3438 L130.5531,23.4219 L132.8813,23.4219 L131.7094,18.3438 Z M130.225,16.1094 L133.2094,16.1094 L136.5688,28.5 L134.1156,28.5 L133.35,25.4375 L130.0688,25.4375 L129.3188,28.5 L126.8813,28.5 L130.225,16.1094 Z " fill="#000000"/><text fill="#000000" font-family="sans-serif" font-size="14" font-style="italic" lengthAdjust="spacing" textLength="98" x="149.4" y="27.8467">BaseMessage</text><line style="stroke:#181818;stroke-width:0.5;" x1="100.5" x2="266.5" y1="39" y2="39"/><polygon fill="none" points="110.5,47.6484,114.5,51.6484,110.5,55.6484,106.5,51.6484" style="stroke:#B38D22;stroke-width:1.0;"/><text fill="#000000" font-family="sans-serif" font-size="14" lengthAdjust="spacing" textLength="137" x="119.5" y="55.9951">_correlationId : Guid</text><line style="stroke:#181818;stroke-width:0.5;" x1="100.5" x2="266.5" y1="63.2969" y2="63.2969"/><ellipse cx="110.5" cy="76.9453" fill="#84BE84" rx="3" ry="3" style="stroke:#038048;stroke-width:1.0;"/><text fill="#000000" font-family="sans-serif" font-size="14" lengthAdjust="spacing" textLength="142" x="119.5" y="80.292">CorrelationId() : Guid</text><polygon fill="#FFFF44" points="110.5,88.2422,114.5,92.2422,110.5,96.2422,106.5,92.2422" style="stroke:#B38D22;stroke-width:1.0;"/><text fill="#000000" font-family="sans-serif" font-size="14" lengthAdjust="spacing" textLength="108" x="119.5" y="96.5889">BaseMessage()</text></g><!--class BaseRequest--><g id="elem_BaseRequest"><rect codeLine="6" fill="#F1F1F1" height="64.2969" id="BaseRequest" rx="2.5" ry="2.5" style="stroke:#181818;stroke-width:0.5;" width="130" x="118.5" y="164"/><ellipse cx="135.3" cy="180" fill="#A9DCDF" rx="11" ry="11" style="stroke:#181818;stroke-width:1.0;"/><path d="M135.4094,175.3438 L134.2531,180.4219 L136.5813,180.4219 L135.4094,175.3438 Z M133.925,173.1094 L136.9094,173.1094 L140.2688,185.5 L137.8156,185.5 L137.05,182.4375 L133.7688,182.4375 L133.0188,185.5 L130.5813,185.5 L133.925,173.1094 Z " fill="#000000"/><text fill="#000000" font-family="sans-serif" font-size="14" font-style="italic" lengthAdjust="spacing" textLength="94" x="149.7" y="184.8467">BaseRequest</text><line style="stroke:#181818;stroke-width:0.5;" x1="119.5" x2="247.5" y1="196" y2="196"/><line style="stroke:#181818;stroke-width:0.5;" x1="119.5" x2="247.5" y1="204" y2="204"/><polygon fill="#FFFF44" points="129.5,212.6484,133.5,216.6484,129.5,220.6484,125.5,216.6484" style="stroke:#B38D22;stroke-width:1.0;"/><text fill="#000000" font-family="sans-serif" font-size="14" lengthAdjust="spacing" textLength="104" x="138.5" y="220.9951">BaseRequest()</text></g><!--class GetByIdCatalogItemRequest--><g id="elem_GetByIdCatalogItemRequest"><rect codeLine="10" fill="#F1F1F1" height="80.5938" id="GetByIdCatalogItemRequest" rx="2.5" ry="2.5" style="stroke:#181818;stroke-width:0.5;" width="353" x="7" y="288"/><ellipse cx="81.75" cy="304" fill="#ADD1B2" rx="11" ry="11" style="stroke:#181818;stroke-width:1.0;"/><path d="M84.7188,309.6406 Q84.1406,309.9375 83.5,310.0781 Q82.8594,310.2344 82.1563,310.2344 Q79.6563,310.2344 78.3281,308.5938 Q77.0156,306.9375 77.0156,303.8125 Q77.0156,300.6875 78.3281,299.0313 Q79.6563,297.375 82.1563,297.375 Q82.8594,297.375 83.5,297.5313 Q84.1563,297.6875 84.7188,297.9844 L84.7188,300.7031 Q84.0938,300.125 83.5,299.8594 Q82.9063,299.5781 82.2813,299.5781 Q80.9375,299.5781 80.25,300.6563 Q79.5625,301.7188 79.5625,303.8125 Q79.5625,305.9063 80.25,306.9844 Q80.9375,308.0469 82.2813,308.0469 Q82.9063,308.0469 83.5,307.7813 Q84.0938,307.5 84.7188,306.9219 L84.7188,309.6406 Z " fill="#000000"/><text fill="#000000" font-family="sans-serif" font-size="14" lengthAdjust="spacing" textLength="195" x="102.25" y="308.8467">GetByIdCatalogItemRequest</text><line style="stroke:#181818;stroke-width:0.5;" x1="8" x2="359" y1="320" y2="320"/><ellipse cx="18" cy="333.6484" fill="none" rx="3" ry="3" style="stroke:#038048;stroke-width:1.0;"/><text fill="#000000" font-family="sans-serif" font-size="14" lengthAdjust="spacing" textLength="213" x="27" y="336.9951">CatalogItemId : int &#171;get&#187; &#171;set&#187;</text><line style="stroke:#181818;stroke-width:0.5;" x1="8" x2="359" y1="344.2969" y2="344.2969"/><ellipse cx="18" cy="357.9453" fill="#84BE84" rx="3" ry="3" style="stroke:#038048;stroke-width:1.0;"/><text fill="#000000" font-family="sans-serif" font-size="14" lengthAdjust="spacing" textLength="327" x="27" y="361.292">GetByIdCatalogItemRequest(catalogItemId : int)</text></g><!--reverse link BaseMessage to BaseRequest--><g id="link_BaseMessage_BaseRequest"><path codeLine="9" d="M183.5,125.12 C183.5,138.66 183.5,152.24 183.5,163.77 " fill="none" id="BaseMessage-backto-BaseRequest" style="stroke:#181818;stroke-width:1.0;"/><polygon fill="none" points="176.5,125.16,183.5,105.16,190.5,125.16,176.5,125.16" style="stroke:#181818;stroke-width:1.0;"/></g><!--reverse link BaseRequest to GetByIdCatalogItemRequest--><g id="link_BaseRequest_GetByIdCatalogItemRequest"><path codeLine="14" d="M183.5,248.88 C183.5,261.77 183.5,275.38 183.5,287.59 " fill="none" id="BaseRequest-backto-GetByIdCatalogItemRequest" style="stroke:#181818;stroke-width:1.0;"/><polygon fill="none" points="176.5,249.26,183.5,229.26,190.5,249.26,176.5,249.26" style="stroke:#181818;stroke-width:1.0;"/></g><!--SRC=[TOz12eD034NtSug0cv7Y1ShWGXVYeXilKDAP889rg8cBqlRkjTEAGyLi0ld9-pzuOHdH2jWUcQ50fXCnOqi03mLp9N2sVXofH-dyK3iuGZLrBcW7A6D9fx6On3ITgfV2hLb3jubOLhDe66xYHEQPPV62-d8gak9Ukn85Uz_MGjS_wXnprS87tI1WJ4kIvtFdJ_zjxiAqtJAMW8jV2BXBU0C0]--></g></svg>