<?xml version="1.0" encoding="us-ascii" standalone="no"?><svg xmlns="http://www.w3.org/2000/svg" xmlns:xlink="http://www.w3.org/1999/xlink" contentStyleType="text/css" height="93px" preserveAspectRatio="none" style="width:510px;height:93px;background:#FFFFFF;" version="1.1" viewBox="0 0 510 93" width="510px" zoomAndPan="magnify"><defs/><g><!--class ServicesConfiguration--><g id="elem_ServicesConfiguration"><rect codeLine="1" fill="#F1F1F1" height="72.5625" id="ServicesConfiguration" rx="2.5" ry="2.5" style="stroke:#181818;stroke-width:0.5;" width="489" x="7" y="7"/><ellipse cx="172.25" cy="27.1328" fill="#ADD1B2" rx="11" ry="11" style="stroke:#181818;stroke-width:1.0;"/><path d="M175.2188,32.7734 Q174.6406,33.0703 174,33.2109 Q173.3594,33.3672 172.6563,33.3672 Q170.1563,33.3672 168.8281,31.7266 Q167.5156,30.0703 167.5156,26.9453 Q167.5156,23.8203 168.8281,22.1641 Q170.1563,20.5078 172.6563,20.5078 Q173.3594,20.5078 174,20.6641 Q174.6563,20.8203 175.2188,21.1172 L175.2188,23.8359 Q174.5938,23.2578 174,22.9922 Q173.4063,22.7109 172.7813,22.7109 Q171.4375,22.7109 170.75,23.7891 Q170.0625,24.8516 170.0625,26.9453 Q170.0625,29.0391 170.75,30.1172 Q171.4375,31.1797 172.7813,31.1797 Q173.4063,31.1797 174,30.9141 Q174.5938,30.6328 175.2188,30.0547 L175.2188,32.7734 Z " fill="#000000"/><text fill="#000000" font-family="sans-serif" font-size="12" font-style="italic" lengthAdjust="spacing" textLength="49" x="243.25" y="23.1387">&#171;static&#187;</text><text fill="#000000" font-family="sans-serif" font-size="14" lengthAdjust="spacing" textLength="150" x="192.75" y="38.9639">ServicesConfiguration</text><line style="stroke:#181818;stroke-width:0.5;" x1="8" x2="495" y1="47.2656" y2="47.2656"/><line style="stroke:#181818;stroke-width:0.5;" x1="8" x2="495" y1="55.2656" y2="55.2656"/><ellipse cx="18" cy="68.9141" fill="#84BE84" rx="3" ry="3" style="stroke:#038048;stroke-width:1.0;"/><text fill="#000000" font-family="sans-serif" font-size="14" lengthAdjust="spacing" text-decoration="underline" textLength="463" x="27" y="72.2607">AddBlazorServices(services : IServiceCollection) : IServiceCollection</text></g><!--SRC=[Iyv9B2vM24ujAijCJYrspizBoqmlBKeioSpFKx2nAIu1ifBjx1GKghaKW41ReHeYLAlWc9BYb9DObLy4qwjH36KeM2buGWMTytDoKfD1XcbY5UMg1G00]--></g></svg>