<?xml version="1.0" encoding="us-ascii" standalone="no"?><svg xmlns="http://www.w3.org/2000/svg" xmlns:xlink="http://www.w3.org/1999/xlink" contentStyleType="text/css" height="218px" preserveAspectRatio="none" style="width:254px;height:218px;background:#FFFFFF;" version="1.1" viewBox="0 0 254 218" width="254px" zoomAndPan="magnify"><defs/><g><!--class BlazorComponent--><g id="elem_BlazorComponent"><rect codeLine="1" fill="#F1F1F1" height="96.8906" id="BlazorComponent" rx="2.5" ry="2.5" style="stroke:#181818;stroke-width:0.5;" width="238" x="9" y="115"/><ellipse cx="61.25" cy="131" fill="#ADD1B2" rx="11" ry="11" style="stroke:#181818;stroke-width:1.0;"/><path d="M64.2188,136.6406 Q63.6406,136.9375 63,137.0781 Q62.3594,137.2344 61.6563,137.2344 Q59.1563,137.2344 57.8281,135.5938 Q56.5156,133.9375 56.5156,130.8125 Q56.5156,127.6875 57.8281,126.0313 Q59.1563,124.375 61.6563,124.375 Q62.3594,124.375 63,124.5313 Q63.6563,124.6875 64.2188,124.9844 L64.2188,127.7031 Q63.5938,127.125 63,126.8594 Q62.4063,126.5781 61.7813,126.5781 Q60.4375,126.5781 59.75,127.6563 Q59.0625,128.7188 59.0625,130.8125 Q59.0625,132.9063 59.75,133.9844 Q60.4375,135.0469 61.7813,135.0469 Q62.4063,135.0469 63,134.7813 Q63.5938,134.5 64.2188,133.9219 L64.2188,136.6406 Z " fill="#000000"/><text fill="#000000" font-family="sans-serif" font-size="14" lengthAdjust="spacing" textLength="125" x="81.75" y="135.8467">BlazorComponent</text><line style="stroke:#181818;stroke-width:0.5;" x1="10" x2="246" y1="147" y2="147"/><line style="stroke:#181818;stroke-width:0.5;" x1="10" x2="246" y1="155" y2="155"/><polygon fill="#FFFF44" points="20,163.6484,24,167.6484,20,171.6484,16,167.6484" style="stroke:#B38D22;stroke-width:1.0;"/><text fill="#000000" font-family="sans-serif" font-size="14" lengthAdjust="spacing" textLength="212" x="29" y="171.9951">&#171;override&#187; OnInitialized() : void</text><ellipse cx="20" cy="184.9453" fill="#84BE84" rx="3" ry="3" style="stroke:#038048;stroke-width:1.0;"/><text fill="#000000" font-family="sans-serif" font-size="14" lengthAdjust="spacing" textLength="188" x="29" y="188.292">CallRequestRefresh() : void</text><ellipse cx="20" cy="201.2422" fill="#84BE84" rx="3" ry="3" style="stroke:#038048;stroke-width:1.0;"/><text fill="#000000" font-family="sans-serif" font-size="14" lengthAdjust="spacing" textLength="135" x="29" y="204.5889">BlazorComponent()</text></g><!--class ComponentBase--><g id="elem_ComponentBase"><rect fill="#F1F1F1" height="48" id="ComponentBase" rx="2.5" ry="2.5" style="stroke:#181818;stroke-width:0.5;" width="149" x="53.5" y="7"/><ellipse cx="68.5" cy="23" fill="#ADD1B2" rx="11" ry="11" style="stroke:#181818;stroke-width:1.0;"/><path d="M71.4688,28.6406 Q70.8906,28.9375 70.25,29.0781 Q69.6094,29.2344 68.9063,29.2344 Q66.4063,29.2344 65.0781,27.5938 Q63.7656,25.9375 63.7656,22.8125 Q63.7656,19.6875 65.0781,18.0313 Q66.4063,16.375 68.9063,16.375 Q69.6094,16.375 70.25,16.5313 Q70.9063,16.6875 71.4688,16.9844 L71.4688,19.7031 Q70.8438,19.125 70.25,18.8594 Q69.6563,18.5781 69.0313,18.5781 Q67.6875,18.5781 67,19.6563 Q66.3125,20.7188 66.3125,22.8125 Q66.3125,24.9063 67,25.9844 Q67.6875,27.0469 69.0313,27.0469 Q69.6563,27.0469 70.25,26.7813 Q70.8438,26.5 71.4688,25.9219 L71.4688,28.6406 Z " fill="#000000"/><text fill="#000000" font-family="sans-serif" font-size="14" lengthAdjust="spacing" textLength="117" x="82.5" y="27.8467">ComponentBase</text><line style="stroke:#181818;stroke-width:0.5;" x1="54.5" x2="201.5" y1="39" y2="39"/><line style="stroke:#181818;stroke-width:0.5;" x1="54.5" x2="201.5" y1="47" y2="47"/></g><!--reverse link ComponentBase to BlazorComponent--><g id="link_ComponentBase_BlazorComponent"><path codeLine="6" d="M128,75.95 C128,88.34 128,101.89 128,114.51 " fill="none" id="ComponentBase-backto-BlazorComponent" style="stroke:#181818;stroke-width:1.0;"/><polygon fill="none" points="121,76.33,128,56.33,135,76.33,121,76.33" style="stroke:#181818;stroke-width:1.0;"/></g><!--SRC=[Iyv9B2vMSCf9hCelSixFBSZFIyqhKL2evb800cK56vlyijIYeioKL3ix1VyypxpCaip4dCogr1GDJGKhXRByp1ImIcq5vyISdA3KmjBKufAWrBIYrE8CT1LebcXeSjLomNbEYSMf2ZOrkhheoW00]--></g></svg>