<?xml version="1.0" encoding="us-ascii" standalone="no"?><svg xmlns="http://www.w3.org/2000/svg" xmlns:xlink="http://www.w3.org/1999/xlink" contentStyleType="text/css" height="489px" preserveAspectRatio="none" style="width:282px;height:489px;background:#FFFFFF;" version="1.1" viewBox="0 0 282 489" width="282px" zoomAndPan="magnify"><defs/><g><!--class BaseMessage--><g id="elem_BaseMessage"><rect codeLine="1" fill="#F1F1F1" height="96.8906" id="BaseMessage" rx="2.5" ry="2.5" style="stroke:#181818;stroke-width:0.5;" width="168" x="57" y="7"/><ellipse cx="89.1" cy="23" fill="#A9DCDF" rx="11" ry="11" style="stroke:#181818;stroke-width:1.0;"/><path d="M89.2094,18.3438 L88.0531,23.4219 L90.3813,23.4219 L89.2094,18.3438 Z M87.725,16.1094 L90.7094,16.1094 L94.0688,28.5 L91.6156,28.5 L90.85,25.4375 L87.5688,25.4375 L86.8188,28.5 L84.3813,28.5 L87.725,16.1094 Z " fill="#000000"/><text fill="#000000" font-family="sans-serif" font-size="14" font-style="italic" lengthAdjust="spacing" textLength="98" x="106.9" y="27.8467">BaseMessage</text><line style="stroke:#181818;stroke-width:0.5;" x1="58" x2="224" y1="39" y2="39"/><polygon fill="none" points="68,47.6484,72,51.6484,68,55.6484,64,51.6484" style="stroke:#B38D22;stroke-width:1.0;"/><text fill="#000000" font-family="sans-serif" font-size="14" lengthAdjust="spacing" textLength="137" x="77" y="55.9951">_correlationId : Guid</text><line style="stroke:#181818;stroke-width:0.5;" x1="58" x2="224" y1="63.2969" y2="63.2969"/><ellipse cx="68" cy="76.9453" fill="#84BE84" rx="3" ry="3" style="stroke:#038048;stroke-width:1.0;"/><text fill="#000000" font-family="sans-serif" font-size="14" lengthAdjust="spacing" textLength="142" x="77" y="80.292">CorrelationId() : Guid</text><polygon fill="#FFFF44" points="68,88.2422,72,92.2422,68,96.2422,64,92.2422" style="stroke:#B38D22;stroke-width:1.0;"/><text fill="#000000" font-family="sans-serif" font-size="14" lengthAdjust="spacing" textLength="108" x="77" y="96.5889">BaseMessage()</text></g><!--class BaseRequest--><g id="elem_BaseRequest"><rect codeLine="6" fill="#F1F1F1" height="64.2969" id="BaseRequest" rx="2.5" ry="2.5" style="stroke:#181818;stroke-width:0.5;" width="130" x="76" y="164"/><ellipse cx="92.8" cy="180" fill="#A9DCDF" rx="11" ry="11" style="stroke:#181818;stroke-width:1.0;"/><path d="M92.9094,175.3438 L91.7531,180.4219 L94.0813,180.4219 L92.9094,175.3438 Z M91.425,173.1094 L94.4094,173.1094 L97.7688,185.5 L95.3156,185.5 L94.55,182.4375 L91.2688,182.4375 L90.5188,185.5 L88.0813,185.5 L91.425,173.1094 Z " fill="#000000"/><text fill="#000000" font-family="sans-serif" font-size="14" font-style="italic" lengthAdjust="spacing" textLength="94" x="107.2" y="184.8467">BaseRequest</text><line style="stroke:#181818;stroke-width:0.5;" x1="77" x2="205" y1="196" y2="196"/><line style="stroke:#181818;stroke-width:0.5;" x1="77" x2="205" y1="204" y2="204"/><polygon fill="#FFFF44" points="87,212.6484,91,216.6484,87,220.6484,83,216.6484" style="stroke:#B38D22;stroke-width:1.0;"/><text fill="#000000" font-family="sans-serif" font-size="14" lengthAdjust="spacing" textLength="104" x="96" y="220.9951">BaseRequest()</text></g><!--class CreateCatalogItemRequest--><g id="elem_CreateCatalogItemRequest"><rect codeLine="10" fill="#F1F1F1" height="194.6719" id="CreateCatalogItemRequest" rx="2.5" ry="2.5" style="stroke:#181818;stroke-width:0.5;" width="268" x="7" y="288"/><ellipse cx="44.05" cy="304" fill="#ADD1B2" rx="11" ry="11" style="stroke:#181818;stroke-width:1.0;"/><path d="M47.0188,309.6406 Q46.4406,309.9375 45.8,310.0781 Q45.1594,310.2344 44.4563,310.2344 Q41.9563,310.2344 40.6281,308.5938 Q39.3156,306.9375 39.3156,303.8125 Q39.3156,300.6875 40.6281,299.0313 Q41.9563,297.375 44.4563,297.375 Q45.1594,297.375 45.8,297.5313 Q46.4563,297.6875 47.0188,297.9844 L47.0188,300.7031 Q46.3938,300.125 45.8,299.8594 Q45.2063,299.5781 44.5813,299.5781 Q43.2375,299.5781 42.55,300.6563 Q41.8625,301.7188 41.8625,303.8125 Q41.8625,305.9063 42.55,306.9844 Q43.2375,308.0469 44.5813,308.0469 Q45.2063,308.0469 45.8,307.7813 Q46.3938,307.5 47.0188,306.9219 L47.0188,309.6406 Z " fill="#000000"/><text fill="#000000" font-family="sans-serif" font-size="14" lengthAdjust="spacing" textLength="187" x="62.95" y="308.8467">CreateCatalogItemRequest</text><line style="stroke:#181818;stroke-width:0.5;" x1="8" x2="274" y1="320" y2="320"/><ellipse cx="18" cy="333.6484" fill="none" rx="3" ry="3" style="stroke:#038048;stroke-width:1.0;"/><text fill="#000000" font-family="sans-serif" font-size="14" lengthAdjust="spacing" textLength="224" x="27" y="336.9951">CatalogBrandId : int &#171;get&#187; &#171;set&#187;</text><ellipse cx="18" cy="349.9453" fill="none" rx="3" ry="3" style="stroke:#038048;stroke-width:1.0;"/><text fill="#000000" font-family="sans-serif" font-size="14" lengthAdjust="spacing" textLength="217" x="27" y="353.292">CatalogTypeId : int &#171;get&#187; &#171;set&#187;</text><ellipse cx="18" cy="366.2422" fill="none" rx="3" ry="3" style="stroke:#038048;stroke-width:1.0;"/><text fill="#000000" font-family="sans-serif" font-size="14" lengthAdjust="spacing" textLength="220" x="27" y="369.5889">Description : string &#171;get&#187; &#171;set&#187;</text><ellipse cx="18" cy="382.5391" fill="none" rx="3" ry="3" style="stroke:#038048;stroke-width:1.0;"/><text fill="#000000" font-family="sans-serif" font-size="14" lengthAdjust="spacing" textLength="181" x="27" y="385.8857">Name : string &#171;get&#187; &#171;set&#187;</text><ellipse cx="18" cy="398.8359" fill="none" rx="3" ry="3" style="stroke:#038048;stroke-width:1.0;"/><text fill="#000000" font-family="sans-serif" font-size="14" lengthAdjust="spacing" textLength="207" x="27" y="402.1826">PictureUri : string &#171;get&#187; &#171;set&#187;</text><ellipse cx="18" cy="415.1328" fill="none" rx="3" ry="3" style="stroke:#038048;stroke-width:1.0;"/><text fill="#000000" font-family="sans-serif" font-size="14" lengthAdjust="spacing" textLength="242" x="27" y="418.4795">PictureBase64 : string &#171;get&#187; &#171;set&#187;</text><ellipse cx="18" cy="431.4297" fill="none" rx="3" ry="3" style="stroke:#038048;stroke-width:1.0;"/><text fill="#000000" font-family="sans-serif" font-size="14" lengthAdjust="spacing" textLength="229" x="27" y="434.7764">PictureName : string &#171;get&#187; &#171;set&#187;</text><ellipse cx="18" cy="447.7266" fill="none" rx="3" ry="3" style="stroke:#038048;stroke-width:1.0;"/><text fill="#000000" font-family="sans-serif" font-size="14" lengthAdjust="spacing" textLength="189" x="27" y="451.0732">Price : decimal &#171;get&#187; &#171;set&#187;</text><line style="stroke:#181818;stroke-width:0.5;" x1="8" x2="274" y1="458.375" y2="458.375"/><ellipse cx="18" cy="472.0234" fill="#84BE84" rx="3" ry="3" style="stroke:#038048;stroke-width:1.0;"/><text fill="#000000" font-family="sans-serif" font-size="14" lengthAdjust="spacing" textLength="197" x="27" y="475.3701">CreateCatalogItemRequest()</text></g><!--reverse link BaseMessage to BaseRequest--><g id="link_BaseMessage_BaseRequest"><path codeLine="9" d="M141,125.12 C141,138.66 141,152.24 141,163.77 " fill="none" id="BaseMessage-backto-BaseRequest" style="stroke:#181818;stroke-width:1.0;"/><polygon fill="none" points="134,125.16,141,105.16,148,125.16,134,125.16" style="stroke:#181818;stroke-width:1.0;"/></g><!--reverse link BaseRequest to CreateCatalogItemRequest--><g id="link_BaseRequest_CreateCatalogItemRequest"><path codeLine="21" d="M141,249.26 C141,261.33 141,274.54 141,287.84 " fill="none" id="BaseRequest-backto-CreateCatalogItemRequest" style="stroke:#181818;stroke-width:1.0;"/><polygon fill="none" points="134,249.38,141,229.38,148,249.38,134,249.38" style="stroke:#181818;stroke-width:1.0;"/></g><!--SRC=[ZP5DYy9038Rl_HK1ByhYJJn8yM05yQ38ufubEmqbq0zDqeEi_lUTLjJPbMBd4fZtoTSR_5OJT0OkHrLOeDA6L34ZW9y8_1l0mLKYbADnLQvJcC6gvhJLFY09fU4e50TXjU4ekaRuskoJJZMfFPi5dsrEE55y6Oz38BhLIOJGA473lChMHiM_edxAcxOGBDDs0ouDuZWZcyzzr2R-HVVd8xqXbwHE-DYixZc_6PTP1xh5WjunEtPM2tq9zoGR8wQJdd2l2OHT0wNakC2yow0Ejn_NkhlVNgkB_WK0]--></g></svg>