<?xml version="1.0" encoding="us-ascii" standalone="no"?><svg xmlns="http://www.w3.org/2000/svg" xmlns:xlink="http://www.w3.org/1999/xlink" contentStyleType="text/css" height="202px" preserveAspectRatio="none" style="width:925px;height:202px;background:#FFFFFF;" version="1.1" viewBox="0 0 925 202" width="925px" zoomAndPan="magnify"><defs/><g><!--class HomePageHealthCheck--><g id="elem_HomePageHealthCheck"><rect codeLine="1" fill="#F1F1F1" height="80.5938" id="HomePageHealthCheck" rx="2.5" ry="2.5" style="stroke:#181818;stroke-width:0.5;" width="911" x="7" y="115"/><ellipse cx="376.25" cy="131" fill="#ADD1B2" rx="11" ry="11" style="stroke:#181818;stroke-width:1.0;"/><path d="M379.2188,136.6406 Q378.6406,136.9375 378,137.0781 Q377.3594,137.2344 376.6563,137.2344 Q374.1563,137.2344 372.8281,135.5938 Q371.5156,133.9375 371.5156,130.8125 Q371.5156,127.6875 372.8281,126.0313 Q374.1563,124.375 376.6563,124.375 Q377.3594,124.375 378,124.5313 Q378.6563,124.6875 379.2188,124.9844 L379.2188,127.7031 Q378.5938,127.125 378,126.8594 Q377.4063,126.5781 376.7813,126.5781 Q375.4375,126.5781 374.75,127.6563 Q374.0625,128.7188 374.0625,130.8125 Q374.0625,132.9063 374.75,133.9844 Q375.4375,135.0469 376.7813,135.0469 Q377.4063,135.0469 378,134.7813 Q378.5938,134.5 379.2188,133.9219 L379.2188,136.6406 Z " fill="#000000"/><text fill="#000000" font-family="sans-serif" font-size="14" lengthAdjust="spacing" textLength="164" x="396.75" y="135.8467">HomePageHealthCheck</text><line style="stroke:#181818;stroke-width:0.5;" x1="8" x2="917" y1="147" y2="147"/><line style="stroke:#181818;stroke-width:0.5;" x1="8" x2="917" y1="155" y2="155"/><ellipse cx="18" cy="168.6484" fill="#84BE84" rx="3" ry="3" style="stroke:#038048;stroke-width:1.0;"/><text fill="#000000" font-family="sans-serif" font-size="14" lengthAdjust="spacing" textLength="483" x="27" y="171.9951">HomePageHealthCheck(httpContextAccessor : IHttpContextAccessor)</text><ellipse cx="18" cy="184.9453" fill="#84BE84" rx="3" ry="3" style="stroke:#038048;stroke-width:1.0;"/><text fill="#000000" font-family="sans-serif" font-size="14" lengthAdjust="spacing" textLength="885" x="27" y="188.292">&#171;async&#187; CheckHealthAsync(context : HealthCheckContext, cancellationToken : CancellationToken) : Task&lt;HealthCheckResult&gt;</text></g><!--class IHealthCheck--><g id="elem_IHealthCheck"><rect fill="#F1F1F1" height="48" id="IHealthCheck" rx="2.5" ry="2.5" style="stroke:#181818;stroke-width:0.5;" width="123" x="401" y="7"/><ellipse cx="416" cy="23" fill="#ADD1B2" rx="11" ry="11" style="stroke:#181818;stroke-width:1.0;"/><path d="M418.9688,28.6406 Q418.3906,28.9375 417.75,29.0781 Q417.1094,29.2344 416.4063,29.2344 Q413.9063,29.2344 412.5781,27.5938 Q411.2656,25.9375 411.2656,22.8125 Q411.2656,19.6875 412.5781,18.0313 Q413.9063,16.375 416.4063,16.375 Q417.1094,16.375 417.75,16.5313 Q418.4063,16.6875 418.9688,16.9844 L418.9688,19.7031 Q418.3438,19.125 417.75,18.8594 Q417.1563,18.5781 416.5313,18.5781 Q415.1875,18.5781 414.5,19.6563 Q413.8125,20.7188 413.8125,22.8125 Q413.8125,24.9063 414.5,25.9844 Q415.1875,27.0469 416.5313,27.0469 Q417.1563,27.0469 417.75,26.7813 Q418.3438,26.5 418.9688,25.9219 L418.9688,28.6406 Z " fill="#000000"/><text fill="#000000" font-family="sans-serif" font-size="14" lengthAdjust="spacing" textLength="91" x="430" y="27.8467">IHealthCheck</text><line style="stroke:#181818;stroke-width:0.5;" x1="402" x2="523" y1="39" y2="39"/><line style="stroke:#181818;stroke-width:0.5;" x1="402" x2="523" y1="47" y2="47"/></g><!--reverse link IHealthCheck to HomePageHealthCheck--><g id="link_IHealthCheck_HomePageHealthCheck"><path codeLine="5" d="M462.5,75.89 C462.5,88.61 462.5,102.42 462.5,114.87 " fill="none" id="IHealthCheck-backto-HomePageHealthCheck" style="stroke:#181818;stroke-width:1.0;stroke-dasharray:7.0,7.0;"/><polygon fill="none" points="455.5,76.33,462.5,56.33,469.5,76.33,455.5,76.33" style="stroke:#181818;stroke-width:1.0;"/></g><!--SRC=[ROz12i9034NtSueiMvGUG8P2wQRTYVG28GGhCyw8IK5Hx-veknYqMRxylF39emXqySnxF7B7w7LiHoO7y32GPhEsB4RLInk3yaqR8XQ9LzX1t_tZSh5OYt8FLDVmDSooveCAcY-I87knQBP068YzHpt5C4J78UNQNrOcEA0ucnaEB9FNshnCd_UopwfQw_G6]--></g></svg>