<?xml version="1.0" encoding="us-ascii" standalone="no"?><svg xmlns="http://www.w3.org/2000/svg" xmlns:xlink="http://www.w3.org/1999/xlink" contentStyleType="text/css" height="134px" preserveAspectRatio="none" style="width:254px;height:134px;background:#FFFFFF;" version="1.1" viewBox="0 0 254 134" width="254px" zoomAndPan="magnify"><defs/><g><!--class BaseUrlConfiguration--><g id="elem_BaseUrlConfiguration"><rect codeLine="1" fill="#F1F1F1" height="113.1875" id="BaseUrlConfiguration" rx="2.5" ry="2.5" style="stroke:#181818;stroke-width:0.5;" width="233" x="7" y="7"/><ellipse cx="47.2" cy="23" fill="#ADD1B2" rx="11" ry="11" style="stroke:#181818;stroke-width:1.0;"/><path d="M50.1688,28.6406 Q49.5906,28.9375 48.95,29.0781 Q48.3094,29.2344 47.6063,29.2344 Q45.1063,29.2344 43.7781,27.5938 Q42.4656,25.9375 42.4656,22.8125 Q42.4656,19.6875 43.7781,18.0313 Q45.1063,16.375 47.6063,16.375 Q48.3094,16.375 48.95,16.5313 Q49.6063,16.6875 50.1688,16.9844 L50.1688,19.7031 Q49.5438,19.125 48.95,18.8594 Q48.3563,18.5781 47.7313,18.5781 Q46.3875,18.5781 45.7,19.6563 Q45.0125,20.7188 45.0125,22.8125 Q45.0125,24.9063 45.7,25.9844 Q46.3875,27.0469 47.7313,27.0469 Q48.3563,27.0469 48.95,26.7813 Q49.5438,26.5 50.1688,25.9219 L50.1688,28.6406 Z " fill="#000000"/><text fill="#000000" font-family="sans-serif" font-size="14" lengthAdjust="spacing" textLength="145" x="66.8" y="27.8467">BaseUrlConfiguration</text><line style="stroke:#181818;stroke-width:0.5;" x1="8" x2="239" y1="39" y2="39"/><ellipse cx="18" cy="52.6484" fill="none" rx="3" ry="3" style="stroke:#038048;stroke-width:1.0;"/><text fill="#000000" font-family="sans-serif" font-size="14" lengthAdjust="spacing" text-decoration="underline" textLength="152" x="27" y="55.9951">CONFIG_NAME : string</text><ellipse cx="18" cy="68.9453" fill="none" rx="3" ry="3" style="stroke:#038048;stroke-width:1.0;"/><text fill="#000000" font-family="sans-serif" font-size="14" lengthAdjust="spacing" textLength="197" x="27" y="72.292">ApiBase : string &#171;get&#187; &#171;set&#187;</text><ellipse cx="18" cy="85.2422" fill="none" rx="3" ry="3" style="stroke:#038048;stroke-width:1.0;"/><text fill="#000000" font-family="sans-serif" font-size="14" lengthAdjust="spacing" textLength="207" x="27" y="88.5889">WebBase : string &#171;get&#187; &#171;set&#187;</text><line style="stroke:#181818;stroke-width:0.5;" x1="8" x2="239" y1="95.8906" y2="95.8906"/><ellipse cx="18" cy="109.5391" fill="#84BE84" rx="3" ry="3" style="stroke:#038048;stroke-width:1.0;"/><text fill="#000000" font-family="sans-serif" font-size="14" lengthAdjust="spacing" textLength="155" x="27" y="112.8857">BaseUrlConfiguration()</text></g><!--SRC=[Iyv9B2vMS4eiJWqjod7EpqlBJ2yjIYp9pCzJKAZcKW02RONguXAWI7AjWhE_dvkdUxoVew-hWfL2SKbHPbuwL8rZGIR84BYmWerDUcg9dHsGBWRHK6NXgKd4ACFc7WrDhbe0]--></g></svg>