<?xml version="1.0" encoding="us-ascii" standalone="no"?><svg xmlns="http://www.w3.org/2000/svg" xmlns:xlink="http://www.w3.org/1999/xlink" contentStyleType="text/css" height="199px" preserveAspectRatio="none" style="width:289px;height:199px;background:#FFFFFF;" version="1.1" viewBox="0 0 289 199" width="289px" zoomAndPan="magnify"><defs/><g><!--class BasketItemViewModel--><g id="elem_BasketItemViewModel"><rect codeLine="1" fill="#F1F1F1" height="178.375" id="BasketItemViewModel" rx="2.5" ry="2.5" style="stroke:#181818;stroke-width:0.5;" width="268" x="7" y="7"/><ellipse cx="60.75" cy="23" fill="#ADD1B2" rx="11" ry="11" style="stroke:#181818;stroke-width:1.0;"/><path d="M63.7188,28.6406 Q63.1406,28.9375 62.5,29.0781 Q61.8594,29.2344 61.1563,29.2344 Q58.6563,29.2344 57.3281,27.5938 Q56.0156,25.9375 56.0156,22.8125 Q56.0156,19.6875 57.3281,18.0313 Q58.6563,16.375 61.1563,16.375 Q61.8594,16.375 62.5,16.5313 Q63.1563,16.6875 63.7188,16.9844 L63.7188,19.7031 Q63.0938,19.125 62.5,18.8594 Q61.9063,18.5781 61.2813,18.5781 Q59.9375,18.5781 59.25,19.6563 Q58.5625,20.7188 58.5625,22.8125 Q58.5625,24.9063 59.25,25.9844 Q59.9375,27.0469 61.2813,27.0469 Q61.9063,27.0469 62.5,26.7813 Q63.0938,26.5 63.7188,25.9219 L63.7188,28.6406 Z " fill="#000000"/><text fill="#000000" font-family="sans-serif" font-size="14" lengthAdjust="spacing" textLength="152" x="81.25" y="27.8467">BasketItemViewModel</text><line style="stroke:#181818;stroke-width:0.5;" x1="8" x2="274" y1="39" y2="39"/><ellipse cx="18" cy="52.6484" fill="none" rx="3" ry="3" style="stroke:#038048;stroke-width:1.0;"/><text fill="#000000" font-family="sans-serif" font-size="14" lengthAdjust="spacing" textLength="131" x="27" y="55.9951">Id : int &#171;get&#187; &#171;set&#187;</text><ellipse cx="18" cy="68.9453" fill="none" rx="3" ry="3" style="stroke:#038048;stroke-width:1.0;"/><text fill="#000000" font-family="sans-serif" font-size="14" lengthAdjust="spacing" textLength="213" x="27" y="72.292">CatalogItemId : int &#171;get&#187; &#171;set&#187;</text><ellipse cx="18" cy="85.2422" fill="none" rx="3" ry="3" style="stroke:#038048;stroke-width:1.0;"/><text fill="#000000" font-family="sans-serif" font-size="14" lengthAdjust="spacing" textLength="242" x="27" y="88.5889">ProductName : string? &#171;get&#187; &#171;set&#187;</text><ellipse cx="18" cy="101.5391" fill="none" rx="3" ry="3" style="stroke:#038048;stroke-width:1.0;"/><text fill="#000000" font-family="sans-serif" font-size="14" lengthAdjust="spacing" textLength="216" x="27" y="104.8857">UnitPrice : decimal &#171;get&#187; &#171;set&#187;</text><ellipse cx="18" cy="117.8359" fill="none" rx="3" ry="3" style="stroke:#038048;stroke-width:1.0;"/><text fill="#000000" font-family="sans-serif" font-size="14" lengthAdjust="spacing" textLength="239" x="27" y="121.1826">OldUnitPrice : decimal &#171;get&#187; &#171;set&#187;</text><ellipse cx="18" cy="134.1328" fill="none" rx="3" ry="3" style="stroke:#038048;stroke-width:1.0;"/><text fill="#000000" font-family="sans-serif" font-size="14" lengthAdjust="spacing" textLength="176" x="27" y="137.4795">Quantity : int &#171;get&#187; &#171;set&#187;</text><ellipse cx="18" cy="150.4297" fill="none" rx="3" ry="3" style="stroke:#038048;stroke-width:1.0;"/><text fill="#000000" font-family="sans-serif" font-size="14" lengthAdjust="spacing" textLength="214" x="27" y="153.7764">PictureUrl : string? &#171;get&#187; &#171;set&#187;</text><line style="stroke:#181818;stroke-width:0.5;" x1="8" x2="274" y1="161.0781" y2="161.0781"/><ellipse cx="18" cy="174.7266" fill="#84BE84" rx="3" ry="3" style="stroke:#038048;stroke-width:1.0;"/><text fill="#000000" font-family="sans-serif" font-size="14" lengthAdjust="spacing" textLength="162" x="27" y="178.0732">BasketItemViewModel()</text></g><!--SRC=[ZT2n2W8n30RW_PuYe-8Ro762JZUevt3keGqbcFQWJH4HtzqM73tFBF-GB_0J8vWIx37TI7ibVsMw7oTB0l1ieCm6UWjRuA3Gjewqwqgccf_r0HLbSlLuGGvnijde2JqLbpHoSBiPEmRM8RAfqf9XZp8ZpsB_nvUCGLaVltkoqHnfZB9OyylZLklczGO0]--></g></svg>