<?xml version="1.0" encoding="us-ascii" standalone="no"?><svg xmlns="http://www.w3.org/2000/svg" xmlns:xlink="http://www.w3.org/1999/xlink" contentStyleType="text/css" height="584px" preserveAspectRatio="none" style="width:394px;height:584px;background:#FFFFFF;" version="1.1" viewBox="0 0 394 584" width="394px" zoomAndPan="magnify"><defs/><g><!--class BaseMessage--><g id="elem_BaseMessage"><rect codeLine="1" fill="#F1F1F1" height="96.8906" id="BaseMessage" rx="2.5" ry="2.5" style="stroke:#181818;stroke-width:0.5;" width="168" x="113" y="7"/><ellipse cx="145.1" cy="23" fill="#A9DCDF" rx="11" ry="11" style="stroke:#181818;stroke-width:1.0;"/><path d="M145.2094,18.3438 L144.0531,23.4219 L146.3813,23.4219 L145.2094,18.3438 Z M143.725,16.1094 L146.7094,16.1094 L150.0688,28.5 L147.6156,28.5 L146.85,25.4375 L143.5688,25.4375 L142.8188,28.5 L140.3813,28.5 L143.725,16.1094 Z " fill="#000000"/><text fill="#000000" font-family="sans-serif" font-size="14" font-style="italic" lengthAdjust="spacing" textLength="98" x="162.9" y="27.8467">BaseMessage</text><line style="stroke:#181818;stroke-width:0.5;" x1="114" x2="280" y1="39" y2="39"/><polygon fill="none" points="124,47.6484,128,51.6484,124,55.6484,120,51.6484" style="stroke:#B38D22;stroke-width:1.0;"/><text fill="#000000" font-family="sans-serif" font-size="14" lengthAdjust="spacing" textLength="137" x="133" y="55.9951">_correlationId : Guid</text><line style="stroke:#181818;stroke-width:0.5;" x1="114" x2="280" y1="63.2969" y2="63.2969"/><ellipse cx="124" cy="76.9453" fill="#84BE84" rx="3" ry="3" style="stroke:#038048;stroke-width:1.0;"/><text fill="#000000" font-family="sans-serif" font-size="14" lengthAdjust="spacing" textLength="142" x="133" y="80.292">CorrelationId() : Guid</text><polygon fill="#FFFF44" points="124,88.2422,128,92.2422,124,96.2422,120,92.2422" style="stroke:#B38D22;stroke-width:1.0;"/><text fill="#000000" font-family="sans-serif" font-size="14" lengthAdjust="spacing" textLength="108" x="133" y="96.5889">BaseMessage()</text></g><!--class BaseResponse--><g id="elem_BaseResponse"><rect codeLine="6" fill="#F1F1F1" height="80.5938" id="BaseResponse" rx="2.5" ry="2.5" style="stroke:#181818;stroke-width:0.5;" width="272" x="61" y="165"/><ellipse cx="139.75" cy="181" fill="#A9DCDF" rx="11" ry="11" style="stroke:#181818;stroke-width:1.0;"/><path d="M139.8594,176.3438 L138.7031,181.4219 L141.0313,181.4219 L139.8594,176.3438 Z M138.375,174.1094 L141.3594,174.1094 L144.7188,186.5 L142.2656,186.5 L141.5,183.4375 L138.2188,183.4375 L137.4688,186.5 L135.0313,186.5 L138.375,174.1094 Z " fill="#000000"/><text fill="#000000" font-family="sans-serif" font-size="14" font-style="italic" lengthAdjust="spacing" textLength="106" x="160.25" y="185.8467">BaseResponse</text><line style="stroke:#181818;stroke-width:0.5;" x1="62" x2="332" y1="197" y2="197"/><line style="stroke:#181818;stroke-width:0.5;" x1="62" x2="332" y1="205" y2="205"/><ellipse cx="72" cy="218.6484" fill="#84BE84" rx="3" ry="3" style="stroke:#038048;stroke-width:1.0;"/><text fill="#000000" font-family="sans-serif" font-size="14" lengthAdjust="spacing" textLength="246" x="81" y="221.9951">BaseResponse(correlationId : Guid)</text><ellipse cx="72" cy="234.9453" fill="#84BE84" rx="3" ry="3" style="stroke:#038048;stroke-width:1.0;"/><text fill="#000000" font-family="sans-serif" font-size="14" lengthAdjust="spacing" textLength="116" x="81" y="238.292">BaseResponse()</text></g><!--class CatalogTypeDto--><g id="elem_CatalogTypeDto"><rect codeLine="11" fill="#F1F1F1" height="96.8906" id="CatalogTypeDto" rx="2.5" ry="2.5" style="stroke:#181818;stroke-width:0.5;" width="207" x="93.5" y="481"/><ellipse cx="137.3" cy="497" fill="#ADD1B2" rx="11" ry="11" style="stroke:#181818;stroke-width:1.0;"/><path d="M140.2688,502.6406 Q139.6906,502.9375 139.05,503.0781 Q138.4094,503.2344 137.7063,503.2344 Q135.2063,503.2344 133.8781,501.5938 Q132.5656,499.9375 132.5656,496.8125 Q132.5656,493.6875 133.8781,492.0313 Q135.2063,490.375 137.7063,490.375 Q138.4094,490.375 139.05,490.5313 Q139.7063,490.6875 140.2688,490.9844 L140.2688,493.7031 Q139.6438,493.125 139.05,492.8594 Q138.4563,492.5781 137.8313,492.5781 Q136.4875,492.5781 135.8,493.6563 Q135.1125,494.7188 135.1125,496.8125 Q135.1125,498.9063 135.8,499.9844 Q136.4875,501.0469 137.8313,501.0469 Q138.4563,501.0469 139.05,500.7813 Q139.6438,500.5 140.2688,499.9219 L140.2688,502.6406 Z " fill="#000000"/><text fill="#000000" font-family="sans-serif" font-size="14" lengthAdjust="spacing" textLength="111" x="157.7" y="501.8467">CatalogTypeDto</text><line style="stroke:#181818;stroke-width:0.5;" x1="94.5" x2="299.5" y1="513" y2="513"/><ellipse cx="104.5" cy="526.6484" fill="none" rx="3" ry="3" style="stroke:#038048;stroke-width:1.0;"/><text fill="#000000" font-family="sans-serif" font-size="14" lengthAdjust="spacing" textLength="131" x="113.5" y="529.9951">Id : int &#171;get&#187; &#171;set&#187;</text><ellipse cx="104.5" cy="542.9453" fill="none" rx="3" ry="3" style="stroke:#038048;stroke-width:1.0;"/><text fill="#000000" font-family="sans-serif" font-size="14" lengthAdjust="spacing" textLength="181" x="113.5" y="546.292">Name : string &#171;get&#187; &#171;set&#187;</text><line style="stroke:#181818;stroke-width:0.5;" x1="94.5" x2="299.5" y1="553.5938" y2="553.5938"/><ellipse cx="104.5" cy="567.2422" fill="#84BE84" rx="3" ry="3" style="stroke:#038048;stroke-width:1.0;"/><text fill="#000000" font-family="sans-serif" font-size="14" lengthAdjust="spacing" textLength="121" x="113.5" y="570.5889">CatalogTypeDto()</text></g><!--class ListCatalogTypesResponse--><g id="elem_ListCatalogTypesResponse"><rect codeLine="16" fill="#F1F1F1" height="96.8906" id="ListCatalogTypesResponse" rx="2.5" ry="2.5" style="stroke:#181818;stroke-width:0.5;" width="380" x="7" y="307"/><ellipse cx="98.75" cy="323" fill="#ADD1B2" rx="11" ry="11" style="stroke:#181818;stroke-width:1.0;"/><path d="M101.7188,328.6406 Q101.1406,328.9375 100.5,329.0781 Q99.8594,329.2344 99.1563,329.2344 Q96.6563,329.2344 95.3281,327.5938 Q94.0156,325.9375 94.0156,322.8125 Q94.0156,319.6875 95.3281,318.0313 Q96.6563,316.375 99.1563,316.375 Q99.8594,316.375 100.5,316.5313 Q101.1563,316.6875 101.7188,316.9844 L101.7188,319.7031 Q101.0938,319.125 100.5,318.8594 Q99.9063,318.5781 99.2813,318.5781 Q97.9375,318.5781 97.25,319.6563 Q96.5625,320.7188 96.5625,322.8125 Q96.5625,324.9063 97.25,325.9844 Q97.9375,327.0469 99.2813,327.0469 Q99.9063,327.0469 100.5,326.7813 Q101.0938,326.5 101.7188,325.9219 L101.7188,328.6406 Z " fill="#000000"/><text fill="#000000" font-family="sans-serif" font-size="14" lengthAdjust="spacing" textLength="188" x="119.25" y="327.8467">ListCatalogTypesResponse</text><line style="stroke:#181818;stroke-width:0.5;" x1="8" x2="386" y1="339" y2="339"/><ellipse cx="18" cy="352.6484" fill="none" rx="3" ry="3" style="stroke:#038048;stroke-width:1.0;"/><text fill="#000000" font-family="sans-serif" font-size="14" lengthAdjust="spacing" textLength="354" x="27" y="355.9951">CatalogTypes : List&lt;CatalogTypeDto&gt; &#171;get&#187; &#171;set&#187;</text><line style="stroke:#181818;stroke-width:0.5;" x1="8" x2="386" y1="363.2969" y2="363.2969"/><ellipse cx="18" cy="376.9453" fill="#84BE84" rx="3" ry="3" style="stroke:#038048;stroke-width:1.0;"/><text fill="#000000" font-family="sans-serif" font-size="14" lengthAdjust="spacing" textLength="328" x="27" y="380.292">ListCatalogTypesResponse(correlationId : Guid)</text><ellipse cx="18" cy="393.2422" fill="#84BE84" rx="3" ry="3" style="stroke:#038048;stroke-width:1.0;"/><text fill="#000000" font-family="sans-serif" font-size="14" lengthAdjust="spacing" textLength="198" x="27" y="396.5889">ListCatalogTypesResponse()</text></g><!--reverse link BaseMessage to BaseResponse--><g id="link_BaseMessage_BaseResponse"><path codeLine="10" d="M197,125.1 C197,138.73 197,152.61 197,164.88 " fill="none" id="BaseMessage-backto-BaseResponse" style="stroke:#181818;stroke-width:1.0;"/><polygon fill="none" points="190,125.14,197,105.14,204,125.14,190,125.14" style="stroke:#181818;stroke-width:1.0;"/></g><!--reverse link BaseResponse to ListCatalogTypesResponse--><g id="link_BaseResponse_ListCatalogTypesResponse"><path codeLine="21" d="M197,266.85 C197,280.07 197,293.9 197,306.55 " fill="none" id="BaseResponse-backto-ListCatalogTypesResponse" style="stroke:#181818;stroke-width:1.0;"/><polygon fill="none" points="190,267.16,197,247.16,204,267.16,190,267.16" style="stroke:#181818;stroke-width:1.0;"/></g><!--reverse link ListCatalogTypesResponse to CatalogTypeDto--><g id="link_ListCatalogTypesResponse_CatalogTypeDto"><path codeLine="22" d="M197,418.22 C197,438.73 197,461.24 197,480.55 " fill="none" id="ListCatalogTypesResponse-backto-CatalogTypeDto" style="stroke:#181818;stroke-width:1.0;"/><polygon fill="#181818" points="197,405.41,193,411.41,197,417.41,201,411.41,197,405.41" style="stroke:#181818;stroke-width:1.0;"/><text fill="#000000" font-family="sans-serif" font-size="13" lengthAdjust="spacing" textLength="86" x="198" y="447.0669">CatalogTypes</text><text fill="#000000" font-family="sans-serif" font-size="13" lengthAdjust="spacing" textLength="7" x="189.5297" y="470.0477">*</text></g><!--SRC=[VL3D2e904BxlKmnwKQCN4F6GGGJL8Rh7f8iic2lETeZgtLirR3VTzZAmtpVVp-25L8kvWhn28bWXyJqdmf83F1ZevyCvbstBArH2rji2OjZSHD5Z2yXCA0XDq3VLWf2z64xDZfmQMTFejh1-WpddS8xOoPlXa-ToQJ7Ou9cXmagMftl3rqf-NNjrKIj8afAhDDMJklc13tZbcg3ZYxfqS6pfFj7WkHEa392cdLsCl_sTI-4q4EdTZf_O8TD9bU6AOyB-Z2uZvYmMwIqlydwl7LkHtW00]--></g></svg>