<?xml version="1.0" encoding="us-ascii" standalone="no"?><svg xmlns="http://www.w3.org/2000/svg" xmlns:xlink="http://www.w3.org/1999/xlink" contentStyleType="text/css" height="117px" preserveAspectRatio="none" style="width:189px;height:117px;background:#FFFFFF;" version="1.1" viewBox="0 0 189 117" width="189px" zoomAndPan="magnify"><defs/><g><!--class BaseMessage--><g id="elem_BaseMessage"><rect codeLine="1" fill="#F1F1F1" height="96.8906" id="BaseMessage" rx="2.5" ry="2.5" style="stroke:#181818;stroke-width:0.5;" width="168" x="7" y="7"/><ellipse cx="39.1" cy="23" fill="#A9DCDF" rx="11" ry="11" style="stroke:#181818;stroke-width:1.0;"/><path d="M39.2094,18.3438 L38.0531,23.4219 L40.3813,23.4219 L39.2094,18.3438 Z M37.725,16.1094 L40.7094,16.1094 L44.0688,28.5 L41.6156,28.5 L40.85,25.4375 L37.5688,25.4375 L36.8188,28.5 L34.3813,28.5 L37.725,16.1094 Z " fill="#000000"/><text fill="#000000" font-family="sans-serif" font-size="14" font-style="italic" lengthAdjust="spacing" textLength="98" x="56.9" y="27.8467">BaseMessage</text><line style="stroke:#181818;stroke-width:0.5;" x1="8" x2="174" y1="39" y2="39"/><polygon fill="none" points="18,47.6484,22,51.6484,18,55.6484,14,51.6484" style="stroke:#B38D22;stroke-width:1.0;"/><text fill="#000000" font-family="sans-serif" font-size="14" lengthAdjust="spacing" textLength="137" x="27" y="55.9951">_correlationId : Guid</text><line style="stroke:#181818;stroke-width:0.5;" x1="8" x2="174" y1="63.2969" y2="63.2969"/><ellipse cx="18" cy="76.9453" fill="#84BE84" rx="3" ry="3" style="stroke:#038048;stroke-width:1.0;"/><text fill="#000000" font-family="sans-serif" font-size="14" lengthAdjust="spacing" textLength="142" x="27" y="80.292">CorrelationId() : Guid</text><polygon fill="#FFFF44" points="18,88.2422,22,92.2422,18,96.2422,14,92.2422" style="stroke:#B38D22;stroke-width:1.0;"/><text fill="#000000" font-family="sans-serif" font-size="14" lengthAdjust="spacing" textLength="108" x="27" y="96.5889">BaseMessage()</text></g><!--SRC=[IqmgBYbAJ2vHICv9B2vMS4eiJlLDBIvEJ4zLKAZcKW02PONuvFoYejISn9BC_3pF50Kh1VVIp1ImdBQ2CxAKXYQof3AoQHgQNBK0]--></g></svg>