<?xml version="1.0" encoding="us-ascii" standalone="no"?><svg xmlns="http://www.w3.org/2000/svg" xmlns:xlink="http://www.w3.org/1999/xlink" contentStyleType="text/css" height="202px" preserveAspectRatio="none" style="width:348px;height:202px;background:#FFFFFF;" version="1.1" viewBox="0 0 348 202" width="348px" zoomAndPan="magnify"><defs/><g><!--class SlugifyParameterTransformer--><g id="elem_SlugifyParameterTransformer"><rect codeLine="1" fill="#F1F1F1" height="80.5938" id="SlugifyParameterTransformer" rx="2.5" ry="2.5" style="stroke:#181818;stroke-width:0.5;" width="334" x="7" y="115"/><ellipse cx="70.25" cy="131" fill="#ADD1B2" rx="11" ry="11" style="stroke:#181818;stroke-width:1.0;"/><path d="M73.2188,136.6406 Q72.6406,136.9375 72,137.0781 Q71.3594,137.2344 70.6563,137.2344 Q68.1563,137.2344 66.8281,135.5938 Q65.5156,133.9375 65.5156,130.8125 Q65.5156,127.6875 66.8281,126.0313 Q68.1563,124.375 70.6563,124.375 Q71.3594,124.375 72,124.5313 Q72.6563,124.6875 73.2188,124.9844 L73.2188,127.7031 Q72.5938,127.125 72,126.8594 Q71.4063,126.5781 70.7813,126.5781 Q69.4375,126.5781 68.75,127.6563 Q68.0625,128.7188 68.0625,130.8125 Q68.0625,132.9063 68.75,133.9844 Q69.4375,135.0469 70.7813,135.0469 Q71.4063,135.0469 72,134.7813 Q72.5938,134.5 73.2188,133.9219 L73.2188,136.6406 Z " fill="#000000"/><text fill="#000000" font-family="sans-serif" font-size="14" lengthAdjust="spacing" textLength="199" x="90.75" y="135.8467">SlugifyParameterTransformer</text><line style="stroke:#181818;stroke-width:0.5;" x1="8" x2="340" y1="147" y2="147"/><line style="stroke:#181818;stroke-width:0.5;" x1="8" x2="340" y1="155" y2="155"/><ellipse cx="18" cy="168.6484" fill="#84BE84" rx="3" ry="3" style="stroke:#038048;stroke-width:1.0;"/><text fill="#000000" font-family="sans-serif" font-size="14" lengthAdjust="spacing" textLength="308" x="27" y="171.9951">TransformOutbound(value : object?) : string?</text><ellipse cx="18" cy="184.9453" fill="#84BE84" rx="3" ry="3" style="stroke:#038048;stroke-width:1.0;"/><text fill="#000000" font-family="sans-serif" font-size="14" lengthAdjust="spacing" textLength="209" x="27" y="188.292">SlugifyParameterTransformer()</text></g><!--class IOutboundParameterTransformer--><g id="elem_IOutboundParameterTransformer"><rect fill="#F1F1F1" height="48" id="IOutboundParameterTransformer" rx="2.5" ry="2.5" style="stroke:#181818;stroke-width:0.5;" width="260" x="44" y="7"/><ellipse cx="59" cy="23" fill="#ADD1B2" rx="11" ry="11" style="stroke:#181818;stroke-width:1.0;"/><path d="M61.9688,28.6406 Q61.3906,28.9375 60.75,29.0781 Q60.1094,29.2344 59.4063,29.2344 Q56.9063,29.2344 55.5781,27.5938 Q54.2656,25.9375 54.2656,22.8125 Q54.2656,19.6875 55.5781,18.0313 Q56.9063,16.375 59.4063,16.375 Q60.1094,16.375 60.75,16.5313 Q61.4063,16.6875 61.9688,16.9844 L61.9688,19.7031 Q61.3438,19.125 60.75,18.8594 Q60.1563,18.5781 59.5313,18.5781 Q58.1875,18.5781 57.5,19.6563 Q56.8125,20.7188 56.8125,22.8125 Q56.8125,24.9063 57.5,25.9844 Q58.1875,27.0469 59.5313,27.0469 Q60.1563,27.0469 60.75,26.7813 Q61.3438,26.5 61.9688,25.9219 L61.9688,28.6406 Z " fill="#000000"/><text fill="#000000" font-family="sans-serif" font-size="14" lengthAdjust="spacing" textLength="228" x="73" y="27.8467">IOutboundParameterTransformer</text><line style="stroke:#181818;stroke-width:0.5;" x1="45" x2="303" y1="39" y2="39"/><line style="stroke:#181818;stroke-width:0.5;" x1="45" x2="303" y1="47" y2="47"/></g><!--reverse link IOutboundParameterTransformer to SlugifyParameterTransformer--><g id="link_IOutboundParameterTransformer_SlugifyParameterTransformer"><path codeLine="5" d="M174,75.89 C174,88.61 174,102.42 174,114.87 " fill="none" id="IOutboundParameterTransformer-backto-SlugifyParameterTransformer" style="stroke:#181818;stroke-width:1.0;stroke-dasharray:7.0,7.0;"/><polygon fill="none" points="167,76.33,174,56.33,181,76.33,167,76.33" style="stroke:#181818;stroke-width:1.0;"/></g><!--SRC=[Iyv9B2vM2CufJSzCgmn8B4hCJIr9BGefIimhJiiloaqjKb2evb800cq5kA1_QKbIVcbUYaPPOavfgeALGdvILcfoYRqca5bSKfIPbsuFrOB7N0rDhbekJvXHM6ssgT7JmsS40000]--></g></svg>