<?xml version="1.0" encoding="us-ascii" standalone="no"?><svg xmlns="http://www.w3.org/2000/svg" xmlns:xlink="http://www.w3.org/1999/xlink" contentStyleType="text/css" height="424px" preserveAspectRatio="none" style="width:765px;height:424px;background:#FFFFFF;" version="1.1" viewBox="0 0 765 424" width="765px" zoomAndPan="magnify"><defs/><g><!--class BaseMessage--><g id="elem_BaseMessage"><rect codeLine="1" fill="#F1F1F1" height="96.8906" id="BaseMessage" rx="2.5" ry="2.5" style="stroke:#181818;stroke-width:0.5;" width="168" x="298.5" y="7"/><ellipse cx="330.6" cy="23" fill="#A9DCDF" rx="11" ry="11" style="stroke:#181818;stroke-width:1.0;"/><path d="M330.7094,18.3438 L329.5531,23.4219 L331.8813,23.4219 L330.7094,18.3438 Z M329.225,16.1094 L332.2094,16.1094 L335.5688,28.5 L333.1156,28.5 L332.35,25.4375 L329.0688,25.4375 L328.3188,28.5 L325.8813,28.5 L329.225,16.1094 Z " fill="#000000"/><text fill="#000000" font-family="sans-serif" font-size="14" font-style="italic" lengthAdjust="spacing" textLength="98" x="348.4" y="27.8467">BaseMessage</text><line style="stroke:#181818;stroke-width:0.5;" x1="299.5" x2="465.5" y1="39" y2="39"/><polygon fill="none" points="309.5,47.6484,313.5,51.6484,309.5,55.6484,305.5,51.6484" style="stroke:#B38D22;stroke-width:1.0;"/><text fill="#000000" font-family="sans-serif" font-size="14" lengthAdjust="spacing" textLength="137" x="318.5" y="55.9951">_correlationId : Guid</text><line style="stroke:#181818;stroke-width:0.5;" x1="299.5" x2="465.5" y1="63.2969" y2="63.2969"/><ellipse cx="309.5" cy="76.9453" fill="#84BE84" rx="3" ry="3" style="stroke:#038048;stroke-width:1.0;"/><text fill="#000000" font-family="sans-serif" font-size="14" lengthAdjust="spacing" textLength="142" x="318.5" y="80.292">CorrelationId() : Guid</text><polygon fill="#FFFF44" points="309.5,88.2422,313.5,92.2422,309.5,96.2422,305.5,92.2422" style="stroke:#B38D22;stroke-width:1.0;"/><text fill="#000000" font-family="sans-serif" font-size="14" lengthAdjust="spacing" textLength="108" x="318.5" y="96.5889">BaseMessage()</text></g><!--class BaseRequest--><g id="elem_BaseRequest"><rect codeLine="6" fill="#F1F1F1" height="64.2969" id="BaseRequest" rx="2.5" ry="2.5" style="stroke:#181818;stroke-width:0.5;" width="130" x="317.5" y="164"/><ellipse cx="334.3" cy="180" fill="#A9DCDF" rx="11" ry="11" style="stroke:#181818;stroke-width:1.0;"/><path d="M334.4094,175.3438 L333.2531,180.4219 L335.5813,180.4219 L334.4094,175.3438 Z M332.925,173.1094 L335.9094,173.1094 L339.2688,185.5 L336.8156,185.5 L336.05,182.4375 L332.7688,182.4375 L332.0188,185.5 L329.5813,185.5 L332.925,173.1094 Z " fill="#000000"/><text fill="#000000" font-family="sans-serif" font-size="14" font-style="italic" lengthAdjust="spacing" textLength="94" x="348.7" y="184.8467">BaseRequest</text><line style="stroke:#181818;stroke-width:0.5;" x1="318.5" x2="446.5" y1="196" y2="196"/><line style="stroke:#181818;stroke-width:0.5;" x1="318.5" x2="446.5" y1="204" y2="204"/><polygon fill="#FFFF44" points="328.5,212.6484,332.5,216.6484,328.5,220.6484,324.5,216.6484" style="stroke:#B38D22;stroke-width:1.0;"/><text fill="#000000" font-family="sans-serif" font-size="14" lengthAdjust="spacing" textLength="104" x="337.5" y="220.9951">BaseRequest()</text></g><!--class ListPagedCatalogItemRequest--><g id="elem_ListPagedCatalogItemRequest"><rect codeLine="10" fill="#F1F1F1" height="129.4844" id="ListPagedCatalogItemRequest" rx="2.5" ry="2.5" style="stroke:#181818;stroke-width:0.5;" width="751" x="7" y="288"/><ellipse cx="274.25" cy="304" fill="#ADD1B2" rx="11" ry="11" style="stroke:#181818;stroke-width:1.0;"/><path d="M277.2188,309.6406 Q276.6406,309.9375 276,310.0781 Q275.3594,310.2344 274.6563,310.2344 Q272.1563,310.2344 270.8281,308.5938 Q269.5156,306.9375 269.5156,303.8125 Q269.5156,300.6875 270.8281,299.0313 Q272.1563,297.375 274.6563,297.375 Q275.3594,297.375 276,297.5313 Q276.6563,297.6875 277.2188,297.9844 L277.2188,300.7031 Q276.5938,300.125 276,299.8594 Q275.4063,299.5781 274.7813,299.5781 Q273.4375,299.5781 272.75,300.6563 Q272.0625,301.7188 272.0625,303.8125 Q272.0625,305.9063 272.75,306.9844 Q273.4375,308.0469 274.7813,308.0469 Q275.4063,308.0469 276,307.7813 Q276.5938,307.5 277.2188,306.9219 L277.2188,309.6406 Z " fill="#000000"/><text fill="#000000" font-family="sans-serif" font-size="14" lengthAdjust="spacing" textLength="208" x="294.75" y="308.8467">ListPagedCatalogItemRequest</text><line style="stroke:#181818;stroke-width:0.5;" x1="8" x2="757" y1="320" y2="320"/><ellipse cx="18" cy="333.6484" fill="none" rx="3" ry="3" style="stroke:#038048;stroke-width:1.0;"/><text fill="#000000" font-family="sans-serif" font-size="14" lengthAdjust="spacing" textLength="183" x="27" y="336.9951">PageSize : int &#171;get&#187; &#171;set&#187;</text><ellipse cx="18" cy="349.9453" fill="none" rx="3" ry="3" style="stroke:#038048;stroke-width:1.0;"/><text fill="#000000" font-family="sans-serif" font-size="14" lengthAdjust="spacing" textLength="191" x="27" y="353.292">PageIndex : int &#171;get&#187; &#171;set&#187;</text><ellipse cx="18" cy="366.2422" fill="none" rx="3" ry="3" style="stroke:#038048;stroke-width:1.0;"/><text fill="#000000" font-family="sans-serif" font-size="14" lengthAdjust="spacing" textLength="231" x="27" y="369.5889">CatalogBrandId : int? &#171;get&#187; &#171;set&#187;</text><ellipse cx="18" cy="382.5391" fill="none" rx="3" ry="3" style="stroke:#038048;stroke-width:1.0;"/><text fill="#000000" font-family="sans-serif" font-size="14" lengthAdjust="spacing" textLength="224" x="27" y="385.8857">CatalogTypeId : int? &#171;get&#187; &#171;set&#187;</text><line style="stroke:#181818;stroke-width:0.5;" x1="8" x2="757" y1="393.1875" y2="393.1875"/><ellipse cx="18" cy="406.8359" fill="#84BE84" rx="3" ry="3" style="stroke:#038048;stroke-width:1.0;"/><text fill="#000000" font-family="sans-serif" font-size="14" lengthAdjust="spacing" textLength="725" x="27" y="410.1826">ListPagedCatalogItemRequest(pageSize : int?, pageIndex : int?, catalogBrandId : int?, catalogTypeId : int?)</text></g><!--reverse link BaseMessage to BaseRequest--><g id="link_BaseMessage_BaseRequest"><path codeLine="9" d="M382.5,125.12 C382.5,138.66 382.5,152.24 382.5,163.77 " fill="none" id="BaseMessage-backto-BaseRequest" style="stroke:#181818;stroke-width:1.0;"/><polygon fill="none" points="375.5,125.16,382.5,105.16,389.5,125.16,375.5,125.16" style="stroke:#181818;stroke-width:1.0;"/></g><!--reverse link BaseRequest to ListPagedCatalogItemRequest--><g id="link_BaseRequest_ListPagedCatalogItemRequest"><path codeLine="17" d="M382.5,249.19 C382.5,261.56 382.5,274.9 382.5,287.73 " fill="none" id="BaseRequest-backto-ListPagedCatalogItemRequest" style="stroke:#181818;stroke-width:1.0;"/><polygon fill="none" points="375.5,249.27,382.5,229.27,389.5,249.27,375.5,249.27" style="stroke:#181818;stroke-width:1.0;"/></g><!--SRC=[XP3T2e9048NlVOe1Rmpp1K8Az2A4WgZkOt87MJ0rPu9-txtD_jOAsvk5ET_EENjmpL9ZAf3co0mHCas96JC2E3bWZWkhjAnhob5qMIGA1Z3UQTLeFiIsvFLiqRMtUJtduk2tsPosEs9vcrd3vesTA3m7WGquzpqJpJ8pkefHC2-pH6ZpiTU76x3GHp89TI4GXXd9S6XkljqMb1IAzftKmoQgiL1D7mOTTRFBGqN_q8vlU5Kh_QWFLJkfcQI_Kht6hG3FNfybDRrss5y1]--></g></svg>