<?xml version="1.0" encoding="us-ascii" standalone="no"?><svg xmlns="http://www.w3.org/2000/svg" xmlns:xlink="http://www.w3.org/1999/xlink" contentStyleType="text/css" height="117px" preserveAspectRatio="none" style="width:228px;height:117px;background:#FFFFFF;" version="1.1" viewBox="0 0 228 117" width="228px" zoomAndPan="magnify"><defs/><g><!--class CatalogBrandDto--><g id="elem_CatalogBrandDto"><rect codeLine="1" fill="#F1F1F1" height="96.8906" id="CatalogBrandDto" rx="2.5" ry="2.5" style="stroke:#181818;stroke-width:0.5;" width="207" x="7" y="7"/><ellipse cx="47.65" cy="23" fill="#ADD1B2" rx="11" ry="11" style="stroke:#181818;stroke-width:1.0;"/><path d="M50.6188,28.6406 Q50.0406,28.9375 49.4,29.0781 Q48.7594,29.2344 48.0563,29.2344 Q45.5563,29.2344 44.2281,27.5938 Q42.9156,25.9375 42.9156,22.8125 Q42.9156,19.6875 44.2281,18.0313 Q45.5563,16.375 48.0563,16.375 Q48.7594,16.375 49.4,16.5313 Q50.0563,16.6875 50.6188,16.9844 L50.6188,19.7031 Q49.9938,19.125 49.4,18.8594 Q48.8063,18.5781 48.1813,18.5781 Q46.8375,18.5781 46.15,19.6563 Q45.4625,20.7188 45.4625,22.8125 Q45.4625,24.9063 46.15,25.9844 Q46.8375,27.0469 48.1813,27.0469 Q48.8063,27.0469 49.4,26.7813 Q49.9938,26.5 50.6188,25.9219 L50.6188,28.6406 Z " fill="#000000"/><text fill="#000000" font-family="sans-serif" font-size="14" lengthAdjust="spacing" textLength="118" x="67.35" y="27.8467">CatalogBrandDto</text><line style="stroke:#181818;stroke-width:0.5;" x1="8" x2="213" y1="39" y2="39"/><ellipse cx="18" cy="52.6484" fill="none" rx="3" ry="3" style="stroke:#038048;stroke-width:1.0;"/><text fill="#000000" font-family="sans-serif" font-size="14" lengthAdjust="spacing" textLength="131" x="27" y="55.9951">Id : int &#171;get&#187; &#171;set&#187;</text><ellipse cx="18" cy="68.9453" fill="none" rx="3" ry="3" style="stroke:#038048;stroke-width:1.0;"/><text fill="#000000" font-family="sans-serif" font-size="14" lengthAdjust="spacing" textLength="181" x="27" y="72.292">Name : string &#171;get&#187; &#171;set&#187;</text><line style="stroke:#181818;stroke-width:0.5;" x1="8" x2="213" y1="79.5938" y2="79.5938"/><ellipse cx="18" cy="93.2422" fill="#84BE84" rx="3" ry="3" style="stroke:#038048;stroke-width:1.0;"/><text fill="#000000" font-family="sans-serif" font-size="14" lengthAdjust="spacing" textLength="128" x="27" y="96.5889">CatalogBrandDto()</text></g><!--SRC=[Iyv9B2vMS4uiISp9JtSgIinBSId9Lr2evb800cq5pnG5AuNCl1856vlqr18xEo1T3AAXqdw9kQb01SKbHPbvwJZKe9cjeSbL2m00]--></g></svg>