<?xml version="1.0" encoding="us-ascii" standalone="no"?><svg xmlns="http://www.w3.org/2000/svg" xmlns:xlink="http://www.w3.org/1999/xlink" contentStyleType="text/css" height="134px" preserveAspectRatio="none" style="width:306px;height:134px;background:#FFFFFF;" version="1.1" viewBox="0 0 306 134" width="306px" zoomAndPan="magnify"><defs/><g><!--class EnableAuthenticatorViewModel--><g id="elem_EnableAuthenticatorViewModel"><rect codeLine="1" fill="#F1F1F1" height="113.1875" id="EnableAuthenticatorViewModel" rx="2.5" ry="2.5" style="stroke:#181818;stroke-width:0.5;" width="285" x="7" y="7"/><ellipse cx="39.55" cy="23" fill="#ADD1B2" rx="11" ry="11" style="stroke:#181818;stroke-width:1.0;"/><path d="M42.5188,28.6406 Q41.9406,28.9375 41.3,29.0781 Q40.6594,29.2344 39.9563,29.2344 Q37.4563,29.2344 36.1281,27.5938 Q34.8156,25.9375 34.8156,22.8125 Q34.8156,19.6875 36.1281,18.0313 Q37.4563,16.375 39.9563,16.375 Q40.6594,16.375 41.3,16.5313 Q41.9563,16.6875 42.5188,16.9844 L42.5188,19.7031 Q41.8938,19.125 41.3,18.8594 Q40.7063,18.5781 40.0813,18.5781 Q38.7375,18.5781 38.05,19.6563 Q37.3625,20.7188 37.3625,22.8125 Q37.3625,24.9063 38.05,25.9844 Q38.7375,27.0469 40.0813,27.0469 Q40.7063,27.0469 41.3,26.7813 Q41.8938,26.5 42.5188,25.9219 L42.5188,28.6406 Z " fill="#000000"/><text fill="#000000" font-family="sans-serif" font-size="14" lengthAdjust="spacing" textLength="214" x="57.45" y="27.8467">EnableAuthenticatorViewModel</text><line style="stroke:#181818;stroke-width:0.5;" x1="8" x2="291" y1="39" y2="39"/><ellipse cx="18" cy="52.6484" fill="none" rx="3" ry="3" style="stroke:#038048;stroke-width:1.0;"/><text fill="#000000" font-family="sans-serif" font-size="14" lengthAdjust="spacing" textLength="185" x="27" y="55.9951">Code : string? &#171;get&#187; &#171;set&#187;</text><ellipse cx="18" cy="68.9453" fill="none" rx="3" ry="3" style="stroke:#038048;stroke-width:1.0;"/><text fill="#000000" font-family="sans-serif" font-size="14" lengthAdjust="spacing" textLength="222" x="27" y="72.292">SharedKey : string? &#171;get&#187; &#171;set&#187;</text><ellipse cx="18" cy="85.2422" fill="none" rx="3" ry="3" style="stroke:#038048;stroke-width:1.0;"/><text fill="#000000" font-family="sans-serif" font-size="14" lengthAdjust="spacing" textLength="259" x="27" y="88.5889">AuthenticatorUri : string? &#171;get&#187; &#171;set&#187;</text><line style="stroke:#181818;stroke-width:0.5;" x1="8" x2="291" y1="95.8906" y2="95.8906"/><ellipse cx="18" cy="109.5391" fill="#84BE84" rx="3" ry="3" style="stroke:#038048;stroke-width:1.0;"/><text fill="#000000" font-family="sans-serif" font-size="14" lengthAdjust="spacing" textLength="224" x="27" y="112.8857">EnableAuthenticatorViewModel()</text></g><!--SRC=[Iyv9B2vMSCrBJCf9TImjoKZDAybCJYp9BmhBJ2ttpKz9pL5GgEPI009j1MSWLy5AeRYaA3CltLx1nYOzjSJE3aWNWsYeek2CnABK5E_KIe8gKQmBBSeag06VApKqkMe1]--></g></svg>