<?xml version="1.0" encoding="us-ascii" standalone="no"?><svg xmlns="http://www.w3.org/2000/svg" xmlns:xlink="http://www.w3.org/1999/xlink" contentStyleType="text/css" height="93px" preserveAspectRatio="none" style="width:706px;height:93px;background:#FFFFFF;" version="1.1" viewBox="0 0 706 93" width="706px" zoomAndPan="magnify"><defs/><g><!--class ConfigureCoreServices--><g id="elem_ConfigureCoreServices"><rect codeLine="1" fill="#F1F1F1" height="72.5625" id="ConfigureCoreServices" rx="2.5" ry="2.5" style="stroke:#181818;stroke-width:0.5;" width="685" x="7" y="7"/><ellipse cx="266.25" cy="27.1328" fill="#ADD1B2" rx="11" ry="11" style="stroke:#181818;stroke-width:1.0;"/><path d="M269.2188,32.7734 Q268.6406,33.0703 268,33.2109 Q267.3594,33.3672 266.6563,33.3672 Q264.1563,33.3672 262.8281,31.7266 Q261.5156,30.0703 261.5156,26.9453 Q261.5156,23.8203 262.8281,22.1641 Q264.1563,20.5078 266.6563,20.5078 Q267.3594,20.5078 268,20.6641 Q268.6563,20.8203 269.2188,21.1172 L269.2188,23.8359 Q268.5938,23.2578 268,22.9922 Q267.4063,22.7109 266.7813,22.7109 Q265.4375,22.7109 264.75,23.7891 Q264.0625,24.8516 264.0625,26.9453 Q264.0625,29.0391 264.75,30.1172 Q265.4375,31.1797 266.7813,31.1797 Q267.4063,31.1797 268,30.9141 Q268.5938,30.6328 269.2188,30.0547 L269.2188,32.7734 Z " fill="#000000"/><text fill="#000000" font-family="sans-serif" font-size="12" font-style="italic" lengthAdjust="spacing" textLength="49" x="341.25" y="23.1387">&#171;static&#187;</text><text fill="#000000" font-family="sans-serif" font-size="14" lengthAdjust="spacing" textLength="158" x="286.75" y="38.9639">ConfigureCoreServices</text><line style="stroke:#181818;stroke-width:0.5;" x1="8" x2="691" y1="47.2656" y2="47.2656"/><line style="stroke:#181818;stroke-width:0.5;" x1="8" x2="691" y1="55.2656" y2="55.2656"/><ellipse cx="18" cy="68.9141" fill="#84BE84" rx="3" ry="3" style="stroke:#038048;stroke-width:1.0;"/><text fill="#000000" font-family="sans-serif" font-size="14" lengthAdjust="spacing" text-decoration="underline" textLength="659" x="27" y="72.2607">AddCoreServices(services : IServiceCollection, configuration : IConfiguration) : IServiceCollection</text></g><!--SRC=[Iyv9B2vMSCxFIyjCBorATSulIWrEBIhBJ4ujLh2nAIv9BCbCjhDJKAZcKW02ROLgY52jWcDA2h9YZMAOBYi5JwYWStvEJcfoIMP-dev2CjI6H10NfCOPMK0JgowkMW00]--></g></svg>