<?xml version="1.0" encoding="us-ascii" standalone="no"?><svg xmlns="http://www.w3.org/2000/svg" xmlns:xlink="http://www.w3.org/1999/xlink" contentStyleType="text/css" height="218px" preserveAspectRatio="none" style="width:373px;height:218px;background:#FFFFFF;" version="1.1" viewBox="0 0 373 218" width="373px" zoomAndPan="magnify"><defs/><g><!--class GetOrderDetails--><g id="elem_GetOrderDetails"><rect codeLine="1" fill="#F1F1F1" height="96.8906" id="GetOrderDetails" rx="2.5" ry="2.5" style="stroke:#181818;stroke-width:0.5;" width="357" x="9.2437" y="115"/><ellipse cx="127.9938" cy="131" fill="#ADD1B2" rx="11" ry="11" style="stroke:#181818;stroke-width:1.0;"/><path d="M130.9625,136.6406 Q130.3844,136.9375 129.7438,137.0781 Q129.1031,137.2344 128.4,137.2344 Q125.9,137.2344 124.5719,135.5938 Q123.2594,133.9375 123.2594,130.8125 Q123.2594,127.6875 124.5719,126.0313 Q125.9,124.375 128.4,124.375 Q129.1031,124.375 129.7438,124.5313 Q130.4,124.6875 130.9625,124.9844 L130.9625,127.7031 Q130.3375,127.125 129.7438,126.8594 Q129.15,126.5781 128.525,126.5781 Q127.1813,126.5781 126.4938,127.6563 Q125.8063,128.7188 125.8063,130.8125 Q125.8063,132.9063 126.4938,133.9844 Q127.1813,135.0469 128.525,135.0469 Q129.15,135.0469 129.7438,134.7813 Q130.3375,134.5 130.9625,133.9219 L130.9625,136.6406 Z " fill="#000000"/><text fill="#000000" font-family="sans-serif" font-size="14" lengthAdjust="spacing" textLength="111" x="148.4938" y="135.8467">GetOrderDetails</text><line style="stroke:#181818;stroke-width:0.5;" x1="10.2437" x2="365.2438" y1="147" y2="147"/><ellipse cx="20.2438" cy="160.6484" fill="none" rx="3" ry="3" style="stroke:#038048;stroke-width:1.0;"/><text fill="#000000" font-family="sans-serif" font-size="14" lengthAdjust="spacing" textLength="213" x="29.2438" y="163.9951">UserName : string &#171;get&#187; &#171;set&#187;</text><ellipse cx="20.2438" cy="176.9453" fill="none" rx="3" ry="3" style="stroke:#038048;stroke-width:1.0;"/><text fill="#000000" font-family="sans-serif" font-size="14" lengthAdjust="spacing" textLength="170" x="29.2438" y="180.292">OrderId : int &#171;get&#187; &#171;set&#187;</text><line style="stroke:#181818;stroke-width:0.5;" x1="10.2437" x2="365.2438" y1="187.5938" y2="187.5938"/><ellipse cx="20.2438" cy="201.2422" fill="#84BE84" rx="3" ry="3" style="stroke:#038048;stroke-width:1.0;"/><text fill="#000000" font-family="sans-serif" font-size="14" lengthAdjust="spacing" textLength="331" x="29.2438" y="204.5889">GetOrderDetails(userName : string, orderId : int)</text></g><!--class IRequest`1--><g id="elem_IRequest`1"><rect fill="#F1F1F1" height="48" id="IRequest`1" rx="2.5" ry="2.5" style="stroke:#181818;stroke-width:0.5;" width="110" x="132.7438" y="7"/><ellipse cx="147.7438" cy="23" fill="#ADD1B2" rx="11" ry="11" style="stroke:#181818;stroke-width:1.0;"/><path d="M150.7125,28.6406 Q150.1344,28.9375 149.4938,29.0781 Q148.8531,29.2344 148.15,29.2344 Q145.65,29.2344 144.3219,27.5938 Q143.0094,25.9375 143.0094,22.8125 Q143.0094,19.6875 144.3219,18.0313 Q145.65,16.375 148.15,16.375 Q148.8531,16.375 149.4938,16.5313 Q150.15,16.6875 150.7125,16.9844 L150.7125,19.7031 Q150.0875,19.125 149.4938,18.8594 Q148.9,18.5781 148.275,18.5781 Q146.9313,18.5781 146.2438,19.6563 Q145.5563,20.7188 145.5563,22.8125 Q145.5563,24.9063 146.2438,25.9844 Q146.9313,27.0469 148.275,27.0469 Q148.9,27.0469 149.4938,26.7813 Q150.0875,26.5 150.7125,25.9219 L150.7125,28.6406 Z " fill="#000000"/><text fill="#000000" font-family="sans-serif" font-size="14" lengthAdjust="spacing" textLength="78" x="161.7438" y="27.8467">IRequest`1</text><line style="stroke:#181818;stroke-width:0.5;" x1="133.7438" x2="241.7438" y1="39" y2="39"/><line style="stroke:#181818;stroke-width:0.5;" x1="133.7438" x2="241.7438" y1="47" y2="47"/></g><!--reverse link IRequest`1 to GetOrderDetails--><g id="link_IRequest`1_GetOrderDetails"><path codeLine="6" d="M187.7438,75.95 C187.7438,88.34 187.7438,101.89 187.7438,114.51 " fill="none" id="IRequest`1-backto-GetOrderDetails" style="stroke:#181818;stroke-width:1.0;stroke-dasharray:7.0,7.0;"/><polygon fill="none" points="180.7438,76.33,187.7438,56.33,194.7438,76.33,180.7438,76.33" style="stroke:#181818;stroke-width:1.0;"/><text fill="#000000" font-family="sans-serif" font-size="13" lengthAdjust="spacing" textLength="162" x="6" y="75.1716">&lt;OrderDetailViewModel&gt;</text></g><!--SRC=[Iyv9B2vMS4yjyIzAIIroIIr9pCmfLb2evb800cs5qEBK8h_4t5G5AuNYagBCl7G56vlqr18xEo1T3AAXwi2wFLE0oZBpId2eGRD4enJTR1s5V6HZDBbgkPGyWr8BIrEBIn8CbHIKR93qXsMcbllcfwJcs2afsDJewQ4R3m00]--></g></svg>