<?xml version="1.0" encoding="us-ascii" standalone="no"?><svg xmlns="http://www.w3.org/2000/svg" xmlns:xlink="http://www.w3.org/1999/xlink" contentStyleType="text/css" height="408px" preserveAspectRatio="none" style="width:712px;height:408px;background:#FFFFFF;" version="1.1" viewBox="0 0 712 408" width="712px" zoomAndPan="magnify"><defs/><g><!--class CatalogItemViewModel--><g id="elem_CatalogItemViewModel"><rect codeLine="1" fill="#F1F1F1" height="129.4844" id="CatalogItemViewModel" rx="2.5" ry="2.5" style="stroke:#181818;stroke-width:0.5;" width="240" x="114.5" y="272"/><ellipse cx="152.9" cy="288" fill="#ADD1B2" rx="11" ry="11" style="stroke:#181818;stroke-width:1.0;"/><path d="M155.8688,293.6406 Q155.2906,293.9375 154.65,294.0781 Q154.0094,294.2344 153.3063,294.2344 Q150.8063,294.2344 149.4781,292.5938 Q148.1656,290.9375 148.1656,287.8125 Q148.1656,284.6875 149.4781,283.0313 Q150.8063,281.375 153.3063,281.375 Q154.0094,281.375 154.65,281.5313 Q155.3063,281.6875 155.8688,281.9844 L155.8688,284.7031 Q155.2438,284.125 154.65,283.8594 Q154.0563,283.5781 153.4313,283.5781 Q152.0875,283.5781 151.4,284.6563 Q150.7125,285.7188 150.7125,287.8125 Q150.7125,289.9063 151.4,290.9844 Q152.0875,292.0469 153.4313,292.0469 Q154.0563,292.0469 154.65,291.7813 Q155.2438,291.5 155.8688,290.9219 L155.8688,293.6406 Z " fill="#000000"/><text fill="#000000" font-family="sans-serif" font-size="14" lengthAdjust="spacing" textLength="156" x="172.1" y="292.8467">CatalogItemViewModel</text><line style="stroke:#181818;stroke-width:0.5;" x1="115.5" x2="353.5" y1="304" y2="304"/><ellipse cx="125.5" cy="317.6484" fill="none" rx="3" ry="3" style="stroke:#038048;stroke-width:1.0;"/><text fill="#000000" font-family="sans-serif" font-size="14" lengthAdjust="spacing" textLength="131" x="134.5" y="320.9951">Id : int &#171;get&#187; &#171;set&#187;</text><ellipse cx="125.5" cy="333.9453" fill="none" rx="3" ry="3" style="stroke:#038048;stroke-width:1.0;"/><text fill="#000000" font-family="sans-serif" font-size="14" lengthAdjust="spacing" textLength="188" x="134.5" y="337.292">Name : string? &#171;get&#187; &#171;set&#187;</text><ellipse cx="125.5" cy="350.2422" fill="none" rx="3" ry="3" style="stroke:#038048;stroke-width:1.0;"/><text fill="#000000" font-family="sans-serif" font-size="14" lengthAdjust="spacing" textLength="214" x="134.5" y="353.5889">PictureUri : string? &#171;get&#187; &#171;set&#187;</text><ellipse cx="125.5" cy="366.5391" fill="none" rx="3" ry="3" style="stroke:#038048;stroke-width:1.0;"/><text fill="#000000" font-family="sans-serif" font-size="14" lengthAdjust="spacing" textLength="189" x="134.5" y="369.8857">Price : decimal &#171;get&#187; &#171;set&#187;</text><line style="stroke:#181818;stroke-width:0.5;" x1="115.5" x2="353.5" y1="377.1875" y2="377.1875"/><ellipse cx="125.5" cy="390.8359" fill="#84BE84" rx="3" ry="3" style="stroke:#038048;stroke-width:1.0;"/><text fill="#000000" font-family="sans-serif" font-size="14" lengthAdjust="spacing" textLength="166" x="134.5" y="394.1826">CatalogItemViewModel()</text></g><!--class ICatalogItemViewModelService--><g id="elem_ICatalogItemViewModelService"><rect codeLine="8" fill="#F1F1F1" height="64.2969" id="ICatalogItemViewModelService" rx="2.5" ry="2.5" style="stroke:#181818;stroke-width:0.5;" width="455" x="7" y="7"/><ellipse cx="125.75" cy="23" fill="#B4A7E5" rx="11" ry="11" style="stroke:#181818;stroke-width:1.0;"/><path d="M121.6719,18.7656 L121.6719,16.6094 L129.0625,16.6094 L129.0625,18.7656 L126.5938,18.7656 L126.5938,26.8438 L129.0625,26.8438 L129.0625,29 L121.6719,29 L121.6719,26.8438 L124.1406,26.8438 L124.1406,18.7656 L121.6719,18.7656 Z " fill="#000000"/><text fill="#000000" font-family="sans-serif" font-size="14" font-style="italic" lengthAdjust="spacing" textLength="209" x="146.25" y="27.8467">ICatalogItemViewModelService</text><line style="stroke:#181818;stroke-width:0.5;" x1="8" x2="461" y1="39" y2="39"/><line style="stroke:#181818;stroke-width:0.5;" x1="8" x2="461" y1="47" y2="47"/><ellipse cx="18" cy="60.6484" fill="#84BE84" rx="3" ry="3" style="stroke:#038048;stroke-width:1.0;"/><text fill="#000000" font-family="sans-serif" font-size="14" lengthAdjust="spacing" textLength="429" x="27" y="63.9951">UpdateCatalogItem(viewModel : CatalogItemViewModel) : Task</text></g><!--class CatalogItemViewModelService--><g id="elem_CatalogItemViewModelService"><rect codeLine="13" fill="#F1F1F1" height="80.5938" id="CatalogItemViewModelService" rx="2.5" ry="2.5" style="stroke:#181818;stroke-width:0.5;" width="592" x="113.5" y="131"/><ellipse cx="302.25" cy="147" fill="#ADD1B2" rx="11" ry="11" style="stroke:#181818;stroke-width:1.0;"/><path d="M305.2188,152.6406 Q304.6406,152.9375 304,153.0781 Q303.3594,153.2344 302.6563,153.2344 Q300.1563,153.2344 298.8281,151.5938 Q297.5156,149.9375 297.5156,146.8125 Q297.5156,143.6875 298.8281,142.0313 Q300.1563,140.375 302.6563,140.375 Q303.3594,140.375 304,140.5313 Q304.6563,140.6875 305.2188,140.9844 L305.2188,143.7031 Q304.5938,143.125 304,142.8594 Q303.4063,142.5781 302.7813,142.5781 Q301.4375,142.5781 300.75,143.6563 Q300.0625,144.7188 300.0625,146.8125 Q300.0625,148.9063 300.75,149.9844 Q301.4375,151.0469 302.7813,151.0469 Q303.4063,151.0469 304,150.7813 Q304.5938,150.5 305.2188,149.9219 L305.2188,152.6406 Z " fill="#000000"/><text fill="#000000" font-family="sans-serif" font-size="14" lengthAdjust="spacing" textLength="206" x="322.75" y="151.8467">CatalogItemViewModelService</text><line style="stroke:#181818;stroke-width:0.5;" x1="114.5" x2="704.5" y1="163" y2="163"/><line style="stroke:#181818;stroke-width:0.5;" x1="114.5" x2="704.5" y1="171" y2="171"/><ellipse cx="124.5" cy="184.6484" fill="#84BE84" rx="3" ry="3" style="stroke:#038048;stroke-width:1.0;"/><text fill="#000000" font-family="sans-serif" font-size="14" lengthAdjust="spacing" textLength="566" x="133.5" y="187.9951">CatalogItemViewModelService(catalogItemRepository : IRepository&lt;CatalogItem&gt;)</text><ellipse cx="124.5" cy="200.9453" fill="#84BE84" rx="3" ry="3" style="stroke:#038048;stroke-width:1.0;"/><text fill="#000000" font-family="sans-serif" font-size="14" lengthAdjust="spacing" textLength="491" x="133.5" y="204.292">&#171;async&#187; UpdateCatalogItem(viewModel : CatalogItemViewModel) : Task</text></g><!--link ICatalogItemViewModelService to CatalogItemViewModel--><g id="link_ICatalogItemViewModelService_CatalogItemViewModel"><path codeLine="11" d="M158.57,71.5 C133.91,85.8 109.35,105.37 95.5,131 C78.38,162.67 80.75,179.16 95.5,212 C104.83,232.77 119.57,251.46 136.02,267.66 " fill="none" id="ICatalogItemViewModelService-to-CatalogItemViewModel" style="stroke:#181818;stroke-width:1.0;stroke-dasharray:7.0,7.0;"/><polygon fill="#181818" points="139.24,270.72,135.5379,261.5934,135.6408,267.2493,129.9849,267.3522,139.24,270.72" style="stroke:#181818;stroke-width:1.0;"/></g><!--reverse link ICatalogItemViewModelService to CatalogItemViewModelService--><g id="link_ICatalogItemViewModelService_CatalogItemViewModelService"><path codeLine="17" d="M293.17,83.75 C313.48,98.89 336.11,115.77 355.98,130.59 " fill="none" id="ICatalogItemViewModelService-backto-CatalogItemViewModelService" style="stroke:#181818;stroke-width:1.0;stroke-dasharray:7.0,7.0;"/><polygon fill="none" points="289.27,88.83,277.42,71.26,297.63,77.6,289.27,88.83" style="stroke:#181818;stroke-width:1.0;"/></g><!--link CatalogItemViewModelService to CatalogItemViewModel--><g id="link_CatalogItemViewModelService_CatalogItemViewModel"><path codeLine="18" d="M366.69,212.37 C348.84,229 327.59,248.8 307.41,267.59 " fill="none" id="CatalogItemViewModelService-to-CatalogItemViewModel" style="stroke:#181818;stroke-width:1.0;stroke-dasharray:7.0,7.0;"/><polygon fill="#181818" points="304.12,270.59,313.4283,267.3721,307.7748,267.1779,307.969,261.5244,304.12,270.59" style="stroke:#181818;stroke-width:1.0;"/></g><!--SRC=[jP312e9048Rl-nHxL08VG1OxTF9GH6NtOPraILtPtGofthqHH8NK86Wlm-vy-yy_lyp1Mhu11xdEOeV5MU5zgrFCENymJcV5uvI7N9ME2v6XYoAgjgrTUmS54c2TKMMsde7sIhgRmSIexwXHiXLCKQe2yXbgohBdinSZesWkG1Bn57D4KxVw_NP9bOB34UhLVGJXv1YVtazWhpHiSKGGH9F_6PEpgN_OMu0yEVGEM6chd3ODcOk7cnZzZ_nEKmYmJIafq_yjBvv1i6IU_PBS6m00]--></g></svg>