<?xml version="1.0" encoding="us-ascii" standalone="no"?><svg xmlns="http://www.w3.org/2000/svg" xmlns:xlink="http://www.w3.org/1999/xlink" contentStyleType="text/css" height="584px" preserveAspectRatio="none" style="width:408px;height:584px;background:#FFFFFF;" version="1.1" viewBox="0 0 408 584" width="408px" zoomAndPan="magnify"><defs/><g><!--class BaseMessage--><g id="elem_BaseMessage"><rect codeLine="1" fill="#F1F1F1" height="96.8906" id="BaseMessage" rx="2.5" ry="2.5" style="stroke:#181818;stroke-width:0.5;" width="168" x="120" y="7"/><ellipse cx="152.1" cy="23" fill="#A9DCDF" rx="11" ry="11" style="stroke:#181818;stroke-width:1.0;"/><path d="M152.2094,18.3438 L151.0531,23.4219 L153.3813,23.4219 L152.2094,18.3438 Z M150.725,16.1094 L153.7094,16.1094 L157.0688,28.5 L154.6156,28.5 L153.85,25.4375 L150.5688,25.4375 L149.8188,28.5 L147.3813,28.5 L150.725,16.1094 Z " fill="#000000"/><text fill="#000000" font-family="sans-serif" font-size="14" font-style="italic" lengthAdjust="spacing" textLength="98" x="169.9" y="27.8467">BaseMessage</text><line style="stroke:#181818;stroke-width:0.5;" x1="121" x2="287" y1="39" y2="39"/><polygon fill="none" points="131,47.6484,135,51.6484,131,55.6484,127,51.6484" style="stroke:#B38D22;stroke-width:1.0;"/><text fill="#000000" font-family="sans-serif" font-size="14" lengthAdjust="spacing" textLength="137" x="140" y="55.9951">_correlationId : Guid</text><line style="stroke:#181818;stroke-width:0.5;" x1="121" x2="287" y1="63.2969" y2="63.2969"/><ellipse cx="131" cy="76.9453" fill="#84BE84" rx="3" ry="3" style="stroke:#038048;stroke-width:1.0;"/><text fill="#000000" font-family="sans-serif" font-size="14" lengthAdjust="spacing" textLength="142" x="140" y="80.292">CorrelationId() : Guid</text><polygon fill="#FFFF44" points="131,88.2422,135,92.2422,131,96.2422,127,92.2422" style="stroke:#B38D22;stroke-width:1.0;"/><text fill="#000000" font-family="sans-serif" font-size="14" lengthAdjust="spacing" textLength="108" x="140" y="96.5889">BaseMessage()</text></g><!--class BaseResponse--><g id="elem_BaseResponse"><rect codeLine="6" fill="#F1F1F1" height="80.5938" id="BaseResponse" rx="2.5" ry="2.5" style="stroke:#181818;stroke-width:0.5;" width="272" x="68" y="165"/><ellipse cx="146.75" cy="181" fill="#A9DCDF" rx="11" ry="11" style="stroke:#181818;stroke-width:1.0;"/><path d="M146.8594,176.3438 L145.7031,181.4219 L148.0313,181.4219 L146.8594,176.3438 Z M145.375,174.1094 L148.3594,174.1094 L151.7188,186.5 L149.2656,186.5 L148.5,183.4375 L145.2188,183.4375 L144.4688,186.5 L142.0313,186.5 L145.375,174.1094 Z " fill="#000000"/><text fill="#000000" font-family="sans-serif" font-size="14" font-style="italic" lengthAdjust="spacing" textLength="106" x="167.25" y="185.8467">BaseResponse</text><line style="stroke:#181818;stroke-width:0.5;" x1="69" x2="339" y1="197" y2="197"/><line style="stroke:#181818;stroke-width:0.5;" x1="69" x2="339" y1="205" y2="205"/><ellipse cx="79" cy="218.6484" fill="#84BE84" rx="3" ry="3" style="stroke:#038048;stroke-width:1.0;"/><text fill="#000000" font-family="sans-serif" font-size="14" lengthAdjust="spacing" textLength="246" x="88" y="221.9951">BaseResponse(correlationId : Guid)</text><ellipse cx="79" cy="234.9453" fill="#84BE84" rx="3" ry="3" style="stroke:#038048;stroke-width:1.0;"/><text fill="#000000" font-family="sans-serif" font-size="14" lengthAdjust="spacing" textLength="116" x="88" y="238.292">BaseResponse()</text></g><!--class CatalogBrandDto--><g id="elem_CatalogBrandDto"><rect codeLine="11" fill="#F1F1F1" height="96.8906" id="CatalogBrandDto" rx="2.5" ry="2.5" style="stroke:#181818;stroke-width:0.5;" width="207" x="100.5" y="481"/><ellipse cx="141.15" cy="497" fill="#ADD1B2" rx="11" ry="11" style="stroke:#181818;stroke-width:1.0;"/><path d="M144.1188,502.6406 Q143.5406,502.9375 142.9,503.0781 Q142.2594,503.2344 141.5563,503.2344 Q139.0563,503.2344 137.7281,501.5938 Q136.4156,499.9375 136.4156,496.8125 Q136.4156,493.6875 137.7281,492.0313 Q139.0563,490.375 141.5563,490.375 Q142.2594,490.375 142.9,490.5313 Q143.5563,490.6875 144.1188,490.9844 L144.1188,493.7031 Q143.4938,493.125 142.9,492.8594 Q142.3063,492.5781 141.6813,492.5781 Q140.3375,492.5781 139.65,493.6563 Q138.9625,494.7188 138.9625,496.8125 Q138.9625,498.9063 139.65,499.9844 Q140.3375,501.0469 141.6813,501.0469 Q142.3063,501.0469 142.9,500.7813 Q143.4938,500.5 144.1188,499.9219 L144.1188,502.6406 Z " fill="#000000"/><text fill="#000000" font-family="sans-serif" font-size="14" lengthAdjust="spacing" textLength="118" x="160.85" y="501.8467">CatalogBrandDto</text><line style="stroke:#181818;stroke-width:0.5;" x1="101.5" x2="306.5" y1="513" y2="513"/><ellipse cx="111.5" cy="526.6484" fill="none" rx="3" ry="3" style="stroke:#038048;stroke-width:1.0;"/><text fill="#000000" font-family="sans-serif" font-size="14" lengthAdjust="spacing" textLength="131" x="120.5" y="529.9951">Id : int &#171;get&#187; &#171;set&#187;</text><ellipse cx="111.5" cy="542.9453" fill="none" rx="3" ry="3" style="stroke:#038048;stroke-width:1.0;"/><text fill="#000000" font-family="sans-serif" font-size="14" lengthAdjust="spacing" textLength="181" x="120.5" y="546.292">Name : string &#171;get&#187; &#171;set&#187;</text><line style="stroke:#181818;stroke-width:0.5;" x1="101.5" x2="306.5" y1="553.5938" y2="553.5938"/><ellipse cx="111.5" cy="567.2422" fill="#84BE84" rx="3" ry="3" style="stroke:#038048;stroke-width:1.0;"/><text fill="#000000" font-family="sans-serif" font-size="14" lengthAdjust="spacing" textLength="128" x="120.5" y="570.5889">CatalogBrandDto()</text></g><!--class ListCatalogBrandsResponse--><g id="elem_ListCatalogBrandsResponse"><rect codeLine="16" fill="#F1F1F1" height="96.8906" id="ListCatalogBrandsResponse" rx="2.5" ry="2.5" style="stroke:#181818;stroke-width:0.5;" width="394" x="7" y="307"/><ellipse cx="102.25" cy="323" fill="#ADD1B2" rx="11" ry="11" style="stroke:#181818;stroke-width:1.0;"/><path d="M105.2188,328.6406 Q104.6406,328.9375 104,329.0781 Q103.3594,329.2344 102.6563,329.2344 Q100.1563,329.2344 98.8281,327.5938 Q97.5156,325.9375 97.5156,322.8125 Q97.5156,319.6875 98.8281,318.0313 Q100.1563,316.375 102.6563,316.375 Q103.3594,316.375 104,316.5313 Q104.6563,316.6875 105.2188,316.9844 L105.2188,319.7031 Q104.5938,319.125 104,318.8594 Q103.4063,318.5781 102.7813,318.5781 Q101.4375,318.5781 100.75,319.6563 Q100.0625,320.7188 100.0625,322.8125 Q100.0625,324.9063 100.75,325.9844 Q101.4375,327.0469 102.7813,327.0469 Q103.4063,327.0469 104,326.7813 Q104.5938,326.5 105.2188,325.9219 L105.2188,328.6406 Z " fill="#000000"/><text fill="#000000" font-family="sans-serif" font-size="14" lengthAdjust="spacing" textLength="195" x="122.75" y="327.8467">ListCatalogBrandsResponse</text><line style="stroke:#181818;stroke-width:0.5;" x1="8" x2="400" y1="339" y2="339"/><ellipse cx="18" cy="352.6484" fill="none" rx="3" ry="3" style="stroke:#038048;stroke-width:1.0;"/><text fill="#000000" font-family="sans-serif" font-size="14" lengthAdjust="spacing" textLength="368" x="27" y="355.9951">CatalogBrands : List&lt;CatalogBrandDto&gt; &#171;get&#187; &#171;set&#187;</text><line style="stroke:#181818;stroke-width:0.5;" x1="8" x2="400" y1="363.2969" y2="363.2969"/><ellipse cx="18" cy="376.9453" fill="#84BE84" rx="3" ry="3" style="stroke:#038048;stroke-width:1.0;"/><text fill="#000000" font-family="sans-serif" font-size="14" lengthAdjust="spacing" textLength="335" x="27" y="380.292">ListCatalogBrandsResponse(correlationId : Guid)</text><ellipse cx="18" cy="393.2422" fill="#84BE84" rx="3" ry="3" style="stroke:#038048;stroke-width:1.0;"/><text fill="#000000" font-family="sans-serif" font-size="14" lengthAdjust="spacing" textLength="205" x="27" y="396.5889">ListCatalogBrandsResponse()</text></g><!--reverse link BaseMessage to BaseResponse--><g id="link_BaseMessage_BaseResponse"><path codeLine="10" d="M204,125.1 C204,138.73 204,152.61 204,164.88 " fill="none" id="BaseMessage-backto-BaseResponse" style="stroke:#181818;stroke-width:1.0;"/><polygon fill="none" points="197,125.14,204,105.14,211,125.14,197,125.14" style="stroke:#181818;stroke-width:1.0;"/></g><!--reverse link BaseResponse to ListCatalogBrandsResponse--><g id="link_BaseResponse_ListCatalogBrandsResponse"><path codeLine="21" d="M204,266.85 C204,280.07 204,293.9 204,306.55 " fill="none" id="BaseResponse-backto-ListCatalogBrandsResponse" style="stroke:#181818;stroke-width:1.0;"/><polygon fill="none" points="197,267.16,204,247.16,211,267.16,197,267.16" style="stroke:#181818;stroke-width:1.0;"/></g><!--reverse link ListCatalogBrandsResponse to CatalogBrandDto--><g id="link_ListCatalogBrandsResponse_CatalogBrandDto"><path codeLine="22" d="M204,418.22 C204,438.73 204,461.24 204,480.55 " fill="none" id="ListCatalogBrandsResponse-backto-CatalogBrandDto" style="stroke:#181818;stroke-width:1.0;"/><polygon fill="#181818" points="204,405.41,200,411.41,204,417.41,208,411.41,204,405.41" style="stroke:#181818;stroke-width:1.0;"/><text fill="#000000" font-family="sans-serif" font-size="13" lengthAdjust="spacing" textLength="94" x="205" y="447.0669">CatalogBrands</text><text fill="#000000" font-family="sans-serif" font-size="13" lengthAdjust="spacing" textLength="7" x="196.5297" y="470.0477">*</text></g><!--SRC=[VL1B2i8m4Dtd58FTz4ClK4eNhI22kl02ChQX16eYdRXIxsxQIaq_CPk1lEyCNactM6ee6oI278aVEH7M7E39m3mFBgLgMzwW5ahkAqXWzn1LZqLGs90VsA1dk_a1UpDSXfqvtPMaCIsQ_FfhoS4QiREtowUlE9ums91PeCP6rNcBijfgzOljxONKaAOrrrbc9dNp2v_mnWt1z1UoTd1ctdsd8VKWIDieBTTsKlxUmAqALagHKNUATDOqMomq77DisL_JcSNSwuL6jmatYxCdqruV]--></g></svg>