<?xml version="1.0" encoding="us-ascii" standalone="no"?><svg xmlns="http://www.w3.org/2000/svg" xmlns:xlink="http://www.w3.org/1999/xlink" contentStyleType="text/css" height="529px" preserveAspectRatio="none" style="width:1010px;height:529px;background:#FFFFFF;" version="1.1" viewBox="0 0 1010 529" width="1010px" zoomAndPan="magnify"><defs/><g><!--class ToastLevel--><g id="elem_ToastLevel"><rect codeLine="1" fill="#F1F1F1" height="137.75" id="ToastLevel" rx="2.5" ry="2.5" style="stroke:#181818;stroke-width:0.5;" width="110" x="266" y="385"/><ellipse cx="282.8" cy="405.1328" fill="#EB937F" rx="11" ry="11" style="stroke:#181818;stroke-width:1.0;"/><path d="M286.9094,411.1328 L279.1906,411.1328 L279.1906,398.7422 L286.9094,398.7422 L286.9094,400.8984 L281.6438,400.8984 L281.6438,403.5703 L286.4094,403.5703 L286.4094,405.7266 L281.6438,405.7266 L281.6438,408.9766 L286.9094,408.9766 L286.9094,411.1328 Z " fill="#000000"/><text fill="#000000" font-family="sans-serif" font-size="12" font-style="italic" lengthAdjust="spacing" textLength="56" x="306.2" y="401.1387">&#171;sealed&#187;</text><text fill="#000000" font-family="sans-serif" font-size="14" lengthAdjust="spacing" textLength="74" x="297.2" y="416.9639">ToastLevel</text><line style="stroke:#181818;stroke-width:0.5;" x1="267" x2="375" y1="425.2656" y2="425.2656"/><text fill="#000000" font-family="sans-serif" font-size="14" lengthAdjust="spacing" textLength="54" x="272" y="442.2607">Info = 0</text><text fill="#000000" font-family="sans-serif" font-size="14" lengthAdjust="spacing" textLength="88" x="272" y="458.5576">Success = 1</text><text fill="#000000" font-family="sans-serif" font-size="14" lengthAdjust="spacing" textLength="85" x="272" y="474.8545">Warning = 2</text><text fill="#000000" font-family="sans-serif" font-size="14" lengthAdjust="spacing" textLength="62" x="272" y="491.1514">Error = 3</text><line style="stroke:#181818;stroke-width:0.5;" x1="267" x2="375" y1="498.4531" y2="498.4531"/><ellipse cx="277" cy="512.1016" fill="#84BE84" rx="3" ry="3" style="stroke:#038048;stroke-width:1.0;"/><text fill="#000000" font-family="sans-serif" font-size="14" lengthAdjust="spacing" textLength="84" x="286" y="515.4482">ToastLevel()</text></g><!--class ToastService--><g id="elem_ToastService"><rect codeLine="8" fill="#F1F1F1" height="129.4844" id="ToastService" rx="2.5" ry="2.5" style="stroke:#181818;stroke-width:0.5;" width="396" x="123" y="196"/><ellipse cx="272.25" cy="212" fill="#ADD1B2" rx="11" ry="11" style="stroke:#181818;stroke-width:1.0;"/><path d="M275.2188,217.6406 Q274.6406,217.9375 274,218.0781 Q273.3594,218.2344 272.6563,218.2344 Q270.1563,218.2344 268.8281,216.5938 Q267.5156,214.9375 267.5156,211.8125 Q267.5156,208.6875 268.8281,207.0313 Q270.1563,205.375 272.6563,205.375 Q273.3594,205.375 274,205.5313 Q274.6563,205.6875 275.2188,205.9844 L275.2188,208.7031 Q274.5938,208.125 274,207.8594 Q273.4063,207.5781 272.7813,207.5781 Q271.4375,207.5781 270.75,208.6563 Q270.0625,209.7188 270.0625,211.8125 Q270.0625,213.9063 270.75,214.9844 Q271.4375,216.0469 272.7813,216.0469 Q273.4063,216.0469 274,215.7813 Q274.5938,215.5 275.2188,214.9219 L275.2188,217.6406 Z " fill="#000000"/><text fill="#000000" font-family="sans-serif" font-size="14" lengthAdjust="spacing" textLength="89" x="292.75" y="216.8467">ToastService</text><line style="stroke:#181818;stroke-width:0.5;" x1="124" x2="518" y1="228" y2="228"/><ellipse cx="134" cy="241.6484" fill="none" rx="3" ry="3" style="stroke:#038048;stroke-width:1.0;"/><text fill="#000000" font-family="sans-serif" font-size="14" lengthAdjust="spacing" textLength="320" x="143" y="244.9951">&#171;event&#187; OnShow : Action&lt;string, ToastLevel&gt;</text><ellipse cx="134" cy="257.9453" fill="none" rx="3" ry="3" style="stroke:#038048;stroke-width:1.0;"/><text fill="#000000" font-family="sans-serif" font-size="14" lengthAdjust="spacing" textLength="168" x="143" y="261.292">&#171;event&#187; OnHide : Action</text><line style="stroke:#181818;stroke-width:0.5;" x1="124" x2="518" y1="268.5938" y2="268.5938"/><ellipse cx="134" cy="282.2422" fill="#84BE84" rx="3" ry="3" style="stroke:#038048;stroke-width:1.0;"/><text fill="#000000" font-family="sans-serif" font-size="14" lengthAdjust="spacing" textLength="370" x="143" y="285.5889">ShowToast(message : string, level : ToastLevel) : void</text><ellipse cx="134" cy="298.5391" fill="#84BE84" rx="3" ry="3" style="stroke:#038048;stroke-width:1.0;"/><text fill="#000000" font-family="sans-serif" font-size="14" lengthAdjust="spacing" textLength="108" x="143" y="301.8857">Dispose() : void</text><ellipse cx="134" cy="314.8359" fill="#84BE84" rx="3" ry="3" style="stroke:#038048;stroke-width:1.0;"/><text fill="#000000" font-family="sans-serif" font-size="14" lengthAdjust="spacing" textLength="99" x="143" y="318.1826">ToastService()</text></g><!--class IDisposable--><g id="elem_IDisposable"><rect fill="#F1F1F1" height="48" id="IDisposable" rx="2.5" ry="2.5" style="stroke:#181818;stroke-width:0.5;" width="112" x="7" y="47.5"/><ellipse cx="22" cy="63.5" fill="#ADD1B2" rx="11" ry="11" style="stroke:#181818;stroke-width:1.0;"/><path d="M24.9688,69.1406 Q24.3906,69.4375 23.75,69.5781 Q23.1094,69.7344 22.4063,69.7344 Q19.9063,69.7344 18.5781,68.0938 Q17.2656,66.4375 17.2656,63.3125 Q17.2656,60.1875 18.5781,58.5313 Q19.9063,56.875 22.4063,56.875 Q23.1094,56.875 23.75,57.0313 Q24.4063,57.1875 24.9688,57.4844 L24.9688,60.2031 Q24.3438,59.625 23.75,59.3594 Q23.1563,59.0781 22.5313,59.0781 Q21.1875,59.0781 20.5,60.1563 Q19.8125,61.2188 19.8125,63.3125 Q19.8125,65.4063 20.5,66.4844 Q21.1875,67.5469 22.5313,67.5469 Q23.1563,67.5469 23.75,67.2813 Q24.3438,67 24.9688,66.4219 L24.9688,69.1406 Z " fill="#000000"/><text fill="#000000" font-family="sans-serif" font-size="14" lengthAdjust="spacing" textLength="80" x="36" y="68.3467">IDisposable</text><line style="stroke:#181818;stroke-width:0.5;" x1="8" x2="118" y1="79.5" y2="79.5"/><line style="stroke:#181818;stroke-width:0.5;" x1="8" x2="118" y1="87.5" y2="87.5"/></g><!--class HttpService--><g id="elem_HttpService"><rect codeLine="17" fill="#F1F1F1" height="129.4844" id="HttpService" rx="2.5" ry="2.5" style="stroke:#181818;stroke-width:0.5;" width="849" x="154.5" y="7"/><ellipse cx="535.25" cy="23" fill="#ADD1B2" rx="11" ry="11" style="stroke:#181818;stroke-width:1.0;"/><path d="M538.2188,28.6406 Q537.6406,28.9375 537,29.0781 Q536.3594,29.2344 535.6563,29.2344 Q533.1563,29.2344 531.8281,27.5938 Q530.5156,25.9375 530.5156,22.8125 Q530.5156,19.6875 531.8281,18.0313 Q533.1563,16.375 535.6563,16.375 Q536.3594,16.375 537,16.5313 Q537.6563,16.6875 538.2188,16.9844 L538.2188,19.7031 Q537.5938,19.125 537,18.8594 Q536.4063,18.5781 535.7813,18.5781 Q534.4375,18.5781 533.75,19.6563 Q533.0625,20.7188 533.0625,22.8125 Q533.0625,24.9063 533.75,25.9844 Q534.4375,27.0469 535.7813,27.0469 Q536.4063,27.0469 537,26.7813 Q537.5938,26.5 538.2188,25.9219 L538.2188,28.6406 Z " fill="#000000"/><text fill="#000000" font-family="sans-serif" font-size="14" lengthAdjust="spacing" textLength="79" x="555.75" y="27.8467">HttpService</text><line style="stroke:#181818;stroke-width:0.5;" x1="155.5" x2="1002.5" y1="39" y2="39"/><line style="stroke:#181818;stroke-width:0.5;" x1="155.5" x2="1002.5" y1="47" y2="47"/><ellipse cx="165.5" cy="60.6484" fill="#84BE84" rx="3" ry="3" style="stroke:#038048;stroke-width:1.0;"/><text fill="#000000" font-family="sans-serif" font-size="14" lengthAdjust="spacing" textLength="823" x="174.5" y="63.9951">HttpService(httpClient : HttpClient, baseUrlConfiguration : IOptions&lt;BaseUrlConfiguration&gt;, toastService : ToastService)</text><ellipse cx="165.5" cy="76.9453" fill="#84BE84" rx="3" ry="3" style="stroke:#038048;stroke-width:1.0;"/><text fill="#000000" font-family="sans-serif" font-size="14" lengthAdjust="spacing" textLength="307" x="174.5" y="80.292">&#171;async&#187; HttpGet&lt;T&gt;(uri : string) : Task&lt;T&gt;</text><ellipse cx="165.5" cy="93.2422" fill="#84BE84" rx="3" ry="3" style="stroke:#038048;stroke-width:1.0;"/><text fill="#000000" font-family="sans-serif" font-size="14" lengthAdjust="spacing" textLength="378" x="174.5" y="96.5889">&#171;async&#187; HttpDelete&lt;T&gt;(uri : string, id : int) : Task&lt;T&gt;</text><ellipse cx="165.5" cy="109.5391" fill="#84BE84" rx="3" ry="3" style="stroke:#038048;stroke-width:1.0;"/><text fill="#000000" font-family="sans-serif" font-size="14" lengthAdjust="spacing" textLength="461" x="174.5" y="112.8857">&#171;async&#187; HttpPost&lt;T&gt;(uri : string, dataToSend : object) : Task&lt;T&gt;</text><ellipse cx="165.5" cy="125.8359" fill="#84BE84" rx="3" ry="3" style="stroke:#038048;stroke-width:1.0;"/><text fill="#000000" font-family="sans-serif" font-size="14" lengthAdjust="spacing" textLength="453" x="174.5" y="129.1826">&#171;async&#187; HttpPut&lt;T&gt;(uri : string, dataToSend : object) : Task&lt;T&gt;</text></g><!--reverse link IDisposable to ToastService--><g id="link_IDisposable_ToastService"><path codeLine="15" d="M104.27,109.41 C114.75,118.36 126.12,127.73 137,136 C163.64,156.26 193.43,177.01 221.14,195.58 " fill="none" id="IDisposable-backto-ToastService" style="stroke:#181818;stroke-width:1.0;stroke-dasharray:7.0,7.0;"/><polygon fill="none" points="100.24,114.31,89.75,95.9,109.43,103.75,100.24,114.31" style="stroke:#181818;stroke-width:1.0;"/></g><!--link ToastService to ToastLevel--><g id="link_ToastService_ToastLevel"><path codeLine="16" d="M321,325.27 C321,342.37 321,361.02 321,378.65 " fill="none" id="ToastService-to-ToastLevel" style="stroke:#181818;stroke-width:1.0;stroke-dasharray:7.0,7.0;"/><polygon fill="#181818" points="321,383.58,325,374.58,321,378.58,317,374.58,321,383.58" style="stroke:#181818;stroke-width:1.0;"/></g><!--link HttpService to ToastService--><g id="link_HttpService_ToastService"><path codeLine="24" d="M490.93,136.33 C466.06,154.36 438.92,174.03 413.78,192.25 " fill="none" id="HttpService-to-ToastService" style="stroke:#181818;stroke-width:1.0;stroke-dasharray:7.0,7.0;"/><polygon fill="#181818" points="410.11,195.64,419.7452,193.5996,414.1592,192.7068,415.0521,187.1209,410.11,195.64" style="stroke:#181818;stroke-width:1.0;"/></g><!--SRC=[bL7BQiCm4BpxAtHqY35zt89hQ9DI1mefsALdMTuaQXKfI79AQVFlNQcEaPD0g4wQrSxCxWXako6LeiO-mmu4oJ83L42JvuHyHmJFN2uLkIDN7fGjOs0CuckFtwYMNAuGttZygBNIY6uz6WVAyIZQHqnG9FjY2Nh76HnSnkYCRTAYyKAMQ_L99kIUMQvaPgn6ZoGGoyzm2jv0p-dUdOvdnHkScgvSmq5D-7qdWUe8qKxnfYFFkDag0_5HEPpUBpN_QwIr09BzfEcW8neicwPvuDV5KLYxFKaZACPhl4y5nqLnag872QcfWLSjfaek-QhLr6sEBVF5rjrCzd3cFK-83KUQ3COTzS5IyoKP1klydi1cLHwtclVvkL0gQZwmVfOo0m4MZba9uGq2Bkqb_eiozfJTK4ihLO9qAgf-1tPPgFs_pZuA_wJ_jAxm2m00]--></g></svg>