<?xml version="1.0" encoding="us-ascii" standalone="no"?><svg xmlns="http://www.w3.org/2000/svg" xmlns:xlink="http://www.w3.org/1999/xlink" contentStyleType="text/css" height="666px" preserveAspectRatio="none" style="width:387px;height:666px;background:#FFFFFF;" version="1.1" viewBox="0 0 387 666" width="387px" zoomAndPan="magnify"><defs/><g><!--class BaseMessage--><g id="elem_BaseMessage"><rect codeLine="1" fill="#F1F1F1" height="96.8906" id="BaseMessage" rx="2.5" ry="2.5" style="stroke:#181818;stroke-width:0.5;" width="168" x="109.5" y="7"/><ellipse cx="141.6" cy="23" fill="#A9DCDF" rx="11" ry="11" style="stroke:#181818;stroke-width:1.0;"/><path d="M141.7094,18.3438 L140.5531,23.4219 L142.8813,23.4219 L141.7094,18.3438 Z M140.225,16.1094 L143.2094,16.1094 L146.5688,28.5 L144.1156,28.5 L143.35,25.4375 L140.0688,25.4375 L139.3188,28.5 L136.8813,28.5 L140.225,16.1094 Z " fill="#000000"/><text fill="#000000" font-family="sans-serif" font-size="14" font-style="italic" lengthAdjust="spacing" textLength="98" x="159.4" y="27.8467">BaseMessage</text><line style="stroke:#181818;stroke-width:0.5;" x1="110.5" x2="276.5" y1="39" y2="39"/><polygon fill="none" points="120.5,47.6484,124.5,51.6484,120.5,55.6484,116.5,51.6484" style="stroke:#B38D22;stroke-width:1.0;"/><text fill="#000000" font-family="sans-serif" font-size="14" lengthAdjust="spacing" textLength="137" x="129.5" y="55.9951">_correlationId : Guid</text><line style="stroke:#181818;stroke-width:0.5;" x1="110.5" x2="276.5" y1="63.2969" y2="63.2969"/><ellipse cx="120.5" cy="76.9453" fill="#84BE84" rx="3" ry="3" style="stroke:#038048;stroke-width:1.0;"/><text fill="#000000" font-family="sans-serif" font-size="14" lengthAdjust="spacing" textLength="142" x="129.5" y="80.292">CorrelationId() : Guid</text><polygon fill="#FFFF44" points="120.5,88.2422,124.5,92.2422,120.5,96.2422,116.5,92.2422" style="stroke:#B38D22;stroke-width:1.0;"/><text fill="#000000" font-family="sans-serif" font-size="14" lengthAdjust="spacing" textLength="108" x="129.5" y="96.5889">BaseMessage()</text></g><!--class BaseResponse--><g id="elem_BaseResponse"><rect codeLine="6" fill="#F1F1F1" height="80.5938" id="BaseResponse" rx="2.5" ry="2.5" style="stroke:#181818;stroke-width:0.5;" width="272" x="57.5" y="165"/><ellipse cx="136.25" cy="181" fill="#A9DCDF" rx="11" ry="11" style="stroke:#181818;stroke-width:1.0;"/><path d="M136.3594,176.3438 L135.2031,181.4219 L137.5313,181.4219 L136.3594,176.3438 Z M134.875,174.1094 L137.8594,174.1094 L141.2188,186.5 L138.7656,186.5 L138,183.4375 L134.7188,183.4375 L133.9688,186.5 L131.5313,186.5 L134.875,174.1094 Z " fill="#000000"/><text fill="#000000" font-family="sans-serif" font-size="14" font-style="italic" lengthAdjust="spacing" textLength="106" x="156.75" y="185.8467">BaseResponse</text><line style="stroke:#181818;stroke-width:0.5;" x1="58.5" x2="328.5" y1="197" y2="197"/><line style="stroke:#181818;stroke-width:0.5;" x1="58.5" x2="328.5" y1="205" y2="205"/><ellipse cx="68.5" cy="218.6484" fill="#84BE84" rx="3" ry="3" style="stroke:#038048;stroke-width:1.0;"/><text fill="#000000" font-family="sans-serif" font-size="14" lengthAdjust="spacing" textLength="246" x="77.5" y="221.9951">BaseResponse(correlationId : Guid)</text><ellipse cx="68.5" cy="234.9453" fill="#84BE84" rx="3" ry="3" style="stroke:#038048;stroke-width:1.0;"/><text fill="#000000" font-family="sans-serif" font-size="14" lengthAdjust="spacing" textLength="116" x="77.5" y="238.292">BaseResponse()</text></g><!--class CatalogItemDto--><g id="elem_CatalogItemDto"><rect codeLine="11" fill="#F1F1F1" height="178.375" id="CatalogItemDto" rx="2.5" ry="2.5" style="stroke:#181818;stroke-width:0.5;" width="250" x="68.5" y="481"/><ellipse cx="135.75" cy="497" fill="#ADD1B2" rx="11" ry="11" style="stroke:#181818;stroke-width:1.0;"/><path d="M138.7188,502.6406 Q138.1406,502.9375 137.5,503.0781 Q136.8594,503.2344 136.1563,503.2344 Q133.6563,503.2344 132.3281,501.5938 Q131.0156,499.9375 131.0156,496.8125 Q131.0156,493.6875 132.3281,492.0313 Q133.6563,490.375 136.1563,490.375 Q136.8594,490.375 137.5,490.5313 Q138.1563,490.6875 138.7188,490.9844 L138.7188,493.7031 Q138.0938,493.125 137.5,492.8594 Q136.9063,492.5781 136.2813,492.5781 Q134.9375,492.5781 134.25,493.6563 Q133.5625,494.7188 133.5625,496.8125 Q133.5625,498.9063 134.25,499.9844 Q134.9375,501.0469 136.2813,501.0469 Q136.9063,501.0469 137.5,500.7813 Q138.0938,500.5 138.7188,499.9219 L138.7188,502.6406 Z " fill="#000000"/><text fill="#000000" font-family="sans-serif" font-size="14" lengthAdjust="spacing" textLength="107" x="156.25" y="501.8467">CatalogItemDto</text><line style="stroke:#181818;stroke-width:0.5;" x1="69.5" x2="317.5" y1="513" y2="513"/><ellipse cx="79.5" cy="526.6484" fill="none" rx="3" ry="3" style="stroke:#038048;stroke-width:1.0;"/><text fill="#000000" font-family="sans-serif" font-size="14" lengthAdjust="spacing" textLength="131" x="88.5" y="529.9951">Id : int &#171;get&#187; &#171;set&#187;</text><ellipse cx="79.5" cy="542.9453" fill="none" rx="3" ry="3" style="stroke:#038048;stroke-width:1.0;"/><text fill="#000000" font-family="sans-serif" font-size="14" lengthAdjust="spacing" textLength="181" x="88.5" y="546.292">Name : string &#171;get&#187; &#171;set&#187;</text><ellipse cx="79.5" cy="559.2422" fill="none" rx="3" ry="3" style="stroke:#038048;stroke-width:1.0;"/><text fill="#000000" font-family="sans-serif" font-size="14" lengthAdjust="spacing" textLength="220" x="88.5" y="562.5889">Description : string &#171;get&#187; &#171;set&#187;</text><ellipse cx="79.5" cy="575.5391" fill="none" rx="3" ry="3" style="stroke:#038048;stroke-width:1.0;"/><text fill="#000000" font-family="sans-serif" font-size="14" lengthAdjust="spacing" textLength="189" x="88.5" y="578.8857">Price : decimal &#171;get&#187; &#171;set&#187;</text><ellipse cx="79.5" cy="591.8359" fill="none" rx="3" ry="3" style="stroke:#038048;stroke-width:1.0;"/><text fill="#000000" font-family="sans-serif" font-size="14" lengthAdjust="spacing" textLength="207" x="88.5" y="595.1826">PictureUri : string &#171;get&#187; &#171;set&#187;</text><ellipse cx="79.5" cy="608.1328" fill="none" rx="3" ry="3" style="stroke:#038048;stroke-width:1.0;"/><text fill="#000000" font-family="sans-serif" font-size="14" lengthAdjust="spacing" textLength="217" x="88.5" y="611.4795">CatalogTypeId : int &#171;get&#187; &#171;set&#187;</text><ellipse cx="79.5" cy="624.4297" fill="none" rx="3" ry="3" style="stroke:#038048;stroke-width:1.0;"/><text fill="#000000" font-family="sans-serif" font-size="14" lengthAdjust="spacing" textLength="224" x="88.5" y="627.7764">CatalogBrandId : int &#171;get&#187; &#171;set&#187;</text><line style="stroke:#181818;stroke-width:0.5;" x1="69.5" x2="317.5" y1="635.0781" y2="635.0781"/><ellipse cx="79.5" cy="648.7266" fill="#84BE84" rx="3" ry="3" style="stroke:#038048;stroke-width:1.0;"/><text fill="#000000" font-family="sans-serif" font-size="14" lengthAdjust="spacing" textLength="117" x="88.5" y="652.0732">CatalogItemDto()</text></g><!--class GetByIdCatalogItemResponse--><g id="elem_GetByIdCatalogItemResponse"><rect codeLine="21" fill="#F1F1F1" height="96.8906" id="GetByIdCatalogItemResponse" rx="2.5" ry="2.5" style="stroke:#181818;stroke-width:0.5;" width="373" x="7" y="307"/><ellipse cx="85.75" cy="323" fill="#ADD1B2" rx="11" ry="11" style="stroke:#181818;stroke-width:1.0;"/><path d="M88.7188,328.6406 Q88.1406,328.9375 87.5,329.0781 Q86.8594,329.2344 86.1563,329.2344 Q83.6563,329.2344 82.3281,327.5938 Q81.0156,325.9375 81.0156,322.8125 Q81.0156,319.6875 82.3281,318.0313 Q83.6563,316.375 86.1563,316.375 Q86.8594,316.375 87.5,316.5313 Q88.1563,316.6875 88.7188,316.9844 L88.7188,319.7031 Q88.0938,319.125 87.5,318.8594 Q86.9063,318.5781 86.2813,318.5781 Q84.9375,318.5781 84.25,319.6563 Q83.5625,320.7188 83.5625,322.8125 Q83.5625,324.9063 84.25,325.9844 Q84.9375,327.0469 86.2813,327.0469 Q86.9063,327.0469 87.5,326.7813 Q88.0938,326.5 88.7188,325.9219 L88.7188,328.6406 Z " fill="#000000"/><text fill="#000000" font-family="sans-serif" font-size="14" lengthAdjust="spacing" textLength="207" x="106.25" y="327.8467">GetByIdCatalogItemResponse</text><line style="stroke:#181818;stroke-width:0.5;" x1="8" x2="379" y1="339" y2="339"/><ellipse cx="18" cy="352.6484" fill="none" rx="3" ry="3" style="stroke:#038048;stroke-width:1.0;"/><text fill="#000000" font-family="sans-serif" font-size="14" lengthAdjust="spacing" textLength="291" x="27" y="355.9951">CatalogItem : CatalogItemDto &#171;get&#187; &#171;set&#187;</text><line style="stroke:#181818;stroke-width:0.5;" x1="8" x2="379" y1="363.2969" y2="363.2969"/><ellipse cx="18" cy="376.9453" fill="#84BE84" rx="3" ry="3" style="stroke:#038048;stroke-width:1.0;"/><text fill="#000000" font-family="sans-serif" font-size="14" lengthAdjust="spacing" textLength="347" x="27" y="380.292">GetByIdCatalogItemResponse(correlationId : Guid)</text><ellipse cx="18" cy="393.2422" fill="#84BE84" rx="3" ry="3" style="stroke:#038048;stroke-width:1.0;"/><text fill="#000000" font-family="sans-serif" font-size="14" lengthAdjust="spacing" textLength="217" x="27" y="396.5889">GetByIdCatalogItemResponse()</text></g><!--reverse link BaseMessage to BaseResponse--><g id="link_BaseMessage_BaseResponse"><path codeLine="10" d="M193.5,125.1 C193.5,138.73 193.5,152.61 193.5,164.88 " fill="none" id="BaseMessage-backto-BaseResponse" style="stroke:#181818;stroke-width:1.0;"/><polygon fill="none" points="186.5,125.14,193.5,105.14,200.5,125.14,186.5,125.14" style="stroke:#181818;stroke-width:1.0;"/></g><!--reverse link BaseResponse to GetByIdCatalogItemResponse--><g id="link_BaseResponse_GetByIdCatalogItemResponse"><path codeLine="26" d="M193.5,266.85 C193.5,280.07 193.5,293.9 193.5,306.55 " fill="none" id="BaseResponse-backto-GetByIdCatalogItemResponse" style="stroke:#181818;stroke-width:1.0;"/><polygon fill="none" points="186.5,267.16,193.5,247.16,200.5,267.16,186.5,267.16" style="stroke:#181818;stroke-width:1.0;"/></g><!--reverse link GetByIdCatalogItemResponse to CatalogItemDto--><g id="link_GetByIdCatalogItemResponse_CatalogItemDto"><path codeLine="27" d="M193.5,418.18 C193.5,437.7 193.5,459.66 193.5,480.66 " fill="none" id="GetByIdCatalogItemResponse-backto-CatalogItemDto" style="stroke:#181818;stroke-width:1.0;"/><polygon fill="none" points="193.5,405.45,189.5,411.45,193.5,417.45,197.5,411.45,193.5,405.45" style="stroke:#181818;stroke-width:1.0;"/><text fill="#000000" font-family="sans-serif" font-size="13" lengthAdjust="spacing" textLength="78" x="194.5" y="447.0669">CatalogItem</text></g><!--SRC=[ZLBBQiCm4BphAnPoiGdvWM9oS0B1XvHIsdFPIeiHs9AHDeUGzDyhFqZzYEtg8j3Cpipk2hyzEvGCia3l8KLFP_8USmAu2GXd0r_IEaS5ihOcK_02fujM3RQ5Gn-AuZwuwQj5iVWHE3Lx9rzPunzksy5hzCmvVaQivVlXa_jkDs28rlE0Z8NDCwRooFRFjL7NXY59SkBzFjo-lZlu5KiAX11Vcto6SoGldQxgh6lKDwTbhQT8wXABEPQMV77qwVIQNjVLnxMYbKOwPkhGgFzHkr4r4svdU29EhvdguTCjpdCMTxfG5azZXUBHFiUTj9_Y4Q_v5VCUOg4p6of7PWFtNm00]--></g></svg>