<?xml version="1.0" encoding="us-ascii" standalone="no"?><svg xmlns="http://www.w3.org/2000/svg" xmlns:xlink="http://www.w3.org/1999/xlink" contentStyleType="text/css" height="202px" preserveAspectRatio="none" style="width:532px;height:202px;background:#FFFFFF;" version="1.1" viewBox="0 0 532 202" width="532px" zoomAndPan="magnify"><defs/><g><!--class EmailSender--><g id="elem_EmailSender"><rect codeLine="1" fill="#F1F1F1" height="80.5938" id="EmailSender" rx="2.5" ry="2.5" style="stroke:#181818;stroke-width:0.5;" width="518" x="7" y="115"/><ellipse cx="218.75" cy="131" fill="#ADD1B2" rx="11" ry="11" style="stroke:#181818;stroke-width:1.0;"/><path d="M221.7188,136.6406 Q221.1406,136.9375 220.5,137.0781 Q219.8594,137.2344 219.1563,137.2344 Q216.6563,137.2344 215.3281,135.5938 Q214.0156,133.9375 214.0156,130.8125 Q214.0156,127.6875 215.3281,126.0313 Q216.6563,124.375 219.1563,124.375 Q219.8594,124.375 220.5,124.5313 Q221.1563,124.6875 221.7188,124.9844 L221.7188,127.7031 Q221.0938,127.125 220.5,126.8594 Q219.9063,126.5781 219.2813,126.5781 Q217.9375,126.5781 217.25,127.6563 Q216.5625,128.7188 216.5625,130.8125 Q216.5625,132.9063 217.25,133.9844 Q217.9375,135.0469 219.2813,135.0469 Q219.9063,135.0469 220.5,134.7813 Q221.0938,134.5 221.7188,133.9219 L221.7188,136.6406 Z " fill="#000000"/><text fill="#000000" font-family="sans-serif" font-size="14" lengthAdjust="spacing" textLength="86" x="239.25" y="135.8467">EmailSender</text><line style="stroke:#181818;stroke-width:0.5;" x1="8" x2="524" y1="147" y2="147"/><line style="stroke:#181818;stroke-width:0.5;" x1="8" x2="524" y1="155" y2="155"/><ellipse cx="18" cy="168.6484" fill="#84BE84" rx="3" ry="3" style="stroke:#038048;stroke-width:1.0;"/><text fill="#000000" font-family="sans-serif" font-size="14" lengthAdjust="spacing" textLength="492" x="27" y="171.9951">SendEmailAsync(email : string, subject : string, message : string) : Task</text><ellipse cx="18" cy="184.9453" fill="#84BE84" rx="3" ry="3" style="stroke:#038048;stroke-width:1.0;"/><text fill="#000000" font-family="sans-serif" font-size="14" lengthAdjust="spacing" textLength="96" x="27" y="188.292">EmailSender()</text></g><!--class IEmailSender--><g id="elem_IEmailSender"><rect fill="#F1F1F1" height="48" id="IEmailSender" rx="2.5" ry="2.5" style="stroke:#181818;stroke-width:0.5;" width="121" x="205.5" y="7"/><ellipse cx="220.5" cy="23" fill="#ADD1B2" rx="11" ry="11" style="stroke:#181818;stroke-width:1.0;"/><path d="M223.4688,28.6406 Q222.8906,28.9375 222.25,29.0781 Q221.6094,29.2344 220.9063,29.2344 Q218.4063,29.2344 217.0781,27.5938 Q215.7656,25.9375 215.7656,22.8125 Q215.7656,19.6875 217.0781,18.0313 Q218.4063,16.375 220.9063,16.375 Q221.6094,16.375 222.25,16.5313 Q222.9063,16.6875 223.4688,16.9844 L223.4688,19.7031 Q222.8438,19.125 222.25,18.8594 Q221.6563,18.5781 221.0313,18.5781 Q219.6875,18.5781 219,19.6563 Q218.3125,20.7188 218.3125,22.8125 Q218.3125,24.9063 219,25.9844 Q219.6875,27.0469 221.0313,27.0469 Q221.6563,27.0469 222.25,26.7813 Q222.8438,26.5 223.4688,25.9219 L223.4688,28.6406 Z " fill="#000000"/><text fill="#000000" font-family="sans-serif" font-size="14" lengthAdjust="spacing" textLength="89" x="234.5" y="27.8467">IEmailSender</text><line style="stroke:#181818;stroke-width:0.5;" x1="206.5" x2="325.5" y1="39" y2="39"/><line style="stroke:#181818;stroke-width:0.5;" x1="206.5" x2="325.5" y1="47" y2="47"/></g><!--reverse link IEmailSender to EmailSender--><g id="link_IEmailSender_EmailSender"><path codeLine="5" d="M266,75.89 C266,88.61 266,102.42 266,114.87 " fill="none" id="IEmailSender-backto-EmailSender" style="stroke:#181818;stroke-width:1.0;stroke-dasharray:7.0,7.0;"/><polygon fill="none" points="259,76.33,266,56.33,273,76.33,259,76.33" style="stroke:#181818;stroke-width:1.0;"/></g><!--SRC=[Iyv9B2vMSCrDpCm9JirBIIrIKAZcKW02RGKG7opXM5oPbwoH2c8gM2aKbnHbvgNhA1IN9cMb9fSWYUIc5XSdfgV2HJI1h934ucoeUKYMQ6XorN9v8jjgKwEdXwm20000]--></g></svg>