<?xml version="1.0" encoding="us-ascii" standalone="no"?><svg xmlns="http://www.w3.org/2000/svg" xmlns:xlink="http://www.w3.org/1999/xlink" contentStyleType="text/css" height="359px" preserveAspectRatio="none" style="width:738px;height:359px;background:#FFFFFF;" version="1.1" viewBox="0 0 738 359" width="738px" zoomAndPan="magnify"><defs/><g><!--class IBasketViewModelService--><g id="elem_IBasketViewModelService"><rect codeLine="1" fill="#F1F1F1" height="96.8906" id="IBasketViewModelService" rx="2.5" ry="2.5" style="stroke:#181818;stroke-width:0.5;" width="540" x="99" y="256"/><ellipse cx="277.25" cy="272" fill="#B4A7E5" rx="11" ry="11" style="stroke:#181818;stroke-width:1.0;"/><path d="M273.1719,267.7656 L273.1719,265.6094 L280.5625,265.6094 L280.5625,267.7656 L278.0938,267.7656 L278.0938,275.8438 L280.5625,275.8438 L280.5625,278 L273.1719,278 L273.1719,275.8438 L275.6406,275.8438 L275.6406,267.7656 L273.1719,267.7656 Z " fill="#000000"/><text fill="#000000" font-family="sans-serif" font-size="14" font-style="italic" lengthAdjust="spacing" textLength="175" x="297.75" y="276.8467">IBasketViewModelService</text><line style="stroke:#181818;stroke-width:0.5;" x1="100" x2="638" y1="288" y2="288"/><line style="stroke:#181818;stroke-width:0.5;" x1="100" x2="638" y1="296" y2="296"/><ellipse cx="110" cy="309.6484" fill="#84BE84" rx="3" ry="3" style="stroke:#038048;stroke-width:1.0;"/><text fill="#000000" font-family="sans-serif" font-size="14" lengthAdjust="spacing" textLength="514" x="119" y="312.9951">GetOrCreateBasketForUser(userName : string) : Task&lt;BasketViewModel&gt;</text><ellipse cx="110" cy="325.9453" fill="#84BE84" rx="3" ry="3" style="stroke:#038048;stroke-width:1.0;"/><text fill="#000000" font-family="sans-serif" font-size="14" lengthAdjust="spacing" textLength="381" x="119" y="329.292">CountTotalBasketItems(username : string) : Task&lt;int&gt;</text><ellipse cx="110" cy="342.2422" fill="#84BE84" rx="3" ry="3" style="stroke:#038048;stroke-width:1.0;"/><text fill="#000000" font-family="sans-serif" font-size="14" lengthAdjust="spacing" textLength="339" x="119" y="345.5889">Map(basket : Basket) : Task&lt;BasketViewModel&gt;</text></g><!--class Basket--><g id="elem_Basket"><rect codeLine="6" fill="#F1F1F1" height="80.5938" id="Basket" rx="2.5" ry="2.5" style="stroke:#181818;stroke-width:0.5;" width="724" x="7" y="115"/><ellipse cx="340.75" cy="131" fill="#ADD1B2" rx="11" ry="11" style="stroke:#181818;stroke-width:1.0;"/><path d="M343.7188,136.6406 Q343.1406,136.9375 342.5,137.0781 Q341.8594,137.2344 341.1563,137.2344 Q338.6563,137.2344 337.3281,135.5938 Q336.0156,133.9375 336.0156,130.8125 Q336.0156,127.6875 337.3281,126.0313 Q338.6563,124.375 341.1563,124.375 Q341.8594,124.375 342.5,124.5313 Q343.1563,124.6875 343.7188,124.9844 L343.7188,127.7031 Q343.0938,127.125 342.5,126.8594 Q341.9063,126.5781 341.2813,126.5781 Q339.9375,126.5781 339.25,127.6563 Q338.5625,128.7188 338.5625,130.8125 Q338.5625,132.9063 339.25,133.9844 Q339.9375,135.0469 341.2813,135.0469 Q341.9063,135.0469 342.5,134.7813 Q343.0938,134.5 343.7188,133.9219 L343.7188,136.6406 Z " fill="#000000"/><text fill="#000000" font-family="sans-serif" font-size="14" lengthAdjust="spacing" textLength="48" x="361.25" y="135.8467">Basket</text><line style="stroke:#181818;stroke-width:0.5;" x1="8" x2="730" y1="147" y2="147"/><line style="stroke:#181818;stroke-width:0.5;" x1="8" x2="730" y1="155" y2="155"/><ellipse cx="18" cy="168.6484" fill="#84BE84" rx="3" ry="3" style="stroke:#038048;stroke-width:1.0;"/><text fill="#000000" font-family="sans-serif" font-size="14" lengthAdjust="spacing" textLength="698" x="27" y="171.9951">Basket(basketService : IBasketViewModelService, signInManager : SignInManager&lt;ApplicationUser&gt;)</text><ellipse cx="18" cy="184.9453" fill="#84BE84" rx="3" ry="3" style="stroke:#038048;stroke-width:1.0;"/><text fill="#000000" font-family="sans-serif" font-size="14" lengthAdjust="spacing" textLength="389" x="27" y="188.292">&#171;async&#187; InvokeAsync() : Task&lt;IViewComponentResult&gt;</text></g><!--class ViewComponent--><g id="elem_ViewComponent"><rect fill="#F1F1F1" height="48" id="ViewComponent" rx="2.5" ry="2.5" style="stroke:#181818;stroke-width:0.5;" width="146" x="296" y="7"/><ellipse cx="311" cy="23" fill="#ADD1B2" rx="11" ry="11" style="stroke:#181818;stroke-width:1.0;"/><path d="M313.9688,28.6406 Q313.3906,28.9375 312.75,29.0781 Q312.1094,29.2344 311.4063,29.2344 Q308.9063,29.2344 307.5781,27.5938 Q306.2656,25.9375 306.2656,22.8125 Q306.2656,19.6875 307.5781,18.0313 Q308.9063,16.375 311.4063,16.375 Q312.1094,16.375 312.75,16.5313 Q313.4063,16.6875 313.9688,16.9844 L313.9688,19.7031 Q313.3438,19.125 312.75,18.8594 Q312.1563,18.5781 311.5313,18.5781 Q310.1875,18.5781 309.5,19.6563 Q308.8125,20.7188 308.8125,22.8125 Q308.8125,24.9063 309.5,25.9844 Q310.1875,27.0469 311.5313,27.0469 Q312.1563,27.0469 312.75,26.7813 Q313.3438,26.5 313.9688,25.9219 L313.9688,28.6406 Z " fill="#000000"/><text fill="#000000" font-family="sans-serif" font-size="14" lengthAdjust="spacing" textLength="114" x="325" y="27.8467">ViewComponent</text><line style="stroke:#181818;stroke-width:0.5;" x1="297" x2="441" y1="39" y2="39"/><line style="stroke:#181818;stroke-width:0.5;" x1="297" x2="441" y1="47" y2="47"/></g><!--reverse link ViewComponent to Basket--><g id="link_ViewComponent_Basket"><path codeLine="10" d="M369,75.89 C369,88.61 369,102.42 369,114.87 " fill="none" id="ViewComponent-backto-Basket" style="stroke:#181818;stroke-width:1.0;"/><polygon fill="none" points="362,76.33,369,56.33,376,76.33,362,76.33" style="stroke:#181818;stroke-width:1.0;"/></g><!--link Basket to IBasketViewModelService--><g id="link_Basket_IBasketViewModelService"><path codeLine="11" d="M369,196.28 C369,212.7 369,232 369,249.66 " fill="none" id="Basket-to-IBasketViewModelService" style="stroke:#181818;stroke-width:1.0;stroke-dasharray:7.0,7.0;"/><polygon fill="#181818" points="369,254.58,373,245.58,369,249.58,365,245.58,369,254.58" style="stroke:#181818;stroke-width:1.0;"/></g><!--SRC=[TL3DJiCm3BxtANpi1Di3J56aKOafXuB41dTJJ1KjTQh47KB0kvEk6N-YEKIny_dxiMMXy8mDWRd2U21viFHI-oToEmf7c_hmLa0w5x0bkGrL81IQeDS-t4SAvP2k6-m8rX0bM6uNwRLF4FM7KcUcoWyiUo_e9e0HwkA9Xl-biIpdqHhxyl4qb3wdwNcrZw9n66F6VIUPwinpphcUsy0bHDkouHePMme9kFjPgqtVEzkWMC_ZElGYgoY5yPKRhS7mqHzeCrRbbripwbI-wpqJont5mSbe-LSRrFjocVqMESPgfUUiVW80]--></g></svg>