<?xml version="1.0" encoding="us-ascii" standalone="no"?><svg xmlns="http://www.w3.org/2000/svg" xmlns:xlink="http://www.w3.org/1999/xlink" contentStyleType="text/css" height="202px" preserveAspectRatio="none" style="width:694px;height:202px;background:#FFFFFF;" version="1.1" viewBox="0 0 694 202" width="694px" zoomAndPan="magnify"><defs/><g><!--class CustomAuthStateProvider--><g id="elem_CustomAuthStateProvider"><rect codeLine="1" fill="#F1F1F1" height="80.5938" id="CustomAuthStateProvider" rx="2.5" ry="2.5" style="stroke:#181818;stroke-width:0.5;" width="680" x="7" y="115"/><ellipse cx="253.75" cy="131" fill="#ADD1B2" rx="11" ry="11" style="stroke:#181818;stroke-width:1.0;"/><path d="M256.7188,136.6406 Q256.1406,136.9375 255.5,137.0781 Q254.8594,137.2344 254.1563,137.2344 Q251.6563,137.2344 250.3281,135.5938 Q249.0156,133.9375 249.0156,130.8125 Q249.0156,127.6875 250.3281,126.0313 Q251.6563,124.375 254.1563,124.375 Q254.8594,124.375 255.5,124.5313 Q256.1563,124.6875 256.7188,124.9844 L256.7188,127.7031 Q256.0938,127.125 255.5,126.8594 Q254.9063,126.5781 254.2813,126.5781 Q252.9375,126.5781 252.25,127.6563 Q251.5625,128.7188 251.5625,130.8125 Q251.5625,132.9063 252.25,133.9844 Q252.9375,135.0469 254.2813,135.0469 Q254.9063,135.0469 255.5,134.7813 Q256.0938,134.5 256.7188,133.9219 L256.7188,136.6406 Z " fill="#000000"/><text fill="#000000" font-family="sans-serif" font-size="14" lengthAdjust="spacing" textLength="178" x="274.25" y="135.8467">CustomAuthStateProvider</text><line style="stroke:#181818;stroke-width:0.5;" x1="8" x2="686" y1="147" y2="147"/><line style="stroke:#181818;stroke-width:0.5;" x1="8" x2="686" y1="155" y2="155"/><ellipse cx="18" cy="168.6484" fill="#84BE84" rx="3" ry="3" style="stroke:#038048;stroke-width:1.0;"/><text fill="#000000" font-family="sans-serif" font-size="14" lengthAdjust="spacing" textLength="654" x="27" y="171.9951">CustomAuthStateProvider(httpClient : HttpClient, logger : ILogger&lt;CustomAuthStateProvider&gt;)</text><ellipse cx="18" cy="184.9453" fill="#84BE84" rx="3" ry="3" style="stroke:#038048;stroke-width:1.0;"/><text fill="#000000" font-family="sans-serif" font-size="14" lengthAdjust="spacing" textLength="558" x="27" y="188.292">&#171;override&#187; &#171;async&#187; GetAuthenticationStateAsync() : Task&lt;AuthenticationState&gt;</text></g><!--class AuthenticationStateProvider--><g id="elem_AuthenticationStateProvider"><rect fill="#F1F1F1" height="48" id="AuthenticationStateProvider" rx="2.5" ry="2.5" style="stroke:#181818;stroke-width:0.5;" width="224" x="235" y="7"/><ellipse cx="250" cy="23" fill="#ADD1B2" rx="11" ry="11" style="stroke:#181818;stroke-width:1.0;"/><path d="M252.9688,28.6406 Q252.3906,28.9375 251.75,29.0781 Q251.1094,29.2344 250.4063,29.2344 Q247.9063,29.2344 246.5781,27.5938 Q245.2656,25.9375 245.2656,22.8125 Q245.2656,19.6875 246.5781,18.0313 Q247.9063,16.375 250.4063,16.375 Q251.1094,16.375 251.75,16.5313 Q252.4063,16.6875 252.9688,16.9844 L252.9688,19.7031 Q252.3438,19.125 251.75,18.8594 Q251.1563,18.5781 250.5313,18.5781 Q249.1875,18.5781 248.5,19.6563 Q247.8125,20.7188 247.8125,22.8125 Q247.8125,24.9063 248.5,25.9844 Q249.1875,27.0469 250.5313,27.0469 Q251.1563,27.0469 251.75,26.7813 Q252.3438,26.5 252.9688,25.9219 L252.9688,28.6406 Z " fill="#000000"/><text fill="#000000" font-family="sans-serif" font-size="14" lengthAdjust="spacing" textLength="192" x="264" y="27.8467">AuthenticationStateProvider</text><line style="stroke:#181818;stroke-width:0.5;" x1="236" x2="458" y1="39" y2="39"/><line style="stroke:#181818;stroke-width:0.5;" x1="236" x2="458" y1="47" y2="47"/></g><!--reverse link AuthenticationStateProvider to CustomAuthStateProvider--><g id="link_AuthenticationStateProvider_CustomAuthStateProvider"><path codeLine="5" d="M347,75.89 C347,88.61 347,102.42 347,114.87 " fill="none" id="AuthenticationStateProvider-backto-CustomAuthStateProvider" style="stroke:#181818;stroke-width:1.0;"/><polygon fill="none" points="340,76.33,347,56.33,354,76.33,340,76.33" style="stroke:#181818;stroke-width:1.0;"/></g><!--SRC=[Iyv9B2vMS2ujBidFTImjoGWkIIn93IZAByjCIIrIKAZcKW02RLmAD39AIWgSSp9JyqeKh1Gyu1mTXPpyz7IW0LOAdZvWbWqE4-mqeJROsEINfHOL0SNix82SnEBAl6GWopsr1AG7Q6PcSc99PduUMBSZI5P34sXyI69njWqM5NPSjLnOXE4-iwdHrSNbAm00]--></g></svg>