<?xml version="1.0" encoding="us-ascii" standalone="no"?><svg xmlns="http://www.w3.org/2000/svg" xmlns:xlink="http://www.w3.org/1999/xlink" contentStyleType="text/css" height="235px" preserveAspectRatio="none" style="width:486px;height:235px;background:#FFFFFF;" version="1.1" viewBox="0 0 486 235" width="486px" zoomAndPan="magnify"><defs/><g><!--class InitialIdentityModel--><g id="elem_InitialIdentityModel"><rect codeLine="1" fill="#F1F1F1" height="113.1875" id="InitialIdentityModel" rx="2.5" ry="2.5" style="stroke:#181818;stroke-width:0.5;" width="470" x="9" y="115"/><ellipse cx="176.75" cy="131" fill="#ADD1B2" rx="11" ry="11" style="stroke:#181818;stroke-width:1.0;"/><path d="M179.7188,136.6406 Q179.1406,136.9375 178.5,137.0781 Q177.8594,137.2344 177.1563,137.2344 Q174.6563,137.2344 173.3281,135.5938 Q172.0156,133.9375 172.0156,130.8125 Q172.0156,127.6875 173.3281,126.0313 Q174.6563,124.375 177.1563,124.375 Q177.8594,124.375 178.5,124.5313 Q179.1563,124.6875 179.7188,124.9844 L179.7188,127.7031 Q179.0938,127.125 178.5,126.8594 Q177.9063,126.5781 177.2813,126.5781 Q175.9375,126.5781 175.25,127.6563 Q174.5625,128.7188 174.5625,130.8125 Q174.5625,132.9063 175.25,133.9844 Q175.9375,135.0469 177.2813,135.0469 Q177.9063,135.0469 178.5,134.7813 Q179.0938,134.5 179.7188,133.9219 L179.7188,136.6406 Z " fill="#000000"/><text fill="#000000" font-family="sans-serif" font-size="14" lengthAdjust="spacing" textLength="126" x="197.25" y="135.8467">InitialIdentityModel</text><line style="stroke:#181818;stroke-width:0.5;" x1="10" x2="478" y1="147" y2="147"/><line style="stroke:#181818;stroke-width:0.5;" x1="10" x2="478" y1="155" y2="155"/><polygon fill="#FFFF44" points="20,163.6484,24,167.6484,20,171.6484,16,167.6484" style="stroke:#B38D22;stroke-width:1.0;"/><text fill="#000000" font-family="sans-serif" font-size="14" lengthAdjust="spacing" textLength="384" x="29" y="171.9951">&#171;override&#187; Up(migrationBuilder : MigrationBuilder) : void</text><polygon fill="#FFFF44" points="20,179.9453,24,183.9453,20,187.9453,16,183.9453" style="stroke:#B38D22;stroke-width:1.0;"/><text fill="#000000" font-family="sans-serif" font-size="14" lengthAdjust="spacing" textLength="405" x="29" y="188.292">&#171;override&#187; Down(migrationBuilder : MigrationBuilder) : void</text><polygon fill="#FFFF44" points="20,196.2422,24,200.2422,20,204.2422,16,200.2422" style="stroke:#B38D22;stroke-width:1.0;"/><text fill="#000000" font-family="sans-serif" font-size="14" lengthAdjust="spacing" textLength="444" x="29" y="204.5889">&#171;override&#187; BuildTargetModel(modelBuilder : ModelBuilder) : void</text><ellipse cx="20" cy="217.5391" fill="#84BE84" rx="3" ry="3" style="stroke:#038048;stroke-width:1.0;"/><text fill="#000000" font-family="sans-serif" font-size="14" lengthAdjust="spacing" textLength="136" x="29" y="220.8857">InitialIdentityModel()</text></g><!--class Migration--><g id="elem_Migration"><rect fill="#F1F1F1" height="48" id="Migration" rx="2.5" ry="2.5" style="stroke:#181818;stroke-width:0.5;" width="95" x="196.5" y="7"/><ellipse cx="211.5" cy="23" fill="#ADD1B2" rx="11" ry="11" style="stroke:#181818;stroke-width:1.0;"/><path d="M214.4688,28.6406 Q213.8906,28.9375 213.25,29.0781 Q212.6094,29.2344 211.9063,29.2344 Q209.4063,29.2344 208.0781,27.5938 Q206.7656,25.9375 206.7656,22.8125 Q206.7656,19.6875 208.0781,18.0313 Q209.4063,16.375 211.9063,16.375 Q212.6094,16.375 213.25,16.5313 Q213.9063,16.6875 214.4688,16.9844 L214.4688,19.7031 Q213.8438,19.125 213.25,18.8594 Q212.6563,18.5781 212.0313,18.5781 Q210.6875,18.5781 210,19.6563 Q209.3125,20.7188 209.3125,22.8125 Q209.3125,24.9063 210,25.9844 Q210.6875,27.0469 212.0313,27.0469 Q212.6563,27.0469 213.25,26.7813 Q213.8438,26.5 214.4688,25.9219 L214.4688,28.6406 Z " fill="#000000"/><text fill="#000000" font-family="sans-serif" font-size="14" lengthAdjust="spacing" textLength="63" x="225.5" y="27.8467">Migration</text><line style="stroke:#181818;stroke-width:0.5;" x1="197.5" x2="290.5" y1="39" y2="39"/><line style="stroke:#181818;stroke-width:0.5;" x1="197.5" x2="290.5" y1="47" y2="47"/></g><!--reverse link Migration to InitialIdentityModel--><g id="link_Migration_InitialIdentityModel"><path codeLine="7" d="M244,76.34 C244,88.5 244,101.85 244,114.58 " fill="none" id="Migration-backto-InitialIdentityModel" style="stroke:#181818;stroke-width:1.0;"/><polygon fill="none" points="237,76.49,244,56.49,251,76.49,237,76.49" style="stroke:#181818;stroke-width:1.0;"/></g><!--SRC=[Iyv9B2vMyCpBBCbCpF5CISqhoIofzCrFISrHKAZcKW02PGKRc_oorAAYp9HKEpk5q0ADtCpqeiIIpFmyfzBCd9JK8WKh1Lyq8KsWM5b-PWes4rpoo_CeDGEi92InA3sr1EnOZLmGYMGM4XV576siVjNGvAhbWjklO5EZgujL7G00]--></g></svg>