<?xml version="1.0" encoding="us-ascii" standalone="no"?><svg xmlns="http://www.w3.org/2000/svg" xmlns:xlink="http://www.w3.org/1999/xlink" contentStyleType="text/css" height="186px" preserveAspectRatio="none" style="width:341px;height:186px;background:#FFFFFF;" version="1.1" viewBox="0 0 341 186" width="341px" zoomAndPan="magnify"><defs/><g><!--class UserNotFoundException--><g id="elem_UserNotFoundException"><rect codeLine="1" fill="#F1F1F1" height="64.2969" id="UserNotFoundException" rx="2.5" ry="2.5" style="stroke:#181818;stroke-width:0.5;" width="327" x="7" y="115"/><ellipse cx="82.25" cy="131" fill="#ADD1B2" rx="11" ry="11" style="stroke:#181818;stroke-width:1.0;"/><path d="M85.2188,136.6406 Q84.6406,136.9375 84,137.0781 Q83.3594,137.2344 82.6563,137.2344 Q80.1563,137.2344 78.8281,135.5938 Q77.5156,133.9375 77.5156,130.8125 Q77.5156,127.6875 78.8281,126.0313 Q80.1563,124.375 82.6563,124.375 Q83.3594,124.375 84,124.5313 Q84.6563,124.6875 85.2188,124.9844 L85.2188,127.7031 Q84.5938,127.125 84,126.8594 Q83.4063,126.5781 82.7813,126.5781 Q81.4375,126.5781 80.75,127.6563 Q80.0625,128.7188 80.0625,130.8125 Q80.0625,132.9063 80.75,133.9844 Q81.4375,135.0469 82.7813,135.0469 Q83.4063,135.0469 84,134.7813 Q84.5938,134.5 85.2188,133.9219 L85.2188,136.6406 Z " fill="#000000"/><text fill="#000000" font-family="sans-serif" font-size="14" lengthAdjust="spacing" textLength="168" x="102.75" y="135.8467">UserNotFoundException</text><line style="stroke:#181818;stroke-width:0.5;" x1="8" x2="333" y1="147" y2="147"/><line style="stroke:#181818;stroke-width:0.5;" x1="8" x2="333" y1="155" y2="155"/><ellipse cx="18" cy="168.6484" fill="#84BE84" rx="3" ry="3" style="stroke:#038048;stroke-width:1.0;"/><text fill="#000000" font-family="sans-serif" font-size="14" lengthAdjust="spacing" textLength="301" x="27" y="171.9951">UserNotFoundException(userName : string)</text></g><!--class Exception--><g id="elem_Exception"><rect fill="#F1F1F1" height="48" id="Exception" rx="2.5" ry="2.5" style="stroke:#181818;stroke-width:0.5;" width="100" x="120.5" y="7"/><ellipse cx="135.5" cy="23" fill="#ADD1B2" rx="11" ry="11" style="stroke:#181818;stroke-width:1.0;"/><path d="M138.4688,28.6406 Q137.8906,28.9375 137.25,29.0781 Q136.6094,29.2344 135.9063,29.2344 Q133.4063,29.2344 132.0781,27.5938 Q130.7656,25.9375 130.7656,22.8125 Q130.7656,19.6875 132.0781,18.0313 Q133.4063,16.375 135.9063,16.375 Q136.6094,16.375 137.25,16.5313 Q137.9063,16.6875 138.4688,16.9844 L138.4688,19.7031 Q137.8438,19.125 137.25,18.8594 Q136.6563,18.5781 136.0313,18.5781 Q134.6875,18.5781 134,19.6563 Q133.3125,20.7188 133.3125,22.8125 Q133.3125,24.9063 134,25.9844 Q134.6875,27.0469 136.0313,27.0469 Q136.6563,27.0469 137.25,26.7813 Q137.8438,26.5 138.4688,25.9219 L138.4688,28.6406 Z " fill="#000000"/><text fill="#000000" font-family="sans-serif" font-size="14" lengthAdjust="spacing" textLength="68" x="149.5" y="27.8467">Exception</text><line style="stroke:#181818;stroke-width:0.5;" x1="121.5" x2="219.5" y1="39" y2="39"/><line style="stroke:#181818;stroke-width:0.5;" x1="121.5" x2="219.5" y1="47" y2="47"/></g><!--reverse link Exception to UserNotFoundException--><g id="link_Exception_UserNotFoundException"><path codeLine="4" d="M170.5,76.31 C170.5,89.2 170.5,103.01 170.5,114.9 " fill="none" id="Exception-backto-UserNotFoundException" style="stroke:#181818;stroke-width:1.0;"/><polygon fill="none" points="163.5,76.34,170.5,56.34,177.5,76.34,163.5,76.34" style="stroke:#181818;stroke-width:1.0;"/></g><!--SRC=[Iyv9B2vM22rEBVBBBt7BByrBSQr8JYqeoSpFKr2evb800ctiqXgb8D74t5G5AuNYagBCl7HDhbekX6wR6brTx3e1]--></g></svg>