<?xml version="1.0" encoding="us-ascii" standalone="no"?><svg xmlns="http://www.w3.org/2000/svg" xmlns:xlink="http://www.w3.org/1999/xlink" contentStyleType="text/css" height="158px" preserveAspectRatio="none" style="width:357px;height:158px;background:#FFFFFF;" version="1.1" viewBox="0 0 357 158" width="357px" zoomAndPan="magnify"><defs/><g><!--class JSInteropConstants--><g id="elem_JSInteropConstants"><rect codeLine="1" fill="#F1F1F1" height="137.75" id="JSInteropConstants" rx="2.5" ry="2.5" style="stroke:#181818;stroke-width:0.5;" width="336" x="7" y="7"/><ellipse cx="104.75" cy="27.1328" fill="#ADD1B2" rx="11" ry="11" style="stroke:#181818;stroke-width:1.0;"/><path d="M107.7188,32.7734 Q107.1406,33.0703 106.5,33.2109 Q105.8594,33.3672 105.1563,33.3672 Q102.6563,33.3672 101.3281,31.7266 Q100.0156,30.0703 100.0156,26.9453 Q100.0156,23.8203 101.3281,22.1641 Q102.6563,20.5078 105.1563,20.5078 Q105.8594,20.5078 106.5,20.6641 Q107.1563,20.8203 107.7188,21.1172 L107.7188,23.8359 Q107.0938,23.2578 106.5,22.9922 Q105.9063,22.7109 105.2813,22.7109 Q103.9375,22.7109 103.25,23.7891 Q102.5625,24.8516 102.5625,26.9453 Q102.5625,29.0391 103.25,30.1172 Q103.9375,31.1797 105.2813,31.1797 Q105.9063,31.1797 106.5,30.9141 Q107.0938,30.6328 107.7188,30.0547 L107.7188,32.7734 Z " fill="#000000"/><text fill="#000000" font-family="sans-serif" font-size="12" font-style="italic" lengthAdjust="spacing" textLength="49" x="166.75" y="23.1387">&#171;static&#187;</text><text fill="#000000" font-family="sans-serif" font-size="14" lengthAdjust="spacing" textLength="132" x="125.25" y="38.9639">JSInteropConstants</text><line style="stroke:#181818;stroke-width:0.5;" x1="8" x2="342" y1="47.2656" y2="47.2656"/><ellipse cx="18" cy="60.9141" fill="none" rx="3" ry="3" style="stroke:#038048;stroke-width:1.0;"/><text fill="#000000" font-family="sans-serif" font-size="14" lengthAdjust="spacing" text-decoration="underline" textLength="272" x="27" y="64.2607">&#171;readonly&#187; DeleteCookie : string &#171;get&#187;</text><ellipse cx="18" cy="77.2109" fill="none" rx="3" ry="3" style="stroke:#038048;stroke-width:1.0;"/><text fill="#000000" font-family="sans-serif" font-size="14" lengthAdjust="spacing" text-decoration="underline" textLength="251" x="27" y="80.5576">&#171;readonly&#187; GetCookie : string &#171;get&#187;</text><ellipse cx="18" cy="93.5078" fill="none" rx="3" ry="3" style="stroke:#038048;stroke-width:1.0;"/><text fill="#000000" font-family="sans-serif" font-size="14" lengthAdjust="spacing" text-decoration="underline" textLength="274" x="27" y="96.8545">&#171;readonly&#187; RouteOutside : string &#171;get&#187;</text><ellipse cx="18" cy="109.8047" fill="none" rx="3" ry="3" style="stroke:#038048;stroke-width:1.0;"/><text fill="#000000" font-family="sans-serif" font-size="14" lengthAdjust="spacing" text-decoration="underline" textLength="303" x="27" y="113.1514">&#171;readonly&#187; HideBodyOverflow : string &#171;get&#187;</text><ellipse cx="18" cy="126.1016" fill="none" rx="3" ry="3" style="stroke:#038048;stroke-width:1.0;"/><text fill="#000000" font-family="sans-serif" font-size="14" lengthAdjust="spacing" text-decoration="underline" textLength="310" x="27" y="129.4482">&#171;readonly&#187; ShowBodyOverflow : string &#171;get&#187;</text><line style="stroke:#181818;stroke-width:0.5;" x1="8" x2="342" y1="136.75" y2="136.75"/></g><!--SRC=[dSjD2i9030NWlQV8tXj8cOKL_DaKx0c6Jgo3mqGchvPIUdS3xWirgqVU-xhaLUdMNZEuoBkMhF0PIbLb0R5pZcZUaTsUvjzhiRAm3vBJPFM94uDhaLTaEf2YnDpRf6SujohFZ7_ONGPmCq1Zs2Wl9euIfkR3vP5atARRfuphUla2]--></g></svg>