<?xml version="1.0" encoding="us-ascii" standalone="no"?><svg xmlns="http://www.w3.org/2000/svg" xmlns:xlink="http://www.w3.org/1999/xlink" contentStyleType="text/css" height="134px" preserveAspectRatio="none" style="width:277px;height:134px;background:#FFFFFF;" version="1.1" viewBox="0 0 277 134" width="277px" zoomAndPan="magnify"><defs/><g><!--class LoginViewModel--><g id="elem_LoginViewModel"><rect codeLine="1" fill="#F1F1F1" height="113.1875" id="LoginViewModel" rx="2.5" ry="2.5" style="stroke:#181818;stroke-width:0.5;" width="256" x="7" y="7"/><ellipse cx="75.25" cy="23" fill="#ADD1B2" rx="11" ry="11" style="stroke:#181818;stroke-width:1.0;"/><path d="M78.2188,28.6406 Q77.6406,28.9375 77,29.0781 Q76.3594,29.2344 75.6563,29.2344 Q73.1563,29.2344 71.8281,27.5938 Q70.5156,25.9375 70.5156,22.8125 Q70.5156,19.6875 71.8281,18.0313 Q73.1563,16.375 75.6563,16.375 Q76.3594,16.375 77,16.5313 Q77.6563,16.6875 78.2188,16.9844 L78.2188,19.7031 Q77.5938,19.125 77,18.8594 Q76.4063,18.5781 75.7813,18.5781 Q74.4375,18.5781 73.75,19.6563 Q73.0625,20.7188 73.0625,22.8125 Q73.0625,24.9063 73.75,25.9844 Q74.4375,27.0469 75.7813,27.0469 Q76.4063,27.0469 77,26.7813 Q77.5938,26.5 78.2188,25.9219 L78.2188,28.6406 Z " fill="#000000"/><text fill="#000000" font-family="sans-serif" font-size="14" lengthAdjust="spacing" textLength="111" x="95.75" y="27.8467">LoginViewModel</text><line style="stroke:#181818;stroke-width:0.5;" x1="8" x2="262" y1="39" y2="39"/><ellipse cx="18" cy="52.6484" fill="none" rx="3" ry="3" style="stroke:#038048;stroke-width:1.0;"/><text fill="#000000" font-family="sans-serif" font-size="14" lengthAdjust="spacing" textLength="184" x="27" y="55.9951">Email : string? &#171;get&#187; &#171;set&#187;</text><ellipse cx="18" cy="68.9453" fill="none" rx="3" ry="3" style="stroke:#038048;stroke-width:1.0;"/><text fill="#000000" font-family="sans-serif" font-size="14" lengthAdjust="spacing" textLength="215" x="27" y="72.292">Password : string? &#171;get&#187; &#171;set&#187;</text><ellipse cx="18" cy="85.2422" fill="none" rx="3" ry="3" style="stroke:#038048;stroke-width:1.0;"/><text fill="#000000" font-family="sans-serif" font-size="14" lengthAdjust="spacing" textLength="230" x="27" y="88.5889">RememberMe : bool &#171;get&#187; &#171;set&#187;</text><line style="stroke:#181818;stroke-width:0.5;" x1="8" x2="262" y1="95.8906" y2="95.8906"/><ellipse cx="18" cy="109.5391" fill="#84BE84" rx="3" ry="3" style="stroke:#038048;stroke-width:1.0;"/><text fill="#000000" font-family="sans-serif" font-size="14" lengthAdjust="spacing" textLength="121" x="27" y="112.8857">LoginViewModel()</text></g><!--SRC=[Iyv9B2vMyCbFpymBoqmjzyrFISrHKAZcKW02RGNNtCJC70KhXUAIeioyT7i56vlqr18xEo1T3AAXgWA0HfJd5wKGL1YKcfkQcvHQv9iAL9gKdv-3GnsgSpGqkMe1]--></g></svg>