<?xml version="1.0" encoding="us-ascii" standalone="no"?><svg xmlns="http://www.w3.org/2000/svg" xmlns:xlink="http://www.w3.org/1999/xlink" contentStyleType="text/css" height="134px" preserveAspectRatio="none" style="width:315px;height:134px;background:#FFFFFF;" version="1.1" viewBox="0 0 315 134" width="315px" zoomAndPan="magnify"><defs/><g><!--class SetPasswordViewModel--><g id="elem_SetPasswordViewModel"><rect codeLine="1" fill="#F1F1F1" height="113.1875" id="SetPasswordViewModel" rx="2.5" ry="2.5" style="stroke:#181818;stroke-width:0.5;" width="294" x="7" y="7"/><ellipse cx="67.75" cy="23" fill="#ADD1B2" rx="11" ry="11" style="stroke:#181818;stroke-width:1.0;"/><path d="M70.7188,28.6406 Q70.1406,28.9375 69.5,29.0781 Q68.8594,29.2344 68.1563,29.2344 Q65.6563,29.2344 64.3281,27.5938 Q63.0156,25.9375 63.0156,22.8125 Q63.0156,19.6875 64.3281,18.0313 Q65.6563,16.375 68.1563,16.375 Q68.8594,16.375 69.5,16.5313 Q70.1563,16.6875 70.7188,16.9844 L70.7188,19.7031 Q70.0938,19.125 69.5,18.8594 Q68.9063,18.5781 68.2813,18.5781 Q66.9375,18.5781 66.25,19.6563 Q65.5625,20.7188 65.5625,22.8125 Q65.5625,24.9063 66.25,25.9844 Q66.9375,27.0469 68.2813,27.0469 Q68.9063,27.0469 69.5,26.7813 Q70.0938,26.5 70.7188,25.9219 L70.7188,28.6406 Z " fill="#000000"/><text fill="#000000" font-family="sans-serif" font-size="14" lengthAdjust="spacing" textLength="164" x="88.25" y="27.8467">SetPasswordViewModel</text><line style="stroke:#181818;stroke-width:0.5;" x1="8" x2="300" y1="39" y2="39"/><ellipse cx="18" cy="52.6484" fill="none" rx="3" ry="3" style="stroke:#038048;stroke-width:1.0;"/><text fill="#000000" font-family="sans-serif" font-size="14" lengthAdjust="spacing" textLength="245" x="27" y="55.9951">NewPassword : string? &#171;get&#187; &#171;set&#187;</text><ellipse cx="18" cy="68.9453" fill="none" rx="3" ry="3" style="stroke:#038048;stroke-width:1.0;"/><text fill="#000000" font-family="sans-serif" font-size="14" lengthAdjust="spacing" textLength="268" x="27" y="72.292">ConfirmPassword : string? &#171;get&#187; &#171;set&#187;</text><ellipse cx="18" cy="85.2422" fill="none" rx="3" ry="3" style="stroke:#038048;stroke-width:1.0;"/><text fill="#000000" font-family="sans-serif" font-size="14" lengthAdjust="spacing" textLength="255" x="27" y="88.5889">StatusMessage : string? &#171;get&#187; &#171;set&#187;</text><line style="stroke:#181818;stroke-width:0.5;" x1="8" x2="300" y1="95.8906" y2="95.8906"/><ellipse cx="18" cy="109.5391" fill="#84BE84" rx="3" ry="3" style="stroke:#038048;stroke-width:1.0;"/><text fill="#000000" font-family="sans-serif" font-size="14" lengthAdjust="spacing" textLength="174" x="27" y="112.8857">SetPasswordViewModel()</text></g><!--SRC=[Iyv9B2vM24uj2G3IvVb5AM6PgUM- -IcfEGeArLmAGA2ju9TQ3fDLi58eBYdAp4ktLx2nIKyjiRC3qiKW6ghMEJylBRCebsZrmIM99QN5lgd5nOdfgOHLOt6dXYPNBG00]--></g></svg>