<?xml version="1.0" encoding="us-ascii" standalone="no"?><svg xmlns="http://www.w3.org/2000/svg" xmlns:xlink="http://www.w3.org/1999/xlink" contentStyleType="text/css" height="496px" preserveAspectRatio="none" style="width:791px;height:496px;background:#FFFFFF;" version="1.1" viewBox="0 0 791 496" width="791px" zoomAndPan="magnify"><defs/><g><!--class CreateCatalogItemRequest--><g id="elem_CreateCatalogItemRequest"><rect codeLine="1" fill="#F1F1F1" height="194.6719" id="CreateCatalogItemRequest" rx="2.5" ry="2.5" style="stroke:#181818;stroke-width:0.5;" width="268" x="7" y="253.5"/><ellipse cx="44.05" cy="269.5" fill="#ADD1B2" rx="11" ry="11" style="stroke:#181818;stroke-width:1.0;"/><path d="M47.0188,275.1406 Q46.4406,275.4375 45.8,275.5781 Q45.1594,275.7344 44.4563,275.7344 Q41.9563,275.7344 40.6281,274.0938 Q39.3156,272.4375 39.3156,269.3125 Q39.3156,266.1875 40.6281,264.5313 Q41.9563,262.875 44.4563,262.875 Q45.1594,262.875 45.8,263.0313 Q46.4563,263.1875 47.0188,263.4844 L47.0188,266.2031 Q46.3938,265.625 45.8,265.3594 Q45.2063,265.0781 44.5813,265.0781 Q43.2375,265.0781 42.55,266.1563 Q41.8625,267.2188 41.8625,269.3125 Q41.8625,271.4063 42.55,272.4844 Q43.2375,273.5469 44.5813,273.5469 Q45.2063,273.5469 45.8,273.2813 Q46.3938,273 47.0188,272.4219 L47.0188,275.1406 Z " fill="#000000"/><text fill="#000000" font-family="sans-serif" font-size="14" lengthAdjust="spacing" textLength="187" x="62.95" y="274.3467">CreateCatalogItemRequest</text><line style="stroke:#181818;stroke-width:0.5;" x1="8" x2="274" y1="285.5" y2="285.5"/><ellipse cx="18" cy="299.1484" fill="none" rx="3" ry="3" style="stroke:#038048;stroke-width:1.0;"/><text fill="#000000" font-family="sans-serif" font-size="14" lengthAdjust="spacing" textLength="217" x="27" y="302.4951">CatalogTypeId : int &#171;get&#187; &#171;set&#187;</text><ellipse cx="18" cy="315.4453" fill="none" rx="3" ry="3" style="stroke:#038048;stroke-width:1.0;"/><text fill="#000000" font-family="sans-serif" font-size="14" lengthAdjust="spacing" textLength="224" x="27" y="318.792">CatalogBrandId : int &#171;get&#187; &#171;set&#187;</text><ellipse cx="18" cy="331.7422" fill="none" rx="3" ry="3" style="stroke:#038048;stroke-width:1.0;"/><text fill="#000000" font-family="sans-serif" font-size="14" lengthAdjust="spacing" textLength="181" x="27" y="335.0889">Name : string &#171;get&#187; &#171;set&#187;</text><ellipse cx="18" cy="348.0391" fill="none" rx="3" ry="3" style="stroke:#038048;stroke-width:1.0;"/><text fill="#000000" font-family="sans-serif" font-size="14" lengthAdjust="spacing" textLength="220" x="27" y="351.3857">Description : string &#171;get&#187; &#171;set&#187;</text><ellipse cx="18" cy="364.3359" fill="none" rx="3" ry="3" style="stroke:#038048;stroke-width:1.0;"/><text fill="#000000" font-family="sans-serif" font-size="14" lengthAdjust="spacing" textLength="189" x="27" y="367.6826">Price : decimal &#171;get&#187; &#171;set&#187;</text><ellipse cx="18" cy="380.6328" fill="none" rx="3" ry="3" style="stroke:#038048;stroke-width:1.0;"/><text fill="#000000" font-family="sans-serif" font-size="14" lengthAdjust="spacing" textLength="207" x="27" y="383.9795">PictureUri : string &#171;get&#187; &#171;set&#187;</text><ellipse cx="18" cy="396.9297" fill="none" rx="3" ry="3" style="stroke:#038048;stroke-width:1.0;"/><text fill="#000000" font-family="sans-serif" font-size="14" lengthAdjust="spacing" textLength="242" x="27" y="400.2764">PictureBase64 : string &#171;get&#187; &#171;set&#187;</text><ellipse cx="18" cy="413.2266" fill="none" rx="3" ry="3" style="stroke:#038048;stroke-width:1.0;"/><text fill="#000000" font-family="sans-serif" font-size="14" lengthAdjust="spacing" textLength="229" x="27" y="416.5732">PictureName : string &#171;get&#187; &#171;set&#187;</text><line style="stroke:#181818;stroke-width:0.5;" x1="8" x2="274" y1="423.875" y2="423.875"/><ellipse cx="18" cy="437.5234" fill="#84BE84" rx="3" ry="3" style="stroke:#038048;stroke-width:1.0;"/><text fill="#000000" font-family="sans-serif" font-size="14" lengthAdjust="spacing" textLength="197" x="27" y="440.8701">CreateCatalogItemRequest()</text></g><!--class CatalogItem--><g id="elem_CatalogItem"><rect codeLine="12" fill="#F1F1F1" height="276.1563" id="CatalogItem" rx="2.5" ry="2.5" style="stroke:#181818;stroke-width:0.5;" width="474" x="310" y="213"/><ellipse cx="501.75" cy="229" fill="#ADD1B2" rx="11" ry="11" style="stroke:#181818;stroke-width:1.0;"/><path d="M504.7188,234.6406 Q504.1406,234.9375 503.5,235.0781 Q502.8594,235.2344 502.1563,235.2344 Q499.6563,235.2344 498.3281,233.5938 Q497.0156,231.9375 497.0156,228.8125 Q497.0156,225.6875 498.3281,224.0313 Q499.6563,222.375 502.1563,222.375 Q502.8594,222.375 503.5,222.5313 Q504.1563,222.6875 504.7188,222.9844 L504.7188,225.7031 Q504.0938,225.125 503.5,224.8594 Q502.9063,224.5781 502.2813,224.5781 Q500.9375,224.5781 500.25,225.6563 Q499.5625,226.7188 499.5625,228.8125 Q499.5625,230.9063 500.25,231.9844 Q500.9375,233.0469 502.2813,233.0469 Q502.9063,233.0469 503.5,232.7813 Q504.0938,232.5 504.7188,231.9219 L504.7188,234.6406 Z " fill="#000000"/><text fill="#000000" font-family="sans-serif" font-size="14" lengthAdjust="spacing" textLength="82" x="522.25" y="233.8467">CatalogItem</text><line style="stroke:#181818;stroke-width:0.5;" x1="311" x2="783" y1="245" y2="245"/><ellipse cx="321" cy="258.6484" fill="none" rx="3" ry="3" style="stroke:#038048;stroke-width:1.0;"/><text fill="#000000" font-family="sans-serif" font-size="14" lengthAdjust="spacing" textLength="131" x="330" y="261.9951">Id : int &#171;get&#187; &#171;set&#187;</text><ellipse cx="321" cy="274.9453" fill="none" rx="3" ry="3" style="stroke:#038048;stroke-width:1.0;"/><text fill="#000000" font-family="sans-serif" font-size="14" lengthAdjust="spacing" textLength="217" x="330" y="278.292">CatalogTypeId : int &#171;get&#187; &#171;set&#187;</text><ellipse cx="321" cy="291.2422" fill="none" rx="3" ry="3" style="stroke:#038048;stroke-width:1.0;"/><text fill="#000000" font-family="sans-serif" font-size="14" lengthAdjust="spacing" textLength="227" x="330" y="294.5889">CatalogType : string &#171;get&#187; &#171;set&#187;</text><ellipse cx="321" cy="307.5391" fill="none" rx="3" ry="3" style="stroke:#038048;stroke-width:1.0;"/><text fill="#000000" font-family="sans-serif" font-size="14" lengthAdjust="spacing" textLength="224" x="330" y="310.8857">CatalogBrandId : int &#171;get&#187; &#171;set&#187;</text><ellipse cx="321" cy="323.8359" fill="none" rx="3" ry="3" style="stroke:#038048;stroke-width:1.0;"/><text fill="#000000" font-family="sans-serif" font-size="14" lengthAdjust="spacing" textLength="234" x="330" y="327.1826">CatalogBrand : string &#171;get&#187; &#171;set&#187;</text><ellipse cx="321" cy="340.1328" fill="none" rx="3" ry="3" style="stroke:#038048;stroke-width:1.0;"/><text fill="#000000" font-family="sans-serif" font-size="14" lengthAdjust="spacing" textLength="181" x="330" y="343.4795">Name : string &#171;get&#187; &#171;set&#187;</text><ellipse cx="321" cy="356.4297" fill="none" rx="3" ry="3" style="stroke:#038048;stroke-width:1.0;"/><text fill="#000000" font-family="sans-serif" font-size="14" lengthAdjust="spacing" textLength="220" x="330" y="359.7764">Description : string &#171;get&#187; &#171;set&#187;</text><ellipse cx="321" cy="372.7266" fill="none" rx="3" ry="3" style="stroke:#038048;stroke-width:1.0;"/><text fill="#000000" font-family="sans-serif" font-size="14" lengthAdjust="spacing" textLength="189" x="330" y="376.0732">Price : decimal &#171;get&#187; &#171;set&#187;</text><ellipse cx="321" cy="389.0234" fill="none" rx="3" ry="3" style="stroke:#038048;stroke-width:1.0;"/><text fill="#000000" font-family="sans-serif" font-size="14" lengthAdjust="spacing" textLength="207" x="330" y="392.3701">PictureUri : string &#171;get&#187; &#171;set&#187;</text><ellipse cx="321" cy="405.3203" fill="none" rx="3" ry="3" style="stroke:#038048;stroke-width:1.0;"/><text fill="#000000" font-family="sans-serif" font-size="14" lengthAdjust="spacing" textLength="242" x="330" y="408.667">PictureBase64 : string &#171;get&#187; &#171;set&#187;</text><ellipse cx="321" cy="421.6172" fill="none" rx="3" ry="3" style="stroke:#038048;stroke-width:1.0;"/><text fill="#000000" font-family="sans-serif" font-size="14" lengthAdjust="spacing" textLength="229" x="330" y="424.9639">PictureName : string &#171;get&#187; &#171;set&#187;</text><line style="stroke:#181818;stroke-width:0.5;" x1="311" x2="783" y1="432.2656" y2="432.2656"/><ellipse cx="321" cy="445.9141" fill="#84BE84" rx="3" ry="3" style="stroke:#038048;stroke-width:1.0;"/><text fill="#000000" font-family="sans-serif" font-size="14" lengthAdjust="spacing" text-decoration="underline" textLength="448" x="330" y="449.2607">IsValidImage(pictureName : string, pictureBase64 : string) : string</text><ellipse cx="321" cy="462.2109" fill="#84BE84" rx="3" ry="3" style="stroke:#038048;stroke-width:1.0;"/><text fill="#000000" font-family="sans-serif" font-size="14" lengthAdjust="spacing" text-decoration="underline" textLength="430" x="330" y="465.5576">&#171;async&#187; DataToBase64(fileItem : IFileListEntry) : Task&lt;string&gt;</text><ellipse cx="321" cy="478.5078" fill="#84BE84" rx="3" ry="3" style="stroke:#038048;stroke-width:1.0;"/><text fill="#000000" font-family="sans-serif" font-size="14" lengthAdjust="spacing" textLength="92" x="330" y="481.8545">CatalogItem()</text></g><!--class ICatalogItemService--><g id="elem_ICatalogItemService"><rect codeLine="28" fill="#F1F1F1" height="145.7813" id="ICatalogItemService" rx="2.5" ry="2.5" style="stroke:#181818;stroke-width:0.5;" width="514" x="87" y="7"/><ellipse cx="272.25" cy="23" fill="#B4A7E5" rx="11" ry="11" style="stroke:#181818;stroke-width:1.0;"/><path d="M268.1719,18.7656 L268.1719,16.6094 L275.5625,16.6094 L275.5625,18.7656 L273.0938,18.7656 L273.0938,26.8438 L275.5625,26.8438 L275.5625,29 L268.1719,29 L268.1719,26.8438 L270.6406,26.8438 L270.6406,18.7656 L268.1719,18.7656 Z " fill="#000000"/><text fill="#000000" font-family="sans-serif" font-size="14" font-style="italic" lengthAdjust="spacing" textLength="135" x="292.75" y="27.8467">ICatalogItemService</text><line style="stroke:#181818;stroke-width:0.5;" x1="88" x2="600" y1="39" y2="39"/><line style="stroke:#181818;stroke-width:0.5;" x1="88" x2="600" y1="47" y2="47"/><ellipse cx="98" cy="60.6484" fill="#84BE84" rx="3" ry="3" style="stroke:#038048;stroke-width:1.0;"/><text fill="#000000" font-family="sans-serif" font-size="14" lengthAdjust="spacing" textLength="488" x="107" y="63.9951">Create(catalogItem : CreateCatalogItemRequest) : Task&lt;CatalogItem&gt;</text><ellipse cx="98" cy="76.9453" fill="#84BE84" rx="3" ry="3" style="stroke:#038048;stroke-width:1.0;"/><text fill="#000000" font-family="sans-serif" font-size="14" lengthAdjust="spacing" textLength="363" x="107" y="80.292">Edit(catalogItem : CatalogItem) : Task&lt;CatalogItem&gt;</text><ellipse cx="98" cy="93.2422" fill="#84BE84" rx="3" ry="3" style="stroke:#038048;stroke-width:1.0;"/><text fill="#000000" font-family="sans-serif" font-size="14" lengthAdjust="spacing" textLength="207" x="107" y="96.5889">Delete(id : int) : Task&lt;string&gt;</text><ellipse cx="98" cy="109.5391" fill="#84BE84" rx="3" ry="3" style="stroke:#038048;stroke-width:1.0;"/><text fill="#000000" font-family="sans-serif" font-size="14" lengthAdjust="spacing" textLength="258" x="107" y="112.8857">GetById(id : int) : Task&lt;CatalogItem&gt;</text><ellipse cx="98" cy="125.8359" fill="#84BE84" rx="3" ry="3" style="stroke:#038048;stroke-width:1.0;"/><text fill="#000000" font-family="sans-serif" font-size="14" lengthAdjust="spacing" textLength="370" x="107" y="129.1826">ListPaged(pageSize : int) : Task&lt;List&lt;CatalogItem&gt;&gt;</text><ellipse cx="98" cy="142.1328" fill="#84BE84" rx="3" ry="3" style="stroke:#038048;stroke-width:1.0;"/><text fill="#000000" font-family="sans-serif" font-size="14" lengthAdjust="spacing" textLength="232" x="107" y="145.4795">List() : Task&lt;List&lt;CatalogItem&gt;&gt;</text></g><!--link ICatalogItemService to CreateCatalogItemRequest--><g id="link_ICatalogItemService_CreateCatalogItemRequest"><path codeLine="36" d="M289.33,153.44 C267.28,182.66 241.46,216.88 217.59,248.51 " fill="none" id="ICatalogItemService-to-CreateCatalogItemRequest" style="stroke:#181818;stroke-width:1.0;stroke-dasharray:7.0,7.0;"/><polygon fill="#181818" points="214.08,252.16,222.6991,247.3945,217.096,248.172,216.3184,242.5689,214.08,252.16" style="stroke:#181818;stroke-width:1.0;"/></g><!--link ICatalogItemService to CatalogItem--><g id="link_ICatalogItemService_CatalogItem"><path codeLine="37" d="M398.67,153.44 C411.44,170.37 425.48,188.98 439.68,207.79 " fill="none" id="ICatalogItemService-to-CatalogItem" style="stroke:#181818;stroke-width:1.0;stroke-dasharray:7.0,7.0;"/><polygon fill="#181818" points="443.29,211.57,441.0735,201.9738,440.2831,207.5752,434.6818,206.7848,443.29,211.57" style="stroke:#181818;stroke-width:1.0;"/></g><!--SRC=[vLJBReCm4Bpp5JuIjUgfwY52EUJHob9LHKtQ-yhUe5M1K7jJYKRvzzeX3OH2u5uEsB0pOtjcPPM0jM9c41Xdm91iOycOlkBd3YqBiG-4Usx4gROkSfHQZ0LbBA8eHfvCt6ZzU8cS6iXq3_G5KdG0ouQok0CpHwiCvKpRh0-wDAIydaP5AIHTA5AyC_Xcg5UlH4x1uiFzGF2G8tMv7Ow2Gw3AGAfYbS4muuT7v96zUnsUPXtQ9_jFazzR1YPr4DA-Gq9QfX1ZcBS8t8gyTG-Zywmf6KLWYqovDUSkYFMs98ORIl3OHcCX7ztycImlCZQ5Lrg3_OXAkKQAddBiHvStcWquUsMjj4BpvIslxeTZJuUgrhVZpaO_Brqh_Qw_qCHDcUhh6dEE2RejqAbBEyxtX3mjfFuBQr7qNYrTGZhCtNj5tzZWUC05iSuChy4EGPkTTtUJJjEw2TNl7m00]--></g></svg>