<?xml version="1.0" encoding="us-ascii" standalone="no"?><svg xmlns="http://www.w3.org/2000/svg" xmlns:xlink="http://www.w3.org/1999/xlink" contentStyleType="text/css" height="93px" preserveAspectRatio="none" style="width:670px;height:93px;background:#FFFFFF;" version="1.1" viewBox="0 0 670 93" width="670px" zoomAndPan="magnify"><defs/><g><!--class EmailSenderExtensions--><g id="elem_EmailSenderExtensions"><rect codeLine="1" fill="#F1F1F1" height="72.5625" id="EmailSenderExtensions" rx="2.5" ry="2.5" style="stroke:#181818;stroke-width:0.5;" width="649" x="7" y="7"/><ellipse cx="246.25" cy="27.1328" fill="#ADD1B2" rx="11" ry="11" style="stroke:#181818;stroke-width:1.0;"/><path d="M249.2188,32.7734 Q248.6406,33.0703 248,33.2109 Q247.3594,33.3672 246.6563,33.3672 Q244.1563,33.3672 242.8281,31.7266 Q241.5156,30.0703 241.5156,26.9453 Q241.5156,23.8203 242.8281,22.1641 Q244.1563,20.5078 246.6563,20.5078 Q247.3594,20.5078 248,20.6641 Q248.6563,20.8203 249.2188,21.1172 L249.2188,23.8359 Q248.5938,23.2578 248,22.9922 Q247.4063,22.7109 246.7813,22.7109 Q245.4375,22.7109 244.75,23.7891 Q244.0625,24.8516 244.0625,26.9453 Q244.0625,29.0391 244.75,30.1172 Q245.4375,31.1797 246.7813,31.1797 Q247.4063,31.1797 248,30.9141 Q248.5938,30.6328 249.2188,30.0547 L249.2188,32.7734 Z " fill="#000000"/><text fill="#000000" font-family="sans-serif" font-size="12" font-style="italic" lengthAdjust="spacing" textLength="49" x="323.25" y="23.1387">&#171;static&#187;</text><text fill="#000000" font-family="sans-serif" font-size="14" lengthAdjust="spacing" textLength="162" x="266.75" y="38.9639">EmailSenderExtensions</text><line style="stroke:#181818;stroke-width:0.5;" x1="8" x2="655" y1="47.2656" y2="47.2656"/><line style="stroke:#181818;stroke-width:0.5;" x1="8" x2="655" y1="55.2656" y2="55.2656"/><ellipse cx="18" cy="68.9141" fill="#84BE84" rx="3" ry="3" style="stroke:#038048;stroke-width:1.0;"/><text fill="#000000" font-family="sans-serif" font-size="14" lengthAdjust="spacing" text-decoration="underline" textLength="623" x="27" y="72.2607">SendEmailConfirmationAsync(emailSender : IEmailSender, email : string, link : string) : Task</text></g><!--SRC=[Iyv9B2vMSCrDpCm9JirBIIrohIX9pIlEpCyhLh2nAIv9BCbCjhDJKAZcKW02ROLgY52j0aWrM9jpVbvQPb4kK3G_px6uCYzP8nLXceALWYUIuJeAO3cWQ759KMPUkev2JcPUDfoh2MI591PdSzK20000]--></g></svg>