<?xml version="1.0" encoding="us-ascii" standalone="no"?><svg xmlns="http://www.w3.org/2000/svg" xmlns:xlink="http://www.w3.org/1999/xlink" contentStyleType="text/css" height="134px" preserveAspectRatio="none" style="width:251px;height:134px;background:#FFFFFF;" version="1.1" viewBox="0 0 251 134" width="251px" zoomAndPan="magnify"><defs/><g><!--class ErrorDetails--><g id="elem_ErrorDetails"><rect codeLine="1" fill="#F1F1F1" height="113.1875" id="ErrorDetails" rx="2.5" ry="2.5" style="stroke:#181818;stroke-width:0.5;" width="230" x="7" y="7"/><ellipse cx="77.75" cy="23" fill="#ADD1B2" rx="11" ry="11" style="stroke:#181818;stroke-width:1.0;"/><path d="M80.7188,28.6406 Q80.1406,28.9375 79.5,29.0781 Q78.8594,29.2344 78.1563,29.2344 Q75.6563,29.2344 74.3281,27.5938 Q73.0156,25.9375 73.0156,22.8125 Q73.0156,19.6875 74.3281,18.0313 Q75.6563,16.375 78.1563,16.375 Q78.8594,16.375 79.5,16.5313 Q80.1563,16.6875 80.7188,16.9844 L80.7188,19.7031 Q80.0938,19.125 79.5,18.8594 Q78.9063,18.5781 78.2813,18.5781 Q76.9375,18.5781 76.25,19.6563 Q75.5625,20.7188 75.5625,22.8125 Q75.5625,24.9063 76.25,25.9844 Q76.9375,27.0469 78.2813,27.0469 Q78.9063,27.0469 79.5,26.7813 Q80.0938,26.5 80.7188,25.9219 L80.7188,28.6406 Z " fill="#000000"/><text fill="#000000" font-family="sans-serif" font-size="14" lengthAdjust="spacing" textLength="80" x="98.25" y="27.8467">ErrorDetails</text><line style="stroke:#181818;stroke-width:0.5;" x1="8" x2="236" y1="39" y2="39"/><ellipse cx="18" cy="52.6484" fill="none" rx="3" ry="3" style="stroke:#038048;stroke-width:1.0;"/><text fill="#000000" font-family="sans-serif" font-size="14" lengthAdjust="spacing" textLength="200" x="27" y="55.9951">StatusCode : int &#171;get&#187; &#171;set&#187;</text><ellipse cx="18" cy="68.9453" fill="none" rx="3" ry="3" style="stroke:#038048;stroke-width:1.0;"/><text fill="#000000" font-family="sans-serif" font-size="14" lengthAdjust="spacing" textLength="204" x="27" y="72.292">Message : string &#171;get&#187; &#171;set&#187;</text><line style="stroke:#181818;stroke-width:0.5;" x1="8" x2="236" y1="79.5938" y2="79.5938"/><ellipse cx="18" cy="93.2422" fill="#84BE84" rx="3" ry="3" style="stroke:#038048;stroke-width:1.0;"/><text fill="#000000" font-family="sans-serif" font-size="14" lengthAdjust="spacing" textLength="198" x="27" y="96.5889">&#171;override&#187; ToString() : string</text><ellipse cx="18" cy="109.5391" fill="#84BE84" rx="3" ry="3" style="stroke:#038048;stroke-width:1.0;"/><text fill="#000000" font-family="sans-serif" font-size="14" lengthAdjust="spacing" textLength="90" x="27" y="112.8857">ErrorDetails()</text></g><!--SRC=[Iyv9B2vMS2qgoYzoIIr9pCmfLb2evb800cs5u9B4aj9Yv_oKL0KhXSoy4WKRc_JK4Zix85qCeg7AV5EBYnFJGMgAIueoyz9nABEnoIzBBIhAJ4a5IeNa1uFLQcZ2jK6L8Jj5GvEh5W00]--></g></svg>