<?xml version="1.0" encoding="us-ascii" standalone="no"?><svg xmlns="http://www.w3.org/2000/svg" xmlns:xlink="http://www.w3.org/1999/xlink" contentStyleType="text/css" height="551px" preserveAspectRatio="none" style="width:828px;height:551px;background:#FFFFFF;" version="1.1" viewBox="0 0 828 551" width="828px" zoomAndPan="magnify"><defs/><g><!--class CatalogItemViewModel--><g id="elem_CatalogItemViewModel"><rect codeLine="1" fill="#F1F1F1" height="129.4844" id="CatalogItemViewModel" rx="2.5" ry="2.5" style="stroke:#181818;stroke-width:0.5;" width="240" x="193" y="415"/><ellipse cx="231.4" cy="431" fill="#ADD1B2" rx="11" ry="11" style="stroke:#181818;stroke-width:1.0;"/><path d="M234.3688,436.6406 Q233.7906,436.9375 233.15,437.0781 Q232.5094,437.2344 231.8063,437.2344 Q229.3063,437.2344 227.9781,435.5938 Q226.6656,433.9375 226.6656,430.8125 Q226.6656,427.6875 227.9781,426.0313 Q229.3063,424.375 231.8063,424.375 Q232.5094,424.375 233.15,424.5313 Q233.8063,424.6875 234.3688,424.9844 L234.3688,427.7031 Q233.7438,427.125 233.15,426.8594 Q232.5563,426.5781 231.9313,426.5781 Q230.5875,426.5781 229.9,427.6563 Q229.2125,428.7188 229.2125,430.8125 Q229.2125,432.9063 229.9,433.9844 Q230.5875,435.0469 231.9313,435.0469 Q232.5563,435.0469 233.15,434.7813 Q233.7438,434.5 234.3688,433.9219 L234.3688,436.6406 Z " fill="#000000"/><text fill="#000000" font-family="sans-serif" font-size="14" lengthAdjust="spacing" textLength="156" x="250.6" y="435.8467">CatalogItemViewModel</text><line style="stroke:#181818;stroke-width:0.5;" x1="194" x2="432" y1="447" y2="447"/><ellipse cx="204" cy="460.6484" fill="none" rx="3" ry="3" style="stroke:#038048;stroke-width:1.0;"/><text fill="#000000" font-family="sans-serif" font-size="14" lengthAdjust="spacing" textLength="131" x="213" y="463.9951">Id : int &#171;get&#187; &#171;set&#187;</text><ellipse cx="204" cy="476.9453" fill="none" rx="3" ry="3" style="stroke:#038048;stroke-width:1.0;"/><text fill="#000000" font-family="sans-serif" font-size="14" lengthAdjust="spacing" textLength="188" x="213" y="480.292">Name : string? &#171;get&#187; &#171;set&#187;</text><ellipse cx="204" cy="493.2422" fill="none" rx="3" ry="3" style="stroke:#038048;stroke-width:1.0;"/><text fill="#000000" font-family="sans-serif" font-size="14" lengthAdjust="spacing" textLength="214" x="213" y="496.5889">PictureUri : string? &#171;get&#187; &#171;set&#187;</text><ellipse cx="204" cy="509.5391" fill="none" rx="3" ry="3" style="stroke:#038048;stroke-width:1.0;"/><text fill="#000000" font-family="sans-serif" font-size="14" lengthAdjust="spacing" textLength="189" x="213" y="512.8857">Price : decimal &#171;get&#187; &#171;set&#187;</text><line style="stroke:#181818;stroke-width:0.5;" x1="194" x2="432" y1="520.1875" y2="520.1875"/><ellipse cx="204" cy="533.8359" fill="#84BE84" rx="3" ry="3" style="stroke:#038048;stroke-width:1.0;"/><text fill="#000000" font-family="sans-serif" font-size="14" lengthAdjust="spacing" textLength="166" x="213" y="537.1826">CatalogItemViewModel()</text></g><!--class ICatalogItemViewModelService--><g id="elem_ICatalogItemViewModelService"><rect codeLine="8" fill="#F1F1F1" height="64.2969" id="ICatalogItemViewModelService" rx="2.5" ry="2.5" style="stroke:#181818;stroke-width:0.5;" width="455" x="366.5" y="290"/><ellipse cx="485.25" cy="306" fill="#B4A7E5" rx="11" ry="11" style="stroke:#181818;stroke-width:1.0;"/><path d="M481.1719,301.7656 L481.1719,299.6094 L488.5625,299.6094 L488.5625,301.7656 L486.0938,301.7656 L486.0938,309.8438 L488.5625,309.8438 L488.5625,312 L481.1719,312 L481.1719,309.8438 L483.6406,309.8438 L483.6406,301.7656 L481.1719,301.7656 Z " fill="#000000"/><text fill="#000000" font-family="sans-serif" font-size="14" font-style="italic" lengthAdjust="spacing" textLength="209" x="505.75" y="310.8467">ICatalogItemViewModelService</text><line style="stroke:#181818;stroke-width:0.5;" x1="367.5" x2="820.5" y1="322" y2="322"/><line style="stroke:#181818;stroke-width:0.5;" x1="367.5" x2="820.5" y1="330" y2="330"/><ellipse cx="377.5" cy="343.6484" fill="#84BE84" rx="3" ry="3" style="stroke:#038048;stroke-width:1.0;"/><text fill="#000000" font-family="sans-serif" font-size="14" lengthAdjust="spacing" textLength="429" x="386.5" y="346.9951">UpdateCatalogItem(viewModel : CatalogItemViewModel) : Task</text></g><!--class EditCatalogItemModel--><g id="elem_EditCatalogItemModel"><rect codeLine="13" fill="#F1F1F1" height="113.1875" id="EditCatalogItemModel" rx="2.5" ry="2.5" style="stroke:#181818;stroke-width:0.5;" width="612" x="7" y="116"/><ellipse cx="233.75" cy="132" fill="#ADD1B2" rx="11" ry="11" style="stroke:#181818;stroke-width:1.0;"/><path d="M236.7188,137.6406 Q236.1406,137.9375 235.5,138.0781 Q234.8594,138.2344 234.1563,138.2344 Q231.6563,138.2344 230.3281,136.5938 Q229.0156,134.9375 229.0156,131.8125 Q229.0156,128.6875 230.3281,127.0313 Q231.6563,125.375 234.1563,125.375 Q234.8594,125.375 235.5,125.5313 Q236.1563,125.6875 236.7188,125.9844 L236.7188,128.7031 Q236.0938,128.125 235.5,127.8594 Q234.9063,127.5781 234.2813,127.5781 Q232.9375,127.5781 232.25,128.6563 Q231.5625,129.7188 231.5625,131.8125 Q231.5625,133.9063 232.25,134.9844 Q232.9375,136.0469 234.2813,136.0469 Q234.9063,136.0469 235.5,135.7813 Q236.0938,135.5 236.7188,134.9219 L236.7188,137.6406 Z " fill="#000000"/><text fill="#000000" font-family="sans-serif" font-size="14" lengthAdjust="spacing" textLength="150" x="254.25" y="136.8467">EditCatalogItemModel</text><line style="stroke:#181818;stroke-width:0.5;" x1="8" x2="618" y1="148" y2="148"/><ellipse cx="18" cy="161.6484" fill="none" rx="3" ry="3" style="stroke:#038048;stroke-width:1.0;"/><text fill="#000000" font-family="sans-serif" font-size="14" lengthAdjust="spacing" textLength="352" x="27" y="164.9951">CatalogModel : CatalogItemViewModel &#171;get&#187; &#171;set&#187;</text><line style="stroke:#181818;stroke-width:0.5;" x1="8" x2="618" y1="172.2969" y2="172.2969"/><ellipse cx="18" cy="185.9453" fill="#84BE84" rx="3" ry="3" style="stroke:#038048;stroke-width:1.0;"/><text fill="#000000" font-family="sans-serif" font-size="14" lengthAdjust="spacing" textLength="586" x="27" y="189.292">EditCatalogItemModel(catalogItemViewModelService : ICatalogItemViewModelService)</text><ellipse cx="18" cy="202.2422" fill="#84BE84" rx="3" ry="3" style="stroke:#038048;stroke-width:1.0;"/><text fill="#000000" font-family="sans-serif" font-size="14" lengthAdjust="spacing" textLength="357" x="27" y="205.5889">OnGet(catalogModel : CatalogItemViewModel) : void</text><ellipse cx="18" cy="218.5391" fill="#84BE84" rx="3" ry="3" style="stroke:#038048;stroke-width:1.0;"/><text fill="#000000" font-family="sans-serif" font-size="14" lengthAdjust="spacing" textLength="324" x="27" y="221.8857">&#171;async&#187; OnPostAsync() : Task&lt;IActionResult&gt;</text></g><!--class PageModel--><g id="elem_PageModel"><rect fill="#F1F1F1" height="48" id="PageModel" rx="2.5" ry="2.5" style="stroke:#181818;stroke-width:0.5;" width="109" x="258.5" y="7"/><ellipse cx="273.5" cy="23" fill="#ADD1B2" rx="11" ry="11" style="stroke:#181818;stroke-width:1.0;"/><path d="M276.4688,28.6406 Q275.8906,28.9375 275.25,29.0781 Q274.6094,29.2344 273.9063,29.2344 Q271.4063,29.2344 270.0781,27.5938 Q268.7656,25.9375 268.7656,22.8125 Q268.7656,19.6875 270.0781,18.0313 Q271.4063,16.375 273.9063,16.375 Q274.6094,16.375 275.25,16.5313 Q275.9063,16.6875 276.4688,16.9844 L276.4688,19.7031 Q275.8438,19.125 275.25,18.8594 Q274.6563,18.5781 274.0313,18.5781 Q272.6875,18.5781 272,19.6563 Q271.3125,20.7188 271.3125,22.8125 Q271.3125,24.9063 272,25.9844 Q272.6875,27.0469 274.0313,27.0469 Q274.6563,27.0469 275.25,26.7813 Q275.8438,26.5 276.4688,25.9219 L276.4688,28.6406 Z " fill="#000000"/><text fill="#000000" font-family="sans-serif" font-size="14" lengthAdjust="spacing" textLength="77" x="287.5" y="27.8467">PageModel</text><line style="stroke:#181818;stroke-width:0.5;" x1="259.5" x2="366.5" y1="39" y2="39"/><line style="stroke:#181818;stroke-width:0.5;" x1="259.5" x2="366.5" y1="47" y2="47"/></g><!--link ICatalogItemViewModelService to CatalogItemViewModel--><g id="link_ICatalogItemViewModelService_CatalogItemViewModel"><path codeLine="11" d="M537.14,354.47 C507.21,371.03 469.32,392 433.25,411.96 " fill="none" id="ICatalogItemViewModelService-to-CatalogItemViewModel" style="stroke:#181818;stroke-width:1.0;stroke-dasharray:7.0,7.0;"/><polygon fill="#181818" points="429.4,414.64,439.2121,413.7904,433.7768,412.2227,435.3445,406.7874,429.4,414.64" style="stroke:#181818;stroke-width:1.0;"/></g><!--reverse link PageModel to EditCatalogItemModel--><g id="link_PageModel_EditCatalogItemModel"><path codeLine="19" d="M313,76.08 C313,88.6 313,102.41 313,115.54 " fill="none" id="PageModel-backto-EditCatalogItemModel" style="stroke:#181818;stroke-width:1.0;"/><polygon fill="none" points="306,76.35,313,56.35,320,76.35,306,76.35" style="stroke:#181818;stroke-width:1.0;"/></g><!--link EditCatalogItemModel to ICatalogItemViewModelService--><g id="link_EditCatalogItemModel_ICatalogItemViewModelService"><path codeLine="20" d="M419.63,229.47 C456.48,248.81 496.63,269.89 529.1,286.93 " fill="none" id="EditCatalogItemModel-to-ICatalogItemViewModelService" style="stroke:#181818;stroke-width:1.0;stroke-dasharray:7.0,7.0;"/><polygon fill="#181818" points="533.24,289.63,527.1356,281.901,528.8145,287.303,523.4125,288.9819,533.24,289.63" style="stroke:#181818;stroke-width:1.0;"/></g><!--reverse link EditCatalogItemModel to CatalogItemViewModel--><g id="link_EditCatalogItemModel_CatalogItemViewModel"><path codeLine="21" d="M230.98,239.57 C217.53,254.61 205.54,271.63 198,290 C187.2,316.31 187.64,327.51 198,354 C206.68,376.2 221.38,396.81 237.43,414.62 " fill="none" id="EditCatalogItemModel-backto-CatalogItemViewModel" style="stroke:#181818;stroke-width:1.0;"/><polygon fill="#181818" points="239.49,230.48,232.465,232.1077,231.2656,239.2184,238.2906,237.5907,239.49,230.48" style="stroke:#181818;stroke-width:1.0;"/><text fill="#000000" font-family="sans-serif" font-size="13" lengthAdjust="spacing" textLength="87" x="199" y="326.5669">CatalogModel</text></g><!--link EditCatalogItemModel to CatalogItemViewModel--><g id="link_EditCatalogItemModel_CatalogItemViewModel"><path codeLine="22" d="M313,229.44 C313,279.97 313,354.51 313,408.88 " fill="none" id="EditCatalogItemModel-to-CatalogItemViewModel" style="stroke:#181818;stroke-width:1.0;stroke-dasharray:7.0,7.0;"/><polygon fill="#181818" points="313,413.74,317,404.74,313,408.74,309,404.74,313,413.74" style="stroke:#181818;stroke-width:1.0;"/></g><!--SRC=[XP11JiCm44NtFeMN2QWzG6G5LGXLMT16GDcFx26oSEpAdWOXuExOAArQvAJUMFRy-N_cIGCXy7iWCAvh2FjNZH-FJg7X_8lnU6vvetZ5jIKkH8TKr_4EwHxB6-Wn2W9vRRkx2L6h9Hqyxho-BlLQ9aE5KlTW9bIvaOkI_R0uAFetY1PDJlECVaZ-f-rsUmM4Pz9YE26eiZ5b_7-1y1x3PYEMophRpvZye_wWD9tL_r7FLGiv4rVDBbnUSflRRuBurgwHZXDSupCuhSO-8I1yMXdzjhPrWLRfLHmXYcObIJlxXE5Wg8vCM-XmdEDxiSXoO5bqYVSSWdpNJSp8KgWkM4r7vff_0G00]--></g></svg>