<?xml version="1.0" encoding="us-ascii" standalone="no"?><svg xmlns="http://www.w3.org/2000/svg" xmlns:xlink="http://www.w3.org/1999/xlink" contentStyleType="text/css" height="698px" preserveAspectRatio="none" style="width:1299px;height:698px;background:#FFFFFF;" version="1.1" viewBox="0 0 1299 698" width="1299px" zoomAndPan="magnify"><defs/><g><!--class ICatalogViewModelService--><g id="elem_ICatalogViewModelService"><rect codeLine="1" fill="#F1F1F1" height="96.8906" id="ICatalogViewModelService" rx="2.5" ry="2.5" style="stroke:#181818;stroke-width:0.5;" width="781" x="7" y="322.5"/><ellipse cx="303.75" cy="338.5" fill="#B4A7E5" rx="11" ry="11" style="stroke:#181818;stroke-width:1.0;"/><path d="M299.6719,334.2656 L299.6719,332.1094 L307.0625,332.1094 L307.0625,334.2656 L304.5938,334.2656 L304.5938,342.3438 L307.0625,342.3438 L307.0625,344.5 L299.6719,344.5 L299.6719,342.3438 L302.1406,342.3438 L302.1406,334.2656 L299.6719,334.2656 Z " fill="#000000"/><text fill="#000000" font-family="sans-serif" font-size="14" font-style="italic" lengthAdjust="spacing" textLength="179" x="324.25" y="343.3467">ICatalogViewModelService</text><line style="stroke:#181818;stroke-width:0.5;" x1="8" x2="787" y1="354.5" y2="354.5"/><line style="stroke:#181818;stroke-width:0.5;" x1="8" x2="787" y1="362.5" y2="362.5"/><ellipse cx="18" cy="376.1484" fill="#84BE84" rx="3" ry="3" style="stroke:#038048;stroke-width:1.0;"/><text fill="#000000" font-family="sans-serif" font-size="14" lengthAdjust="spacing" textLength="755" x="27" y="379.4951">GetCatalogItems(pageIndex : int, itemsPage : int, brandId : int?, typeId : int?) : Task&lt;CatalogIndexViewModel&gt;</text><ellipse cx="18" cy="392.4453" fill="#84BE84" rx="3" ry="3" style="stroke:#038048;stroke-width:1.0;"/><text fill="#000000" font-family="sans-serif" font-size="14" lengthAdjust="spacing" textLength="360" x="27" y="395.792">GetBrands() : Task&lt;IEnumerable&lt;SelectListItem&gt;&gt;</text><ellipse cx="18" cy="408.7422" fill="#84BE84" rx="3" ry="3" style="stroke:#038048;stroke-width:1.0;"/><text fill="#000000" font-family="sans-serif" font-size="14" lengthAdjust="spacing" textLength="353" x="27" y="412.0889">GetTypes() : Task&lt;IEnumerable&lt;SelectListItem&gt;&gt;</text></g><!--class CatalogItemViewModel--><g id="elem_CatalogItemViewModel"><rect codeLine="6" fill="#F1F1F1" height="129.4844" id="CatalogItemViewModel" rx="2.5" ry="2.5" style="stroke:#181818;stroke-width:0.5;" width="240" x="775.5" y="545.5"/><ellipse cx="813.9" cy="561.5" fill="#ADD1B2" rx="11" ry="11" style="stroke:#181818;stroke-width:1.0;"/><path d="M816.8688,567.1406 Q816.2906,567.4375 815.65,567.5781 Q815.0094,567.7344 814.3063,567.7344 Q811.8063,567.7344 810.4781,566.0938 Q809.1656,564.4375 809.1656,561.3125 Q809.1656,558.1875 810.4781,556.5313 Q811.8063,554.875 814.3063,554.875 Q815.0094,554.875 815.65,555.0313 Q816.3063,555.1875 816.8688,555.4844 L816.8688,558.2031 Q816.2438,557.625 815.65,557.3594 Q815.0563,557.0781 814.4313,557.0781 Q813.0875,557.0781 812.4,558.1563 Q811.7125,559.2188 811.7125,561.3125 Q811.7125,563.4063 812.4,564.4844 Q813.0875,565.5469 814.4313,565.5469 Q815.0563,565.5469 815.65,565.2813 Q816.2438,565 816.8688,564.4219 L816.8688,567.1406 Z " fill="#000000"/><text fill="#000000" font-family="sans-serif" font-size="14" lengthAdjust="spacing" textLength="156" x="833.1" y="566.3467">CatalogItemViewModel</text><line style="stroke:#181818;stroke-width:0.5;" x1="776.5" x2="1014.5" y1="577.5" y2="577.5"/><ellipse cx="786.5" cy="591.1484" fill="none" rx="3" ry="3" style="stroke:#038048;stroke-width:1.0;"/><text fill="#000000" font-family="sans-serif" font-size="14" lengthAdjust="spacing" textLength="131" x="795.5" y="594.4951">Id : int &#171;get&#187; &#171;set&#187;</text><ellipse cx="786.5" cy="607.4453" fill="none" rx="3" ry="3" style="stroke:#038048;stroke-width:1.0;"/><text fill="#000000" font-family="sans-serif" font-size="14" lengthAdjust="spacing" textLength="188" x="795.5" y="610.792">Name : string? &#171;get&#187; &#171;set&#187;</text><ellipse cx="786.5" cy="623.7422" fill="none" rx="3" ry="3" style="stroke:#038048;stroke-width:1.0;"/><text fill="#000000" font-family="sans-serif" font-size="14" lengthAdjust="spacing" textLength="214" x="795.5" y="627.0889">PictureUri : string? &#171;get&#187; &#171;set&#187;</text><ellipse cx="786.5" cy="640.0391" fill="none" rx="3" ry="3" style="stroke:#038048;stroke-width:1.0;"/><text fill="#000000" font-family="sans-serif" font-size="14" lengthAdjust="spacing" textLength="189" x="795.5" y="643.3857">Price : decimal &#171;get&#187; &#171;set&#187;</text><line style="stroke:#181818;stroke-width:0.5;" x1="776.5" x2="1014.5" y1="650.6875" y2="650.6875"/><ellipse cx="786.5" cy="664.3359" fill="#84BE84" rx="3" ry="3" style="stroke:#038048;stroke-width:1.0;"/><text fill="#000000" font-family="sans-serif" font-size="14" lengthAdjust="spacing" textLength="166" x="795.5" y="667.6826">CatalogItemViewModel()</text></g><!--class PaginationInfoViewModel--><g id="elem_PaginationInfoViewModel"><rect codeLine="13" fill="#F1F1F1" height="162.0781" id="PaginationInfoViewModel" rx="2.5" ry="2.5" style="stroke:#181818;stroke-width:0.5;" width="241" x="1051" y="529"/><ellipse cx="1083.1" cy="545" fill="#ADD1B2" rx="11" ry="11" style="stroke:#181818;stroke-width:1.0;"/><path d="M1086.0688,550.6406 Q1085.4906,550.9375 1084.85,551.0781 Q1084.2094,551.2344 1083.5063,551.2344 Q1081.0063,551.2344 1079.6781,549.5938 Q1078.3656,547.9375 1078.3656,544.8125 Q1078.3656,541.6875 1079.6781,540.0313 Q1081.0063,538.375 1083.5063,538.375 Q1084.2094,538.375 1084.85,538.5313 Q1085.5063,538.6875 1086.0688,538.9844 L1086.0688,541.7031 Q1085.4438,541.125 1084.85,540.8594 Q1084.2563,540.5781 1083.6313,540.5781 Q1082.2875,540.5781 1081.6,541.6563 Q1080.9125,542.7188 1080.9125,544.8125 Q1080.9125,546.9063 1081.6,547.9844 Q1082.2875,549.0469 1083.6313,549.0469 Q1084.2563,549.0469 1084.85,548.7813 Q1085.4438,548.5 1086.0688,547.9219 L1086.0688,550.6406 Z " fill="#000000"/><text fill="#000000" font-family="sans-serif" font-size="14" lengthAdjust="spacing" textLength="171" x="1100.9" y="549.8467">PaginationInfoViewModel</text><line style="stroke:#181818;stroke-width:0.5;" x1="1052" x2="1291" y1="561" y2="561"/><ellipse cx="1062" cy="574.6484" fill="none" rx="3" ry="3" style="stroke:#038048;stroke-width:1.0;"/><text fill="#000000" font-family="sans-serif" font-size="14" lengthAdjust="spacing" textLength="191" x="1071" y="577.9951">TotalItems : int &#171;get&#187; &#171;set&#187;</text><ellipse cx="1062" cy="590.9453" fill="none" rx="3" ry="3" style="stroke:#038048;stroke-width:1.0;"/><text fill="#000000" font-family="sans-serif" font-size="14" lengthAdjust="spacing" textLength="215" x="1071" y="594.292">ItemsPerPage : int &#171;get&#187; &#171;set&#187;</text><ellipse cx="1062" cy="607.2422" fill="none" rx="3" ry="3" style="stroke:#038048;stroke-width:1.0;"/><text fill="#000000" font-family="sans-serif" font-size="14" lengthAdjust="spacing" textLength="196" x="1071" y="610.5889">ActualPage : int &#171;get&#187; &#171;set&#187;</text><ellipse cx="1062" cy="623.5391" fill="none" rx="3" ry="3" style="stroke:#038048;stroke-width:1.0;"/><text fill="#000000" font-family="sans-serif" font-size="14" lengthAdjust="spacing" textLength="196" x="1071" y="626.8857">TotalPages : int &#171;get&#187; &#171;set&#187;</text><ellipse cx="1062" cy="639.8359" fill="none" rx="3" ry="3" style="stroke:#038048;stroke-width:1.0;"/><text fill="#000000" font-family="sans-serif" font-size="14" lengthAdjust="spacing" textLength="207" x="1071" y="643.1826">Previous : string? &#171;get&#187; &#171;set&#187;</text><ellipse cx="1062" cy="656.1328" fill="none" rx="3" ry="3" style="stroke:#038048;stroke-width:1.0;"/><text fill="#000000" font-family="sans-serif" font-size="14" lengthAdjust="spacing" textLength="179" x="1071" y="659.4795">Next : string? &#171;get&#187; &#171;set&#187;</text><line style="stroke:#181818;stroke-width:0.5;" x1="1052" x2="1291" y1="666.7813" y2="666.7813"/><ellipse cx="1062" cy="680.4297" fill="#84BE84" rx="3" ry="3" style="stroke:#038048;stroke-width:1.0;"/><text fill="#000000" font-family="sans-serif" font-size="14" lengthAdjust="spacing" textLength="181" x="1071" y="683.7764">PaginationInfoViewModel()</text></g><!--class CatalogIndexViewModel--><g id="elem_CatalogIndexViewModel"><rect codeLine="22" fill="#F1F1F1" height="162.0781" id="CatalogIndexViewModel" rx="2.5" ry="2.5" style="stroke:#181818;stroke-width:0.5;" width="421" x="823" y="290"/><ellipse cx="947.75" cy="306" fill="#ADD1B2" rx="11" ry="11" style="stroke:#181818;stroke-width:1.0;"/><path d="M950.7188,311.6406 Q950.1406,311.9375 949.5,312.0781 Q948.8594,312.2344 948.1563,312.2344 Q945.6563,312.2344 944.3281,310.5938 Q943.0156,308.9375 943.0156,305.8125 Q943.0156,302.6875 944.3281,301.0313 Q945.6563,299.375 948.1563,299.375 Q948.8594,299.375 949.5,299.5313 Q950.1563,299.6875 950.7188,299.9844 L950.7188,302.7031 Q950.0938,302.125 949.5,301.8594 Q948.9063,301.5781 948.2813,301.5781 Q946.9375,301.5781 946.25,302.6563 Q945.5625,303.7188 945.5625,305.8125 Q945.5625,307.9063 946.25,308.9844 Q946.9375,310.0469 948.2813,310.0469 Q948.9063,310.0469 949.5,309.7813 Q950.0938,309.5 950.7188,308.9219 L950.7188,311.6406 Z " fill="#000000"/><text fill="#000000" font-family="sans-serif" font-size="14" lengthAdjust="spacing" textLength="163" x="968.25" y="310.8467">CatalogIndexViewModel</text><line style="stroke:#181818;stroke-width:0.5;" x1="824" x2="1243" y1="322" y2="322"/><ellipse cx="834" cy="335.6484" fill="none" rx="3" ry="3" style="stroke:#038048;stroke-width:1.0;"/><text fill="#000000" font-family="sans-serif" font-size="14" lengthAdjust="spacing" textLength="395" x="843" y="338.9951">CatalogItems : List&lt;CatalogItemViewModel&gt; &#171;get&#187; &#171;set&#187;</text><ellipse cx="834" cy="351.9453" fill="none" rx="3" ry="3" style="stroke:#038048;stroke-width:1.0;"/><text fill="#000000" font-family="sans-serif" font-size="14" lengthAdjust="spacing" textLength="301" x="843" y="355.292">Brands : List&lt;SelectListItem&gt;? &#171;get&#187; &#171;set&#187;</text><ellipse cx="834" cy="368.2422" fill="none" rx="3" ry="3" style="stroke:#038048;stroke-width:1.0;"/><text fill="#000000" font-family="sans-serif" font-size="14" lengthAdjust="spacing" textLength="294" x="843" y="371.5889">Types : List&lt;SelectListItem&gt;? &#171;get&#187; &#171;set&#187;</text><ellipse cx="834" cy="384.5391" fill="none" rx="3" ry="3" style="stroke:#038048;stroke-width:1.0;"/><text fill="#000000" font-family="sans-serif" font-size="14" lengthAdjust="spacing" textLength="251" x="843" y="387.8857">BrandFilterApplied : int? &#171;get&#187; &#171;set&#187;</text><ellipse cx="834" cy="400.8359" fill="none" rx="3" ry="3" style="stroke:#038048;stroke-width:1.0;"/><text fill="#000000" font-family="sans-serif" font-size="14" lengthAdjust="spacing" textLength="252" x="843" y="404.1826">TypesFilterApplied : int? &#171;get&#187; &#171;set&#187;</text><ellipse cx="834" cy="417.1328" fill="none" rx="3" ry="3" style="stroke:#038048;stroke-width:1.0;"/><text fill="#000000" font-family="sans-serif" font-size="14" lengthAdjust="spacing" textLength="377" x="843" y="420.4795">PaginationInfo : PaginationInfoViewModel? &#171;get&#187; &#171;set&#187;</text><line style="stroke:#181818;stroke-width:0.5;" x1="824" x2="1243" y1="427.7813" y2="427.7813"/><ellipse cx="834" cy="441.4297" fill="#84BE84" rx="3" ry="3" style="stroke:#038048;stroke-width:1.0;"/><text fill="#000000" font-family="sans-serif" font-size="14" lengthAdjust="spacing" textLength="173" x="843" y="444.7764">CatalogIndexViewModel()</text></g><!--class IndexModel--><g id="elem_IndexModel"><rect codeLine="33" fill="#F1F1F1" height="96.8906" id="IndexModel" rx="2.5" ry="2.5" style="stroke:#181818;stroke-width:0.5;" width="549" x="647" y="116"/><ellipse cx="877.75" cy="132" fill="#ADD1B2" rx="11" ry="11" style="stroke:#181818;stroke-width:1.0;"/><path d="M880.7188,137.6406 Q880.1406,137.9375 879.5,138.0781 Q878.8594,138.2344 878.1563,138.2344 Q875.6563,138.2344 874.3281,136.5938 Q873.0156,134.9375 873.0156,131.8125 Q873.0156,128.6875 874.3281,127.0313 Q875.6563,125.375 878.1563,125.375 Q878.8594,125.375 879.5,125.5313 Q880.1563,125.6875 880.7188,125.9844 L880.7188,128.7031 Q880.0938,128.125 879.5,127.8594 Q878.9063,127.5781 878.2813,127.5781 Q876.9375,127.5781 876.25,128.6563 Q875.5625,129.7188 875.5625,131.8125 Q875.5625,133.9063 876.25,134.9844 Q876.9375,136.0469 878.2813,136.0469 Q878.9063,136.0469 879.5,135.7813 Q880.0938,135.5 880.7188,134.9219 L880.7188,137.6406 Z " fill="#000000"/><text fill="#000000" font-family="sans-serif" font-size="14" lengthAdjust="spacing" textLength="79" x="898.25" y="136.8467">IndexModel</text><line style="stroke:#181818;stroke-width:0.5;" x1="648" x2="1195" y1="148" y2="148"/><ellipse cx="658" cy="161.6484" fill="none" rx="3" ry="3" style="stroke:#038048;stroke-width:1.0;"/><text fill="#000000" font-family="sans-serif" font-size="14" lengthAdjust="spacing" textLength="439" x="667" y="164.9951">&#171;required&#187; CatalogModel : CatalogIndexViewModel &#171;get&#187; &#171;set&#187;</text><line style="stroke:#181818;stroke-width:0.5;" x1="648" x2="1195" y1="172.2969" y2="172.2969"/><ellipse cx="658" cy="185.9453" fill="#84BE84" rx="3" ry="3" style="stroke:#038048;stroke-width:1.0;"/><text fill="#000000" font-family="sans-serif" font-size="14" lengthAdjust="spacing" textLength="455" x="667" y="189.292">IndexModel(catalogViewModelService : ICatalogViewModelService)</text><ellipse cx="658" cy="202.2422" fill="#84BE84" rx="3" ry="3" style="stroke:#038048;stroke-width:1.0;"/><text fill="#000000" font-family="sans-serif" font-size="14" lengthAdjust="spacing" textLength="523" x="667" y="205.5889">&#171;async&#187; OnGet(catalogModel : CatalogIndexViewModel, pageId : int?) : Task</text></g><!--class PageModel--><g id="elem_PageModel"><rect fill="#F1F1F1" height="48" id="PageModel" rx="2.5" ry="2.5" style="stroke:#181818;stroke-width:0.5;" width="109" x="867" y="7"/><ellipse cx="882" cy="23" fill="#ADD1B2" rx="11" ry="11" style="stroke:#181818;stroke-width:1.0;"/><path d="M884.9688,28.6406 Q884.3906,28.9375 883.75,29.0781 Q883.1094,29.2344 882.4063,29.2344 Q879.9063,29.2344 878.5781,27.5938 Q877.2656,25.9375 877.2656,22.8125 Q877.2656,19.6875 878.5781,18.0313 Q879.9063,16.375 882.4063,16.375 Q883.1094,16.375 883.75,16.5313 Q884.4063,16.6875 884.9688,16.9844 L884.9688,19.7031 Q884.3438,19.125 883.75,18.8594 Q883.1563,18.5781 882.5313,18.5781 Q881.1875,18.5781 880.5,19.6563 Q879.8125,20.7188 879.8125,22.8125 Q879.8125,24.9063 880.5,25.9844 Q881.1875,27.0469 882.5313,27.0469 Q883.1563,27.0469 883.75,26.7813 Q884.3438,26.5 884.9688,25.9219 L884.9688,28.6406 Z " fill="#000000"/><text fill="#000000" font-family="sans-serif" font-size="14" lengthAdjust="spacing" textLength="77" x="896" y="27.8467">PageModel</text><line style="stroke:#181818;stroke-width:0.5;" x1="868" x2="975" y1="39" y2="39"/><line style="stroke:#181818;stroke-width:0.5;" x1="868" x2="975" y1="47" y2="47"/></g><!--reverse link CatalogIndexViewModel to CatalogItemViewModel--><g id="link_CatalogIndexViewModel_CatalogItemViewModel"><path codeLine="31" d="M979.85,464.14 C964.04,491.29 947.1,520.38 932.58,545.31 " fill="none" id="CatalogIndexViewModel-backto-CatalogItemViewModel" style="stroke:#181818;stroke-width:1.0;"/><polygon fill="#181818" points="986.78,453.24,980.3032,456.4103,980.7385,463.6082,987.2153,460.438,986.78,453.24" style="stroke:#181818;stroke-width:1.0;"/><text fill="#000000" font-family="sans-serif" font-size="13" lengthAdjust="spacing" textLength="85" x="970.5" y="495.0669">CatalogItems</text><text fill="#000000" font-family="sans-serif" font-size="13" lengthAdjust="spacing" textLength="7" x="929.2528" y="534.4619">*</text></g><!--reverse link CatalogIndexViewModel to PaginationInfoViewModel--><g id="link_CatalogIndexViewModel_PaginationInfoViewModel"><path codeLine="32" d="M1087.23,464.28 C1099.64,485.59 1112.75,508.1 1124.83,528.85 " fill="none" id="CatalogIndexViewModel-backto-PaginationInfoViewModel" style="stroke:#181818;stroke-width:1.0;"/><polygon fill="none" points="1080.22,453.24,1079.7847,460.438,1086.2615,463.6082,1086.6968,456.4103,1080.22,453.24" style="stroke:#181818;stroke-width:1.0;"/><text fill="#000000" font-family="sans-serif" font-size="13" lengthAdjust="spacing" textLength="90" x="1107.5" y="495.0669">PaginationInfo</text></g><!--reverse link PageModel to IndexModel--><g id="link_PageModel_IndexModel"><path codeLine="38" d="M921.5,75.81 C921.5,88.62 921.5,102.7 921.5,115.75 " fill="none" id="PageModel-backto-IndexModel" style="stroke:#181818;stroke-width:1.0;"/><polygon fill="none" points="914.5,76.21,921.5,56.21,928.5,76.21,914.5,76.21" style="stroke:#181818;stroke-width:1.0;"/></g><!--link IndexModel to ICatalogViewModelService--><g id="link_IndexModel_ICatalogViewModelService"><path codeLine="39" d="M798.65,213.45 C716.65,245.44 609.05,287.44 525.93,319.88 " fill="none" id="IndexModel-to-ICatalogViewModelService" style="stroke:#181818;stroke-width:1.0;stroke-dasharray:7.0,7.0;"/><polygon fill="#181818" points="521.49,322,531.3293,322.434,526.1441,320.1726,528.4055,314.9874,521.49,322" style="stroke:#181818;stroke-width:1.0;"/></g><!--reverse link IndexModel to CatalogIndexViewModel--><g id="link_IndexModel_CatalogIndexViewModel"><path codeLine="40" d="M911.92,226.81 C912.26,238.17 914.1,249.7 918.5,260 C922.95,270.42 928.93,280.32 935.82,289.6 " fill="none" id="IndexModel-backto-CatalogIndexViewModel" style="stroke:#181818;stroke-width:1.0;"/><polygon fill="#181818" points="912.19,214.12,908.0721,220.0397,911.9527,226.1177,916.0706,220.1979,912.19,214.12" style="stroke:#181818;stroke-width:1.0;"/><text fill="#000000" font-family="sans-serif" font-size="13" lengthAdjust="spacing" textLength="87" x="919.5" y="256.0669">CatalogModel</text></g><!--link IndexModel to CatalogIndexViewModel--><g id="link_IndexModel_CatalogIndexViewModel"><path codeLine="41" d="M988.26,213.3 C997.21,222.26 1005.4,232.24 1011.5,243 C1018.56,255.46 1023.47,269.63 1026.86,283.87 " fill="none" id="IndexModel-to-CatalogIndexViewModel" style="stroke:#181818;stroke-width:1.0;stroke-dasharray:7.0,7.0;"/><polygon fill="#181818" points="1028.13,288.54,1030.0494,278.88,1027.0287,283.6628,1022.2459,280.6421,1028.13,288.54" style="stroke:#181818;stroke-width:1.0;"/></g><!--SRC=[bLJRJW8n47tdAngVG84Fs3HBrAZPH944zBtiZgInTB4j257_tUcwzxIxiY_DJizSpfdfS6b0lR4OI7JB31FfvfN3vrEQW5Y2Ed2y85y3WjyLUG2JOo83MptSiGr4Ce4Z2GYNPaouDI_GMXZMYiaaIlv-PsDYJZieVqTuhfX-fqLG6whC7bP9RsmKFIpnqPtSRq6njG2w106nUUJQs9h2cjSAS_tNwMSG2wOrgT4h2wdu5vKJIZTWmX1FRS_yUiwsbhWsYilDp0DQyDZi5RmetWzLLls0913pBHCUbAlauQXaXDtWaXcUoaY-fGvIgnJzitvsaiiG2r1LTpt0Q-J7H2yiIsjHtMaN2WuytUjUiUPmDFsAkiMeoUKSnKgi-lXZDZj1rDM0q5F0toGNdgqnz5MT3VAPFbcYUoxmSL_lTe93yUYwSfo1Rog9M8-qivwfRUYSzS7TWSl9X5nSNhWVQD3eYoT2YX5yZw5TVZuCMOJs3YXjmzYpBmFlAXtbGIXLyB7d2X8K9iUsgJIhTwj8ATCd6QFzMUB6Aohg33KcsTfkBs5Kthx6FDitYbKn7TI4c4v3BxqwpZRCJILeC6x7Tlhy0W00]--></g></svg>