<?xml version="1.0" encoding="us-ascii" standalone="no"?><svg xmlns="http://www.w3.org/2000/svg" xmlns:xlink="http://www.w3.org/1999/xlink" contentStyleType="text/css" height="166px" preserveAspectRatio="none" style="width:302px;height:166px;background:#FFFFFF;" version="1.1" viewBox="0 0 302 166" width="302px" zoomAndPan="magnify"><defs/><g><!--class IndexViewModel--><g id="elem_IndexViewModel"><rect codeLine="1" fill="#F1F1F1" height="145.7813" id="IndexViewModel" rx="2.5" ry="2.5" style="stroke:#181818;stroke-width:0.5;" width="281" x="7" y="7"/><ellipse cx="87.75" cy="23" fill="#ADD1B2" rx="11" ry="11" style="stroke:#181818;stroke-width:1.0;"/><path d="M90.7188,28.6406 Q90.1406,28.9375 89.5,29.0781 Q88.8594,29.2344 88.1563,29.2344 Q85.6563,29.2344 84.3281,27.5938 Q83.0156,25.9375 83.0156,22.8125 Q83.0156,19.6875 84.3281,18.0313 Q85.6563,16.375 88.1563,16.375 Q88.8594,16.375 89.5,16.5313 Q90.1563,16.6875 90.7188,16.9844 L90.7188,19.7031 Q90.0938,19.125 89.5,18.8594 Q88.9063,18.5781 88.2813,18.5781 Q86.9375,18.5781 86.25,19.6563 Q85.5625,20.7188 85.5625,22.8125 Q85.5625,24.9063 86.25,25.9844 Q86.9375,27.0469 88.2813,27.0469 Q88.9063,27.0469 89.5,26.7813 Q90.0938,26.5 90.7188,25.9219 L90.7188,28.6406 Z " fill="#000000"/><text fill="#000000" font-family="sans-serif" font-size="14" lengthAdjust="spacing" textLength="111" x="108.25" y="27.8467">IndexViewModel</text><line style="stroke:#181818;stroke-width:0.5;" x1="8" x2="287" y1="39" y2="39"/><ellipse cx="18" cy="52.6484" fill="none" rx="3" ry="3" style="stroke:#038048;stroke-width:1.0;"/><text fill="#000000" font-family="sans-serif" font-size="14" lengthAdjust="spacing" textLength="219" x="27" y="55.9951">Username : string? &#171;get&#187; &#171;set&#187;</text><ellipse cx="18" cy="68.9453" fill="none" rx="3" ry="3" style="stroke:#038048;stroke-width:1.0;"/><text fill="#000000" font-family="sans-serif" font-size="14" lengthAdjust="spacing" textLength="250" x="27" y="72.292">IsEmailConfirmed : bool &#171;get&#187; &#171;set&#187;</text><ellipse cx="18" cy="85.2422" fill="none" rx="3" ry="3" style="stroke:#038048;stroke-width:1.0;"/><text fill="#000000" font-family="sans-serif" font-size="14" lengthAdjust="spacing" textLength="184" x="27" y="88.5889">Email : string? &#171;get&#187; &#171;set&#187;</text><ellipse cx="18" cy="101.5391" fill="none" rx="3" ry="3" style="stroke:#038048;stroke-width:1.0;"/><text fill="#000000" font-family="sans-serif" font-size="14" lengthAdjust="spacing" textLength="248" x="27" y="104.8857">PhoneNumber : string? &#171;get&#187; &#171;set&#187;</text><ellipse cx="18" cy="117.8359" fill="none" rx="3" ry="3" style="stroke:#038048;stroke-width:1.0;"/><text fill="#000000" font-family="sans-serif" font-size="14" lengthAdjust="spacing" textLength="255" x="27" y="121.1826">StatusMessage : string? &#171;get&#187; &#171;set&#187;</text><line style="stroke:#181818;stroke-width:0.5;" x1="8" x2="287" y1="128.4844" y2="128.4844"/><ellipse cx="18" cy="142.1328" fill="#84BE84" rx="3" ry="3" style="stroke:#038048;stroke-width:1.0;"/><text fill="#000000" font-family="sans-serif" font-size="14" lengthAdjust="spacing" textLength="121" x="27" y="145.4795">IndexViewModel()</text></g><!--SRC=[Iyv9B2vMyCnBIQq8oqmjzyrFISrHKAZcKW02RONGujIYlCJSL0KhXUAIeioyT7i56vlqr18xEo1T3AAX2ZsBNNCJCtESy_FICejoKrE06fBoytDmg0Qh9MXcG4P-NgfVQMvIQX51jS4bYIMbnRwfnSM9wKIu5iMx6ffSjG00]--></g></svg>