<?xml version="1.0" encoding="us-ascii" standalone="no"?><svg xmlns="http://www.w3.org/2000/svg" xmlns:xlink="http://www.w3.org/1999/xlink" contentStyleType="text/css" height="101px" preserveAspectRatio="none" style="width:429px;height:101px;background:#FFFFFF;" version="1.1" viewBox="0 0 429 101" width="429px" zoomAndPan="magnify"><defs/><g><!--class ExceptionMiddleware--><g id="elem_ExceptionMiddleware"><rect codeLine="1" fill="#F1F1F1" height="80.5938" id="ExceptionMiddleware" rx="2.5" ry="2.5" style="stroke:#181818;stroke-width:0.5;" width="408" x="7" y="7"/><ellipse cx="133.75" cy="23" fill="#ADD1B2" rx="11" ry="11" style="stroke:#181818;stroke-width:1.0;"/><path d="M136.7188,28.6406 Q136.1406,28.9375 135.5,29.0781 Q134.8594,29.2344 134.1563,29.2344 Q131.6563,29.2344 130.3281,27.5938 Q129.0156,25.9375 129.0156,22.8125 Q129.0156,19.6875 130.3281,18.0313 Q131.6563,16.375 134.1563,16.375 Q134.8594,16.375 135.5,16.5313 Q136.1563,16.6875 136.7188,16.9844 L136.7188,19.7031 Q136.0938,19.125 135.5,18.8594 Q134.9063,18.5781 134.2813,18.5781 Q132.9375,18.5781 132.25,19.6563 Q131.5625,20.7188 131.5625,22.8125 Q131.5625,24.9063 132.25,25.9844 Q132.9375,27.0469 134.2813,27.0469 Q134.9063,27.0469 135.5,26.7813 Q136.0938,26.5 136.7188,25.9219 L136.7188,28.6406 Z " fill="#000000"/><text fill="#000000" font-family="sans-serif" font-size="14" lengthAdjust="spacing" textLength="146" x="154.25" y="27.8467">ExceptionMiddleware</text><line style="stroke:#181818;stroke-width:0.5;" x1="8" x2="414" y1="39" y2="39"/><line style="stroke:#181818;stroke-width:0.5;" x1="8" x2="414" y1="47" y2="47"/><ellipse cx="18" cy="60.6484" fill="#84BE84" rx="3" ry="3" style="stroke:#038048;stroke-width:1.0;"/><text fill="#000000" font-family="sans-serif" font-size="14" lengthAdjust="spacing" textLength="321" x="27" y="63.9951">ExceptionMiddleware(next : RequestDelegate)</text><ellipse cx="18" cy="76.9453" fill="#84BE84" rx="3" ry="3" style="stroke:#038048;stroke-width:1.0;"/><text fill="#000000" font-family="sans-serif" font-size="14" lengthAdjust="spacing" textLength="382" x="27" y="80.292">&#171;async&#187; InvokeAsync(httpContext : HttpContext) : Task</text></g><!--SRC=[Iyv9B2vMSAr8JYqeoSpFyyrCISb9BKyiIbLGgEPI009jR98QUQaL9GfM2a6fXQMfnIKkgJcfwOabgPfG7JOsYSMLUSbsTWgUUMNvsQcE89v6Hab9WND-NWb4gmU2fmdaXYGMPtFL0W00]--></g></svg>