<?xml version="1.0" encoding="us-ascii" standalone="no"?><svg xmlns="http://www.w3.org/2000/svg" xmlns:xlink="http://www.w3.org/1999/xlink" contentStyleType="text/css" height="490px" preserveAspectRatio="none" style="width:339px;height:490px;background:#FFFFFF;" version="1.1" viewBox="0 0 339 490" width="339px" zoomAndPan="magnify"><defs/><g><!--class BaseMessage--><g id="elem_BaseMessage"><rect codeLine="1" fill="#F1F1F1" height="96.8906" id="BaseMessage" rx="2.5" ry="2.5" style="stroke:#181818;stroke-width:0.5;" width="168" x="85.5" y="7"/><ellipse cx="117.6" cy="23" fill="#A9DCDF" rx="11" ry="11" style="stroke:#181818;stroke-width:1.0;"/><path d="M117.7094,18.3438 L116.5531,23.4219 L118.8813,23.4219 L117.7094,18.3438 Z M116.225,16.1094 L119.2094,16.1094 L122.5688,28.5 L120.1156,28.5 L119.35,25.4375 L116.0688,25.4375 L115.3188,28.5 L112.8813,28.5 L116.225,16.1094 Z " fill="#000000"/><text fill="#000000" font-family="sans-serif" font-size="14" font-style="italic" lengthAdjust="spacing" textLength="98" x="135.4" y="27.8467">BaseMessage</text><line style="stroke:#181818;stroke-width:0.5;" x1="86.5" x2="252.5" y1="39" y2="39"/><polygon fill="none" points="96.5,47.6484,100.5,51.6484,96.5,55.6484,92.5,51.6484" style="stroke:#B38D22;stroke-width:1.0;"/><text fill="#000000" font-family="sans-serif" font-size="14" lengthAdjust="spacing" textLength="137" x="105.5" y="55.9951">_correlationId : Guid</text><line style="stroke:#181818;stroke-width:0.5;" x1="86.5" x2="252.5" y1="63.2969" y2="63.2969"/><ellipse cx="96.5" cy="76.9453" fill="#84BE84" rx="3" ry="3" style="stroke:#038048;stroke-width:1.0;"/><text fill="#000000" font-family="sans-serif" font-size="14" lengthAdjust="spacing" textLength="142" x="105.5" y="80.292">CorrelationId() : Guid</text><polygon fill="#FFFF44" points="96.5,88.2422,100.5,92.2422,96.5,96.2422,92.5,92.2422" style="stroke:#B38D22;stroke-width:1.0;"/><text fill="#000000" font-family="sans-serif" font-size="14" lengthAdjust="spacing" textLength="108" x="105.5" y="96.5889">BaseMessage()</text></g><!--class BaseResponse--><g id="elem_BaseResponse"><rect codeLine="6" fill="#F1F1F1" height="80.5938" id="BaseResponse" rx="2.5" ry="2.5" style="stroke:#181818;stroke-width:0.5;" width="272" x="33.5" y="164"/><ellipse cx="112.25" cy="180" fill="#A9DCDF" rx="11" ry="11" style="stroke:#181818;stroke-width:1.0;"/><path d="M112.3594,175.3438 L111.2031,180.4219 L113.5313,180.4219 L112.3594,175.3438 Z M110.875,173.1094 L113.8594,173.1094 L117.2188,185.5 L114.7656,185.5 L114,182.4375 L110.7188,182.4375 L109.9688,185.5 L107.5313,185.5 L110.875,173.1094 Z " fill="#000000"/><text fill="#000000" font-family="sans-serif" font-size="14" font-style="italic" lengthAdjust="spacing" textLength="106" x="132.75" y="184.8467">BaseResponse</text><line style="stroke:#181818;stroke-width:0.5;" x1="34.5" x2="304.5" y1="196" y2="196"/><line style="stroke:#181818;stroke-width:0.5;" x1="34.5" x2="304.5" y1="204" y2="204"/><ellipse cx="44.5" cy="217.6484" fill="#84BE84" rx="3" ry="3" style="stroke:#038048;stroke-width:1.0;"/><text fill="#000000" font-family="sans-serif" font-size="14" lengthAdjust="spacing" textLength="246" x="53.5" y="220.9951">BaseResponse(correlationId : Guid)</text><ellipse cx="44.5" cy="233.9453" fill="#84BE84" rx="3" ry="3" style="stroke:#038048;stroke-width:1.0;"/><text fill="#000000" font-family="sans-serif" font-size="14" lengthAdjust="spacing" textLength="116" x="53.5" y="237.292">BaseResponse()</text></g><!--class AuthenticateResponse--><g id="elem_AuthenticateResponse"><rect codeLine="11" fill="#F1F1F1" height="178.375" id="AuthenticateResponse" rx="2.5" ry="2.5" style="stroke:#181818;stroke-width:0.5;" width="325" x="7" y="305"/><ellipse cx="85.75" cy="321" fill="#ADD1B2" rx="11" ry="11" style="stroke:#181818;stroke-width:1.0;"/><path d="M88.7188,326.6406 Q88.1406,326.9375 87.5,327.0781 Q86.8594,327.2344 86.1563,327.2344 Q83.6563,327.2344 82.3281,325.5938 Q81.0156,323.9375 81.0156,320.8125 Q81.0156,317.6875 82.3281,316.0313 Q83.6563,314.375 86.1563,314.375 Q86.8594,314.375 87.5,314.5313 Q88.1563,314.6875 88.7188,314.9844 L88.7188,317.7031 Q88.0938,317.125 87.5,316.8594 Q86.9063,316.5781 86.2813,316.5781 Q84.9375,316.5781 84.25,317.6563 Q83.5625,318.7188 83.5625,320.8125 Q83.5625,322.9063 84.25,323.9844 Q84.9375,325.0469 86.2813,325.0469 Q86.9063,325.0469 87.5,324.7813 Q88.0938,324.5 88.7188,323.9219 L88.7188,326.6406 Z " fill="#000000"/><text fill="#000000" font-family="sans-serif" font-size="14" lengthAdjust="spacing" textLength="159" x="106.25" y="325.8467">AuthenticateResponse</text><line style="stroke:#181818;stroke-width:0.5;" x1="8" x2="331" y1="337" y2="337"/><ellipse cx="18" cy="350.6484" fill="none" rx="3" ry="3" style="stroke:#038048;stroke-width:1.0;"/><text fill="#000000" font-family="sans-serif" font-size="14" lengthAdjust="spacing" textLength="176" x="27" y="353.9951">Result : bool &#171;get&#187; &#171;set&#187;</text><ellipse cx="18" cy="366.9453" fill="none" rx="3" ry="3" style="stroke:#038048;stroke-width:1.0;"/><text fill="#000000" font-family="sans-serif" font-size="14" lengthAdjust="spacing" textLength="185" x="27" y="370.292">Token : string &#171;get&#187; &#171;set&#187;</text><ellipse cx="18" cy="383.2422" fill="none" rx="3" ry="3" style="stroke:#038048;stroke-width:1.0;"/><text fill="#000000" font-family="sans-serif" font-size="14" lengthAdjust="spacing" textLength="212" x="27" y="386.5889">Username : string &#171;get&#187; &#171;set&#187;</text><ellipse cx="18" cy="399.5391" fill="none" rx="3" ry="3" style="stroke:#038048;stroke-width:1.0;"/><text fill="#000000" font-family="sans-serif" font-size="14" lengthAdjust="spacing" textLength="218" x="27" y="402.8857">IsLockedOut : bool &#171;get&#187; &#171;set&#187;</text><ellipse cx="18" cy="415.8359" fill="none" rx="3" ry="3" style="stroke:#038048;stroke-width:1.0;"/><text fill="#000000" font-family="sans-serif" font-size="14" lengthAdjust="spacing" textLength="220" x="27" y="419.1826">IsNotAllowed : bool &#171;get&#187; &#171;set&#187;</text><ellipse cx="18" cy="432.1328" fill="none" rx="3" ry="3" style="stroke:#038048;stroke-width:1.0;"/><text fill="#000000" font-family="sans-serif" font-size="14" lengthAdjust="spacing" textLength="266" x="27" y="435.4795">RequiresTwoFactor : bool &#171;get&#187; &#171;set&#187;</text><line style="stroke:#181818;stroke-width:0.5;" x1="8" x2="331" y1="442.7813" y2="442.7813"/><ellipse cx="18" cy="456.4297" fill="#84BE84" rx="3" ry="3" style="stroke:#038048;stroke-width:1.0;"/><text fill="#000000" font-family="sans-serif" font-size="14" lengthAdjust="spacing" textLength="299" x="27" y="459.7764">AuthenticateResponse(correlationId : Guid)</text><ellipse cx="18" cy="472.7266" fill="#84BE84" rx="3" ry="3" style="stroke:#038048;stroke-width:1.0;"/><text fill="#000000" font-family="sans-serif" font-size="14" lengthAdjust="spacing" textLength="169" x="27" y="476.0732">AuthenticateResponse()</text></g><!--reverse link BaseMessage to BaseResponse--><g id="link_BaseMessage_BaseResponse"><path codeLine="10" d="M169.5,124.81 C169.5,138.2 169.5,151.82 169.5,163.88 " fill="none" id="BaseMessage-backto-BaseResponse" style="stroke:#181818;stroke-width:1.0;"/><polygon fill="none" points="162.5,125.23,169.5,105.23,176.5,125.23,162.5,125.23" style="stroke:#181818;stroke-width:1.0;"/></g><!--reverse link BaseResponse to AuthenticateResponse--><g id="link_BaseResponse_AuthenticateResponse"><path codeLine="21" d="M169.5,266.23 C169.5,278.52 169.5,291.67 169.5,304.69 " fill="none" id="BaseResponse-backto-AuthenticateResponse" style="stroke:#181818;stroke-width:1.0;"/><polygon fill="none" points="162.5,266.26,169.5,246.26,176.5,266.26,162.5,266.26" style="stroke:#181818;stroke-width:1.0;"/></g><!--SRC=[XP71QW9138Rl-nG1Bxk8Br0MmHPQ5be5iUSIPyDsS3hHIGOFsdVlgAsiTDIv1F9_oH_-mQLeGADW78h08mgzaGXs1B0h8Bq1V1WEWHogPT-qy00lqRP7RGXFVQci-kAWlwsiYky2_vlDITRivUmslEYMEUSg1nxMzu-lzwFH1L6SF2THFychDQWPxvnwyuRim9-O6j5fcbWoEwZhZdGyJbKEzPTPy8fyGb8mrdTNe7UXuF6Bxd6DlB9PKJkBTrmRcR9EdECjjRV9EMsY3IIBBJ-dd-Dm3J_5Vuxqc7ykdHy0]--></g></svg>