<?xml version="1.0" encoding="us-ascii" standalone="no"?><svg xmlns="http://www.w3.org/2000/svg" xmlns:xlink="http://www.w3.org/1999/xlink" contentStyleType="text/css" height="235px" preserveAspectRatio="none" style="width:184px;height:235px;background:#FFFFFF;" version="1.1" viewBox="0 0 184 235" width="184px" zoomAndPan="magnify"><defs/><g><!--class BaseMessage--><g id="elem_BaseMessage"><rect codeLine="1" fill="#F1F1F1" height="96.8906" id="BaseMessage" rx="2.5" ry="2.5" style="stroke:#181818;stroke-width:0.5;" width="168" x="9" y="7"/><ellipse cx="41.1" cy="23" fill="#A9DCDF" rx="11" ry="11" style="stroke:#181818;stroke-width:1.0;"/><path d="M41.2094,18.3438 L40.0531,23.4219 L42.3813,23.4219 L41.2094,18.3438 Z M39.725,16.1094 L42.7094,16.1094 L46.0688,28.5 L43.6156,28.5 L42.85,25.4375 L39.5688,25.4375 L38.8188,28.5 L36.3813,28.5 L39.725,16.1094 Z " fill="#000000"/><text fill="#000000" font-family="sans-serif" font-size="14" font-style="italic" lengthAdjust="spacing" textLength="98" x="58.9" y="27.8467">BaseMessage</text><line style="stroke:#181818;stroke-width:0.5;" x1="10" x2="176" y1="39" y2="39"/><polygon fill="none" points="20,47.6484,24,51.6484,20,55.6484,16,51.6484" style="stroke:#B38D22;stroke-width:1.0;"/><text fill="#000000" font-family="sans-serif" font-size="14" lengthAdjust="spacing" textLength="137" x="29" y="55.9951">_correlationId : Guid</text><line style="stroke:#181818;stroke-width:0.5;" x1="10" x2="176" y1="63.2969" y2="63.2969"/><ellipse cx="20" cy="76.9453" fill="#84BE84" rx="3" ry="3" style="stroke:#038048;stroke-width:1.0;"/><text fill="#000000" font-family="sans-serif" font-size="14" lengthAdjust="spacing" textLength="142" x="29" y="80.292">CorrelationId() : Guid</text><polygon fill="#FFFF44" points="20,88.2422,24,92.2422,20,96.2422,16,92.2422" style="stroke:#B38D22;stroke-width:1.0;"/><text fill="#000000" font-family="sans-serif" font-size="14" lengthAdjust="spacing" textLength="108" x="29" y="96.5889">BaseMessage()</text></g><!--class BaseRequest--><g id="elem_BaseRequest"><rect codeLine="6" fill="#F1F1F1" height="64.2969" id="BaseRequest" rx="2.5" ry="2.5" style="stroke:#181818;stroke-width:0.5;" width="130" x="28" y="164"/><ellipse cx="44.8" cy="180" fill="#A9DCDF" rx="11" ry="11" style="stroke:#181818;stroke-width:1.0;"/><path d="M44.9094,175.3438 L43.7531,180.4219 L46.0813,180.4219 L44.9094,175.3438 Z M43.425,173.1094 L46.4094,173.1094 L49.7688,185.5 L47.3156,185.5 L46.55,182.4375 L43.2688,182.4375 L42.5188,185.5 L40.0813,185.5 L43.425,173.1094 Z " fill="#000000"/><text fill="#000000" font-family="sans-serif" font-size="14" font-style="italic" lengthAdjust="spacing" textLength="94" x="59.2" y="184.8467">BaseRequest</text><line style="stroke:#181818;stroke-width:0.5;" x1="29" x2="157" y1="196" y2="196"/><line style="stroke:#181818;stroke-width:0.5;" x1="29" x2="157" y1="204" y2="204"/><polygon fill="#FFFF44" points="39,212.6484,43,216.6484,39,220.6484,35,216.6484" style="stroke:#B38D22;stroke-width:1.0;"/><text fill="#000000" font-family="sans-serif" font-size="14" lengthAdjust="spacing" textLength="104" x="48" y="220.9951">BaseRequest()</text></g><!--reverse link BaseMessage to BaseRequest--><g id="link_BaseMessage_BaseRequest"><path codeLine="9" d="M93,125.12 C93,138.66 93,152.24 93,163.77 " fill="none" id="BaseMessage-backto-BaseRequest" style="stroke:#181818;stroke-width:1.0;"/><polygon fill="none" points="86,125.16,93,105.16,100,125.16,86,125.16" style="stroke:#181818;stroke-width:1.0;"/></g><!--SRC=[IqmgBYbAJ2vHICv9B2vMS4eiJlLDBIvEJ4zLKAZcKW02PONuvFoYejISn9BC_3pF50Kh1VVIp1ImdBQ2CxAKXYQof3AoQHgQNBLSYPYM1QKMbgOMbo0iGn84wq5saKsDhYwo0W00]--></g></svg>