<?xml version="1.0" encoding="us-ascii" standalone="no"?><svg xmlns="http://www.w3.org/2000/svg" xmlns:xlink="http://www.w3.org/1999/xlink" contentStyleType="text/css" height="218px" preserveAspectRatio="none" style="width:417px;height:218px;background:#FFFFFF;" version="1.1" viewBox="0 0 417 218" width="417px" zoomAndPan="magnify"><defs/><g><!--class LoggerAdapter`1--><g id="elem_LoggerAdapter`1"><rect codeLine="1" fill="#F1F1F1" height="96.8906" id="LoggerAdapter`1" rx="2.5" ry="2.5" style="stroke:#181818;stroke-width:0.5;" width="399" x="7" y="115"/><ellipse cx="137.75" cy="131" fill="#ADD1B2" rx="11" ry="11" style="stroke:#181818;stroke-width:1.0;"/><path d="M140.7188,136.6406 Q140.1406,136.9375 139.5,137.0781 Q138.8594,137.2344 138.1563,137.2344 Q135.6563,137.2344 134.3281,135.5938 Q133.0156,133.9375 133.0156,130.8125 Q133.0156,127.6875 134.3281,126.0313 Q135.6563,124.375 138.1563,124.375 Q138.8594,124.375 139.5,124.5313 Q140.1563,124.6875 140.7188,124.9844 L140.7188,127.7031 Q140.0938,127.125 139.5,126.8594 Q138.9063,126.5781 138.2813,126.5781 Q136.9375,126.5781 136.25,127.6563 Q135.5625,128.7188 135.5625,130.8125 Q135.5625,132.9063 136.25,133.9844 Q136.9375,135.0469 138.2813,135.0469 Q138.9063,135.0469 139.5,134.7813 Q140.0938,134.5 140.7188,133.9219 L140.7188,136.6406 Z " fill="#000000"/><text fill="#000000" font-family="sans-serif" font-size="14" lengthAdjust="spacing" textLength="118" x="158.25" y="135.8467">LoggerAdapter`1</text><rect fill="#FFFFFF" height="15.9688" style="stroke:#181818;stroke-width:1.0;stroke-dasharray:2.0,2.0;" width="9" x="400" y="112"/><text fill="#000000" font-family="sans-serif" font-size="12" font-style="italic" lengthAdjust="spacing" textLength="7" x="401" y="124.1387">T</text><line style="stroke:#181818;stroke-width:0.5;" x1="8" x2="405" y1="147" y2="147"/><line style="stroke:#181818;stroke-width:0.5;" x1="8" x2="405" y1="155" y2="155"/><ellipse cx="18" cy="168.6484" fill="#84BE84" rx="3" ry="3" style="stroke:#038048;stroke-width:1.0;"/><text fill="#000000" font-family="sans-serif" font-size="14" lengthAdjust="spacing" textLength="320" x="27" y="171.9951">LoggerAdapter(loggerFactory : ILoggerFactory)</text><ellipse cx="18" cy="184.9453" fill="#84BE84" rx="3" ry="3" style="stroke:#038048;stroke-width:1.0;"/><text fill="#000000" font-family="sans-serif" font-size="14" lengthAdjust="spacing" textLength="352" x="27" y="188.292">LogWarning(message : string, args : object[]) : void</text><ellipse cx="18" cy="201.2422" fill="#84BE84" rx="3" ry="3" style="stroke:#038048;stroke-width:1.0;"/><text fill="#000000" font-family="sans-serif" font-size="14" lengthAdjust="spacing" textLength="373" x="27" y="204.5889">LogInformation(message : string, args : object[]) : void</text></g><!--class IAppLogger`1--><g id="elem_IAppLogger`1"><rect fill="#F1F1F1" height="48" id="IAppLogger`1" rx="2.5" ry="2.5" style="stroke:#181818;stroke-width:0.5;" width="126" x="143.5" y="7"/><ellipse cx="158.5" cy="23" fill="#ADD1B2" rx="11" ry="11" style="stroke:#181818;stroke-width:1.0;"/><path d="M161.4688,28.6406 Q160.8906,28.9375 160.25,29.0781 Q159.6094,29.2344 158.9063,29.2344 Q156.4063,29.2344 155.0781,27.5938 Q153.7656,25.9375 153.7656,22.8125 Q153.7656,19.6875 155.0781,18.0313 Q156.4063,16.375 158.9063,16.375 Q159.6094,16.375 160.25,16.5313 Q160.9063,16.6875 161.4688,16.9844 L161.4688,19.7031 Q160.8438,19.125 160.25,18.8594 Q159.6563,18.5781 159.0313,18.5781 Q157.6875,18.5781 157,19.6563 Q156.3125,20.7188 156.3125,22.8125 Q156.3125,24.9063 157,25.9844 Q157.6875,27.0469 159.0313,27.0469 Q159.6563,27.0469 160.25,26.7813 Q160.8438,26.5 161.4688,25.9219 L161.4688,28.6406 Z " fill="#000000"/><text fill="#000000" font-family="sans-serif" font-size="14" lengthAdjust="spacing" textLength="94" x="172.5" y="27.8467">IAppLogger`1</text><line style="stroke:#181818;stroke-width:0.5;" x1="144.5" x2="268.5" y1="39" y2="39"/><line style="stroke:#181818;stroke-width:0.5;" x1="144.5" x2="268.5" y1="47" y2="47"/></g><!--reverse link IAppLogger`1 to LoggerAdapter`1--><g id="link_IAppLogger`1_LoggerAdapter`1"><path codeLine="6" d="M206.5,75.95 C206.5,88.34 206.5,101.89 206.5,114.51 " fill="none" id="IAppLogger`1-backto-LoggerAdapter`1" style="stroke:#181818;stroke-width:1.0;stroke-dasharray:7.0,7.0;"/><polygon fill="none" points="199.5,76.33,206.5,56.33,213.5,76.33,199.5,76.33" style="stroke:#181818;stroke-width:1.0;"/></g><!--SRC=[Iyv9B2vMyCbFJqyjSan9B2X9BKemj0cnKr2evb800crKEOqSCCyjCRaalwXImKh1qmTPG1EX9ponA2ypBrqZDxMuE34z5QYqkAG8AA2Za5YKNWpavYTbfIQNHCTg0jbb-Paf2AsUUMdvHRc99PdvUIHeh-LIydGiA82u9y5GIS6cHazFGGdDQqe0]--></g></svg>