<?xml version="1.0" encoding="us-ascii" standalone="no"?><svg xmlns="http://www.w3.org/2000/svg" xmlns:xlink="http://www.w3.org/1999/xlink" contentStyleType="text/css" height="408px" preserveAspectRatio="none" style="width:379px;height:408px;background:#FFFFFF;" version="1.1" viewBox="0 0 379 408" width="379px" zoomAndPan="magnify"><defs/><g><!--class BaseMessage--><g id="elem_BaseMessage"><rect codeLine="1" fill="#F1F1F1" height="96.8906" id="BaseMessage" rx="2.5" ry="2.5" style="stroke:#181818;stroke-width:0.5;" width="168" x="105.5" y="7"/><ellipse cx="137.6" cy="23" fill="#A9DCDF" rx="11" ry="11" style="stroke:#181818;stroke-width:1.0;"/><path d="M137.7094,18.3438 L136.5531,23.4219 L138.8813,23.4219 L137.7094,18.3438 Z M136.225,16.1094 L139.2094,16.1094 L142.5688,28.5 L140.1156,28.5 L139.35,25.4375 L136.0688,25.4375 L135.3188,28.5 L132.8813,28.5 L136.225,16.1094 Z " fill="#000000"/><text fill="#000000" font-family="sans-serif" font-size="14" font-style="italic" lengthAdjust="spacing" textLength="98" x="155.4" y="27.8467">BaseMessage</text><line style="stroke:#181818;stroke-width:0.5;" x1="106.5" x2="272.5" y1="39" y2="39"/><polygon fill="none" points="116.5,47.6484,120.5,51.6484,116.5,55.6484,112.5,51.6484" style="stroke:#B38D22;stroke-width:1.0;"/><text fill="#000000" font-family="sans-serif" font-size="14" lengthAdjust="spacing" textLength="137" x="125.5" y="55.9951">_correlationId : Guid</text><line style="stroke:#181818;stroke-width:0.5;" x1="106.5" x2="272.5" y1="63.2969" y2="63.2969"/><ellipse cx="116.5" cy="76.9453" fill="#84BE84" rx="3" ry="3" style="stroke:#038048;stroke-width:1.0;"/><text fill="#000000" font-family="sans-serif" font-size="14" lengthAdjust="spacing" textLength="142" x="125.5" y="80.292">CorrelationId() : Guid</text><polygon fill="#FFFF44" points="116.5,88.2422,120.5,92.2422,116.5,96.2422,112.5,92.2422" style="stroke:#B38D22;stroke-width:1.0;"/><text fill="#000000" font-family="sans-serif" font-size="14" lengthAdjust="spacing" textLength="108" x="125.5" y="96.5889">BaseMessage()</text></g><!--class BaseResponse--><g id="elem_BaseResponse"><rect codeLine="6" fill="#F1F1F1" height="80.5938" id="BaseResponse" rx="2.5" ry="2.5" style="stroke:#181818;stroke-width:0.5;" width="272" x="53.5" y="164"/><ellipse cx="132.25" cy="180" fill="#A9DCDF" rx="11" ry="11" style="stroke:#181818;stroke-width:1.0;"/><path d="M132.3594,175.3438 L131.2031,180.4219 L133.5313,180.4219 L132.3594,175.3438 Z M130.875,173.1094 L133.8594,173.1094 L137.2188,185.5 L134.7656,185.5 L134,182.4375 L130.7188,182.4375 L129.9688,185.5 L127.5313,185.5 L130.875,173.1094 Z " fill="#000000"/><text fill="#000000" font-family="sans-serif" font-size="14" font-style="italic" lengthAdjust="spacing" textLength="106" x="152.75" y="184.8467">BaseResponse</text><line style="stroke:#181818;stroke-width:0.5;" x1="54.5" x2="324.5" y1="196" y2="196"/><line style="stroke:#181818;stroke-width:0.5;" x1="54.5" x2="324.5" y1="204" y2="204"/><ellipse cx="64.5" cy="217.6484" fill="#84BE84" rx="3" ry="3" style="stroke:#038048;stroke-width:1.0;"/><text fill="#000000" font-family="sans-serif" font-size="14" lengthAdjust="spacing" textLength="246" x="73.5" y="220.9951">BaseResponse(correlationId : Guid)</text><ellipse cx="64.5" cy="233.9453" fill="#84BE84" rx="3" ry="3" style="stroke:#038048;stroke-width:1.0;"/><text fill="#000000" font-family="sans-serif" font-size="14" lengthAdjust="spacing" textLength="116" x="73.5" y="237.292">BaseResponse()</text></g><!--class DeleteCatalogItemResponse--><g id="elem_DeleteCatalogItemResponse"><rect codeLine="11" fill="#F1F1F1" height="96.8906" id="DeleteCatalogItemResponse" rx="2.5" ry="2.5" style="stroke:#181818;stroke-width:0.5;" width="365" x="7" y="305"/><ellipse cx="85.75" cy="321" fill="#ADD1B2" rx="11" ry="11" style="stroke:#181818;stroke-width:1.0;"/><path d="M88.7188,326.6406 Q88.1406,326.9375 87.5,327.0781 Q86.8594,327.2344 86.1563,327.2344 Q83.6563,327.2344 82.3281,325.5938 Q81.0156,323.9375 81.0156,320.8125 Q81.0156,317.6875 82.3281,316.0313 Q83.6563,314.375 86.1563,314.375 Q86.8594,314.375 87.5,314.5313 Q88.1563,314.6875 88.7188,314.9844 L88.7188,317.7031 Q88.0938,317.125 87.5,316.8594 Q86.9063,316.5781 86.2813,316.5781 Q84.9375,316.5781 84.25,317.6563 Q83.5625,318.7188 83.5625,320.8125 Q83.5625,322.9063 84.25,323.9844 Q84.9375,325.0469 86.2813,325.0469 Q86.9063,325.0469 87.5,324.7813 Q88.0938,324.5 88.7188,323.9219 L88.7188,326.6406 Z " fill="#000000"/><text fill="#000000" font-family="sans-serif" font-size="14" lengthAdjust="spacing" textLength="199" x="106.25" y="325.8467">DeleteCatalogItemResponse</text><line style="stroke:#181818;stroke-width:0.5;" x1="8" x2="371" y1="337" y2="337"/><ellipse cx="18" cy="350.6484" fill="none" rx="3" ry="3" style="stroke:#038048;stroke-width:1.0;"/><text fill="#000000" font-family="sans-serif" font-size="14" lengthAdjust="spacing" textLength="185" x="27" y="353.9951">Status : string &#171;get&#187; &#171;set&#187;</text><line style="stroke:#181818;stroke-width:0.5;" x1="8" x2="371" y1="361.2969" y2="361.2969"/><ellipse cx="18" cy="374.9453" fill="#84BE84" rx="3" ry="3" style="stroke:#038048;stroke-width:1.0;"/><text fill="#000000" font-family="sans-serif" font-size="14" lengthAdjust="spacing" textLength="339" x="27" y="378.292">DeleteCatalogItemResponse(correlationId : Guid)</text><ellipse cx="18" cy="391.2422" fill="#84BE84" rx="3" ry="3" style="stroke:#038048;stroke-width:1.0;"/><text fill="#000000" font-family="sans-serif" font-size="14" lengthAdjust="spacing" textLength="209" x="27" y="394.5889">DeleteCatalogItemResponse()</text></g><!--reverse link BaseMessage to BaseResponse--><g id="link_BaseMessage_BaseResponse"><path codeLine="10" d="M189.5,124.81 C189.5,138.2 189.5,151.82 189.5,163.88 " fill="none" id="BaseMessage-backto-BaseResponse" style="stroke:#181818;stroke-width:1.0;"/><polygon fill="none" points="182.5,125.23,189.5,105.23,196.5,125.23,182.5,125.23" style="stroke:#181818;stroke-width:1.0;"/></g><!--reverse link BaseResponse to DeleteCatalogItemResponse--><g id="link_BaseResponse_DeleteCatalogItemResponse"><path codeLine="16" d="M189.5,266.08 C189.5,278.91 189.5,292.29 189.5,304.58 " fill="none" id="BaseResponse-backto-DeleteCatalogItemResponse" style="stroke:#181818;stroke-width:1.0;"/><polygon fill="none" points="182.5,266.28,189.5,246.28,196.5,266.28,182.5,266.28" style="stroke:#181818;stroke-width:1.0;"/></g><!--SRC=[VL112eD03BplAm9U5F43HJpKGl7WfNr0IJKimjOj9fxQ_hshRML5RIw1p6Hc4hooT5W9L0QPOOzC9J6Z9e270bS1N2hRTMHG6jiMDUpWs3VrYCMG-r0O-M3WguMHUYbScfs8xxRboIsUJSCrvsYDECZxuTDdaimOwkDv84D2EGeQgmkXspB09kLlcksj7-CiA3sxDVU4fjMGffeaorpdeNyFcFAC5soglW40]--></g></svg>