<?xml version="1.0" encoding="us-ascii" standalone="no"?><svg xmlns="http://www.w3.org/2000/svg" xmlns:xlink="http://www.w3.org/1999/xlink" contentStyleType="text/css" height="415px" preserveAspectRatio="none" style="width:530px;height:415px;background:#FFFFFF;" version="1.1" viewBox="0 0 530 415" width="530px" zoomAndPan="magnify"><defs/><g><!--class CatalogItemViewModel--><g id="elem_CatalogItemViewModel"><rect codeLine="1" fill="#F1F1F1" height="129.4844" id="CatalogItemViewModel" rx="2.5" ry="2.5" style="stroke:#181818;stroke-width:0.5;" width="240" x="7" y="262.5"/><ellipse cx="45.4" cy="278.5" fill="#ADD1B2" rx="11" ry="11" style="stroke:#181818;stroke-width:1.0;"/><path d="M48.3688,284.1406 Q47.7906,284.4375 47.15,284.5781 Q46.5094,284.7344 45.8063,284.7344 Q43.3063,284.7344 41.9781,283.0938 Q40.6656,281.4375 40.6656,278.3125 Q40.6656,275.1875 41.9781,273.5313 Q43.3063,271.875 45.8063,271.875 Q46.5094,271.875 47.15,272.0313 Q47.8063,272.1875 48.3688,272.4844 L48.3688,275.2031 Q47.7438,274.625 47.15,274.3594 Q46.5563,274.0781 45.9313,274.0781 Q44.5875,274.0781 43.9,275.1563 Q43.2125,276.2188 43.2125,278.3125 Q43.2125,280.4063 43.9,281.4844 Q44.5875,282.5469 45.9313,282.5469 Q46.5563,282.5469 47.15,282.2813 Q47.7438,282 48.3688,281.4219 L48.3688,284.1406 Z " fill="#000000"/><text fill="#000000" font-family="sans-serif" font-size="14" lengthAdjust="spacing" textLength="156" x="64.6" y="283.3467">CatalogItemViewModel</text><line style="stroke:#181818;stroke-width:0.5;" x1="8" x2="246" y1="294.5" y2="294.5"/><ellipse cx="18" cy="308.1484" fill="none" rx="3" ry="3" style="stroke:#038048;stroke-width:1.0;"/><text fill="#000000" font-family="sans-serif" font-size="14" lengthAdjust="spacing" textLength="131" x="27" y="311.4951">Id : int &#171;get&#187; &#171;set&#187;</text><ellipse cx="18" cy="324.4453" fill="none" rx="3" ry="3" style="stroke:#038048;stroke-width:1.0;"/><text fill="#000000" font-family="sans-serif" font-size="14" lengthAdjust="spacing" textLength="188" x="27" y="327.792">Name : string? &#171;get&#187; &#171;set&#187;</text><ellipse cx="18" cy="340.7422" fill="none" rx="3" ry="3" style="stroke:#038048;stroke-width:1.0;"/><text fill="#000000" font-family="sans-serif" font-size="14" lengthAdjust="spacing" textLength="214" x="27" y="344.0889">PictureUri : string? &#171;get&#187; &#171;set&#187;</text><ellipse cx="18" cy="357.0391" fill="none" rx="3" ry="3" style="stroke:#038048;stroke-width:1.0;"/><text fill="#000000" font-family="sans-serif" font-size="14" lengthAdjust="spacing" textLength="189" x="27" y="360.3857">Price : decimal &#171;get&#187; &#171;set&#187;</text><line style="stroke:#181818;stroke-width:0.5;" x1="8" x2="246" y1="367.6875" y2="367.6875"/><ellipse cx="18" cy="381.3359" fill="#84BE84" rx="3" ry="3" style="stroke:#038048;stroke-width:1.0;"/><text fill="#000000" font-family="sans-serif" font-size="14" lengthAdjust="spacing" textLength="166" x="27" y="384.6826">CatalogItemViewModel()</text></g><!--class PaginationInfoViewModel--><g id="elem_PaginationInfoViewModel"><rect codeLine="8" fill="#F1F1F1" height="162.0781" id="PaginationInfoViewModel" rx="2.5" ry="2.5" style="stroke:#181818;stroke-width:0.5;" width="241" x="282.5" y="246"/><ellipse cx="314.6" cy="262" fill="#ADD1B2" rx="11" ry="11" style="stroke:#181818;stroke-width:1.0;"/><path d="M317.5688,267.6406 Q316.9906,267.9375 316.35,268.0781 Q315.7094,268.2344 315.0063,268.2344 Q312.5063,268.2344 311.1781,266.5938 Q309.8656,264.9375 309.8656,261.8125 Q309.8656,258.6875 311.1781,257.0313 Q312.5063,255.375 315.0063,255.375 Q315.7094,255.375 316.35,255.5313 Q317.0063,255.6875 317.5688,255.9844 L317.5688,258.7031 Q316.9438,258.125 316.35,257.8594 Q315.7563,257.5781 315.1313,257.5781 Q313.7875,257.5781 313.1,258.6563 Q312.4125,259.7188 312.4125,261.8125 Q312.4125,263.9063 313.1,264.9844 Q313.7875,266.0469 315.1313,266.0469 Q315.7563,266.0469 316.35,265.7813 Q316.9438,265.5 317.5688,264.9219 L317.5688,267.6406 Z " fill="#000000"/><text fill="#000000" font-family="sans-serif" font-size="14" lengthAdjust="spacing" textLength="171" x="332.4" y="266.8467">PaginationInfoViewModel</text><line style="stroke:#181818;stroke-width:0.5;" x1="283.5" x2="522.5" y1="278" y2="278"/><ellipse cx="293.5" cy="291.6484" fill="none" rx="3" ry="3" style="stroke:#038048;stroke-width:1.0;"/><text fill="#000000" font-family="sans-serif" font-size="14" lengthAdjust="spacing" textLength="191" x="302.5" y="294.9951">TotalItems : int &#171;get&#187; &#171;set&#187;</text><ellipse cx="293.5" cy="307.9453" fill="none" rx="3" ry="3" style="stroke:#038048;stroke-width:1.0;"/><text fill="#000000" font-family="sans-serif" font-size="14" lengthAdjust="spacing" textLength="215" x="302.5" y="311.292">ItemsPerPage : int &#171;get&#187; &#171;set&#187;</text><ellipse cx="293.5" cy="324.2422" fill="none" rx="3" ry="3" style="stroke:#038048;stroke-width:1.0;"/><text fill="#000000" font-family="sans-serif" font-size="14" lengthAdjust="spacing" textLength="196" x="302.5" y="327.5889">ActualPage : int &#171;get&#187; &#171;set&#187;</text><ellipse cx="293.5" cy="340.5391" fill="none" rx="3" ry="3" style="stroke:#038048;stroke-width:1.0;"/><text fill="#000000" font-family="sans-serif" font-size="14" lengthAdjust="spacing" textLength="196" x="302.5" y="343.8857">TotalPages : int &#171;get&#187; &#171;set&#187;</text><ellipse cx="293.5" cy="356.8359" fill="none" rx="3" ry="3" style="stroke:#038048;stroke-width:1.0;"/><text fill="#000000" font-family="sans-serif" font-size="14" lengthAdjust="spacing" textLength="207" x="302.5" y="360.1826">Previous : string? &#171;get&#187; &#171;set&#187;</text><ellipse cx="293.5" cy="373.1328" fill="none" rx="3" ry="3" style="stroke:#038048;stroke-width:1.0;"/><text fill="#000000" font-family="sans-serif" font-size="14" lengthAdjust="spacing" textLength="179" x="302.5" y="376.4795">Next : string? &#171;get&#187; &#171;set&#187;</text><line style="stroke:#181818;stroke-width:0.5;" x1="283.5" x2="522.5" y1="383.7813" y2="383.7813"/><ellipse cx="293.5" cy="397.4297" fill="#84BE84" rx="3" ry="3" style="stroke:#038048;stroke-width:1.0;"/><text fill="#000000" font-family="sans-serif" font-size="14" lengthAdjust="spacing" textLength="181" x="302.5" y="400.7764">PaginationInfoViewModel()</text></g><!--class CatalogIndexViewModel--><g id="elem_CatalogIndexViewModel"><rect codeLine="17" fill="#F1F1F1" height="162.0781" id="CatalogIndexViewModel" rx="2.5" ry="2.5" style="stroke:#181818;stroke-width:0.5;" width="421" x="54.5" y="7"/><ellipse cx="179.25" cy="23" fill="#ADD1B2" rx="11" ry="11" style="stroke:#181818;stroke-width:1.0;"/><path d="M182.2188,28.6406 Q181.6406,28.9375 181,29.0781 Q180.3594,29.2344 179.6563,29.2344 Q177.1563,29.2344 175.8281,27.5938 Q174.5156,25.9375 174.5156,22.8125 Q174.5156,19.6875 175.8281,18.0313 Q177.1563,16.375 179.6563,16.375 Q180.3594,16.375 181,16.5313 Q181.6563,16.6875 182.2188,16.9844 L182.2188,19.7031 Q181.5938,19.125 181,18.8594 Q180.4063,18.5781 179.7813,18.5781 Q178.4375,18.5781 177.75,19.6563 Q177.0625,20.7188 177.0625,22.8125 Q177.0625,24.9063 177.75,25.9844 Q178.4375,27.0469 179.7813,27.0469 Q180.4063,27.0469 181,26.7813 Q181.5938,26.5 182.2188,25.9219 L182.2188,28.6406 Z " fill="#000000"/><text fill="#000000" font-family="sans-serif" font-size="14" lengthAdjust="spacing" textLength="163" x="199.75" y="27.8467">CatalogIndexViewModel</text><line style="stroke:#181818;stroke-width:0.5;" x1="55.5" x2="474.5" y1="39" y2="39"/><ellipse cx="65.5" cy="52.6484" fill="none" rx="3" ry="3" style="stroke:#038048;stroke-width:1.0;"/><text fill="#000000" font-family="sans-serif" font-size="14" lengthAdjust="spacing" textLength="395" x="74.5" y="55.9951">CatalogItems : List&lt;CatalogItemViewModel&gt; &#171;get&#187; &#171;set&#187;</text><ellipse cx="65.5" cy="68.9453" fill="none" rx="3" ry="3" style="stroke:#038048;stroke-width:1.0;"/><text fill="#000000" font-family="sans-serif" font-size="14" lengthAdjust="spacing" textLength="301" x="74.5" y="72.292">Brands : List&lt;SelectListItem&gt;? &#171;get&#187; &#171;set&#187;</text><ellipse cx="65.5" cy="85.2422" fill="none" rx="3" ry="3" style="stroke:#038048;stroke-width:1.0;"/><text fill="#000000" font-family="sans-serif" font-size="14" lengthAdjust="spacing" textLength="294" x="74.5" y="88.5889">Types : List&lt;SelectListItem&gt;? &#171;get&#187; &#171;set&#187;</text><ellipse cx="65.5" cy="101.5391" fill="none" rx="3" ry="3" style="stroke:#038048;stroke-width:1.0;"/><text fill="#000000" font-family="sans-serif" font-size="14" lengthAdjust="spacing" textLength="251" x="74.5" y="104.8857">BrandFilterApplied : int? &#171;get&#187; &#171;set&#187;</text><ellipse cx="65.5" cy="117.8359" fill="none" rx="3" ry="3" style="stroke:#038048;stroke-width:1.0;"/><text fill="#000000" font-family="sans-serif" font-size="14" lengthAdjust="spacing" textLength="252" x="74.5" y="121.1826">TypesFilterApplied : int? &#171;get&#187; &#171;set&#187;</text><ellipse cx="65.5" cy="134.1328" fill="none" rx="3" ry="3" style="stroke:#038048;stroke-width:1.0;"/><text fill="#000000" font-family="sans-serif" font-size="14" lengthAdjust="spacing" textLength="377" x="74.5" y="137.4795">PaginationInfo : PaginationInfoViewModel? &#171;get&#187; &#171;set&#187;</text><line style="stroke:#181818;stroke-width:0.5;" x1="55.5" x2="474.5" y1="144.7813" y2="144.7813"/><ellipse cx="65.5" cy="158.4297" fill="#84BE84" rx="3" ry="3" style="stroke:#038048;stroke-width:1.0;"/><text fill="#000000" font-family="sans-serif" font-size="14" lengthAdjust="spacing" textLength="173" x="74.5" y="161.7764">CatalogIndexViewModel()</text></g><!--reverse link CatalogIndexViewModel to CatalogItemViewModel--><g id="link_CatalogIndexViewModel_CatalogItemViewModel"><path codeLine="26" d="M211.35,181.14 C195.54,208.29 178.6,237.38 164.08,262.31 " fill="none" id="CatalogIndexViewModel-backto-CatalogItemViewModel" style="stroke:#181818;stroke-width:1.0;"/><polygon fill="#181818" points="218.28,170.24,211.8032,173.4103,212.2385,180.6082,218.7153,177.438,218.28,170.24" style="stroke:#181818;stroke-width:1.0;"/><text fill="#000000" font-family="sans-serif" font-size="13" lengthAdjust="spacing" textLength="85" x="202" y="212.0669">CatalogItems</text><text fill="#000000" font-family="sans-serif" font-size="13" lengthAdjust="spacing" textLength="7" x="160.7528" y="251.4619">*</text></g><!--reverse link CatalogIndexViewModel to PaginationInfoViewModel--><g id="link_CatalogIndexViewModel_PaginationInfoViewModel"><path codeLine="27" d="M318.73,181.28 C331.14,202.59 344.25,225.1 356.33,245.85 " fill="none" id="CatalogIndexViewModel-backto-PaginationInfoViewModel" style="stroke:#181818;stroke-width:1.0;"/><polygon fill="none" points="311.72,170.24,311.2847,177.438,317.7615,180.6082,318.1968,173.4103,311.72,170.24" style="stroke:#181818;stroke-width:1.0;"/><text fill="#000000" font-family="sans-serif" font-size="13" lengthAdjust="spacing" textLength="90" x="339" y="212.0669">PaginationInfo</text></g><!--SRC=[bPFVQiCW5CRlynJIgwsZBr12IZSe1BOIMBTxqRDmm6ZGqwrZxDsdqercQAJUAFZxpf_lg53SEVR0YIlJjmJ3AyB7av6W6Fkgc5zth9LipL0Jg-iUg6dyxi9-ljxp0JpWoABkDnceGq572oyMowX54G9A43XmbQ5I9T_SLj-LY1rrl4VD2OrkzPj9D7KmNX_KRhQvI7HWVJoO1RU-FwwAM4mRgFcqdOLtD4TND6iF9oexcZRZmgvVDxM4KyAi2xD3IO_eg4uDeCaKS6-vbd_APr0WA1o3kCbLVVWSuLfDJBH3HM2tuwWGpaztDiSL_DH9psQitHHUxSJdE8Vq19Qh5Lii5-aFkfxC9HF1-0Yvp_2__1y0]--></g></svg>