<?xml version="1.0" encoding="us-ascii" standalone="no"?><svg xmlns="http://www.w3.org/2000/svg" xmlns:xlink="http://www.w3.org/1999/xlink" contentStyleType="text/css" height="682px" preserveAspectRatio="none" style="width:400px;height:682px;background:#FFFFFF;" version="1.1" viewBox="0 0 400 682" width="400px" zoomAndPan="magnify"><defs/><g><!--class BaseMessage--><g id="elem_BaseMessage"><rect codeLine="1" fill="#F1F1F1" height="96.8906" id="BaseMessage" rx="2.5" ry="2.5" style="stroke:#181818;stroke-width:0.5;" width="168" x="116" y="7"/><ellipse cx="148.1" cy="23" fill="#A9DCDF" rx="11" ry="11" style="stroke:#181818;stroke-width:1.0;"/><path d="M148.2094,18.3438 L147.0531,23.4219 L149.3813,23.4219 L148.2094,18.3438 Z M146.725,16.1094 L149.7094,16.1094 L153.0688,28.5 L150.6156,28.5 L149.85,25.4375 L146.5688,25.4375 L145.8188,28.5 L143.3813,28.5 L146.725,16.1094 Z " fill="#000000"/><text fill="#000000" font-family="sans-serif" font-size="14" font-style="italic" lengthAdjust="spacing" textLength="98" x="165.9" y="27.8467">BaseMessage</text><line style="stroke:#181818;stroke-width:0.5;" x1="117" x2="283" y1="39" y2="39"/><polygon fill="none" points="127,47.6484,131,51.6484,127,55.6484,123,51.6484" style="stroke:#B38D22;stroke-width:1.0;"/><text fill="#000000" font-family="sans-serif" font-size="14" lengthAdjust="spacing" textLength="137" x="136" y="55.9951">_correlationId : Guid</text><line style="stroke:#181818;stroke-width:0.5;" x1="117" x2="283" y1="63.2969" y2="63.2969"/><ellipse cx="127" cy="76.9453" fill="#84BE84" rx="3" ry="3" style="stroke:#038048;stroke-width:1.0;"/><text fill="#000000" font-family="sans-serif" font-size="14" lengthAdjust="spacing" textLength="142" x="136" y="80.292">CorrelationId() : Guid</text><polygon fill="#FFFF44" points="127,88.2422,131,92.2422,127,96.2422,123,92.2422" style="stroke:#B38D22;stroke-width:1.0;"/><text fill="#000000" font-family="sans-serif" font-size="14" lengthAdjust="spacing" textLength="108" x="136" y="96.5889">BaseMessage()</text></g><!--class BaseResponse--><g id="elem_BaseResponse"><rect codeLine="6" fill="#F1F1F1" height="80.5938" id="BaseResponse" rx="2.5" ry="2.5" style="stroke:#181818;stroke-width:0.5;" width="272" x="64" y="165"/><ellipse cx="142.75" cy="181" fill="#A9DCDF" rx="11" ry="11" style="stroke:#181818;stroke-width:1.0;"/><path d="M142.8594,176.3438 L141.7031,181.4219 L144.0313,181.4219 L142.8594,176.3438 Z M141.375,174.1094 L144.3594,174.1094 L147.7188,186.5 L145.2656,186.5 L144.5,183.4375 L141.2188,183.4375 L140.4688,186.5 L138.0313,186.5 L141.375,174.1094 Z " fill="#000000"/><text fill="#000000" font-family="sans-serif" font-size="14" font-style="italic" lengthAdjust="spacing" textLength="106" x="163.25" y="185.8467">BaseResponse</text><line style="stroke:#181818;stroke-width:0.5;" x1="65" x2="335" y1="197" y2="197"/><line style="stroke:#181818;stroke-width:0.5;" x1="65" x2="335" y1="205" y2="205"/><ellipse cx="75" cy="218.6484" fill="#84BE84" rx="3" ry="3" style="stroke:#038048;stroke-width:1.0;"/><text fill="#000000" font-family="sans-serif" font-size="14" lengthAdjust="spacing" textLength="246" x="84" y="221.9951">BaseResponse(correlationId : Guid)</text><ellipse cx="75" cy="234.9453" fill="#84BE84" rx="3" ry="3" style="stroke:#038048;stroke-width:1.0;"/><text fill="#000000" font-family="sans-serif" font-size="14" lengthAdjust="spacing" textLength="116" x="84" y="238.292">BaseResponse()</text></g><!--class CatalogItemDto--><g id="elem_CatalogItemDto"><rect codeLine="11" fill="#F1F1F1" height="178.375" id="CatalogItemDto" rx="2.5" ry="2.5" style="stroke:#181818;stroke-width:0.5;" width="250" x="75" y="497"/><ellipse cx="142.25" cy="513" fill="#ADD1B2" rx="11" ry="11" style="stroke:#181818;stroke-width:1.0;"/><path d="M145.2188,518.6406 Q144.6406,518.9375 144,519.0781 Q143.3594,519.2344 142.6563,519.2344 Q140.1563,519.2344 138.8281,517.5938 Q137.5156,515.9375 137.5156,512.8125 Q137.5156,509.6875 138.8281,508.0313 Q140.1563,506.375 142.6563,506.375 Q143.3594,506.375 144,506.5313 Q144.6563,506.6875 145.2188,506.9844 L145.2188,509.7031 Q144.5938,509.125 144,508.8594 Q143.4063,508.5781 142.7813,508.5781 Q141.4375,508.5781 140.75,509.6563 Q140.0625,510.7188 140.0625,512.8125 Q140.0625,514.9063 140.75,515.9844 Q141.4375,517.0469 142.7813,517.0469 Q143.4063,517.0469 144,516.7813 Q144.5938,516.5 145.2188,515.9219 L145.2188,518.6406 Z " fill="#000000"/><text fill="#000000" font-family="sans-serif" font-size="14" lengthAdjust="spacing" textLength="107" x="162.75" y="517.8467">CatalogItemDto</text><line style="stroke:#181818;stroke-width:0.5;" x1="76" x2="324" y1="529" y2="529"/><ellipse cx="86" cy="542.6484" fill="none" rx="3" ry="3" style="stroke:#038048;stroke-width:1.0;"/><text fill="#000000" font-family="sans-serif" font-size="14" lengthAdjust="spacing" textLength="131" x="95" y="545.9951">Id : int &#171;get&#187; &#171;set&#187;</text><ellipse cx="86" cy="558.9453" fill="none" rx="3" ry="3" style="stroke:#038048;stroke-width:1.0;"/><text fill="#000000" font-family="sans-serif" font-size="14" lengthAdjust="spacing" textLength="181" x="95" y="562.292">Name : string &#171;get&#187; &#171;set&#187;</text><ellipse cx="86" cy="575.2422" fill="none" rx="3" ry="3" style="stroke:#038048;stroke-width:1.0;"/><text fill="#000000" font-family="sans-serif" font-size="14" lengthAdjust="spacing" textLength="220" x="95" y="578.5889">Description : string &#171;get&#187; &#171;set&#187;</text><ellipse cx="86" cy="591.5391" fill="none" rx="3" ry="3" style="stroke:#038048;stroke-width:1.0;"/><text fill="#000000" font-family="sans-serif" font-size="14" lengthAdjust="spacing" textLength="189" x="95" y="594.8857">Price : decimal &#171;get&#187; &#171;set&#187;</text><ellipse cx="86" cy="607.8359" fill="none" rx="3" ry="3" style="stroke:#038048;stroke-width:1.0;"/><text fill="#000000" font-family="sans-serif" font-size="14" lengthAdjust="spacing" textLength="207" x="95" y="611.1826">PictureUri : string &#171;get&#187; &#171;set&#187;</text><ellipse cx="86" cy="624.1328" fill="none" rx="3" ry="3" style="stroke:#038048;stroke-width:1.0;"/><text fill="#000000" font-family="sans-serif" font-size="14" lengthAdjust="spacing" textLength="217" x="95" y="627.4795">CatalogTypeId : int &#171;get&#187; &#171;set&#187;</text><ellipse cx="86" cy="640.4297" fill="none" rx="3" ry="3" style="stroke:#038048;stroke-width:1.0;"/><text fill="#000000" font-family="sans-serif" font-size="14" lengthAdjust="spacing" textLength="224" x="95" y="643.7764">CatalogBrandId : int &#171;get&#187; &#171;set&#187;</text><line style="stroke:#181818;stroke-width:0.5;" x1="76" x2="324" y1="651.0781" y2="651.0781"/><ellipse cx="86" cy="664.7266" fill="#84BE84" rx="3" ry="3" style="stroke:#038048;stroke-width:1.0;"/><text fill="#000000" font-family="sans-serif" font-size="14" lengthAdjust="spacing" textLength="117" x="95" y="668.0732">CatalogItemDto()</text></g><!--class ListPagedCatalogItemResponse--><g id="elem_ListPagedCatalogItemResponse"><rect codeLine="21" fill="#F1F1F1" height="113.1875" id="ListPagedCatalogItemResponse" rx="2.5" ry="2.5" style="stroke:#181818;stroke-width:0.5;" width="386" x="7" y="307"/><ellipse cx="85.75" cy="323" fill="#ADD1B2" rx="11" ry="11" style="stroke:#181818;stroke-width:1.0;"/><path d="M88.7188,328.6406 Q88.1406,328.9375 87.5,329.0781 Q86.8594,329.2344 86.1563,329.2344 Q83.6563,329.2344 82.3281,327.5938 Q81.0156,325.9375 81.0156,322.8125 Q81.0156,319.6875 82.3281,318.0313 Q83.6563,316.375 86.1563,316.375 Q86.8594,316.375 87.5,316.5313 Q88.1563,316.6875 88.7188,316.9844 L88.7188,319.7031 Q88.0938,319.125 87.5,318.8594 Q86.9063,318.5781 86.2813,318.5781 Q84.9375,318.5781 84.25,319.6563 Q83.5625,320.7188 83.5625,322.8125 Q83.5625,324.9063 84.25,325.9844 Q84.9375,327.0469 86.2813,327.0469 Q86.9063,327.0469 87.5,326.7813 Q88.0938,326.5 88.7188,325.9219 L88.7188,328.6406 Z " fill="#000000"/><text fill="#000000" font-family="sans-serif" font-size="14" lengthAdjust="spacing" textLength="220" x="106.25" y="327.8467">ListPagedCatalogItemResponse</text><line style="stroke:#181818;stroke-width:0.5;" x1="8" x2="392" y1="339" y2="339"/><ellipse cx="18" cy="352.6484" fill="none" rx="3" ry="3" style="stroke:#038048;stroke-width:1.0;"/><text fill="#000000" font-family="sans-serif" font-size="14" lengthAdjust="spacing" textLength="346" x="27" y="355.9951">CatalogItems : List&lt;CatalogItemDto&gt; &#171;get&#187; &#171;set&#187;</text><ellipse cx="18" cy="368.9453" fill="none" rx="3" ry="3" style="stroke:#038048;stroke-width:1.0;"/><text fill="#000000" font-family="sans-serif" font-size="14" lengthAdjust="spacing" textLength="196" x="27" y="372.292">PageCount : int &#171;get&#187; &#171;set&#187;</text><line style="stroke:#181818;stroke-width:0.5;" x1="8" x2="392" y1="379.5938" y2="379.5938"/><ellipse cx="18" cy="393.2422" fill="#84BE84" rx="3" ry="3" style="stroke:#038048;stroke-width:1.0;"/><text fill="#000000" font-family="sans-serif" font-size="14" lengthAdjust="spacing" textLength="360" x="27" y="396.5889">ListPagedCatalogItemResponse(correlationId : Guid)</text><ellipse cx="18" cy="409.5391" fill="#84BE84" rx="3" ry="3" style="stroke:#038048;stroke-width:1.0;"/><text fill="#000000" font-family="sans-serif" font-size="14" lengthAdjust="spacing" textLength="230" x="27" y="412.8857">ListPagedCatalogItemResponse()</text></g><!--reverse link BaseMessage to BaseResponse--><g id="link_BaseMessage_BaseResponse"><path codeLine="10" d="M200,125.1 C200,138.73 200,152.61 200,164.88 " fill="none" id="BaseMessage-backto-BaseResponse" style="stroke:#181818;stroke-width:1.0;"/><polygon fill="none" points="193,125.14,200,105.14,207,125.14,193,125.14" style="stroke:#181818;stroke-width:1.0;"/></g><!--reverse link BaseResponse to ListPagedCatalogItemResponse--><g id="link_BaseResponse_ListPagedCatalogItemResponse"><path codeLine="27" d="M200,267.2 C200,280.18 200,293.83 200,306.62 " fill="none" id="BaseResponse-backto-ListPagedCatalogItemResponse" style="stroke:#181818;stroke-width:1.0;"/><polygon fill="none" points="193,267.27,200,247.27,207,267.27,193,267.27" style="stroke:#181818;stroke-width:1.0;"/></g><!--reverse link ListPagedCatalogItemResponse to CatalogItemDto--><g id="link_ListPagedCatalogItemResponse_CatalogItemDto"><path codeLine="28" d="M200,434.4 C200,454.13 200,475.87 200,496.54 " fill="none" id="ListPagedCatalogItemResponse-backto-CatalogItemDto" style="stroke:#181818;stroke-width:1.0;"/><polygon fill="#181818" points="200,421.43,196,427.43,200,433.43,204,427.43,200,421.43" style="stroke:#181818;stroke-width:1.0;"/><text fill="#000000" font-family="sans-serif" font-size="13" lengthAdjust="spacing" textLength="85" x="201" y="463.0669">CatalogItems</text><text fill="#000000" font-family="sans-serif" font-size="13" lengthAdjust="spacing" textLength="7" x="192.7211" y="485.8707">*</text></g><!--SRC=[ZLBBQiCm4BphAqHoiHFo0y7u40T2e2sXjEUobHSZi2MZbG-bxRzNiaqgrw_g8j3EpiwC5jx96X2MYnA8-0a87v482kJyat5tjlnDQ6Em12krkkRyo2-DpDlQdcTXAOh3uZPaYsBspM0yx1cfrehkq_Q3rsXgSZm5zFIX-EJhS1WWM3Sp0mkbBguMgxFLlrDRTgaiJv82RPgwc_pTbv-WGWTmygKgPZ1d965axRMkGMz62i-Nev0Lb7CeAMnZyDN8DRxUrSj7ZIj6UkJ9WCh_1-sZQXFkCdoGP6ykv3n0ZFzn2RNuhukDyLWSkNxVamm5ftEfEkfCDyxsjFbkZ-v-saLQaiGMuzYvxirkytVlZWC3Fm00]--></g></svg>