<?xml version="1.0" encoding="us-ascii" standalone="no"?><svg xmlns="http://www.w3.org/2000/svg" xmlns:xlink="http://www.w3.org/1999/xlink" contentStyleType="text/css" height="202px" preserveAspectRatio="none" style="width:558px;height:202px;background:#FFFFFF;" version="1.1" viewBox="0 0 558 202" width="558px" zoomAndPan="magnify"><defs/><g><!--class IdentityTokenClaimService--><g id="elem_IdentityTokenClaimService"><rect codeLine="1" fill="#F1F1F1" height="80.5938" id="IdentityTokenClaimService" rx="2.5" ry="2.5" style="stroke:#181818;stroke-width:0.5;" width="544" x="7" y="115"/><ellipse cx="184.25" cy="131" fill="#ADD1B2" rx="11" ry="11" style="stroke:#181818;stroke-width:1.0;"/><path d="M187.2188,136.6406 Q186.6406,136.9375 186,137.0781 Q185.3594,137.2344 184.6563,137.2344 Q182.1563,137.2344 180.8281,135.5938 Q179.5156,133.9375 179.5156,130.8125 Q179.5156,127.6875 180.8281,126.0313 Q182.1563,124.375 184.6563,124.375 Q185.3594,124.375 186,124.5313 Q186.6563,124.6875 187.2188,124.9844 L187.2188,127.7031 Q186.5938,127.125 186,126.8594 Q185.4063,126.5781 184.7813,126.5781 Q183.4375,126.5781 182.75,127.6563 Q182.0625,128.7188 182.0625,130.8125 Q182.0625,132.9063 182.75,133.9844 Q183.4375,135.0469 184.7813,135.0469 Q185.4063,135.0469 186,134.7813 Q186.5938,134.5 187.2188,133.9219 L187.2188,136.6406 Z " fill="#000000"/><text fill="#000000" font-family="sans-serif" font-size="14" lengthAdjust="spacing" textLength="181" x="204.75" y="135.8467">IdentityTokenClaimService</text><line style="stroke:#181818;stroke-width:0.5;" x1="8" x2="550" y1="147" y2="147"/><line style="stroke:#181818;stroke-width:0.5;" x1="8" x2="550" y1="155" y2="155"/><ellipse cx="18" cy="168.6484" fill="#84BE84" rx="3" ry="3" style="stroke:#038048;stroke-width:1.0;"/><text fill="#000000" font-family="sans-serif" font-size="14" lengthAdjust="spacing" textLength="518" x="27" y="171.9951">IdentityTokenClaimService(userManager : UserManager&lt;ApplicationUser&gt;)</text><ellipse cx="18" cy="184.9453" fill="#84BE84" rx="3" ry="3" style="stroke:#038048;stroke-width:1.0;"/><text fill="#000000" font-family="sans-serif" font-size="14" lengthAdjust="spacing" textLength="414" x="27" y="188.292">&#171;async&#187; GetTokenAsync(userName : string) : Task&lt;string&gt;</text></g><!--class ITokenClaimsService--><g id="elem_ITokenClaimsService"><rect fill="#F1F1F1" height="48" id="ITokenClaimsService" rx="2.5" ry="2.5" style="stroke:#181818;stroke-width:0.5;" width="174" x="192" y="7"/><ellipse cx="207" cy="23" fill="#ADD1B2" rx="11" ry="11" style="stroke:#181818;stroke-width:1.0;"/><path d="M209.9688,28.6406 Q209.3906,28.9375 208.75,29.0781 Q208.1094,29.2344 207.4063,29.2344 Q204.9063,29.2344 203.5781,27.5938 Q202.2656,25.9375 202.2656,22.8125 Q202.2656,19.6875 203.5781,18.0313 Q204.9063,16.375 207.4063,16.375 Q208.1094,16.375 208.75,16.5313 Q209.4063,16.6875 209.9688,16.9844 L209.9688,19.7031 Q209.3438,19.125 208.75,18.8594 Q208.1563,18.5781 207.5313,18.5781 Q206.1875,18.5781 205.5,19.6563 Q204.8125,20.7188 204.8125,22.8125 Q204.8125,24.9063 205.5,25.9844 Q206.1875,27.0469 207.5313,27.0469 Q208.1563,27.0469 208.75,26.7813 Q209.3438,26.5 209.9688,25.9219 L209.9688,28.6406 Z " fill="#000000"/><text fill="#000000" font-family="sans-serif" font-size="14" lengthAdjust="spacing" textLength="142" x="221" y="27.8467">ITokenClaimsService</text><line style="stroke:#181818;stroke-width:0.5;" x1="193" x2="365" y1="39" y2="39"/><line style="stroke:#181818;stroke-width:0.5;" x1="193" x2="365" y1="47" y2="47"/></g><!--reverse link ITokenClaimsService to IdentityTokenClaimService--><g id="link_ITokenClaimsService_IdentityTokenClaimService"><path codeLine="5" d="M279,75.89 C279,88.61 279,102.42 279,114.87 " fill="none" id="ITokenClaimsService-backto-IdentityTokenClaimService" style="stroke:#181818;stroke-width:1.0;stroke-dasharray:7.0,7.0;"/><polygon fill="none" points="272,76.33,279,56.33,286,76.33,272,76.33" style="stroke:#181818;stroke-width:1.0;"/></g><!--SRC=[TOv12i90303lVKME5g4Fa6MXU90UzDBwWB264hfDosOLYlftjrNfgJbbGXZ6ULI5waOIEKxDq94SFN9VKtYm8u1d1cdsso-xkr8ues1B0GvmNScKu-ZPOUH1vhFDVovZK2TnriA9uY8iPrvC5-mfQJG6bZPFMuFQcI_Qx9rLQu3-8yshABO3Fm00]--></g></svg>