<?xml version="1.0" encoding="us-ascii" standalone="no"?><svg xmlns="http://www.w3.org/2000/svg" xmlns:xlink="http://www.w3.org/1999/xlink" contentStyleType="text/css" height="93px" preserveAspectRatio="none" style="width:620px;height:93px;background:#FFFFFF;" version="1.1" viewBox="0 0 620 93" width="620px" zoomAndPan="magnify"><defs/><g><!--class Dependencies--><g id="elem_Dependencies"><rect codeLine="1" fill="#F1F1F1" height="72.5625" id="Dependencies" rx="2.5" ry="2.5" style="stroke:#181818;stroke-width:0.5;" width="599" x="7" y="7"/><ellipse cx="251.25" cy="27.1328" fill="#ADD1B2" rx="11" ry="11" style="stroke:#181818;stroke-width:1.0;"/><path d="M254.2188,32.7734 Q253.6406,33.0703 253,33.2109 Q252.3594,33.3672 251.6563,33.3672 Q249.1563,33.3672 247.8281,31.7266 Q246.5156,30.0703 246.5156,26.9453 Q246.5156,23.8203 247.8281,22.1641 Q249.1563,20.5078 251.6563,20.5078 Q252.3594,20.5078 253,20.6641 Q253.6563,20.8203 254.2188,21.1172 L254.2188,23.8359 Q253.5938,23.2578 253,22.9922 Q252.4063,22.7109 251.7813,22.7109 Q250.4375,22.7109 249.75,23.7891 Q249.0625,24.8516 249.0625,26.9453 Q249.0625,29.0391 249.75,30.1172 Q250.4375,31.1797 251.7813,31.1797 Q252.4063,31.1797 253,30.9141 Q253.5938,30.6328 254.2188,30.0547 L254.2188,32.7734 Z " fill="#000000"/><text fill="#000000" font-family="sans-serif" font-size="12" font-style="italic" lengthAdjust="spacing" textLength="49" x="298.25" y="23.1387">&#171;static&#187;</text><text fill="#000000" font-family="sans-serif" font-size="14" lengthAdjust="spacing" textLength="102" x="271.75" y="38.9639">Dependencies</text><line style="stroke:#181818;stroke-width:0.5;" x1="8" x2="605" y1="47.2656" y2="47.2656"/><line style="stroke:#181818;stroke-width:0.5;" x1="8" x2="605" y1="55.2656" y2="55.2656"/><ellipse cx="18" cy="68.9141" fill="#84BE84" rx="3" ry="3" style="stroke:#038048;stroke-width:1.0;"/><text fill="#000000" font-family="sans-serif" font-size="14" lengthAdjust="spacing" text-decoration="underline" textLength="573" x="27" y="72.2607">ConfigureServices(configuration : IConfiguration, services : IServiceCollection) : void</text></g><!--SRC=[JSin2e0m38NXtLEyKT4JY7IfYxCda1WbK5ffr4MyknKxcF7xNyXDgkXvOp-p9s55r-a-xKB605U1T3MkZsxOu1TPZyWZnrE8jQGigGUF5eFzGmFDmpVb9nkSOtfpbVGCCXVt0m00]--></g></svg>