<?xml version="1.0" encoding="us-ascii" standalone="no"?><svg xmlns="http://www.w3.org/2000/svg" xmlns:xlink="http://www.w3.org/1999/xlink" contentStyleType="text/css" height="134px" preserveAspectRatio="none" style="width:304px;height:134px;background:#FFFFFF;" version="1.1" viewBox="0 0 304 134" width="304px" zoomAndPan="magnify"><defs/><g><!--class CacheEntry`1--><g id="elem_CacheEntry`1"><rect codeLine="1" fill="#F1F1F1" height="113.1875" id="CacheEntry`1" rx="2.5" ry="2.5" style="stroke:#181818;stroke-width:0.5;" width="283" x="7" y="7"/><ellipse cx="91.25" cy="23" fill="#ADD1B2" rx="11" ry="11" style="stroke:#181818;stroke-width:1.0;"/><path d="M94.2188,28.6406 Q93.6406,28.9375 93,29.0781 Q92.3594,29.2344 91.6563,29.2344 Q89.1563,29.2344 87.8281,27.5938 Q86.5156,25.9375 86.5156,22.8125 Q86.5156,19.6875 87.8281,18.0313 Q89.1563,16.375 91.6563,16.375 Q92.3594,16.375 93,16.5313 Q93.6563,16.6875 94.2188,16.9844 L94.2188,19.7031 Q93.5938,19.125 93,18.8594 Q92.4063,18.5781 91.7813,18.5781 Q90.4375,18.5781 89.75,19.6563 Q89.0625,20.7188 89.0625,22.8125 Q89.0625,24.9063 89.75,25.9844 Q90.4375,27.0469 91.7813,27.0469 Q92.4063,27.0469 93,26.7813 Q93.5938,26.5 94.2188,25.9219 L94.2188,28.6406 Z " fill="#000000"/><text fill="#000000" font-family="sans-serif" font-size="14" lengthAdjust="spacing" textLength="95" x="111.75" y="27.8467">CacheEntry`1</text><rect fill="#FFFFFF" height="15.9688" style="stroke:#181818;stroke-width:1.0;stroke-dasharray:2.0,2.0;" width="9" x="284" y="4"/><text fill="#000000" font-family="sans-serif" font-size="12" font-style="italic" lengthAdjust="spacing" textLength="7" x="285" y="16.1387">T</text><line style="stroke:#181818;stroke-width:0.5;" x1="8" x2="289" y1="39" y2="39"/><ellipse cx="18" cy="52.6484" fill="none" rx="3" ry="3" style="stroke:#038048;stroke-width:1.0;"/><text fill="#000000" font-family="sans-serif" font-size="14" lengthAdjust="spacing" textLength="149" x="27" y="55.9951">Value : T &#171;get&#187; &#171;set&#187;</text><ellipse cx="18" cy="68.9453" fill="none" rx="3" ry="3" style="stroke:#038048;stroke-width:1.0;"/><text fill="#000000" font-family="sans-serif" font-size="14" lengthAdjust="spacing" textLength="257" x="27" y="72.292">DateCreated : DateTime &#171;get&#187; &#171;set&#187;</text><line style="stroke:#181818;stroke-width:0.5;" x1="8" x2="289" y1="79.5938" y2="79.5938"/><ellipse cx="18" cy="93.2422" fill="#84BE84" rx="3" ry="3" style="stroke:#038048;stroke-width:1.0;"/><text fill="#000000" font-family="sans-serif" font-size="14" lengthAdjust="spacing" textLength="141" x="27" y="96.5889">CacheEntry(item : T)</text><ellipse cx="18" cy="109.5391" fill="#84BE84" rx="3" ry="3" style="stroke:#038048;stroke-width:1.0;"/><text fill="#000000" font-family="sans-serif" font-size="14" lengthAdjust="spacing" textLength="89" x="27" y="112.8857">CacheEntry()</text></g><!--SRC=[Iyv9B2vMS4vCpaXrpIifgammj0cnKr2evb800cqa2OtCajHS1Ik544rCAPXGM69EQIf8ZOADJNfgYPqTa2u6qL1vbyIILEUYL22P0bG5ueLavgPYAAu50000]--></g></svg>