<?xml version="1.0" encoding="us-ascii" standalone="no"?><svg xmlns="http://www.w3.org/2000/svg" xmlns:xlink="http://www.w3.org/1999/xlink" contentStyleType="text/css" height="183px" preserveAspectRatio="none" style="width:262px;height:183px;background:#FFFFFF;" version="1.1" viewBox="0 0 262 183" width="262px" zoomAndPan="magnify"><defs/><g><!--class PaginationInfoViewModel--><g id="elem_PaginationInfoViewModel"><rect codeLine="1" fill="#F1F1F1" height="162.0781" id="PaginationInfoViewModel" rx="2.5" ry="2.5" style="stroke:#181818;stroke-width:0.5;" width="241" x="7" y="7"/><ellipse cx="39.1" cy="23" fill="#ADD1B2" rx="11" ry="11" style="stroke:#181818;stroke-width:1.0;"/><path d="M42.0688,28.6406 Q41.4906,28.9375 40.85,29.0781 Q40.2094,29.2344 39.5063,29.2344 Q37.0063,29.2344 35.6781,27.5938 Q34.3656,25.9375 34.3656,22.8125 Q34.3656,19.6875 35.6781,18.0313 Q37.0063,16.375 39.5063,16.375 Q40.2094,16.375 40.85,16.5313 Q41.5063,16.6875 42.0688,16.9844 L42.0688,19.7031 Q41.4438,19.125 40.85,18.8594 Q40.2563,18.5781 39.6313,18.5781 Q38.2875,18.5781 37.6,19.6563 Q36.9125,20.7188 36.9125,22.8125 Q36.9125,24.9063 37.6,25.9844 Q38.2875,27.0469 39.6313,27.0469 Q40.2563,27.0469 40.85,26.7813 Q41.4438,26.5 42.0688,25.9219 L42.0688,28.6406 Z " fill="#000000"/><text fill="#000000" font-family="sans-serif" font-size="14" lengthAdjust="spacing" textLength="171" x="56.9" y="27.8467">PaginationInfoViewModel</text><line style="stroke:#181818;stroke-width:0.5;" x1="8" x2="247" y1="39" y2="39"/><ellipse cx="18" cy="52.6484" fill="none" rx="3" ry="3" style="stroke:#038048;stroke-width:1.0;"/><text fill="#000000" font-family="sans-serif" font-size="14" lengthAdjust="spacing" textLength="191" x="27" y="55.9951">TotalItems : int &#171;get&#187; &#171;set&#187;</text><ellipse cx="18" cy="68.9453" fill="none" rx="3" ry="3" style="stroke:#038048;stroke-width:1.0;"/><text fill="#000000" font-family="sans-serif" font-size="14" lengthAdjust="spacing" textLength="215" x="27" y="72.292">ItemsPerPage : int &#171;get&#187; &#171;set&#187;</text><ellipse cx="18" cy="85.2422" fill="none" rx="3" ry="3" style="stroke:#038048;stroke-width:1.0;"/><text fill="#000000" font-family="sans-serif" font-size="14" lengthAdjust="spacing" textLength="196" x="27" y="88.5889">ActualPage : int &#171;get&#187; &#171;set&#187;</text><ellipse cx="18" cy="101.5391" fill="none" rx="3" ry="3" style="stroke:#038048;stroke-width:1.0;"/><text fill="#000000" font-family="sans-serif" font-size="14" lengthAdjust="spacing" textLength="196" x="27" y="104.8857">TotalPages : int &#171;get&#187; &#171;set&#187;</text><ellipse cx="18" cy="117.8359" fill="none" rx="3" ry="3" style="stroke:#038048;stroke-width:1.0;"/><text fill="#000000" font-family="sans-serif" font-size="14" lengthAdjust="spacing" textLength="207" x="27" y="121.1826">Previous : string? &#171;get&#187; &#171;set&#187;</text><ellipse cx="18" cy="134.1328" fill="none" rx="3" ry="3" style="stroke:#038048;stroke-width:1.0;"/><text fill="#000000" font-family="sans-serif" font-size="14" lengthAdjust="spacing" textLength="179" x="27" y="137.4795">Next : string? &#171;get&#187; &#171;set&#187;</text><line style="stroke:#181818;stroke-width:0.5;" x1="8" x2="247" y1="144.7813" y2="144.7813"/><ellipse cx="18" cy="158.4297" fill="#84BE84" rx="3" ry="3" style="stroke:#038048;stroke-width:1.0;"/><text fill="#000000" font-family="sans-serif" font-size="14" lengthAdjust="spacing" textLength="181" x="27" y="161.7764">PaginationInfoViewModel()</text></g><!--SRC=[Iyv9B2vM24XCpynBBCdCp_FCIyiFoqmjzyrFISrHKAZcKW02ROMG_9B47C-IrDnY1Ik5pBmI1HkRzDGIEpiWNGoYeSh0AW9IYu3cfU9Lw9XSKfgOGr0Ps5gGAlpM1XIbbcNcbu8K5PSKPUQbs-DGw9TQKK9G4Ox0qD3agWK0]--></g></svg>