<?xml version="1.0" encoding="us-ascii" standalone="no"?><svg xmlns="http://www.w3.org/2000/svg" xmlns:xlink="http://www.w3.org/1999/xlink" contentStyleType="text/css" height="93px" preserveAspectRatio="none" style="width:429px;height:93px;background:#FFFFFF;" version="1.1" viewBox="0 0 429 93" width="429px" zoomAndPan="magnify"><defs/><g><!--class ImageValidators--><g id="elem_ImageValidators"><rect codeLine="1" fill="#F1F1F1" height="72.5625" id="ImageValidators" rx="2.5" ry="2.5" style="stroke:#181818;stroke-width:0.5;" width="408" x="7" y="7"/><ellipse cx="152.25" cy="27.1328" fill="#ADD1B2" rx="11" ry="11" style="stroke:#181818;stroke-width:1.0;"/><path d="M155.2188,32.7734 Q154.6406,33.0703 154,33.2109 Q153.3594,33.3672 152.6563,33.3672 Q150.1563,33.3672 148.8281,31.7266 Q147.5156,30.0703 147.5156,26.9453 Q147.5156,23.8203 148.8281,22.1641 Q150.1563,20.5078 152.6563,20.5078 Q153.3594,20.5078 154,20.6641 Q154.6563,20.8203 155.2188,21.1172 L155.2188,23.8359 Q154.5938,23.2578 154,22.9922 Q153.4063,22.7109 152.7813,22.7109 Q151.4375,22.7109 150.75,23.7891 Q150.0625,24.8516 150.0625,26.9453 Q150.0625,29.0391 150.75,30.1172 Q151.4375,31.1797 152.7813,31.1797 Q153.4063,31.1797 154,30.9141 Q154.5938,30.6328 155.2188,30.0547 L155.2188,32.7734 Z " fill="#000000"/><text fill="#000000" font-family="sans-serif" font-size="12" font-style="italic" lengthAdjust="spacing" textLength="49" x="202.75" y="23.1387">&#171;static&#187;</text><text fill="#000000" font-family="sans-serif" font-size="14" lengthAdjust="spacing" textLength="109" x="172.75" y="38.9639">ImageValidators</text><line style="stroke:#181818;stroke-width:0.5;" x1="8" x2="414" y1="47.2656" y2="47.2656"/><line style="stroke:#181818;stroke-width:0.5;" x1="8" x2="414" y1="55.2656" y2="55.2656"/><ellipse cx="18" cy="68.9141" fill="#84BE84" rx="3" ry="3" style="stroke:#038048;stroke-width:1.0;"/><text fill="#000000" font-family="sans-serif" font-size="14" lengthAdjust="spacing" text-decoration="underline" textLength="382" x="27" y="72.2607">IsValidImage(postedFile : byte[], fileName : string) : bool</text></g><!--SRC=[Iyv9B2vMyCnDJ4yDIyp9J4aioIygLh2nAIv9BCbCjhDJKAZcKW02ROLgY52jWcSnM2LOZqP1Vd59QefRPawgWfL2KcL9QdIiZa8QaEkNc0iIAYufoinBrmH9vkVdSDK20000]--></g></svg>