<?xml version="1.0" encoding="us-ascii" standalone="no"?><svg xmlns="http://www.w3.org/2000/svg" xmlns:xlink="http://www.w3.org/1999/xlink" contentStyleType="text/css" height="202px" preserveAspectRatio="none" style="width:216px;height:202px;background:#FFFFFF;" version="1.1" viewBox="0 0 216 202" width="216px" zoomAndPan="magnify"><defs/><g><!--class Constants::Roles--><g id="elem_Constants::Roles"><rect codeLine="1" fill="#F1F1F1" height="72.5625" id="Constants::Roles" rx="2.5" ry="2.5" style="stroke:#181818;stroke-width:0.5;" width="202" x="7" y="123"/><ellipse cx="44.5" cy="143.1328" fill="#ADD1B2" rx="11" ry="11" style="stroke:#181818;stroke-width:1.0;"/><path d="M47.4688,148.7734 Q46.8906,149.0703 46.25,149.2109 Q45.6094,149.3672 44.9063,149.3672 Q42.4063,149.3672 41.0781,147.7266 Q39.7656,146.0703 39.7656,142.9453 Q39.7656,139.8203 41.0781,138.1641 Q42.4063,136.5078 44.9063,136.5078 Q45.6094,136.5078 46.25,136.6641 Q46.9063,136.8203 47.4688,137.1172 L47.4688,139.8359 Q46.8438,139.2578 46.25,138.9922 Q45.6563,138.7109 45.0313,138.7109 Q43.6875,138.7109 43,139.7891 Q42.3125,140.8516 42.3125,142.9453 Q42.3125,145.0391 43,146.1172 Q43.6875,147.1797 45.0313,147.1797 Q45.6563,147.1797 46.25,146.9141 Q46.8438,146.6328 47.4688,146.0547 L47.4688,148.7734 Z " fill="#000000"/><text fill="#000000" font-family="sans-serif" font-size="12" font-style="italic" lengthAdjust="spacing" textLength="49" x="99" y="139.1387">&#171;static&#187;</text><text fill="#000000" font-family="sans-serif" font-size="14" lengthAdjust="spacing" textLength="120" x="63.5" y="154.9639">Constants::Roles</text><line style="stroke:#181818;stroke-width:0.5;" x1="8" x2="208" y1="163.2656" y2="163.2656"/><ellipse cx="18" cy="176.9141" fill="none" rx="3" ry="3" style="stroke:#038048;stroke-width:1.0;"/><text fill="#000000" font-family="sans-serif" font-size="14" lengthAdjust="spacing" text-decoration="underline" textLength="176" x="27" y="180.2607">ADMINISTRATORS : string</text><line style="stroke:#181818;stroke-width:0.5;" x1="8" x2="208" y1="187.5625" y2="187.5625"/></g><!--class Constants--><g id="elem_Constants"><rect codeLine="4" fill="#F1F1F1" height="56.2656" id="Constants" rx="2.5" ry="2.5" style="stroke:#181818;stroke-width:0.5;" width="103" x="56.5" y="7"/><ellipse cx="71.5" cy="27.1328" fill="#ADD1B2" rx="11" ry="11" style="stroke:#181818;stroke-width:1.0;"/><path d="M74.4688,32.7734 Q73.8906,33.0703 73.25,33.2109 Q72.6094,33.3672 71.9063,33.3672 Q69.4063,33.3672 68.0781,31.7266 Q66.7656,30.0703 66.7656,26.9453 Q66.7656,23.8203 68.0781,22.1641 Q69.4063,20.5078 71.9063,20.5078 Q72.6094,20.5078 73.25,20.6641 Q73.9063,20.8203 74.4688,21.1172 L74.4688,23.8359 Q73.8438,23.2578 73.25,22.9922 Q72.6563,22.7109 72.0313,22.7109 Q70.6875,22.7109 70,23.7891 Q69.3125,24.8516 69.3125,26.9453 Q69.3125,29.0391 70,30.1172 Q70.6875,31.1797 72.0313,31.1797 Q72.6563,31.1797 73.25,30.9141 Q73.8438,30.6328 74.4688,30.0547 L74.4688,32.7734 Z " fill="#000000"/><text fill="#000000" font-family="sans-serif" font-size="12" font-style="italic" lengthAdjust="spacing" textLength="49" x="96.5" y="23.1387">&#171;static&#187;</text><text fill="#000000" font-family="sans-serif" font-size="14" lengthAdjust="spacing" textLength="71" x="85.5" y="38.9639">Constants</text><line style="stroke:#181818;stroke-width:0.5;" x1="57.5" x2="158.5" y1="47.2656" y2="47.2656"/><line style="stroke:#181818;stroke-width:0.5;" x1="57.5" x2="158.5" y1="55.2656" y2="55.2656"/></g><!--reverse link Constants to Constants::Roles--><g id="link_Constants_Constants::Roles"><path codeLine="7" d="M108,79.31 C108,93.52 108,109.14 108,122.72 " fill="none" id="Constants-backto-Constants::Roles" style="stroke:#181818;stroke-width:1.0;stroke-dasharray:7.0,7.0;"/><ellipse cx="108" cy="72.49" fill="#FFFFFF" rx="8" ry="8" style="stroke:#181818;stroke-width:1.0;"/><line style="stroke:#181818;stroke-width:1.0;" x1="108" x2="108" y1="80.49" y2="64.49"/><line style="stroke:#181818;stroke-width:1.0;" x1="100" x2="116" y1="72.49" y2="72.49"/></g><!--SRC=[Iyv9B2vMSCxFAov9p2ifjh8Aoiz9BLQmiG7oIpAJxUmK5Agv5810Mw4Q8bIhuEZYw-dd6HmIv1ZY7nIiOALGN5AKcPVELSkLZ6eQcZ501GWfRJqz36i1]--></g></svg>