<?xml version="1.0" encoding="us-ascii" standalone="no"?><svg xmlns="http://www.w3.org/2000/svg" xmlns:xlink="http://www.w3.org/1999/xlink" contentStyleType="text/css" height="464px" preserveAspectRatio="none" style="width:488px;height:464px;background:#FFFFFF;" version="1.1" viewBox="0 0 488 464" width="488px" zoomAndPan="magnify"><defs/><g><!--class CatalogItem--><g id="elem_CatalogItem"><rect codeLine="1" fill="#F1F1F1" height="276.1563" id="CatalogItem" rx="2.5" ry="2.5" style="stroke:#181818;stroke-width:0.5;" width="474" x="7" y="181"/><ellipse cx="198.75" cy="197" fill="#ADD1B2" rx="11" ry="11" style="stroke:#181818;stroke-width:1.0;"/><path d="M201.7188,202.6406 Q201.1406,202.9375 200.5,203.0781 Q199.8594,203.2344 199.1563,203.2344 Q196.6563,203.2344 195.3281,201.5938 Q194.0156,199.9375 194.0156,196.8125 Q194.0156,193.6875 195.3281,192.0313 Q196.6563,190.375 199.1563,190.375 Q199.8594,190.375 200.5,190.5313 Q201.1563,190.6875 201.7188,190.9844 L201.7188,193.7031 Q201.0938,193.125 200.5,192.8594 Q199.9063,192.5781 199.2813,192.5781 Q197.9375,192.5781 197.25,193.6563 Q196.5625,194.7188 196.5625,196.8125 Q196.5625,198.9063 197.25,199.9844 Q197.9375,201.0469 199.2813,201.0469 Q199.9063,201.0469 200.5,200.7813 Q201.0938,200.5 201.7188,199.9219 L201.7188,202.6406 Z " fill="#000000"/><text fill="#000000" font-family="sans-serif" font-size="14" lengthAdjust="spacing" textLength="82" x="219.25" y="201.8467">CatalogItem</text><line style="stroke:#181818;stroke-width:0.5;" x1="8" x2="480" y1="213" y2="213"/><ellipse cx="18" cy="226.6484" fill="none" rx="3" ry="3" style="stroke:#038048;stroke-width:1.0;"/><text fill="#000000" font-family="sans-serif" font-size="14" lengthAdjust="spacing" textLength="131" x="27" y="229.9951">Id : int &#171;get&#187; &#171;set&#187;</text><ellipse cx="18" cy="242.9453" fill="none" rx="3" ry="3" style="stroke:#038048;stroke-width:1.0;"/><text fill="#000000" font-family="sans-serif" font-size="14" lengthAdjust="spacing" textLength="217" x="27" y="246.292">CatalogTypeId : int &#171;get&#187; &#171;set&#187;</text><ellipse cx="18" cy="259.2422" fill="none" rx="3" ry="3" style="stroke:#038048;stroke-width:1.0;"/><text fill="#000000" font-family="sans-serif" font-size="14" lengthAdjust="spacing" textLength="227" x="27" y="262.5889">CatalogType : string &#171;get&#187; &#171;set&#187;</text><ellipse cx="18" cy="275.5391" fill="none" rx="3" ry="3" style="stroke:#038048;stroke-width:1.0;"/><text fill="#000000" font-family="sans-serif" font-size="14" lengthAdjust="spacing" textLength="224" x="27" y="278.8857">CatalogBrandId : int &#171;get&#187; &#171;set&#187;</text><ellipse cx="18" cy="291.8359" fill="none" rx="3" ry="3" style="stroke:#038048;stroke-width:1.0;"/><text fill="#000000" font-family="sans-serif" font-size="14" lengthAdjust="spacing" textLength="234" x="27" y="295.1826">CatalogBrand : string &#171;get&#187; &#171;set&#187;</text><ellipse cx="18" cy="308.1328" fill="none" rx="3" ry="3" style="stroke:#038048;stroke-width:1.0;"/><text fill="#000000" font-family="sans-serif" font-size="14" lengthAdjust="spacing" textLength="181" x="27" y="311.4795">Name : string &#171;get&#187; &#171;set&#187;</text><ellipse cx="18" cy="324.4297" fill="none" rx="3" ry="3" style="stroke:#038048;stroke-width:1.0;"/><text fill="#000000" font-family="sans-serif" font-size="14" lengthAdjust="spacing" textLength="220" x="27" y="327.7764">Description : string &#171;get&#187; &#171;set&#187;</text><ellipse cx="18" cy="340.7266" fill="none" rx="3" ry="3" style="stroke:#038048;stroke-width:1.0;"/><text fill="#000000" font-family="sans-serif" font-size="14" lengthAdjust="spacing" textLength="189" x="27" y="344.0732">Price : decimal &#171;get&#187; &#171;set&#187;</text><ellipse cx="18" cy="357.0234" fill="none" rx="3" ry="3" style="stroke:#038048;stroke-width:1.0;"/><text fill="#000000" font-family="sans-serif" font-size="14" lengthAdjust="spacing" textLength="207" x="27" y="360.3701">PictureUri : string &#171;get&#187; &#171;set&#187;</text><ellipse cx="18" cy="373.3203" fill="none" rx="3" ry="3" style="stroke:#038048;stroke-width:1.0;"/><text fill="#000000" font-family="sans-serif" font-size="14" lengthAdjust="spacing" textLength="242" x="27" y="376.667">PictureBase64 : string &#171;get&#187; &#171;set&#187;</text><ellipse cx="18" cy="389.6172" fill="none" rx="3" ry="3" style="stroke:#038048;stroke-width:1.0;"/><text fill="#000000" font-family="sans-serif" font-size="14" lengthAdjust="spacing" textLength="229" x="27" y="392.9639">PictureName : string &#171;get&#187; &#171;set&#187;</text><line style="stroke:#181818;stroke-width:0.5;" x1="8" x2="480" y1="400.2656" y2="400.2656"/><ellipse cx="18" cy="413.9141" fill="#84BE84" rx="3" ry="3" style="stroke:#038048;stroke-width:1.0;"/><text fill="#000000" font-family="sans-serif" font-size="14" lengthAdjust="spacing" text-decoration="underline" textLength="448" x="27" y="417.2607">IsValidImage(pictureName : string, pictureBase64 : string) : string</text><ellipse cx="18" cy="430.2109" fill="#84BE84" rx="3" ry="3" style="stroke:#038048;stroke-width:1.0;"/><text fill="#000000" font-family="sans-serif" font-size="14" lengthAdjust="spacing" text-decoration="underline" textLength="430" x="27" y="433.5576">&#171;async&#187; DataToBase64(fileItem : IFileListEntry) : Task&lt;string&gt;</text><ellipse cx="18" cy="446.5078" fill="#84BE84" rx="3" ry="3" style="stroke:#038048;stroke-width:1.0;"/><text fill="#000000" font-family="sans-serif" font-size="14" lengthAdjust="spacing" textLength="92" x="27" y="449.8545">CatalogItem()</text></g><!--class PagedCatalogItemResponse--><g id="elem_PagedCatalogItemResponse"><rect codeLine="17" fill="#F1F1F1" height="96.8906" id="PagedCatalogItemResponse" rx="2.5" ry="2.5" style="stroke:#181818;stroke-width:0.5;" width="347" x="70.5" y="7"/><ellipse cx="141.25" cy="23" fill="#ADD1B2" rx="11" ry="11" style="stroke:#181818;stroke-width:1.0;"/><path d="M144.2188,28.6406 Q143.6406,28.9375 143,29.0781 Q142.3594,29.2344 141.6563,29.2344 Q139.1563,29.2344 137.8281,27.5938 Q136.5156,25.9375 136.5156,22.8125 Q136.5156,19.6875 137.8281,18.0313 Q139.1563,16.375 141.6563,16.375 Q142.3594,16.375 143,16.5313 Q143.6563,16.6875 144.2188,16.9844 L144.2188,19.7031 Q143.5938,19.125 143,18.8594 Q142.4063,18.5781 141.7813,18.5781 Q140.4375,18.5781 139.75,19.6563 Q139.0625,20.7188 139.0625,22.8125 Q139.0625,24.9063 139.75,25.9844 Q140.4375,27.0469 141.7813,27.0469 Q142.4063,27.0469 143,26.7813 Q143.5938,26.5 144.2188,25.9219 L144.2188,28.6406 Z " fill="#000000"/><text fill="#000000" font-family="sans-serif" font-size="14" lengthAdjust="spacing" textLength="197" x="161.75" y="27.8467">PagedCatalogItemResponse</text><line style="stroke:#181818;stroke-width:0.5;" x1="71.5" x2="416.5" y1="39" y2="39"/><ellipse cx="81.5" cy="52.6484" fill="none" rx="3" ry="3" style="stroke:#038048;stroke-width:1.0;"/><text fill="#000000" font-family="sans-serif" font-size="14" lengthAdjust="spacing" textLength="321" x="90.5" y="55.9951">CatalogItems : List&lt;CatalogItem&gt; &#171;get&#187; &#171;set&#187;</text><ellipse cx="81.5" cy="68.9453" fill="none" rx="3" ry="3" style="stroke:#038048;stroke-width:1.0;"/><text fill="#000000" font-family="sans-serif" font-size="14" lengthAdjust="spacing" textLength="196" x="90.5" y="72.292">PageCount : int &#171;get&#187; &#171;set&#187;</text><line style="stroke:#181818;stroke-width:0.5;" x1="71.5" x2="416.5" y1="79.5938" y2="79.5938"/><ellipse cx="81.5" cy="93.2422" fill="#84BE84" rx="3" ry="3" style="stroke:#038048;stroke-width:1.0;"/><text fill="#000000" font-family="sans-serif" font-size="14" lengthAdjust="spacing" textLength="207" x="90.5" y="96.5889">PagedCatalogItemResponse()</text></g><!--reverse link PagedCatalogItemResponse to CatalogItem--><g id="link_PagedCatalogItemResponse_CatalogItem"><path codeLine="22" d="M244,118.37 C244,137.29 244,158.91 244,180.76 " fill="none" id="PagedCatalogItemResponse-backto-CatalogItem" style="stroke:#181818;stroke-width:1.0;"/><polygon fill="#181818" points="244,105.46,240,111.46,244,117.46,248,111.46,244,105.46" style="stroke:#181818;stroke-width:1.0;"/><text fill="#000000" font-family="sans-serif" font-size="13" lengthAdjust="spacing" textLength="85" x="245" y="147.0669">CatalogItems</text><text fill="#000000" font-family="sans-serif" font-size="13" lengthAdjust="spacing" textLength="7" x="236.8086" y="169.8561">*</text></g><!--SRC=[ZPD1QuD048Nl_eeX9vCsjzA3B1wIj22K4ehjVLYdCbHNsTaS9EI_TzNGcX2ZNdRPUVFDqttg0aLWYmwBAaySbG370Fpp04a64R1ne5HEBexzAkrwBfzxqgQc-Kgl4sVPvFUb6uiccqVjf5FOTomdH-z8jENQSMMcf7lBkkLbfBd4Oap5sXqiVLgUvFNA3GezFyqKptcbepXqh4-Go1SMd2KbvXJMDm2FKD_qiFpRNIELGccCzZDt_YBIgcyClxcWBaOH9Az-_yRYNeopJKjAKNvKZxkwnRObN0QdG7Tvt7kVsQ3qGL9NHkW_d8EYU78xHWtEuh6Fvy7Rwk13TIzQO-CxXwFULkirB5QBYvyfkZ3w2m00]--></g></svg>