<?xml version="1.0" encoding="us-ascii" standalone="no"?><svg xmlns="http://www.w3.org/2000/svg" xmlns:xlink="http://www.w3.org/1999/xlink" contentStyleType="text/css" height="1326px" preserveAspectRatio="none" style="width:2180px;height:1326px;background:#FFFFFF;" version="1.1" viewBox="0 0 2180 1326" width="2180px" zoomAndPan="magnify"><defs/><g><!--class CreateCatalogItemRequest--><g id="elem_CreateCatalogItemRequest"><rect codeLine="1" fill="#F1F1F1" height="194.6719" id="CreateCatalogItemRequest" rx="2.5" ry="2.5" style="stroke:#181818;stroke-width:0.5;" width="268" x="154" y="697.5"/><ellipse cx="191.05" cy="713.5" fill="#ADD1B2" rx="11" ry="11" style="stroke:#181818;stroke-width:1.0;"/><path d="M194.0188,719.1406 Q193.4406,719.4375 192.8,719.5781 Q192.1594,719.7344 191.4563,719.7344 Q188.9563,719.7344 187.6281,718.0938 Q186.3156,716.4375 186.3156,713.3125 Q186.3156,710.1875 187.6281,708.5313 Q188.9563,706.875 191.4563,706.875 Q192.1594,706.875 192.8,707.0313 Q193.4563,707.1875 194.0188,707.4844 L194.0188,710.2031 Q193.3938,709.625 192.8,709.3594 Q192.2063,709.0781 191.5813,709.0781 Q190.2375,709.0781 189.55,710.1563 Q188.8625,711.2188 188.8625,713.3125 Q188.8625,715.4063 189.55,716.4844 Q190.2375,717.5469 191.5813,717.5469 Q192.2063,717.5469 192.8,717.2813 Q193.3938,717 194.0188,716.4219 L194.0188,719.1406 Z " fill="#000000"/><text fill="#000000" font-family="sans-serif" font-size="14" lengthAdjust="spacing" textLength="187" x="209.95" y="718.3467">CreateCatalogItemRequest</text><line style="stroke:#181818;stroke-width:0.5;" x1="155" x2="421" y1="729.5" y2="729.5"/><ellipse cx="165" cy="743.1484" fill="none" rx="3" ry="3" style="stroke:#038048;stroke-width:1.0;"/><text fill="#000000" font-family="sans-serif" font-size="14" lengthAdjust="spacing" textLength="217" x="174" y="746.4951">CatalogTypeId : int &#171;get&#187; &#171;set&#187;</text><ellipse cx="165" cy="759.4453" fill="none" rx="3" ry="3" style="stroke:#038048;stroke-width:1.0;"/><text fill="#000000" font-family="sans-serif" font-size="14" lengthAdjust="spacing" textLength="224" x="174" y="762.792">CatalogBrandId : int &#171;get&#187; &#171;set&#187;</text><ellipse cx="165" cy="775.7422" fill="none" rx="3" ry="3" style="stroke:#038048;stroke-width:1.0;"/><text fill="#000000" font-family="sans-serif" font-size="14" lengthAdjust="spacing" textLength="181" x="174" y="779.0889">Name : string &#171;get&#187; &#171;set&#187;</text><ellipse cx="165" cy="792.0391" fill="none" rx="3" ry="3" style="stroke:#038048;stroke-width:1.0;"/><text fill="#000000" font-family="sans-serif" font-size="14" lengthAdjust="spacing" textLength="220" x="174" y="795.3857">Description : string &#171;get&#187; &#171;set&#187;</text><ellipse cx="165" cy="808.3359" fill="none" rx="3" ry="3" style="stroke:#038048;stroke-width:1.0;"/><text fill="#000000" font-family="sans-serif" font-size="14" lengthAdjust="spacing" textLength="189" x="174" y="811.6826">Price : decimal &#171;get&#187; &#171;set&#187;</text><ellipse cx="165" cy="824.6328" fill="none" rx="3" ry="3" style="stroke:#038048;stroke-width:1.0;"/><text fill="#000000" font-family="sans-serif" font-size="14" lengthAdjust="spacing" textLength="207" x="174" y="827.9795">PictureUri : string &#171;get&#187; &#171;set&#187;</text><ellipse cx="165" cy="840.9297" fill="none" rx="3" ry="3" style="stroke:#038048;stroke-width:1.0;"/><text fill="#000000" font-family="sans-serif" font-size="14" lengthAdjust="spacing" textLength="242" x="174" y="844.2764">PictureBase64 : string &#171;get&#187; &#171;set&#187;</text><ellipse cx="165" cy="857.2266" fill="none" rx="3" ry="3" style="stroke:#038048;stroke-width:1.0;"/><text fill="#000000" font-family="sans-serif" font-size="14" lengthAdjust="spacing" textLength="229" x="174" y="860.5732">PictureName : string &#171;get&#187; &#171;set&#187;</text><line style="stroke:#181818;stroke-width:0.5;" x1="155" x2="421" y1="867.875" y2="867.875"/><ellipse cx="165" cy="881.5234" fill="#84BE84" rx="3" ry="3" style="stroke:#038048;stroke-width:1.0;"/><text fill="#000000" font-family="sans-serif" font-size="14" lengthAdjust="spacing" textLength="197" x="174" y="884.8701">CreateCatalogItemRequest()</text></g><!--class CatalogItem--><g id="elem_CatalogItem"><rect codeLine="12" fill="#F1F1F1" height="276.1563" id="CatalogItem" rx="2.5" ry="2.5" style="stroke:#181818;stroke-width:0.5;" width="474" x="1699" y="657"/><ellipse cx="1890.75" cy="673" fill="#ADD1B2" rx="11" ry="11" style="stroke:#181818;stroke-width:1.0;"/><path d="M1893.7188,678.6406 Q1893.1406,678.9375 1892.5,679.0781 Q1891.8594,679.2344 1891.1563,679.2344 Q1888.6563,679.2344 1887.3281,677.5938 Q1886.0156,675.9375 1886.0156,672.8125 Q1886.0156,669.6875 1887.3281,668.0313 Q1888.6563,666.375 1891.1563,666.375 Q1891.8594,666.375 1892.5,666.5313 Q1893.1563,666.6875 1893.7188,666.9844 L1893.7188,669.7031 Q1893.0938,669.125 1892.5,668.8594 Q1891.9063,668.5781 1891.2813,668.5781 Q1889.9375,668.5781 1889.25,669.6563 Q1888.5625,670.7188 1888.5625,672.8125 Q1888.5625,674.9063 1889.25,675.9844 Q1889.9375,677.0469 1891.2813,677.0469 Q1891.9063,677.0469 1892.5,676.7813 Q1893.0938,676.5 1893.7188,675.9219 L1893.7188,678.6406 Z " fill="#000000"/><text fill="#000000" font-family="sans-serif" font-size="14" lengthAdjust="spacing" textLength="82" x="1911.25" y="677.8467">CatalogItem</text><line style="stroke:#181818;stroke-width:0.5;" x1="1700" x2="2172" y1="689" y2="689"/><ellipse cx="1710" cy="702.6484" fill="none" rx="3" ry="3" style="stroke:#038048;stroke-width:1.0;"/><text fill="#000000" font-family="sans-serif" font-size="14" lengthAdjust="spacing" textLength="131" x="1719" y="705.9951">Id : int &#171;get&#187; &#171;set&#187;</text><ellipse cx="1710" cy="718.9453" fill="none" rx="3" ry="3" style="stroke:#038048;stroke-width:1.0;"/><text fill="#000000" font-family="sans-serif" font-size="14" lengthAdjust="spacing" textLength="217" x="1719" y="722.292">CatalogTypeId : int &#171;get&#187; &#171;set&#187;</text><ellipse cx="1710" cy="735.2422" fill="none" rx="3" ry="3" style="stroke:#038048;stroke-width:1.0;"/><text fill="#000000" font-family="sans-serif" font-size="14" lengthAdjust="spacing" textLength="227" x="1719" y="738.5889">CatalogType : string &#171;get&#187; &#171;set&#187;</text><ellipse cx="1710" cy="751.5391" fill="none" rx="3" ry="3" style="stroke:#038048;stroke-width:1.0;"/><text fill="#000000" font-family="sans-serif" font-size="14" lengthAdjust="spacing" textLength="224" x="1719" y="754.8857">CatalogBrandId : int &#171;get&#187; &#171;set&#187;</text><ellipse cx="1710" cy="767.8359" fill="none" rx="3" ry="3" style="stroke:#038048;stroke-width:1.0;"/><text fill="#000000" font-family="sans-serif" font-size="14" lengthAdjust="spacing" textLength="234" x="1719" y="771.1826">CatalogBrand : string &#171;get&#187; &#171;set&#187;</text><ellipse cx="1710" cy="784.1328" fill="none" rx="3" ry="3" style="stroke:#038048;stroke-width:1.0;"/><text fill="#000000" font-family="sans-serif" font-size="14" lengthAdjust="spacing" textLength="181" x="1719" y="787.4795">Name : string &#171;get&#187; &#171;set&#187;</text><ellipse cx="1710" cy="800.4297" fill="none" rx="3" ry="3" style="stroke:#038048;stroke-width:1.0;"/><text fill="#000000" font-family="sans-serif" font-size="14" lengthAdjust="spacing" textLength="220" x="1719" y="803.7764">Description : string &#171;get&#187; &#171;set&#187;</text><ellipse cx="1710" cy="816.7266" fill="none" rx="3" ry="3" style="stroke:#038048;stroke-width:1.0;"/><text fill="#000000" font-family="sans-serif" font-size="14" lengthAdjust="spacing" textLength="189" x="1719" y="820.0732">Price : decimal &#171;get&#187; &#171;set&#187;</text><ellipse cx="1710" cy="833.0234" fill="none" rx="3" ry="3" style="stroke:#038048;stroke-width:1.0;"/><text fill="#000000" font-family="sans-serif" font-size="14" lengthAdjust="spacing" textLength="207" x="1719" y="836.3701">PictureUri : string &#171;get&#187; &#171;set&#187;</text><ellipse cx="1710" cy="849.3203" fill="none" rx="3" ry="3" style="stroke:#038048;stroke-width:1.0;"/><text fill="#000000" font-family="sans-serif" font-size="14" lengthAdjust="spacing" textLength="242" x="1719" y="852.667">PictureBase64 : string &#171;get&#187; &#171;set&#187;</text><ellipse cx="1710" cy="865.6172" fill="none" rx="3" ry="3" style="stroke:#038048;stroke-width:1.0;"/><text fill="#000000" font-family="sans-serif" font-size="14" lengthAdjust="spacing" textLength="229" x="1719" y="868.9639">PictureName : string &#171;get&#187; &#171;set&#187;</text><line style="stroke:#181818;stroke-width:0.5;" x1="1700" x2="2172" y1="876.2656" y2="876.2656"/><ellipse cx="1710" cy="889.9141" fill="#84BE84" rx="3" ry="3" style="stroke:#038048;stroke-width:1.0;"/><text fill="#000000" font-family="sans-serif" font-size="14" lengthAdjust="spacing" text-decoration="underline" textLength="448" x="1719" y="893.2607">IsValidImage(pictureName : string, pictureBase64 : string) : string</text><ellipse cx="1710" cy="906.2109" fill="#84BE84" rx="3" ry="3" style="stroke:#038048;stroke-width:1.0;"/><text fill="#000000" font-family="sans-serif" font-size="14" lengthAdjust="spacing" text-decoration="underline" textLength="430" x="1719" y="909.5576">&#171;async&#187; DataToBase64(fileItem : IFileListEntry) : Task&lt;string&gt;</text><ellipse cx="1710" cy="922.5078" fill="#84BE84" rx="3" ry="3" style="stroke:#038048;stroke-width:1.0;"/><text fill="#000000" font-family="sans-serif" font-size="14" lengthAdjust="spacing" textLength="92" x="1719" y="925.8545">CatalogItem()</text></g><!--class ICatalogItemService--><g id="elem_ICatalogItemService"><rect codeLine="28" fill="#F1F1F1" height="145.7813" id="ICatalogItemService" rx="2.5" ry="2.5" style="stroke:#181818;stroke-width:0.5;" width="514" x="604" y="7"/><ellipse cx="789.25" cy="23" fill="#B4A7E5" rx="11" ry="11" style="stroke:#181818;stroke-width:1.0;"/><path d="M785.1719,18.7656 L785.1719,16.6094 L792.5625,16.6094 L792.5625,18.7656 L790.0938,18.7656 L790.0938,26.8438 L792.5625,26.8438 L792.5625,29 L785.1719,29 L785.1719,26.8438 L787.6406,26.8438 L787.6406,18.7656 L785.1719,18.7656 Z " fill="#000000"/><text fill="#000000" font-family="sans-serif" font-size="14" font-style="italic" lengthAdjust="spacing" textLength="135" x="809.75" y="27.8467">ICatalogItemService</text><line style="stroke:#181818;stroke-width:0.5;" x1="605" x2="1117" y1="39" y2="39"/><line style="stroke:#181818;stroke-width:0.5;" x1="605" x2="1117" y1="47" y2="47"/><ellipse cx="615" cy="60.6484" fill="#84BE84" rx="3" ry="3" style="stroke:#038048;stroke-width:1.0;"/><text fill="#000000" font-family="sans-serif" font-size="14" lengthAdjust="spacing" textLength="488" x="624" y="63.9951">Create(catalogItem : CreateCatalogItemRequest) : Task&lt;CatalogItem&gt;</text><ellipse cx="615" cy="76.9453" fill="#84BE84" rx="3" ry="3" style="stroke:#038048;stroke-width:1.0;"/><text fill="#000000" font-family="sans-serif" font-size="14" lengthAdjust="spacing" textLength="363" x="624" y="80.292">Edit(catalogItem : CatalogItem) : Task&lt;CatalogItem&gt;</text><ellipse cx="615" cy="93.2422" fill="#84BE84" rx="3" ry="3" style="stroke:#038048;stroke-width:1.0;"/><text fill="#000000" font-family="sans-serif" font-size="14" lengthAdjust="spacing" textLength="207" x="624" y="96.5889">Delete(id : int) : Task&lt;string&gt;</text><ellipse cx="615" cy="109.5391" fill="#84BE84" rx="3" ry="3" style="stroke:#038048;stroke-width:1.0;"/><text fill="#000000" font-family="sans-serif" font-size="14" lengthAdjust="spacing" textLength="258" x="624" y="112.8857">GetById(id : int) : Task&lt;CatalogItem&gt;</text><ellipse cx="615" cy="125.8359" fill="#84BE84" rx="3" ry="3" style="stroke:#038048;stroke-width:1.0;"/><text fill="#000000" font-family="sans-serif" font-size="14" lengthAdjust="spacing" textLength="370" x="624" y="129.1826">ListPaged(pageSize : int) : Task&lt;List&lt;CatalogItem&gt;&gt;</text><ellipse cx="615" cy="142.1328" fill="#84BE84" rx="3" ry="3" style="stroke:#038048;stroke-width:1.0;"/><text fill="#000000" font-family="sans-serif" font-size="14" lengthAdjust="spacing" textLength="232" x="624" y="145.4795">List() : Task&lt;List&lt;CatalogItem&gt;&gt;</text></g><!--class ICatalogLookupDataService`1--><g id="elem_ICatalogLookupDataService`1"><rect codeLine="39" fill="#F1F1F1" height="64.2969" id="ICatalogLookupDataService`1" rx="2.5" ry="2.5" style="stroke:#181818;stroke-width:0.5;" width="322" x="1342" y="763"/><ellipse cx="1357" cy="779" fill="#B4A7E5" rx="11" ry="11" style="stroke:#181818;stroke-width:1.0;"/><path d="M1352.9219,774.7656 L1352.9219,772.6094 L1360.3125,772.6094 L1360.3125,774.7656 L1357.8438,774.7656 L1357.8438,782.8438 L1360.3125,782.8438 L1360.3125,785 L1352.9219,785 L1352.9219,782.8438 L1355.3906,782.8438 L1355.3906,774.7656 L1352.9219,774.7656 Z " fill="#000000"/><text fill="#000000" font-family="sans-serif" font-size="14" font-style="italic" lengthAdjust="spacing" textLength="204" x="1371" y="783.8467">ICatalogLookupDataService`1</text><rect fill="#FFFFFF" height="15.9688" style="stroke:#181818;stroke-width:1.0;stroke-dasharray:2.0,2.0;" width="84" x="1583" y="760"/><text fill="#000000" font-family="sans-serif" font-size="12" font-style="italic" lengthAdjust="spacing" textLength="82" x="1584" y="772.1387">TLookupData</text><line style="stroke:#181818;stroke-width:0.5;" x1="1343" x2="1663" y1="795" y2="795"/><line style="stroke:#181818;stroke-width:0.5;" x1="1343" x2="1663" y1="803" y2="803"/><ellipse cx="1353" cy="816.6484" fill="#84BE84" rx="3" ry="3" style="stroke:#038048;stroke-width:1.0;"/><text fill="#000000" font-family="sans-serif" font-size="14" lengthAdjust="spacing" textLength="242" x="1362" y="819.9951">List() : Task&lt;List&lt;TLookupData&gt;&gt;</text></g><!--class ToastLevel--><g id="elem_ToastLevel"><rect codeLine="42" fill="#F1F1F1" height="137.75" id="ToastLevel" rx="2.5" ry="2.5" style="stroke:#181818;stroke-width:0.5;" width="110" x="417" y="1182"/><ellipse cx="433.8" cy="1202.1328" fill="#EB937F" rx="11" ry="11" style="stroke:#181818;stroke-width:1.0;"/><path d="M437.9094,1208.1328 L430.1906,1208.1328 L430.1906,1195.7422 L437.9094,1195.7422 L437.9094,1197.8984 L432.6438,1197.8984 L432.6438,1200.5703 L437.4094,1200.5703 L437.4094,1202.7266 L432.6438,1202.7266 L432.6438,1205.9766 L437.9094,1205.9766 L437.9094,1208.1328 Z " fill="#000000"/><text fill="#000000" font-family="sans-serif" font-size="12" font-style="italic" lengthAdjust="spacing" textLength="56" x="457.2" y="1198.1387">&#171;sealed&#187;</text><text fill="#000000" font-family="sans-serif" font-size="14" lengthAdjust="spacing" textLength="74" x="448.2" y="1213.9639">ToastLevel</text><line style="stroke:#181818;stroke-width:0.5;" x1="418" x2="526" y1="1222.2656" y2="1222.2656"/><text fill="#000000" font-family="sans-serif" font-size="14" lengthAdjust="spacing" textLength="54" x="423" y="1239.2607">Info = 0</text><text fill="#000000" font-family="sans-serif" font-size="14" lengthAdjust="spacing" textLength="88" x="423" y="1255.5576">Success = 1</text><text fill="#000000" font-family="sans-serif" font-size="14" lengthAdjust="spacing" textLength="85" x="423" y="1271.8545">Warning = 2</text><text fill="#000000" font-family="sans-serif" font-size="14" lengthAdjust="spacing" textLength="62" x="423" y="1288.1514">Error = 3</text><line style="stroke:#181818;stroke-width:0.5;" x1="418" x2="526" y1="1295.4531" y2="1295.4531"/><ellipse cx="428" cy="1309.1016" fill="#84BE84" rx="3" ry="3" style="stroke:#038048;stroke-width:1.0;"/><text fill="#000000" font-family="sans-serif" font-size="14" lengthAdjust="spacing" textLength="84" x="437" y="1312.4482">ToastLevel()</text></g><!--class ToastService--><g id="elem_ToastService"><rect codeLine="49" fill="#F1F1F1" height="129.4844" id="ToastService" rx="2.5" ry="2.5" style="stroke:#181818;stroke-width:0.5;" width="396" x="274" y="993"/><ellipse cx="423.25" cy="1009" fill="#ADD1B2" rx="11" ry="11" style="stroke:#181818;stroke-width:1.0;"/><path d="M426.2188,1014.6406 Q425.6406,1014.9375 425,1015.0781 Q424.3594,1015.2344 423.6563,1015.2344 Q421.1563,1015.2344 419.8281,1013.5938 Q418.5156,1011.9375 418.5156,1008.8125 Q418.5156,1005.6875 419.8281,1004.0313 Q421.1563,1002.375 423.6563,1002.375 Q424.3594,1002.375 425,1002.5313 Q425.6563,1002.6875 426.2188,1002.9844 L426.2188,1005.7031 Q425.5938,1005.125 425,1004.8594 Q424.4063,1004.5781 423.7813,1004.5781 Q422.4375,1004.5781 421.75,1005.6563 Q421.0625,1006.7188 421.0625,1008.8125 Q421.0625,1010.9063 421.75,1011.9844 Q422.4375,1013.0469 423.7813,1013.0469 Q424.4063,1013.0469 425,1012.7813 Q425.5938,1012.5 426.2188,1011.9219 L426.2188,1014.6406 Z " fill="#000000"/><text fill="#000000" font-family="sans-serif" font-size="14" lengthAdjust="spacing" textLength="89" x="443.75" y="1013.8467">ToastService</text><line style="stroke:#181818;stroke-width:0.5;" x1="275" x2="669" y1="1025" y2="1025"/><ellipse cx="285" cy="1038.6484" fill="none" rx="3" ry="3" style="stroke:#038048;stroke-width:1.0;"/><text fill="#000000" font-family="sans-serif" font-size="14" lengthAdjust="spacing" textLength="320" x="294" y="1041.9951">&#171;event&#187; OnShow : Action&lt;string, ToastLevel&gt;</text><ellipse cx="285" cy="1054.9453" fill="none" rx="3" ry="3" style="stroke:#038048;stroke-width:1.0;"/><text fill="#000000" font-family="sans-serif" font-size="14" lengthAdjust="spacing" textLength="168" x="294" y="1058.292">&#171;event&#187; OnHide : Action</text><line style="stroke:#181818;stroke-width:0.5;" x1="275" x2="669" y1="1065.5938" y2="1065.5938"/><ellipse cx="285" cy="1079.2422" fill="#84BE84" rx="3" ry="3" style="stroke:#038048;stroke-width:1.0;"/><text fill="#000000" font-family="sans-serif" font-size="14" lengthAdjust="spacing" textLength="370" x="294" y="1082.5889">ShowToast(message : string, level : ToastLevel) : void</text><ellipse cx="285" cy="1095.5391" fill="#84BE84" rx="3" ry="3" style="stroke:#038048;stroke-width:1.0;"/><text fill="#000000" font-family="sans-serif" font-size="14" lengthAdjust="spacing" textLength="108" x="294" y="1098.8857">Dispose() : void</text><ellipse cx="285" cy="1111.8359" fill="#84BE84" rx="3" ry="3" style="stroke:#038048;stroke-width:1.0;"/><text fill="#000000" font-family="sans-serif" font-size="14" lengthAdjust="spacing" textLength="99" x="294" y="1115.1826">ToastService()</text></g><!--class IDisposable--><g id="elem_IDisposable"><rect fill="#F1F1F1" height="48" id="IDisposable" rx="2.5" ry="2.5" style="stroke:#181818;stroke-width:0.5;" width="112" x="7" y="771"/><ellipse cx="22" cy="787" fill="#ADD1B2" rx="11" ry="11" style="stroke:#181818;stroke-width:1.0;"/><path d="M24.9688,792.6406 Q24.3906,792.9375 23.75,793.0781 Q23.1094,793.2344 22.4063,793.2344 Q19.9063,793.2344 18.5781,791.5938 Q17.2656,789.9375 17.2656,786.8125 Q17.2656,783.6875 18.5781,782.0313 Q19.9063,780.375 22.4063,780.375 Q23.1094,780.375 23.75,780.5313 Q24.4063,780.6875 24.9688,780.9844 L24.9688,783.7031 Q24.3438,783.125 23.75,782.8594 Q23.1563,782.5781 22.5313,782.5781 Q21.1875,782.5781 20.5,783.6563 Q19.8125,784.7188 19.8125,786.8125 Q19.8125,788.9063 20.5,789.9844 Q21.1875,791.0469 22.5313,791.0469 Q23.1563,791.0469 23.75,790.7813 Q24.3438,790.5 24.9688,789.9219 L24.9688,792.6406 Z " fill="#000000"/><text fill="#000000" font-family="sans-serif" font-size="14" lengthAdjust="spacing" textLength="80" x="36" y="791.8467">IDisposable</text><line style="stroke:#181818;stroke-width:0.5;" x1="8" x2="118" y1="803" y2="803"/><line style="stroke:#181818;stroke-width:0.5;" x1="8" x2="118" y1="811" y2="811"/></g><!--class HttpService--><g id="elem_HttpService"><rect codeLine="58" fill="#F1F1F1" height="129.4844" id="HttpService" rx="2.5" ry="2.5" style="stroke:#181818;stroke-width:0.5;" width="849" x="457.5" y="730.5"/><ellipse cx="838.25" cy="746.5" fill="#ADD1B2" rx="11" ry="11" style="stroke:#181818;stroke-width:1.0;"/><path d="M841.2188,752.1406 Q840.6406,752.4375 840,752.5781 Q839.3594,752.7344 838.6563,752.7344 Q836.1563,752.7344 834.8281,751.0938 Q833.5156,749.4375 833.5156,746.3125 Q833.5156,743.1875 834.8281,741.5313 Q836.1563,739.875 838.6563,739.875 Q839.3594,739.875 840,740.0313 Q840.6563,740.1875 841.2188,740.4844 L841.2188,743.2031 Q840.5938,742.625 840,742.3594 Q839.4063,742.0781 838.7813,742.0781 Q837.4375,742.0781 836.75,743.1563 Q836.0625,744.2188 836.0625,746.3125 Q836.0625,748.4063 836.75,749.4844 Q837.4375,750.5469 838.7813,750.5469 Q839.4063,750.5469 840,750.2813 Q840.5938,750 841.2188,749.4219 L841.2188,752.1406 Z " fill="#000000"/><text fill="#000000" font-family="sans-serif" font-size="14" lengthAdjust="spacing" textLength="79" x="858.75" y="751.3467">HttpService</text><line style="stroke:#181818;stroke-width:0.5;" x1="458.5" x2="1305.5" y1="762.5" y2="762.5"/><line style="stroke:#181818;stroke-width:0.5;" x1="458.5" x2="1305.5" y1="770.5" y2="770.5"/><ellipse cx="468.5" cy="784.1484" fill="#84BE84" rx="3" ry="3" style="stroke:#038048;stroke-width:1.0;"/><text fill="#000000" font-family="sans-serif" font-size="14" lengthAdjust="spacing" textLength="823" x="477.5" y="787.4951">HttpService(httpClient : HttpClient, baseUrlConfiguration : IOptions&lt;BaseUrlConfiguration&gt;, toastService : ToastService)</text><ellipse cx="468.5" cy="800.4453" fill="#84BE84" rx="3" ry="3" style="stroke:#038048;stroke-width:1.0;"/><text fill="#000000" font-family="sans-serif" font-size="14" lengthAdjust="spacing" textLength="307" x="477.5" y="803.792">&#171;async&#187; HttpGet&lt;T&gt;(uri : string) : Task&lt;T&gt;</text><ellipse cx="468.5" cy="816.7422" fill="#84BE84" rx="3" ry="3" style="stroke:#038048;stroke-width:1.0;"/><text fill="#000000" font-family="sans-serif" font-size="14" lengthAdjust="spacing" textLength="378" x="477.5" y="820.0889">&#171;async&#187; HttpDelete&lt;T&gt;(uri : string, id : int) : Task&lt;T&gt;</text><ellipse cx="468.5" cy="833.0391" fill="#84BE84" rx="3" ry="3" style="stroke:#038048;stroke-width:1.0;"/><text fill="#000000" font-family="sans-serif" font-size="14" lengthAdjust="spacing" textLength="461" x="477.5" y="836.3857">&#171;async&#187; HttpPost&lt;T&gt;(uri : string, dataToSend : object) : Task&lt;T&gt;</text><ellipse cx="468.5" cy="849.3359" fill="#84BE84" rx="3" ry="3" style="stroke:#038048;stroke-width:1.0;"/><text fill="#000000" font-family="sans-serif" font-size="14" lengthAdjust="spacing" textLength="453" x="477.5" y="852.6826">&#171;async&#187; HttpPut&lt;T&gt;(uri : string, dataToSend : object) : Task&lt;T&gt;</text></g><!--class CatalogItemService--><g id="elem_CatalogItemService"><rect codeLine="68" fill="#F1F1F1" height="162.0781" id="CatalogItemService" rx="2.5" ry="2.5" style="stroke:#181818;stroke-width:0.5;" width="1425" x="412.5" y="435"/><ellipse cx="1054.75" cy="451" fill="#ADD1B2" rx="11" ry="11" style="stroke:#181818;stroke-width:1.0;"/><path d="M1057.7188,456.6406 Q1057.1406,456.9375 1056.5,457.0781 Q1055.8594,457.2344 1055.1563,457.2344 Q1052.6563,457.2344 1051.3281,455.5938 Q1050.0156,453.9375 1050.0156,450.8125 Q1050.0156,447.6875 1051.3281,446.0313 Q1052.6563,444.375 1055.1563,444.375 Q1055.8594,444.375 1056.5,444.5313 Q1057.1563,444.6875 1057.7188,444.9844 L1057.7188,447.7031 Q1057.0938,447.125 1056.5,446.8594 Q1055.9063,446.5781 1055.2813,446.5781 Q1053.9375,446.5781 1053.25,447.6563 Q1052.5625,448.7188 1052.5625,450.8125 Q1052.5625,452.9063 1053.25,453.9844 Q1053.9375,455.0469 1055.2813,455.0469 Q1055.9063,455.0469 1056.5,454.7813 Q1057.0938,454.5 1057.7188,453.9219 L1057.7188,456.6406 Z " fill="#000000"/><text fill="#000000" font-family="sans-serif" font-size="14" lengthAdjust="spacing" textLength="132" x="1075.25" y="455.8467">CatalogItemService</text><line style="stroke:#181818;stroke-width:0.5;" x1="413.5" x2="1836.5" y1="467" y2="467"/><line style="stroke:#181818;stroke-width:0.5;" x1="413.5" x2="1836.5" y1="475" y2="475"/><ellipse cx="423.5" cy="488.6484" fill="#84BE84" rx="3" ry="3" style="stroke:#038048;stroke-width:1.0;"/><text fill="#000000" font-family="sans-serif" font-size="14" lengthAdjust="spacing" textLength="1399" x="432.5" y="491.9951">CatalogItemService(brandService : ICatalogLookupDataService&lt;CatalogBrand&gt;, typeService : ICatalogLookupDataService&lt;CatalogType&gt;, httpService : HttpService, logger : ILogger&lt;CatalogItemService&gt;)</text><ellipse cx="423.5" cy="504.9453" fill="#84BE84" rx="3" ry="3" style="stroke:#038048;stroke-width:1.0;"/><text fill="#000000" font-family="sans-serif" font-size="14" lengthAdjust="spacing" textLength="550" x="432.5" y="508.292">&#171;async&#187; Create(catalogItem : CreateCatalogItemRequest) : Task&lt;CatalogItem&gt;</text><ellipse cx="423.5" cy="521.2422" fill="#84BE84" rx="3" ry="3" style="stroke:#038048;stroke-width:1.0;"/><text fill="#000000" font-family="sans-serif" font-size="14" lengthAdjust="spacing" textLength="425" x="432.5" y="524.5889">&#171;async&#187; Edit(catalogItem : CatalogItem) : Task&lt;CatalogItem&gt;</text><ellipse cx="423.5" cy="537.5391" fill="#84BE84" rx="3" ry="3" style="stroke:#038048;stroke-width:1.0;"/><text fill="#000000" font-family="sans-serif" font-size="14" lengthAdjust="spacing" textLength="349" x="432.5" y="540.8857">&#171;async&#187; Delete(catalogItemId : int) : Task&lt;string&gt;</text><ellipse cx="423.5" cy="553.8359" fill="#84BE84" rx="3" ry="3" style="stroke:#038048;stroke-width:1.0;"/><text fill="#000000" font-family="sans-serif" font-size="14" lengthAdjust="spacing" textLength="320" x="432.5" y="557.1826">&#171;async&#187; GetById(id : int) : Task&lt;CatalogItem&gt;</text><ellipse cx="423.5" cy="570.1328" fill="#84BE84" rx="3" ry="3" style="stroke:#038048;stroke-width:1.0;"/><text fill="#000000" font-family="sans-serif" font-size="14" lengthAdjust="spacing" textLength="432" x="432.5" y="573.4795">&#171;async&#187; ListPaged(pageSize : int) : Task&lt;List&lt;CatalogItem&gt;&gt;</text><ellipse cx="423.5" cy="586.4297" fill="#84BE84" rx="3" ry="3" style="stroke:#038048;stroke-width:1.0;"/><text fill="#000000" font-family="sans-serif" font-size="14" lengthAdjust="spacing" textLength="294" x="432.5" y="589.7764">&#171;async&#187; List() : Task&lt;List&lt;CatalogItem&gt;&gt;</text></g><!--class CachedCatalogItemServiceDecorator--><g id="elem_CachedCatalogItemServiceDecorator"><rect codeLine="85" fill="#F1F1F1" height="162.0781" id="CachedCatalogItemServiceDecorator" rx="2.5" ry="2.5" style="stroke:#181818;stroke-width:0.5;" width="1257" x="573.5" y="213"/><ellipse cx="1070.75" cy="229" fill="#ADD1B2" rx="11" ry="11" style="stroke:#181818;stroke-width:1.0;"/><path d="M1073.7188,234.6406 Q1073.1406,234.9375 1072.5,235.0781 Q1071.8594,235.2344 1071.1563,235.2344 Q1068.6563,235.2344 1067.3281,233.5938 Q1066.0156,231.9375 1066.0156,228.8125 Q1066.0156,225.6875 1067.3281,224.0313 Q1068.6563,222.375 1071.1563,222.375 Q1071.8594,222.375 1072.5,222.5313 Q1073.1563,222.6875 1073.7188,222.9844 L1073.7188,225.7031 Q1073.0938,225.125 1072.5,224.8594 Q1071.9063,224.5781 1071.2813,224.5781 Q1069.9375,224.5781 1069.25,225.6563 Q1068.5625,226.7188 1068.5625,228.8125 Q1068.5625,230.9063 1069.25,231.9844 Q1069.9375,233.0469 1071.2813,233.0469 Q1071.9063,233.0469 1072.5,232.7813 Q1073.0938,232.5 1073.7188,231.9219 L1073.7188,234.6406 Z " fill="#000000"/><text fill="#000000" font-family="sans-serif" font-size="14" lengthAdjust="spacing" textLength="254" x="1091.25" y="233.8467">CachedCatalogItemServiceDecorator</text><line style="stroke:#181818;stroke-width:0.5;" x1="574.5" x2="1829.5" y1="245" y2="245"/><line style="stroke:#181818;stroke-width:0.5;" x1="574.5" x2="1829.5" y1="253" y2="253"/><ellipse cx="584.5" cy="266.6484" fill="#84BE84" rx="3" ry="3" style="stroke:#038048;stroke-width:1.0;"/><text fill="#000000" font-family="sans-serif" font-size="14" lengthAdjust="spacing" textLength="1231" x="593.5" y="269.9951">CachedCatalogItemServiceDecorator(localStorageService : ILocalStorageService, catalogItemService : CatalogItemService, logger : ILogger&lt;CachedCatalogItemServiceDecorator&gt;)</text><ellipse cx="584.5" cy="282.9453" fill="#84BE84" rx="3" ry="3" style="stroke:#038048;stroke-width:1.0;"/><text fill="#000000" font-family="sans-serif" font-size="14" lengthAdjust="spacing" textLength="432" x="593.5" y="286.292">&#171;async&#187; ListPaged(pageSize : int) : Task&lt;List&lt;CatalogItem&gt;&gt;</text><ellipse cx="584.5" cy="299.2422" fill="#84BE84" rx="3" ry="3" style="stroke:#038048;stroke-width:1.0;"/><text fill="#000000" font-family="sans-serif" font-size="14" lengthAdjust="spacing" textLength="294" x="593.5" y="302.5889">&#171;async&#187; List() : Task&lt;List&lt;CatalogItem&gt;&gt;</text><ellipse cx="584.5" cy="315.5391" fill="#84BE84" rx="3" ry="3" style="stroke:#038048;stroke-width:1.0;"/><text fill="#000000" font-family="sans-serif" font-size="14" lengthAdjust="spacing" textLength="320" x="593.5" y="318.8857">&#171;async&#187; GetById(id : int) : Task&lt;CatalogItem&gt;</text><ellipse cx="584.5" cy="331.8359" fill="#84BE84" rx="3" ry="3" style="stroke:#038048;stroke-width:1.0;"/><text fill="#000000" font-family="sans-serif" font-size="14" lengthAdjust="spacing" textLength="550" x="593.5" y="335.1826">&#171;async&#187; Create(catalogItem : CreateCatalogItemRequest) : Task&lt;CatalogItem&gt;</text><ellipse cx="584.5" cy="348.1328" fill="#84BE84" rx="3" ry="3" style="stroke:#038048;stroke-width:1.0;"/><text fill="#000000" font-family="sans-serif" font-size="14" lengthAdjust="spacing" textLength="425" x="593.5" y="351.4795">&#171;async&#187; Edit(catalogItem : CatalogItem) : Task&lt;CatalogItem&gt;</text><ellipse cx="584.5" cy="364.4297" fill="#84BE84" rx="3" ry="3" style="stroke:#038048;stroke-width:1.0;"/><text fill="#000000" font-family="sans-serif" font-size="14" lengthAdjust="spacing" textLength="269" x="593.5" y="367.7764">&#171;async&#187; Delete(id : int) : Task&lt;string&gt;</text></g><!--link ICatalogItemService to CreateCatalogItemRequest--><g id="link_ICatalogItemService_CreateCatalogItemRequest"><path codeLine="36" d="M625.46,153.49 C587.25,170.13 549.33,189.88 516,213 C407.85,288.02 371.99,314.09 320,435 C285.07,516.24 278.95,617.18 280.48,691.32 " fill="none" id="ICatalogItemService-to-CreateCatalogItemRequest" style="stroke:#181818;stroke-width:1.0;stroke-dasharray:7.0,7.0;"/><polygon fill="#181818" points="280.62,696.06,284.4133,686.9709,280.5057,691.0613,276.4154,687.1538,280.62,696.06" style="stroke:#181818;stroke-width:1.0;"/></g><!--link ICatalogItemService to CatalogItem--><g id="link_ICatalogItemService_CatalogItem"><path codeLine="37" d="M1118.26,84.84 C1373.19,93.89 1740.7,122.78 1848,213 C1971.9,317.18 1976.02,515.42 1961.24,651.1 " fill="none" id="ICatalogItemService-to-CatalogItem" style="stroke:#181818;stroke-width:1.0;stroke-dasharray:7.0,7.0;"/><polygon fill="#181818" points="1960.61,655.71,1965.5875,647.2115,1961.1669,650.7411,1957.6372,646.3205,1960.61,655.71" style="stroke:#181818;stroke-width:1.0;"/></g><!--reverse link IDisposable to ToastService--><g id="link_IDisposable_ToastService"><path codeLine="56" d="M76.59,838.92 C88.09,868.96 107.33,908.02 136,933 C175.24,967.19 224.77,992.23 273.65,1010.44 " fill="none" id="IDisposable-backto-ToastService" style="stroke:#181818;stroke-width:1.0;stroke-dasharray:7.0,7.0;"/><polygon fill="none" points="69.76,841.61,69.7,820.42,82.96,836.95,69.76,841.61" style="stroke:#181818;stroke-width:1.0;"/></g><!--link ToastService to ToastLevel--><g id="link_ToastService_ToastLevel"><path codeLine="57" d="M472,1122.27 C472,1139.37 472,1158.02 472,1175.65 " fill="none" id="ToastService-to-ToastLevel" style="stroke:#181818;stroke-width:1.0;stroke-dasharray:7.0,7.0;"/><polygon fill="#181818" points="472,1180.58,476,1171.58,472,1175.58,468,1171.58,472,1180.58" style="stroke:#181818;stroke-width:1.0;"/></g><!--link HttpService to ToastService--><g id="link_HttpService_ToastService"><path codeLine="65" d="M781.44,859.89 C719.51,899.24 640.24,949.61 577.43,989.51 " fill="none" id="HttpService-to-ToastService" style="stroke:#181818;stroke-width:1.0;stroke-dasharray:7.0,7.0;"/><polygon fill="#181818" points="573.56,992.61,583.2995,991.1464,577.7765,989.9228,579.0001,984.3999,573.56,992.61" style="stroke:#181818;stroke-width:1.0;"/></g><!--reverse link ICatalogItemService to CatalogItemService--><g id="link_ICatalogItemService_CatalogItemService"><path codeLine="77" d="M599.95,165.59 C582.98,179.13 567.94,194.82 556,213 C516.47,273.18 511.58,318.33 556,375 C574.04,398.02 612.69,417.76 661.76,434.54 " fill="none" id="ICatalogItemService-backto-CatalogItemService" style="stroke:#181818;stroke-width:1.0;stroke-dasharray:7.0,7.0;"/><polygon fill="none" points="595.5,159.44,615.77,153.26,603.78,170.73,595.5,159.44" style="stroke:#181818;stroke-width:1.0;"/></g><!--link CatalogItemService to ICatalogLookupDataService`1--><g id="link_CatalogItemService_ICatalogLookupDataService`1"><path codeLine="78" d="M1224.53,597.47 C1251.4,616.76 1280.35,637.44 1307,657 C1353.38,691.04 1405.53,731.17 1444.74,759.17 " fill="none" id="CatalogItemService-to-ICatalogLookupDataService`1" style="stroke:#181818;stroke-width:1.0;stroke-dasharray:7.0,7.0;"/><polygon fill="#181818" points="1448.46,762.52,1443.4501,754.0406,1444.3875,759.6192,1438.8088,760.5566,1448.46,762.52" style="stroke:#181818;stroke-width:1.0;"/><text fill="#000000" font-family="sans-serif" font-size="13" lengthAdjust="spacing" textLength="109" x="1319.8649" y="751.9501">&lt;CatalogBrand&gt;</text></g><!--link CatalogItemService to ICatalogLookupDataService`1--><g id="link_CatalogItemService_ICatalogLookupDataService`1"><path codeLine="79" d="M1258.53,597.47 C1286.4,616.76 1315.35,637.44 1342,657 C1388.19,690.91 1440.11,730.85 1472.71,758.82 " fill="none" id="CatalogItemService-to-ICatalogLookupDataService`1-1" style="stroke:#181818;stroke-width:1.0;stroke-dasharray:7.0,7.0;"/><polygon fill="#181818" points="1475.99,762.52,1471.7957,753.6089,1472.2068,759.2508,1466.565,759.6619,1475.99,762.52" style="stroke:#181818;stroke-width:1.0;"/><text fill="#000000" font-family="sans-serif" font-size="13" lengthAdjust="spacing" textLength="101" x="1481.6584" y="751.9501">&lt;CatalogType&gt;</text></g><!--link CatalogItemService to HttpService--><g id="link_CatalogItemService_HttpService"><path codeLine="80" d="M1054.39,597.49 C1018.69,638.18 975.85,687.02 941.8,725.83 " fill="none" id="CatalogItemService-to-HttpService" style="stroke:#181818;stroke-width:1.0;stroke-dasharray:7.0,7.0;"/><polygon fill="#181818" points="938.12,729.03,947.0646,724.9076,941.4196,725.2733,941.0539,719.6283,938.12,729.03" style="stroke:#181818;stroke-width:1.0;"/></g><!--link CatalogItemService to CreateCatalogItemRequest--><g id="link_CatalogItemService_CreateCatalogItemRequest"><path codeLine="81" d="M588.7,597.48 C537.15,613.79 486.73,633.41 440,657 C420.7,666.74 402,679.59 384.68,693.52 " fill="none" id="CatalogItemService-to-CreateCatalogItemRequest" style="stroke:#181818;stroke-width:1.0;stroke-dasharray:7.0,7.0;"/><polygon fill="#181818" points="381.31,697.09,390.8127,694.502,385.1849,693.93,385.7568,688.3022,381.31,697.09" style="stroke:#181818;stroke-width:1.0;"/></g><!--link CatalogItemService to CatalogItem--><g id="link_CatalogItemService_CatalogItem"><path codeLine="82" d="M1499.42,597.47 C1561.23,614.63 1624.03,634.48 1682,657 C1685.69,658.43 1689.39,659.91 1693.1,661.42 " fill="none" id="CatalogItemService-to-CatalogItem" style="stroke:#181818;stroke-width:1.0;stroke-dasharray:7.0,7.0;"/><polygon fill="#181818" points="1697.54,663.66,1690.7598,656.5166,1692.9217,661.744,1687.6942,663.9059,1697.54,663.66" style="stroke:#181818;stroke-width:1.0;"/></g><!--reverse link ICatalogItemService to CachedCatalogItemServiceDecorator--><g id="link_ICatalogItemService_CachedCatalogItemServiceDecorator"><path codeLine="94" d="M994.9,164.25 C1020.49,180.15 1047.23,196.78 1072.67,212.6 " fill="none" id="ICatalogItemService-backto-CachedCatalogItemServiceDecorator" style="stroke:#181818;stroke-width:1.0;stroke-dasharray:7.0,7.0;"/><polygon fill="none" points="991.69,169.87,978.4,153.37,999.08,157.98,991.69,169.87" style="stroke:#181818;stroke-width:1.0;"/></g><!--link CachedCatalogItemServiceDecorator to CatalogItemService--><g id="link_CachedCatalogItemServiceDecorator_CatalogItemService"><path codeLine="95" d="M1173.87,375.36 C1167.72,392.93 1161.19,411.6 1154.97,429.37 " fill="none" id="CachedCatalogItemServiceDecorator-to-CatalogItemService" style="stroke:#181818;stroke-width:1.0;stroke-dasharray:7.0,7.0;"/><polygon fill="#181818" points="1153.05,433.86,1159.8083,426.6958,1154.7081,429.1429,1152.261,424.0428,1153.05,433.86" style="stroke:#181818;stroke-width:1.0;"/></g><!--link CachedCatalogItemServiceDecorator to CreateCatalogItemRequest--><g id="link_CachedCatalogItemServiceDecorator_CreateCatalogItemRequest"><path codeLine="96" d="M573.23,363.34 C493.58,381.94 428.28,405.43 395,435 C356.61,469.11 324.86,597.79 306.17,691.35 " fill="none" id="CachedCatalogItemServiceDecorator-to-CreateCatalogItemRequest" style="stroke:#181818;stroke-width:1.0;stroke-dasharray:7.0,7.0;"/><polygon fill="#181818" points="305.01,696.18,310.6838,688.1297,305.9823,691.2755,302.8366,686.574,305.01,696.18" style="stroke:#181818;stroke-width:1.0;"/></g><!--link CachedCatalogItemServiceDecorator to CatalogItem--><g id="link_CachedCatalogItemServiceDecorator_CatalogItem"><path codeLine="97" d="M1730.83,375.47 C1786.7,392.19 1831.66,411.91 1855,435 C1911.44,490.84 1932.17,577.06 1938.57,651 " fill="none" id="CachedCatalogItemServiceDecorator-to-CatalogItem" style="stroke:#181818;stroke-width:1.0;stroke-dasharray:7.0,7.0;"/><polygon fill="#181818" points="1939.04,655.76,1942.3074,646.4689,1938.6401,650.776,1934.3331,647.1087,1939.04,655.76" style="stroke:#181818;stroke-width:1.0;"/></g><!--SRC=[vLPHRzem47xFhx1uIZM4rctQ0qeZ3UZMI6Yj1jrUPvm3l8OuivrEhEM_ppOG6v8GGDKqQJn0RD_tvNpttHqamKAWFWSieOybJjWiah3u0Zzp41AX9m-fpokqEHilCuXYr4KqbIW8PY33KFqA_RjhsUCuZHjCF-C5A0CXEKrdDJO348JJJ5AMDfdUSKeqNmo4Bd1IPqM9p3dSSzh8jxRiOG7ltnrfVCoLwgBjNtWhZwmJOWzj3euB_F4fqfQDlXwVJTUqYVO_pVoJa5XIiaAH-8eJ6aSBF0C_go1eewpIXulYQPyo2B1OfaIzSw0ICMPhe3-b2HWPTL7qKJqFgP3NgUHBpJJ6uY5Oq-rbKKEC7bM-WK-n2c_a78s0F-gGs_vWDEqJHxVTMg4NhtQEjk-_ZgdSfx6hGyW19A1Se1kLrjpl4yZUCehBPXMCEbPtAaEndwdl4VqDUnXji0DqaVuXivLN5SvE9wmDMZt0RdiLwHeozf1dMXCRqFVBO6mtGvl32gTTG-qqfFa2ZHaMSWYFa1XvumJYiA29qYb3L-YrMOnoGa2riojqQTRVC4zrTLoXDsPzpJdZQlLsuu5bTdgXsIm9BWYKMQfBx3OTpTalvVO7edj5i2qWInPMO6ve30LcSwvv3CfVAAzLofroJCnzkmwhZjGZe_5MVbHaJ82_j-rwRouLhGtn904KF7SwEnRUpcLrTktxDk6uaJ8hHSFPzEVgkPzGTL7boKsnQAE9wWZtFEcpT4fdESURpXhTcXuhWbx5UTX6qdMfk-FkHH7ORU_HxrCb5en3FtVwRA6gSLW9MTVkFggDIbLQWxzZGfRHiMc48p3pY4r-06acoa_dMNbkJegaRLFgbMTwkNsMplo9dgCsxBNb7BXpLwTBJVKJOFfFW4BDdHjqNJafvRFP3BZc6fgdeEniM1R2Ymq4Itd-Q71cutf8E2pHuNbXeQTC3eiwVuRiSfmnJKntAUzxDNEajQka5ceT626jHXOZh3D97Frvfux9OwPaKP5a3d4PC032LFjJeyafq0PJFs449oFrfDDiwszOtcuZKlQnMv6fojfhyAEY5F-A15-cMlxjhb7xr_9W_JKap6jMuPv-RMKS1Qmlb1FV-mS0]--></g></svg>