<?xml version="1.0" encoding="us-ascii" standalone="no"?><svg xmlns="http://www.w3.org/2000/svg" xmlns:xlink="http://www.w3.org/1999/xlink" contentStyleType="text/css" height="235px" preserveAspectRatio="none" style="width:318px;height:235px;background:#FFFFFF;" version="1.1" viewBox="0 0 318 235" width="318px" zoomAndPan="magnify"><defs/><g><!--class ErrorModel--><g id="elem_ErrorModel"><rect codeLine="1" fill="#F1F1F1" height="113.1875" id="ErrorModel" rx="2.5" ry="2.5" style="stroke:#181818;stroke-width:0.5;" width="304" x="7" y="115"/><ellipse cx="117.25" cy="131" fill="#ADD1B2" rx="11" ry="11" style="stroke:#181818;stroke-width:1.0;"/><path d="M120.2188,136.6406 Q119.6406,136.9375 119,137.0781 Q118.3594,137.2344 117.6563,137.2344 Q115.1563,137.2344 113.8281,135.5938 Q112.5156,133.9375 112.5156,130.8125 Q112.5156,127.6875 113.8281,126.0313 Q115.1563,124.375 117.6563,124.375 Q118.3594,124.375 119,124.5313 Q119.6563,124.6875 120.2188,124.9844 L120.2188,127.7031 Q119.5938,127.125 119,126.8594 Q118.4063,126.5781 117.7813,126.5781 Q116.4375,126.5781 115.75,127.6563 Q115.0625,128.7188 115.0625,130.8125 Q115.0625,132.9063 115.75,133.9844 Q116.4375,135.0469 117.7813,135.0469 Q118.4063,135.0469 119,134.7813 Q119.5938,134.5 120.2188,133.9219 L120.2188,136.6406 Z " fill="#000000"/><text fill="#000000" font-family="sans-serif" font-size="14" lengthAdjust="spacing" textLength="75" x="137.75" y="135.8467">ErrorModel</text><line style="stroke:#181818;stroke-width:0.5;" x1="8" x2="310" y1="147" y2="147"/><ellipse cx="18" cy="160.6484" fill="none" rx="3" ry="3" style="stroke:#038048;stroke-width:1.0;"/><text fill="#000000" font-family="sans-serif" font-size="14" lengthAdjust="spacing" textLength="219" x="27" y="163.9951">RequestId : string? &#171;get&#187; &#171;set&#187;</text><ellipse cx="18" cy="176.9453" fill="none" rx="3" ry="3" style="stroke:#038048;stroke-width:1.0;"/><text fill="#000000" font-family="sans-serif" font-size="14" lengthAdjust="spacing" textLength="278" x="27" y="180.292">&#171;readonly&#187; ShowRequestId : bool &#171;get&#187;</text><line style="stroke:#181818;stroke-width:0.5;" x1="8" x2="310" y1="187.5938" y2="187.5938"/><ellipse cx="18" cy="201.2422" fill="#84BE84" rx="3" ry="3" style="stroke:#038048;stroke-width:1.0;"/><text fill="#000000" font-family="sans-serif" font-size="14" lengthAdjust="spacing" textLength="96" x="27" y="204.5889">OnGet() : void</text><ellipse cx="18" cy="217.5391" fill="#84BE84" rx="3" ry="3" style="stroke:#038048;stroke-width:1.0;"/><text fill="#000000" font-family="sans-serif" font-size="14" lengthAdjust="spacing" textLength="85" x="27" y="220.8857">ErrorModel()</text></g><!--class PageModel--><g id="elem_PageModel"><rect fill="#F1F1F1" height="48" id="PageModel" rx="2.5" ry="2.5" style="stroke:#181818;stroke-width:0.5;" width="109" x="104.5" y="7"/><ellipse cx="119.5" cy="23" fill="#ADD1B2" rx="11" ry="11" style="stroke:#181818;stroke-width:1.0;"/><path d="M122.4688,28.6406 Q121.8906,28.9375 121.25,29.0781 Q120.6094,29.2344 119.9063,29.2344 Q117.4063,29.2344 116.0781,27.5938 Q114.7656,25.9375 114.7656,22.8125 Q114.7656,19.6875 116.0781,18.0313 Q117.4063,16.375 119.9063,16.375 Q120.6094,16.375 121.25,16.5313 Q121.9063,16.6875 122.4688,16.9844 L122.4688,19.7031 Q121.8438,19.125 121.25,18.8594 Q120.6563,18.5781 120.0313,18.5781 Q118.6875,18.5781 118,19.6563 Q117.3125,20.7188 117.3125,22.8125 Q117.3125,24.9063 118,25.9844 Q118.6875,27.0469 120.0313,27.0469 Q120.6563,27.0469 121.25,26.7813 Q121.8438,26.5 122.4688,25.9219 L122.4688,28.6406 Z " fill="#000000"/><text fill="#000000" font-family="sans-serif" font-size="14" lengthAdjust="spacing" textLength="77" x="133.5" y="27.8467">PageModel</text><line style="stroke:#181818;stroke-width:0.5;" x1="105.5" x2="212.5" y1="39" y2="39"/><line style="stroke:#181818;stroke-width:0.5;" x1="105.5" x2="212.5" y1="47" y2="47"/></g><!--reverse link PageModel to ErrorModel--><g id="link_PageModel_ErrorModel"><path codeLine="7" d="M159,76.34 C159,88.5 159,101.85 159,114.58 " fill="none" id="PageModel-backto-ErrorModel" style="stroke:#181818;stroke-width:1.0;"/><polygon fill="none" points="152,76.49,159,56.49,166,76.49,152,76.49" style="stroke:#181818;stroke-width:1.0;"/></g><!--SRC=[Iyv9B2vMS2qgoY_opKz9pL5GgEPI009jXQ3KmjBKuXBF50KhXUAIeioyT7i56vlqr18xEo1T3AAXAcriYb8JK_BpSYg1Ki4P-UN8MfFoytDW-g3g_VFSKqiqD86IPVcPAL11X1CqDBbgkG8IqrCX3hAfqTL5aWK0]--></g></svg>