<?xml version="1.0" encoding="us-ascii" standalone="no"?><svg xmlns="http://www.w3.org/2000/svg" xmlns:xlink="http://www.w3.org/1999/xlink" contentStyleType="text/css" height="505px" preserveAspectRatio="none" style="width:282px;height:505px;background:#FFFFFF;" version="1.1" viewBox="0 0 282 505" width="282px" zoomAndPan="magnify"><defs/><g><!--class BaseMessage--><g id="elem_BaseMessage"><rect codeLine="1" fill="#F1F1F1" height="96.8906" id="BaseMessage" rx="2.5" ry="2.5" style="stroke:#181818;stroke-width:0.5;" width="168" x="57" y="7"/><ellipse cx="89.1" cy="23" fill="#A9DCDF" rx="11" ry="11" style="stroke:#181818;stroke-width:1.0;"/><path d="M89.2094,18.3438 L88.0531,23.4219 L90.3813,23.4219 L89.2094,18.3438 Z M87.725,16.1094 L90.7094,16.1094 L94.0688,28.5 L91.6156,28.5 L90.85,25.4375 L87.5688,25.4375 L86.8188,28.5 L84.3813,28.5 L87.725,16.1094 Z " fill="#000000"/><text fill="#000000" font-family="sans-serif" font-size="14" font-style="italic" lengthAdjust="spacing" textLength="98" x="106.9" y="27.8467">BaseMessage</text><line style="stroke:#181818;stroke-width:0.5;" x1="58" x2="224" y1="39" y2="39"/><polygon fill="none" points="68,47.6484,72,51.6484,68,55.6484,64,51.6484" style="stroke:#B38D22;stroke-width:1.0;"/><text fill="#000000" font-family="sans-serif" font-size="14" lengthAdjust="spacing" textLength="137" x="77" y="55.9951">_correlationId : Guid</text><line style="stroke:#181818;stroke-width:0.5;" x1="58" x2="224" y1="63.2969" y2="63.2969"/><ellipse cx="68" cy="76.9453" fill="#84BE84" rx="3" ry="3" style="stroke:#038048;stroke-width:1.0;"/><text fill="#000000" font-family="sans-serif" font-size="14" lengthAdjust="spacing" textLength="142" x="77" y="80.292">CorrelationId() : Guid</text><polygon fill="#FFFF44" points="68,88.2422,72,92.2422,68,96.2422,64,92.2422" style="stroke:#B38D22;stroke-width:1.0;"/><text fill="#000000" font-family="sans-serif" font-size="14" lengthAdjust="spacing" textLength="108" x="77" y="96.5889">BaseMessage()</text></g><!--class BaseRequest--><g id="elem_BaseRequest"><rect codeLine="6" fill="#F1F1F1" height="64.2969" id="BaseRequest" rx="2.5" ry="2.5" style="stroke:#181818;stroke-width:0.5;" width="130" x="76" y="164"/><ellipse cx="92.8" cy="180" fill="#A9DCDF" rx="11" ry="11" style="stroke:#181818;stroke-width:1.0;"/><path d="M92.9094,175.3438 L91.7531,180.4219 L94.0813,180.4219 L92.9094,175.3438 Z M91.425,173.1094 L94.4094,173.1094 L97.7688,185.5 L95.3156,185.5 L94.55,182.4375 L91.2688,182.4375 L90.5188,185.5 L88.0813,185.5 L91.425,173.1094 Z " fill="#000000"/><text fill="#000000" font-family="sans-serif" font-size="14" font-style="italic" lengthAdjust="spacing" textLength="94" x="107.2" y="184.8467">BaseRequest</text><line style="stroke:#181818;stroke-width:0.5;" x1="77" x2="205" y1="196" y2="196"/><line style="stroke:#181818;stroke-width:0.5;" x1="77" x2="205" y1="204" y2="204"/><polygon fill="#FFFF44" points="87,212.6484,91,216.6484,87,220.6484,83,216.6484" style="stroke:#B38D22;stroke-width:1.0;"/><text fill="#000000" font-family="sans-serif" font-size="14" lengthAdjust="spacing" textLength="104" x="96" y="220.9951">BaseRequest()</text></g><!--class UpdateCatalogItemRequest--><g id="elem_UpdateCatalogItemRequest"><rect codeLine="10" fill="#F1F1F1" height="210.9688" id="UpdateCatalogItemRequest" rx="2.5" ry="2.5" style="stroke:#181818;stroke-width:0.5;" width="268" x="7" y="288"/><ellipse cx="42.25" cy="304" fill="#ADD1B2" rx="11" ry="11" style="stroke:#181818;stroke-width:1.0;"/><path d="M45.2188,309.6406 Q44.6406,309.9375 44,310.0781 Q43.3594,310.2344 42.6563,310.2344 Q40.1563,310.2344 38.8281,308.5938 Q37.5156,306.9375 37.5156,303.8125 Q37.5156,300.6875 38.8281,299.0313 Q40.1563,297.375 42.6563,297.375 Q43.3594,297.375 44,297.5313 Q44.6563,297.6875 45.2188,297.9844 L45.2188,300.7031 Q44.5938,300.125 44,299.8594 Q43.4063,299.5781 42.7813,299.5781 Q41.4375,299.5781 40.75,300.6563 Q40.0625,301.7188 40.0625,303.8125 Q40.0625,305.9063 40.75,306.9844 Q41.4375,308.0469 42.7813,308.0469 Q43.4063,308.0469 44,307.7813 Q44.5938,307.5 45.2188,306.9219 L45.2188,309.6406 Z " fill="#000000"/><text fill="#000000" font-family="sans-serif" font-size="14" lengthAdjust="spacing" textLength="191" x="60.75" y="308.8467">UpdateCatalogItemRequest</text><line style="stroke:#181818;stroke-width:0.5;" x1="8" x2="274" y1="320" y2="320"/><ellipse cx="18" cy="333.6484" fill="none" rx="3" ry="3" style="stroke:#038048;stroke-width:1.0;"/><text fill="#000000" font-family="sans-serif" font-size="14" lengthAdjust="spacing" textLength="131" x="27" y="336.9951">Id : int &#171;get&#187; &#171;set&#187;</text><ellipse cx="18" cy="349.9453" fill="none" rx="3" ry="3" style="stroke:#038048;stroke-width:1.0;"/><text fill="#000000" font-family="sans-serif" font-size="14" lengthAdjust="spacing" textLength="224" x="27" y="353.292">CatalogBrandId : int &#171;get&#187; &#171;set&#187;</text><ellipse cx="18" cy="366.2422" fill="none" rx="3" ry="3" style="stroke:#038048;stroke-width:1.0;"/><text fill="#000000" font-family="sans-serif" font-size="14" lengthAdjust="spacing" textLength="217" x="27" y="369.5889">CatalogTypeId : int &#171;get&#187; &#171;set&#187;</text><ellipse cx="18" cy="382.5391" fill="none" rx="3" ry="3" style="stroke:#038048;stroke-width:1.0;"/><text fill="#000000" font-family="sans-serif" font-size="14" lengthAdjust="spacing" textLength="220" x="27" y="385.8857">Description : string &#171;get&#187; &#171;set&#187;</text><ellipse cx="18" cy="398.8359" fill="none" rx="3" ry="3" style="stroke:#038048;stroke-width:1.0;"/><text fill="#000000" font-family="sans-serif" font-size="14" lengthAdjust="spacing" textLength="181" x="27" y="402.1826">Name : string &#171;get&#187; &#171;set&#187;</text><ellipse cx="18" cy="415.1328" fill="none" rx="3" ry="3" style="stroke:#038048;stroke-width:1.0;"/><text fill="#000000" font-family="sans-serif" font-size="14" lengthAdjust="spacing" textLength="242" x="27" y="418.4795">PictureBase64 : string &#171;get&#187; &#171;set&#187;</text><ellipse cx="18" cy="431.4297" fill="none" rx="3" ry="3" style="stroke:#038048;stroke-width:1.0;"/><text fill="#000000" font-family="sans-serif" font-size="14" lengthAdjust="spacing" textLength="207" x="27" y="434.7764">PictureUri : string &#171;get&#187; &#171;set&#187;</text><ellipse cx="18" cy="447.7266" fill="none" rx="3" ry="3" style="stroke:#038048;stroke-width:1.0;"/><text fill="#000000" font-family="sans-serif" font-size="14" lengthAdjust="spacing" textLength="229" x="27" y="451.0732">PictureName : string &#171;get&#187; &#171;set&#187;</text><ellipse cx="18" cy="464.0234" fill="none" rx="3" ry="3" style="stroke:#038048;stroke-width:1.0;"/><text fill="#000000" font-family="sans-serif" font-size="14" lengthAdjust="spacing" textLength="189" x="27" y="467.3701">Price : decimal &#171;get&#187; &#171;set&#187;</text><line style="stroke:#181818;stroke-width:0.5;" x1="8" x2="274" y1="474.6719" y2="474.6719"/><ellipse cx="18" cy="488.3203" fill="#84BE84" rx="3" ry="3" style="stroke:#038048;stroke-width:1.0;"/><text fill="#000000" font-family="sans-serif" font-size="14" lengthAdjust="spacing" textLength="201" x="27" y="491.667">UpdateCatalogItemRequest()</text></g><!--reverse link BaseMessage to BaseRequest--><g id="link_BaseMessage_BaseRequest"><path codeLine="9" d="M141,125.12 C141,138.66 141,152.24 141,163.77 " fill="none" id="BaseMessage-backto-BaseRequest" style="stroke:#181818;stroke-width:1.0;"/><polygon fill="none" points="134,125.16,141,105.16,148,125.16,134,125.16" style="stroke:#181818;stroke-width:1.0;"/></g><!--reverse link BaseRequest to UpdateCatalogItemRequest--><g id="link_BaseRequest_UpdateCatalogItemRequest"><path codeLine="22" d="M141,249.09 C141,261.06 141,274.21 141,287.54 " fill="none" id="BaseRequest-backto-UpdateCatalogItemRequest" style="stroke:#181818;stroke-width:1.0;"/><polygon fill="none" points="134,249.41,141,229.41,148,249.41,134,249.41" style="stroke:#181818;stroke-width:1.0;"/></g><!--SRC=[ZP4z2y9038Rt_eg0Yo9kuY35GGNfe8ZeBF4kb42_lAI3gF_Tjg8UIh6t1EvzyldYITIXKJ09Yi0SXTOaWZ41N0EeNW-E9dUE4bJEiyZ255ObsqORmiAN-WDVxFdL-eFW7k1linsTInBzDFC-cnn_el0s6lb0yAnpA2mgBL0noUD8AVqgEeHcQiuKmZ0cdSsgA7LyBV5CdJlCR3TqVode3xaaCOwB-Z8LLotEMTo2RZ2bVyoMZPQEwkqduuxmmN57ijC4ZaqDMJASOj92jPdnDlDbJcDc6_q0]--></g></svg>