<?xml version="1.0" encoding="us-ascii" standalone="no"?><svg xmlns="http://www.w3.org/2000/svg" xmlns:xlink="http://www.w3.org/1999/xlink" contentStyleType="text/css" height="380px" preserveAspectRatio="none" style="width:547px;height:380px;background:#FFFFFF;" version="1.1" viewBox="0 0 547 380" width="547px" zoomAndPan="magnify"><defs/><g><!--class ILookupDataResponse`1--><g id="elem_ILookupDataResponse`1"><rect codeLine="1" fill="#F1F1F1" height="64.2969" id="ILookupDataResponse`1" rx="2.5" ry="2.5" style="stroke:#181818;stroke-width:0.5;" width="291" x="7" y="10"/><ellipse cx="22" cy="26" fill="#B4A7E5" rx="11" ry="11" style="stroke:#181818;stroke-width:1.0;"/><path d="M17.9219,21.7656 L17.9219,19.6094 L25.3125,19.6094 L25.3125,21.7656 L22.8438,21.7656 L22.8438,29.8438 L25.3125,29.8438 L25.3125,32 L17.9219,32 L17.9219,29.8438 L20.3906,29.8438 L20.3906,21.7656 L17.9219,21.7656 Z " fill="#000000"/><text fill="#000000" font-family="sans-serif" font-size="14" font-style="italic" lengthAdjust="spacing" textLength="173" x="36" y="30.8467">ILookupDataResponse`1</text><rect fill="#FFFFFF" height="15.9688" style="stroke:#181818;stroke-width:1.0;stroke-dasharray:2.0,2.0;" width="84" x="217" y="7"/><text fill="#000000" font-family="sans-serif" font-size="12" font-style="italic" lengthAdjust="spacing" textLength="82" x="218" y="19.1387">TLookupData</text><line style="stroke:#181818;stroke-width:0.5;" x1="8" x2="297" y1="42" y2="42"/><ellipse cx="18" cy="55.6484" fill="none" rx="3" ry="3" style="stroke:#038048;stroke-width:1.0;"/><text fill="#000000" font-family="sans-serif" font-size="14" lengthAdjust="spacing" textLength="264" x="27" y="58.9951">List : List&lt;TLookupData&gt; &#171;get&#187; &#171;set&#187;</text><line style="stroke:#181818;stroke-width:0.5;" x1="8" x2="297" y1="66.2969" y2="66.2969"/></g><!--class LookupData--><g id="elem_LookupData"><rect codeLine="4" fill="#F1F1F1" height="96.8906" id="LookupData" rx="2.5" ry="2.5" style="stroke:#181818;stroke-width:0.5;" width="207" x="333" y="135"/><ellipse cx="390.75" cy="151" fill="#A9DCDF" rx="11" ry="11" style="stroke:#181818;stroke-width:1.0;"/><path d="M390.8594,146.3438 L389.7031,151.4219 L392.0313,151.4219 L390.8594,146.3438 Z M389.375,144.1094 L392.3594,144.1094 L395.7188,156.5 L393.2656,156.5 L392.5,153.4375 L389.2188,153.4375 L388.4688,156.5 L386.0313,156.5 L389.375,144.1094 Z " fill="#000000"/><text fill="#000000" font-family="sans-serif" font-size="14" font-style="italic" lengthAdjust="spacing" textLength="83" x="411.25" y="155.8467">LookupData</text><line style="stroke:#181818;stroke-width:0.5;" x1="334" x2="539" y1="167" y2="167"/><ellipse cx="344" cy="180.6484" fill="none" rx="3" ry="3" style="stroke:#038048;stroke-width:1.0;"/><text fill="#000000" font-family="sans-serif" font-size="14" lengthAdjust="spacing" textLength="131" x="353" y="183.9951">Id : int &#171;get&#187; &#171;set&#187;</text><ellipse cx="344" cy="196.9453" fill="none" rx="3" ry="3" style="stroke:#038048;stroke-width:1.0;"/><text fill="#000000" font-family="sans-serif" font-size="14" lengthAdjust="spacing" textLength="181" x="353" y="200.292">Name : string &#171;get&#187; &#171;set&#187;</text><line style="stroke:#181818;stroke-width:0.5;" x1="334" x2="539" y1="207.5938" y2="207.5938"/><polygon fill="#FFFF44" points="344,216.2422,348,220.2422,344,224.2422,340,220.2422" style="stroke:#B38D22;stroke-width:1.0;"/><text fill="#000000" font-family="sans-serif" font-size="14" lengthAdjust="spacing" textLength="93" x="353" y="224.5889">LookupData()</text></g><!--class CatalogBrand--><g id="elem_CatalogBrand"><rect codeLine="9" fill="#F1F1F1" height="64.2969" id="CatalogBrand" rx="2.5" ry="2.5" style="stroke:#181818;stroke-width:0.5;" width="129" x="289" y="309"/><ellipse cx="305.8" cy="325" fill="#ADD1B2" rx="11" ry="11" style="stroke:#181818;stroke-width:1.0;"/><path d="M308.7688,330.6406 Q308.1906,330.9375 307.55,331.0781 Q306.9094,331.2344 306.2063,331.2344 Q303.7063,331.2344 302.3781,329.5938 Q301.0656,327.9375 301.0656,324.8125 Q301.0656,321.6875 302.3781,320.0313 Q303.7063,318.375 306.2063,318.375 Q306.9094,318.375 307.55,318.5313 Q308.2063,318.6875 308.7688,318.9844 L308.7688,321.7031 Q308.1438,321.125 307.55,320.8594 Q306.9563,320.5781 306.3313,320.5781 Q304.9875,320.5781 304.3,321.6563 Q303.6125,322.7188 303.6125,324.8125 Q303.6125,326.9063 304.3,327.9844 Q304.9875,329.0469 306.3313,329.0469 Q306.9563,329.0469 307.55,328.7813 Q308.1438,328.5 308.7688,327.9219 L308.7688,330.6406 Z " fill="#000000"/><text fill="#000000" font-family="sans-serif" font-size="14" lengthAdjust="spacing" textLength="93" x="320.2" y="329.8467">CatalogBrand</text><line style="stroke:#181818;stroke-width:0.5;" x1="290" x2="417" y1="341" y2="341"/><line style="stroke:#181818;stroke-width:0.5;" x1="290" x2="417" y1="349" y2="349"/><ellipse cx="300" cy="362.6484" fill="#84BE84" rx="3" ry="3" style="stroke:#038048;stroke-width:1.0;"/><text fill="#000000" font-family="sans-serif" font-size="14" lengthAdjust="spacing" textLength="103" x="309" y="365.9951">CatalogBrand()</text></g><!--class CatalogBrandResponse--><g id="elem_CatalogBrandResponse"><rect codeLine="13" fill="#F1F1F1" height="80.5938" id="CatalogBrandResponse" rx="2.5" ry="2.5" style="stroke:#181818;stroke-width:0.5;" width="291" x="7" y="143"/><ellipse cx="66.25" cy="159" fill="#ADD1B2" rx="11" ry="11" style="stroke:#181818;stroke-width:1.0;"/><path d="M69.2188,164.6406 Q68.6406,164.9375 68,165.0781 Q67.3594,165.2344 66.6563,165.2344 Q64.1563,165.2344 62.8281,163.5938 Q61.5156,161.9375 61.5156,158.8125 Q61.5156,155.6875 62.8281,154.0313 Q64.1563,152.375 66.6563,152.375 Q67.3594,152.375 68,152.5313 Q68.6563,152.6875 69.2188,152.9844 L69.2188,155.7031 Q68.5938,155.125 68,154.8594 Q67.4063,154.5781 66.7813,154.5781 Q65.4375,154.5781 64.75,155.6563 Q64.0625,156.7188 64.0625,158.8125 Q64.0625,160.9063 64.75,161.9844 Q65.4375,163.0469 66.7813,163.0469 Q67.4063,163.0469 68,162.7813 Q68.5938,162.5 69.2188,161.9219 L69.2188,164.6406 Z " fill="#000000"/><text fill="#000000" font-family="sans-serif" font-size="14" lengthAdjust="spacing" textLength="164" x="86.75" y="163.8467">CatalogBrandResponse</text><line style="stroke:#181818;stroke-width:0.5;" x1="8" x2="297" y1="175" y2="175"/><ellipse cx="18" cy="188.6484" fill="none" rx="3" ry="3" style="stroke:#038048;stroke-width:1.0;"/><text fill="#000000" font-family="sans-serif" font-size="14" lengthAdjust="spacing" textLength="265" x="27" y="191.9951">List : List&lt;CatalogBrand&gt; &#171;get&#187; &#171;set&#187;</text><line style="stroke:#181818;stroke-width:0.5;" x1="8" x2="297" y1="199.2969" y2="199.2969"/><ellipse cx="18" cy="212.9453" fill="#84BE84" rx="3" ry="3" style="stroke:#038048;stroke-width:1.0;"/><text fill="#000000" font-family="sans-serif" font-size="14" lengthAdjust="spacing" textLength="174" x="27" y="216.292">CatalogBrandResponse()</text></g><!--reverse link LookupData to CatalogBrand--><g id="link_LookupData_CatalogBrand"><path codeLine="12" d="M401.11,250.8 C390.39,270.89 379.11,292.02 370.22,308.67 " fill="none" id="LookupData-backto-CatalogBrand" style="stroke:#181818;stroke-width:1.0;"/><polygon fill="none" points="395.33,247.77,410.92,233.42,407.68,254.36,395.33,247.77" style="stroke:#181818;stroke-width:1.0;"/></g><!--reverse link ILookupDataResponse`1 to CatalogBrandResponse--><g id="link_ILookupDataResponse`1_CatalogBrandResponse"><path codeLine="17" d="M152.5,95.24 C152.5,110.89 152.5,127.81 152.5,142.54 " fill="none" id="ILookupDataResponse`1-backto-CatalogBrandResponse" style="stroke:#181818;stroke-width:1.0;stroke-dasharray:7.0,7.0;"/><polygon fill="none" points="145.5,95.31,152.5,75.31,159.5,95.31,145.5,95.31" style="stroke:#181818;stroke-width:1.0;"/><text fill="#000000" font-family="sans-serif" font-size="13" lengthAdjust="spacing" textLength="109" x="32.2594" y="94.5708">&lt;CatalogBrand&gt;</text></g><!--reverse link CatalogBrandResponse to CatalogBrand--><g id="link_CatalogBrandResponse_CatalogBrand"><path codeLine="18" d="M215.01,232.86 C246.92,257.55 284.83,286.87 312.9,308.59 " fill="none" id="CatalogBrandResponse-backto-CatalogBrand" style="stroke:#181818;stroke-width:1.0;"/><polygon fill="#181818" points="205,224.34,207.2981,231.1751,214.4914,231.6826,212.1932,224.8475,205,224.34" style="stroke:#181818;stroke-width:1.0;"/><text fill="#000000" font-family="sans-serif" font-size="13" lengthAdjust="spacing" textLength="22" x="272.5" y="275.0669">List</text><text fill="#000000" font-family="sans-serif" font-size="13" lengthAdjust="spacing" textLength="7" x="297.4934" y="298.0334">*</text></g><!--SRC=[TP7F2i8m3CRlVOfGB_vX0wzITb0lW-51V03ZLaTnjcEj9_NTpJQa7TPUGfElltn9bNQoks8f8I-CkJtQFJeyIjiQRULvBKu-cm4y6T1PGQ6iWyqGfWeXQkcoFje-iZV3YtKTbWxA1gq5B_Qql2AMqkxdzLW-u5sIW31Arr7DBC3E5zHqxBMZQsFgROUwyjt2x20EB8bNaam44T9tEV5jXChipq0nsk24H_-00vzYEVbCqoY6HPqkQIg-vDE5Z8O_]--></g></svg>