<?xml version="1.0" encoding="us-ascii" standalone="no"?><svg xmlns="http://www.w3.org/2000/svg" xmlns:xlink="http://www.w3.org/1999/xlink" contentStyleType="text/css" height="134px" preserveAspectRatio="none" style="width:277px;height:134px;background:#FFFFFF;" version="1.1" viewBox="0 0 277 134" width="277px" zoomAndPan="magnify"><defs/><g><!--class LoginModel::InputModel--><g id="elem_LoginModel::InputModel"><rect codeLine="1" fill="#F1F1F1" height="113.1875" id="LoginModel::InputModel" rx="2.5" ry="2.5" style="stroke:#181818;stroke-width:0.5;" width="256" x="7" y="7"/><ellipse cx="48.1" cy="23" fill="#ADD1B2" rx="11" ry="11" style="stroke:#181818;stroke-width:1.0;"/><path d="M51.0688,28.6406 Q50.4906,28.9375 49.85,29.0781 Q49.2094,29.2344 48.5063,29.2344 Q46.0063,29.2344 44.6781,27.5938 Q43.3656,25.9375 43.3656,22.8125 Q43.3656,19.6875 44.6781,18.0313 Q46.0063,16.375 48.5063,16.375 Q49.2094,16.375 49.85,16.5313 Q50.5063,16.6875 51.0688,16.9844 L51.0688,19.7031 Q50.4438,19.125 49.85,18.8594 Q49.2563,18.5781 48.6313,18.5781 Q47.2875,18.5781 46.6,19.6563 Q45.9125,20.7188 45.9125,22.8125 Q45.9125,24.9063 46.6,25.9844 Q47.2875,27.0469 48.6313,27.0469 Q49.2563,27.0469 49.85,26.7813 Q50.4438,26.5 51.0688,25.9219 L51.0688,28.6406 Z " fill="#000000"/><text fill="#000000" font-family="sans-serif" font-size="14" lengthAdjust="spacing" textLength="166" x="67.9" y="27.8467">LoginModel::InputModel</text><line style="stroke:#181818;stroke-width:0.5;" x1="8" x2="262" y1="39" y2="39"/><ellipse cx="18" cy="52.6484" fill="none" rx="3" ry="3" style="stroke:#038048;stroke-width:1.0;"/><text fill="#000000" font-family="sans-serif" font-size="14" lengthAdjust="spacing" textLength="184" x="27" y="55.9951">Email : string? &#171;get&#187; &#171;set&#187;</text><ellipse cx="18" cy="68.9453" fill="none" rx="3" ry="3" style="stroke:#038048;stroke-width:1.0;"/><text fill="#000000" font-family="sans-serif" font-size="14" lengthAdjust="spacing" textLength="215" x="27" y="72.292">Password : string? &#171;get&#187; &#171;set&#187;</text><ellipse cx="18" cy="85.2422" fill="none" rx="3" ry="3" style="stroke:#038048;stroke-width:1.0;"/><text fill="#000000" font-family="sans-serif" font-size="14" lengthAdjust="spacing" textLength="230" x="27" y="88.5889">RememberMe : bool &#171;get&#187; &#171;set&#187;</text><line style="stroke:#181818;stroke-width:0.5;" x1="8" x2="262" y1="95.8906" y2="95.8906"/><ellipse cx="18" cy="109.5391" fill="#84BE84" rx="3" ry="3" style="stroke:#038048;stroke-width:1.0;"/><text fill="#000000" font-family="sans-serif" font-size="14" lengthAdjust="spacing" textLength="87" x="27" y="112.8857">InputModel()</text></g><!--SRC=[Iyv9B2vMyCbFpypppKz9pR6oyimhA2q1inKKghaKW41RmJKtCJD7mKgXkAGeCo_TNi769ZsrnCuEI1U3QAYg0A1HvVb5AGGL1gNcfkOcfHRvfWAL9kNdv-1GXt2AXYPNBG00]--></g></svg>