<?xml version="1.0" encoding="us-ascii" standalone="no"?><svg xmlns="http://www.w3.org/2000/svg" xmlns:xlink="http://www.w3.org/1999/xlink" contentStyleType="text/css" height="134px" preserveAspectRatio="none" style="width:314px;height:134px;background:#FFFFFF;" version="1.1" viewBox="0 0 314 134" width="314px" zoomAndPan="magnify"><defs/><g><!--class LoginWith2faViewModel--><g id="elem_LoginWith2faViewModel"><rect codeLine="1" fill="#F1F1F1" height="113.1875" id="LoginWith2faViewModel" rx="2.5" ry="2.5" style="stroke:#181818;stroke-width:0.5;" width="293" x="7" y="7"/><ellipse cx="68.25" cy="23" fill="#ADD1B2" rx="11" ry="11" style="stroke:#181818;stroke-width:1.0;"/><path d="M71.2188,28.6406 Q70.6406,28.9375 70,29.0781 Q69.3594,29.2344 68.6563,29.2344 Q66.1563,29.2344 64.8281,27.5938 Q63.5156,25.9375 63.5156,22.8125 Q63.5156,19.6875 64.8281,18.0313 Q66.1563,16.375 68.6563,16.375 Q69.3594,16.375 70,16.5313 Q70.6563,16.6875 71.2188,16.9844 L71.2188,19.7031 Q70.5938,19.125 70,18.8594 Q69.4063,18.5781 68.7813,18.5781 Q67.4375,18.5781 66.75,19.6563 Q66.0625,20.7188 66.0625,22.8125 Q66.0625,24.9063 66.75,25.9844 Q67.4375,27.0469 68.7813,27.0469 Q69.4063,27.0469 70,26.7813 Q70.5938,26.5 71.2188,25.9219 L71.2188,28.6406 Z " fill="#000000"/><text fill="#000000" font-family="sans-serif" font-size="14" lengthAdjust="spacing" textLength="162" x="88.75" y="27.8467">LoginWith2faViewModel</text><line style="stroke:#181818;stroke-width:0.5;" x1="8" x2="299" y1="39" y2="39"/><ellipse cx="18" cy="52.6484" fill="none" rx="3" ry="3" style="stroke:#038048;stroke-width:1.0;"/><text fill="#000000" font-family="sans-serif" font-size="14" lengthAdjust="spacing" textLength="257" x="27" y="55.9951">TwoFactorCode : string? &#171;get&#187; &#171;set&#187;</text><ellipse cx="18" cy="68.9453" fill="none" rx="3" ry="3" style="stroke:#038048;stroke-width:1.0;"/><text fill="#000000" font-family="sans-serif" font-size="14" lengthAdjust="spacing" textLength="267" x="27" y="72.292">RememberMachine : bool &#171;get&#187; &#171;set&#187;</text><ellipse cx="18" cy="85.2422" fill="none" rx="3" ry="3" style="stroke:#038048;stroke-width:1.0;"/><text fill="#000000" font-family="sans-serif" font-size="14" lengthAdjust="spacing" textLength="230" x="27" y="88.5889">RememberMe : bool &#171;get&#187; &#171;set&#187;</text><line style="stroke:#181818;stroke-width:0.5;" x1="8" x2="299" y1="95.8906" y2="95.8906"/><ellipse cx="18" cy="109.5391" fill="#84BE84" rx="3" ry="3" style="stroke:#038048;stroke-width:1.0;"/><text fill="#000000" font-family="sans-serif" font-size="14" lengthAdjust="spacing" textLength="172" x="27" y="112.8857">LoginWith2faViewModel()</text></g><!--SRC=[Iyv9B2vMyCbFpymBpop9C4fB3CjCBVVDJqdDKL2evb800cs5aF9yjyJaalmYPw2uWfL2SKbHPbwwlOADJNfgYPqTa2u6qL3LGQcvgRb9gKM-YSaPcNaWzKdv-Jc451DGXzM56ffSjG00]--></g></svg>