<?xml version="1.0" encoding="us-ascii" standalone="no"?><svg xmlns="http://www.w3.org/2000/svg" xmlns:xlink="http://www.w3.org/1999/xlink" contentStyleType="text/css" height="101px" preserveAspectRatio="none" style="width:344px;height:101px;background:#FFFFFF;" version="1.1" viewBox="0 0 344 101" width="344px" zoomAndPan="magnify"><defs/><g><!--class Route--><g id="elem_Route"><rect codeLine="1" fill="#F1F1F1" height="80.5938" id="Route" rx="2.5" ry="2.5" style="stroke:#181818;stroke-width:0.5;" width="323" x="7" y="7"/><ellipse cx="143.25" cy="23" fill="#ADD1B2" rx="11" ry="11" style="stroke:#181818;stroke-width:1.0;"/><path d="M146.2188,28.6406 Q145.6406,28.9375 145,29.0781 Q144.3594,29.2344 143.6563,29.2344 Q141.1563,29.2344 139.8281,27.5938 Q138.5156,25.9375 138.5156,22.8125 Q138.5156,19.6875 139.8281,18.0313 Q141.1563,16.375 143.6563,16.375 Q144.3594,16.375 145,16.5313 Q145.6563,16.6875 146.2188,16.9844 L146.2188,19.7031 Q145.5938,19.125 145,18.8594 Q144.4063,18.5781 143.7813,18.5781 Q142.4375,18.5781 141.75,19.6563 Q141.0625,20.7188 141.0625,22.8125 Q141.0625,24.9063 141.75,25.9844 Q142.4375,27.0469 143.7813,27.0469 Q144.4063,27.0469 145,26.7813 Q145.5938,26.5 146.2188,25.9219 L146.2188,28.6406 Z " fill="#000000"/><text fill="#000000" font-family="sans-serif" font-size="14" lengthAdjust="spacing" textLength="42" x="163.75" y="27.8467">Route</text><line style="stroke:#181818;stroke-width:0.5;" x1="8" x2="329" y1="39" y2="39"/><line style="stroke:#181818;stroke-width:0.5;" x1="8" x2="329" y1="47" y2="47"/><ellipse cx="18" cy="60.6484" fill="#84BE84" rx="3" ry="3" style="stroke:#038048;stroke-width:1.0;"/><text fill="#000000" font-family="sans-serif" font-size="14" lengthAdjust="spacing" textLength="207" x="27" y="63.9951">Route(jsRuntime : IJSRuntime)</text><ellipse cx="18" cy="76.9453" fill="#84BE84" rx="3" ry="3" style="stroke:#038048;stroke-width:1.0;"/><text fill="#000000" font-family="sans-serif" font-size="14" lengthAdjust="spacing" textLength="297" x="27" y="80.292">&#171;async&#187; RouteOutside(path : string) : Task</text></g><!--SRC=[Iyv9B2vM2CelBKbLKAZcKW02RGXN8wiug3Il93CtLS5AmTCh6ChHXAgniKaihinBjhE3gFOlBIdEJ4dLA4WioG2gBoufoinBrmIoGXABixbg0G00]--></g></svg>