<?xml version="1.0" encoding="us-ascii" standalone="no"?><svg xmlns="http://www.w3.org/2000/svg" xmlns:xlink="http://www.w3.org/1999/xlink" contentStyleType="text/css" height="538px" preserveAspectRatio="none" style="width:1070px;height:538px;background:#FFFFFF;" version="1.1" viewBox="0 0 1070 538" width="1070px" zoomAndPan="magnify"><defs/><g><!--class BaseMessage--><g id="elem_BaseMessage"><rect codeLine="1" fill="#F1F1F1" height="96.8906" id="BaseMessage" rx="2.5" ry="2.5" style="stroke:#181818;stroke-width:0.5;" width="168" x="9" y="7"/><ellipse cx="41.1" cy="23" fill="#A9DCDF" rx="11" ry="11" style="stroke:#181818;stroke-width:1.0;"/><path d="M41.2094,18.3438 L40.0531,23.4219 L42.3813,23.4219 L41.2094,18.3438 Z M39.725,16.1094 L42.7094,16.1094 L46.0688,28.5 L43.6156,28.5 L42.85,25.4375 L39.5688,25.4375 L38.8188,28.5 L36.3813,28.5 L39.725,16.1094 Z " fill="#000000"/><text fill="#000000" font-family="sans-serif" font-size="14" font-style="italic" lengthAdjust="spacing" textLength="98" x="58.9" y="27.8467">BaseMessage</text><line style="stroke:#181818;stroke-width:0.5;" x1="10" x2="176" y1="39" y2="39"/><polygon fill="none" points="20,47.6484,24,51.6484,20,55.6484,16,51.6484" style="stroke:#B38D22;stroke-width:1.0;"/><text fill="#000000" font-family="sans-serif" font-size="14" lengthAdjust="spacing" textLength="137" x="29" y="55.9951">_correlationId : Guid</text><line style="stroke:#181818;stroke-width:0.5;" x1="10" x2="176" y1="63.2969" y2="63.2969"/><ellipse cx="20" cy="76.9453" fill="#84BE84" rx="3" ry="3" style="stroke:#038048;stroke-width:1.0;"/><text fill="#000000" font-family="sans-serif" font-size="14" lengthAdjust="spacing" textLength="142" x="29" y="80.292">CorrelationId() : Guid</text><polygon fill="#FFFF44" points="20,88.2422,24,92.2422,20,96.2422,16,92.2422" style="stroke:#B38D22;stroke-width:1.0;"/><text fill="#000000" font-family="sans-serif" font-size="14" lengthAdjust="spacing" textLength="108" x="29" y="96.5889">BaseMessage()</text></g><!--class BaseRequest--><g id="elem_BaseRequest"><rect codeLine="6" fill="#F1F1F1" height="64.2969" id="BaseRequest" rx="2.5" ry="2.5" style="stroke:#181818;stroke-width:0.5;" width="130" x="28" y="180.5"/><ellipse cx="44.8" cy="196.5" fill="#A9DCDF" rx="11" ry="11" style="stroke:#181818;stroke-width:1.0;"/><path d="M44.9094,191.8438 L43.7531,196.9219 L46.0813,196.9219 L44.9094,191.8438 Z M43.425,189.6094 L46.4094,189.6094 L49.7688,202 L47.3156,202 L46.55,198.9375 L43.2688,198.9375 L42.5188,202 L40.0813,202 L43.425,189.6094 Z " fill="#000000"/><text fill="#000000" font-family="sans-serif" font-size="14" font-style="italic" lengthAdjust="spacing" textLength="94" x="59.2" y="201.3467">BaseRequest</text><line style="stroke:#181818;stroke-width:0.5;" x1="29" x2="157" y1="212.5" y2="212.5"/><line style="stroke:#181818;stroke-width:0.5;" x1="29" x2="157" y1="220.5" y2="220.5"/><polygon fill="#FFFF44" points="39,229.1484,43,233.1484,39,237.1484,35,233.1484" style="stroke:#B38D22;stroke-width:1.0;"/><text fill="#000000" font-family="sans-serif" font-size="14" lengthAdjust="spacing" textLength="104" x="48" y="237.4951">BaseRequest()</text></g><!--class UpdateCatalogItemRequest--><g id="elem_UpdateCatalogItemRequest"><rect codeLine="10" fill="#F1F1F1" height="210.9688" id="UpdateCatalogItemRequest" rx="2.5" ry="2.5" style="stroke:#181818;stroke-width:0.5;" width="268" x="226" y="321"/><ellipse cx="261.25" cy="337" fill="#ADD1B2" rx="11" ry="11" style="stroke:#181818;stroke-width:1.0;"/><path d="M264.2188,342.6406 Q263.6406,342.9375 263,343.0781 Q262.3594,343.2344 261.6563,343.2344 Q259.1563,343.2344 257.8281,341.5938 Q256.5156,339.9375 256.5156,336.8125 Q256.5156,333.6875 257.8281,332.0313 Q259.1563,330.375 261.6563,330.375 Q262.3594,330.375 263,330.5313 Q263.6563,330.6875 264.2188,330.9844 L264.2188,333.7031 Q263.5938,333.125 263,332.8594 Q262.4063,332.5781 261.7813,332.5781 Q260.4375,332.5781 259.75,333.6563 Q259.0625,334.7188 259.0625,336.8125 Q259.0625,338.9063 259.75,339.9844 Q260.4375,341.0469 261.7813,341.0469 Q262.4063,341.0469 263,340.7813 Q263.5938,340.5 264.2188,339.9219 L264.2188,342.6406 Z " fill="#000000"/><text fill="#000000" font-family="sans-serif" font-size="14" lengthAdjust="spacing" textLength="191" x="279.75" y="341.8467">UpdateCatalogItemRequest</text><line style="stroke:#181818;stroke-width:0.5;" x1="227" x2="493" y1="353" y2="353"/><ellipse cx="237" cy="366.6484" fill="none" rx="3" ry="3" style="stroke:#038048;stroke-width:1.0;"/><text fill="#000000" font-family="sans-serif" font-size="14" lengthAdjust="spacing" textLength="131" x="246" y="369.9951">Id : int &#171;get&#187; &#171;set&#187;</text><ellipse cx="237" cy="382.9453" fill="none" rx="3" ry="3" style="stroke:#038048;stroke-width:1.0;"/><text fill="#000000" font-family="sans-serif" font-size="14" lengthAdjust="spacing" textLength="224" x="246" y="386.292">CatalogBrandId : int &#171;get&#187; &#171;set&#187;</text><ellipse cx="237" cy="399.2422" fill="none" rx="3" ry="3" style="stroke:#038048;stroke-width:1.0;"/><text fill="#000000" font-family="sans-serif" font-size="14" lengthAdjust="spacing" textLength="217" x="246" y="402.5889">CatalogTypeId : int &#171;get&#187; &#171;set&#187;</text><ellipse cx="237" cy="415.5391" fill="none" rx="3" ry="3" style="stroke:#038048;stroke-width:1.0;"/><text fill="#000000" font-family="sans-serif" font-size="14" lengthAdjust="spacing" textLength="220" x="246" y="418.8857">Description : string &#171;get&#187; &#171;set&#187;</text><ellipse cx="237" cy="431.8359" fill="none" rx="3" ry="3" style="stroke:#038048;stroke-width:1.0;"/><text fill="#000000" font-family="sans-serif" font-size="14" lengthAdjust="spacing" textLength="181" x="246" y="435.1826">Name : string &#171;get&#187; &#171;set&#187;</text><ellipse cx="237" cy="448.1328" fill="none" rx="3" ry="3" style="stroke:#038048;stroke-width:1.0;"/><text fill="#000000" font-family="sans-serif" font-size="14" lengthAdjust="spacing" textLength="242" x="246" y="451.4795">PictureBase64 : string &#171;get&#187; &#171;set&#187;</text><ellipse cx="237" cy="464.4297" fill="none" rx="3" ry="3" style="stroke:#038048;stroke-width:1.0;"/><text fill="#000000" font-family="sans-serif" font-size="14" lengthAdjust="spacing" textLength="207" x="246" y="467.7764">PictureUri : string &#171;get&#187; &#171;set&#187;</text><ellipse cx="237" cy="480.7266" fill="none" rx="3" ry="3" style="stroke:#038048;stroke-width:1.0;"/><text fill="#000000" font-family="sans-serif" font-size="14" lengthAdjust="spacing" textLength="229" x="246" y="484.0732">PictureName : string &#171;get&#187; &#171;set&#187;</text><ellipse cx="237" cy="497.0234" fill="none" rx="3" ry="3" style="stroke:#038048;stroke-width:1.0;"/><text fill="#000000" font-family="sans-serif" font-size="14" lengthAdjust="spacing" textLength="189" x="246" y="500.3701">Price : decimal &#171;get&#187; &#171;set&#187;</text><line style="stroke:#181818;stroke-width:0.5;" x1="227" x2="493" y1="507.6719" y2="507.6719"/><ellipse cx="237" cy="521.3203" fill="#84BE84" rx="3" ry="3" style="stroke:#038048;stroke-width:1.0;"/><text fill="#000000" font-family="sans-serif" font-size="14" lengthAdjust="spacing" textLength="201" x="246" y="524.667">UpdateCatalogItemRequest()</text></g><!--class UpdateCatalogItemEndpoint--><g id="elem_UpdateCatalogItemEndpoint"><rect codeLine="23" fill="#F1F1F1" height="96.8906" id="UpdateCatalogItemEndpoint" rx="2.5" ry="2.5" style="stroke:#181818;stroke-width:0.5;" width="870" x="193" y="164"/><ellipse cx="526.75" cy="180" fill="#ADD1B2" rx="11" ry="11" style="stroke:#181818;stroke-width:1.0;"/><path d="M529.7188,185.6406 Q529.1406,185.9375 528.5,186.0781 Q527.8594,186.2344 527.1563,186.2344 Q524.6563,186.2344 523.3281,184.5938 Q522.0156,182.9375 522.0156,179.8125 Q522.0156,176.6875 523.3281,175.0313 Q524.6563,173.375 527.1563,173.375 Q527.8594,173.375 528.5,173.5313 Q529.1563,173.6875 529.7188,173.9844 L529.7188,176.7031 Q529.0938,176.125 528.5,175.8594 Q527.9063,175.5781 527.2813,175.5781 Q525.9375,175.5781 525.25,176.6563 Q524.5625,177.7188 524.5625,179.8125 Q524.5625,181.9063 525.25,182.9844 Q525.9375,184.0469 527.2813,184.0469 Q527.9063,184.0469 528.5,183.7813 Q529.0938,183.5 529.7188,182.9219 L529.7188,185.6406 Z " fill="#000000"/><text fill="#000000" font-family="sans-serif" font-size="14" lengthAdjust="spacing" textLength="194" x="547.25" y="184.8467">UpdateCatalogItemEndpoint</text><line style="stroke:#181818;stroke-width:0.5;" x1="194" x2="1062" y1="196" y2="196"/><line style="stroke:#181818;stroke-width:0.5;" x1="194" x2="1062" y1="204" y2="204"/><ellipse cx="204" cy="217.6484" fill="#84BE84" rx="3" ry="3" style="stroke:#038048;stroke-width:1.0;"/><text fill="#000000" font-family="sans-serif" font-size="14" lengthAdjust="spacing" textLength="399" x="213" y="220.9951">UpdateCatalogItemEndpoint(uriComposer : IUriComposer)</text><ellipse cx="204" cy="233.9453" fill="#84BE84" rx="3" ry="3" style="stroke:#038048;stroke-width:1.0;"/><text fill="#000000" font-family="sans-serif" font-size="14" lengthAdjust="spacing" textLength="314" x="213" y="237.292">AddRoute(app : IEndpointRouteBuilder) : void</text><ellipse cx="204" cy="250.2422" fill="#84BE84" rx="3" ry="3" style="stroke:#038048;stroke-width:1.0;"/><text fill="#000000" font-family="sans-serif" font-size="14" lengthAdjust="spacing" textLength="844" x="213" y="253.5889">&#171;async&#187; HandleAsync(request : UpdateCatalogItemRequest, itemRepository : IRepository&lt;CatalogItem&gt;) : Task&lt;IResult&gt;</text></g><!--class IEndpoint`3--><g id="elem_IEndpoint`3"><rect fill="#F1F1F1" height="48" id="IEndpoint`3" rx="2.5" ry="2.5" style="stroke:#181818;stroke-width:0.5;" width="113" x="571.5" y="31.5"/><ellipse cx="586.5" cy="47.5" fill="#ADD1B2" rx="11" ry="11" style="stroke:#181818;stroke-width:1.0;"/><path d="M589.4688,53.1406 Q588.8906,53.4375 588.25,53.5781 Q587.6094,53.7344 586.9063,53.7344 Q584.4063,53.7344 583.0781,52.0938 Q581.7656,50.4375 581.7656,47.3125 Q581.7656,44.1875 583.0781,42.5313 Q584.4063,40.875 586.9063,40.875 Q587.6094,40.875 588.25,41.0313 Q588.9063,41.1875 589.4688,41.4844 L589.4688,44.2031 Q588.8438,43.625 588.25,43.3594 Q587.6563,43.0781 587.0313,43.0781 Q585.6875,43.0781 585,44.1563 Q584.3125,45.2188 584.3125,47.3125 Q584.3125,49.4063 585,50.4844 Q585.6875,51.5469 587.0313,51.5469 Q587.6563,51.5469 588.25,51.2813 Q588.8438,51 589.4688,50.4219 L589.4688,53.1406 Z " fill="#000000"/><text fill="#000000" font-family="sans-serif" font-size="14" lengthAdjust="spacing" textLength="81" x="600.5" y="52.3467">IEndpoint`3</text><line style="stroke:#181818;stroke-width:0.5;" x1="572.5" x2="683.5" y1="63.5" y2="63.5"/><line style="stroke:#181818;stroke-width:0.5;" x1="572.5" x2="683.5" y1="71.5" y2="71.5"/></g><!--reverse link BaseMessage to BaseRequest--><g id="link_BaseMessage_BaseRequest"><path codeLine="9" d="M93,125.06 C93,144.33 93,164.36 93,180.27 " fill="none" id="BaseMessage-backto-BaseRequest" style="stroke:#181818;stroke-width:1.0;"/><polygon fill="none" points="86,125.27,93,105.27,100,125.27,86,125.27" style="stroke:#181818;stroke-width:1.0;"/></g><!--reverse link BaseRequest to UpdateCatalogItemRequest--><g id="link_BaseRequest_UpdateCatalogItemRequest"><path codeLine="22" d="M148.74,257.76 C171.94,276.18 199.95,298.42 227.87,320.59 " fill="none" id="BaseRequest-backto-UpdateCatalogItemRequest" style="stroke:#181818;stroke-width:1.0;"/><polygon fill="none" points="144.71,262.7,133.4,244.78,153.41,251.74,144.71,262.7" style="stroke:#181818;stroke-width:1.0;"/></g><!--reverse link IEndpoint`3 to UpdateCatalogItemEndpoint--><g id="link_IEndpoint`3_UpdateCatalogItemEndpoint"><path codeLine="28" d="M628,100.47 C628,120.22 628,143.57 628,163.75 " fill="none" id="IEndpoint`3-backto-UpdateCatalogItemEndpoint" style="stroke:#181818;stroke-width:1.0;stroke-dasharray:7.0,7.0;"/><polygon fill="none" points="621,100.71,628,80.71,635,100.71,621,100.71" style="stroke:#181818;stroke-width:1.0;"/><text fill="#000000" font-family="sans-serif" font-size="13" lengthAdjust="spacing" textLength="327" x="261.1469" y="99.5224">&lt;IResult, UpdateCatalogItemRequest, IRepository&gt;</text></g><!--link UpdateCatalogItemEndpoint to UpdateCatalogItemRequest--><g id="link_UpdateCatalogItemEndpoint_UpdateCatalogItemRequest"><path codeLine="29" d="M567.52,261.34 C546.45,278.01 521.86,297.46 497.13,317.02 " fill="none" id="UpdateCatalogItemEndpoint-to-UpdateCatalogItemRequest" style="stroke:#181818;stroke-width:1.0;stroke-dasharray:7.0,7.0;"/><polygon fill="#181818" points="493.51,320.68,503.0531,318.245,497.4351,317.5827,498.0974,311.9648,493.51,320.68" style="stroke:#181818;stroke-width:1.0;"/></g><!--SRC=[ZPBVIyCm4CVV-rU4xgLZMryK7qOeR5Dq3ugCxTcToL62RLEJL1Zg_sxIhLrGufgNSBdFtVT-15wrKS0COGLeJPQWyH6rXXm9-Oo8FIFomgHIM80HibfpCYVtZU2jRq9MlYiP-ywHdoqPHzyH_1NRu7k3sfp5lCSsng-8VircFX0Ty-ng3WPNOA2G-TfW-IlfXBHLYyeGIdCqMMPlxUwkYMFeKa75Xw7RGuqNo5lKJ8dQJSPojd5HvG7q2Kgyn3mBPXg5hlkRwu7mJec1vA0Ab60EuiX42KM02YsZNsQtd7QP8JgqsRkArzBDl5zj44aQ9LQohAL6PQjUxyxc-1Ixu7mZ6uC9rBL3kj3sSTc8WblMEZva_zyf1Nsec6txmNwM0XVEIjIfftcmeIaHhM7rXP7guEJE5lK2CgUu1Vr6BQ2RmcHsS75Vs_ug9d7dclwZvwNFOZljD0tFAWeFEaspeCWF]--></g></svg>