<?xml version="1.0" encoding="us-ascii" standalone="no"?><svg xmlns="http://www.w3.org/2000/svg" xmlns:xlink="http://www.w3.org/1999/xlink" contentStyleType="text/css" height="457px" preserveAspectRatio="none" style="width:1586px;height:457px;background:#FFFFFF;" version="1.1" viewBox="0 0 1586 457" width="1586px" zoomAndPan="magnify"><defs/><g><!--class ICatalogViewModelService--><g id="elem_ICatalogViewModelService"><rect codeLine="1" fill="#F1F1F1" height="96.8906" id="ICatalogViewModelService" rx="2.5" ry="2.5" style="stroke:#181818;stroke-width:0.5;" width="781" x="402.5" y="7"/><ellipse cx="699.25" cy="23" fill="#B4A7E5" rx="11" ry="11" style="stroke:#181818;stroke-width:1.0;"/><path d="M695.1719,18.7656 L695.1719,16.6094 L702.5625,16.6094 L702.5625,18.7656 L700.0938,18.7656 L700.0938,26.8438 L702.5625,26.8438 L702.5625,29 L695.1719,29 L695.1719,26.8438 L697.6406,26.8438 L697.6406,18.7656 L695.1719,18.7656 Z " fill="#000000"/><text fill="#000000" font-family="sans-serif" font-size="14" font-style="italic" lengthAdjust="spacing" textLength="179" x="719.75" y="27.8467">ICatalogViewModelService</text><line style="stroke:#181818;stroke-width:0.5;" x1="403.5" x2="1182.5" y1="39" y2="39"/><line style="stroke:#181818;stroke-width:0.5;" x1="403.5" x2="1182.5" y1="47" y2="47"/><ellipse cx="413.5" cy="60.6484" fill="#84BE84" rx="3" ry="3" style="stroke:#038048;stroke-width:1.0;"/><text fill="#000000" font-family="sans-serif" font-size="14" lengthAdjust="spacing" textLength="755" x="422.5" y="63.9951">GetCatalogItems(pageIndex : int, itemsPage : int, brandId : int?, typeId : int?) : Task&lt;CatalogIndexViewModel&gt;</text><ellipse cx="413.5" cy="76.9453" fill="#84BE84" rx="3" ry="3" style="stroke:#038048;stroke-width:1.0;"/><text fill="#000000" font-family="sans-serif" font-size="14" lengthAdjust="spacing" textLength="360" x="422.5" y="80.292">GetBrands() : Task&lt;IEnumerable&lt;SelectListItem&gt;&gt;</text><ellipse cx="413.5" cy="93.2422" fill="#84BE84" rx="3" ry="3" style="stroke:#038048;stroke-width:1.0;"/><text fill="#000000" font-family="sans-serif" font-size="14" lengthAdjust="spacing" textLength="353" x="422.5" y="96.5889">GetTypes() : Task&lt;IEnumerable&lt;SelectListItem&gt;&gt;</text></g><!--class CatalogViewModelService--><g id="elem_CatalogViewModelService"><rect codeLine="7" fill="#F1F1F1" height="113.1875" id="CatalogViewModelService" rx="2.5" ry="2.5" style="stroke:#181818;stroke-width:0.5;" width="1572" x="7" y="337"/><ellipse cx="700.75" cy="353" fill="#ADD1B2" rx="11" ry="11" style="stroke:#181818;stroke-width:1.0;"/><path d="M703.7188,358.6406 Q703.1406,358.9375 702.5,359.0781 Q701.8594,359.2344 701.1563,359.2344 Q698.6563,359.2344 697.3281,357.5938 Q696.0156,355.9375 696.0156,352.8125 Q696.0156,349.6875 697.3281,348.0313 Q698.6563,346.375 701.1563,346.375 Q701.8594,346.375 702.5,346.5313 Q703.1563,346.6875 703.7188,346.9844 L703.7188,349.7031 Q703.0938,349.125 702.5,348.8594 Q701.9063,348.5781 701.2813,348.5781 Q699.9375,348.5781 699.25,349.6563 Q698.5625,350.7188 698.5625,352.8125 Q698.5625,354.9063 699.25,355.9844 Q699.9375,357.0469 701.2813,357.0469 Q701.9063,357.0469 702.5,356.7813 Q703.0938,356.5 703.7188,355.9219 L703.7188,358.6406 Z " fill="#000000"/><text fill="#000000" font-family="sans-serif" font-size="14" lengthAdjust="spacing" textLength="176" x="721.25" y="357.8467">CatalogViewModelService</text><line style="stroke:#181818;stroke-width:0.5;" x1="8" x2="1578" y1="369" y2="369"/><line style="stroke:#181818;stroke-width:0.5;" x1="8" x2="1578" y1="377" y2="377"/><ellipse cx="18" cy="390.6484" fill="#84BE84" rx="3" ry="3" style="stroke:#038048;stroke-width:1.0;"/><text fill="#000000" font-family="sans-serif" font-size="14" lengthAdjust="spacing" textLength="1546" x="27" y="393.9951">CatalogViewModelService(loggerFactory : ILoggerFactory, itemRepository : IRepository&lt;CatalogItem&gt;, brandRepository : IRepository&lt;CatalogBrand&gt;, typeRepository : IRepository&lt;CatalogType&gt;, uriComposer : IUriComposer)</text><ellipse cx="18" cy="406.9453" fill="#84BE84" rx="3" ry="3" style="stroke:#038048;stroke-width:1.0;"/><text fill="#000000" font-family="sans-serif" font-size="14" lengthAdjust="spacing" textLength="817" x="27" y="410.292">&#171;async&#187; GetCatalogItems(pageIndex : int, itemsPage : int, brandId : int?, typeId : int?) : Task&lt;CatalogIndexViewModel&gt;</text><ellipse cx="18" cy="423.2422" fill="#84BE84" rx="3" ry="3" style="stroke:#038048;stroke-width:1.0;"/><text fill="#000000" font-family="sans-serif" font-size="14" lengthAdjust="spacing" textLength="422" x="27" y="426.5889">&#171;async&#187; GetBrands() : Task&lt;IEnumerable&lt;SelectListItem&gt;&gt;</text><ellipse cx="18" cy="439.5391" fill="#84BE84" rx="3" ry="3" style="stroke:#038048;stroke-width:1.0;"/><text fill="#000000" font-family="sans-serif" font-size="14" lengthAdjust="spacing" textLength="415" x="27" y="442.8857">&#171;async&#187; GetTypes() : Task&lt;IEnumerable&lt;SelectListItem&gt;&gt;</text></g><!--class CachedCatalogViewModelService--><g id="elem_CachedCatalogViewModelService"><rect codeLine="14" fill="#F1F1F1" height="113.1875" id="CachedCatalogViewModelService" rx="2.5" ry="2.5" style="stroke:#181818;stroke-width:0.5;" width="843" x="609.5" y="164"/><ellipse cx="912.25" cy="180" fill="#ADD1B2" rx="11" ry="11" style="stroke:#181818;stroke-width:1.0;"/><path d="M915.2188,185.6406 Q914.6406,185.9375 914,186.0781 Q913.3594,186.2344 912.6563,186.2344 Q910.1563,186.2344 908.8281,184.5938 Q907.5156,182.9375 907.5156,179.8125 Q907.5156,176.6875 908.8281,175.0313 Q910.1563,173.375 912.6563,173.375 Q913.3594,173.375 914,173.5313 Q914.6563,173.6875 915.2188,173.9844 L915.2188,176.7031 Q914.5938,176.125 914,175.8594 Q913.4063,175.5781 912.7813,175.5781 Q911.4375,175.5781 910.75,176.6563 Q910.0625,177.7188 910.0625,179.8125 Q910.0625,181.9063 910.75,182.9844 Q911.4375,184.0469 912.7813,184.0469 Q913.4063,184.0469 914,183.7813 Q914.5938,183.5 915.2188,182.9219 L915.2188,185.6406 Z " fill="#000000"/><text fill="#000000" font-family="sans-serif" font-size="14" lengthAdjust="spacing" textLength="229" x="932.75" y="184.8467">CachedCatalogViewModelService</text><line style="stroke:#181818;stroke-width:0.5;" x1="610.5" x2="1451.5" y1="196" y2="196"/><line style="stroke:#181818;stroke-width:0.5;" x1="610.5" x2="1451.5" y1="204" y2="204"/><ellipse cx="620.5" cy="217.6484" fill="#84BE84" rx="3" ry="3" style="stroke:#038048;stroke-width:1.0;"/><text fill="#000000" font-family="sans-serif" font-size="14" lengthAdjust="spacing" textLength="767" x="629.5" y="220.9951">CachedCatalogViewModelService(cache : IMemoryCache, catalogViewModelService : CatalogViewModelService)</text><ellipse cx="620.5" cy="233.9453" fill="#84BE84" rx="3" ry="3" style="stroke:#038048;stroke-width:1.0;"/><text fill="#000000" font-family="sans-serif" font-size="14" lengthAdjust="spacing" textLength="422" x="629.5" y="237.292">&#171;async&#187; GetBrands() : Task&lt;IEnumerable&lt;SelectListItem&gt;&gt;</text><ellipse cx="620.5" cy="250.2422" fill="#84BE84" rx="3" ry="3" style="stroke:#038048;stroke-width:1.0;"/><text fill="#000000" font-family="sans-serif" font-size="14" lengthAdjust="spacing" textLength="817" x="629.5" y="253.5889">&#171;async&#187; GetCatalogItems(pageIndex : int, itemsPage : int, brandId : int?, typeId : int?) : Task&lt;CatalogIndexViewModel&gt;</text><ellipse cx="620.5" cy="266.5391" fill="#84BE84" rx="3" ry="3" style="stroke:#038048;stroke-width:1.0;"/><text fill="#000000" font-family="sans-serif" font-size="14" lengthAdjust="spacing" textLength="415" x="629.5" y="269.8857">&#171;async&#187; GetTypes() : Task&lt;IEnumerable&lt;SelectListItem&gt;&gt;</text></g><!--reverse link ICatalogViewModelService to CatalogViewModelService--><g id="link_ICatalogViewModelService_CatalogViewModelService"><path codeLine="13" d="M637.49,116.02 C619.41,129.16 603.39,145 592,164 C566.19,207.08 566.84,233.53 592,277 C606.06,301.3 627.38,320.93 650.96,336.63 " fill="none" id="ICatalogViewModelService-backto-CatalogViewModelService" style="stroke:#181818;stroke-width:1.0;stroke-dasharray:7.0,7.0;"/><polygon fill="none" points="633.44,109.65,653.99,104.46,641.16,121.33,633.44,109.65" style="stroke:#181818;stroke-width:1.0;"/></g><!--reverse link ICatalogViewModelService to CachedCatalogViewModelService--><g id="link_ICatalogViewModelService_CachedCatalogViewModelService"><path codeLine="20" d="M879.8,115.95 C902.55,131.53 926.99,148.27 949.45,163.65 " fill="none" id="ICatalogViewModelService-backto-CachedCatalogViewModelService" style="stroke:#181818;stroke-width:1.0;stroke-dasharray:7.0,7.0;"/><polygon fill="none" points="876.35,121.38,863.8,104.3,884.26,109.83,876.35,121.38" style="stroke:#181818;stroke-width:1.0;"/></g><!--link CachedCatalogViewModelService to CatalogViewModelService--><g id="link_CachedCatalogViewModelService_CatalogViewModelService"><path codeLine="21" d="M953.07,277.49 C928.18,295.37 900.56,315.22 875.37,333.32 " fill="none" id="CachedCatalogViewModelService-to-CatalogViewModelService" style="stroke:#181818;stroke-width:1.0;stroke-dasharray:7.0,7.0;"/><polygon fill="#181818" points="871.7,336.67,881.3433,334.6681,875.7609,333.753,876.6761,328.1707,871.7,336.67" style="stroke:#181818;stroke-width:1.0;"/></g><!--SRC=[nLBBJiCm4BpdAtnCH9GFg2mZKG6or4g85kwkimIBn8bi5uY0VyTkdZquAGXKNwoTdTsrPrP80-g9SK1qoGpBo-nHmDkwJ27VW7eLDe4-0cJF1Re5qtAeWKA75Sk0oXJUqG89QM8a77ndqGxOAIPJcZRXPOnCNK4VHlRUCls2kwQkLJ-T34ElN1STzdnwBVS5ABRB0MyW1svMGXlt9ZAgsjfPfnPz1G7FcTPeLWCF8RHO1kg6SLEgsiwagp7GI7CFLQb5HnWYF5ALjABDSG-Qa4RHEQvJmbBtIYpBmYP1ETx344Rjvp1ckfQSaFDOVJJ-5wOVrV_CVk_ouyyayPdUxmn_XlI4pPcWXTnbdIrhAAnr1tACkAVfmlUaw3-aFFCc_AsJ4oO4qquc2V79_Wq0]--></g></svg>