<?xml version="1.0" encoding="us-ascii" standalone="no"?><svg xmlns="http://www.w3.org/2000/svg" xmlns:xlink="http://www.w3.org/1999/xlink" contentStyleType="text/css" height="101px" preserveAspectRatio="none" style="width:314px;height:101px;background:#FFFFFF;" version="1.1" viewBox="0 0 314 101" width="314px" zoomAndPan="magnify"><defs/><g><!--class ShowRecoveryCodesViewModel--><g id="elem_ShowRecoveryCodesViewModel"><rect codeLine="1" fill="#F1F1F1" height="80.5938" id="ShowRecoveryCodesViewModel" rx="2.5" ry="2.5" style="stroke:#181818;stroke-width:0.5;" width="293" x="7" y="7"/><ellipse cx="40" cy="23" fill="#ADD1B2" rx="11" ry="11" style="stroke:#181818;stroke-width:1.0;"/><path d="M42.9688,28.6406 Q42.3906,28.9375 41.75,29.0781 Q41.1094,29.2344 40.4063,29.2344 Q37.9063,29.2344 36.5781,27.5938 Q35.2656,25.9375 35.2656,22.8125 Q35.2656,19.6875 36.5781,18.0313 Q37.9063,16.375 40.4063,16.375 Q41.1094,16.375 41.75,16.5313 Q42.4063,16.6875 42.9688,16.9844 L42.9688,19.7031 Q42.3438,19.125 41.75,18.8594 Q41.1563,18.5781 40.5313,18.5781 Q39.1875,18.5781 38.5,19.6563 Q37.8125,20.7188 37.8125,22.8125 Q37.8125,24.9063 38.5,25.9844 Q39.1875,27.0469 40.5313,27.0469 Q41.1563,27.0469 41.75,26.7813 Q42.3438,26.5 42.9688,25.9219 L42.9688,28.6406 Z " fill="#000000"/><text fill="#000000" font-family="sans-serif" font-size="14" lengthAdjust="spacing" textLength="221" x="58" y="27.8467">ShowRecoveryCodesViewModel</text><line style="stroke:#181818;stroke-width:0.5;" x1="8" x2="299" y1="39" y2="39"/><ellipse cx="18" cy="52.6484" fill="none" rx="3" ry="3" style="stroke:#038048;stroke-width:1.0;"/><text fill="#000000" font-family="sans-serif" font-size="14" lengthAdjust="spacing" textLength="267" x="27" y="55.9951">RecoveryCodes : string[]? &#171;get&#187; &#171;set&#187;</text><line style="stroke:#181818;stroke-width:0.5;" x1="8" x2="299" y1="63.2969" y2="63.2969"/><ellipse cx="18" cy="76.9453" fill="#84BE84" rx="3" ry="3" style="stroke:#038048;stroke-width:1.0;"/><text fill="#000000" font-family="sans-serif" font-size="14" lengthAdjust="spacing" textLength="231" x="27" y="80.292">ShowRecoveryCodesViewModel()</text></g><!--SRC=[Iyv9B2vM2Cx8BmzAJSulIosgTCvFIIqEoqmjzmKoSXGKghaKW41R0KLUmKgXkAGeCoyzEjPUmSOcFRN4pWv85uDeg7hSPcfeSjK20000]--></g></svg>