<?xml version="1.0" encoding="us-ascii" standalone="no"?><svg xmlns="http://www.w3.org/2000/svg" xmlns:xlink="http://www.w3.org/1999/xlink" contentStyleType="text/css" height="359px" preserveAspectRatio="none" style="width:1062px;height:359px;background:#FFFFFF;" version="1.1" viewBox="0 0 1062 359" width="1062px" zoomAndPan="magnify"><defs/><g><!--class GetOrderDetails--><g id="elem_GetOrderDetails"><rect codeLine="1" fill="#F1F1F1" height="96.8906" id="GetOrderDetails" rx="2.5" ry="2.5" style="stroke:#181818;stroke-width:0.5;" width="357" x="210.7227" y="256"/><ellipse cx="329.4727" cy="272" fill="#ADD1B2" rx="11" ry="11" style="stroke:#181818;stroke-width:1.0;"/><path d="M332.4414,277.6406 Q331.8633,277.9375 331.2227,278.0781 Q330.5821,278.2344 329.8789,278.2344 Q327.3789,278.2344 326.0508,276.5938 Q324.7383,274.9375 324.7383,271.8125 Q324.7383,268.6875 326.0508,267.0313 Q327.3789,265.375 329.8789,265.375 Q330.5821,265.375 331.2227,265.5313 Q331.8789,265.6875 332.4414,265.9844 L332.4414,268.7031 Q331.8164,268.125 331.2227,267.8594 Q330.6289,267.5781 330.0039,267.5781 Q328.6602,267.5781 327.9727,268.6563 Q327.2852,269.7188 327.2852,271.8125 Q327.2852,273.9063 327.9727,274.9844 Q328.6602,276.0469 330.0039,276.0469 Q330.6289,276.0469 331.2227,275.7813 Q331.8164,275.5 332.4414,274.9219 L332.4414,277.6406 Z " fill="#000000"/><text fill="#000000" font-family="sans-serif" font-size="14" lengthAdjust="spacing" textLength="111" x="349.9727" y="276.8467">GetOrderDetails</text><line style="stroke:#181818;stroke-width:0.5;" x1="211.7227" x2="566.7227" y1="288" y2="288"/><ellipse cx="221.7227" cy="301.6484" fill="none" rx="3" ry="3" style="stroke:#038048;stroke-width:1.0;"/><text fill="#000000" font-family="sans-serif" font-size="14" lengthAdjust="spacing" textLength="213" x="230.7227" y="304.9951">UserName : string &#171;get&#187; &#171;set&#187;</text><ellipse cx="221.7227" cy="317.9453" fill="none" rx="3" ry="3" style="stroke:#038048;stroke-width:1.0;"/><text fill="#000000" font-family="sans-serif" font-size="14" lengthAdjust="spacing" textLength="170" x="230.7227" y="321.292">OrderId : int &#171;get&#187; &#171;set&#187;</text><line style="stroke:#181818;stroke-width:0.5;" x1="211.7227" x2="566.7227" y1="328.5938" y2="328.5938"/><ellipse cx="221.7227" cy="342.2422" fill="#84BE84" rx="3" ry="3" style="stroke:#038048;stroke-width:1.0;"/><text fill="#000000" font-family="sans-serif" font-size="14" lengthAdjust="spacing" textLength="331" x="230.7227" y="345.5889">GetOrderDetails(userName : string, orderId : int)</text></g><!--class IRequest`1--><g id="elem_IRequest`1"><rect fill="#F1F1F1" height="48" id="IRequest`1" rx="2.5" ry="2.5" style="stroke:#181818;stroke-width:0.5;" width="110" x="82.2227" y="131.5"/><ellipse cx="97.2227" cy="147.5" fill="#ADD1B2" rx="11" ry="11" style="stroke:#181818;stroke-width:1.0;"/><path d="M100.1914,153.1406 Q99.6133,153.4375 98.9727,153.5781 Q98.3321,153.7344 97.6289,153.7344 Q95.1289,153.7344 93.8008,152.0938 Q92.4883,150.4375 92.4883,147.3125 Q92.4883,144.1875 93.8008,142.5313 Q95.1289,140.875 97.6289,140.875 Q98.3321,140.875 98.9727,141.0313 Q99.6289,141.1875 100.1914,141.4844 L100.1914,144.2031 Q99.5664,143.625 98.9727,143.3594 Q98.3789,143.0781 97.7539,143.0781 Q96.4102,143.0781 95.7227,144.1563 Q95.0352,145.2188 95.0352,147.3125 Q95.0352,149.4063 95.7227,150.4844 Q96.4102,151.5469 97.7539,151.5469 Q98.3789,151.5469 98.9727,151.2813 Q99.5664,151 100.1914,150.4219 L100.1914,153.1406 Z " fill="#000000"/><text fill="#000000" font-family="sans-serif" font-size="14" lengthAdjust="spacing" textLength="78" x="111.2227" y="152.3467">IRequest`1</text><line style="stroke:#181818;stroke-width:0.5;" x1="83.2227" x2="191.2227" y1="163.5" y2="163.5"/><line style="stroke:#181818;stroke-width:0.5;" x1="83.2227" x2="191.2227" y1="171.5" y2="171.5"/></g><!--class GetOrderDetailsHandler--><g id="elem_GetOrderDetailsHandler"><rect codeLine="7" fill="#F1F1F1" height="80.5938" id="GetOrderDetailsHandler" rx="2.5" ry="2.5" style="stroke:#181818;stroke-width:0.5;" width="828" x="227.2227" y="115"/><ellipse cx="554.9727" cy="131" fill="#ADD1B2" rx="11" ry="11" style="stroke:#181818;stroke-width:1.0;"/><path d="M557.9414,136.6406 Q557.3633,136.9375 556.7227,137.0781 Q556.0821,137.2344 555.3789,137.2344 Q552.8789,137.2344 551.5508,135.5938 Q550.2383,133.9375 550.2383,130.8125 Q550.2383,127.6875 551.5508,126.0313 Q552.8789,124.375 555.3789,124.375 Q556.0821,124.375 556.7227,124.5313 Q557.3789,124.6875 557.9414,124.9844 L557.9414,127.7031 Q557.3164,127.125 556.7227,126.8594 Q556.1289,126.5781 555.5039,126.5781 Q554.1602,126.5781 553.4727,127.6563 Q552.7852,128.7188 552.7852,130.8125 Q552.7852,132.9063 553.4727,133.9844 Q554.1602,135.0469 555.5039,135.0469 Q556.1289,135.0469 556.7227,134.7813 Q557.3164,134.5 557.9414,133.9219 L557.9414,136.6406 Z " fill="#000000"/><text fill="#000000" font-family="sans-serif" font-size="14" lengthAdjust="spacing" textLength="164" x="575.4727" y="135.8467">GetOrderDetailsHandler</text><line style="stroke:#181818;stroke-width:0.5;" x1="228.2227" x2="1054.2227" y1="147" y2="147"/><line style="stroke:#181818;stroke-width:0.5;" x1="228.2227" x2="1054.2227" y1="155" y2="155"/><ellipse cx="238.2227" cy="168.6484" fill="#84BE84" rx="3" ry="3" style="stroke:#038048;stroke-width:1.0;"/><text fill="#000000" font-family="sans-serif" font-size="14" lengthAdjust="spacing" textLength="474" x="247.2227" y="171.9951">GetOrderDetailsHandler(orderRepository : IReadRepository&lt;Order&gt;)</text><ellipse cx="238.2227" cy="184.9453" fill="#84BE84" rx="3" ry="3" style="stroke:#038048;stroke-width:1.0;"/><text fill="#000000" font-family="sans-serif" font-size="14" lengthAdjust="spacing" textLength="802" x="247.2227" y="188.292">&#171;async&#187; Handle(request : GetOrderDetails, cancellationToken : CancellationToken) : Task&lt;OrderDetailViewModel?&gt;</text></g><!--class IRequestHandler`2--><g id="elem_IRequestHandler`2"><rect fill="#F1F1F1" height="48" id="IRequestHandler`2" rx="2.5" ry="2.5" style="stroke:#181818;stroke-width:0.5;" width="163" x="559.7227" y="7"/><ellipse cx="574.7227" cy="23" fill="#ADD1B2" rx="11" ry="11" style="stroke:#181818;stroke-width:1.0;"/><path d="M577.6914,28.6406 Q577.1133,28.9375 576.4727,29.0781 Q575.8321,29.2344 575.1289,29.2344 Q572.6289,29.2344 571.3008,27.5938 Q569.9883,25.9375 569.9883,22.8125 Q569.9883,19.6875 571.3008,18.0313 Q572.6289,16.375 575.1289,16.375 Q575.8321,16.375 576.4727,16.5313 Q577.1289,16.6875 577.6914,16.9844 L577.6914,19.7031 Q577.0664,19.125 576.4727,18.8594 Q575.8789,18.5781 575.2539,18.5781 Q573.9102,18.5781 573.2227,19.6563 Q572.5352,20.7188 572.5352,22.8125 Q572.5352,24.9063 573.2227,25.9844 Q573.9102,27.0469 575.2539,27.0469 Q575.8789,27.0469 576.4727,26.7813 Q577.0664,26.5 577.6914,25.9219 L577.6914,28.6406 Z " fill="#000000"/><text fill="#000000" font-family="sans-serif" font-size="14" lengthAdjust="spacing" textLength="131" x="588.7227" y="27.8467">IRequestHandler`2</text><line style="stroke:#181818;stroke-width:0.5;" x1="560.7227" x2="721.7227" y1="39" y2="39"/><line style="stroke:#181818;stroke-width:0.5;" x1="560.7227" x2="721.7227" y1="47" y2="47"/></g><!--reverse link IRequest`1 to GetOrderDetails--><g id="link_IRequest`1_GetOrderDetails"><path codeLine="6" d="M195.3327,190.4 C228.5127,209.75 270.6527,234.33 307.1527,255.63 " fill="none" id="IRequest`1-backto-GetOrderDetails" style="stroke:#181818;stroke-width:1.0;stroke-dasharray:7.0,7.0;"/><polygon fill="none" points="192.1827,196.08,178.4327,179.96,199.2327,183.99,192.1827,196.08" style="stroke:#181818;stroke-width:1.0;"/><text fill="#000000" font-family="sans-serif" font-size="13" lengthAdjust="spacing" textLength="162" x="6" y="199.433">&lt;OrderDetailViewModel&gt;</text></g><!--reverse link IRequestHandler`2 to GetOrderDetailsHandler--><g id="link_IRequestHandler`2_GetOrderDetailsHandler"><path codeLine="11" d="M641.2227,75.89 C641.2227,88.61 641.2227,102.42 641.2227,114.87 " fill="none" id="IRequestHandler`2-backto-GetOrderDetailsHandler" style="stroke:#181818;stroke-width:1.0;stroke-dasharray:7.0,7.0;"/><polygon fill="none" points="634.2227,76.33,641.2227,56.33,648.2227,76.33,634.2227,76.33" style="stroke:#181818;stroke-width:1.0;"/><text fill="#000000" font-family="sans-serif" font-size="13" lengthAdjust="spacing" textLength="273" x="334.9508" y="75.1716">&lt;GetOrderDetails, OrderDetailViewModel&gt;</text></g><!--link GetOrderDetailsHandler to GetOrderDetails--><g id="link_GetOrderDetailsHandler_GetOrderDetails"><path codeLine="12" d="M572.6927,196.47 C542.9527,213.83 507.7727,234.35 476.2127,252.76 " fill="none" id="GetOrderDetailsHandler-to-GetOrderDetails" style="stroke:#181818;stroke-width:1.0;stroke-dasharray:7.0,7.0;"/><polygon fill="#181818" points="472.1827,255.69,481.9715,254.6043,476.5,253.168,477.9363,247.6965,472.1827,255.69" style="stroke:#181818;stroke-width:1.0;"/></g><!--SRC=[bL31QW8n4BtdAuOzxL9PiCSIqaCBrKChYEtPa0mIZ8dDH4JQ_dj7Ty4bNG_DPM3otfltdl6Q25umBvB5z8nPEqy0NmButS4xONhJEuG7e9nSs82K6ynAyQJpx74Nzjmop8Ly0rCSgG-bzWJYKAOHFwAQB_7pW9JNqmegEU1_E3o-HejULI2_sxQK5sOisKm7wp5T0ux_rnSZIzn7SZcc4njY8zfUDvqLrVGoKcew1SEPEuKwTRQPM5oOWD71eFSwknXMSOk1GK_bhk7bIjDsDFAZ6bRJUrxVdnlwS-qVbVL2uaPdRQjAnYy0]--></g></svg>