<?xml version="1.0" encoding="us-ascii" standalone="no"?><svg xmlns="http://www.w3.org/2000/svg" xmlns:xlink="http://www.w3.org/1999/xlink" contentStyleType="text/css" height="713px" preserveAspectRatio="none" style="width:1272px;height:713px;background:#FFFFFF;" version="1.1" viewBox="0 0 1272 713" width="1272px" zoomAndPan="magnify"><defs/><g><!--class IBasketViewModelService--><g id="elem_IBasketViewModelService"><rect codeLine="1" fill="#F1F1F1" height="96.8906" id="IBasketViewModelService" rx="2.5" ry="2.5" style="stroke:#181818;stroke-width:0.5;" width="540" x="7" y="338"/><ellipse cx="185.25" cy="354" fill="#B4A7E5" rx="11" ry="11" style="stroke:#181818;stroke-width:1.0;"/><path d="M181.1719,349.7656 L181.1719,347.6094 L188.5625,347.6094 L188.5625,349.7656 L186.0938,349.7656 L186.0938,357.8438 L188.5625,357.8438 L188.5625,360 L181.1719,360 L181.1719,357.8438 L183.6406,357.8438 L183.6406,349.7656 L181.1719,349.7656 Z " fill="#000000"/><text fill="#000000" font-family="sans-serif" font-size="14" font-style="italic" lengthAdjust="spacing" textLength="175" x="205.75" y="358.8467">IBasketViewModelService</text><line style="stroke:#181818;stroke-width:0.5;" x1="8" x2="546" y1="370" y2="370"/><line style="stroke:#181818;stroke-width:0.5;" x1="8" x2="546" y1="378" y2="378"/><ellipse cx="18" cy="391.6484" fill="#84BE84" rx="3" ry="3" style="stroke:#038048;stroke-width:1.0;"/><text fill="#000000" font-family="sans-serif" font-size="14" lengthAdjust="spacing" textLength="514" x="27" y="394.9951">GetOrCreateBasketForUser(userName : string) : Task&lt;BasketViewModel&gt;</text><ellipse cx="18" cy="407.9453" fill="#84BE84" rx="3" ry="3" style="stroke:#038048;stroke-width:1.0;"/><text fill="#000000" font-family="sans-serif" font-size="14" lengthAdjust="spacing" textLength="381" x="27" y="411.292">CountTotalBasketItems(username : string) : Task&lt;int&gt;</text><ellipse cx="18" cy="424.2422" fill="#84BE84" rx="3" ry="3" style="stroke:#038048;stroke-width:1.0;"/><text fill="#000000" font-family="sans-serif" font-size="14" lengthAdjust="spacing" textLength="339" x="27" y="427.5889">Map(basket : Basket) : Task&lt;BasketViewModel&gt;</text></g><!--class BasketItemViewModel--><g id="elem_BasketItemViewModel"><rect codeLine="6" fill="#F1F1F1" height="178.375" id="BasketItemViewModel" rx="2.5" ry="2.5" style="stroke:#181818;stroke-width:0.5;" width="268" x="631" y="528"/><ellipse cx="684.75" cy="544" fill="#ADD1B2" rx="11" ry="11" style="stroke:#181818;stroke-width:1.0;"/><path d="M687.7188,549.6406 Q687.1406,549.9375 686.5,550.0781 Q685.8594,550.2344 685.1563,550.2344 Q682.6563,550.2344 681.3281,548.5938 Q680.0156,546.9375 680.0156,543.8125 Q680.0156,540.6875 681.3281,539.0313 Q682.6563,537.375 685.1563,537.375 Q685.8594,537.375 686.5,537.5313 Q687.1563,537.6875 687.7188,537.9844 L687.7188,540.7031 Q687.0938,540.125 686.5,539.8594 Q685.9063,539.5781 685.2813,539.5781 Q683.9375,539.5781 683.25,540.6563 Q682.5625,541.7188 682.5625,543.8125 Q682.5625,545.9063 683.25,546.9844 Q683.9375,548.0469 685.2813,548.0469 Q685.9063,548.0469 686.5,547.7813 Q687.0938,547.5 687.7188,546.9219 L687.7188,549.6406 Z " fill="#000000"/><text fill="#000000" font-family="sans-serif" font-size="14" lengthAdjust="spacing" textLength="152" x="705.25" y="548.8467">BasketItemViewModel</text><line style="stroke:#181818;stroke-width:0.5;" x1="632" x2="898" y1="560" y2="560"/><ellipse cx="642" cy="573.6484" fill="none" rx="3" ry="3" style="stroke:#038048;stroke-width:1.0;"/><text fill="#000000" font-family="sans-serif" font-size="14" lengthAdjust="spacing" textLength="131" x="651" y="576.9951">Id : int &#171;get&#187; &#171;set&#187;</text><ellipse cx="642" cy="589.9453" fill="none" rx="3" ry="3" style="stroke:#038048;stroke-width:1.0;"/><text fill="#000000" font-family="sans-serif" font-size="14" lengthAdjust="spacing" textLength="213" x="651" y="593.292">CatalogItemId : int &#171;get&#187; &#171;set&#187;</text><ellipse cx="642" cy="606.2422" fill="none" rx="3" ry="3" style="stroke:#038048;stroke-width:1.0;"/><text fill="#000000" font-family="sans-serif" font-size="14" lengthAdjust="spacing" textLength="242" x="651" y="609.5889">ProductName : string? &#171;get&#187; &#171;set&#187;</text><ellipse cx="642" cy="622.5391" fill="none" rx="3" ry="3" style="stroke:#038048;stroke-width:1.0;"/><text fill="#000000" font-family="sans-serif" font-size="14" lengthAdjust="spacing" textLength="216" x="651" y="625.8857">UnitPrice : decimal &#171;get&#187; &#171;set&#187;</text><ellipse cx="642" cy="638.8359" fill="none" rx="3" ry="3" style="stroke:#038048;stroke-width:1.0;"/><text fill="#000000" font-family="sans-serif" font-size="14" lengthAdjust="spacing" textLength="239" x="651" y="642.1826">OldUnitPrice : decimal &#171;get&#187; &#171;set&#187;</text><ellipse cx="642" cy="655.1328" fill="none" rx="3" ry="3" style="stroke:#038048;stroke-width:1.0;"/><text fill="#000000" font-family="sans-serif" font-size="14" lengthAdjust="spacing" textLength="176" x="651" y="658.4795">Quantity : int &#171;get&#187; &#171;set&#187;</text><ellipse cx="642" cy="671.4297" fill="none" rx="3" ry="3" style="stroke:#038048;stroke-width:1.0;"/><text fill="#000000" font-family="sans-serif" font-size="14" lengthAdjust="spacing" textLength="214" x="651" y="674.7764">PictureUrl : string? &#171;get&#187; &#171;set&#187;</text><line style="stroke:#181818;stroke-width:0.5;" x1="632" x2="898" y1="682.0781" y2="682.0781"/><ellipse cx="642" cy="695.7266" fill="#84BE84" rx="3" ry="3" style="stroke:#038048;stroke-width:1.0;"/><text fill="#000000" font-family="sans-serif" font-size="14" lengthAdjust="spacing" textLength="162" x="651" y="699.0732">BasketItemViewModel()</text></g><!--class BasketViewModel--><g id="elem_BasketViewModel"><rect codeLine="16" fill="#F1F1F1" height="129.4844" id="BasketViewModel" rx="2.5" ry="2.5" style="stroke:#181818;stroke-width:0.5;" width="365" x="582.5" y="322"/><ellipse cx="699.75" cy="338" fill="#ADD1B2" rx="11" ry="11" style="stroke:#181818;stroke-width:1.0;"/><path d="M702.7188,343.6406 Q702.1406,343.9375 701.5,344.0781 Q700.8594,344.2344 700.1563,344.2344 Q697.6563,344.2344 696.3281,342.5938 Q695.0156,340.9375 695.0156,337.8125 Q695.0156,334.6875 696.3281,333.0313 Q697.6563,331.375 700.1563,331.375 Q700.8594,331.375 701.5,331.5313 Q702.1563,331.6875 702.7188,331.9844 L702.7188,334.7031 Q702.0938,334.125 701.5,333.8594 Q700.9063,333.5781 700.2813,333.5781 Q698.9375,333.5781 698.25,334.6563 Q697.5625,335.7188 697.5625,337.8125 Q697.5625,339.9063 698.25,340.9844 Q698.9375,342.0469 700.2813,342.0469 Q700.9063,342.0469 701.5,341.7813 Q702.0938,341.5 702.7188,340.9219 L702.7188,343.6406 Z " fill="#000000"/><text fill="#000000" font-family="sans-serif" font-size="14" lengthAdjust="spacing" textLength="122" x="720.25" y="342.8467">BasketViewModel</text><line style="stroke:#181818;stroke-width:0.5;" x1="583.5" x2="946.5" y1="354" y2="354"/><ellipse cx="593.5" cy="367.6484" fill="none" rx="3" ry="3" style="stroke:#038048;stroke-width:1.0;"/><text fill="#000000" font-family="sans-serif" font-size="14" lengthAdjust="spacing" textLength="131" x="602.5" y="370.9951">Id : int &#171;get&#187; &#171;set&#187;</text><ellipse cx="593.5" cy="383.9453" fill="none" rx="3" ry="3" style="stroke:#038048;stroke-width:1.0;"/><text fill="#000000" font-family="sans-serif" font-size="14" lengthAdjust="spacing" textLength="339" x="602.5" y="387.292">Items : List&lt;BasketItemViewModel&gt; &#171;get&#187; &#171;set&#187;</text><ellipse cx="593.5" cy="400.2422" fill="none" rx="3" ry="3" style="stroke:#038048;stroke-width:1.0;"/><text fill="#000000" font-family="sans-serif" font-size="14" lengthAdjust="spacing" textLength="200" x="602.5" y="403.5889">BuyerId : string? &#171;get&#187; &#171;set&#187;</text><line style="stroke:#181818;stroke-width:0.5;" x1="583.5" x2="946.5" y1="410.8906" y2="410.8906"/><ellipse cx="593.5" cy="424.5391" fill="#84BE84" rx="3" ry="3" style="stroke:#038048;stroke-width:1.0;"/><text fill="#000000" font-family="sans-serif" font-size="14" lengthAdjust="spacing" textLength="110" x="602.5" y="427.8857">Total() : decimal</text><ellipse cx="593.5" cy="440.8359" fill="#84BE84" rx="3" ry="3" style="stroke:#038048;stroke-width:1.0;"/><text fill="#000000" font-family="sans-serif" font-size="14" lengthAdjust="spacing" textLength="132" x="602.5" y="444.1826">BasketViewModel()</text></g><!--class CatalogItemViewModel--><g id="elem_CatalogItemViewModel"><rect codeLine="24" fill="#F1F1F1" height="129.4844" id="CatalogItemViewModel" rx="2.5" ry="2.5" style="stroke:#181818;stroke-width:0.5;" width="240" x="983" y="322"/><ellipse cx="1021.4" cy="338" fill="#ADD1B2" rx="11" ry="11" style="stroke:#181818;stroke-width:1.0;"/><path d="M1024.3688,343.6406 Q1023.7906,343.9375 1023.15,344.0781 Q1022.5094,344.2344 1021.8063,344.2344 Q1019.3063,344.2344 1017.9781,342.5938 Q1016.6656,340.9375 1016.6656,337.8125 Q1016.6656,334.6875 1017.9781,333.0313 Q1019.3063,331.375 1021.8063,331.375 Q1022.5094,331.375 1023.15,331.5313 Q1023.8063,331.6875 1024.3688,331.9844 L1024.3688,334.7031 Q1023.7438,334.125 1023.15,333.8594 Q1022.5563,333.5781 1021.9313,333.5781 Q1020.5875,333.5781 1019.9,334.6563 Q1019.2125,335.7188 1019.2125,337.8125 Q1019.2125,339.9063 1019.9,340.9844 Q1020.5875,342.0469 1021.9313,342.0469 Q1022.5563,342.0469 1023.15,341.7813 Q1023.7438,341.5 1024.3688,340.9219 L1024.3688,343.6406 Z " fill="#000000"/><text fill="#000000" font-family="sans-serif" font-size="14" lengthAdjust="spacing" textLength="156" x="1040.6" y="342.8467">CatalogItemViewModel</text><line style="stroke:#181818;stroke-width:0.5;" x1="984" x2="1222" y1="354" y2="354"/><ellipse cx="994" cy="367.6484" fill="none" rx="3" ry="3" style="stroke:#038048;stroke-width:1.0;"/><text fill="#000000" font-family="sans-serif" font-size="14" lengthAdjust="spacing" textLength="131" x="1003" y="370.9951">Id : int &#171;get&#187; &#171;set&#187;</text><ellipse cx="994" cy="383.9453" fill="none" rx="3" ry="3" style="stroke:#038048;stroke-width:1.0;"/><text fill="#000000" font-family="sans-serif" font-size="14" lengthAdjust="spacing" textLength="188" x="1003" y="387.292">Name : string? &#171;get&#187; &#171;set&#187;</text><ellipse cx="994" cy="400.2422" fill="none" rx="3" ry="3" style="stroke:#038048;stroke-width:1.0;"/><text fill="#000000" font-family="sans-serif" font-size="14" lengthAdjust="spacing" textLength="214" x="1003" y="403.5889">PictureUri : string? &#171;get&#187; &#171;set&#187;</text><ellipse cx="994" cy="416.5391" fill="none" rx="3" ry="3" style="stroke:#038048;stroke-width:1.0;"/><text fill="#000000" font-family="sans-serif" font-size="14" lengthAdjust="spacing" textLength="189" x="1003" y="419.8857">Price : decimal &#171;get&#187; &#171;set&#187;</text><line style="stroke:#181818;stroke-width:0.5;" x1="984" x2="1222" y1="427.1875" y2="427.1875"/><ellipse cx="994" cy="440.8359" fill="#84BE84" rx="3" ry="3" style="stroke:#038048;stroke-width:1.0;"/><text fill="#000000" font-family="sans-serif" font-size="14" lengthAdjust="spacing" textLength="166" x="1003" y="444.1826">CatalogItemViewModel()</text></g><!--class IndexModel--><g id="elem_IndexModel"><rect codeLine="31" fill="#F1F1F1" height="129.4844" id="IndexModel" rx="2.5" ry="2.5" style="stroke:#181818;stroke-width:0.5;" width="1001" x="264.5" y="116"/><ellipse cx="721.25" cy="132" fill="#ADD1B2" rx="11" ry="11" style="stroke:#181818;stroke-width:1.0;"/><path d="M724.2188,137.6406 Q723.6406,137.9375 723,138.0781 Q722.3594,138.2344 721.6563,138.2344 Q719.1563,138.2344 717.8281,136.5938 Q716.5156,134.9375 716.5156,131.8125 Q716.5156,128.6875 717.8281,127.0313 Q719.1563,125.375 721.6563,125.375 Q722.3594,125.375 723,125.5313 Q723.6563,125.6875 724.2188,125.9844 L724.2188,128.7031 Q723.5938,128.125 723,127.8594 Q722.4063,127.5781 721.7813,127.5781 Q720.4375,127.5781 719.75,128.6563 Q719.0625,129.7188 719.0625,131.8125 Q719.0625,133.9063 719.75,134.9844 Q720.4375,136.0469 721.7813,136.0469 Q722.4063,136.0469 723,135.7813 Q723.5938,135.5 724.2188,134.9219 L724.2188,137.6406 Z " fill="#000000"/><text fill="#000000" font-family="sans-serif" font-size="14" lengthAdjust="spacing" textLength="79" x="741.75" y="136.8467">IndexModel</text><line style="stroke:#181818;stroke-width:0.5;" x1="265.5" x2="1264.5" y1="148" y2="148"/><ellipse cx="275.5" cy="161.6484" fill="none" rx="3" ry="3" style="stroke:#038048;stroke-width:1.0;"/><text fill="#000000" font-family="sans-serif" font-size="14" lengthAdjust="spacing" textLength="314" x="284.5" y="164.9951">BasketModel : BasketViewModel &#171;get&#187; &#171;set&#187;</text><line style="stroke:#181818;stroke-width:0.5;" x1="265.5" x2="1264.5" y1="172.2969" y2="172.2969"/><ellipse cx="275.5" cy="185.9453" fill="#84BE84" rx="3" ry="3" style="stroke:#038048;stroke-width:1.0;"/><text fill="#000000" font-family="sans-serif" font-size="14" lengthAdjust="spacing" textLength="975" x="284.5" y="189.292">IndexModel(basketService : IBasketService, basketViewModelService : IBasketViewModelService, itemRepository : IRepository&lt;CatalogItem&gt;)</text><ellipse cx="275.5" cy="202.2422" fill="#84BE84" rx="3" ry="3" style="stroke:#038048;stroke-width:1.0;"/><text fill="#000000" font-family="sans-serif" font-size="14" lengthAdjust="spacing" textLength="163" x="284.5" y="205.5889">&#171;async&#187; OnGet() : Task</text><ellipse cx="275.5" cy="218.5391" fill="#84BE84" rx="3" ry="3" style="stroke:#038048;stroke-width:1.0;"/><text fill="#000000" font-family="sans-serif" font-size="14" lengthAdjust="spacing" textLength="553" x="284.5" y="221.8857">&#171;async&#187; OnPost(productDetails : CatalogItemViewModel) : Task&lt;IActionResult&gt;</text><ellipse cx="275.5" cy="234.8359" fill="#84BE84" rx="3" ry="3" style="stroke:#038048;stroke-width:1.0;"/><text fill="#000000" font-family="sans-serif" font-size="14" lengthAdjust="spacing" textLength="532" x="284.5" y="238.1826">&#171;async&#187; OnPostUpdate(items : IEnumerable&lt;BasketItemViewModel&gt;) : Task</text></g><!--class PageModel--><g id="elem_PageModel"><rect fill="#F1F1F1" height="48" id="PageModel" rx="2.5" ry="2.5" style="stroke:#181818;stroke-width:0.5;" width="109" x="710.5" y="7"/><ellipse cx="725.5" cy="23" fill="#ADD1B2" rx="11" ry="11" style="stroke:#181818;stroke-width:1.0;"/><path d="M728.4688,28.6406 Q727.8906,28.9375 727.25,29.0781 Q726.6094,29.2344 725.9063,29.2344 Q723.4063,29.2344 722.0781,27.5938 Q720.7656,25.9375 720.7656,22.8125 Q720.7656,19.6875 722.0781,18.0313 Q723.4063,16.375 725.9063,16.375 Q726.6094,16.375 727.25,16.5313 Q727.9063,16.6875 728.4688,16.9844 L728.4688,19.7031 Q727.8438,19.125 727.25,18.8594 Q726.6563,18.5781 726.0313,18.5781 Q724.6875,18.5781 724,19.6563 Q723.3125,20.7188 723.3125,22.8125 Q723.3125,24.9063 724,25.9844 Q724.6875,27.0469 726.0313,27.0469 Q726.6563,27.0469 727.25,26.7813 Q727.8438,26.5 728.4688,25.9219 L728.4688,28.6406 Z " fill="#000000"/><text fill="#000000" font-family="sans-serif" font-size="14" lengthAdjust="spacing" textLength="77" x="739.5" y="27.8467">PageModel</text><line style="stroke:#181818;stroke-width:0.5;" x1="711.5" x2="818.5" y1="39" y2="39"/><line style="stroke:#181818;stroke-width:0.5;" x1="711.5" x2="818.5" y1="47" y2="47"/></g><!--reverse link BasketViewModel to BasketItemViewModel--><g id="link_BasketViewModel_BasketItemViewModel"><path codeLine="23" d="M765,465.38 C765,485.44 765,507.17 765,527.72 " fill="none" id="BasketViewModel-backto-BasketItemViewModel" style="stroke:#181818;stroke-width:1.0;"/><polygon fill="#181818" points="765,452.45,761,458.45,765,464.45,769,458.45,765,452.45" style="stroke:#181818;stroke-width:1.0;"/><text fill="#000000" font-family="sans-serif" font-size="13" lengthAdjust="spacing" textLength="36" x="766" y="494.0669">Items</text><text fill="#000000" font-family="sans-serif" font-size="13" lengthAdjust="spacing" textLength="7" x="757.7211" y="517.0651">*</text></g><!--reverse link PageModel to IndexModel--><g id="link_PageModel_IndexModel"><path codeLine="38" d="M765,76.01 C765,88.52 765,102.39 765,115.82 " fill="none" id="PageModel-backto-IndexModel" style="stroke:#181818;stroke-width:1.0;"/><polygon fill="none" points="758,76.37,765,56.37,772,76.37,758,76.37" style="stroke:#181818;stroke-width:1.0;"/></g><!--link IndexModel to IBasketViewModelService--><g id="link_IndexModel_IBasketViewModelService"><path codeLine="39" d="M611.93,245.49 C542.6,274.47 461.85,308.23 397,335.34 " fill="none" id="IndexModel-to-IBasketViewModelService" style="stroke:#181818;stroke-width:1.0;stroke-dasharray:7.0,7.0;"/><polygon fill="#181818" points="392.57,337.61,402.4164,337.83,397.1833,335.6819,399.3314,330.4487,392.57,337.61" style="stroke:#181818;stroke-width:1.0;"/></g><!--reverse link IndexModel to BasketViewModel--><g id="link_IndexModel_BasketViewModel"><path codeLine="40" d="M765,259.47 C765,280.05 765,302.01 765,321.74 " fill="none" id="IndexModel-backto-BasketViewModel" style="stroke:#181818;stroke-width:1.0;"/><polygon fill="#181818" points="765,246.49,761,252.49,765,258.49,769,252.49,765,246.49" style="stroke:#181818;stroke-width:1.0;"/><text fill="#000000" font-family="sans-serif" font-size="13" lengthAdjust="spacing" textLength="82" x="766" y="288.0669">BasketModel</text></g><!--link IndexModel to CatalogItemViewModel--><g id="link_IndexModel_CatalogItemViewModel"><path codeLine="41" d="M871.02,245.49 C909.62,268.79 953.34,295.17 992.34,318.71 " fill="none" id="IndexModel-to-CatalogItemViewModel" style="stroke:#181818;stroke-width:1.0;stroke-dasharray:7.0,7.0;"/><polygon fill="#181818" points="996.07,321.56,990.4303,313.4857,991.7888,318.977,986.2975,320.3356,996.07,321.56" style="stroke:#181818;stroke-width:1.0;"/></g><!--SRC=[bLJ9Ri8m4Btp5HQdG84FYA9KBLqKgHHAczvDCaLMZOtiILlKykzrzX0vB3baiT-Ctxnv6IOGr0UDW0ItL7y2lZFudiaO-2keBsRMoM-FcEkAF0BErLG1HSYX3rA56fIJcDiptG1nYKR5n7fWtjuCn6kbz8jCKva8V9D8UGu843OwIoEiQPZ0CdH6jyug2pARUNJtQVjUnAdMf3wbsgpB2c8JRquWdhS6z7tprEcpv4eDJRbEWqyW5qh6IOG7IbntO4F1SA5IULqIGyGsb7SWvpm-7_oIK84CTyTviWWJ1Q7Y9sbQX7C6BLalbpHhjq4yCOsUvGY_Yqso0vNbFiuwSvOpgDKwgEQmadODm_6Oz8TzgsNSd7bHVSCObqjmbacgHh7JqBFiOQFSw6SWOlXfrr6j5RzTEHRSSc0K2oEoiiyFjskoZ0WpH9QmbPgXLAbfW_hBQv3r1mSTBBlHxfszQC-ZUYSYipuNPeGvvRYmR2-aHcUR_yPtW9JnrAOsrQgP4zn4oAHOWauu-XqvmsriXgR32jy7zoBPWA8h3bRxLmptlGLTGr7Sdt5ctOrUercJYT-bSHEMMhijcTkKj9tJLlW_]--></g></svg>