<?xml version="1.0" encoding="us-ascii" standalone="no"?><svg xmlns="http://www.w3.org/2000/svg" xmlns:xlink="http://www.w3.org/1999/xlink" contentStyleType="text/css" height="251px" preserveAspectRatio="none" style="width:286px;height:251px;background:#FFFFFF;" version="1.1" viewBox="0 0 286 251" width="286px" zoomAndPan="magnify"><defs/><g><!--class BaseMessage--><g id="elem_BaseMessage"><rect codeLine="1" fill="#F1F1F1" height="96.8906" id="BaseMessage" rx="2.5" ry="2.5" style="stroke:#181818;stroke-width:0.5;" width="168" x="59" y="7"/><ellipse cx="91.1" cy="23" fill="#A9DCDF" rx="11" ry="11" style="stroke:#181818;stroke-width:1.0;"/><path d="M91.2094,18.3438 L90.0531,23.4219 L92.3813,23.4219 L91.2094,18.3438 Z M89.725,16.1094 L92.7094,16.1094 L96.0688,28.5 L93.6156,28.5 L92.85,25.4375 L89.5688,25.4375 L88.8188,28.5 L86.3813,28.5 L89.725,16.1094 Z " fill="#000000"/><text fill="#000000" font-family="sans-serif" font-size="14" font-style="italic" lengthAdjust="spacing" textLength="98" x="108.9" y="27.8467">BaseMessage</text><line style="stroke:#181818;stroke-width:0.5;" x1="60" x2="226" y1="39" y2="39"/><polygon fill="none" points="70,47.6484,74,51.6484,70,55.6484,66,51.6484" style="stroke:#B38D22;stroke-width:1.0;"/><text fill="#000000" font-family="sans-serif" font-size="14" lengthAdjust="spacing" textLength="137" x="79" y="55.9951">_correlationId : Guid</text><line style="stroke:#181818;stroke-width:0.5;" x1="60" x2="226" y1="63.2969" y2="63.2969"/><ellipse cx="70" cy="76.9453" fill="#84BE84" rx="3" ry="3" style="stroke:#038048;stroke-width:1.0;"/><text fill="#000000" font-family="sans-serif" font-size="14" lengthAdjust="spacing" textLength="142" x="79" y="80.292">CorrelationId() : Guid</text><polygon fill="#FFFF44" points="70,88.2422,74,92.2422,70,96.2422,66,92.2422" style="stroke:#B38D22;stroke-width:1.0;"/><text fill="#000000" font-family="sans-serif" font-size="14" lengthAdjust="spacing" textLength="108" x="79" y="96.5889">BaseMessage()</text></g><!--class BaseResponse--><g id="elem_BaseResponse"><rect codeLine="6" fill="#F1F1F1" height="80.5938" id="BaseResponse" rx="2.5" ry="2.5" style="stroke:#181818;stroke-width:0.5;" width="272" x="7" y="164"/><ellipse cx="85.75" cy="180" fill="#A9DCDF" rx="11" ry="11" style="stroke:#181818;stroke-width:1.0;"/><path d="M85.8594,175.3438 L84.7031,180.4219 L87.0313,180.4219 L85.8594,175.3438 Z M84.375,173.1094 L87.3594,173.1094 L90.7188,185.5 L88.2656,185.5 L87.5,182.4375 L84.2188,182.4375 L83.4688,185.5 L81.0313,185.5 L84.375,173.1094 Z " fill="#000000"/><text fill="#000000" font-family="sans-serif" font-size="14" font-style="italic" lengthAdjust="spacing" textLength="106" x="106.25" y="184.8467">BaseResponse</text><line style="stroke:#181818;stroke-width:0.5;" x1="8" x2="278" y1="196" y2="196"/><line style="stroke:#181818;stroke-width:0.5;" x1="8" x2="278" y1="204" y2="204"/><ellipse cx="18" cy="217.6484" fill="#84BE84" rx="3" ry="3" style="stroke:#038048;stroke-width:1.0;"/><text fill="#000000" font-family="sans-serif" font-size="14" lengthAdjust="spacing" textLength="246" x="27" y="220.9951">BaseResponse(correlationId : Guid)</text><ellipse cx="18" cy="233.9453" fill="#84BE84" rx="3" ry="3" style="stroke:#038048;stroke-width:1.0;"/><text fill="#000000" font-family="sans-serif" font-size="14" lengthAdjust="spacing" textLength="116" x="27" y="237.292">BaseResponse()</text></g><!--reverse link BaseMessage to BaseResponse--><g id="link_BaseMessage_BaseResponse"><path codeLine="10" d="M143,124.81 C143,138.2 143,151.82 143,163.88 " fill="none" id="BaseMessage-backto-BaseResponse" style="stroke:#181818;stroke-width:1.0;"/><polygon fill="none" points="136,125.23,143,105.23,150,125.23,136,125.23" style="stroke:#181818;stroke-width:1.0;"/></g><!--SRC=[IqmgBYbAJ2vHICv9B2vMS4eiJlLDBIvEJ4zLKAZcKW02PONuvFoYejISn9BC_3pF50Kh1VVIp1ImdBQ2CxAKXYQof3AoQHgQNBLSYPYM1QKM5-Jd5SDjqqOHrS1cioOsXI3ZaHrlKwEhYw820000]--></g></svg>