<?xml version="1.0" encoding="us-ascii" standalone="no"?><svg xmlns="http://www.w3.org/2000/svg" xmlns:xlink="http://www.w3.org/1999/xlink" contentStyleType="text/css" height="380px" preserveAspectRatio="none" style="width:544px;height:380px;background:#FFFFFF;" version="1.1" viewBox="0 0 544 380" width="544px" zoomAndPan="magnify"><defs/><g><!--class ILookupDataResponse`1--><g id="elem_ILookupDataResponse`1"><rect codeLine="1" fill="#F1F1F1" height="64.2969" id="ILookupDataResponse`1" rx="2.5" ry="2.5" style="stroke:#181818;stroke-width:0.5;" width="291" x="7" y="10"/><ellipse cx="22" cy="26" fill="#B4A7E5" rx="11" ry="11" style="stroke:#181818;stroke-width:1.0;"/><path d="M17.9219,21.7656 L17.9219,19.6094 L25.3125,19.6094 L25.3125,21.7656 L22.8438,21.7656 L22.8438,29.8438 L25.3125,29.8438 L25.3125,32 L17.9219,32 L17.9219,29.8438 L20.3906,29.8438 L20.3906,21.7656 L17.9219,21.7656 Z " fill="#000000"/><text fill="#000000" font-family="sans-serif" font-size="14" font-style="italic" lengthAdjust="spacing" textLength="173" x="36" y="30.8467">ILookupDataResponse`1</text><rect fill="#FFFFFF" height="15.9688" style="stroke:#181818;stroke-width:1.0;stroke-dasharray:2.0,2.0;" width="84" x="217" y="7"/><text fill="#000000" font-family="sans-serif" font-size="12" font-style="italic" lengthAdjust="spacing" textLength="82" x="218" y="19.1387">TLookupData</text><line style="stroke:#181818;stroke-width:0.5;" x1="8" x2="297" y1="42" y2="42"/><ellipse cx="18" cy="55.6484" fill="none" rx="3" ry="3" style="stroke:#038048;stroke-width:1.0;"/><text fill="#000000" font-family="sans-serif" font-size="14" lengthAdjust="spacing" textLength="264" x="27" y="58.9951">List : List&lt;TLookupData&gt; &#171;get&#187; &#171;set&#187;</text><line style="stroke:#181818;stroke-width:0.5;" x1="8" x2="297" y1="66.2969" y2="66.2969"/></g><!--class LookupData--><g id="elem_LookupData"><rect codeLine="4" fill="#F1F1F1" height="96.8906" id="LookupData" rx="2.5" ry="2.5" style="stroke:#181818;stroke-width:0.5;" width="207" x="330" y="135"/><ellipse cx="387.75" cy="151" fill="#A9DCDF" rx="11" ry="11" style="stroke:#181818;stroke-width:1.0;"/><path d="M387.8594,146.3438 L386.7031,151.4219 L389.0313,151.4219 L387.8594,146.3438 Z M386.375,144.1094 L389.3594,144.1094 L392.7188,156.5 L390.2656,156.5 L389.5,153.4375 L386.2188,153.4375 L385.4688,156.5 L383.0313,156.5 L386.375,144.1094 Z " fill="#000000"/><text fill="#000000" font-family="sans-serif" font-size="14" font-style="italic" lengthAdjust="spacing" textLength="83" x="408.25" y="155.8467">LookupData</text><line style="stroke:#181818;stroke-width:0.5;" x1="331" x2="536" y1="167" y2="167"/><ellipse cx="341" cy="180.6484" fill="none" rx="3" ry="3" style="stroke:#038048;stroke-width:1.0;"/><text fill="#000000" font-family="sans-serif" font-size="14" lengthAdjust="spacing" textLength="131" x="350" y="183.9951">Id : int &#171;get&#187; &#171;set&#187;</text><ellipse cx="341" cy="196.9453" fill="none" rx="3" ry="3" style="stroke:#038048;stroke-width:1.0;"/><text fill="#000000" font-family="sans-serif" font-size="14" lengthAdjust="spacing" textLength="181" x="350" y="200.292">Name : string &#171;get&#187; &#171;set&#187;</text><line style="stroke:#181818;stroke-width:0.5;" x1="331" x2="536" y1="207.5938" y2="207.5938"/><polygon fill="#FFFF44" points="341,216.2422,345,220.2422,341,224.2422,337,220.2422" style="stroke:#B38D22;stroke-width:1.0;"/><text fill="#000000" font-family="sans-serif" font-size="14" lengthAdjust="spacing" textLength="93" x="350" y="224.5889">LookupData()</text></g><!--class CatalogType--><g id="elem_CatalogType"><rect codeLine="9" fill="#F1F1F1" height="64.2969" id="CatalogType" rx="2.5" ry="2.5" style="stroke:#181818;stroke-width:0.5;" width="122" x="231.5" y="309"/><ellipse cx="248.3" cy="325" fill="#ADD1B2" rx="11" ry="11" style="stroke:#181818;stroke-width:1.0;"/><path d="M251.2688,330.6406 Q250.6906,330.9375 250.05,331.0781 Q249.4094,331.2344 248.7063,331.2344 Q246.2063,331.2344 244.8781,329.5938 Q243.5656,327.9375 243.5656,324.8125 Q243.5656,321.6875 244.8781,320.0313 Q246.2063,318.375 248.7063,318.375 Q249.4094,318.375 250.05,318.5313 Q250.7063,318.6875 251.2688,318.9844 L251.2688,321.7031 Q250.6438,321.125 250.05,320.8594 Q249.4563,320.5781 248.8313,320.5781 Q247.4875,320.5781 246.8,321.6563 Q246.1125,322.7188 246.1125,324.8125 Q246.1125,326.9063 246.8,327.9844 Q247.4875,329.0469 248.8313,329.0469 Q249.4563,329.0469 250.05,328.7813 Q250.6438,328.5 251.2688,327.9219 L251.2688,330.6406 Z " fill="#000000"/><text fill="#000000" font-family="sans-serif" font-size="14" lengthAdjust="spacing" textLength="86" x="262.7" y="329.8467">CatalogType</text><line style="stroke:#181818;stroke-width:0.5;" x1="232.5" x2="352.5" y1="341" y2="341"/><line style="stroke:#181818;stroke-width:0.5;" x1="232.5" x2="352.5" y1="349" y2="349"/><ellipse cx="242.5" cy="362.6484" fill="#84BE84" rx="3" ry="3" style="stroke:#038048;stroke-width:1.0;"/><text fill="#000000" font-family="sans-serif" font-size="14" lengthAdjust="spacing" textLength="96" x="251.5" y="365.9951">CatalogType()</text></g><!--class CatalogTypeResponse--><g id="elem_CatalogTypeResponse"><rect codeLine="13" fill="#F1F1F1" height="80.5938" id="CatalogTypeResponse" rx="2.5" ry="2.5" style="stroke:#181818;stroke-width:0.5;" width="284" x="10.5" y="143"/><ellipse cx="69.75" cy="159" fill="#ADD1B2" rx="11" ry="11" style="stroke:#181818;stroke-width:1.0;"/><path d="M72.7188,164.6406 Q72.1406,164.9375 71.5,165.0781 Q70.8594,165.2344 70.1563,165.2344 Q67.6563,165.2344 66.3281,163.5938 Q65.0156,161.9375 65.0156,158.8125 Q65.0156,155.6875 66.3281,154.0313 Q67.6563,152.375 70.1563,152.375 Q70.8594,152.375 71.5,152.5313 Q72.1563,152.6875 72.7188,152.9844 L72.7188,155.7031 Q72.0938,155.125 71.5,154.8594 Q70.9063,154.5781 70.2813,154.5781 Q68.9375,154.5781 68.25,155.6563 Q67.5625,156.7188 67.5625,158.8125 Q67.5625,160.9063 68.25,161.9844 Q68.9375,163.0469 70.2813,163.0469 Q70.9063,163.0469 71.5,162.7813 Q72.0938,162.5 72.7188,161.9219 L72.7188,164.6406 Z " fill="#000000"/><text fill="#000000" font-family="sans-serif" font-size="14" lengthAdjust="spacing" textLength="157" x="90.25" y="163.8467">CatalogTypeResponse</text><line style="stroke:#181818;stroke-width:0.5;" x1="11.5" x2="293.5" y1="175" y2="175"/><ellipse cx="21.5" cy="188.6484" fill="none" rx="3" ry="3" style="stroke:#038048;stroke-width:1.0;"/><text fill="#000000" font-family="sans-serif" font-size="14" lengthAdjust="spacing" textLength="258" x="30.5" y="191.9951">List : List&lt;CatalogType&gt; &#171;get&#187; &#171;set&#187;</text><line style="stroke:#181818;stroke-width:0.5;" x1="11.5" x2="293.5" y1="199.2969" y2="199.2969"/><ellipse cx="21.5" cy="212.9453" fill="#84BE84" rx="3" ry="3" style="stroke:#038048;stroke-width:1.0;"/><text fill="#000000" font-family="sans-serif" font-size="14" lengthAdjust="spacing" textLength="167" x="30.5" y="216.292">CatalogTypeResponse()</text></g><!--reverse link LookupData to CatalogType--><g id="link_LookupData_CatalogType"><path codeLine="12" d="M376.17,247.72 C357.14,268.71 336.78,291.17 320.9,308.67 " fill="none" id="LookupData-backto-CatalogType" style="stroke:#181818;stroke-width:1.0;"/><polygon fill="none" points="370.42,243.54,389.04,233.42,380.8,252.94,370.42,243.54" style="stroke:#181818;stroke-width:1.0;"/></g><!--reverse link ILookupDataResponse`1 to CatalogTypeResponse--><g id="link_ILookupDataResponse`1_CatalogTypeResponse"><path codeLine="17" d="M152.5,95.24 C152.5,110.89 152.5,127.81 152.5,142.54 " fill="none" id="ILookupDataResponse`1-backto-CatalogTypeResponse" style="stroke:#181818;stroke-width:1.0;stroke-dasharray:7.0,7.0;"/><polygon fill="none" points="145.5,95.31,152.5,75.31,159.5,95.31,145.5,95.31" style="stroke:#181818;stroke-width:1.0;"/><text fill="#000000" font-family="sans-serif" font-size="13" lengthAdjust="spacing" textLength="101" x="41.0844" y="94.5708">&lt;CatalogType&gt;</text></g><!--reverse link CatalogTypeResponse to CatalogType--><g id="link_CatalogTypeResponse_CatalogType"><path codeLine="18" d="M197.32,234.29 C219.25,258.64 244.98,287.21 264.15,308.51 " fill="none" id="CatalogTypeResponse-backto-CatalogType" style="stroke:#181818;stroke-width:1.0;"/><polygon fill="#181818" points="189.19,225.14,190.2341,232.2751,197.2219,234.0556,196.1778,226.9205,189.19,225.14" style="stroke:#181818;stroke-width:1.0;"/><text fill="#000000" font-family="sans-serif" font-size="13" lengthAdjust="spacing" textLength="22" x="236.5" y="275.0669">List</text><text fill="#000000" font-family="sans-serif" font-size="13" lengthAdjust="spacing" textLength="7" x="251.0786" y="297.9382">*</text></g><!--SRC=[TP2n2i8m48RtFCKH5wsqu2gXYow5uY1z06EC9LYJqiH1r7VtsY99QSnovFBdk_z-fPtihbn8A4fZRezspnq_IjiQRULfmohVpG5U1F2ieLJMmNOeKmLZjNHvNsrVoOVmitKT5mv4mwq5B_Qque8ifTtiz_Xyu7U90iGeNKSrYm2xNE7GSTOEhusfgsSh_R2WEKW3G-oTfk7x7FCB9fv48Cp_x19X3IveD7qAT0AbQ37BOX0ICvdWEZIXann6gry0]--></g></svg>