<?xml version="1.0" encoding="us-ascii" standalone="no"?><svg xmlns="http://www.w3.org/2000/svg" xmlns:xlink="http://www.w3.org/1999/xlink" contentStyleType="text/css" height="666px" preserveAspectRatio="none" style="width:379px;height:666px;background:#FFFFFF;" version="1.1" viewBox="0 0 379 666" width="379px" zoomAndPan="magnify"><defs/><g><!--class BaseMessage--><g id="elem_BaseMessage"><rect codeLine="1" fill="#F1F1F1" height="96.8906" id="BaseMessage" rx="2.5" ry="2.5" style="stroke:#181818;stroke-width:0.5;" width="168" x="105.5" y="7"/><ellipse cx="137.6" cy="23" fill="#A9DCDF" rx="11" ry="11" style="stroke:#181818;stroke-width:1.0;"/><path d="M137.7094,18.3438 L136.5531,23.4219 L138.8813,23.4219 L137.7094,18.3438 Z M136.225,16.1094 L139.2094,16.1094 L142.5688,28.5 L140.1156,28.5 L139.35,25.4375 L136.0688,25.4375 L135.3188,28.5 L132.8813,28.5 L136.225,16.1094 Z " fill="#000000"/><text fill="#000000" font-family="sans-serif" font-size="14" font-style="italic" lengthAdjust="spacing" textLength="98" x="155.4" y="27.8467">BaseMessage</text><line style="stroke:#181818;stroke-width:0.5;" x1="106.5" x2="272.5" y1="39" y2="39"/><polygon fill="none" points="116.5,47.6484,120.5,51.6484,116.5,55.6484,112.5,51.6484" style="stroke:#B38D22;stroke-width:1.0;"/><text fill="#000000" font-family="sans-serif" font-size="14" lengthAdjust="spacing" textLength="137" x="125.5" y="55.9951">_correlationId : Guid</text><line style="stroke:#181818;stroke-width:0.5;" x1="106.5" x2="272.5" y1="63.2969" y2="63.2969"/><ellipse cx="116.5" cy="76.9453" fill="#84BE84" rx="3" ry="3" style="stroke:#038048;stroke-width:1.0;"/><text fill="#000000" font-family="sans-serif" font-size="14" lengthAdjust="spacing" textLength="142" x="125.5" y="80.292">CorrelationId() : Guid</text><polygon fill="#FFFF44" points="116.5,88.2422,120.5,92.2422,116.5,96.2422,112.5,92.2422" style="stroke:#B38D22;stroke-width:1.0;"/><text fill="#000000" font-family="sans-serif" font-size="14" lengthAdjust="spacing" textLength="108" x="125.5" y="96.5889">BaseMessage()</text></g><!--class BaseResponse--><g id="elem_BaseResponse"><rect codeLine="6" fill="#F1F1F1" height="80.5938" id="BaseResponse" rx="2.5" ry="2.5" style="stroke:#181818;stroke-width:0.5;" width="272" x="53.5" y="165"/><ellipse cx="132.25" cy="181" fill="#A9DCDF" rx="11" ry="11" style="stroke:#181818;stroke-width:1.0;"/><path d="M132.3594,176.3438 L131.2031,181.4219 L133.5313,181.4219 L132.3594,176.3438 Z M130.875,174.1094 L133.8594,174.1094 L137.2188,186.5 L134.7656,186.5 L134,183.4375 L130.7188,183.4375 L129.9688,186.5 L127.5313,186.5 L130.875,174.1094 Z " fill="#000000"/><text fill="#000000" font-family="sans-serif" font-size="14" font-style="italic" lengthAdjust="spacing" textLength="106" x="152.75" y="185.8467">BaseResponse</text><line style="stroke:#181818;stroke-width:0.5;" x1="54.5" x2="324.5" y1="197" y2="197"/><line style="stroke:#181818;stroke-width:0.5;" x1="54.5" x2="324.5" y1="205" y2="205"/><ellipse cx="64.5" cy="218.6484" fill="#84BE84" rx="3" ry="3" style="stroke:#038048;stroke-width:1.0;"/><text fill="#000000" font-family="sans-serif" font-size="14" lengthAdjust="spacing" textLength="246" x="73.5" y="221.9951">BaseResponse(correlationId : Guid)</text><ellipse cx="64.5" cy="234.9453" fill="#84BE84" rx="3" ry="3" style="stroke:#038048;stroke-width:1.0;"/><text fill="#000000" font-family="sans-serif" font-size="14" lengthAdjust="spacing" textLength="116" x="73.5" y="238.292">BaseResponse()</text></g><!--class CatalogItemDto--><g id="elem_CatalogItemDto"><rect codeLine="11" fill="#F1F1F1" height="178.375" id="CatalogItemDto" rx="2.5" ry="2.5" style="stroke:#181818;stroke-width:0.5;" width="250" x="64.5" y="481"/><ellipse cx="131.75" cy="497" fill="#ADD1B2" rx="11" ry="11" style="stroke:#181818;stroke-width:1.0;"/><path d="M134.7188,502.6406 Q134.1406,502.9375 133.5,503.0781 Q132.8594,503.2344 132.1563,503.2344 Q129.6563,503.2344 128.3281,501.5938 Q127.0156,499.9375 127.0156,496.8125 Q127.0156,493.6875 128.3281,492.0313 Q129.6563,490.375 132.1563,490.375 Q132.8594,490.375 133.5,490.5313 Q134.1563,490.6875 134.7188,490.9844 L134.7188,493.7031 Q134.0938,493.125 133.5,492.8594 Q132.9063,492.5781 132.2813,492.5781 Q130.9375,492.5781 130.25,493.6563 Q129.5625,494.7188 129.5625,496.8125 Q129.5625,498.9063 130.25,499.9844 Q130.9375,501.0469 132.2813,501.0469 Q132.9063,501.0469 133.5,500.7813 Q134.0938,500.5 134.7188,499.9219 L134.7188,502.6406 Z " fill="#000000"/><text fill="#000000" font-family="sans-serif" font-size="14" lengthAdjust="spacing" textLength="107" x="152.25" y="501.8467">CatalogItemDto</text><line style="stroke:#181818;stroke-width:0.5;" x1="65.5" x2="313.5" y1="513" y2="513"/><ellipse cx="75.5" cy="526.6484" fill="none" rx="3" ry="3" style="stroke:#038048;stroke-width:1.0;"/><text fill="#000000" font-family="sans-serif" font-size="14" lengthAdjust="spacing" textLength="131" x="84.5" y="529.9951">Id : int &#171;get&#187; &#171;set&#187;</text><ellipse cx="75.5" cy="542.9453" fill="none" rx="3" ry="3" style="stroke:#038048;stroke-width:1.0;"/><text fill="#000000" font-family="sans-serif" font-size="14" lengthAdjust="spacing" textLength="181" x="84.5" y="546.292">Name : string &#171;get&#187; &#171;set&#187;</text><ellipse cx="75.5" cy="559.2422" fill="none" rx="3" ry="3" style="stroke:#038048;stroke-width:1.0;"/><text fill="#000000" font-family="sans-serif" font-size="14" lengthAdjust="spacing" textLength="220" x="84.5" y="562.5889">Description : string &#171;get&#187; &#171;set&#187;</text><ellipse cx="75.5" cy="575.5391" fill="none" rx="3" ry="3" style="stroke:#038048;stroke-width:1.0;"/><text fill="#000000" font-family="sans-serif" font-size="14" lengthAdjust="spacing" textLength="189" x="84.5" y="578.8857">Price : decimal &#171;get&#187; &#171;set&#187;</text><ellipse cx="75.5" cy="591.8359" fill="none" rx="3" ry="3" style="stroke:#038048;stroke-width:1.0;"/><text fill="#000000" font-family="sans-serif" font-size="14" lengthAdjust="spacing" textLength="207" x="84.5" y="595.1826">PictureUri : string &#171;get&#187; &#171;set&#187;</text><ellipse cx="75.5" cy="608.1328" fill="none" rx="3" ry="3" style="stroke:#038048;stroke-width:1.0;"/><text fill="#000000" font-family="sans-serif" font-size="14" lengthAdjust="spacing" textLength="217" x="84.5" y="611.4795">CatalogTypeId : int &#171;get&#187; &#171;set&#187;</text><ellipse cx="75.5" cy="624.4297" fill="none" rx="3" ry="3" style="stroke:#038048;stroke-width:1.0;"/><text fill="#000000" font-family="sans-serif" font-size="14" lengthAdjust="spacing" textLength="224" x="84.5" y="627.7764">CatalogBrandId : int &#171;get&#187; &#171;set&#187;</text><line style="stroke:#181818;stroke-width:0.5;" x1="65.5" x2="313.5" y1="635.0781" y2="635.0781"/><ellipse cx="75.5" cy="648.7266" fill="#84BE84" rx="3" ry="3" style="stroke:#038048;stroke-width:1.0;"/><text fill="#000000" font-family="sans-serif" font-size="14" lengthAdjust="spacing" textLength="117" x="84.5" y="652.0732">CatalogItemDto()</text></g><!--class CreateCatalogItemResponse--><g id="elem_CreateCatalogItemResponse"><rect codeLine="21" fill="#F1F1F1" height="96.8906" id="CreateCatalogItemResponse" rx="2.5" ry="2.5" style="stroke:#181818;stroke-width:0.5;" width="365" x="7" y="307"/><ellipse cx="85.75" cy="323" fill="#ADD1B2" rx="11" ry="11" style="stroke:#181818;stroke-width:1.0;"/><path d="M88.7188,328.6406 Q88.1406,328.9375 87.5,329.0781 Q86.8594,329.2344 86.1563,329.2344 Q83.6563,329.2344 82.3281,327.5938 Q81.0156,325.9375 81.0156,322.8125 Q81.0156,319.6875 82.3281,318.0313 Q83.6563,316.375 86.1563,316.375 Q86.8594,316.375 87.5,316.5313 Q88.1563,316.6875 88.7188,316.9844 L88.7188,319.7031 Q88.0938,319.125 87.5,318.8594 Q86.9063,318.5781 86.2813,318.5781 Q84.9375,318.5781 84.25,319.6563 Q83.5625,320.7188 83.5625,322.8125 Q83.5625,324.9063 84.25,325.9844 Q84.9375,327.0469 86.2813,327.0469 Q86.9063,327.0469 87.5,326.7813 Q88.0938,326.5 88.7188,325.9219 L88.7188,328.6406 Z " fill="#000000"/><text fill="#000000" font-family="sans-serif" font-size="14" lengthAdjust="spacing" textLength="199" x="106.25" y="327.8467">CreateCatalogItemResponse</text><line style="stroke:#181818;stroke-width:0.5;" x1="8" x2="371" y1="339" y2="339"/><ellipse cx="18" cy="352.6484" fill="none" rx="3" ry="3" style="stroke:#038048;stroke-width:1.0;"/><text fill="#000000" font-family="sans-serif" font-size="14" lengthAdjust="spacing" textLength="291" x="27" y="355.9951">CatalogItem : CatalogItemDto &#171;get&#187; &#171;set&#187;</text><line style="stroke:#181818;stroke-width:0.5;" x1="8" x2="371" y1="363.2969" y2="363.2969"/><ellipse cx="18" cy="376.9453" fill="#84BE84" rx="3" ry="3" style="stroke:#038048;stroke-width:1.0;"/><text fill="#000000" font-family="sans-serif" font-size="14" lengthAdjust="spacing" textLength="339" x="27" y="380.292">CreateCatalogItemResponse(correlationId : Guid)</text><ellipse cx="18" cy="393.2422" fill="#84BE84" rx="3" ry="3" style="stroke:#038048;stroke-width:1.0;"/><text fill="#000000" font-family="sans-serif" font-size="14" lengthAdjust="spacing" textLength="209" x="27" y="396.5889">CreateCatalogItemResponse()</text></g><!--reverse link BaseMessage to BaseResponse--><g id="link_BaseMessage_BaseResponse"><path codeLine="10" d="M189.5,125.1 C189.5,138.73 189.5,152.61 189.5,164.88 " fill="none" id="BaseMessage-backto-BaseResponse" style="stroke:#181818;stroke-width:1.0;"/><polygon fill="none" points="182.5,125.14,189.5,105.14,196.5,125.14,182.5,125.14" style="stroke:#181818;stroke-width:1.0;"/></g><!--reverse link BaseResponse to CreateCatalogItemResponse--><g id="link_BaseResponse_CreateCatalogItemResponse"><path codeLine="26" d="M189.5,266.85 C189.5,280.07 189.5,293.9 189.5,306.55 " fill="none" id="BaseResponse-backto-CreateCatalogItemResponse" style="stroke:#181818;stroke-width:1.0;"/><polygon fill="none" points="182.5,267.16,189.5,247.16,196.5,267.16,182.5,267.16" style="stroke:#181818;stroke-width:1.0;"/></g><!--reverse link CreateCatalogItemResponse to CatalogItemDto--><g id="link_CreateCatalogItemResponse_CatalogItemDto"><path codeLine="27" d="M189.5,418.18 C189.5,437.7 189.5,459.66 189.5,480.66 " fill="none" id="CreateCatalogItemResponse-backto-CatalogItemDto" style="stroke:#181818;stroke-width:1.0;"/><polygon fill="none" points="189.5,405.45,185.5,411.45,189.5,417.45,193.5,411.45,189.5,405.45" style="stroke:#181818;stroke-width:1.0;"/><text fill="#000000" font-family="sans-serif" font-size="13" lengthAdjust="spacing" textLength="78" x="190.5" y="447.0669">CatalogItem</text></g><!--SRC=[ZLB1QiCm3BtxAmIz99J-m0Wzj8NHmyOOstbeZWY6n0wMUXZR_drnQZgdgPVvOl1xUkz9ChwpUDG2kaLcs27J0p5ZGm2V2eQpWZVjlASMnJXxhE4Exa-c7h4rx5EeA5DmbQeLfVfME3Tx9kwTvOlRUl9Qt78kRn63V1g- -jfi9WnrzjoZOEkQer1t4FVhEgeRAr1L3SbsEzmSxWW_OaS3OOXlR9FX78YrDtt8kaHzyaO7lPgqwR3DiOoMawTNRvRqObSl7pqjD1APEu-s_XyrZcgSS9oX9nHAuFaIivG_DvglAkUPXjghPLwtSVuHbt3ZbyXQg7nNBjHDhIRUFm00]--></g></svg>