<?xml version="1.0" encoding="us-ascii" standalone="no"?><svg xmlns="http://www.w3.org/2000/svg" xmlns:xlink="http://www.w3.org/1999/xlink" contentStyleType="text/css" height="85px" preserveAspectRatio="none" style="width:312px;height:85px;background:#FFFFFF;" version="1.1" viewBox="0 0 312 85" width="312px" zoomAndPan="magnify"><defs/><g><!--class ILookupDataResponse`1--><g id="elem_ILookupDataResponse`1"><rect codeLine="1" fill="#F1F1F1" height="64.2969" id="ILookupDataResponse`1" rx="2.5" ry="2.5" style="stroke:#181818;stroke-width:0.5;" width="291" x="7" y="7"/><ellipse cx="22" cy="23" fill="#B4A7E5" rx="11" ry="11" style="stroke:#181818;stroke-width:1.0;"/><path d="M17.9219,18.7656 L17.9219,16.6094 L25.3125,16.6094 L25.3125,18.7656 L22.8438,18.7656 L22.8438,26.8438 L25.3125,26.8438 L25.3125,29 L17.9219,29 L17.9219,26.8438 L20.3906,26.8438 L20.3906,18.7656 L17.9219,18.7656 Z " fill="#000000"/><text fill="#000000" font-family="sans-serif" font-size="14" font-style="italic" lengthAdjust="spacing" textLength="173" x="36" y="27.8467">ILookupDataResponse`1</text><rect fill="#FFFFFF" height="15.9688" style="stroke:#181818;stroke-width:1.0;stroke-dasharray:2.0,2.0;" width="84" x="217" y="4"/><text fill="#000000" font-family="sans-serif" font-size="12" font-style="italic" lengthAdjust="spacing" textLength="82" x="218" y="16.1387">TLookupData</text><line style="stroke:#181818;stroke-width:0.5;" x1="8" x2="297" y1="39" y2="39"/><ellipse cx="18" cy="52.6484" fill="none" rx="3" ry="3" style="stroke:#038048;stroke-width:1.0;"/><text fill="#000000" font-family="sans-serif" font-size="14" lengthAdjust="spacing" textLength="264" x="27" y="55.9951">List : List&lt;TLookupData&gt; &#171;get&#187; &#171;set&#187;</text><line style="stroke:#181818;stroke-width:0.5;" x1="8" x2="297" y1="63.2969" y2="63.2969"/></g><!--SRC=[oymhIIrAIqnELV3qoS_FBYrmIIn934ejBiZFAqvDCBG9GOZQAIXKSoa0WRQ2JsPnYO8Lc49LOMEJdbfY1wABGJHNBG00]--></g></svg>