<?xml version="1.0" encoding="us-ascii" standalone="no"?><svg xmlns="http://www.w3.org/2000/svg" xmlns:xlink="http://www.w3.org/1999/xlink" contentStyleType="text/css" height="186px" preserveAspectRatio="none" style="width:151px;height:186px;background:#FFFFFF;" version="1.1" viewBox="0 0 151 186" width="151px" zoomAndPan="magnify"><defs/><g><!--class MappingProfile--><g id="elem_MappingProfile"><rect codeLine="1" fill="#F1F1F1" height="64.2969" id="MappingProfile" rx="2.5" ry="2.5" style="stroke:#181818;stroke-width:0.5;" width="137" x="7" y="115"/><ellipse cx="23.8" cy="131" fill="#ADD1B2" rx="11" ry="11" style="stroke:#181818;stroke-width:1.0;"/><path d="M26.7688,136.6406 Q26.1906,136.9375 25.55,137.0781 Q24.9094,137.2344 24.2063,137.2344 Q21.7063,137.2344 20.3781,135.5938 Q19.0656,133.9375 19.0656,130.8125 Q19.0656,127.6875 20.3781,126.0313 Q21.7063,124.375 24.2063,124.375 Q24.9094,124.375 25.55,124.5313 Q26.2063,124.6875 26.7688,124.9844 L26.7688,127.7031 Q26.1438,127.125 25.55,126.8594 Q24.9563,126.5781 24.3313,126.5781 Q22.9875,126.5781 22.3,127.6563 Q21.6125,128.7188 21.6125,130.8125 Q21.6125,132.9063 22.3,133.9844 Q22.9875,135.0469 24.3313,135.0469 Q24.9563,135.0469 25.55,134.7813 Q26.1438,134.5 26.7688,133.9219 L26.7688,136.6406 Z " fill="#000000"/><text fill="#000000" font-family="sans-serif" font-size="14" lengthAdjust="spacing" textLength="101" x="38.2" y="135.8467">MappingProfile</text><line style="stroke:#181818;stroke-width:0.5;" x1="8" x2="143" y1="147" y2="147"/><line style="stroke:#181818;stroke-width:0.5;" x1="8" x2="143" y1="155" y2="155"/><ellipse cx="18" cy="168.6484" fill="#84BE84" rx="3" ry="3" style="stroke:#038048;stroke-width:1.0;"/><text fill="#000000" font-family="sans-serif" font-size="14" lengthAdjust="spacing" textLength="111" x="27" y="171.9951">MappingProfile()</text></g><!--class Profile--><g id="elem_Profile"><rect fill="#F1F1F1" height="48" id="Profile" rx="2.5" ry="2.5" style="stroke:#181818;stroke-width:0.5;" width="74" x="38.5" y="7"/><ellipse cx="53.5" cy="23" fill="#ADD1B2" rx="11" ry="11" style="stroke:#181818;stroke-width:1.0;"/><path d="M56.4688,28.6406 Q55.8906,28.9375 55.25,29.0781 Q54.6094,29.2344 53.9063,29.2344 Q51.4063,29.2344 50.0781,27.5938 Q48.7656,25.9375 48.7656,22.8125 Q48.7656,19.6875 50.0781,18.0313 Q51.4063,16.375 53.9063,16.375 Q54.6094,16.375 55.25,16.5313 Q55.9063,16.6875 56.4688,16.9844 L56.4688,19.7031 Q55.8438,19.125 55.25,18.8594 Q54.6563,18.5781 54.0313,18.5781 Q52.6875,18.5781 52,19.6563 Q51.3125,20.7188 51.3125,22.8125 Q51.3125,24.9063 52,25.9844 Q52.6875,27.0469 54.0313,27.0469 Q54.6563,27.0469 55.25,26.7813 Q55.8438,26.5 56.4688,25.9219 L56.4688,28.6406 Z " fill="#000000"/><text fill="#000000" font-family="sans-serif" font-size="14" lengthAdjust="spacing" textLength="42" x="67.5" y="27.8467">Profile</text><line style="stroke:#181818;stroke-width:0.5;" x1="39.5" x2="111.5" y1="39" y2="39"/><line style="stroke:#181818;stroke-width:0.5;" x1="39.5" x2="111.5" y1="47" y2="47"/></g><!--reverse link Profile to MappingProfile--><g id="link_Profile_MappingProfile"><path codeLine="4" d="M75.5,76.31 C75.5,89.2 75.5,103.01 75.5,114.9 " fill="none" id="Profile-backto-MappingProfile" style="stroke:#181818;stroke-width:1.0;"/><polygon fill="none" points="68.5,76.34,75.5,56.34,82.5,76.34,68.5,76.34" style="stroke:#181818;stroke-width:1.0;"/></g><!--SRC=[Iyv9B2vMy4qiACZCImyeoa_Bp4bLKAZcKW02RJHn3KskMYwO6fiQNLqqUG00]--></g></svg>