<?xml version="1.0" encoding="us-ascii" standalone="no"?><svg xmlns="http://www.w3.org/2000/svg" xmlns:xlink="http://www.w3.org/1999/xlink" contentStyleType="text/css" height="202px" preserveAspectRatio="none" style="width:431px;height:202px;background:#FFFFFF;" version="1.1" viewBox="0 0 431 202" width="431px" zoomAndPan="magnify"><defs/><g><!--class OrderItemConfiguration--><g id="elem_OrderItemConfiguration"><rect codeLine="1" fill="#F1F1F1" height="80.5938" id="OrderItemConfiguration" rx="2.5" ry="2.5" style="stroke:#181818;stroke-width:0.5;" width="417" x="7" y="115"/><ellipse cx="130.75" cy="131" fill="#ADD1B2" rx="11" ry="11" style="stroke:#181818;stroke-width:1.0;"/><path d="M133.7188,136.6406 Q133.1406,136.9375 132.5,137.0781 Q131.8594,137.2344 131.1563,137.2344 Q128.6563,137.2344 127.3281,135.5938 Q126.0156,133.9375 126.0156,130.8125 Q126.0156,127.6875 127.3281,126.0313 Q128.6563,124.375 131.1563,124.375 Q131.8594,124.375 132.5,124.5313 Q133.1563,124.6875 133.7188,124.9844 L133.7188,127.7031 Q133.0938,127.125 132.5,126.8594 Q131.9063,126.5781 131.2813,126.5781 Q129.9375,126.5781 129.25,127.6563 Q128.5625,128.7188 128.5625,130.8125 Q128.5625,132.9063 129.25,133.9844 Q129.9375,135.0469 131.2813,135.0469 Q131.9063,135.0469 132.5,134.7813 Q133.0938,134.5 133.7188,133.9219 L133.7188,136.6406 Z " fill="#000000"/><text fill="#000000" font-family="sans-serif" font-size="14" lengthAdjust="spacing" textLength="161" x="151.25" y="135.8467">OrderItemConfiguration</text><line style="stroke:#181818;stroke-width:0.5;" x1="8" x2="423" y1="147" y2="147"/><line style="stroke:#181818;stroke-width:0.5;" x1="8" x2="423" y1="155" y2="155"/><ellipse cx="18" cy="168.6484" fill="#84BE84" rx="3" ry="3" style="stroke:#038048;stroke-width:1.0;"/><text fill="#000000" font-family="sans-serif" font-size="14" lengthAdjust="spacing" textLength="391" x="27" y="171.9951">Configure(builder : EntityTypeBuilder&lt;OrderItem&gt;) : void</text><ellipse cx="18" cy="184.9453" fill="#84BE84" rx="3" ry="3" style="stroke:#038048;stroke-width:1.0;"/><text fill="#000000" font-family="sans-serif" font-size="14" lengthAdjust="spacing" textLength="171" x="27" y="188.292">OrderItemConfiguration()</text></g><!--class IEntityTypeConfiguration`1--><g id="elem_IEntityTypeConfiguration`1"><rect fill="#F1F1F1" height="48" id="IEntityTypeConfiguration`1" rx="2.5" ry="2.5" style="stroke:#181818;stroke-width:0.5;" width="215" x="108" y="7"/><ellipse cx="123" cy="23" fill="#ADD1B2" rx="11" ry="11" style="stroke:#181818;stroke-width:1.0;"/><path d="M125.9688,28.6406 Q125.3906,28.9375 124.75,29.0781 Q124.1094,29.2344 123.4063,29.2344 Q120.9063,29.2344 119.5781,27.5938 Q118.2656,25.9375 118.2656,22.8125 Q118.2656,19.6875 119.5781,18.0313 Q120.9063,16.375 123.4063,16.375 Q124.1094,16.375 124.75,16.5313 Q125.4063,16.6875 125.9688,16.9844 L125.9688,19.7031 Q125.3438,19.125 124.75,18.8594 Q124.1563,18.5781 123.5313,18.5781 Q122.1875,18.5781 121.5,19.6563 Q120.8125,20.7188 120.8125,22.8125 Q120.8125,24.9063 121.5,25.9844 Q122.1875,27.0469 123.5313,27.0469 Q124.1563,27.0469 124.75,26.7813 Q125.3438,26.5 125.9688,25.9219 L125.9688,28.6406 Z " fill="#000000"/><text fill="#000000" font-family="sans-serif" font-size="14" lengthAdjust="spacing" textLength="183" x="137" y="27.8467">IEntityTypeConfiguration`1</text><line style="stroke:#181818;stroke-width:0.5;" x1="109" x2="322" y1="39" y2="39"/><line style="stroke:#181818;stroke-width:0.5;" x1="109" x2="322" y1="47" y2="47"/></g><!--reverse link IEntityTypeConfiguration`1 to OrderItemConfiguration--><g id="link_IEntityTypeConfiguration`1_OrderItemConfiguration"><path codeLine="5" d="M215.5,75.89 C215.5,88.61 215.5,102.42 215.5,114.87 " fill="none" id="IEntityTypeConfiguration`1-backto-OrderItemConfiguration" style="stroke:#181818;stroke-width:1.0;stroke-dasharray:7.0,7.0;"/><polygon fill="none" points="208.5,76.33,215.5,56.33,222.5,76.33,208.5,76.33" style="stroke:#181818;stroke-width:1.0;"/><text fill="#000000" font-family="sans-serif" font-size="13" lengthAdjust="spacing" textLength="87" x="117.8969" y="75.1716">&lt;OrderItem&gt;</text></g><!--SRC=[Iyv9B2vMy2zAIItoB4dDTSxFIyjCBorABCdCprDGgEPI009j1PXmgaPIQMOEKAs2bO9hNabcIML8PK6g4qJC1cwAdIPGlYm_CmMg7Rln6ffSjLnAdWXpK6GJ39KKb92CL5AmgT7Jms4K0000]--></g></svg>