<?xml version="1.0" encoding="us-ascii" standalone="no"?><svg xmlns="http://www.w3.org/2000/svg" xmlns:xlink="http://www.w3.org/1999/xlink" contentStyleType="text/css" height="697px" preserveAspectRatio="none" style="width:1568px;height:697px;background:#FFFFFF;" version="1.1" viewBox="0 0 1568 697" width="1568px" zoomAndPan="magnify"><defs/><g><!--class IBasketViewModelService--><g id="elem_IBasketViewModelService"><rect codeLine="1" fill="#F1F1F1" height="96.8906" id="IBasketViewModelService" rx="2.5" ry="2.5" style="stroke:#181818;stroke-width:0.5;" width="540" x="485" y="322"/><ellipse cx="663.25" cy="338" fill="#B4A7E5" rx="11" ry="11" style="stroke:#181818;stroke-width:1.0;"/><path d="M659.1719,333.7656 L659.1719,331.6094 L666.5625,331.6094 L666.5625,333.7656 L664.0938,333.7656 L664.0938,341.8438 L666.5625,341.8438 L666.5625,344 L659.1719,344 L659.1719,341.8438 L661.6406,341.8438 L661.6406,333.7656 L659.1719,333.7656 Z " fill="#000000"/><text fill="#000000" font-family="sans-serif" font-size="14" font-style="italic" lengthAdjust="spacing" textLength="175" x="683.75" y="342.8467">IBasketViewModelService</text><line style="stroke:#181818;stroke-width:0.5;" x1="486" x2="1024" y1="354" y2="354"/><line style="stroke:#181818;stroke-width:0.5;" x1="486" x2="1024" y1="362" y2="362"/><ellipse cx="496" cy="375.6484" fill="#84BE84" rx="3" ry="3" style="stroke:#038048;stroke-width:1.0;"/><text fill="#000000" font-family="sans-serif" font-size="14" lengthAdjust="spacing" textLength="514" x="505" y="378.9951">GetOrCreateBasketForUser(userName : string) : Task&lt;BasketViewModel&gt;</text><ellipse cx="496" cy="391.9453" fill="#84BE84" rx="3" ry="3" style="stroke:#038048;stroke-width:1.0;"/><text fill="#000000" font-family="sans-serif" font-size="14" lengthAdjust="spacing" textLength="381" x="505" y="395.292">CountTotalBasketItems(username : string) : Task&lt;int&gt;</text><ellipse cx="496" cy="408.2422" fill="#84BE84" rx="3" ry="3" style="stroke:#038048;stroke-width:1.0;"/><text fill="#000000" font-family="sans-serif" font-size="14" lengthAdjust="spacing" textLength="339" x="505" y="411.5889">Map(basket : Basket) : Task&lt;BasketViewModel&gt;</text></g><!--class BasketItemViewModel--><g id="elem_BasketItemViewModel"><rect codeLine="6" fill="#F1F1F1" height="178.375" id="BasketItemViewModel" rx="2.5" ry="2.5" style="stroke:#181818;stroke-width:0.5;" width="268" x="1109" y="512"/><ellipse cx="1162.75" cy="528" fill="#ADD1B2" rx="11" ry="11" style="stroke:#181818;stroke-width:1.0;"/><path d="M1165.7188,533.6406 Q1165.1406,533.9375 1164.5,534.0781 Q1163.8594,534.2344 1163.1563,534.2344 Q1160.6563,534.2344 1159.3281,532.5938 Q1158.0156,530.9375 1158.0156,527.8125 Q1158.0156,524.6875 1159.3281,523.0313 Q1160.6563,521.375 1163.1563,521.375 Q1163.8594,521.375 1164.5,521.5313 Q1165.1563,521.6875 1165.7188,521.9844 L1165.7188,524.7031 Q1165.0938,524.125 1164.5,523.8594 Q1163.9063,523.5781 1163.2813,523.5781 Q1161.9375,523.5781 1161.25,524.6563 Q1160.5625,525.7188 1160.5625,527.8125 Q1160.5625,529.9063 1161.25,530.9844 Q1161.9375,532.0469 1163.2813,532.0469 Q1163.9063,532.0469 1164.5,531.7813 Q1165.0938,531.5 1165.7188,530.9219 L1165.7188,533.6406 Z " fill="#000000"/><text fill="#000000" font-family="sans-serif" font-size="14" lengthAdjust="spacing" textLength="152" x="1183.25" y="532.8467">BasketItemViewModel</text><line style="stroke:#181818;stroke-width:0.5;" x1="1110" x2="1376" y1="544" y2="544"/><ellipse cx="1120" cy="557.6484" fill="none" rx="3" ry="3" style="stroke:#038048;stroke-width:1.0;"/><text fill="#000000" font-family="sans-serif" font-size="14" lengthAdjust="spacing" textLength="131" x="1129" y="560.9951">Id : int &#171;get&#187; &#171;set&#187;</text><ellipse cx="1120" cy="573.9453" fill="none" rx="3" ry="3" style="stroke:#038048;stroke-width:1.0;"/><text fill="#000000" font-family="sans-serif" font-size="14" lengthAdjust="spacing" textLength="213" x="1129" y="577.292">CatalogItemId : int &#171;get&#187; &#171;set&#187;</text><ellipse cx="1120" cy="590.2422" fill="none" rx="3" ry="3" style="stroke:#038048;stroke-width:1.0;"/><text fill="#000000" font-family="sans-serif" font-size="14" lengthAdjust="spacing" textLength="242" x="1129" y="593.5889">ProductName : string? &#171;get&#187; &#171;set&#187;</text><ellipse cx="1120" cy="606.5391" fill="none" rx="3" ry="3" style="stroke:#038048;stroke-width:1.0;"/><text fill="#000000" font-family="sans-serif" font-size="14" lengthAdjust="spacing" textLength="216" x="1129" y="609.8857">UnitPrice : decimal &#171;get&#187; &#171;set&#187;</text><ellipse cx="1120" cy="622.8359" fill="none" rx="3" ry="3" style="stroke:#038048;stroke-width:1.0;"/><text fill="#000000" font-family="sans-serif" font-size="14" lengthAdjust="spacing" textLength="239" x="1129" y="626.1826">OldUnitPrice : decimal &#171;get&#187; &#171;set&#187;</text><ellipse cx="1120" cy="639.1328" fill="none" rx="3" ry="3" style="stroke:#038048;stroke-width:1.0;"/><text fill="#000000" font-family="sans-serif" font-size="14" lengthAdjust="spacing" textLength="176" x="1129" y="642.4795">Quantity : int &#171;get&#187; &#171;set&#187;</text><ellipse cx="1120" cy="655.4297" fill="none" rx="3" ry="3" style="stroke:#038048;stroke-width:1.0;"/><text fill="#000000" font-family="sans-serif" font-size="14" lengthAdjust="spacing" textLength="214" x="1129" y="658.7764">PictureUrl : string? &#171;get&#187; &#171;set&#187;</text><line style="stroke:#181818;stroke-width:0.5;" x1="1110" x2="1376" y1="666.0781" y2="666.0781"/><ellipse cx="1120" cy="679.7266" fill="#84BE84" rx="3" ry="3" style="stroke:#038048;stroke-width:1.0;"/><text fill="#000000" font-family="sans-serif" font-size="14" lengthAdjust="spacing" textLength="162" x="1129" y="683.0732">BasketItemViewModel()</text></g><!--class BasketViewModel--><g id="elem_BasketViewModel"><rect codeLine="16" fill="#F1F1F1" height="129.4844" id="BasketViewModel" rx="2.5" ry="2.5" style="stroke:#181818;stroke-width:0.5;" width="365" x="1060.5" y="306"/><ellipse cx="1177.75" cy="322" fill="#ADD1B2" rx="11" ry="11" style="stroke:#181818;stroke-width:1.0;"/><path d="M1180.7188,327.6406 Q1180.1406,327.9375 1179.5,328.0781 Q1178.8594,328.2344 1178.1563,328.2344 Q1175.6563,328.2344 1174.3281,326.5938 Q1173.0156,324.9375 1173.0156,321.8125 Q1173.0156,318.6875 1174.3281,317.0313 Q1175.6563,315.375 1178.1563,315.375 Q1178.8594,315.375 1179.5,315.5313 Q1180.1563,315.6875 1180.7188,315.9844 L1180.7188,318.7031 Q1180.0938,318.125 1179.5,317.8594 Q1178.9063,317.5781 1178.2813,317.5781 Q1176.9375,317.5781 1176.25,318.6563 Q1175.5625,319.7188 1175.5625,321.8125 Q1175.5625,323.9063 1176.25,324.9844 Q1176.9375,326.0469 1178.2813,326.0469 Q1178.9063,326.0469 1179.5,325.7813 Q1180.0938,325.5 1180.7188,324.9219 L1180.7188,327.6406 Z " fill="#000000"/><text fill="#000000" font-family="sans-serif" font-size="14" lengthAdjust="spacing" textLength="122" x="1198.25" y="326.8467">BasketViewModel</text><line style="stroke:#181818;stroke-width:0.5;" x1="1061.5" x2="1424.5" y1="338" y2="338"/><ellipse cx="1071.5" cy="351.6484" fill="none" rx="3" ry="3" style="stroke:#038048;stroke-width:1.0;"/><text fill="#000000" font-family="sans-serif" font-size="14" lengthAdjust="spacing" textLength="131" x="1080.5" y="354.9951">Id : int &#171;get&#187; &#171;set&#187;</text><ellipse cx="1071.5" cy="367.9453" fill="none" rx="3" ry="3" style="stroke:#038048;stroke-width:1.0;"/><text fill="#000000" font-family="sans-serif" font-size="14" lengthAdjust="spacing" textLength="339" x="1080.5" y="371.292">Items : List&lt;BasketItemViewModel&gt; &#171;get&#187; &#171;set&#187;</text><ellipse cx="1071.5" cy="384.2422" fill="none" rx="3" ry="3" style="stroke:#038048;stroke-width:1.0;"/><text fill="#000000" font-family="sans-serif" font-size="14" lengthAdjust="spacing" textLength="200" x="1080.5" y="387.5889">BuyerId : string? &#171;get&#187; &#171;set&#187;</text><line style="stroke:#181818;stroke-width:0.5;" x1="1061.5" x2="1424.5" y1="394.8906" y2="394.8906"/><ellipse cx="1071.5" cy="408.5391" fill="#84BE84" rx="3" ry="3" style="stroke:#038048;stroke-width:1.0;"/><text fill="#000000" font-family="sans-serif" font-size="14" lengthAdjust="spacing" textLength="110" x="1080.5" y="411.8857">Total() : decimal</text><ellipse cx="1071.5" cy="424.8359" fill="#84BE84" rx="3" ry="3" style="stroke:#038048;stroke-width:1.0;"/><text fill="#000000" font-family="sans-serif" font-size="14" lengthAdjust="spacing" textLength="132" x="1080.5" y="428.1826">BasketViewModel()</text></g><!--class CheckoutModel--><g id="elem_CheckoutModel"><rect codeLine="24" fill="#F1F1F1" height="113.1875" id="CheckoutModel" rx="2.5" ry="2.5" style="stroke:#181818;stroke-width:0.5;" width="1554" x="7" y="116"/><ellipse cx="725.25" cy="132" fill="#ADD1B2" rx="11" ry="11" style="stroke:#181818;stroke-width:1.0;"/><path d="M728.2188,137.6406 Q727.6406,137.9375 727,138.0781 Q726.3594,138.2344 725.6563,138.2344 Q723.1563,138.2344 721.8281,136.5938 Q720.5156,134.9375 720.5156,131.8125 Q720.5156,128.6875 721.8281,127.0313 Q723.1563,125.375 725.6563,125.375 Q726.3594,125.375 727,125.5313 Q727.6563,125.6875 728.2188,125.9844 L728.2188,128.7031 Q727.5938,128.125 727,127.8594 Q726.4063,127.5781 725.7813,127.5781 Q724.4375,127.5781 723.75,128.6563 Q723.0625,129.7188 723.0625,131.8125 Q723.0625,133.9063 723.75,134.9844 Q724.4375,136.0469 725.7813,136.0469 Q726.4063,136.0469 727,135.7813 Q727.5938,135.5 728.2188,134.9219 L728.2188,137.6406 Z " fill="#000000"/><text fill="#000000" font-family="sans-serif" font-size="14" lengthAdjust="spacing" textLength="109" x="745.75" y="136.8467">CheckoutModel</text><line style="stroke:#181818;stroke-width:0.5;" x1="8" x2="1560" y1="148" y2="148"/><ellipse cx="18" cy="161.6484" fill="none" rx="3" ry="3" style="stroke:#038048;stroke-width:1.0;"/><text fill="#000000" font-family="sans-serif" font-size="14" lengthAdjust="spacing" textLength="314" x="27" y="164.9951">BasketModel : BasketViewModel &#171;get&#187; &#171;set&#187;</text><line style="stroke:#181818;stroke-width:0.5;" x1="8" x2="1560" y1="172.2969" y2="172.2969"/><ellipse cx="18" cy="185.9453" fill="#84BE84" rx="3" ry="3" style="stroke:#038048;stroke-width:1.0;"/><text fill="#000000" font-family="sans-serif" font-size="14" lengthAdjust="spacing" textLength="1528" x="27" y="189.292">CheckoutModel(basketService : IBasketService, basketViewModelService : IBasketViewModelService, signInManager : SignInManager&lt;ApplicationUser&gt;, orderService : IOrderService, logger : IAppLogger&lt;CheckoutModel&gt;)</text><ellipse cx="18" cy="202.2422" fill="#84BE84" rx="3" ry="3" style="stroke:#038048;stroke-width:1.0;"/><text fill="#000000" font-family="sans-serif" font-size="14" lengthAdjust="spacing" textLength="163" x="27" y="205.5889">&#171;async&#187; OnGet() : Task</text><ellipse cx="18" cy="218.5391" fill="#84BE84" rx="3" ry="3" style="stroke:#038048;stroke-width:1.0;"/><text fill="#000000" font-family="sans-serif" font-size="14" lengthAdjust="spacing" textLength="596" x="27" y="221.8857">&#171;async&#187; OnPost(items : IEnumerable&lt;BasketItemViewModel&gt;) : Task&lt;IActionResult&gt;</text></g><!--class PageModel--><g id="elem_PageModel"><rect fill="#F1F1F1" height="48" id="PageModel" rx="2.5" ry="2.5" style="stroke:#181818;stroke-width:0.5;" width="109" x="729.5" y="7"/><ellipse cx="744.5" cy="23" fill="#ADD1B2" rx="11" ry="11" style="stroke:#181818;stroke-width:1.0;"/><path d="M747.4688,28.6406 Q746.8906,28.9375 746.25,29.0781 Q745.6094,29.2344 744.9063,29.2344 Q742.4063,29.2344 741.0781,27.5938 Q739.7656,25.9375 739.7656,22.8125 Q739.7656,19.6875 741.0781,18.0313 Q742.4063,16.375 744.9063,16.375 Q745.6094,16.375 746.25,16.5313 Q746.9063,16.6875 747.4688,16.9844 L747.4688,19.7031 Q746.8438,19.125 746.25,18.8594 Q745.6563,18.5781 745.0313,18.5781 Q743.6875,18.5781 743,19.6563 Q742.3125,20.7188 742.3125,22.8125 Q742.3125,24.9063 743,25.9844 Q743.6875,27.0469 745.0313,27.0469 Q745.6563,27.0469 746.25,26.7813 Q746.8438,26.5 747.4688,25.9219 L747.4688,28.6406 Z " fill="#000000"/><text fill="#000000" font-family="sans-serif" font-size="14" lengthAdjust="spacing" textLength="77" x="758.5" y="27.8467">PageModel</text><line style="stroke:#181818;stroke-width:0.5;" x1="730.5" x2="837.5" y1="39" y2="39"/><line style="stroke:#181818;stroke-width:0.5;" x1="730.5" x2="837.5" y1="47" y2="47"/></g><!--reverse link BasketViewModel to BasketItemViewModel--><g id="link_BasketViewModel_BasketItemViewModel"><path codeLine="23" d="M1243,449.38 C1243,469.44 1243,491.17 1243,511.72 " fill="none" id="BasketViewModel-backto-BasketItemViewModel" style="stroke:#181818;stroke-width:1.0;"/><polygon fill="#181818" points="1243,436.45,1239,442.45,1243,448.45,1247,442.45,1243,436.45" style="stroke:#181818;stroke-width:1.0;"/><text fill="#000000" font-family="sans-serif" font-size="13" lengthAdjust="spacing" textLength="36" x="1244" y="478.0669">Items</text><text fill="#000000" font-family="sans-serif" font-size="13" lengthAdjust="spacing" textLength="7" x="1235.7211" y="501.0651">*</text></g><!--reverse link PageModel to CheckoutModel--><g id="link_PageModel_CheckoutModel"><path codeLine="30" d="M784,76.08 C784,88.6 784,102.41 784,115.54 " fill="none" id="PageModel-backto-CheckoutModel" style="stroke:#181818;stroke-width:1.0;"/><polygon fill="none" points="777,76.35,784,56.35,791,76.35,777,76.35" style="stroke:#181818;stroke-width:1.0;"/></g><!--link CheckoutModel to IBasketViewModelService--><g id="link_CheckoutModel_IBasketViewModelService"><path codeLine="31" d="M775.73,229.4 C771.71,256.55 766.91,289.02 762.94,315.86 " fill="none" id="CheckoutModel-to-IBasketViewModelService" style="stroke:#181818;stroke-width:1.0;stroke-dasharray:7.0,7.0;"/><polygon fill="#181818" points="762.1,320.5,767.3697,312.1795,762.8291,315.5534,759.4552,311.0129,762.1,320.5" style="stroke:#181818;stroke-width:1.0;"/></g><!--reverse link CheckoutModel to BasketViewModel--><g id="link_CheckoutModel_BasketViewModel"><path codeLine="32" d="M927.79,234.9 C980.45,257.39 1040.14,282.87 1093.3,305.58 " fill="none" id="CheckoutModel-backto-BasketViewModel" style="stroke:#181818;stroke-width:1.0;"/><polygon fill="#181818" points="915.92,229.4,919.8696,235.4333,926.9579,234.1079,923.0083,228.0747,915.92,229.4" style="stroke:#181818;stroke-width:1.0;"/><text fill="#000000" font-family="sans-serif" font-size="13" lengthAdjust="spacing" textLength="82" x="1015" y="272.0669">BasketModel</text></g><!--SRC=[bLJBJiCm4BptAwoUqbBuW2WAWWfG94eBfTnTPmaMhbtPQr05_3kR5ssYf40ESRoUVSnuDr8Zs6SkW2MNtBq2FabudvaKr1BicoGx-nWmUaxO3U3SJYrmX19wRUpAWGqylUxu1bZ875gfin5zFH8aQeMCgqXJupK-6kIg12G86rU4qPrXfCRQTSQtmRfmeiFIkp_Rrq0exXpRP_avtDDAKlAd32oACi0ufjNbQrqhfp9DbZl_WbnOatg13INEUx0hBN5XStb3beAG6wvwa7EL_Xryxxb6YRlZTKg1tiBAgb_Bx10k6BLa_R-anNKJubOwZ3fIn7tL-1tO8lRngelE2aPxjHficapQ7CQdfsmu7dQsJ5XMNh6Vle1uDHvRt1lcgbNhKGhh8QiC4xRkdhcmRnedpCbC9th6DS_04d1vk8ykjbib1KTfT3wQyOGPcu8zY3i_s4yOTNOP9Y7Fss8JDHZ4euPujH1jsRel8egussb1zhcclqTGJsh7yS8u36JL6CcLzXkmVAsWipz-9Zwv43dL1t1UOJxl2rAXgkYJRh91PT2yiREpk4_b5ZBlYJRXy52GRm00]--></g></svg>