<?xml version="1.0" encoding="us-ascii" standalone="no"?><svg xmlns="http://www.w3.org/2000/svg" xmlns:xlink="http://www.w3.org/1999/xlink" contentStyleType="text/css" height="134px" preserveAspectRatio="none" style="width:310px;height:134px;background:#FFFFFF;" version="1.1" viewBox="0 0 310 134" width="310px" zoomAndPan="magnify"><defs/><g><!--class ClaimValue--><g id="elem_ClaimValue"><rect codeLine="1" fill="#F1F1F1" height="113.1875" id="ClaimValue" rx="2.5" ry="2.5" style="stroke:#181818;stroke-width:0.5;" width="289" x="7" y="7"/><ellipse cx="109.75" cy="23" fill="#ADD1B2" rx="11" ry="11" style="stroke:#181818;stroke-width:1.0;"/><path d="M112.7188,28.6406 Q112.1406,28.9375 111.5,29.0781 Q110.8594,29.2344 110.1563,29.2344 Q107.6563,29.2344 106.3281,27.5938 Q105.0156,25.9375 105.0156,22.8125 Q105.0156,19.6875 106.3281,18.0313 Q107.6563,16.375 110.1563,16.375 Q110.8594,16.375 111.5,16.5313 Q112.1563,16.6875 112.7188,16.9844 L112.7188,19.7031 Q112.0938,19.125 111.5,18.8594 Q110.9063,18.5781 110.2813,18.5781 Q108.9375,18.5781 108.25,19.6563 Q107.5625,20.7188 107.5625,22.8125 Q107.5625,24.9063 108.25,25.9844 Q108.9375,27.0469 110.2813,27.0469 Q110.9063,27.0469 111.5,26.7813 Q112.0938,26.5 112.7188,25.9219 L112.7188,28.6406 Z " fill="#000000"/><text fill="#000000" font-family="sans-serif" font-size="14" lengthAdjust="spacing" textLength="75" x="130.25" y="27.8467">ClaimValue</text><line style="stroke:#181818;stroke-width:0.5;" x1="8" x2="295" y1="39" y2="39"/><ellipse cx="18" cy="52.6484" fill="none" rx="3" ry="3" style="stroke:#038048;stroke-width:1.0;"/><text fill="#000000" font-family="sans-serif" font-size="14" lengthAdjust="spacing" textLength="175" x="27" y="55.9951">Type : string &#171;get&#187; &#171;set&#187;</text><ellipse cx="18" cy="68.9453" fill="none" rx="3" ry="3" style="stroke:#038048;stroke-width:1.0;"/><text fill="#000000" font-family="sans-serif" font-size="14" lengthAdjust="spacing" textLength="179" x="27" y="72.292">Value : string &#171;get&#187; &#171;set&#187;</text><line style="stroke:#181818;stroke-width:0.5;" x1="8" x2="295" y1="79.5938" y2="79.5938"/><ellipse cx="18" cy="93.2422" fill="#84BE84" rx="3" ry="3" style="stroke:#038048;stroke-width:1.0;"/><text fill="#000000" font-family="sans-serif" font-size="14" lengthAdjust="spacing" textLength="85" x="27" y="96.5889">ClaimValue()</text><ellipse cx="18" cy="109.5391" fill="#84BE84" rx="3" ry="3" style="stroke:#038048;stroke-width:1.0;"/><text fill="#000000" font-family="sans-serif" font-size="14" lengthAdjust="spacing" textLength="263" x="27" y="112.8857">ClaimValue(type : string, value : string)</text></g><!--SRC=[Iyv9B2vMSCv9pCmDIymfJLLGgEPI009j934DJKoXaig2L0KhXUAIeioyT1s5Ch1U61-cFWHPaOADJNfgYPqTa2u6qL0rOIWwCHJL0W00]--></g></svg>