<?xml version="1.0" encoding="us-ascii" standalone="no"?><svg xmlns="http://www.w3.org/2000/svg" xmlns:xlink="http://www.w3.org/1999/xlink" contentStyleType="text/css" height="235px" preserveAspectRatio="none" style="width:223px;height:235px;background:#FFFFFF;" version="1.1" viewBox="0 0 223 235" width="223px" zoomAndPan="magnify"><defs/><g><!--class LookupData--><g id="elem_LookupData"><rect codeLine="1" fill="#F1F1F1" height="96.8906" id="LookupData" rx="2.5" ry="2.5" style="stroke:#181818;stroke-width:0.5;" width="207" x="9" y="7"/><ellipse cx="66.75" cy="23" fill="#A9DCDF" rx="11" ry="11" style="stroke:#181818;stroke-width:1.0;"/><path d="M66.8594,18.3438 L65.7031,23.4219 L68.0313,23.4219 L66.8594,18.3438 Z M65.375,16.1094 L68.3594,16.1094 L71.7188,28.5 L69.2656,28.5 L68.5,25.4375 L65.2188,25.4375 L64.4688,28.5 L62.0313,28.5 L65.375,16.1094 Z " fill="#000000"/><text fill="#000000" font-family="sans-serif" font-size="14" font-style="italic" lengthAdjust="spacing" textLength="83" x="87.25" y="27.8467">LookupData</text><line style="stroke:#181818;stroke-width:0.5;" x1="10" x2="215" y1="39" y2="39"/><ellipse cx="20" cy="52.6484" fill="none" rx="3" ry="3" style="stroke:#038048;stroke-width:1.0;"/><text fill="#000000" font-family="sans-serif" font-size="14" lengthAdjust="spacing" textLength="131" x="29" y="55.9951">Id : int &#171;get&#187; &#171;set&#187;</text><ellipse cx="20" cy="68.9453" fill="none" rx="3" ry="3" style="stroke:#038048;stroke-width:1.0;"/><text fill="#000000" font-family="sans-serif" font-size="14" lengthAdjust="spacing" textLength="181" x="29" y="72.292">Name : string &#171;get&#187; &#171;set&#187;</text><line style="stroke:#181818;stroke-width:0.5;" x1="10" x2="215" y1="79.5938" y2="79.5938"/><polygon fill="#FFFF44" points="20,88.2422,24,92.2422,20,96.2422,16,92.2422" style="stroke:#B38D22;stroke-width:1.0;"/><text fill="#000000" font-family="sans-serif" font-size="14" lengthAdjust="spacing" textLength="93" x="29" y="96.5889">LookupData()</text></g><!--class CatalogType--><g id="elem_CatalogType"><rect codeLine="6" fill="#F1F1F1" height="64.2969" id="CatalogType" rx="2.5" ry="2.5" style="stroke:#181818;stroke-width:0.5;" width="122" x="51.5" y="164"/><ellipse cx="68.3" cy="180" fill="#ADD1B2" rx="11" ry="11" style="stroke:#181818;stroke-width:1.0;"/><path d="M71.2688,185.6406 Q70.6906,185.9375 70.05,186.0781 Q69.4094,186.2344 68.7063,186.2344 Q66.2063,186.2344 64.8781,184.5938 Q63.5656,182.9375 63.5656,179.8125 Q63.5656,176.6875 64.8781,175.0313 Q66.2063,173.375 68.7063,173.375 Q69.4094,173.375 70.05,173.5313 Q70.7063,173.6875 71.2688,173.9844 L71.2688,176.7031 Q70.6438,176.125 70.05,175.8594 Q69.4563,175.5781 68.8313,175.5781 Q67.4875,175.5781 66.8,176.6563 Q66.1125,177.7188 66.1125,179.8125 Q66.1125,181.9063 66.8,182.9844 Q67.4875,184.0469 68.8313,184.0469 Q69.4563,184.0469 70.05,183.7813 Q70.6438,183.5 71.2688,182.9219 L71.2688,185.6406 Z " fill="#000000"/><text fill="#000000" font-family="sans-serif" font-size="14" lengthAdjust="spacing" textLength="86" x="82.7" y="184.8467">CatalogType</text><line style="stroke:#181818;stroke-width:0.5;" x1="52.5" x2="172.5" y1="196" y2="196"/><line style="stroke:#181818;stroke-width:0.5;" x1="52.5" x2="172.5" y1="204" y2="204"/><ellipse cx="62.5" cy="217.6484" fill="#84BE84" rx="3" ry="3" style="stroke:#038048;stroke-width:1.0;"/><text fill="#000000" font-family="sans-serif" font-size="14" lengthAdjust="spacing" textLength="96" x="71.5" y="220.9951">CatalogType()</text></g><!--reverse link LookupData to CatalogType--><g id="link_LookupData_CatalogType"><path codeLine="9" d="M112.5,125.12 C112.5,138.66 112.5,152.24 112.5,163.77 " fill="none" id="LookupData-backto-CatalogType" style="stroke:#181818;stroke-width:1.0;"/><polygon fill="none" points="105.5,125.16,112.5,105.16,119.5,125.16,105.5,125.16" style="stroke:#181818;stroke-width:1.0;"/></g><!--SRC=[IqmgBYbAJ2vHICv9B2vMyCdFpoujS4aiILHGgEPI009j1SyK1Ik5pBmI1HkRzDGIEpiWNGoYeT9-YRcfG0L0OpBpqh6gKKOoLaEJgvOBOfSpa9kJdnvIMP2Ai0n94AmKoK4sDRgwoF80]--></g></svg>