<?xml version="1.0" encoding="us-ascii" standalone="no"?><svg xmlns="http://www.w3.org/2000/svg" xmlns:xlink="http://www.w3.org/1999/xlink" contentStyleType="text/css" height="202px" preserveAspectRatio="none" style="width:332px;height:202px;background:#FFFFFF;" version="1.1" viewBox="0 0 332 202" width="332px" zoomAndPan="magnify"><defs/><g><!--class IdentityHostingStartup--><g id="elem_IdentityHostingStartup"><rect codeLine="1" fill="#F1F1F1" height="80.5938" id="IdentityHostingStartup" rx="2.5" ry="2.5" style="stroke:#181818;stroke-width:0.5;" width="318" x="7" y="115"/><ellipse cx="85.25" cy="131" fill="#ADD1B2" rx="11" ry="11" style="stroke:#181818;stroke-width:1.0;"/><path d="M88.2188,136.6406 Q87.6406,136.9375 87,137.0781 Q86.3594,137.2344 85.6563,137.2344 Q83.1563,137.2344 81.8281,135.5938 Q80.5156,133.9375 80.5156,130.8125 Q80.5156,127.6875 81.8281,126.0313 Q83.1563,124.375 85.6563,124.375 Q86.3594,124.375 87,124.5313 Q87.6563,124.6875 88.2188,124.9844 L88.2188,127.7031 Q87.5938,127.125 87,126.8594 Q86.4063,126.5781 85.7813,126.5781 Q84.4375,126.5781 83.75,127.6563 Q83.0625,128.7188 83.0625,130.8125 Q83.0625,132.9063 83.75,133.9844 Q84.4375,135.0469 85.7813,135.0469 Q86.4063,135.0469 87,134.7813 Q87.5938,134.5 88.2188,133.9219 L88.2188,136.6406 Z " fill="#000000"/><text fill="#000000" font-family="sans-serif" font-size="14" lengthAdjust="spacing" textLength="153" x="105.75" y="135.8467">IdentityHostingStartup</text><line style="stroke:#181818;stroke-width:0.5;" x1="8" x2="324" y1="147" y2="147"/><line style="stroke:#181818;stroke-width:0.5;" x1="8" x2="324" y1="155" y2="155"/><ellipse cx="18" cy="168.6484" fill="#84BE84" rx="3" ry="3" style="stroke:#038048;stroke-width:1.0;"/><text fill="#000000" font-family="sans-serif" font-size="14" lengthAdjust="spacing" textLength="292" x="27" y="171.9951">Configure(builder : IWebHostBuilder) : void</text><ellipse cx="18" cy="184.9453" fill="#84BE84" rx="3" ry="3" style="stroke:#038048;stroke-width:1.0;"/><text fill="#000000" font-family="sans-serif" font-size="14" lengthAdjust="spacing" textLength="163" x="27" y="188.292">IdentityHostingStartup()</text></g><!--class IHostingStartup--><g id="elem_IHostingStartup"><rect fill="#F1F1F1" height="48" id="IHostingStartup" rx="2.5" ry="2.5" style="stroke:#181818;stroke-width:0.5;" width="138" x="97" y="7"/><ellipse cx="112" cy="23" fill="#ADD1B2" rx="11" ry="11" style="stroke:#181818;stroke-width:1.0;"/><path d="M114.9688,28.6406 Q114.3906,28.9375 113.75,29.0781 Q113.1094,29.2344 112.4063,29.2344 Q109.9063,29.2344 108.5781,27.5938 Q107.2656,25.9375 107.2656,22.8125 Q107.2656,19.6875 108.5781,18.0313 Q109.9063,16.375 112.4063,16.375 Q113.1094,16.375 113.75,16.5313 Q114.4063,16.6875 114.9688,16.9844 L114.9688,19.7031 Q114.3438,19.125 113.75,18.8594 Q113.1563,18.5781 112.5313,18.5781 Q111.1875,18.5781 110.5,19.6563 Q109.8125,20.7188 109.8125,22.8125 Q109.8125,24.9063 110.5,25.9844 Q111.1875,27.0469 112.5313,27.0469 Q113.1563,27.0469 113.75,26.7813 Q114.3438,26.5 114.9688,25.9219 L114.9688,28.6406 Z " fill="#000000"/><text fill="#000000" font-family="sans-serif" font-size="14" lengthAdjust="spacing" textLength="106" x="126" y="27.8467">IHostingStartup</text><line style="stroke:#181818;stroke-width:0.5;" x1="98" x2="234" y1="39" y2="39"/><line style="stroke:#181818;stroke-width:0.5;" x1="98" x2="234" y1="47" y2="47"/></g><!--reverse link IHostingStartup to IdentityHostingStartup--><g id="link_IHostingStartup_IdentityHostingStartup"><path codeLine="5" d="M166,75.89 C166,88.61 166,102.42 166,114.87 " fill="none" id="IHostingStartup-backto-IdentityHostingStartup" style="stroke:#181818;stroke-width:1.0;stroke-dasharray:7.0,7.0;"/><polygon fill="none" points="159,76.33,166,56.33,173,76.33,159,76.33" style="stroke:#181818;stroke-width:1.0;"/></g><!--SRC=[Iyv9B2vMy4n9pIl9BAdqo2ykoSnB3ov9B2efBL1GgEPI009j1UVylBJCzDAYL8saqioSbDGY1Ii5p_3K991w9uY89b2eB3yp1Qe3kuaQcborN9vejjZKwEdXK0y0]--></g></svg>