<?xml version="1.0" encoding="us-ascii" standalone="no"?><svg xmlns="http://www.w3.org/2000/svg" xmlns:xlink="http://www.w3.org/1999/xlink" contentStyleType="text/css" height="408px" preserveAspectRatio="none" style="width:1294px;height:408px;background:#FFFFFF;" version="1.1" viewBox="0 0 1294 408" width="1294px" zoomAndPan="magnify"><defs/><g><!--class BaseMessage--><g id="elem_BaseMessage"><rect codeLine="1" fill="#F1F1F1" height="96.8906" id="BaseMessage" rx="2.5" ry="2.5" style="stroke:#181818;stroke-width:0.5;" width="168" x="9" y="7"/><ellipse cx="41.1" cy="23" fill="#A9DCDF" rx="11" ry="11" style="stroke:#181818;stroke-width:1.0;"/><path d="M41.2094,18.3438 L40.0531,23.4219 L42.3813,23.4219 L41.2094,18.3438 Z M39.725,16.1094 L42.7094,16.1094 L46.0688,28.5 L43.6156,28.5 L42.85,25.4375 L39.5688,25.4375 L38.8188,28.5 L36.3813,28.5 L39.725,16.1094 Z " fill="#000000"/><text fill="#000000" font-family="sans-serif" font-size="14" font-style="italic" lengthAdjust="spacing" textLength="98" x="58.9" y="27.8467">BaseMessage</text><line style="stroke:#181818;stroke-width:0.5;" x1="10" x2="176" y1="39" y2="39"/><polygon fill="none" points="20,47.6484,24,51.6484,20,55.6484,16,51.6484" style="stroke:#B38D22;stroke-width:1.0;"/><text fill="#000000" font-family="sans-serif" font-size="14" lengthAdjust="spacing" textLength="137" x="29" y="55.9951">_correlationId : Guid</text><line style="stroke:#181818;stroke-width:0.5;" x1="10" x2="176" y1="63.2969" y2="63.2969"/><ellipse cx="20" cy="76.9453" fill="#84BE84" rx="3" ry="3" style="stroke:#038048;stroke-width:1.0;"/><text fill="#000000" font-family="sans-serif" font-size="14" lengthAdjust="spacing" textLength="142" x="29" y="80.292">CorrelationId() : Guid</text><polygon fill="#FFFF44" points="20,88.2422,24,92.2422,20,96.2422,16,92.2422" style="stroke:#B38D22;stroke-width:1.0;"/><text fill="#000000" font-family="sans-serif" font-size="14" lengthAdjust="spacing" textLength="108" x="29" y="96.5889">BaseMessage()</text></g><!--class BaseRequest--><g id="elem_BaseRequest"><rect codeLine="6" fill="#F1F1F1" height="64.2969" id="BaseRequest" rx="2.5" ry="2.5" style="stroke:#181818;stroke-width:0.5;" width="130" x="28" y="172.5"/><ellipse cx="44.8" cy="188.5" fill="#A9DCDF" rx="11" ry="11" style="stroke:#181818;stroke-width:1.0;"/><path d="M44.9094,183.8438 L43.7531,188.9219 L46.0813,188.9219 L44.9094,183.8438 Z M43.425,181.6094 L46.4094,181.6094 L49.7688,194 L47.3156,194 L46.55,190.9375 L43.2688,190.9375 L42.5188,194 L40.0813,194 L43.425,181.6094 Z " fill="#000000"/><text fill="#000000" font-family="sans-serif" font-size="14" font-style="italic" lengthAdjust="spacing" textLength="94" x="59.2" y="193.3467">BaseRequest</text><line style="stroke:#181818;stroke-width:0.5;" x1="29" x2="157" y1="204.5" y2="204.5"/><line style="stroke:#181818;stroke-width:0.5;" x1="29" x2="157" y1="212.5" y2="212.5"/><polygon fill="#FFFF44" points="39,221.1484,43,225.1484,39,229.1484,35,225.1484" style="stroke:#B38D22;stroke-width:1.0;"/><text fill="#000000" font-family="sans-serif" font-size="14" lengthAdjust="spacing" textLength="104" x="48" y="229.4951">BaseRequest()</text></g><!--class AuthenticateRequest--><g id="elem_AuthenticateRequest"><rect codeLine="10" fill="#F1F1F1" height="96.8906" id="AuthenticateRequest" rx="2.5" ry="2.5" style="stroke:#181818;stroke-width:0.5;" width="238" x="297" y="305"/><ellipse cx="338.55" cy="321" fill="#ADD1B2" rx="11" ry="11" style="stroke:#181818;stroke-width:1.0;"/><path d="M341.5188,326.6406 Q340.9406,326.9375 340.3,327.0781 Q339.6594,327.2344 338.9563,327.2344 Q336.4563,327.2344 335.1281,325.5938 Q333.8156,323.9375 333.8156,320.8125 Q333.8156,317.6875 335.1281,316.0313 Q336.4563,314.375 338.9563,314.375 Q339.6594,314.375 340.3,314.5313 Q340.9563,314.6875 341.5188,314.9844 L341.5188,317.7031 Q340.8938,317.125 340.3,316.8594 Q339.7063,316.5781 339.0813,316.5781 Q337.7375,316.5781 337.05,317.6563 Q336.3625,318.7188 336.3625,320.8125 Q336.3625,322.9063 337.05,323.9844 Q337.7375,325.0469 339.0813,325.0469 Q339.7063,325.0469 340.3,324.7813 Q340.8938,324.5 341.5188,323.9219 L341.5188,326.6406 Z " fill="#000000"/><text fill="#000000" font-family="sans-serif" font-size="14" lengthAdjust="spacing" textLength="147" x="358.45" y="325.8467">AuthenticateRequest</text><line style="stroke:#181818;stroke-width:0.5;" x1="298" x2="534" y1="337" y2="337"/><ellipse cx="308" cy="350.6484" fill="none" rx="3" ry="3" style="stroke:#038048;stroke-width:1.0;"/><text fill="#000000" font-family="sans-serif" font-size="14" lengthAdjust="spacing" textLength="212" x="317" y="353.9951">Username : string &#171;get&#187; &#171;set&#187;</text><ellipse cx="308" cy="366.9453" fill="none" rx="3" ry="3" style="stroke:#038048;stroke-width:1.0;"/><text fill="#000000" font-family="sans-serif" font-size="14" lengthAdjust="spacing" textLength="208" x="317" y="370.292">Password : string &#171;get&#187; &#171;set&#187;</text><line style="stroke:#181818;stroke-width:0.5;" x1="298" x2="534" y1="377.5938" y2="377.5938"/><ellipse cx="308" cy="391.2422" fill="#84BE84" rx="3" ry="3" style="stroke:#038048;stroke-width:1.0;"/><text fill="#000000" font-family="sans-serif" font-size="14" lengthAdjust="spacing" textLength="157" x="317" y="394.5889">AuthenticateRequest()</text></g><!--class AuthenticateEndpoint--><g id="elem_AuthenticateEndpoint"><rect codeLine="16" fill="#F1F1F1" height="80.5938" id="AuthenticateEndpoint" rx="2.5" ry="2.5" style="stroke:#181818;stroke-width:0.5;" width="1094" x="193" y="164"/><ellipse cx="660.75" cy="180" fill="#ADD1B2" rx="11" ry="11" style="stroke:#181818;stroke-width:1.0;"/><path d="M663.7188,185.6406 Q663.1406,185.9375 662.5,186.0781 Q661.8594,186.2344 661.1563,186.2344 Q658.6563,186.2344 657.3281,184.5938 Q656.0156,182.9375 656.0156,179.8125 Q656.0156,176.6875 657.3281,175.0313 Q658.6563,173.375 661.1563,173.375 Q661.8594,173.375 662.5,173.5313 Q663.1563,173.6875 663.7188,173.9844 L663.7188,176.7031 Q663.0938,176.125 662.5,175.8594 Q661.9063,175.5781 661.2813,175.5781 Q659.9375,175.5781 659.25,176.6563 Q658.5625,177.7188 658.5625,179.8125 Q658.5625,181.9063 659.25,182.9844 Q659.9375,184.0469 661.2813,184.0469 Q661.9063,184.0469 662.5,183.7813 Q663.0938,183.5 663.7188,182.9219 L663.7188,185.6406 Z " fill="#000000"/><text fill="#000000" font-family="sans-serif" font-size="14" lengthAdjust="spacing" textLength="150" x="681.25" y="184.8467">AuthenticateEndpoint</text><line style="stroke:#181818;stroke-width:0.5;" x1="194" x2="1286" y1="196" y2="196"/><line style="stroke:#181818;stroke-width:0.5;" x1="194" x2="1286" y1="204" y2="204"/><ellipse cx="204" cy="217.6484" fill="#84BE84" rx="3" ry="3" style="stroke:#038048;stroke-width:1.0;"/><text fill="#000000" font-family="sans-serif" font-size="14" lengthAdjust="spacing" textLength="805" x="213" y="220.9951">AuthenticateEndpoint(signInManager : SignInManager&lt;ApplicationUser&gt;, tokenClaimsService : ITokenClaimsService)</text><ellipse cx="204" cy="233.9453" fill="#84BE84" rx="3" ry="3" style="stroke:#038048;stroke-width:1.0;"/><text fill="#000000" font-family="sans-serif" font-size="14" lengthAdjust="spacing" textLength="1068" x="213" y="237.292">&#171;override&#187; &#171;async&#187; HandleAsync(request : AuthenticateRequest, cancellationToken : CancellationToken) : Task&lt;ActionResult&lt;AuthenticateResponse&gt;&gt;</text></g><!--class EndpointBaseAsync::WithRequest--><g id="elem_EndpointBaseAsync::WithRequest"><rect fill="#F1F1F1" height="48" id="EndpointBaseAsync::WithRequest" rx="2.5" ry="2.5" style="stroke:#181818;stroke-width:0.5;" width="269" x="605.5" y="31.5"/><ellipse cx="620.5" cy="47.5" fill="#ADD1B2" rx="11" ry="11" style="stroke:#181818;stroke-width:1.0;"/><path d="M623.4688,53.1406 Q622.8906,53.4375 622.25,53.5781 Q621.6094,53.7344 620.9063,53.7344 Q618.4063,53.7344 617.0781,52.0938 Q615.7656,50.4375 615.7656,47.3125 Q615.7656,44.1875 617.0781,42.5313 Q618.4063,40.875 620.9063,40.875 Q621.6094,40.875 622.25,41.0313 Q622.9063,41.1875 623.4688,41.4844 L623.4688,44.2031 Q622.8438,43.625 622.25,43.3594 Q621.6563,43.0781 621.0313,43.0781 Q619.6875,43.0781 619,44.1563 Q618.3125,45.2188 618.3125,47.3125 Q618.3125,49.4063 619,50.4844 Q619.6875,51.5469 621.0313,51.5469 Q621.6563,51.5469 622.25,51.2813 Q622.8438,51 623.4688,50.4219 L623.4688,53.1406 Z " fill="#000000"/><text fill="#000000" font-family="sans-serif" font-size="14" lengthAdjust="spacing" textLength="237" x="634.5" y="52.3467">EndpointBaseAsync::WithRequest</text><line style="stroke:#181818;stroke-width:0.5;" x1="606.5" x2="873.5" y1="63.5" y2="63.5"/><line style="stroke:#181818;stroke-width:0.5;" x1="606.5" x2="873.5" y1="71.5" y2="71.5"/></g><!--reverse link BaseMessage to BaseRequest--><g id="link_BaseMessage_BaseRequest"><path codeLine="9" d="M93,125.07 C93,141.56 93,158.4 93,172.21 " fill="none" id="BaseMessage-backto-BaseRequest" style="stroke:#181818;stroke-width:1.0;"/><polygon fill="none" points="86,125.23,93,105.23,100,125.23,86,125.23" style="stroke:#181818;stroke-width:1.0;"/></g><!--reverse link BaseRequest to AuthenticateRequest--><g id="link_BaseRequest_AuthenticateRequest"><path codeLine="15" d="M176.76,245.73 C228.05,269.45 269.86,288.21 306.82,304.61 " fill="none" id="BaseRequest-backto-AuthenticateRequest" style="stroke:#181818;stroke-width:1.0;"/><polygon fill="none" points="174.02,251.71,158.82,236.94,179.91,239.01,174.02,251.71" style="stroke:#181818;stroke-width:1.0;"/></g><!--reverse link EndpointBaseAsync::WithRequest to AuthenticateEndpoint--><g id="link_EndpointBaseAsync::WithRequest_AuthenticateEndpoint"><path codeLine="20" d="M740,104.38 C740,123.56 740,145.39 740,163.68 " fill="none" id="EndpointBaseAsync::WithRequest-backto-AuthenticateEndpoint" style="stroke:#181818;stroke-width:1.0;"/><polygon fill="none" points="733,104.46,740,84.46,747,104.46,733,104.46" style="stroke:#181818;stroke-width:1.0;"/><text fill="#000000" font-family="sans-serif" font-size="13" lengthAdjust="spacing" textLength="166" x="564.4031" y="99.6346">&lt;AuthenticateResponse&gt;</text></g><!--link AuthenticateEndpoint to AuthenticateRequest--><g id="link_AuthenticateEndpoint_AuthenticateRequest"><path codeLine="21" d="M651.89,245.47 C613.43,262.93 567.88,283.59 527.12,302.08 " fill="none" id="AuthenticateEndpoint-to-AuthenticateRequest" style="stroke:#181818;stroke-width:1.0;stroke-dasharray:7.0,7.0;"/><polygon fill="#181818" points="522.66,304.56,532.5085,304.4772,527.2118,302.491,529.1981,297.1943,522.66,304.56" style="stroke:#181818;stroke-width:1.0;"/></g><!--SRC=[XL9RIyCm57xlhmZTIySku6i9XJf4zp2GRUAZ7jD35zQbDIUTYFhVJRfEungmB-cvvBkS4tWXeq4O9YeWOjT0k48YA96nZuZPRyIUHAqrLc1ahPO5IzbjAukkDc4BlvIC_UB8Hql6qLS4Gx8rlhP8vfVCItPtV4NySpRp6w8JJjwQ7IeZ1PXBl0bx8DGA3cYLMNAfIiPvYIRBx4dkxFlkBT9RhOl_-W9aFphFv9tEG6D0xuqgcbegJt2ecf0irLAjGDanQ2jnuySyRvhAzTibEBlPb9bwZsfHWJpG1lLH2kT_kHranpqfv_KHjPO5TeQ1tfMmVtUWYWfp5oMwDvU6d4sP02MmEhs4ZiSsBYvpxdriWVOy5owtHcehm__YKLChiZBiJEEpVpVSJaMQFagpwqbFWG_rV1MpE8mN3xToHe-22vdFiv3JRm00]--></g></svg>