<?xml version="1.0" encoding="us-ascii" standalone="no"?><svg xmlns="http://www.w3.org/2000/svg" xmlns:xlink="http://www.w3.org/1999/xlink" contentStyleType="text/css" height="442px" preserveAspectRatio="none" style="width:1268px;height:442px;background:#FFFFFF;" version="1.1" viewBox="0 0 1268 442" width="1268px" zoomAndPan="magnify"><defs/><g><!--class RegisterModel::InputModel--><g id="elem_RegisterModel::InputModel"><rect codeLine="1" fill="#F1F1F1" height="113.1875" id="RegisterModel::InputModel" rx="2.5" ry="2.5" style="stroke:#181818;stroke-width:0.5;" width="294" x="487" y="322"/><ellipse cx="536.25" cy="338" fill="#ADD1B2" rx="11" ry="11" style="stroke:#181818;stroke-width:1.0;"/><path d="M539.2188,343.6406 Q538.6406,343.9375 538,344.0781 Q537.3594,344.2344 536.6563,344.2344 Q534.1563,344.2344 532.8281,342.5938 Q531.5156,340.9375 531.5156,337.8125 Q531.5156,334.6875 532.8281,333.0313 Q534.1563,331.375 536.6563,331.375 Q537.3594,331.375 538,331.5313 Q538.6563,331.6875 539.2188,331.9844 L539.2188,334.7031 Q538.5938,334.125 538,333.8594 Q537.4063,333.5781 536.7813,333.5781 Q535.4375,333.5781 534.75,334.6563 Q534.0625,335.7188 534.0625,337.8125 Q534.0625,339.9063 534.75,340.9844 Q535.4375,342.0469 536.7813,342.0469 Q537.4063,342.0469 538,341.7813 Q538.5938,341.5 539.2188,340.9219 L539.2188,343.6406 Z " fill="#000000"/><text fill="#000000" font-family="sans-serif" font-size="14" lengthAdjust="spacing" textLength="187" x="556.75" y="342.8467">RegisterModel::InputModel</text><line style="stroke:#181818;stroke-width:0.5;" x1="488" x2="780" y1="354" y2="354"/><ellipse cx="498" cy="367.6484" fill="none" rx="3" ry="3" style="stroke:#038048;stroke-width:1.0;"/><text fill="#000000" font-family="sans-serif" font-size="14" lengthAdjust="spacing" textLength="184" x="507" y="370.9951">Email : string? &#171;get&#187; &#171;set&#187;</text><ellipse cx="498" cy="383.9453" fill="none" rx="3" ry="3" style="stroke:#038048;stroke-width:1.0;"/><text fill="#000000" font-family="sans-serif" font-size="14" lengthAdjust="spacing" textLength="215" x="507" y="387.292">Password : string? &#171;get&#187; &#171;set&#187;</text><ellipse cx="498" cy="400.2422" fill="none" rx="3" ry="3" style="stroke:#038048;stroke-width:1.0;"/><text fill="#000000" font-family="sans-serif" font-size="14" lengthAdjust="spacing" textLength="268" x="507" y="403.5889">ConfirmPassword : string? &#171;get&#187; &#171;set&#187;</text><line style="stroke:#181818;stroke-width:0.5;" x1="488" x2="780" y1="410.8906" y2="410.8906"/><ellipse cx="498" cy="424.5391" fill="#84BE84" rx="3" ry="3" style="stroke:#038048;stroke-width:1.0;"/><text fill="#000000" font-family="sans-serif" font-size="14" lengthAdjust="spacing" textLength="87" x="507" y="427.8857">InputModel()</text></g><!--class RegisterModel--><g id="elem_RegisterModel"><rect codeLine="7" fill="#F1F1F1" height="129.4844" id="RegisterModel" rx="2.5" ry="2.5" style="stroke:#181818;stroke-width:0.5;" width="1254" x="7" y="116"/><ellipse cx="579.75" cy="132" fill="#ADD1B2" rx="11" ry="11" style="stroke:#181818;stroke-width:1.0;"/><path d="M582.7188,137.6406 Q582.1406,137.9375 581.5,138.0781 Q580.8594,138.2344 580.1563,138.2344 Q577.6563,138.2344 576.3281,136.5938 Q575.0156,134.9375 575.0156,131.8125 Q575.0156,128.6875 576.3281,127.0313 Q577.6563,125.375 580.1563,125.375 Q580.8594,125.375 581.5,125.5313 Q582.1563,125.6875 582.7188,125.9844 L582.7188,128.7031 Q582.0938,128.125 581.5,127.8594 Q580.9063,127.5781 580.2813,127.5781 Q578.9375,127.5781 578.25,128.6563 Q577.5625,129.7188 577.5625,131.8125 Q577.5625,133.9063 578.25,134.9844 Q578.9375,136.0469 580.2813,136.0469 Q580.9063,136.0469 581.5,135.7813 Q582.0938,135.5 582.7188,134.9219 L582.7188,137.6406 Z " fill="#000000"/><text fill="#000000" font-family="sans-serif" font-size="14" lengthAdjust="spacing" textLength="100" x="600.25" y="136.8467">RegisterModel</text><line style="stroke:#181818;stroke-width:0.5;" x1="8" x2="1260" y1="148" y2="148"/><ellipse cx="18" cy="161.6484" fill="none" rx="3" ry="3" style="stroke:#038048;stroke-width:1.0;"/><text fill="#000000" font-family="sans-serif" font-size="14" lengthAdjust="spacing" textLength="294" x="27" y="164.9951">&#171;required&#187; Input : InputModel &#171;get&#187; &#171;set&#187;</text><ellipse cx="18" cy="177.9453" fill="none" rx="3" ry="3" style="stroke:#038048;stroke-width:1.0;"/><text fill="#000000" font-family="sans-serif" font-size="14" lengthAdjust="spacing" textLength="213" x="27" y="181.292">ReturnUrl : string? &#171;get&#187; &#171;set&#187;</text><line style="stroke:#181818;stroke-width:0.5;" x1="8" x2="1260" y1="188.5938" y2="188.5938"/><ellipse cx="18" cy="202.2422" fill="#84BE84" rx="3" ry="3" style="stroke:#038048;stroke-width:1.0;"/><text fill="#000000" font-family="sans-serif" font-size="14" lengthAdjust="spacing" textLength="1228" x="27" y="205.5889">RegisterModel(userManager : UserManager&lt;ApplicationUser&gt;, signInManager : SignInManager&lt;ApplicationUser&gt;, logger : ILogger&lt;RegisterModel&gt;, emailSender : IEmailSender)</text><ellipse cx="18" cy="218.5391" fill="#84BE84" rx="3" ry="3" style="stroke:#038048;stroke-width:1.0;"/><text fill="#000000" font-family="sans-serif" font-size="14" lengthAdjust="spacing" textLength="215" x="27" y="221.8857">OnGet(returnUrl : string?) : void</text><ellipse cx="18" cy="234.8359" fill="#84BE84" rx="3" ry="3" style="stroke:#038048;stroke-width:1.0;"/><text fill="#000000" font-family="sans-serif" font-size="14" lengthAdjust="spacing" textLength="443" x="27" y="238.1826">&#171;async&#187; OnPostAsync(returnUrl : string?) : Task&lt;IActionResult&gt;</text></g><!--class PageModel--><g id="elem_PageModel"><rect fill="#F1F1F1" height="48" id="PageModel" rx="2.5" ry="2.5" style="stroke:#181818;stroke-width:0.5;" width="109" x="579.5" y="7"/><ellipse cx="594.5" cy="23" fill="#ADD1B2" rx="11" ry="11" style="stroke:#181818;stroke-width:1.0;"/><path d="M597.4688,28.6406 Q596.8906,28.9375 596.25,29.0781 Q595.6094,29.2344 594.9063,29.2344 Q592.4063,29.2344 591.0781,27.5938 Q589.7656,25.9375 589.7656,22.8125 Q589.7656,19.6875 591.0781,18.0313 Q592.4063,16.375 594.9063,16.375 Q595.6094,16.375 596.25,16.5313 Q596.9063,16.6875 597.4688,16.9844 L597.4688,19.7031 Q596.8438,19.125 596.25,18.8594 Q595.6563,18.5781 595.0313,18.5781 Q593.6875,18.5781 593,19.6563 Q592.3125,20.7188 592.3125,22.8125 Q592.3125,24.9063 593,25.9844 Q593.6875,27.0469 595.0313,27.0469 Q595.6563,27.0469 596.25,26.7813 Q596.8438,26.5 597.4688,25.9219 L597.4688,28.6406 Z " fill="#000000"/><text fill="#000000" font-family="sans-serif" font-size="14" lengthAdjust="spacing" textLength="77" x="608.5" y="27.8467">PageModel</text><line style="stroke:#181818;stroke-width:0.5;" x1="580.5" x2="687.5" y1="39" y2="39"/><line style="stroke:#181818;stroke-width:0.5;" x1="580.5" x2="687.5" y1="47" y2="47"/></g><!--reverse link PageModel to RegisterModel--><g id="link_PageModel_RegisterModel"><path codeLine="14" d="M634,76.01 C634,88.52 634,102.39 634,115.82 " fill="none" id="PageModel-backto-RegisterModel" style="stroke:#181818;stroke-width:1.0;"/><polygon fill="none" points="627,76.37,634,56.37,641,76.37,627,76.37" style="stroke:#181818;stroke-width:1.0;"/></g><!--reverse link RegisterModel to RegisterModel::InputModel--><g id="link_RegisterModel_RegisterModel::InputModel"><path codeLine="15" d="M603.21,258.66 C601.46,269.77 601.09,281.12 603,292 C604.72,301.8 607.47,311.95 610.64,321.69 " fill="none" id="RegisterModel-backto-RegisterModel::InputModel" style="stroke:#181818;stroke-width:1.0;"/><polygon fill="none" points="605.98,246.28,600.8492,251.347,603.5531,258.032,608.6839,252.965,605.98,246.28" style="stroke:#181818;stroke-width:1.0;"/><text fill="#000000" font-family="sans-serif" font-size="13" lengthAdjust="spacing" textLength="32" x="604" y="288.0669">Input</text></g><!--reverse link RegisterModel to RegisterModel::InputModel--><g id="link_RegisterModel_RegisterModel::InputModel"><path codeLine="16" d="M641.04,261.44 C641.36,271.72 641.4,282.11 641,292 C640.6,301.67 639.96,311.95 639.22,321.89 " fill="none" id="RegisterModel-backto-RegisterModel::InputModel-1" style="stroke:#181818;stroke-width:1.0;stroke-dasharray:7.0,7.0;"/><ellipse cx="640.6781" cy="254.452" fill="#FFFFFF" rx="8" ry="8" style="stroke:#181818;stroke-width:1.0;"/><line style="stroke:#181818;stroke-width:1.0;" x1="641.0362" x2="640.32" y1="262.444" y2="246.46"/><line style="stroke:#181818;stroke-width:1.0;" x1="632.6861" x2="648.6701" y1="254.8101" y2="254.0939"/></g><!--SRC=[ZPBTJeGm48NlUOfUGjRT1o0DXfYD8T4iOTq7Q61i6hjJx1IDKT_TbYLMzYShDvqftz3JSsYr868DI4KExAFfGETvXVtWnfgnpuJvPy7MUw4qonavgr3UCiubkABmAuLrech_jNTZkwlWdS5dPVV_vgEaD4k-a_PKTfGwsqu7yfL08S7wKtQnusNVQzKAfmo6xUA6aP9OOQItV_ipl3Ro05OFOyLdHti0WcjRmEv0hMERJM8vj_0wA0kTl_Duom360CxRqO0RBExizKGsU0ykjQTyviitexfV7O8-iFNp6wmDkJ9qb-QU1Btmgco35GtGe5tXGwczIvFeh-Lo7aCopyeSlv_zT9C1HpEBrUhop0y0]--></g></svg>