<?xml version="1.0" encoding="us-ascii" standalone="no"?><svg xmlns="http://www.w3.org/2000/svg" xmlns:xlink="http://www.w3.org/1999/xlink" contentStyleType="text/css" height="666px" preserveAspectRatio="none" style="width:383px;height:666px;background:#FFFFFF;" version="1.1" viewBox="0 0 383 666" width="383px" zoomAndPan="magnify"><defs/><g><!--class BaseMessage--><g id="elem_BaseMessage"><rect codeLine="1" fill="#F1F1F1" height="96.8906" id="BaseMessage" rx="2.5" ry="2.5" style="stroke:#181818;stroke-width:0.5;" width="168" x="107.5" y="7"/><ellipse cx="139.6" cy="23" fill="#A9DCDF" rx="11" ry="11" style="stroke:#181818;stroke-width:1.0;"/><path d="M139.7094,18.3438 L138.5531,23.4219 L140.8813,23.4219 L139.7094,18.3438 Z M138.225,16.1094 L141.2094,16.1094 L144.5688,28.5 L142.1156,28.5 L141.35,25.4375 L138.0688,25.4375 L137.3188,28.5 L134.8813,28.5 L138.225,16.1094 Z " fill="#000000"/><text fill="#000000" font-family="sans-serif" font-size="14" font-style="italic" lengthAdjust="spacing" textLength="98" x="157.4" y="27.8467">BaseMessage</text><line style="stroke:#181818;stroke-width:0.5;" x1="108.5" x2="274.5" y1="39" y2="39"/><polygon fill="none" points="118.5,47.6484,122.5,51.6484,118.5,55.6484,114.5,51.6484" style="stroke:#B38D22;stroke-width:1.0;"/><text fill="#000000" font-family="sans-serif" font-size="14" lengthAdjust="spacing" textLength="137" x="127.5" y="55.9951">_correlationId : Guid</text><line style="stroke:#181818;stroke-width:0.5;" x1="108.5" x2="274.5" y1="63.2969" y2="63.2969"/><ellipse cx="118.5" cy="76.9453" fill="#84BE84" rx="3" ry="3" style="stroke:#038048;stroke-width:1.0;"/><text fill="#000000" font-family="sans-serif" font-size="14" lengthAdjust="spacing" textLength="142" x="127.5" y="80.292">CorrelationId() : Guid</text><polygon fill="#FFFF44" points="118.5,88.2422,122.5,92.2422,118.5,96.2422,114.5,92.2422" style="stroke:#B38D22;stroke-width:1.0;"/><text fill="#000000" font-family="sans-serif" font-size="14" lengthAdjust="spacing" textLength="108" x="127.5" y="96.5889">BaseMessage()</text></g><!--class BaseResponse--><g id="elem_BaseResponse"><rect codeLine="6" fill="#F1F1F1" height="80.5938" id="BaseResponse" rx="2.5" ry="2.5" style="stroke:#181818;stroke-width:0.5;" width="272" x="55.5" y="165"/><ellipse cx="134.25" cy="181" fill="#A9DCDF" rx="11" ry="11" style="stroke:#181818;stroke-width:1.0;"/><path d="M134.3594,176.3438 L133.2031,181.4219 L135.5313,181.4219 L134.3594,176.3438 Z M132.875,174.1094 L135.8594,174.1094 L139.2188,186.5 L136.7656,186.5 L136,183.4375 L132.7188,183.4375 L131.9688,186.5 L129.5313,186.5 L132.875,174.1094 Z " fill="#000000"/><text fill="#000000" font-family="sans-serif" font-size="14" font-style="italic" lengthAdjust="spacing" textLength="106" x="154.75" y="185.8467">BaseResponse</text><line style="stroke:#181818;stroke-width:0.5;" x1="56.5" x2="326.5" y1="197" y2="197"/><line style="stroke:#181818;stroke-width:0.5;" x1="56.5" x2="326.5" y1="205" y2="205"/><ellipse cx="66.5" cy="218.6484" fill="#84BE84" rx="3" ry="3" style="stroke:#038048;stroke-width:1.0;"/><text fill="#000000" font-family="sans-serif" font-size="14" lengthAdjust="spacing" textLength="246" x="75.5" y="221.9951">BaseResponse(correlationId : Guid)</text><ellipse cx="66.5" cy="234.9453" fill="#84BE84" rx="3" ry="3" style="stroke:#038048;stroke-width:1.0;"/><text fill="#000000" font-family="sans-serif" font-size="14" lengthAdjust="spacing" textLength="116" x="75.5" y="238.292">BaseResponse()</text></g><!--class CatalogItemDto--><g id="elem_CatalogItemDto"><rect codeLine="11" fill="#F1F1F1" height="178.375" id="CatalogItemDto" rx="2.5" ry="2.5" style="stroke:#181818;stroke-width:0.5;" width="250" x="66.5" y="481"/><ellipse cx="133.75" cy="497" fill="#ADD1B2" rx="11" ry="11" style="stroke:#181818;stroke-width:1.0;"/><path d="M136.7188,502.6406 Q136.1406,502.9375 135.5,503.0781 Q134.8594,503.2344 134.1563,503.2344 Q131.6563,503.2344 130.3281,501.5938 Q129.0156,499.9375 129.0156,496.8125 Q129.0156,493.6875 130.3281,492.0313 Q131.6563,490.375 134.1563,490.375 Q134.8594,490.375 135.5,490.5313 Q136.1563,490.6875 136.7188,490.9844 L136.7188,493.7031 Q136.0938,493.125 135.5,492.8594 Q134.9063,492.5781 134.2813,492.5781 Q132.9375,492.5781 132.25,493.6563 Q131.5625,494.7188 131.5625,496.8125 Q131.5625,498.9063 132.25,499.9844 Q132.9375,501.0469 134.2813,501.0469 Q134.9063,501.0469 135.5,500.7813 Q136.0938,500.5 136.7188,499.9219 L136.7188,502.6406 Z " fill="#000000"/><text fill="#000000" font-family="sans-serif" font-size="14" lengthAdjust="spacing" textLength="107" x="154.25" y="501.8467">CatalogItemDto</text><line style="stroke:#181818;stroke-width:0.5;" x1="67.5" x2="315.5" y1="513" y2="513"/><ellipse cx="77.5" cy="526.6484" fill="none" rx="3" ry="3" style="stroke:#038048;stroke-width:1.0;"/><text fill="#000000" font-family="sans-serif" font-size="14" lengthAdjust="spacing" textLength="131" x="86.5" y="529.9951">Id : int &#171;get&#187; &#171;set&#187;</text><ellipse cx="77.5" cy="542.9453" fill="none" rx="3" ry="3" style="stroke:#038048;stroke-width:1.0;"/><text fill="#000000" font-family="sans-serif" font-size="14" lengthAdjust="spacing" textLength="181" x="86.5" y="546.292">Name : string &#171;get&#187; &#171;set&#187;</text><ellipse cx="77.5" cy="559.2422" fill="none" rx="3" ry="3" style="stroke:#038048;stroke-width:1.0;"/><text fill="#000000" font-family="sans-serif" font-size="14" lengthAdjust="spacing" textLength="220" x="86.5" y="562.5889">Description : string &#171;get&#187; &#171;set&#187;</text><ellipse cx="77.5" cy="575.5391" fill="none" rx="3" ry="3" style="stroke:#038048;stroke-width:1.0;"/><text fill="#000000" font-family="sans-serif" font-size="14" lengthAdjust="spacing" textLength="189" x="86.5" y="578.8857">Price : decimal &#171;get&#187; &#171;set&#187;</text><ellipse cx="77.5" cy="591.8359" fill="none" rx="3" ry="3" style="stroke:#038048;stroke-width:1.0;"/><text fill="#000000" font-family="sans-serif" font-size="14" lengthAdjust="spacing" textLength="207" x="86.5" y="595.1826">PictureUri : string &#171;get&#187; &#171;set&#187;</text><ellipse cx="77.5" cy="608.1328" fill="none" rx="3" ry="3" style="stroke:#038048;stroke-width:1.0;"/><text fill="#000000" font-family="sans-serif" font-size="14" lengthAdjust="spacing" textLength="217" x="86.5" y="611.4795">CatalogTypeId : int &#171;get&#187; &#171;set&#187;</text><ellipse cx="77.5" cy="624.4297" fill="none" rx="3" ry="3" style="stroke:#038048;stroke-width:1.0;"/><text fill="#000000" font-family="sans-serif" font-size="14" lengthAdjust="spacing" textLength="224" x="86.5" y="627.7764">CatalogBrandId : int &#171;get&#187; &#171;set&#187;</text><line style="stroke:#181818;stroke-width:0.5;" x1="67.5" x2="315.5" y1="635.0781" y2="635.0781"/><ellipse cx="77.5" cy="648.7266" fill="#84BE84" rx="3" ry="3" style="stroke:#038048;stroke-width:1.0;"/><text fill="#000000" font-family="sans-serif" font-size="14" lengthAdjust="spacing" textLength="117" x="86.5" y="652.0732">CatalogItemDto()</text></g><!--class UpdateCatalogItemResponse--><g id="elem_UpdateCatalogItemResponse"><rect codeLine="21" fill="#F1F1F1" height="96.8906" id="UpdateCatalogItemResponse" rx="2.5" ry="2.5" style="stroke:#181818;stroke-width:0.5;" width="369" x="7" y="307"/><ellipse cx="85.75" cy="323" fill="#ADD1B2" rx="11" ry="11" style="stroke:#181818;stroke-width:1.0;"/><path d="M88.7188,328.6406 Q88.1406,328.9375 87.5,329.0781 Q86.8594,329.2344 86.1563,329.2344 Q83.6563,329.2344 82.3281,327.5938 Q81.0156,325.9375 81.0156,322.8125 Q81.0156,319.6875 82.3281,318.0313 Q83.6563,316.375 86.1563,316.375 Q86.8594,316.375 87.5,316.5313 Q88.1563,316.6875 88.7188,316.9844 L88.7188,319.7031 Q88.0938,319.125 87.5,318.8594 Q86.9063,318.5781 86.2813,318.5781 Q84.9375,318.5781 84.25,319.6563 Q83.5625,320.7188 83.5625,322.8125 Q83.5625,324.9063 84.25,325.9844 Q84.9375,327.0469 86.2813,327.0469 Q86.9063,327.0469 87.5,326.7813 Q88.0938,326.5 88.7188,325.9219 L88.7188,328.6406 Z " fill="#000000"/><text fill="#000000" font-family="sans-serif" font-size="14" lengthAdjust="spacing" textLength="203" x="106.25" y="327.8467">UpdateCatalogItemResponse</text><line style="stroke:#181818;stroke-width:0.5;" x1="8" x2="375" y1="339" y2="339"/><ellipse cx="18" cy="352.6484" fill="none" rx="3" ry="3" style="stroke:#038048;stroke-width:1.0;"/><text fill="#000000" font-family="sans-serif" font-size="14" lengthAdjust="spacing" textLength="291" x="27" y="355.9951">CatalogItem : CatalogItemDto &#171;get&#187; &#171;set&#187;</text><line style="stroke:#181818;stroke-width:0.5;" x1="8" x2="375" y1="363.2969" y2="363.2969"/><ellipse cx="18" cy="376.9453" fill="#84BE84" rx="3" ry="3" style="stroke:#038048;stroke-width:1.0;"/><text fill="#000000" font-family="sans-serif" font-size="14" lengthAdjust="spacing" textLength="343" x="27" y="380.292">UpdateCatalogItemResponse(correlationId : Guid)</text><ellipse cx="18" cy="393.2422" fill="#84BE84" rx="3" ry="3" style="stroke:#038048;stroke-width:1.0;"/><text fill="#000000" font-family="sans-serif" font-size="14" lengthAdjust="spacing" textLength="213" x="27" y="396.5889">UpdateCatalogItemResponse()</text></g><!--reverse link BaseMessage to BaseResponse--><g id="link_BaseMessage_BaseResponse"><path codeLine="10" d="M191.5,125.1 C191.5,138.73 191.5,152.61 191.5,164.88 " fill="none" id="BaseMessage-backto-BaseResponse" style="stroke:#181818;stroke-width:1.0;"/><polygon fill="none" points="184.5,125.14,191.5,105.14,198.5,125.14,184.5,125.14" style="stroke:#181818;stroke-width:1.0;"/></g><!--reverse link BaseResponse to UpdateCatalogItemResponse--><g id="link_BaseResponse_UpdateCatalogItemResponse"><path codeLine="26" d="M191.5,266.85 C191.5,280.07 191.5,293.9 191.5,306.55 " fill="none" id="BaseResponse-backto-UpdateCatalogItemResponse" style="stroke:#181818;stroke-width:1.0;"/><polygon fill="none" points="184.5,267.16,191.5,247.16,198.5,267.16,184.5,267.16" style="stroke:#181818;stroke-width:1.0;"/></g><!--reverse link UpdateCatalogItemResponse to CatalogItemDto--><g id="link_UpdateCatalogItemResponse_CatalogItemDto"><path codeLine="27" d="M191.5,418.18 C191.5,437.7 191.5,459.66 191.5,480.66 " fill="none" id="UpdateCatalogItemResponse-backto-CatalogItemDto" style="stroke:#181818;stroke-width:1.0;"/><polygon fill="none" points="191.5,405.45,187.5,411.45,191.5,417.45,195.5,411.45,191.5,405.45" style="stroke:#181818;stroke-width:1.0;"/><text fill="#000000" font-family="sans-serif" font-size="13" lengthAdjust="spacing" textLength="78" x="192.5" y="447.0669">CatalogItem</text></g><!--SRC=[ZLBBQiCm4BphAnPoiGdvWM9oI08bXvGIcdFPIeiHs9BHAeUIzjyhFqXbEwghYq0pEpExA_nWxr1wa1KommwPJiIC9G7S18IpWdTfdQCAlRRcgE09dgzQTTWQzZ6KvJ6uYjMoN7mBd9kTYHjh-Ews7hrcZvppHyHMFWvVV6qs8uReFVVeiRBbqLDzyFRNjLFNnaDHbEItst1pUm_m2zOK226-DcM2So2MJZTjrYNggzEorLCaTOrLYgMblpgwEBsaDtJrzjdGGYC3S-VGgFzHXr5r4-vdU6aKUehW-HAJb3ytcgxAvvb2xMIPqpRw7t4Frts9f8L8TsL3tSHgvFq3]--></g></svg>