<?xml version="1.0" encoding="us-ascii" standalone="no"?><svg xmlns="http://www.w3.org/2000/svg" xmlns:xlink="http://www.w3.org/1999/xlink" contentStyleType="text/css" height="440px" preserveAspectRatio="none" style="width:612px;height:440px;background:#FFFFFF;" version="1.1" viewBox="0 0 612 440" width="612px" zoomAndPan="magnify"><defs/><g><!--class CatalogContext--><g id="elem_CatalogContext"><rect codeLine="1" fill="#F1F1F1" height="194.6719" id="CatalogContext" rx="2.5" ry="2.5" style="stroke:#181818;stroke-width:0.5;" width="465" x="9" y="239"/><ellipse cx="184.25" cy="255" fill="#ADD1B2" rx="11" ry="11" style="stroke:#181818;stroke-width:1.0;"/><path d="M187.2188,260.6406 Q186.6406,260.9375 186,261.0781 Q185.3594,261.2344 184.6563,261.2344 Q182.1563,261.2344 180.8281,259.5938 Q179.5156,257.9375 179.5156,254.8125 Q179.5156,251.6875 180.8281,250.0313 Q182.1563,248.375 184.6563,248.375 Q185.3594,248.375 186,248.5313 Q186.6563,248.6875 187.2188,248.9844 L187.2188,251.7031 Q186.5938,251.125 186,250.8594 Q185.4063,250.5781 184.7813,250.5781 Q183.4375,250.5781 182.75,251.6563 Q182.0625,252.7188 182.0625,254.8125 Q182.0625,256.9063 182.75,257.9844 Q183.4375,259.0469 184.7813,259.0469 Q185.4063,259.0469 186,258.7813 Q186.5938,258.5 187.2188,257.9219 L187.2188,260.6406 Z " fill="#000000"/><text fill="#000000" font-family="sans-serif" font-size="14" lengthAdjust="spacing" textLength="106" x="204.75" y="259.8467">CatalogContext</text><line style="stroke:#181818;stroke-width:0.5;" x1="10" x2="473" y1="271" y2="271"/><ellipse cx="20" cy="284.6484" fill="none" rx="3" ry="3" style="stroke:#038048;stroke-width:1.0;"/><text fill="#000000" font-family="sans-serif" font-size="14" lengthAdjust="spacing" textLength="273" x="29" y="287.9951">Baskets : DbSet&lt;Basket&gt; &#171;get&#187; &#171;set&#187;</text><ellipse cx="20" cy="300.9453" fill="none" rx="3" ry="3" style="stroke:#038048;stroke-width:1.0;"/><text fill="#000000" font-family="sans-serif" font-size="14" lengthAdjust="spacing" textLength="341" x="29" y="304.292">CatalogItems : DbSet&lt;CatalogItem&gt; &#171;get&#187; &#171;set&#187;</text><ellipse cx="20" cy="317.2422" fill="none" rx="3" ry="3" style="stroke:#038048;stroke-width:1.0;"/><text fill="#000000" font-family="sans-serif" font-size="14" lengthAdjust="spacing" textLength="363" x="29" y="320.5889">CatalogBrands : DbSet&lt;CatalogBrand&gt; &#171;get&#187; &#171;set&#187;</text><ellipse cx="20" cy="333.5391" fill="none" rx="3" ry="3" style="stroke:#038048;stroke-width:1.0;"/><text fill="#000000" font-family="sans-serif" font-size="14" lengthAdjust="spacing" textLength="349" x="29" y="336.8857">CatalogTypes : DbSet&lt;CatalogType&gt; &#171;get&#187; &#171;set&#187;</text><ellipse cx="20" cy="349.8359" fill="none" rx="3" ry="3" style="stroke:#038048;stroke-width:1.0;"/><text fill="#000000" font-family="sans-serif" font-size="14" lengthAdjust="spacing" textLength="255" x="29" y="353.1826">Orders : DbSet&lt;Order&gt; &#171;get&#187; &#171;set&#187;</text><ellipse cx="20" cy="366.1328" fill="none" rx="3" ry="3" style="stroke:#038048;stroke-width:1.0;"/><text fill="#000000" font-family="sans-serif" font-size="14" lengthAdjust="spacing" textLength="315" x="29" y="369.4795">OrderItems : DbSet&lt;OrderItem&gt; &#171;get&#187; &#171;set&#187;</text><ellipse cx="20" cy="382.4297" fill="none" rx="3" ry="3" style="stroke:#038048;stroke-width:1.0;"/><text fill="#000000" font-family="sans-serif" font-size="14" lengthAdjust="spacing" textLength="333" x="29" y="385.7764">BasketItems : DbSet&lt;BasketItem&gt; &#171;get&#187; &#171;set&#187;</text><line style="stroke:#181818;stroke-width:0.5;" x1="10" x2="473" y1="393.0781" y2="393.0781"/><ellipse cx="20" cy="406.7266" fill="#84BE84" rx="3" ry="3" style="stroke:#038048;stroke-width:1.0;"/><text fill="#000000" font-family="sans-serif" font-size="14" lengthAdjust="spacing" textLength="439" x="29" y="410.0732">CatalogContext(options : DbContextOptions&lt;CatalogContext&gt;)</text><polygon fill="#FFFF44" points="20,418.0234,24,422.0234,20,426.0234,16,422.0234" style="stroke:#B38D22;stroke-width:1.0;"/><text fill="#000000" font-family="sans-serif" font-size="14" lengthAdjust="spacing" textLength="399" x="29" y="426.3701">&#171;override&#187; OnModelCreating(builder : ModelBuilder) : void</text></g><!--class DbContext--><g id="elem_DbContext"><rect fill="#F1F1F1" height="48" id="DbContext" rx="2.5" ry="2.5" style="stroke:#181818;stroke-width:0.5;" width="106" x="66.5" y="123"/><ellipse cx="81.5" cy="139" fill="#ADD1B2" rx="11" ry="11" style="stroke:#181818;stroke-width:1.0;"/><path d="M84.4688,144.6406 Q83.8906,144.9375 83.25,145.0781 Q82.6094,145.2344 81.9063,145.2344 Q79.4063,145.2344 78.0781,143.5938 Q76.7656,141.9375 76.7656,138.8125 Q76.7656,135.6875 78.0781,134.0313 Q79.4063,132.375 81.9063,132.375 Q82.6094,132.375 83.25,132.5313 Q83.9063,132.6875 84.4688,132.9844 L84.4688,135.7031 Q83.8438,135.125 83.25,134.8594 Q82.6563,134.5781 82.0313,134.5781 Q80.6875,134.5781 80,135.6563 Q79.3125,136.7188 79.3125,138.8125 Q79.3125,140.9063 80,141.9844 Q80.6875,143.0469 82.0313,143.0469 Q82.6563,143.0469 83.25,142.7813 Q83.8438,142.5 84.4688,141.9219 L84.4688,144.6406 Z " fill="#000000"/><text fill="#000000" font-family="sans-serif" font-size="14" lengthAdjust="spacing" textLength="74" x="95.5" y="143.8467">DbContext</text><line style="stroke:#181818;stroke-width:0.5;" x1="67.5" x2="171.5" y1="155" y2="155"/><line style="stroke:#181818;stroke-width:0.5;" x1="67.5" x2="171.5" y1="163" y2="163"/></g><!--class EfRepository`1--><g id="elem_EfRepository`1"><rect codeLine="13" fill="#F1F1F1" height="64.2969" id="EfRepository`1" rx="2.5" ry="2.5" style="stroke:#181818;stroke-width:0.5;" width="314" x="207.5" y="115"/><ellipse cx="303.25" cy="131" fill="#ADD1B2" rx="11" ry="11" style="stroke:#181818;stroke-width:1.0;"/><path d="M306.2188,136.6406 Q305.6406,136.9375 305,137.0781 Q304.3594,137.2344 303.6563,137.2344 Q301.1563,137.2344 299.8281,135.5938 Q298.5156,133.9375 298.5156,130.8125 Q298.5156,127.6875 299.8281,126.0313 Q301.1563,124.375 303.6563,124.375 Q304.3594,124.375 305,124.5313 Q305.6563,124.6875 306.2188,124.9844 L306.2188,127.7031 Q305.5938,127.125 305,126.8594 Q304.4063,126.5781 303.7813,126.5781 Q302.4375,126.5781 301.75,127.6563 Q301.0625,128.7188 301.0625,130.8125 Q301.0625,132.9063 301.75,133.9844 Q302.4375,135.0469 303.7813,135.0469 Q304.4063,135.0469 305,134.7813 Q305.5938,134.5 306.2188,133.9219 L306.2188,136.6406 Z " fill="#000000"/><text fill="#000000" font-family="sans-serif" font-size="14" lengthAdjust="spacing" textLength="103" x="323.75" y="135.8467">EfRepository`1</text><rect fill="#FFFFFF" height="15.9688" style="stroke:#181818;stroke-width:1.0;stroke-dasharray:2.0,2.0;" width="9" x="515.5" y="112"/><text fill="#000000" font-family="sans-serif" font-size="12" font-style="italic" lengthAdjust="spacing" textLength="7" x="516.5" y="124.1387">T</text><line style="stroke:#181818;stroke-width:0.5;" x1="208.5" x2="520.5" y1="147" y2="147"/><line style="stroke:#181818;stroke-width:0.5;" x1="208.5" x2="520.5" y1="155" y2="155"/><ellipse cx="218.5" cy="168.6484" fill="#84BE84" rx="3" ry="3" style="stroke:#038048;stroke-width:1.0;"/><text fill="#000000" font-family="sans-serif" font-size="14" lengthAdjust="spacing" textLength="288" x="227.5" y="171.9951">EfRepository(dbContext : CatalogContext)</text></g><!--class RepositoryBase`1--><g id="elem_RepositoryBase`1"><rect fill="#F1F1F1" height="48" id="RepositoryBase`1" rx="2.5" ry="2.5" style="stroke:#181818;stroke-width:0.5;" width="157" x="92" y="7"/><ellipse cx="107" cy="23" fill="#ADD1B2" rx="11" ry="11" style="stroke:#181818;stroke-width:1.0;"/><path d="M109.9688,28.6406 Q109.3906,28.9375 108.75,29.0781 Q108.1094,29.2344 107.4063,29.2344 Q104.9063,29.2344 103.5781,27.5938 Q102.2656,25.9375 102.2656,22.8125 Q102.2656,19.6875 103.5781,18.0313 Q104.9063,16.375 107.4063,16.375 Q108.1094,16.375 108.75,16.5313 Q109.4063,16.6875 109.9688,16.9844 L109.9688,19.7031 Q109.3438,19.125 108.75,18.8594 Q108.1563,18.5781 107.5313,18.5781 Q106.1875,18.5781 105.5,19.6563 Q104.8125,20.7188 104.8125,22.8125 Q104.8125,24.9063 105.5,25.9844 Q106.1875,27.0469 107.5313,27.0469 Q108.1563,27.0469 108.75,26.7813 Q109.3438,26.5 109.9688,25.9219 L109.9688,28.6406 Z " fill="#000000"/><text fill="#000000" font-family="sans-serif" font-size="14" lengthAdjust="spacing" textLength="125" x="121" y="27.8467">RepositoryBase`1</text><line style="stroke:#181818;stroke-width:0.5;" x1="93" x2="248" y1="39" y2="39"/><line style="stroke:#181818;stroke-width:0.5;" x1="93" x2="248" y1="47" y2="47"/></g><!--class IReadRepository`1--><g id="elem_IReadRepository`1"><rect fill="#F1F1F1" height="48" id="IReadRepository`1" rx="2.5" ry="2.5" style="stroke:#181818;stroke-width:0.5;" width="161" x="284" y="7"/><ellipse cx="299" cy="23" fill="#ADD1B2" rx="11" ry="11" style="stroke:#181818;stroke-width:1.0;"/><path d="M301.9688,28.6406 Q301.3906,28.9375 300.75,29.0781 Q300.1094,29.2344 299.4063,29.2344 Q296.9063,29.2344 295.5781,27.5938 Q294.2656,25.9375 294.2656,22.8125 Q294.2656,19.6875 295.5781,18.0313 Q296.9063,16.375 299.4063,16.375 Q300.1094,16.375 300.75,16.5313 Q301.4063,16.6875 301.9688,16.9844 L301.9688,19.7031 Q301.3438,19.125 300.75,18.8594 Q300.1563,18.5781 299.5313,18.5781 Q298.1875,18.5781 297.5,19.6563 Q296.8125,20.7188 296.8125,22.8125 Q296.8125,24.9063 297.5,25.9844 Q298.1875,27.0469 299.5313,27.0469 Q300.1563,27.0469 300.75,26.7813 Q301.3438,26.5 301.9688,25.9219 L301.9688,28.6406 Z " fill="#000000"/><text fill="#000000" font-family="sans-serif" font-size="14" lengthAdjust="spacing" textLength="129" x="313" y="27.8467">IReadRepository`1</text><line style="stroke:#181818;stroke-width:0.5;" x1="285" x2="444" y1="39" y2="39"/><line style="stroke:#181818;stroke-width:0.5;" x1="285" x2="444" y1="47" y2="47"/></g><!--class IRepository`1--><g id="elem_IRepository`1"><rect fill="#F1F1F1" height="48" id="IRepository`1" rx="2.5" ry="2.5" style="stroke:#181818;stroke-width:0.5;" width="125" x="480" y="7"/><ellipse cx="495" cy="23" fill="#ADD1B2" rx="11" ry="11" style="stroke:#181818;stroke-width:1.0;"/><path d="M497.9688,28.6406 Q497.3906,28.9375 496.75,29.0781 Q496.1094,29.2344 495.4063,29.2344 Q492.9063,29.2344 491.5781,27.5938 Q490.2656,25.9375 490.2656,22.8125 Q490.2656,19.6875 491.5781,18.0313 Q492.9063,16.375 495.4063,16.375 Q496.1094,16.375 496.75,16.5313 Q497.4063,16.6875 497.9688,16.9844 L497.9688,19.7031 Q497.3438,19.125 496.75,18.8594 Q496.1563,18.5781 495.5313,18.5781 Q494.1875,18.5781 493.5,19.6563 Q492.8125,20.7188 492.8125,22.8125 Q492.8125,24.9063 493.5,25.9844 Q494.1875,27.0469 495.5313,27.0469 Q496.1563,27.0469 496.75,26.7813 Q497.3438,26.5 497.9688,25.9219 L497.9688,28.6406 Z " fill="#000000"/><text fill="#000000" font-family="sans-serif" font-size="14" lengthAdjust="spacing" textLength="93" x="509" y="27.8467">IRepository`1</text><line style="stroke:#181818;stroke-width:0.5;" x1="481" x2="604" y1="39" y2="39"/><line style="stroke:#181818;stroke-width:0.5;" x1="481" x2="604" y1="47" y2="47"/></g><!--reverse link DbContext to CatalogContext--><g id="link_DbContext_CatalogContext"><path codeLine="12" d="M145.89,188.55 C155.54,203.39 166.93,220.89 178.41,238.54 " fill="none" id="DbContext-backto-CatalogContext" style="stroke:#181818;stroke-width:1.0;"/><polygon fill="none" points="139.75,192.95,134.7,172.37,151.48,185.31,139.75,192.95" style="stroke:#181818;stroke-width:1.0;"/></g><!--reverse link RepositoryBase`1 to EfRepository`1--><g id="link_RepositoryBase`1_EfRepository`1"><path codeLine="16" d="M228.02,65.8 C254.37,81.28 285.4,99.52 311.21,114.69 " fill="none" id="RepositoryBase`1-backto-EfRepository`1" style="stroke:#181818;stroke-width:1.0;"/><polygon fill="none" points="224.92,71.51,211.23,55.34,232.02,59.44,224.92,71.51" style="stroke:#181818;stroke-width:1.0;"/></g><!--reverse link IReadRepository`1 to EfRepository`1--><g id="link_IReadRepository`1_EfRepository`1"><path codeLine="17" d="M364.5,76.31 C364.5,89.2 364.5,103.01 364.5,114.9 " fill="none" id="IReadRepository`1-backto-EfRepository`1" style="stroke:#181818;stroke-width:1.0;stroke-dasharray:7.0,7.0;"/><polygon fill="none" points="357.5,76.34,364.5,56.34,371.5,76.34,357.5,76.34" style="stroke:#181818;stroke-width:1.0;"/></g><!--reverse link IRepository`1 to EfRepository`1--><g id="link_IRepository`1_EfRepository`1"><path codeLine="18" d="M488.67,66.47 C464.73,81.81 436.73,99.74 413.39,114.69 " fill="none" id="IRepository`1-backto-EfRepository`1" style="stroke:#181818;stroke-width:1.0;stroke-dasharray:7.0,7.0;"/><polygon fill="none" points="484.43,60.24,505.05,55.34,491.98,72.03,484.43,60.24" style="stroke:#181818;stroke-width:1.0;"/></g><!--link EfRepository`1 to CatalogContext--><g id="link_EfRepository`1_CatalogContext"><path codeLine="19" d="M343.91,179.38 C333.85,194.73 321.1,214.15 308.05,234.05 " fill="none" id="EfRepository`1-to-CatalogContext" style="stroke:#181818;stroke-width:1.0;stroke-dasharray:7.0,7.0;"/><polygon fill="#181818" points="304.91,237.84,313.1885,232.5046,307.6505,233.6579,306.4972,228.1199,304.91,237.84" style="stroke:#181818;stroke-width:1.0;"/></g><!--SRC=[ZP91RiCW44Ntd0BHZQqgbhADa1TskyYYifJc025XQg6wO06D6hMzUx69J2194sz6y_Z_3nXs7JC6ryooJhMraXQ-BCRV2BllCU6PwgrGqk05VjeUMUCHZPLbVWoec7a7wnslOAdlIqnfwyfGpL3ZSKiB7y5o0c_uAiqaFpEEz8PpVUZXp3Z0Qxv6Sz31CRR_QkCpJUYQn_-ds1JOPTU3wzGUj1OSt58ZNnI7hjR0h91jjlqKdPlguaPU-JPt_Lu9ZdxHTAUO_incoTsZtVXGdjzMq2iZhDA7pPoko_1MJfSoFcKjag3SJI91wGu5cpdn8qaSJn1Phe3nY3bbKLnMtg5A02wACjdV7m00]--></g></svg>