<?xml version="1.0" encoding="us-ascii" standalone="no"?><svg xmlns="http://www.w3.org/2000/svg" xmlns:xlink="http://www.w3.org/1999/xlink" contentStyleType="text/css" height="85px" preserveAspectRatio="none" style="width:343px;height:85px;background:#FFFFFF;" version="1.1" viewBox="0 0 343 85" width="343px" zoomAndPan="magnify"><defs/><g><!--class ICatalogLookupDataService`1--><g id="elem_ICatalogLookupDataService`1"><rect codeLine="1" fill="#F1F1F1" height="64.2969" id="ICatalogLookupDataService`1" rx="2.5" ry="2.5" style="stroke:#181818;stroke-width:0.5;" width="322" x="7" y="7"/><ellipse cx="22" cy="23" fill="#B4A7E5" rx="11" ry="11" style="stroke:#181818;stroke-width:1.0;"/><path d="M17.9219,18.7656 L17.9219,16.6094 L25.3125,16.6094 L25.3125,18.7656 L22.8438,18.7656 L22.8438,26.8438 L25.3125,26.8438 L25.3125,29 L17.9219,29 L17.9219,26.8438 L20.3906,26.8438 L20.3906,18.7656 L17.9219,18.7656 Z " fill="#000000"/><text fill="#000000" font-family="sans-serif" font-size="14" font-style="italic" lengthAdjust="spacing" textLength="204" x="36" y="27.8467">ICatalogLookupDataService`1</text><rect fill="#FFFFFF" height="15.9688" style="stroke:#181818;stroke-width:1.0;stroke-dasharray:2.0,2.0;" width="84" x="248" y="4"/><text fill="#000000" font-family="sans-serif" font-size="12" font-style="italic" lengthAdjust="spacing" textLength="82" x="249" y="16.1387">TLookupData</text><line style="stroke:#181818;stroke-width:0.5;" x1="8" x2="328" y1="39" y2="39"/><line style="stroke:#181818;stroke-width:0.5;" x1="8" x2="328" y1="47" y2="47"/><ellipse cx="18" cy="60.6484" fill="#84BE84" rx="3" ry="3" style="stroke:#038048;stroke-width:1.0;"/><text fill="#000000" font-family="sans-serif" font-size="14" lengthAdjust="spacing" textLength="242" x="27" y="63.9951">List() : Task&lt;List&lt;TLookupData&gt;&gt;</text></g><!--SRC=[oymhIIrAIqnELV1qJYn9pCbFzydFpoujS05oWbEBoZAJKnCCRK8GWdOA2jLS2a2WhU2JMLoYeQbWfH2IM9nj0-AXABJZgWK0]--></g></svg>