<?xml version="1.0" encoding="us-ascii" standalone="no"?><svg xmlns="http://www.w3.org/2000/svg" xmlns:xlink="http://www.w3.org/1999/xlink" contentStyleType="text/css" height="316px" preserveAspectRatio="none" style="width:481px;height:316px;background:#FFFFFF;" version="1.1" viewBox="0 0 481 316" width="481px" zoomAndPan="magnify"><defs/><g><!--class CatalogContext--><g id="elem_CatalogContext"><rect codeLine="1" fill="#F1F1F1" height="194.6719" id="CatalogContext" rx="2.5" ry="2.5" style="stroke:#181818;stroke-width:0.5;" width="465" x="9" y="115"/><ellipse cx="184.25" cy="131" fill="#ADD1B2" rx="11" ry="11" style="stroke:#181818;stroke-width:1.0;"/><path d="M187.2188,136.6406 Q186.6406,136.9375 186,137.0781 Q185.3594,137.2344 184.6563,137.2344 Q182.1563,137.2344 180.8281,135.5938 Q179.5156,133.9375 179.5156,130.8125 Q179.5156,127.6875 180.8281,126.0313 Q182.1563,124.375 184.6563,124.375 Q185.3594,124.375 186,124.5313 Q186.6563,124.6875 187.2188,124.9844 L187.2188,127.7031 Q186.5938,127.125 186,126.8594 Q185.4063,126.5781 184.7813,126.5781 Q183.4375,126.5781 182.75,127.6563 Q182.0625,128.7188 182.0625,130.8125 Q182.0625,132.9063 182.75,133.9844 Q183.4375,135.0469 184.7813,135.0469 Q185.4063,135.0469 186,134.7813 Q186.5938,134.5 187.2188,133.9219 L187.2188,136.6406 Z " fill="#000000"/><text fill="#000000" font-family="sans-serif" font-size="14" lengthAdjust="spacing" textLength="106" x="204.75" y="135.8467">CatalogContext</text><line style="stroke:#181818;stroke-width:0.5;" x1="10" x2="473" y1="147" y2="147"/><ellipse cx="20" cy="160.6484" fill="none" rx="3" ry="3" style="stroke:#038048;stroke-width:1.0;"/><text fill="#000000" font-family="sans-serif" font-size="14" lengthAdjust="spacing" textLength="273" x="29" y="163.9951">Baskets : DbSet&lt;Basket&gt; &#171;get&#187; &#171;set&#187;</text><ellipse cx="20" cy="176.9453" fill="none" rx="3" ry="3" style="stroke:#038048;stroke-width:1.0;"/><text fill="#000000" font-family="sans-serif" font-size="14" lengthAdjust="spacing" textLength="341" x="29" y="180.292">CatalogItems : DbSet&lt;CatalogItem&gt; &#171;get&#187; &#171;set&#187;</text><ellipse cx="20" cy="193.2422" fill="none" rx="3" ry="3" style="stroke:#038048;stroke-width:1.0;"/><text fill="#000000" font-family="sans-serif" font-size="14" lengthAdjust="spacing" textLength="363" x="29" y="196.5889">CatalogBrands : DbSet&lt;CatalogBrand&gt; &#171;get&#187; &#171;set&#187;</text><ellipse cx="20" cy="209.5391" fill="none" rx="3" ry="3" style="stroke:#038048;stroke-width:1.0;"/><text fill="#000000" font-family="sans-serif" font-size="14" lengthAdjust="spacing" textLength="349" x="29" y="212.8857">CatalogTypes : DbSet&lt;CatalogType&gt; &#171;get&#187; &#171;set&#187;</text><ellipse cx="20" cy="225.8359" fill="none" rx="3" ry="3" style="stroke:#038048;stroke-width:1.0;"/><text fill="#000000" font-family="sans-serif" font-size="14" lengthAdjust="spacing" textLength="255" x="29" y="229.1826">Orders : DbSet&lt;Order&gt; &#171;get&#187; &#171;set&#187;</text><ellipse cx="20" cy="242.1328" fill="none" rx="3" ry="3" style="stroke:#038048;stroke-width:1.0;"/><text fill="#000000" font-family="sans-serif" font-size="14" lengthAdjust="spacing" textLength="315" x="29" y="245.4795">OrderItems : DbSet&lt;OrderItem&gt; &#171;get&#187; &#171;set&#187;</text><ellipse cx="20" cy="258.4297" fill="none" rx="3" ry="3" style="stroke:#038048;stroke-width:1.0;"/><text fill="#000000" font-family="sans-serif" font-size="14" lengthAdjust="spacing" textLength="333" x="29" y="261.7764">BasketItems : DbSet&lt;BasketItem&gt; &#171;get&#187; &#171;set&#187;</text><line style="stroke:#181818;stroke-width:0.5;" x1="10" x2="473" y1="269.0781" y2="269.0781"/><ellipse cx="20" cy="282.7266" fill="#84BE84" rx="3" ry="3" style="stroke:#038048;stroke-width:1.0;"/><text fill="#000000" font-family="sans-serif" font-size="14" lengthAdjust="spacing" textLength="439" x="29" y="286.0732">CatalogContext(options : DbContextOptions&lt;CatalogContext&gt;)</text><polygon fill="#FFFF44" points="20,294.0234,24,298.0234,20,302.0234,16,298.0234" style="stroke:#B38D22;stroke-width:1.0;"/><text fill="#000000" font-family="sans-serif" font-size="14" lengthAdjust="spacing" textLength="399" x="29" y="302.3701">&#171;override&#187; OnModelCreating(builder : ModelBuilder) : void</text></g><!--class DbContext--><g id="elem_DbContext"><rect fill="#F1F1F1" height="48" id="DbContext" rx="2.5" ry="2.5" style="stroke:#181818;stroke-width:0.5;" width="106" x="188.5" y="7"/><ellipse cx="203.5" cy="23" fill="#ADD1B2" rx="11" ry="11" style="stroke:#181818;stroke-width:1.0;"/><path d="M206.4688,28.6406 Q205.8906,28.9375 205.25,29.0781 Q204.6094,29.2344 203.9063,29.2344 Q201.4063,29.2344 200.0781,27.5938 Q198.7656,25.9375 198.7656,22.8125 Q198.7656,19.6875 200.0781,18.0313 Q201.4063,16.375 203.9063,16.375 Q204.6094,16.375 205.25,16.5313 Q205.9063,16.6875 206.4688,16.9844 L206.4688,19.7031 Q205.8438,19.125 205.25,18.8594 Q204.6563,18.5781 204.0313,18.5781 Q202.6875,18.5781 202,19.6563 Q201.3125,20.7188 201.3125,22.8125 Q201.3125,24.9063 202,25.9844 Q202.6875,27.0469 204.0313,27.0469 Q204.6563,27.0469 205.25,26.7813 Q205.8438,26.5 206.4688,25.9219 L206.4688,28.6406 Z " fill="#000000"/><text fill="#000000" font-family="sans-serif" font-size="14" lengthAdjust="spacing" textLength="74" x="217.5" y="27.8467">DbContext</text><line style="stroke:#181818;stroke-width:0.5;" x1="189.5" x2="293.5" y1="39" y2="39"/><line style="stroke:#181818;stroke-width:0.5;" x1="189.5" x2="293.5" y1="47" y2="47"/></g><!--reverse link DbContext to CatalogContext--><g id="link_DbContext_CatalogContext"><path codeLine="12" d="M241.5,76.16 C241.5,88.02 241.5,101.32 241.5,114.84 " fill="none" id="DbContext-backto-CatalogContext" style="stroke:#181818;stroke-width:1.0;"/><polygon fill="none" points="234.5,76.47,241.5,56.47,248.5,76.47,234.5,76.47" style="stroke:#181818;stroke-width:1.0;"/></g><!--SRC=[XP513e8m44NtdAA96uZn0gPX0MvS61PwWM8dfB6sf1s9HhsxXH8G4Ebcyb_djMddB9cr96N8f2vIhH3kICWp86wjHppK9GgjBDcINTwop2Cwx8oZze24sGkWDuw0rEUOK5guKbTRr-5rUuHhhtp11IynJF69sD05y_GeOIBMSCxB30VJ6qtyspjyKuVc7FzFGwbdlwsLIxe2OmG7jvMfW-OWKmCCXIh2_2QakzKTr_34nyZbIWiUl8DkfeI-DflHx3y0]--></g></svg>