<?xml version="1.0" encoding="us-ascii" standalone="no"?><svg xmlns="http://www.w3.org/2000/svg" xmlns:xlink="http://www.w3.org/1999/xlink" contentStyleType="text/css" height="117px" preserveAspectRatio="none" style="width:281px;height:117px;background:#FFFFFF;" version="1.1" viewBox="0 0 281 117" width="281px" zoomAndPan="magnify"><defs/><g><!--class RemoveLoginViewModel--><g id="elem_RemoveLoginViewModel"><rect codeLine="1" fill="#F1F1F1" height="96.8906" id="RemoveLoginViewModel" rx="2.5" ry="2.5" style="stroke:#181818;stroke-width:0.5;" width="260" x="7" y="7"/><ellipse cx="49" cy="23" fill="#ADD1B2" rx="11" ry="11" style="stroke:#181818;stroke-width:1.0;"/><path d="M51.9688,28.6406 Q51.3906,28.9375 50.75,29.0781 Q50.1094,29.2344 49.4063,29.2344 Q46.9063,29.2344 45.5781,27.5938 Q44.2656,25.9375 44.2656,22.8125 Q44.2656,19.6875 45.5781,18.0313 Q46.9063,16.375 49.4063,16.375 Q50.1094,16.375 50.75,16.5313 Q51.4063,16.6875 51.9688,16.9844 L51.9688,19.7031 Q51.3438,19.125 50.75,18.8594 Q50.1563,18.5781 49.5313,18.5781 Q48.1875,18.5781 47.5,19.6563 Q46.8125,20.7188 46.8125,22.8125 Q46.8125,24.9063 47.5,25.9844 Q48.1875,27.0469 49.5313,27.0469 Q50.1563,27.0469 50.75,26.7813 Q51.3438,26.5 51.9688,25.9219 L51.9688,28.6406 Z " fill="#000000"/><text fill="#000000" font-family="sans-serif" font-size="14" lengthAdjust="spacing" textLength="168" x="69" y="27.8467">RemoveLoginViewModel</text><line style="stroke:#181818;stroke-width:0.5;" x1="8" x2="266" y1="39" y2="39"/><ellipse cx="18" cy="52.6484" fill="none" rx="3" ry="3" style="stroke:#038048;stroke-width:1.0;"/><text fill="#000000" font-family="sans-serif" font-size="14" lengthAdjust="spacing" textLength="234" x="27" y="55.9951">LoginProvider : string &#171;get&#187; &#171;set&#187;</text><ellipse cx="18" cy="68.9453" fill="none" rx="3" ry="3" style="stroke:#038048;stroke-width:1.0;"/><text fill="#000000" font-family="sans-serif" font-size="14" lengthAdjust="spacing" textLength="222" x="27" y="72.292">ProviderKey : string &#171;get&#187; &#171;set&#187;</text><line style="stroke:#181818;stroke-width:0.5;" x1="8" x2="266" y1="79.5938" y2="79.5938"/><ellipse cx="18" cy="93.2422" fill="#84BE84" rx="3" ry="3" style="stroke:#038048;stroke-width:1.0;"/><text fill="#000000" font-family="sans-serif" font-size="14" lengthAdjust="spacing" textLength="178" x="27" y="96.5889">RemoveLoginViewModel()</text></g><!--SRC=[Iyv9B2vM24hDpIzBzSbFpymBoqmjzyrFISrHKAZcKW02RGMmU41HVbbcIcgHWfL2SKbHPbwwWerDUcg9dHsGBWRHKCKmTTwfbOIKOhDLGvEh5W00]--></g></svg>