<?xml version="1.0" encoding="us-ascii" standalone="no"?><svg xmlns="http://www.w3.org/2000/svg" xmlns:xlink="http://www.w3.org/1999/xlink" contentStyleType="text/css" height="408px" preserveAspectRatio="none" style="width:1074px;height:408px;background:#FFFFFF;" version="1.1" viewBox="0 0 1074 408" width="1074px" zoomAndPan="magnify"><defs/><g><!--class BaseMessage--><g id="elem_BaseMessage"><rect codeLine="1" fill="#F1F1F1" height="96.8906" id="BaseMessage" rx="2.5" ry="2.5" style="stroke:#181818;stroke-width:0.5;" width="168" x="9" y="7"/><ellipse cx="41.1" cy="23" fill="#A9DCDF" rx="11" ry="11" style="stroke:#181818;stroke-width:1.0;"/><path d="M41.2094,18.3438 L40.0531,23.4219 L42.3813,23.4219 L41.2094,18.3438 Z M39.725,16.1094 L42.7094,16.1094 L46.0688,28.5 L43.6156,28.5 L42.85,25.4375 L39.5688,25.4375 L38.8188,28.5 L36.3813,28.5 L39.725,16.1094 Z " fill="#000000"/><text fill="#000000" font-family="sans-serif" font-size="14" font-style="italic" lengthAdjust="spacing" textLength="98" x="58.9" y="27.8467">BaseMessage</text><line style="stroke:#181818;stroke-width:0.5;" x1="10" x2="176" y1="39" y2="39"/><polygon fill="none" points="20,47.6484,24,51.6484,20,55.6484,16,51.6484" style="stroke:#B38D22;stroke-width:1.0;"/><text fill="#000000" font-family="sans-serif" font-size="14" lengthAdjust="spacing" textLength="137" x="29" y="55.9951">_correlationId : Guid</text><line style="stroke:#181818;stroke-width:0.5;" x1="10" x2="176" y1="63.2969" y2="63.2969"/><ellipse cx="20" cy="76.9453" fill="#84BE84" rx="3" ry="3" style="stroke:#038048;stroke-width:1.0;"/><text fill="#000000" font-family="sans-serif" font-size="14" lengthAdjust="spacing" textLength="142" x="29" y="80.292">CorrelationId() : Guid</text><polygon fill="#FFFF44" points="20,88.2422,24,92.2422,20,96.2422,16,92.2422" style="stroke:#B38D22;stroke-width:1.0;"/><text fill="#000000" font-family="sans-serif" font-size="14" lengthAdjust="spacing" textLength="108" x="29" y="96.5889">BaseMessage()</text></g><!--class BaseRequest--><g id="elem_BaseRequest"><rect codeLine="6" fill="#F1F1F1" height="64.2969" id="BaseRequest" rx="2.5" ry="2.5" style="stroke:#181818;stroke-width:0.5;" width="130" x="28" y="180.5"/><ellipse cx="44.8" cy="196.5" fill="#A9DCDF" rx="11" ry="11" style="stroke:#181818;stroke-width:1.0;"/><path d="M44.9094,191.8438 L43.7531,196.9219 L46.0813,196.9219 L44.9094,191.8438 Z M43.425,189.6094 L46.4094,189.6094 L49.7688,202 L47.3156,202 L46.55,198.9375 L43.2688,198.9375 L42.5188,202 L40.0813,202 L43.425,189.6094 Z " fill="#000000"/><text fill="#000000" font-family="sans-serif" font-size="14" font-style="italic" lengthAdjust="spacing" textLength="94" x="59.2" y="201.3467">BaseRequest</text><line style="stroke:#181818;stroke-width:0.5;" x1="29" x2="157" y1="212.5" y2="212.5"/><line style="stroke:#181818;stroke-width:0.5;" x1="29" x2="157" y1="220.5" y2="220.5"/><polygon fill="#FFFF44" points="39,229.1484,43,233.1484,39,237.1484,35,233.1484" style="stroke:#B38D22;stroke-width:1.0;"/><text fill="#000000" font-family="sans-serif" font-size="14" lengthAdjust="spacing" textLength="104" x="48" y="237.4951">BaseRequest()</text></g><!--class GetByIdCatalogItemRequest--><g id="elem_GetByIdCatalogItemRequest"><rect codeLine="10" fill="#F1F1F1" height="80.5938" id="GetByIdCatalogItemRequest" rx="2.5" ry="2.5" style="stroke:#181818;stroke-width:0.5;" width="353" x="184.5" y="321"/><ellipse cx="259.25" cy="337" fill="#ADD1B2" rx="11" ry="11" style="stroke:#181818;stroke-width:1.0;"/><path d="M262.2188,342.6406 Q261.6406,342.9375 261,343.0781 Q260.3594,343.2344 259.6563,343.2344 Q257.1563,343.2344 255.8281,341.5938 Q254.5156,339.9375 254.5156,336.8125 Q254.5156,333.6875 255.8281,332.0313 Q257.1563,330.375 259.6563,330.375 Q260.3594,330.375 261,330.5313 Q261.6563,330.6875 262.2188,330.9844 L262.2188,333.7031 Q261.5938,333.125 261,332.8594 Q260.4063,332.5781 259.7813,332.5781 Q258.4375,332.5781 257.75,333.6563 Q257.0625,334.7188 257.0625,336.8125 Q257.0625,338.9063 257.75,339.9844 Q258.4375,341.0469 259.7813,341.0469 Q260.4063,341.0469 261,340.7813 Q261.5938,340.5 262.2188,339.9219 L262.2188,342.6406 Z " fill="#000000"/><text fill="#000000" font-family="sans-serif" font-size="14" lengthAdjust="spacing" textLength="195" x="279.75" y="341.8467">GetByIdCatalogItemRequest</text><line style="stroke:#181818;stroke-width:0.5;" x1="185.5" x2="536.5" y1="353" y2="353"/><ellipse cx="195.5" cy="366.6484" fill="none" rx="3" ry="3" style="stroke:#038048;stroke-width:1.0;"/><text fill="#000000" font-family="sans-serif" font-size="14" lengthAdjust="spacing" textLength="213" x="204.5" y="369.9951">CatalogItemId : int &#171;get&#187; &#171;set&#187;</text><line style="stroke:#181818;stroke-width:0.5;" x1="185.5" x2="536.5" y1="377.2969" y2="377.2969"/><ellipse cx="195.5" cy="390.9453" fill="#84BE84" rx="3" ry="3" style="stroke:#038048;stroke-width:1.0;"/><text fill="#000000" font-family="sans-serif" font-size="14" lengthAdjust="spacing" textLength="327" x="204.5" y="394.292">GetByIdCatalogItemRequest(catalogItemId : int)</text></g><!--class CatalogItemGetByIdEndpoint--><g id="elem_CatalogItemGetByIdEndpoint"><rect codeLine="15" fill="#F1F1F1" height="96.8906" id="CatalogItemGetByIdEndpoint" rx="2.5" ry="2.5" style="stroke:#181818;stroke-width:0.5;" width="874" x="193" y="164"/><ellipse cx="526.75" cy="180" fill="#ADD1B2" rx="11" ry="11" style="stroke:#181818;stroke-width:1.0;"/><path d="M529.7188,185.6406 Q529.1406,185.9375 528.5,186.0781 Q527.8594,186.2344 527.1563,186.2344 Q524.6563,186.2344 523.3281,184.5938 Q522.0156,182.9375 522.0156,179.8125 Q522.0156,176.6875 523.3281,175.0313 Q524.6563,173.375 527.1563,173.375 Q527.8594,173.375 528.5,173.5313 Q529.1563,173.6875 529.7188,173.9844 L529.7188,176.7031 Q529.0938,176.125 528.5,175.8594 Q527.9063,175.5781 527.2813,175.5781 Q525.9375,175.5781 525.25,176.6563 Q524.5625,177.7188 524.5625,179.8125 Q524.5625,181.9063 525.25,182.9844 Q525.9375,184.0469 527.2813,184.0469 Q527.9063,184.0469 528.5,183.7813 Q529.0938,183.5 529.7188,182.9219 L529.7188,185.6406 Z " fill="#000000"/><text fill="#000000" font-family="sans-serif" font-size="14" lengthAdjust="spacing" textLength="198" x="547.25" y="184.8467">CatalogItemGetByIdEndpoint</text><line style="stroke:#181818;stroke-width:0.5;" x1="194" x2="1066" y1="196" y2="196"/><line style="stroke:#181818;stroke-width:0.5;" x1="194" x2="1066" y1="204" y2="204"/><ellipse cx="204" cy="217.6484" fill="#84BE84" rx="3" ry="3" style="stroke:#038048;stroke-width:1.0;"/><text fill="#000000" font-family="sans-serif" font-size="14" lengthAdjust="spacing" textLength="403" x="213" y="220.9951">CatalogItemGetByIdEndpoint(uriComposer : IUriComposer)</text><ellipse cx="204" cy="233.9453" fill="#84BE84" rx="3" ry="3" style="stroke:#038048;stroke-width:1.0;"/><text fill="#000000" font-family="sans-serif" font-size="14" lengthAdjust="spacing" textLength="314" x="213" y="237.292">AddRoute(app : IEndpointRouteBuilder) : void</text><ellipse cx="204" cy="250.2422" fill="#84BE84" rx="3" ry="3" style="stroke:#038048;stroke-width:1.0;"/><text fill="#000000" font-family="sans-serif" font-size="14" lengthAdjust="spacing" textLength="848" x="213" y="253.5889">&#171;async&#187; HandleAsync(request : GetByIdCatalogItemRequest, itemRepository : IRepository&lt;CatalogItem&gt;) : Task&lt;IResult&gt;</text></g><!--class IEndpoint`3--><g id="elem_IEndpoint`3"><rect fill="#F1F1F1" height="48" id="IEndpoint`3" rx="2.5" ry="2.5" style="stroke:#181818;stroke-width:0.5;" width="113" x="573.5" y="31.5"/><ellipse cx="588.5" cy="47.5" fill="#ADD1B2" rx="11" ry="11" style="stroke:#181818;stroke-width:1.0;"/><path d="M591.4688,53.1406 Q590.8906,53.4375 590.25,53.5781 Q589.6094,53.7344 588.9063,53.7344 Q586.4063,53.7344 585.0781,52.0938 Q583.7656,50.4375 583.7656,47.3125 Q583.7656,44.1875 585.0781,42.5313 Q586.4063,40.875 588.9063,40.875 Q589.6094,40.875 590.25,41.0313 Q590.9063,41.1875 591.4688,41.4844 L591.4688,44.2031 Q590.8438,43.625 590.25,43.3594 Q589.6563,43.0781 589.0313,43.0781 Q587.6875,43.0781 587,44.1563 Q586.3125,45.2188 586.3125,47.3125 Q586.3125,49.4063 587,50.4844 Q587.6875,51.5469 589.0313,51.5469 Q589.6563,51.5469 590.25,51.2813 Q590.8438,51 591.4688,50.4219 L591.4688,53.1406 Z " fill="#000000"/><text fill="#000000" font-family="sans-serif" font-size="14" lengthAdjust="spacing" textLength="81" x="602.5" y="52.3467">IEndpoint`3</text><line style="stroke:#181818;stroke-width:0.5;" x1="574.5" x2="685.5" y1="63.5" y2="63.5"/><line style="stroke:#181818;stroke-width:0.5;" x1="574.5" x2="685.5" y1="71.5" y2="71.5"/></g><!--reverse link BaseMessage to BaseRequest--><g id="link_BaseMessage_BaseRequest"><path codeLine="9" d="M93,125.06 C93,144.33 93,164.36 93,180.27 " fill="none" id="BaseMessage-backto-BaseRequest" style="stroke:#181818;stroke-width:1.0;"/><polygon fill="none" points="86,125.27,93,105.27,100,125.27,86,125.27" style="stroke:#181818;stroke-width:1.0;"/></g><!--reverse link BaseRequest to GetByIdCatalogItemRequest--><g id="link_BaseRequest_GetByIdCatalogItemRequest"><path codeLine="14" d="M164.47,255.09 C168.03,257.1 171.55,259.08 175,261 C210.99,281.05 251.27,302.69 285.12,320.65 " fill="none" id="BaseRequest-backto-GetByIdCatalogItemRequest" style="stroke:#181818;stroke-width:1.0;"/><polygon fill="none" points="161.57,260.92,147.66,244.93,168.5,248.76,161.57,260.92" style="stroke:#181818;stroke-width:1.0;"/></g><!--reverse link IEndpoint`3 to CatalogItemGetByIdEndpoint--><g id="link_IEndpoint`3_CatalogItemGetByIdEndpoint"><path codeLine="20" d="M630,100.47 C630,120.22 630,143.57 630,163.75 " fill="none" id="IEndpoint`3-backto-CatalogItemGetByIdEndpoint" style="stroke:#181818;stroke-width:1.0;stroke-dasharray:7.0,7.0;"/><polygon fill="none" points="623,100.71,630,80.71,637,100.71,623,100.71" style="stroke:#181818;stroke-width:1.0;"/><text fill="#000000" font-family="sans-serif" font-size="13" lengthAdjust="spacing" textLength="330" x="259.7813" y="99.5224">&lt;IResult, GetByIdCatalogItemRequest, IRepository&gt;</text></g><!--link CatalogItemGetByIdEndpoint to GetByIdCatalogItemRequest--><g id="link_CatalogItemGetByIdEndpoint_GetByIdCatalogItemRequest"><path codeLine="21" d="M542.29,261.43 C509.11,279.56 471.59,300.07 439.32,317.7 " fill="none" id="CatalogItemGetByIdEndpoint-to-GetByIdCatalogItemRequest" style="stroke:#181818;stroke-width:1.0;stroke-dasharray:7.0,7.0;"/><polygon fill="#181818" points="435.19,320.5,445.0054,319.6885,439.5762,318.0997,441.1649,312.6706,435.19,320.5" style="stroke:#181818;stroke-width:1.0;"/></g><!--SRC=[VL7BJiCm4BpdAwpqaees5swLPQc9KCc1ImLdM68hikh6mG-a2FXtR9CqLalYYxMUsPdPDRnhew0sg1QWDIf0ioUcDJGCeQy4kRD2hxLKYWamNBOLHJjqi9m6x0wLCPIjOt0LgsNhv2U1MxCZ-x1CcyaiUWmzSIBylTt6XEHFvy1CqLUq10D2DfLXvojL5tF2mWIyDGZZXXb2tAtzFJ1dnRBwLcCCEFg5WBCAGzm86AWFBUsaZ_HVtYjEPXKlvRcJcYaNedgPolNGlAVqAArX6NITfuojuR6mN537TS2dl7mZng3xjdRRU8IM2hRtLQQ6iNRpCsqG3uKBm8rKlVURAXmr46_v3Fg47K5ROOXRNde9ztQVedI4Dak6aJv9tShpV65ToSAsyvpC-_m2]--></g></svg>